<svg width="110" height="110" viewBox="0 0 110 110" fill="none" xmlns="http://www.w3.org/2000/svg">
<g id="icon_sparkler">
<path id="Vector" d="M89.1223 34.136C89.1223 34.136 86.5515 36.4623 81.437 40.3422C76.3226 44.2221 68.6755 49.6489 58.5338 55.8435C70.9229 76.1269 75.8366 89.1223 75.8366 89.1223C75.8366 89.1223 73.5104 86.5516 69.6305 81.4371C65.7506 76.3227 60.3237 68.6755 54.1291 58.5339C33.8458 70.923 20.8503 75.8367 20.8503 75.8367C20.8503 75.8367 23.4211 73.5104 28.5355 69.6305C33.65 65.7506 41.2971 60.3238 51.4388 54.1292C39.0497 33.8458 34.136 20.8504 34.136 20.8504C34.136 20.8504 43.4543 31.1555 55.8434 51.4389C76.1268 39.0497 89.1223 34.136 89.1223 34.136Z" fill="#A1390B"/>
<path id="Vector_2" d="M54.4974 49.2367C55.7236 36.3919 60.9854 30.154 60.9854 30.154C61.2229 36.924 60.2265 43.6806 58.0449 50.0938" fill="#A1390B"/>
<path id="Vector_3" d="M49.237 55.4743C36.3922 54.2481 30.1543 48.9863 30.1543 48.9863C36.9242 48.7489 43.6809 49.7453 50.0941 51.9268" fill="#A1390B"/>
<path id="Vector_4" d="M55.4751 60.7362C54.2489 73.581 48.9871 79.8189 48.9871 79.8189C48.7496 73.049 49.746 66.2923 51.9276 59.8791" fill="#A1390B"/>
<path id="Vector_5" d="M60.7355 54.4981C73.5803 55.7243 79.8182 60.9861 79.8182 60.9861C73.0483 61.2236 66.2916 60.2272 59.8784 58.0456" fill="#A1390B"/>
<path id="Vector_6" d="M58.3489 60.4919C61.3897 58.6346 62.3491 54.6639 60.4917 51.6232C58.6344 48.5824 54.6638 47.623 51.623 49.4803C48.5822 51.3376 47.6228 55.3083 49.4801 58.3491C51.3374 61.3898 55.3081 62.3492 58.3489 60.4919Z" fill="#FF6600"/>
</g>
</svg>
