<svg width="24" height="24" viewBox="0 0 24 24" fill="none" xmlns="http://www.w3.org/2000/svg">
<g id="icon">
<g id="Group">
<g id="Group_2">
<path id="Vector" d="M17.2612 12.375C17.0331 12.375 16.8493 12.1905 16.8493 11.9624C16.852 9.31308 14.7127 7.15266 12.0389 7.15266C11.8115 7.15266 11.627 6.96815 11.627 6.74073C11.627 6.51809 11.8047 6.32812 12.0443 6.32812C15.1389 6.32812 17.6765 8.83238 17.6738 11.963C17.6731 12.1911 17.4886 12.375 17.2612 12.375Z" fill="#FF6600"/>
</g>
<g id="Group_3">
<path id="Vector_2" d="M20.0392 12.3753C19.8111 12.3753 19.6272 12.1908 19.6272 11.9627C19.63 7.78144 16.2515 4.37434 12.0389 4.37434C11.8115 4.37434 11.627 4.18983 11.627 3.96241C11.627 3.74045 11.8047 3.5498 12.0436 3.5498C16.707 3.5498 20.4545 7.33342 20.4518 11.9634C20.4511 12.1915 20.2666 12.3753 20.0392 12.3753Z" fill="#FF6600"/>
</g>
<g id="Group_4">
<path id="Vector_3" d="M22.6272 12.375C22.3998 12.375 22.2152 12.1905 22.2152 11.9631C22.218 6.34929 17.6779 1.78675 12.0389 1.78675C11.8115 1.78675 11.627 1.60223 11.627 1.37482C11.627 1.15285 11.804 0.962891 12.043 0.962891C18.1171 0.962891 23.0418 5.88425 23.0391 11.9638C23.0391 12.1905 22.8546 12.375 22.6272 12.375Z" fill="#FF6600"/>
</g>
</g>
<g id="Group_5">
<path id="Vector_4" d="M18.0601 24C17.7135 24 16.6902 23.9312 15.0976 23.249C12.0997 21.9649 9.18488 19.4422 6.91688 17.085C5.27121 15.5013 3.88494 13.9326 2.7969 12.4231C1.91926 11.2057 1.23157 10.0217 0.752916 8.90434C-0.0341758 7.06802 -0.00421726 5.98815 0.00463412 5.83087C0.0529763 3.4267 1.3126 1.54 3.33548 0.316472C4.32683 -0.283379 5.61641 -0.0069436 6.27073 0.94628L8.77499 4.59236C9.08207 5.0397 9.21143 5.58235 9.13926 6.12024C9.06709 6.65813 8.79882 7.147 8.38417 7.49765L7.58414 8.17376C7.58482 8.17648 7.58482 8.17989 7.5855 8.18261C7.98722 10.723 13.279 16.0147 15.8193 16.4164C15.8221 16.4171 15.8255 16.4171 15.8282 16.4178L16.5043 15.6178C17.2274 14.7612 18.4836 14.5917 19.4096 15.2269L23.0557 17.7312C24.0089 18.3855 24.2853 19.6751 23.6855 20.6664C22.3292 22.9058 20.2974 24 18.0601 24ZM0.827132 5.88262C0.824408 5.92687 0.77947 6.91074 1.54818 8.66807C2.27535 10.3301 3.8972 13.0372 7.49358 16.4968C7.64406 16.622 11.3378 20.7052 15.3339 22.4537C16.1727 22.8207 17.224 23.1734 18.1459 23.1734C20.7039 23.1258 22.1869 21.5516 22.9808 20.2402C23.3546 19.622 23.183 18.8185 22.5893 18.4107L18.9432 15.9064C18.3644 15.5088 17.5869 15.6137 17.1341 16.1495L16.3136 17.1204C16.2265 17.2239 16.0937 17.2777 15.9596 17.2648C15.8711 17.2559 15.7805 17.2444 15.6906 17.2307C13.4124 16.8692 9.7609 13.5275 7.97701 10.9068C7.29 9.89841 6.8842 9.02485 6.77117 8.31198C6.75688 8.2221 6.7453 8.13223 6.73713 8.04303C6.72419 7.90822 6.77798 7.77613 6.88148 7.68898L7.8524 6.86852C8.38825 6.41574 8.49311 5.63818 8.09548 5.05944L5.5919 1.41268C5.18405 0.818957 4.38062 0.647376 3.76239 1.02118C2.45034 1.81508 0.876836 3.29802 0.829174 5.85606C0.828493 5.86696 0.828494 5.87241 0.827132 5.88262Z" fill="#FF6600"/>
</g>
</g>
</svg>
