<svg width="24" height="24" viewBox="0 0 24 24" fill="none" xmlns="http://www.w3.org/2000/svg">
<g id="icon">
<g id="Group">
<g id="Group_2">
<path id="Vector" d="M12.0022 3.91403C12.2892 3.91403 12.5239 3.67919 12.5239 3.39217V3.13124C12.5239 2.84421 12.2892 2.60938 12.0022 2.60938C11.7153 2.60938 11.4805 2.84421 11.4805 3.13124V3.39217C11.4805 3.67919 11.7153 3.91403 12.0022 3.91403Z" fill="#FF6600"/>
<path id="Vector_2" d="M12.0022 20.0869C11.7153 20.0869 11.4805 20.3218 11.4805 20.6088V20.8697C11.4805 21.1567 11.7153 21.3916 12.0022 21.3916C12.2892 21.3916 12.5239 21.1567 12.5239 20.8697V20.6088C12.5239 20.3218 12.2892 20.0869 12.0022 20.0869Z" fill="#FF6600"/>
<path id="Vector_3" d="M3.39394 11.4775H3.13307C2.84611 11.4775 2.61133 11.7123 2.61133 11.9993C2.61133 12.2862 2.84611 12.521 3.13307 12.521H3.39394C3.68089 12.521 3.91568 12.2862 3.91568 11.9993C3.91568 11.7123 3.68089 11.4775 3.39394 11.4775Z" fill="#FF6600"/>
<path id="Vector_4" d="M20.8725 11.4775H20.6116C20.3246 11.4775 20.0898 11.7123 20.0898 11.9993C20.0898 12.2862 20.3246 12.521 20.6116 12.521H20.8725C21.1594 12.521 21.3942 12.2862 21.3942 11.9993C21.3942 11.7123 21.1594 11.4775 20.8725 11.4775Z" fill="#FF6600"/>
<path id="Vector_5" d="M6.10571 5.37433C5.89701 5.16559 5.58397 5.16559 5.37527 5.37433C5.16658 5.58308 5.16658 5.89619 5.37527 6.10494L5.55788 6.28759C5.66223 6.39196 5.79266 6.44415 5.9231 6.44415C6.05353 6.44415 6.18397 6.39196 6.28832 6.28759C6.49701 6.07884 6.49701 5.76573 6.28832 5.55698L6.10571 5.37433Z" fill="#FF6600"/>
<path id="Vector_6" d="M5.55788 17.7137L5.37527 17.8963C5.16658 18.1051 5.16658 18.4182 5.37527 18.6269C5.47962 18.7313 5.61005 18.7835 5.74049 18.7835C5.87092 18.7835 6.00136 18.7313 6.10571 18.6269L6.28832 18.4443C6.49701 18.2355 6.49701 17.9224 6.28832 17.7137C6.07962 17.5049 5.76658 17.5049 5.55788 17.7137Z" fill="#FF6600"/>
<path id="Vector_7" d="M17.8977 5.37433L17.7151 5.55698C17.5064 5.76573 17.5064 6.07884 17.7151 6.28759C17.8195 6.39196 17.9499 6.44415 18.0803 6.44415C18.2108 6.44415 18.3412 6.39196 18.4455 6.28759L18.6282 6.10494C18.8369 5.89619 18.8369 5.58308 18.6282 5.37433C18.4195 5.16559 18.1064 5.16559 17.8977 5.37433Z" fill="#FF6600"/>
<path id="Vector_8" d="M12.5239 11.7915V7.04371C12.5239 6.75676 12.2892 6.52197 12.0022 6.52197C11.7153 6.52197 11.4805 6.75676 11.4805 7.04371V12.0002C11.4805 12.1307 11.5326 12.2611 11.637 12.3655L17.35 18.0785C17.4544 18.1828 17.5848 18.235 17.7153 18.235C17.8457 18.235 17.9761 18.1828 18.0805 18.0785C18.2892 17.8698 18.2892 17.5568 18.0805 17.3481L12.5239 11.7915Z" fill="#FF6600"/>
<path id="Vector_9" d="M12.002 0C5.37587 0 0.00195312 5.37391 0.00195312 12C0.00195312 18.6261 5.37587 24 12.002 24C18.628 24 24.002 18.6261 24.002 12C24.002 5.37391 18.628 0 12.002 0ZM12.002 22.9565C5.94978 22.9565 1.04543 18.0522 1.04543 12C1.04543 5.94783 5.94978 1.04348 12.002 1.04348C18.0541 1.04348 22.9585 5.94783 22.9585 12C22.9585 18.0522 18.0541 22.9565 12.002 22.9565Z" fill="#FF6600"/>
</g>
</g>
</g>
</svg>
