<svg width="24" height="16" viewBox="0 0 24 16" fill="none" xmlns="http://www.w3.org/2000/svg">
<g id="icon">
<path id="Vector" d="M24.002 0.336117C24.002 0.332652 24.002 0.329571 24.0009 0.326106C23.9999 0.322641 23.9995 0.313978 23.9991 0.308011C23.9969 0.281283 23.9912 0.254912 23.9823 0.229468C23.9811 0.226003 23.9823 0.222345 23.9801 0.21888C23.9778 0.215415 23.9781 0.215993 23.9774 0.214453C23.9659 0.186488 23.9504 0.160134 23.9315 0.136102C23.9272 0.130712 23.9228 0.1259 23.9181 0.120702C23.8997 0.0994762 23.8786 0.0804697 23.8553 0.0641048C23.8529 0.0623722 23.8509 0.0602547 23.8484 0.0587146C23.8224 0.0424199 23.7942 0.0294738 23.7646 0.0202135C23.7577 0.0179034 23.7508 0.015978 23.7443 0.014053C23.7132 0.0051623 23.6809 0.000432699 23.6483 0H0.355585C0.323054 0.000432699 0.290743 0.0051623 0.259582 0.014053C0.252493 0.015978 0.245809 0.0179034 0.239328 0.0202135C0.209713 0.0294738 0.181517 0.0424199 0.155477 0.0587146C0.153047 0.0602547 0.151021 0.0623722 0.148591 0.0641048C0.125315 0.0804697 0.10423 0.0994762 0.0858041 0.120702C0.0813482 0.1259 0.0766898 0.130712 0.0724365 0.136102C0.0534717 0.160134 0.0380066 0.186488 0.0264602 0.214453C0.0264602 0.215993 0.0244349 0.21734 0.0238272 0.21888C0.0232196 0.22042 0.0228145 0.226003 0.0215993 0.229468C0.0126971 0.254912 0.00705288 0.281283 0.00478865 0.308011C0.00478865 0.314171 0.00296574 0.320139 0.00296574 0.326106C0.00296574 0.332074 0.00195312 0.332652 0.00195312 0.336117V15.6625C0.00195312 15.667 0.00316835 15.6712 0.00337089 15.6756C0.00396181 15.6877 0.00524646 15.6998 0.00721913 15.7118C0.00883944 15.7216 0.0102572 15.7311 0.0126877 15.7411C0.0158138 15.7528 0.0196 15.7643 0.0240298 15.7755C0.0274729 15.7846 0.0307135 15.7936 0.0349668 15.8023C0.0405833 15.8137 0.0468722 15.8247 0.053803 15.8354C0.0586639 15.8431 0.0635248 15.851 0.0689933 15.8583C0.0768459 15.8685 0.0852985 15.8783 0.0943106 15.8876C0.100994 15.8945 0.107678 15.9014 0.114564 15.908C0.118818 15.9116 0.122058 15.9161 0.126514 15.9197C0.13097 15.9234 0.133806 15.923 0.137046 15.9255C0.164697 15.9467 0.195563 15.9637 0.228594 15.9761C0.235683 15.9788 0.242974 15.9804 0.250265 15.9825C0.282216 15.9924 0.315503 15.9979 0.349104 15.9988C0.351534 15.9988 0.353762 16 0.356193 16H0.360851H23.6431H23.6477C23.6501 16 23.6524 15.9988 23.6546 15.9988C23.6883 15.9979 23.7216 15.9924 23.7536 15.9825C23.7607 15.9804 23.7678 15.9788 23.7739 15.9761C23.807 15.9638 23.8379 15.9467 23.8656 15.9255C23.8689 15.923 23.8729 15.9222 23.8762 15.9197C23.8794 15.9172 23.8839 15.9116 23.8881 15.908C23.8954 15.9014 23.9021 15.8947 23.9084 15.8876C23.9174 15.8783 23.9258 15.8685 23.9337 15.8583C23.9392 15.851 23.944 15.8433 23.9489 15.8354C23.9558 15.8247 23.9621 15.8137 23.9677 15.8023C23.972 15.7936 23.9752 15.7846 23.9787 15.7755C23.9831 15.7643 23.9869 15.7528 23.99 15.7411C23.9924 15.7315 23.9939 15.7218 23.9955 15.7118C23.9974 15.6998 23.9987 15.6877 23.9993 15.6756C23.9993 15.6712 24.0007 15.667 24.0007 15.6625L24.002 0.336117ZM8.31535 7.29023L11.7702 10.1156C11.8346 10.1682 11.9166 10.1971 12.0014 10.1971C12.0863 10.1971 12.1683 10.1682 12.2326 10.1156L15.6877 7.29023L22.8803 15.3257H1.123L8.31535 7.29023ZM0.710028 14.7472V1.07053L7.77862 6.85074L0.710028 14.7472ZM16.2245 6.85074L23.2931 1.07053V14.7472L16.2245 6.85074ZM22.6917 0.673003L15.5006 6.55428C15.4994 6.55524 15.4978 6.55582 15.4966 6.55697C15.4953 6.55813 15.4941 6.55967 15.4927 6.56082L12.0015 9.41589L8.51039 6.56082C8.50897 6.55967 8.50796 6.55813 8.50654 6.55697L8.50249 6.55428L1.31096 0.673003H22.6917Z" fill="#FF6600"/>
</g>
</svg>
