 <svg width="982" height="151" viewBox="0 0 982 151" fill="none" xmlns="http://www.w3.org/2000/svg">
                <mask id="path-1-outside-1_336_33813" maskUnits="userSpaceOnUse" x="-4" y="-3" width="989" height="157"
                    fill="black">
                    <rect fill="white" x="-4" y="-3" width="989" height="157" />
                    <path
                        d="M119 104.4C119 131.8 97 151 61 151C24.8 151 2.2 131.6 2.38419e-07 101.2H30.8C31.6 117 41.8 127.2 60.4 127.2C75.8 127.2 86.8 120.4 86.8 108.8C86.8 99.8 79.8 94.4 67.6 92L44 87.4C22.2 83.2 5.4 71.4 5.4 47.6C5.4 22 28 3.59999 59 3.59999C91.2 3.59999 114.8 22.4 116.8 52.4H86C85 37.4 74.6 27.2 59.4 27.2C44.6 27.2 36.2 35.6 36.2 45.6C36.2 55.4 45.2 59.6 55.6 61.6L80.2 66.6C105.4 71.6 119 83.2 119 104.4ZM171.217 17.4C171.217 26.8 163.617 33.8 152.617 33.8C141.817 33.8 134.217 26.8 134.217 17.4C134.217 7.6 141.817 0.599991 152.617 0.599991C163.617 0.599991 171.217 7.6 171.217 17.4ZM166.817 149H139.017V42.2H166.817V149ZM219.356 90.8V149H191.556V42.2H217.156V57.4C224.956 46.8 235.956 40.2 249.956 40.2C271.356 40.2 286.156 54.2 286.156 80V149H258.556V89.4C258.556 73.6 252.356 64.8 239.756 64.8C228.756 64.8 219.356 73.6 219.356 90.8ZM355.111 151C324.311 151 303.111 128.2 303.111 95.6C303.111 63.6 325.111 40.2 355.111 40.2C382.911 40.2 403.511 59 406.911 87.8H377.711C376.311 73.6 367.711 64.8 355.111 64.8C340.711 64.8 331.511 76.6 331.511 95.6C331.511 114.8 340.511 126.4 355.111 126.4C367.911 126.4 376.111 118 377.711 103.4H406.911C403.711 132.8 383.711 151 355.111 151ZM470.769 150.8C438.769 150.8 417.369 128.6 417.369 95.2C417.369 63.4 439.569 40.2 470.369 40.2C504.169 40.2 526.569 67.6 521.569 102.4H445.769C447.569 119.8 455.969 129.4 470.169 129.4C482.369 129.4 490.569 123.4 493.769 112.8H521.369C515.369 137 496.769 150.8 470.769 150.8ZM469.769 60.6C456.769 60.6 448.569 69 446.169 84.8H492.169C491.369 70 482.969 60.6 469.769 60.6ZM626.786 149H598.986V37.8H573.386V13.8H626.786V149ZM699.261 12.2C729.861 12.2 751.461 32.8 751.461 57C751.461 73.6 746.661 84.4 733.661 99.8L693.061 149H661.661L700.461 101.6C698.061 102.4 695.861 102.6 693.661 102.6C666.061 102.6 646.861 84.4 646.861 58.8C646.861 32.8 668.261 12.2 699.261 12.2ZM699.061 35.4C686.261 35.4 675.661 43.4 675.661 57.8C675.661 73.2 686.261 80.8 699.061 80.8C711.461 80.8 722.461 73.8 722.461 58C722.461 43.4 711.461 35.4 699.061 35.4ZM816.253 12.2C846.853 12.2 868.453 32.8 868.453 57C868.453 73.6 863.653 84.4 850.653 99.8L810.053 149H778.653L817.453 101.6C815.053 102.4 812.853 102.6 810.653 102.6C783.053 102.6 763.853 84.4 763.853 58.8C763.853 32.8 785.253 12.2 816.253 12.2ZM816.053 35.4C803.253 35.4 792.653 43.4 792.653 57.8C792.653 73.2 803.253 80.8 816.053 80.8C828.453 80.8 839.453 73.8 839.453 58C839.453 43.4 828.453 35.4 816.053 35.4ZM929.311 150.8C900.111 150.8 879.511 133.6 879.311 109.2H906.311C907.111 121.4 915.911 128.8 929.711 128.8C944.111 128.8 952.511 121.6 952.511 109.6C952.511 97.8 942.711 90.8 926.111 90.8H911.511V68.8H924.511C938.111 68.8 946.311 62 946.311 51C946.311 40.4 939.311 33.8 927.711 33.8C916.311 33.8 909.111 41 908.911 52.8H881.911C882.111 29.4 902.511 11.8 929.111 11.8C957.511 11.8 974.911 27.2 974.911 49C974.911 61.4 967.711 71.2 954.711 78C971.511 83.4 981.111 94.2 981.111 108.8C981.111 133.8 960.311 150.8 929.311 150.8Z" />
                </mask>
                <path
                    d="M0 101.2V98.2H-3.22495L-2.99217 101.417L0 101.2ZM30.8 101.2L33.7962 101.048L33.6519 98.2H30.8V101.2ZM67.6 92L68.1791 89.0564L68.174 89.0554L67.6 92ZM44 87.4L44.5739 84.4554L44.5675 84.4542L44 87.4ZM116.8 52.4V55.4H120.007L119.793 52.2004L116.8 52.4ZM86 52.4L83.0066 52.5996L83.1933 55.4H86V52.4ZM55.6 61.6L56.1975 58.6601L56.1821 58.657L56.1665 58.654L55.6 61.6ZM80.2 66.6L79.6025 69.5399L79.6161 69.5426L80.2 66.6ZM116 104.4C116 117.232 110.879 128.021 101.594 135.658C92.2582 143.337 78.4893 148 61 148V154C79.5107 154 94.7418 149.063 105.406 140.292C116.121 131.479 122 118.968 122 104.4H116ZM61 148C43.4234 148 29.454 143.294 19.6629 135.189C9.90599 127.113 4.03926 115.452 2.99218 100.983L-2.99217 101.417C-1.83926 117.348 4.69402 130.587 15.8371 139.811C26.946 149.006 42.3766 154 61 154V148ZM0 104.2H30.8V98.2H0V104.2ZM27.8038 101.352C28.2353 109.874 31.2308 117.182 36.9064 122.344C42.5687 127.494 50.5585 130.2 60.4 130.2V124.2C51.6415 124.2 45.2313 121.806 40.9436 117.906C36.6692 114.018 34.1647 108.326 33.7962 101.048L27.8038 101.352ZM60.4 130.2C68.4917 130.2 75.7343 128.421 81.0514 124.838C86.4695 121.187 89.8 115.695 89.8 108.8H83.8C83.8 113.505 81.6305 117.213 77.6986 119.862C73.6657 122.579 67.7083 124.2 60.4 124.2V130.2ZM89.8 108.8C89.8 103.401 87.6492 98.9702 83.7144 95.6362C79.8937 92.3988 74.5334 90.3064 68.1791 89.0564L67.0209 94.9436C72.8666 96.0936 77.1063 97.9012 79.8356 100.214C82.4508 102.43 83.8 105.199 83.8 108.8H89.8ZM68.174 89.0554L44.5739 84.4554L43.4261 90.3446L67.0261 94.9446L68.174 89.0554ZM44.5675 84.4542C33.9949 82.4172 24.9417 78.5896 18.5697 72.6547C12.2839 66.8001 8.4 58.7092 8.4 47.6H2.4C2.4 60.2908 6.91608 69.9999 14.4803 77.0453C21.9583 84.0104 32.2051 88.1827 43.4325 90.3458L44.5675 84.4542ZM8.4 47.6C8.4 24.1895 29.0686 6.59999 59 6.59999V0.599989C26.9314 0.599989 2.4 19.8105 2.4 47.6H8.4ZM59 6.59999C74.5247 6.59999 87.7607 11.1289 97.3084 19.0579C106.825 26.9613 112.859 38.3866 113.807 52.5996L119.793 52.2004C118.741 36.4134 111.975 23.4387 101.142 14.4421C90.3393 5.47111 75.6753 0.599989 59 0.599989V6.59999ZM116.8 49.4H86V55.4H116.8V49.4ZM88.9934 52.2004C88.4498 44.0466 85.3299 37.0121 80.0989 32.0073C74.8609 26.9958 67.6936 24.2 59.4 24.2V30.2C66.3064 30.2 71.9391 32.5042 75.9511 36.3427C79.9701 40.1879 82.5502 45.7534 83.0066 52.5996L88.9934 52.2004ZM59.4 24.2C51.4402 24.2 44.9066 26.4633 40.3096 30.362C35.691 34.279 33.2 39.7141 33.2 45.6H39.2C39.2 41.4859 40.909 37.7209 44.1904 34.938C47.4934 32.1367 52.5598 30.2 59.4 30.2V24.2ZM33.2 45.6C33.2 51.6136 36.0438 55.97 40.2612 58.9697C44.3324 61.8654 49.6824 63.517 55.0335 64.546L56.1665 58.654C51.1176 57.683 46.7676 56.2346 43.7388 54.0803C40.8562 52.03 39.2 49.3864 39.2 45.6H33.2ZM55.0025 64.5399L79.6025 69.5399L80.7975 63.6601L56.1975 58.6601L55.0025 64.5399ZM79.6161 69.5426C91.939 71.9876 101.018 75.9754 106.992 81.6079C112.864 87.1439 116 94.515 116 104.4H122C122 93.085 118.336 84.0561 111.108 77.2421C103.982 70.5245 93.661 66.2123 80.7839 63.6574L79.6161 69.5426ZM166.817 149V152H169.817V149H166.817ZM139.017 149H136.017V152H139.017V149ZM139.017 42.2V39.2H136.017V42.2H139.017ZM166.817 42.2H169.817V39.2H166.817V42.2ZM168.217 17.4C168.217 24.8333 162.288 30.8 152.617 30.8V36.8C164.946 36.8 174.217 28.7667 174.217 17.4H168.217ZM152.617 30.8C143.169 30.8 137.217 24.8536 137.217 17.4H131.217C131.217 28.7464 140.465 36.8 152.617 36.8V30.8ZM137.217 17.4C137.217 9.501 143.219 3.59999 152.617 3.59999V-2.40001C140.415 -2.40001 131.217 5.699 131.217 17.4H137.217ZM152.617 3.59999C157.481 3.59999 161.378 5.14114 164.025 7.54558C166.653 9.93269 168.217 13.3165 168.217 17.4H174.217C174.217 11.6835 171.982 6.6673 168.059 3.10441C164.156 -0.441151 158.754 -2.40001 152.617 -2.40001V3.59999ZM166.817 146H139.017V152H166.817V146ZM142.017 149V42.2H136.017V149H142.017ZM139.017 45.2H166.817V39.2H139.017V45.2ZM163.817 42.2V149H169.817V42.2H163.817ZM219.356 149V152H222.356V149H219.356ZM191.556 149H188.556V152H191.556V149ZM191.556 42.2V39.2H188.556V42.2H191.556ZM217.156 42.2H220.156V39.2H217.156V42.2ZM217.156 57.4H214.156V66.5387L219.573 59.178L217.156 57.4ZM286.156 149V152H289.156V149H286.156ZM258.556 149H255.556V152H258.556V149ZM216.356 90.8V149H222.356V90.8H216.356ZM219.356 146H191.556V152H219.356V146ZM194.556 149V42.2H188.556V149H194.556ZM191.556 45.2H217.156V39.2H191.556V45.2ZM214.156 42.2V57.4H220.156V42.2H214.156ZM219.573 59.178C226.888 49.2366 237.039 43.2 249.956 43.2V37.2C234.874 37.2 223.025 44.3634 214.74 55.6219L219.573 59.178ZM249.956 43.2C259.987 43.2 268.193 46.4648 273.904 52.4889C279.628 58.5267 283.156 67.6681 283.156 80H289.156C289.156 66.5319 285.285 55.7733 278.258 48.3611C271.219 40.9352 261.326 37.2 249.956 37.2V43.2ZM283.156 80V149H289.156V80H283.156ZM286.156 146H258.556V152H286.156V146ZM261.556 149V89.4H255.556V149H261.556ZM261.556 89.4C261.556 81.184 259.957 74.2857 256.283 69.3773C252.497 64.3189 246.831 61.8 239.756 61.8V67.8C245.281 67.8 249.016 69.681 251.48 72.9727C254.056 76.4143 255.556 81.816 255.556 89.4H261.556ZM239.756 61.8C233.416 61.8 227.47 64.3563 223.153 69.3987C218.857 74.4152 216.356 81.6648 216.356 90.8H222.356C222.356 82.7352 224.556 76.9848 227.71 73.3013C230.842 69.6437 235.097 67.8 239.756 67.8V61.8ZM406.911 87.8V90.8H410.286L409.89 87.4483L406.911 87.8ZM377.711 87.8L374.725 88.0943L374.992 90.8H377.711V87.8ZM377.711 103.4V100.4H375.022L374.729 103.073L377.711 103.4ZM406.911 103.4L409.893 103.725L410.255 100.4H406.911V103.4ZM355.111 148C340.486 148 328.297 142.605 319.751 133.475C311.19 124.329 306.111 111.246 306.111 95.6H300.111C300.111 112.554 305.631 127.171 315.371 137.575C325.125 147.995 338.936 154 355.111 154V148ZM306.111 95.6C306.111 65.0764 326.943 43.2 355.111 43.2V37.2C323.279 37.2 300.111 62.1235 300.111 95.6H306.111ZM355.111 43.2C381.308 43.2 400.7 60.7786 403.932 88.1517L409.89 87.4483C406.322 57.2214 384.514 37.2 355.111 37.2V43.2ZM406.911 84.8H377.711V90.8H406.911V84.8ZM380.696 87.5056C379.945 79.8798 377.23 73.438 372.752 68.874C368.244 64.2793 362.152 61.8 355.111 61.8V67.8C360.67 67.8 365.177 69.7207 368.47 73.076C371.792 76.462 374.077 81.5202 374.725 88.0943L380.696 87.5056ZM355.111 61.8C347.002 61.8 340.215 65.1646 335.534 71.2448C330.915 77.2432 328.511 85.654 328.511 95.6H334.511C334.511 86.546 336.706 79.5568 340.288 74.9052C343.807 70.3354 348.819 67.8 355.111 67.8V61.8ZM328.511 95.6C328.511 105.625 330.856 114.044 335.458 120.029C340.13 126.106 346.929 129.4 355.111 129.4V123.4C348.693 123.4 343.692 120.894 340.214 116.371C336.666 111.756 334.511 104.775 334.511 95.6H328.511ZM355.111 129.4C362.208 129.4 368.267 127.049 372.753 122.476C377.197 117.944 379.842 111.496 380.693 103.727L374.729 103.073C373.98 109.904 371.724 114.956 368.469 118.274C365.255 121.551 360.814 123.4 355.111 123.4V129.4ZM377.711 106.4H406.911V100.4H377.711V106.4ZM403.929 103.075C402.395 117.164 396.869 128.352 388.509 136.013C380.154 143.67 368.756 148 355.111 148V154C370.066 154 382.968 149.23 392.563 140.437C402.153 131.648 408.227 119.036 409.893 103.725L403.929 103.075ZM521.569 102.4V105.4H524.169L524.538 102.827L521.569 102.4ZM445.769 102.4V99.4H442.442L442.785 102.709L445.769 102.4ZM493.769 112.8V109.8H491.541L490.897 111.933L493.769 112.8ZM521.369 112.8L524.281 113.522L525.203 109.8H521.369V112.8ZM446.169 84.8L443.203 84.3495L442.679 87.8H446.169V84.8ZM492.169 84.8V87.8H495.335L495.164 84.6381L492.169 84.8ZM470.769 147.8C455.487 147.8 442.951 142.516 434.231 133.446C425.501 124.366 420.369 111.253 420.369 95.2H414.369C414.369 112.547 419.936 127.234 429.906 137.604C439.886 147.984 454.05 153.8 470.769 153.8V147.8ZM420.369 95.2C420.369 64.9452 441.335 43.2 470.369 43.2V37.2C437.802 37.2 414.369 61.8548 414.369 95.2H420.369ZM470.369 43.2C486.42 43.2 499.601 49.6848 508.201 60.1542C516.811 70.6371 520.992 85.3186 518.599 101.973L524.538 102.827C527.145 84.6813 522.626 68.2629 512.837 56.3458C503.037 44.4152 488.118 37.2 470.369 37.2V43.2ZM521.569 99.4H445.769V105.4H521.569V99.4ZM442.785 102.709C443.723 111.783 446.418 119.22 451.085 124.427C455.825 129.717 462.33 132.4 470.169 132.4V126.4C463.808 126.4 459.012 124.283 455.553 120.423C452.019 116.48 449.614 110.417 448.753 102.091L442.785 102.709ZM470.169 132.4C476.764 132.4 482.504 130.774 487.082 127.52C491.671 124.259 494.875 119.515 496.641 113.667L490.897 111.933C489.462 116.685 486.966 120.241 483.606 122.63C480.234 125.026 475.774 126.4 470.169 126.4V132.4ZM493.769 115.8H521.369V109.8H493.769V115.8ZM518.457 112.078C515.604 123.583 509.807 132.458 501.771 138.473C493.724 144.497 483.234 147.8 470.769 147.8V153.8C484.304 153.8 496.114 150.203 505.367 143.277C514.631 136.342 521.133 126.217 524.281 113.522L518.457 112.078ZM469.769 57.6C462.571 57.6 456.459 59.9517 451.846 64.6802C447.294 69.3466 444.462 76.0601 443.203 84.3495L449.135 85.2505C450.276 77.7399 452.743 72.3534 456.141 68.8698C459.479 65.4483 463.967 63.6 469.769 63.6V57.6ZM446.169 87.8H492.169V81.8H446.169V87.8ZM495.164 84.6381C494.737 76.7262 492.26 69.9549 487.83 65.1228C483.361 60.2468 477.13 57.6 469.769 57.6V63.6C475.607 63.6 480.177 65.6532 483.407 69.1772C486.678 72.7451 488.801 78.0738 489.173 84.9619L495.164 84.6381ZM626.786 149V152H629.786V149H626.786ZM598.986 149H595.986V152H598.986V149ZM598.986 37.8H601.986V34.8H598.986V37.8ZM573.386 37.8H570.386V40.8H573.386V37.8ZM573.386 13.8V10.8H570.386V13.8H573.386ZM626.786 13.8H629.786V10.8H626.786V13.8ZM626.786 146H598.986V152H626.786V146ZM601.986 149V37.8H595.986V149H601.986ZM598.986 34.8H573.386V40.8H598.986V34.8ZM576.386 37.8V13.8H570.386V37.8H576.386ZM573.386 16.8H626.786V10.8H573.386V16.8ZM623.786 13.8V149H629.786V13.8H623.786ZM733.661 99.8L731.369 97.8648L731.358 97.8776L731.347 97.8906L733.661 99.8ZM693.061 149V152H694.475L695.375 150.909L693.061 149ZM661.661 149L659.339 147.1L655.328 152H661.661V149ZM700.461 101.6L702.782 103.5L709.352 95.4739L699.512 98.7539L700.461 101.6ZM699.261 15.2C728.555 15.2 748.461 34.7873 748.461 57H754.461C754.461 30.8127 731.167 9.2 699.261 9.2V15.2ZM748.461 57C748.461 64.9827 747.312 71.4229 744.672 77.6844C742.013 83.9895 737.776 90.2747 731.369 97.8648L735.953 101.735C742.546 93.9253 747.209 87.1105 750.2 80.0155C753.21 72.8771 754.461 65.6173 754.461 57H748.461ZM731.347 97.8906L690.747 147.091L695.375 150.909L735.975 101.709L731.347 97.8906ZM693.061 146H661.661V152H693.061V146ZM663.982 150.9L702.782 103.5L698.14 99.6998L659.339 147.1L663.982 150.9ZM699.512 98.7539C697.518 99.4189 695.663 99.6 693.661 99.6V105.6C696.059 105.6 698.604 105.381 701.41 104.446L699.512 98.7539ZM693.661 99.6C680.527 99.6 669.591 95.2778 661.965 88.1135C654.351 80.9608 649.861 70.8171 649.861 58.8H643.861C643.861 72.3829 648.971 84.1392 657.857 92.4865C666.73 100.822 679.195 105.6 693.661 105.6V99.6ZM649.861 58.8C649.861 34.7152 669.647 15.2 699.261 15.2V9.2C666.875 9.2 643.861 30.8848 643.861 58.8H649.861ZM699.061 32.4C692.052 32.4 685.45 34.5922 680.561 38.9636C675.629 43.374 672.661 49.8101 672.661 57.8H678.661C678.661 51.3899 680.993 46.626 684.561 43.4364C688.172 40.2078 693.27 38.4 699.061 38.4V32.4ZM672.661 57.8C672.661 66.2341 675.59 72.8375 680.554 77.3049C685.469 81.7282 692.089 83.8 699.061 83.8V77.8C693.233 77.8 688.153 76.0718 684.568 72.8451C681.032 69.6625 678.661 64.7659 678.661 57.8H672.661ZM699.061 83.8C705.792 83.8 712.401 81.9014 717.375 77.5925C722.417 73.2248 725.461 66.6524 725.461 58H719.461C719.461 65.1476 717.005 69.9752 713.447 73.0575C709.821 76.1986 704.73 77.8 699.061 77.8V83.8ZM725.461 58C725.461 49.8873 722.377 43.4063 717.405 38.9835C712.479 34.6021 705.887 32.4 699.061 32.4V38.4C704.635 38.4 709.742 40.1978 713.417 43.4665C717.045 46.6937 719.461 51.5127 719.461 58H725.461ZM850.653 99.8L848.361 97.8648L848.35 97.8776L848.339 97.8906L850.653 99.8ZM810.053 149V152H811.467L812.367 150.909L810.053 149ZM778.653 149L776.332 147.1L772.32 152H778.653V149ZM817.453 101.6L819.775 103.5L826.345 95.4739L816.504 98.7539L817.453 101.6ZM816.253 15.2C845.547 15.2 865.453 34.7873 865.453 57H871.453C871.453 30.8127 848.159 9.2 816.253 9.2V15.2ZM865.453 57C865.453 64.9827 864.304 71.4229 861.664 77.6844C859.005 83.9895 854.768 90.2747 848.361 97.8648L852.946 101.735C859.538 93.9253 864.201 87.1105 867.192 80.0155C870.202 72.8771 871.453 65.6173 871.453 57H865.453ZM848.339 97.8906L807.739 147.091L812.367 150.909L852.967 101.709L848.339 97.8906ZM810.053 146H778.653V152H810.053V146ZM780.975 150.9L819.775 103.5L815.132 99.6998L776.332 147.1L780.975 150.9ZM816.504 98.7539C814.51 99.4189 812.655 99.6 810.653 99.6V105.6C813.051 105.6 815.597 105.381 818.402 104.446L816.504 98.7539ZM810.653 99.6C797.519 99.6 786.584 95.2778 778.957 88.1135C771.343 80.9608 766.853 70.8171 766.853 58.8H760.853C760.853 72.3829 765.963 84.1392 774.849 92.4865C783.723 100.822 796.187 105.6 810.653 105.6V99.6ZM766.853 58.8C766.853 34.7152 786.639 15.2 816.253 15.2V9.2C783.867 9.2 760.853 30.8848 760.853 58.8H766.853ZM816.053 32.4C809.044 32.4 802.443 34.5922 797.554 38.9636C792.621 43.374 789.653 49.8101 789.653 57.8H795.653C795.653 51.3899 797.985 46.626 801.553 43.4364C805.164 40.2078 810.262 38.4 816.053 38.4V32.4ZM789.653 57.8C789.653 66.2341 792.583 72.8375 797.546 77.3049C802.461 81.7282 809.081 83.8 816.053 83.8V77.8C810.225 77.8 805.145 76.0718 801.56 72.8451C798.024 69.6625 795.653 64.7659 795.653 57.8H789.653ZM816.053 83.8C822.784 83.8 829.393 81.9014 834.367 77.5925C839.409 73.2248 842.453 66.6524 842.453 58H836.453C836.453 65.1476 833.997 69.9752 830.439 73.0575C826.813 76.1986 821.722 77.8 816.053 77.8V83.8ZM842.453 58C842.453 49.8873 839.369 43.4063 834.397 38.9835C829.472 34.6021 822.879 32.4 816.053 32.4V38.4C821.627 38.4 826.735 40.1978 830.409 43.4665C834.037 46.6937 836.453 51.5127 836.453 58H842.453ZM879.311 109.2V106.2H876.286L876.311 109.225L879.311 109.2ZM906.311 109.2L909.305 109.004L909.121 106.2H906.311V109.2ZM911.511 90.8H908.511V93.8H911.511V90.8ZM911.511 68.8V65.8H908.511V68.8H911.511ZM908.911 52.8V55.8H911.861L911.911 52.8508L908.911 52.8ZM881.911 52.8L878.911 52.7744L878.885 55.8H881.911V52.8ZM954.711 78L953.32 75.3417L946.971 78.6632L953.793 80.8561L954.711 78ZM929.311 147.8C901.248 147.8 882.494 131.461 882.311 109.175L876.311 109.225C876.528 135.739 898.974 153.8 929.311 153.8V147.8ZM879.311 112.2H906.311V106.2H879.311V112.2ZM903.317 109.396C903.764 116.211 906.482 121.911 911.208 125.874C915.899 129.807 922.289 131.8 929.711 131.8V125.8C923.333 125.8 918.423 124.093 915.063 121.276C911.74 118.489 909.658 114.389 909.305 109.004L903.317 109.396ZM929.711 131.8C937.376 131.8 943.846 129.885 948.449 125.99C953.118 122.039 955.511 116.349 955.511 109.6H949.511C949.511 114.851 947.704 118.761 944.573 121.41C941.376 124.115 936.446 125.8 929.711 125.8V131.8ZM955.511 109.6C955.511 102.753 952.611 97.1333 947.277 93.332C942.067 89.6188 934.776 87.8 926.111 87.8V93.8C934.046 93.8 939.955 95.4812 943.795 98.218C947.511 100.867 949.511 104.647 949.511 109.6H955.511ZM926.111 87.8H911.511V93.8H926.111V87.8ZM914.511 90.8V68.8H908.511V90.8H914.511ZM911.511 71.8H924.511V65.8H911.511V71.8ZM924.511 71.8C931.776 71.8 937.973 69.9854 942.413 66.3448C946.924 62.6456 949.311 57.3092 949.311 51H943.311C943.311 55.6907 941.598 59.2544 938.609 61.7052C935.548 64.2146 930.846 65.8 924.511 65.8V71.8ZM949.311 51C949.311 45.0156 947.315 39.8646 943.404 36.2278C939.517 32.6149 934.068 30.8 927.711 30.8V36.8C932.953 36.8 936.804 38.2851 939.318 40.6222C941.806 42.9354 943.311 46.3844 943.311 51H949.311ZM927.711 30.8C921.366 30.8 915.895 32.818 911.982 36.7618C908.076 40.6978 906.022 46.2481 905.911 52.7492L911.911 52.8508C912 47.5519 913.646 43.6022 916.24 40.9882C918.827 38.382 922.656 36.8 927.711 36.8V30.8ZM908.911 49.8H881.911V55.8H908.911V49.8ZM884.911 52.8256C885.094 31.4364 903.768 14.8 929.111 14.8V8.79999C901.253 8.79999 879.128 27.3636 878.911 52.7744L884.911 52.8256ZM929.111 14.8C942.789 14.8 953.504 18.5069 960.742 24.5309C967.933 30.516 971.911 38.9595 971.911 49H977.911C977.911 37.2405 973.189 27.084 964.58 19.9191C956.018 12.7931 943.833 8.79999 929.111 8.79999V14.8ZM971.911 49C971.911 59.9735 965.64 68.8978 953.32 75.3417L956.101 80.6583C969.782 73.5022 977.911 62.8265 977.911 49H971.911ZM953.793 80.8561C969.768 85.9908 978.111 95.8922 978.111 108.8H984.111C984.111 92.5078 973.254 80.8092 955.629 75.1439L953.793 80.8561ZM978.111 108.8C978.111 120.395 973.319 130.04 964.944 136.847C956.518 143.695 944.285 147.8 929.311 147.8V153.8C945.337 153.8 959.004 149.405 968.728 141.503C978.502 133.56 984.111 122.205 984.111 108.8H978.111Z"
                    fill="url(#paint0_linear_336_33813)" mask="url(#path-1-outside-1_336_33813)" />
                <defs>
                    <linearGradient id="paint0_linear_336_33813" x1="475" y1="14" x2="475" y2="149"
                        gradientUnits="userSpaceOnUse">
                        <stop stop-color="#F79000" />
                        <stop offset="1" stop-color="white" stop-opacity="0.05" />
                    </linearGradient>
                </defs>
            </svg>