<svg width="1440" height="451" viewBox="0 0 1440 451" fill="none" xmlns="http://www.w3.org/2000/svg">
                <path
                    d="M0 7.5166C36 7.5166 36 15.0333 72 15.0333C108 15.0333 108 7.5166 144 7.5166C180 7.5166 180 15.0333 216 15.0333C252 15.0333 252 7.5166 288 7.5166C324 7.5166 324 15.0333 360 15.0333C396 15.0333 396 7.5166 432 7.5166C468 7.5166 468 15.0333 504 15.0333C540 15.0333 540 7.5166 576 7.5166C612 7.5166 612 15.0333 648 15.0333C684 15.0333 684 7.5166 720 7.5166C756 7.5166 756 15.0333 792 15.0333C828 15.0333 828 7.5166 864 7.5166C892.5 7.5166 900 15.0333 936 15.0333C972 15.0333 972 7.5166 1008 7.5166C1044 7.5166 1044 15.0333 1080 15.0333C1116 15.0333 1116 7.5166 1152 7.5166C1188 7.5166 1188 15.0333 1224 15.0333C1260 15.0333 1260 7.5166 1296 7.5166C1332 7.5166 1332 15.0333 1368 15.0333C1404 15.0333 1404 7.5166 1440 7.5166"
                    stroke="#3D3D3D" stroke-width="2" stroke-linecap="round" />
                <path
                    d="M0 30.0669C36 30.0669 36 37.5836 72 37.5836C108 37.5836 108 30.0669 144 30.0669C180 30.0669 180 37.5836 216 37.5836C252 37.5836 252 30.0669 288 30.0669C324 30.0669 324 37.5836 360 37.5836C396 37.5836 396 30.0669 432 30.0669C468 30.0669 468 37.5836 504 37.5836C540 37.5836 540 30.0669 576 30.0669C612 30.0669 612 37.5836 648 37.5836C684 37.5836 684 30.0669 720 30.0669C756 30.0669 756 37.5836 792 37.5836C828 37.5836 828 30.0669 864 30.0669C892.5 30.0669 900 37.5836 936 37.5836C972 37.5836 972 30.0669 1008 30.0669C1044 30.0669 1044 37.5836 1080 37.5836C1116 37.5836 1116 30.0669 1152 30.0669C1188 30.0669 1188 37.5836 1224 37.5836C1260 37.5836 1260 30.0669 1296 30.0669C1332 30.0669 1332 37.5836 1368 37.5836C1404 37.5836 1404 30.0669 1440 30.0669"
                    stroke="#3D3D3D" stroke-width="2" stroke-linecap="round" />
                <path
                    d="M0 52.6167C36 52.6167 36 60.1334 72 60.1334C108 60.1334 108 52.6167 144 52.6167C180 52.6167 180 60.1334 216 60.1334C252 60.1334 252 52.6167 288 52.6167C324 52.6167 324 60.1334 360 60.1334C396 60.1334 396 52.6167 432 52.6167C468 52.6167 468 60.1334 504 60.1334C540 60.1334 540 52.6167 576 52.6167C612 52.6167 612 60.1334 648 60.1334C684 60.1334 684 52.6167 720 52.6167C756 52.6167 756 60.1334 792 60.1334C828 60.1334 828 52.6167 864 52.6167C892.5 52.6167 900 60.1334 936 60.1334C972 60.1334 972 52.6167 1008 52.6167C1044 52.6167 1044 60.1334 1080 60.1334C1116 60.1334 1116 52.6167 1152 52.6167C1188 52.6167 1188 60.1334 1224 60.1334C1260 60.1334 1260 52.6167 1296 52.6167C1332 52.6167 1332 60.1334 1368 60.1334C1404 60.1334 1404 52.6167 1440 52.6167"
                    stroke="#3D3D3D" stroke-width="2" stroke-linecap="round" />
                <path
                    d="M0 75.1665C36 75.1665 36 82.6832 72 82.6832C108 82.6832 108 75.1665 144 75.1665C180 75.1665 180 82.6832 216 82.6832C252 82.6832 252 75.1665 288 75.1665C324 75.1665 324 82.6832 360 82.6832C396 82.6832 396 75.1665 432 75.1665C468 75.1665 468 82.6832 504 82.6832C540 82.6832 540 75.1665 576 75.1665C612 75.1665 612 82.6832 648 82.6832C684 82.6832 684 75.1665 720 75.1665C756 75.1665 756 82.6832 792 82.6832C828 82.6832 828 75.1665 864 75.1665C892.5 75.1665 900 82.6832 936 82.6832C972 82.6832 972 75.1665 1008 75.1665C1044 75.1665 1044 82.6832 1080 82.6832C1116 82.6832 1116 75.1665 1152 75.1665C1188 75.1665 1188 82.6832 1224 82.6832C1260 82.6832 1260 75.1665 1296 75.1665C1332 75.1665 1332 82.6832 1368 82.6832C1404 82.6832 1404 75.1665 1440 75.1665"
                    stroke="#3D3D3D" stroke-width="2" stroke-linecap="round" />
                <path
                    d="M0 97.7168C36 97.7168 36 105.233 72 105.233C108 105.233 108 97.7168 144 97.7168C180 97.7168 180 105.233 216 105.233C252 105.233 252 97.7168 288 97.7168C324 97.7168 324 105.233 360 105.233C396 105.233 396 97.7168 432 97.7168C468 97.7168 468 105.233 504 105.233C540 105.233 540 97.7168 576 97.7168C612 97.7168 612 105.233 648 105.233C684 105.233 684 97.7168 720 97.7168C756 97.7168 756 105.233 792 105.233C828 105.233 828 97.7168 864 97.7168C892.5 97.7168 900 105.233 936 105.233C972 105.233 972 97.7168 1008 97.7168C1044 97.7168 1044 105.233 1080 105.233C1116 105.233 1116 97.7168 1152 97.7168C1188 97.7168 1188 105.233 1224 105.233C1260 105.233 1260 97.7168 1296 97.7168C1332 97.7168 1332 105.233 1368 105.233C1404 105.233 1404 97.7168 1440 97.7168"
                    stroke="#3D3D3D" stroke-width="2" stroke-linecap="round" />
                <path
                    d="M0 120.267C36 120.267 36 127.783 72 127.783C108 127.783 108 120.267 144 120.267C180 120.267 180 127.783 216 127.783C252 127.783 252 120.267 288 120.267C324 120.267 324 127.783 360 127.783C396 127.783 396 120.267 432 120.267C468 120.267 468 127.783 504 127.783C540 127.783 540 120.267 576 120.267C612 120.267 612 127.783 648 127.783C684 127.783 684 120.267 720 120.267C756 120.267 756 127.783 792 127.783C828 127.783 828 120.267 864 120.267C892.5 120.267 900 127.783 936 127.783C972 127.783 972 120.267 1008 120.267C1044 120.267 1044 127.783 1080 127.783C1116 127.783 1116 120.267 1152 120.267C1188 120.267 1188 127.783 1224 127.783C1260 127.783 1260 120.267 1296 120.267C1332 120.267 1332 127.783 1368 127.783C1404 127.783 1404 120.267 1440 120.267"
                    stroke="#3D3D3D" stroke-width="2" stroke-linecap="round" />
                <path
                    d="M0 142.816C36 142.816 36 150.333 72 150.333C108 150.333 108 142.816 144 142.816C180 142.816 180 150.333 216 150.333C252 150.333 252 142.816 288 142.816C324 142.816 324 150.333 360 150.333C396 150.333 396 142.816 432 142.816C468 142.816 468 150.333 504 150.333C540 150.333 540 142.816 576 142.816C612 142.816 612 150.333 648 150.333C684 150.333 684 142.816 720 142.816C756 142.816 756 150.333 792 150.333C828 150.333 828 142.816 864 142.816C892.5 142.816 900 150.333 936 150.333C972 150.333 972 142.816 1008 142.816C1044 142.816 1044 150.333 1080 150.333C1116 150.333 1116 142.816 1152 142.816C1188 142.816 1188 150.333 1224 150.333C1260 150.333 1260 142.816 1296 142.816C1332 142.816 1332 150.333 1368 150.333C1404 150.333 1404 142.816 1440 142.816"
                    stroke="#3D3D3D" stroke-width="2" stroke-linecap="round" />
                <path
                    d="M0 165.367C36 165.367 36 172.883 72 172.883C108 172.883 108 165.367 144 165.367C180 165.367 180 172.883 216 172.883C252 172.883 252 165.367 288 165.367C324 165.367 324 172.883 360 172.883C396 172.883 396 165.367 432 165.367C468 165.367 468 172.883 504 172.883C540 172.883 540 165.367 576 165.367C612 165.367 612 172.883 648 172.883C684 172.883 684 165.367 720 165.367C756 165.367 756 172.883 792 172.883C828 172.883 828 165.367 864 165.367C892.5 165.367 900 172.883 936 172.883C972 172.883 972 165.367 1008 165.367C1044 165.367 1044 172.883 1080 172.883C1116 172.883 1116 165.367 1152 165.367C1188 165.367 1188 172.883 1224 172.883C1260 172.883 1260 165.367 1296 165.367C1332 165.367 1332 172.883 1368 172.883C1404 172.883 1404 165.367 1440 165.367"
                    stroke="#3D3D3D" stroke-width="2" stroke-linecap="round" />
                <path
                    d="M0 187.917C36 187.917 36 195.433 72 195.433C108 195.433 108 187.917 144 187.917C180 187.917 180 195.433 216 195.433C252 195.433 252 187.917 288 187.917C324 187.917 324 195.433 360 195.433C396 195.433 396 187.917 432 187.917C468 187.917 468 195.433 504 195.433C540 195.433 540 187.917 576 187.917C612 187.917 612 195.433 648 195.433C684 195.433 684 187.917 720 187.917C756 187.917 756 195.433 792 195.433C828 195.433 828 187.917 864 187.917C892.5 187.917 900 195.433 936 195.433C972 195.433 972 187.917 1008 187.917C1044 187.917 1044 195.433 1080 195.433C1116 195.433 1116 187.917 1152 187.917C1188 187.917 1188 195.433 1224 195.433C1260 195.433 1260 187.917 1296 187.917C1332 187.917 1332 195.433 1368 195.433C1404 195.433 1404 187.917 1440 187.917"
                    stroke="#3D3D3D" stroke-width="2" stroke-linecap="round" />
                <path
                    d="M0 210.467C36 210.467 36 217.983 72 217.983C108 217.983 108 210.467 144 210.467C180 210.467 180 217.983 216 217.983C252 217.983 252 210.467 288 210.467C324 210.467 324 217.983 360 217.983C396 217.983 396 210.467 432 210.467C468 210.467 468 217.983 504 217.983C540 217.983 540 210.467 576 210.467C612 210.467 612 217.983 648 217.983C684 217.983 684 210.467 720 210.467C756 210.467 756 217.983 792 217.983C828 217.983 828 210.467 864 210.467C892.5 210.467 900 217.983 936 217.983C972 217.983 972 210.467 1008 210.467C1044 210.467 1044 217.983 1080 217.983C1116 217.983 1116 210.467 1152 210.467C1188 210.467 1188 217.983 1224 217.983C1260 217.983 1260 210.467 1296 210.467C1332 210.467 1332 217.983 1368 217.983C1404 217.983 1404 210.467 1440 210.467"
                    stroke="#3D3D3D" stroke-width="2" stroke-linecap="round" />
                <path
                    d="M0 233.017C36 233.017 36 240.533 72 240.533C108 240.533 108 233.017 144 233.017C180 233.017 180 240.533 216 240.533C252 240.533 252 233.017 288 233.017C324 233.017 324 240.533 360 240.533C396 240.533 396 233.017 432 233.017C468 233.017 468 240.533 504 240.533C540 240.533 540 233.017 576 233.017C612 233.017 612 240.533 648 240.533C684 240.533 684 233.017 720 233.017C756 233.017 756 240.533 792 240.533C828 240.533 828 233.017 864 233.017C892.5 233.017 900 240.533 936 240.533C972 240.533 972 233.017 1008 233.017C1044 233.017 1044 240.533 1080 240.533C1116 240.533 1116 233.017 1152 233.017C1188 233.017 1188 240.533 1224 240.533C1260 240.533 1260 233.017 1296 233.017C1332 233.017 1332 240.533 1368 240.533C1404 240.533 1404 233.017 1440 233.017"
                    stroke="#3D3D3D" stroke-width="2" stroke-linecap="round" />
                <path
                    d="M0 255.567C36 255.567 36 263.084 72 263.084C108 263.084 108 255.567 144 255.567C180 255.567 180 263.084 216 263.084C252 263.084 252 255.567 288 255.567C324 255.567 324 263.084 360 263.084C396 263.084 396 255.567 432 255.567C468 255.567 468 263.084 504 263.084C540 263.084 540 255.567 576 255.567C612 255.567 612 263.084 648 263.084C684 263.084 684 255.567 720 255.567C756 255.567 756 263.084 792 263.084C828 263.084 828 255.567 864 255.567C892.5 255.567 900 263.084 936 263.084C972 263.084 972 255.567 1008 255.567C1044 255.567 1044 263.084 1080 263.084C1116 263.084 1116 255.567 1152 255.567C1188 255.567 1188 263.084 1224 263.084C1260 263.084 1260 255.567 1296 255.567C1332 255.567 1332 263.084 1368 263.084C1404 263.084 1404 255.567 1440 255.567"
                    stroke="#3D3D3D" stroke-width="2" stroke-linecap="round" />
                <path
                    d="M0 278.117C36 278.117 36 285.633 72 285.633C108 285.633 108 278.117 144 278.117C180 278.117 180 285.633 216 285.633C252 285.633 252 278.117 288 278.117C324 278.117 324 285.633 360 285.633C396 285.633 396 278.117 432 278.117C468 278.117 468 285.633 504 285.633C540 285.633 540 278.117 576 278.117C612 278.117 612 285.633 648 285.633C684 285.633 684 278.117 720 278.117C756 278.117 756 285.633 792 285.633C828 285.633 828 278.117 864 278.117C892.5 278.117 900 285.633 936 285.633C972 285.633 972 278.117 1008 278.117C1044 278.117 1044 285.633 1080 285.633C1116 285.633 1116 278.117 1152 278.117C1188 278.117 1188 285.633 1224 285.633C1260 285.633 1260 278.117 1296 278.117C1332 278.117 1332 285.633 1368 285.633C1404 285.633 1404 278.117 1440 278.117"
                    stroke="#3D3D3D" stroke-width="2" stroke-linecap="round" />
                <path
                    d="M0 300.667C36 300.667 36 308.183 72 308.183C108 308.183 108 300.667 144 300.667C180 300.667 180 308.183 216 308.183C252 308.183 252 300.667 288 300.667C324 300.667 324 308.183 360 308.183C396 308.183 396 300.667 432 300.667C468 300.667 468 308.183 504 308.183C540 308.183 540 300.667 576 300.667C612 300.667 612 308.183 648 308.183C684 308.183 684 300.667 720 300.667C756 300.667 756 308.183 792 308.183C828 308.183 828 300.667 864 300.667C892.5 300.667 900 308.183 936 308.183C972 308.183 972 300.667 1008 300.667C1044 300.667 1044 308.183 1080 308.183C1116 308.183 1116 300.667 1152 300.667C1188 300.667 1188 308.183 1224 308.183C1260 308.183 1260 300.667 1296 300.667C1332 300.667 1332 308.183 1368 308.183C1404 308.183 1404 300.667 1440 300.667"
                    stroke="#3D3D3D" stroke-width="2" stroke-linecap="round" />
                <path
                    d="M0 323.217C36 323.217 36 330.733 72 330.733C108 330.733 108 323.217 144 323.217C180 323.217 180 330.733 216 330.733C252 330.733 252 323.217 288 323.217C324 323.217 324 330.733 360 330.733C396 330.733 396 323.217 432 323.217C468 323.217 468 330.733 504 330.733C540 330.733 540 323.217 576 323.217C612 323.217 612 330.733 648 330.733C684 330.733 684 323.217 720 323.217C756 323.217 756 330.733 792 330.733C828 330.733 828 323.217 864 323.217C892.5 323.217 900 330.733 936 330.733C972 330.733 972 323.217 1008 323.217C1044 323.217 1044 330.733 1080 330.733C1116 330.733 1116 323.217 1152 323.217C1188 323.217 1188 330.733 1224 330.733C1260 330.733 1260 323.217 1296 323.217C1332 323.217 1332 330.733 1368 330.733C1404 330.733 1404 323.217 1440 323.217"
                    stroke="#3D3D3D" stroke-width="2" stroke-linecap="round" />
                <path
                    d="M0 345.767C36 345.767 36 353.283 72 353.283C108 353.283 108 345.767 144 345.767C180 345.767 180 353.283 216 353.283C252 353.283 252 345.767 288 345.767C324 345.767 324 353.283 360 353.283C396 353.283 396 345.767 432 345.767C468 345.767 468 353.283 504 353.283C540 353.283 540 345.767 576 345.767C612 345.767 612 353.283 648 353.283C684 353.283 684 345.767 720 345.767C756 345.767 756 353.283 792 353.283C828 353.283 828 345.767 864 345.767C892.5 345.767 900 353.283 936 353.283C972 353.283 972 345.767 1008 345.767C1044 345.767 1044 353.283 1080 353.283C1116 353.283 1116 345.767 1152 345.767C1188 345.767 1188 353.283 1224 353.283C1260 353.283 1260 345.767 1296 345.767C1332 345.767 1332 353.283 1368 353.283C1404 353.283 1404 345.767 1440 345.767"
                    stroke="#3D3D3D" stroke-width="2" stroke-linecap="round" />
                <path
                    d="M0 368.317C36 368.317 36 375.834 72 375.834C108 375.834 108 368.317 144 368.317C180 368.317 180 375.834 216 375.834C252 375.834 252 368.317 288 368.317C324 368.317 324 375.834 360 375.834C396 375.834 396 368.317 432 368.317C468 368.317 468 375.834 504 375.834C540 375.834 540 368.317 576 368.317C612 368.317 612 375.834 648 375.834C684 375.834 684 368.317 720 368.317C756 368.317 756 375.834 792 375.834C828 375.834 828 368.317 864 368.317C892.5 368.317 900 375.834 936 375.834C972 375.834 972 368.317 1008 368.317C1044 368.317 1044 375.834 1080 375.834C1116 375.834 1116 368.317 1152 368.317C1188 368.317 1188 375.834 1224 375.834C1260 375.834 1260 368.317 1296 368.317C1332 368.317 1332 375.834 1368 375.834C1404 375.834 1404 368.317 1440 368.317"
                    stroke="#3D3D3D" stroke-width="2" stroke-linecap="round" />
                <path
                    d="M0 390.867C36 390.867 36 398.383 72 398.383C108 398.383 108 390.867 144 390.867C180 390.867 180 398.383 216 398.383C252 398.383 252 390.867 288 390.867C324 390.867 324 398.383 360 398.383C396 398.383 396 390.867 432 390.867C468 390.867 468 398.383 504 398.383C540 398.383 540 390.867 576 390.867C612 390.867 612 398.383 648 398.383C684 398.383 684 390.867 720 390.867C756 390.867 756 398.383 792 398.383C828 398.383 828 390.867 864 390.867C892.5 390.867 900 398.383 936 398.383C972 398.383 972 390.867 1008 390.867C1044 390.867 1044 398.383 1080 398.383C1116 398.383 1116 390.867 1152 390.867C1188 390.867 1188 398.383 1224 398.383C1260 398.383 1260 390.867 1296 390.867C1332 390.867 1332 398.383 1368 398.383C1404 398.383 1404 390.867 1440 390.867"
                    stroke="#3D3D3D" stroke-width="2" stroke-linecap="round" />
                <path
                    d="M0 413.417C36 413.417 36 420.933 72 420.933C108 420.933 108 413.417 144 413.417C180 413.417 180 420.933 216 420.933C252 420.933 252 413.417 288 413.417C324 413.417 324 420.933 360 420.933C396 420.933 396 413.417 432 413.417C468 413.417 468 420.933 504 420.933C540 420.933 540 413.417 576 413.417C612 413.417 612 420.933 648 420.933C684 420.933 684 413.417 720 413.417C756 413.417 756 420.933 792 420.933C828 420.933 828 413.417 864 413.417C892.5 413.417 900 420.933 936 420.933C972 420.933 972 413.417 1008 413.417C1044 413.417 1044 420.933 1080 420.933C1116 420.933 1116 413.417 1152 413.417C1188 413.417 1188 420.933 1224 420.933C1260 420.933 1260 413.417 1296 413.417C1332 413.417 1332 420.933 1368 420.933C1404 420.933 1404 413.417 1440 413.417"
                    stroke="#3D3D3D" stroke-width="2" stroke-linecap="round" />
                <path
                    d="M0 435.967C36 435.967 36 443.483 72 443.483C108 443.483 108 435.967 144 435.967C180 435.967 180 443.483 216 443.483C252 443.483 252 435.967 288 435.967C324 435.967 324 443.483 360 443.483C396 443.483 396 435.967 432 435.967C468 435.967 468 443.483 504 443.483C540 443.483 540 435.967 576 435.967C612 435.967 612 443.483 648 443.483C684 443.483 684 435.967 720 435.967C756 435.967 756 443.483 792 443.483C828 443.483 828 435.967 864 435.967C892.5 435.967 900 443.483 936 443.483C972 443.483 972 435.967 1008 435.967C1044 435.967 1044 443.483 1080 443.483C1116 443.483 1116 435.967 1152 435.967C1188 435.967 1188 443.483 1224 443.483C1260 443.483 1260 435.967 1296 435.967C1332 435.967 1332 443.483 1368 443.483C1404 443.483 1404 435.967 1440 435.967"
                    stroke="#3D3D3D" stroke-width="2" stroke-linecap="round" />
            </svg>