<svg width="61" height="62" viewBox="0 0 61 62" fill="none" xmlns="http://www.w3.org/2000/svg">
<path d="M30.501 25.4171C33.9242 25.4171 36.6993 22.642 36.6993 19.2188C36.6993 15.7956 33.9242 13.0205 30.501 13.0205C27.0778 13.0205 24.3027 15.7956 24.3027 19.2188C24.3027 22.642 27.0778 25.4171 30.501 25.4171Z" stroke="#525252" stroke-miterlimit="10" stroke-linecap="round" stroke-linejoin="round"/>
<path d="M38.5332 11.8046C41.5168 11.8046 43.9354 9.3859 43.9354 6.4023C43.9354 3.41869 41.5168 1 38.5332 1C35.5495 1 33.1309 3.41869 33.1309 6.4023C33.1309 9.3859 35.5495 11.8046 38.5332 11.8046Z" stroke="#525252" stroke-miterlimit="10" stroke-linecap="round" stroke-linejoin="round"/>
<path d="M22.541 11.8046C25.5246 11.8046 27.9433 9.3859 27.9433 6.4023C27.9433 3.41869 25.5246 1 22.541 1C19.5574 1 17.1387 3.41869 17.1387 6.4023C17.1387 9.3859 19.5574 11.8046 22.541 11.8046Z" stroke="#525252" stroke-miterlimit="10" stroke-linecap="round" stroke-linejoin="round"/>
<path d="M14.5307 23.537C17.5691 23.537 20.0321 21.0739 20.0321 18.0356C20.0321 14.9972 17.5691 12.5342 14.5307 12.5342C11.4924 12.5342 9.0293 14.9972 9.0293 18.0356C9.0293 21.0739 11.4924 23.537 14.5307 23.537Z" stroke="#525252" stroke-miterlimit="10" stroke-linecap="round" stroke-linejoin="round"/>
<path d="M46.3578 23.5374C42.4769 23.5894 39.2808 26.3846 38.4824 30.041C39.2665 31.395 39.7165 32.9641 39.7165 34.6331V38.7949C39.7978 38.8071 39.8804 38.8153 39.965 38.8153H52.9721C53.8982 38.8153 54.6489 38.0646 54.6489 37.1387V31.7169C54.6489 27.1809 50.9071 23.4764 46.3578 23.5374Z" stroke="#525252" stroke-miterlimit="10" stroke-linecap="round" stroke-linejoin="round"/>
<path d="M21.283 34.7541C21.283 33.0498 21.7415 31.4434 22.5409 30.0584C21.7616 26.3125 18.3998 23.484 14.42 23.5374C9.92793 23.5976 6.35059 27.3318 6.35059 31.8242V37.1387C6.35059 38.0646 7.10126 38.8153 8.02722 38.8153H21.0343C21.1191 38.8153 21.2016 38.807 21.283 38.7949V34.7541Z" stroke="#525252" stroke-miterlimit="10" stroke-linecap="round" stroke-linejoin="round"/>
<path d="M20.0331 18.0361C20.0331 21.0745 17.57 23.5375 14.5316 23.5375C14.524 23.5375 14.5165 23.537 14.5088 23.5369V23.5383C18.45 23.5275 21.7681 26.3403 22.5416 30.0584C22.5411 30.0592 22.5408 30.06 22.5403 30.0608C24.1147 27.331 27.0174 25.4627 30.3753 25.4177C30.4161 25.4171 30.4568 25.4177 30.4974 25.4176C27.0755 25.4161 24.3018 22.6417 24.3018 19.2194C24.3018 16.8054 25.6828 14.7151 27.697 13.6916C26.2733 12.4943 24.4333 11.778 22.4327 11.8049C20.625 11.8292 18.9686 12.4601 17.6426 13.4991C19.0861 14.4908 20.0331 16.1526 20.0331 18.0361Z" stroke="#525252" stroke-miterlimit="10" stroke-linecap="round" stroke-linejoin="round"/>
<path d="M36.6984 19.2195C36.6984 22.6419 33.9249 25.4163 30.5029 25.4177C33.9023 25.4188 36.8869 27.2845 38.4835 30.0428C38.4831 30.0422 38.4829 30.0416 38.4825 30.0411C39.2809 26.3847 42.477 23.5896 46.3579 23.5375C46.4276 23.5366 46.4965 23.5392 46.5658 23.5401V23.535C46.5335 23.5356 46.5014 23.5374 46.4688 23.5374C43.4303 23.5374 40.9673 21.0744 40.9673 18.0359C40.9673 16.1311 41.9355 14.4528 43.4064 13.4653C42.0253 12.4049 40.295 11.7798 38.4241 11.8049C36.4904 11.8309 34.7297 12.5502 33.3613 13.7214C35.344 14.7556 36.6984 16.8288 36.6984 19.2195Z" stroke="#525252" stroke-miterlimit="10" stroke-linecap="round" stroke-linejoin="round"/>
<path d="M36.9039 54.1847C37.6951 53.4135 37.2586 52.0697 36.1651 51.9108L33.7707 51.5629C33.3365 51.4997 32.9611 51.2271 32.767 50.8337L31.6962 48.664C31.2071 47.6732 29.7943 47.6732 29.3053 48.664L28.2345 50.8337C28.0402 51.2271 27.6649 51.4998 27.2307 51.5629L24.8362 51.9108C23.7428 52.0697 23.3062 53.4135 24.0973 54.1847L25.83 55.8735C26.1442 56.1798 26.2875 56.621 26.2134 57.0535L25.8044 59.4381C25.6176 60.5272 26.7607 61.3577 27.7387 60.8435L29.8802 59.7176C30.2686 59.5135 30.7325 59.5135 31.1209 59.7176L33.2625 60.8435C34.2405 61.3577 35.3836 60.5272 35.1967 59.4381L34.7877 57.0535C34.7135 56.621 34.8569 56.1798 35.1711 55.8735L36.9039 54.1847Z" stroke="#525252" stroke-miterlimit="10" stroke-linecap="round" stroke-linejoin="round"/>
<path d="M49.8156 50.8328C50.3993 50.2638 50.0772 49.2726 49.2705 49.1553L47.5042 48.8987C47.1839 48.8521 46.907 48.6509 46.7638 48.3607L45.9739 46.7602C45.6132 46.0292 44.5708 46.0292 44.2101 46.7602L43.4202 48.3607C43.2769 48.6509 43.0001 48.8521 42.6797 48.8987L40.9134 49.1553C40.1068 49.2726 39.7847 50.2638 40.3683 50.8328L41.6464 52.0787C41.8782 52.3047 41.984 52.6301 41.9293 52.9491L41.6276 54.7083C41.4898 55.5117 42.333 56.1243 43.0544 55.7449L44.6342 54.9144C44.9207 54.7637 45.2629 54.7637 45.5494 54.9144L47.1292 55.7449C47.8507 56.1243 48.6939 55.5116 48.5562 54.7083L48.2545 52.9491C48.1998 52.63 48.3056 52.3045 48.5374 52.0787L49.8156 50.8328Z" stroke="#525252" stroke-miterlimit="10" stroke-linecap="round" stroke-linejoin="round"/>
<path d="M60.2516 45.9216C60.7362 45.4492 60.4688 44.6262 59.7992 44.5288L58.3326 44.3157C58.0667 44.2771 57.8367 44.11 57.7178 43.8691L57.0619 42.5401C56.7623 41.9332 55.8969 41.9332 55.5975 42.5401L54.9416 43.8691C54.8227 44.11 54.5927 44.2771 54.3267 44.3157L52.8602 44.5288C52.1904 44.6261 51.923 45.4492 52.4077 45.9216L53.469 46.9561C53.6614 47.1437 53.7493 47.414 53.7038 47.6789L53.4533 49.1395C53.3388 49.8065 54.039 50.3153 54.6381 50.0003L55.9499 49.3107C56.1878 49.1856 56.4719 49.1856 56.7098 49.3107L58.0216 50.0003C58.6207 50.3153 59.3209 49.8065 59.2064 49.1395L58.9559 47.6789C58.9105 47.414 58.9983 47.1437 59.1907 46.9561L60.2516 45.9216Z" stroke="#525252" stroke-miterlimit="10" stroke-linecap="round" stroke-linejoin="round"/>
<path d="M11.1848 50.8328C10.6011 50.2638 10.9232 49.2726 11.7299 49.1553L13.4962 48.8987C13.8165 48.8521 14.0934 48.6509 14.2366 48.3607L15.0265 46.7602C15.3872 46.0292 16.4295 46.0292 16.7903 46.7602L17.5802 48.3607C17.7235 48.6509 18.0003 48.8521 18.3207 48.8987L20.087 49.1553C20.8936 49.2726 21.2157 50.2638 20.6321 50.8328L19.354 52.0787C19.1222 52.3047 19.0164 52.6301 19.0711 52.9491L19.3728 54.7083C19.5105 55.5117 18.6674 56.1243 17.9458 55.7449L16.366 54.9144C16.0796 54.7637 15.7373 54.7637 15.4508 54.9144L13.871 55.7449C13.1496 56.1243 12.3063 55.5116 12.4441 54.7083L12.7458 52.9491C12.8004 52.63 12.6947 52.3045 12.4629 52.0787L11.1848 50.8328Z" stroke="#525252" stroke-miterlimit="10" stroke-linecap="round" stroke-linejoin="round"/>
<path d="M0.747456 45.9216C0.262869 45.4492 0.530273 44.6262 1.19993 44.5288L2.66649 44.3157C2.93245 44.2771 3.16243 44.11 3.28134 43.8691L3.93724 42.5401C4.23675 41.9332 5.10223 41.9332 5.40162 42.5401L6.05752 43.8691C6.17643 44.11 6.40641 44.2771 6.67237 44.3157L8.13893 44.5288C8.80871 44.6261 9.07611 45.4492 8.5914 45.9216L7.53011 46.9561C7.33768 47.1437 7.24979 47.414 7.29531 47.6789L7.54581 49.1395C7.66026 49.8065 6.96005 50.3153 6.36102 50.0003L5.04923 49.3107C4.81128 49.1856 4.52722 49.1856 4.28927 49.3107L2.97748 50.0003C2.37844 50.3153 1.67824 49.8065 1.79269 49.1395L2.04319 47.6789C2.08858 47.414 2.00082 47.1437 1.80838 46.9561L0.747456 45.9216Z" stroke="#525252" stroke-miterlimit="10" stroke-linecap="round" stroke-linejoin="round"/>
<path d="M32.6123 42.631H37.8269C38.8703 42.631 39.7161 41.7852 39.7161 40.7419V34.6334C39.7161 29.5229 35.5004 25.3491 30.3748 25.4178C25.3137 25.4858 21.2832 29.6928 21.2832 34.7543V40.7418C21.2832 41.7851 22.129 42.6309 23.1723 42.6309H28.3869" stroke="#525252" stroke-miterlimit="10" stroke-linecap="round" stroke-linejoin="round"/>
<path d="M51.596 16.0405C50.7969 13.9888 48.8035 12.5342 46.4692 12.5342C43.4308 12.5342 40.9678 14.9972 40.9678 18.0356C40.9678 21.074 43.4308 23.537 46.4692 23.537C48.7133 23.537 50.6423 22.1926 51.4981 20.2659" stroke="#525252" stroke-miterlimit="10" stroke-linecap="round" stroke-linejoin="round"/>
</svg>
