<svg width="50" height="60" viewBox="0 0 50 60" fill="none" xmlns="http://www.w3.org/2000/svg">
<path fill-rule="evenodd" clip-rule="evenodd" d="M13.9109 17.2659C13.6789 17.2659 13.4469 17.143 13.3241 16.911C13.1603 16.5971 13.2831 16.2012 13.597 16.0238C16.9137 14.2904 20.6534 13.3623 24.4069 13.3623C27.7235 13.3623 30.931 14.0447 33.9337 15.396C34.2613 15.5461 34.4114 15.9283 34.2613 16.2558C34.1111 16.5834 33.729 16.7336 33.3877 16.5834C30.5488 15.3141 27.5188 14.6726 24.3932 14.6726C20.8445 14.6726 17.3095 15.5325 14.1839 17.184C14.1157 17.2386 14.0201 17.2659 13.9109 17.2659ZM24.4205 60.0002C11.5634 60.0002 1.1084 49.5452 1.1084 36.6881C1.1084 33.9447 1.57246 31.2695 2.50057 28.7172C2.62341 28.376 3.00558 28.1985 3.33315 28.3214C3.67437 28.4442 3.8518 28.8264 3.72896 29.1676C2.85544 31.5698 2.40503 34.1084 2.40503 36.6881C2.40503 48.8218 12.2731 58.6899 24.4069 58.6899C36.5406 58.6899 46.4087 48.8218 46.4087 36.6881C46.4087 32.0884 45.0029 27.6799 42.355 23.9538C42.1503 23.6535 42.2185 23.244 42.5051 23.0393C42.8054 22.8346 43.2149 22.9028 43.4196 23.1894C46.2312 27.1476 47.719 31.8154 47.719 36.6881C47.7326 49.5452 37.2776 60.0002 24.4205 60.0002Z" fill="#525252"/>
<path fill-rule="evenodd" clip-rule="evenodd" d="M17.2686 29.3447C16.941 29.3447 16.6544 29.099 16.6134 28.7578C16.5725 28.4029 16.8455 28.0753 17.2003 28.0344C18.456 27.9115 22.032 24.6904 22.8782 22.2746C23.0147 21.8788 23.1376 21.3465 22.8646 21.0872C22.1276 20.3638 21.4724 19.0944 22.4961 17.1563C23.1239 15.9825 24.2158 14.836 25.0893 13.9079C25.1849 13.8124 25.2804 13.7032 25.376 13.6076C25.6216 13.3483 26.0448 13.3347 26.3041 13.5803C26.5634 13.826 26.5771 14.2491 26.3314 14.5085C26.2358 14.604 26.1403 14.6995 26.0448 14.8087C24.0111 16.9379 22.4278 18.8215 23.7791 20.1454C24.2022 20.5549 24.598 21.3328 24.1066 22.7114C23.1785 25.3592 19.3023 29.1399 17.3232 29.3447C17.3095 29.3447 17.2822 29.3447 17.2686 29.3447Z" fill="#525252"/>
<path fill-rule="evenodd" clip-rule="evenodd" d="M2.24133 41.9835C2.0366 41.9835 1.84551 41.888 1.72267 41.7242C1.50429 41.4376 1.55889 41.0281 1.85916 40.8097C1.982 40.7278 4.73905 38.6805 7.34597 38.5986C7.70084 38.585 8.01476 38.8716 8.01476 39.2401C8.02841 39.595 7.74178 39.9089 7.38691 39.9089C5.20311 39.9771 2.67809 41.847 2.65079 41.8607C2.5143 41.9289 2.37782 41.9835 2.24133 41.9835ZM22.6462 59.9317C22.6326 59.9317 22.6326 59.9317 22.6189 59.9317C22.2641 59.918 21.9775 59.6177 21.9911 59.2492C22.2914 52.2883 21.568 47.9071 19.8346 46.201C18.9611 45.3275 17.9101 45.2046 16.5043 45.2865C13.6108 45.4503 12.3278 44.877 10.8537 43.7169C10.5671 43.4849 10.5261 43.0754 10.7445 42.8024C10.9765 42.5158 11.386 42.4749 11.6726 42.6932C12.942 43.7033 13.9247 44.1264 16.4361 43.9899C17.9101 43.908 19.4661 44.0035 20.7491 45.2865C22.7964 47.3065 23.6017 51.7697 23.2877 59.3175C23.2877 59.6587 22.9875 59.9317 22.6462 59.9317Z" fill="#525252"/>
<path fill-rule="evenodd" clip-rule="evenodd" d="M47.077 37.3431C46.9405 37.3431 46.7903 37.3022 46.6675 37.2066C46.6129 37.1657 41.0988 32.839 38.369 35.1593C37.2908 36.0874 36.0897 36.0738 35.1479 35.1183C33.3053 33.2212 32.8686 27.8845 34.9159 25.6052C35.4482 25.0183 35.9123 24.3222 36.3354 23.5305C36.4992 23.203 36.895 23.0801 37.2225 23.2576C37.5501 23.4213 37.6729 23.8172 37.4955 24.1447C37.0315 25.0319 36.4992 25.8235 35.8986 26.4923C34.3426 28.2257 34.6839 32.7708 36.0897 34.2175C36.4173 34.5587 36.8131 34.7771 37.5092 34.1766C41.0442 31.1602 47.2134 35.9782 47.4728 36.1966C47.7594 36.415 47.8003 36.8381 47.582 37.1111C47.4591 37.2612 47.268 37.3431 47.077 37.3431Z" fill="#525252"/>
<path fill-rule="evenodd" clip-rule="evenodd" d="M31.9957 58.7033C31.6818 58.7033 31.3952 58.4713 31.3542 58.1437C30.6035 53.2711 30.4261 50.787 30.7127 49.313C31.0403 47.5796 32.0367 47.1155 33.1695 46.5832C34.0567 46.1601 35.1622 45.6414 36.4862 44.3311C37.8237 42.9936 39.1067 42.5159 40.3215 42.8844C42.983 43.7033 43.952 48.3985 44.0612 48.9308C44.1295 49.2857 43.8974 49.6269 43.5426 49.6951C43.1877 49.7634 42.8465 49.5313 42.7782 49.1765C42.5326 47.9481 41.5635 44.6314 39.9393 44.1401C39.2296 43.9217 38.3697 44.3039 37.4143 45.2593C35.9402 46.7333 34.6709 47.3339 33.7291 47.7706C31.8319 48.6578 31.2587 48.9308 32.6509 57.9526C32.7054 58.3075 32.4598 58.6487 32.1049 58.7033C32.064 58.7033 32.023 58.7033 31.9957 58.7033Z" fill="#525252"/>
<path fill-rule="evenodd" clip-rule="evenodd" d="M39.8565 1.29663C35.5025 1.29663 31.9675 4.83167 31.9675 9.18563C31.9675 10.414 36.144 20.3094 38.3961 25.6187C38.9693 26.9836 39.4743 28.1711 39.8565 29.0992C40.2523 28.1574 40.7437 26.97 41.3169 25.6187C43.569 20.2957 47.7455 10.4004 47.7455 9.18563C47.7455 4.83167 44.2105 1.29663 39.8565 1.29663ZM39.8565 31.5014C39.5835 31.5014 39.3515 31.3376 39.2423 31.0919C38.8738 30.1638 38.0822 28.2939 37.1813 26.1511C33.6054 17.6888 30.6572 10.5778 30.6572 9.19927C30.6572 4.12193 34.7792 0 39.8565 0C44.9338 0 49.0558 4.12193 49.0558 9.19927C49.0558 10.5778 46.094 17.6888 42.5317 26.1511C41.6172 28.3076 40.8392 30.1638 40.4707 31.0919C40.3752 31.3376 40.1295 31.5014 39.8565 31.5014Z" fill="#525252"/>
<path fill-rule="evenodd" clip-rule="evenodd" d="M39.8566 5.14571C37.7547 5.14571 36.0486 6.8518 36.0486 8.95372C36.0486 11.0556 37.7547 12.7617 39.8566 12.7617C41.9585 12.7617 43.6646 11.0556 43.6646 8.95372C43.6646 6.8518 41.9585 5.14571 39.8566 5.14571ZM39.8566 14.0584C37.0313 14.0584 34.7383 11.7654 34.7383 8.94007C34.7383 6.11477 37.0313 3.82178 39.8566 3.82178C42.6819 3.82178 44.9749 6.11477 44.9749 8.94007C44.9749 11.7654 42.6819 14.0584 39.8566 14.0584Z" fill="#525252"/>
<path fill-rule="evenodd" clip-rule="evenodd" d="M10.1436 16.3923C5.78965 16.3923 2.25462 19.9273 2.25462 24.2813C2.25462 25.5097 6.43114 35.4051 8.68319 40.7144C9.25644 42.0793 9.76144 43.2667 10.1436 44.1949C10.5394 43.2531 11.0308 42.0793 11.604 40.7144C13.8561 35.3914 18.0326 25.496 18.0326 24.2677C18.0326 19.9273 14.4976 16.3923 10.1436 16.3923ZM10.1436 46.5834C9.87063 46.5834 9.6386 46.4196 9.52941 46.1739C9.1609 45.2458 8.38292 43.3759 7.46845 41.2331C3.89247 32.7708 0.944336 25.6598 0.944336 24.2813C0.944336 19.204 5.06626 15.082 10.1436 15.082C15.221 15.082 19.3429 19.204 19.3429 24.2813C19.3429 25.6598 16.3811 32.7708 12.8188 41.2331C11.9043 43.3896 11.1263 45.2458 10.7578 46.1739C10.6623 46.4196 10.4166 46.5834 10.1436 46.5834Z" fill="#525252"/>
<path fill-rule="evenodd" clip-rule="evenodd" d="M10.1437 20.2273C8.04177 20.2273 6.33567 21.9334 6.33567 24.0353C6.33567 26.1372 8.04177 27.8433 10.1437 27.8433C12.2456 27.8433 13.9517 26.1372 13.9517 24.0353C13.9517 21.9334 12.2456 20.2273 10.1437 20.2273ZM10.1437 29.1536C7.31838 29.1536 5.02539 26.8606 5.02539 24.0353C5.02539 21.21 7.31838 18.917 10.1437 18.917C12.969 18.917 15.262 21.21 15.262 24.0353C15.262 26.8606 12.969 29.1536 10.1437 29.1536Z" fill="#525252"/>
<path fill-rule="evenodd" clip-rule="evenodd" d="M15.125 41.7927C14.893 41.7927 14.6746 41.6698 14.5518 41.4651C14.3743 41.1512 14.4835 40.7553 14.7975 40.5643L17.0222 39.2813C17.3361 39.1038 17.7319 39.213 17.923 39.527C18.1005 39.8409 17.9913 40.2367 17.6774 40.4278L15.4526 41.7108C15.3434 41.7654 15.2342 41.7927 15.125 41.7927Z" fill="#525252"/>
<path fill-rule="evenodd" clip-rule="evenodd" d="M19.8203 39.0763C19.5883 39.0763 19.3699 38.9535 19.2471 38.7488C19.0697 38.4348 19.1788 38.039 19.4928 37.8479L21.7175 36.565C22.0314 36.3875 22.4273 36.4967 22.6183 36.8106C22.7958 37.1246 22.6866 37.5204 22.3727 37.7115L20.1479 38.9944C20.0524 39.049 19.9295 39.0763 19.8203 39.0763Z" fill="#525252"/>
<path fill-rule="evenodd" clip-rule="evenodd" d="M24.5293 36.3605C24.2973 36.3605 24.0789 36.2377 23.9561 36.033C23.7786 35.719 23.8878 35.3232 24.2018 35.1321L26.4265 33.8491C26.7404 33.6717 27.1362 33.7809 27.3273 34.0948C27.5048 34.4087 27.3956 34.8046 27.0816 34.9956L24.8569 36.2786C24.7477 36.3332 24.6385 36.3605 24.5293 36.3605Z" fill="#525252"/>
<path fill-rule="evenodd" clip-rule="evenodd" d="M29.2246 33.6442C28.9926 33.6442 28.7742 33.5214 28.6514 33.3166C28.474 33.0027 28.5831 32.6069 28.8971 32.4158L31.1218 31.1328C31.4357 30.9554 31.8316 31.0646 32.0226 31.3785C32.2001 31.6924 32.0909 32.0883 31.7906 32.2793L29.5659 33.5623C29.4567 33.6169 29.3338 33.6442 29.2246 33.6442Z" fill="#525252"/>
</svg>
