<svg width="65" height="62" viewBox="0 0 65 62" fill="none" xmlns="http://www.w3.org/2000/svg">
<path d="M22.7464 57.0791C9.82331 57.0791 0.443359 49.7443 0.443359 39.6385C0.443359 31.1136 10.3585 17.5729 18.1744 12.878L18.4354 12.8057H27.0502L27.3112 12.878C35.127 17.5687 45.0422 31.1086 45.0422 39.6385C45.0422 39.843 45.0416 40.0399 45.0264 40.2368L44.014 40.1568C44.0279 39.9864 44.0272 39.8159 44.0272 39.6385C44.0272 31.6746 34.418 18.4072 26.9088 13.8206H18.5775C11.0676 18.4112 1.45834 31.6792 1.45834 39.6385C1.45834 49.1562 10.4114 56.0641 22.7464 56.0641C23.883 56.0641 24.9892 56.0056 26.0339 55.8906L26.1449 56.8997C25.0638 57.0186 23.92 57.0791 22.7464 57.0791Z" fill="#525252" stroke="#525252" stroke-width="0.5"/>
<path d="M23.6807 45.7698C22.2573 45.7698 20.8763 45.2511 19.8124 44.3012C18.582 43.2033 17.877 41.6286 17.877 39.9813H18.8919C18.8919 41.3399 19.4734 42.6383 20.4877 43.5439C21.5159 44.4621 22.8448 44.8814 24.2285 44.7238C26.3635 44.4809 28.1166 42.7612 28.3981 40.6351C28.6135 39.0033 27.9996 37.3982 26.7567 36.341C26.2915 35.9462 25.6816 35.7284 25.0399 35.7284H22.293C21.4102 35.7284 20.5677 35.4251 19.9195 34.874C18.4129 33.5934 17.6681 31.6497 17.9292 29.6739C18.2701 27.0922 20.3985 25.0044 22.9895 24.7097C24.6428 24.5244 26.2921 25.0437 27.5212 26.1407C28.751 27.2386 29.456 28.8132 29.456 30.4606H28.441C28.441 29.102 27.8595 27.8035 26.8452 26.8979C25.8164 25.9794 24.4816 25.5635 23.1045 25.7181C20.9695 25.9609 19.2164 27.6806 18.9349 29.8067C18.7201 31.4389 19.334 33.0443 20.577 34.1006C21.0421 34.496 21.6514 34.7134 22.293 34.7134H25.0399C25.9221 34.7134 26.7653 35.0167 27.4135 35.5675C28.9208 36.8491 29.6648 38.7932 29.4038 40.768C29.0628 43.3497 26.9344 45.4374 24.3435 45.7322C24.1221 45.7573 23.9007 45.7698 23.6807 45.7698Z" fill="#525252" stroke="#525252" stroke-width="0.5"/>
<path d="M23.1592 21.0059H24.1742V49.4361H23.1592V21.0059Z" fill="#525252" stroke="#525252" stroke-width="0.5"/>
<path d="M13.2236 12.8076H32.2624V13.8226H13.2236V12.8076Z" fill="#525252" stroke="#525252" stroke-width="0.5"/>
<path d="M27.0535 13.849H18.3878L17.9471 13.5929L13.4524 5.71529C12.8868 4.72377 12.9971 3.51915 13.7345 2.64591C14.4693 1.77465 15.6356 1.46507 16.7035 1.85527C18.8114 2.62443 21.2002 3.49602 25.9209 3.49602C26.809 3.49602 27.6588 3.46496 28.4464 3.40351C29.4574 3.32751 30.4176 3.80362 30.9568 4.65306C31.496 5.5035 31.5198 6.53533 31.0189 7.41353L27.4942 13.5929L27.0535 13.849ZM18.6826 12.834H26.7588L30.1374 6.91066C30.4486 6.36518 30.4341 5.72421 30.0997 5.1969C29.7568 4.6567 29.1555 4.36298 28.5257 4.41518C27.7116 4.47895 26.8354 4.51099 25.9209 4.51099C21.3812 4.51099 18.9991 3.77322 16.3559 2.80879C15.5497 2.51408 14.8738 2.86959 14.5097 3.30075C14.1442 3.73357 13.9064 4.46309 14.3339 5.21243L18.6826 12.834Z" fill="#525252" stroke="#525252" stroke-width="0.5"/>
<path d="M33.4897 60.4924H32.4747V49.6908H26.599V60.4924H25.584V49.1833L26.0915 48.6758H32.9822L33.4897 49.1833V60.4924Z" fill="#525252" stroke="#525252" stroke-width="0.5"/>
<path d="M40.3803 60.4923H39.3654V45.1976H33.4896V60.4923H32.4746V44.6901L32.9821 44.1826H39.8728L40.3803 44.6901V60.4923Z" fill="#525252" stroke="#525252" stroke-width="0.5"/>
<path d="M47.2703 60.4927H46.2553V40.7049H40.3802V60.4927H39.3652V40.1974L39.8727 39.6899H46.7628L47.2703 40.1974V60.4927Z" fill="#525252" stroke="#525252" stroke-width="0.5"/>
<path d="M54.1616 60.4924H53.1466V36.2113H47.2708V60.4924H46.2559V35.7038L46.7633 35.1963H53.6541L54.1616 35.7038V60.4924Z" fill="#525252" stroke="#525252" stroke-width="0.5"/>
<path d="M61.0522 60.4923H60.0372V31.7181H54.1615V60.4923H53.1465V31.2106L53.654 30.7031H60.5447L61.0522 31.2106V60.4923Z" fill="#525252" stroke="#525252" stroke-width="0.5"/>
<path d="M12.3818 59.9849H64.5561V60.9999H12.3818V59.9849Z" fill="#525252" stroke="#525252" stroke-width="0.5"/>
<path d="M54.159 28.3819H53.144V15.9296L53.6515 15.4221H58.9233L48.4358 2.13359L37.9491 15.4221H43.2202L43.7277 15.9296V26.9896H42.7127V16.4371H36.9024L36.5039 15.6151L48.0374 1H48.8343L60.3684 15.6151L59.97 16.4371H54.159V28.3819Z" fill="#525252" stroke="#525252" stroke-width="0.5"/>
</svg>
