<svg width="60" height="60" viewBox="0 0 60 60" fill="none" xmlns="http://www.w3.org/2000/svg">
<path d="M55.1127 41.3694H51.2442C51.0221 41.3694 50.8173 41.249 50.7092 41.0548L34.3982 11.74L35.4681 11.1448L51.604 40.145H54.2241L40.286 3.56098C39.8158 2.32697 38.9942 1.54613 37.9102 1.30295C36.7108 1.03455 35.3158 1.49201 34.2685 2.49851L32.3102 4.3799L31.4619 3.49694L33.4201 1.61543C34.7802 0.308444 36.559 -0.25493 38.178 0.108123C39.6605 0.440808 40.8156 1.51209 41.43 3.12495L55.6847 40.5392C55.7564 40.7274 55.731 40.9388 55.6167 41.1045C55.5025 41.2704 55.314 41.3694 55.1127 41.3694Z" fill="#525252"/>
<path d="M11.7831 34.8973H10.5586V29.9962C10.5586 26.797 11.4968 23.7682 13.4266 20.7363C14.9779 18.2994 17.2026 15.8414 20.228 13.2223L31.4863 3.4755C32.3338 2.74193 33.4271 2.39295 34.5651 2.49214C35.7072 2.59193 36.7732 3.15432 37.4899 4.03532C38.9946 5.88524 38.9206 8.30709 37.3099 9.92448L25.3763 21.9078L24.5086 21.0437L36.4422 9.06038C37.6132 7.88453 37.6525 6.17568 36.5399 4.80796C36.0313 4.18262 35.2725 3.78308 34.4585 3.71194C33.654 3.64141 32.8827 3.88631 32.2877 4.40131L21.0294 14.1481C14.6347 19.6842 11.7831 24.572 11.7831 29.9963V34.8973Z" fill="#525252"/>
<path d="M33.625 48.6943H32.4006V46.3828H33.625V48.6943ZM16.8573 48.6943H15.6328V46.3828H16.8573V48.6943Z" fill="#525252"/>
<path d="M37.1659 60.0001H12.0918C8.80605 60.0001 6.13281 57.3268 6.13281 54.0411C6.13281 50.7553 8.80605 48.082 12.0918 48.082H37.1659C40.4517 48.082 43.125 50.7553 43.125 54.0411C43.125 57.3268 40.4516 60.0001 37.1659 60.0001ZM12.0918 49.3065C9.48122 49.3065 7.35727 51.4304 7.35727 54.0411C7.35727 56.6517 9.48122 58.7756 12.0918 58.7756H37.1659C39.7766 58.7756 41.9005 56.6517 41.9005 54.0411C41.9005 51.4304 39.7766 49.3065 37.1659 49.3065H12.0918Z" fill="#525252"/>
<path d="M34.6222 55.9867H14.6357V54.7622H34.6224V55.9867H34.6222ZM34.6222 53.3197H14.6357V52.0952H34.6224V53.3197H34.6222Z" fill="#525252"/>
<path d="M36.5206 56.9732C34.9038 56.9732 33.5885 55.6579 33.5885 54.0411C33.5885 52.4243 34.9038 51.1089 36.5206 51.1089C38.1373 51.1089 39.4528 52.4243 39.4528 54.0411C39.4528 55.6579 38.1373 56.9732 36.5206 56.9732ZM36.5206 52.3332C35.579 52.3332 34.8129 53.0994 34.8129 54.041C34.8129 54.9826 35.579 55.7486 36.5206 55.7486C37.4622 55.7486 38.2283 54.9826 38.2283 54.041C38.2283 53.0994 37.4622 52.3332 36.5206 52.3332ZM12.7368 56.9732C11.12 56.9732 9.80469 55.6579 9.80469 54.0411C9.80469 52.4243 11.12 51.1089 12.7368 51.1089C14.3536 51.1089 15.669 52.4243 15.669 54.0411C15.669 55.6579 14.3536 56.9732 12.7368 56.9732ZM12.7368 52.3332C11.7952 52.3332 11.0291 53.0994 11.0291 54.041C11.0291 54.9826 11.7952 55.7486 12.7368 55.7486C13.6784 55.7486 14.4445 54.9826 14.4445 54.041C14.4445 53.0994 13.6784 52.3332 12.7368 52.3332Z" fill="#525252"/>
<path d="M35.0091 46.995H3.07287C1.38556 46.995 0.0126953 45.6222 0.0126953 43.9349V37.3455C0.0126953 35.6582 1.38556 34.2854 3.07287 34.2854H17.8721V23.9238C17.8721 22.2365 19.2449 20.8638 20.9322 20.8638H30.7257C32.0137 20.8638 33.1383 21.6429 33.5908 22.8489L37.7181 33.8511C37.9608 34.498 38.069 35.0947 38.069 35.7858V43.935C38.0692 45.6222 36.6964 46.995 35.0091 46.995ZM3.07287 35.5098C2.0606 35.5098 1.23716 36.3332 1.23716 37.3454V43.9348C1.23716 44.9471 2.06073 45.7704 3.07287 45.7704H35.0091C36.0214 45.7704 36.8447 44.9469 36.8447 43.9348V35.7856C36.8447 35.241 36.763 34.791 36.5718 34.2812L32.4445 23.2789C32.1688 22.5445 31.5103 22.0881 30.7258 22.0881H20.9323C19.9201 22.0881 19.0966 22.9116 19.0966 23.9237V34.8975C19.0966 35.2357 18.8226 35.5098 18.4844 35.5098H3.07287Z" fill="#525252"/>
<path d="M35.0095 42.0989H28.4431C28.2162 42.0989 28.0081 41.9735 27.902 41.7731L24.5865 35.5095H20.9325C20.5943 35.5095 20.3203 35.2354 20.3203 34.8972V23.9233C20.3203 23.5851 20.5943 23.311 20.9325 23.311L30.7261 23.3112C30.9813 23.3112 31.2097 23.4695 31.2994 23.7084L35.4268 34.7105C35.5634 35.0745 35.6218 35.3961 35.6218 35.7853V41.4867C35.6218 41.8249 35.3477 42.0989 35.0095 42.0989ZM28.8118 40.8744H34.3973V35.7853C34.3973 35.5424 34.3656 35.3677 34.2805 35.1405L30.302 24.5356L21.5448 24.5355V34.285H24.9551C25.182 34.285 25.3902 34.4104 25.4962 34.6108L28.8118 40.8744Z" fill="#525252"/>
<path d="M20.9325 46.9951C20.5943 46.9951 20.3203 46.7211 20.3203 46.3829V41.4872C20.3203 41.149 20.5943 40.875 20.9325 40.875C21.2707 40.875 21.5448 41.149 21.5448 41.4872V46.3829C21.5448 46.7209 21.2707 46.9951 20.9325 46.9951Z" fill="#525252"/>
<path d="M13.5323 42.6881H5.7216C5.38341 42.6881 5.10938 42.4141 5.10938 42.0759C5.10938 41.7377 5.38341 41.4636 5.7216 41.4636H13.5323C13.8705 41.4636 14.1445 41.7377 14.1445 42.0759C14.1445 42.4141 13.8704 42.6881 13.5323 42.6881ZM13.5323 39.8167H5.7216C5.38341 39.8167 5.10938 39.5427 5.10938 39.2045C5.10938 38.8663 5.38341 38.5923 5.7216 38.5923H13.5323C13.8705 38.5923 14.1445 38.8663 14.1445 39.2045C14.1445 39.5427 13.8704 39.8167 13.5323 39.8167Z" fill="#525252"/>
<path d="M49.7625 60.0002C49.6596 60.0002 49.5565 59.9743 49.4635 59.9221C49.2676 59.8124 49.1476 59.6045 49.1504 59.3802L49.1754 57.4213C49.1768 57.3116 49.2077 57.2041 49.2648 57.1103L50.6323 54.8678V40.8433C50.6323 40.5051 50.9063 40.2311 51.2445 40.2311C51.5827 40.2311 51.8567 40.5051 51.8567 40.8433V55.0396C51.8567 55.152 51.8258 55.2623 51.7672 55.3584L50.3976 57.6046L50.3891 58.2691L57.3355 53.8886C58.256 53.3081 58.7629 52.389 58.7629 51.3004V46.6464C58.7629 44.6645 57.2691 43.7503 55.7252 43.221V50.2408C55.7252 50.579 55.4511 50.853 55.1129 50.853C54.7747 50.853 54.5007 50.579 54.5007 50.2408V42.4077C54.5005 42.3986 54.5005 42.3894 54.5007 42.3801V40.8432C54.5007 40.505 54.7747 40.231 55.1129 40.231C55.4511 40.231 55.7252 40.505 55.7252 40.8432V41.9309C57.2201 42.3756 59.9874 43.46 59.9874 46.6463V51.3003C59.9874 52.8022 59.2588 54.1231 57.9886 54.9242L50.089 59.9058C49.9896 59.9686 49.8762 60.0002 49.7625 60.0002Z" fill="#525252"/>
<path fill-rule="evenodd" clip-rule="evenodd" d="M34.6187 5.47217C34.0376 5.47217 33.5664 5.94322 33.5664 6.52435C33.5664 7.10547 34.0376 7.57665 34.6187 7.57665C35.1998 7.57665 35.671 7.10547 35.671 6.52435C35.671 5.94334 35.1998 5.47217 34.6187 5.47217Z" fill="#525252"/>
<path d="M31.2392 37.2241C31.0826 37.2241 30.9258 37.1643 30.8064 37.0447L25.9825 32.2208C25.7433 31.9818 25.7433 31.5942 25.9825 31.3551C26.2214 31.116 26.6093 31.116 26.8482 31.3551L31.6721 36.179C31.9112 36.418 31.9112 36.8057 31.6721 37.0447C31.5527 37.1643 31.3958 37.2241 31.2392 37.2241ZM30.2339 32.3282C30.0773 32.3282 29.9205 32.2685 29.8011 32.1488L24.9772 27.3248C24.7381 27.0858 24.7381 26.6982 24.9772 26.4591C25.2161 26.22 25.604 26.22 25.8429 26.4591L30.6668 31.2831C30.9059 31.5222 30.9059 31.9098 30.6668 32.1488C30.5474 32.2685 30.3905 32.3282 30.2339 32.3282Z" fill="#525252"/>
</svg>
