<svg width="232" height="56" viewBox="0 0 232 56" fill="none" xmlns="http://www.w3.org/2000/svg">
<path d="M48.34 26.0126H54.149C54.149 21.9514 53.342 18.0787 51.8902 14.5558L46.6996 16.6806C45.6812 14.0387 44.1819 11.616 42.3398 9.50878L52.3474 3.36764L43.6876 0.463135L41.8967 1.81364C41.8967 1.81364 41.8914 1.81012 41.8887 1.80835C41.8878 1.80923 41.887 1.81012 41.8852 1.811C41.8834 1.81188 41.8808 1.81276 41.8782 1.81364L35.7634 6.42632C35.7634 6.42632 35.7599 6.43073 35.759 6.43249C35.7573 6.43513 35.7564 6.43777 35.7546 6.44042C35.7546 6.44042 35.7564 6.4413 35.7573 6.44218L33.6342 8.04287C33.6262 8.03847 33.6192 8.03495 33.6113 8.03054C33.5029 8.1204 33.3813 8.19352 33.2518 8.24814C33.1849 8.30452 33.1135 8.35385 33.0378 8.39702C32.9409 8.48335 32.8316 8.55647 32.7153 8.61461C32.6581 8.66835 32.5982 8.71945 32.5321 8.76262C32.4933 8.79962 32.4528 8.83485 32.4096 8.86657C32.3471 8.9529 32.2757 9.03307 32.1947 9.10443C32.2009 9.10707 32.207 9.11059 32.2132 9.11324L16.0397 21.3065L27.1741 27.2768L13.7554 40.5625C13.7554 40.5625 13.7519 40.5598 13.7501 40.5589C13.7352 40.5748 13.7167 40.588 13.6973 40.5995C13.6832 40.6136 13.6664 40.6268 13.6479 40.6365C13.6444 40.6382 13.6418 40.6409 13.6391 40.6435C13.6374 40.6444 13.6356 40.6453 13.6338 40.6462C13.633 40.6462 13.6321 40.6462 13.6312 40.647C13.6233 40.6576 13.6145 40.6673 13.6083 40.6735C13.5748 40.7034 13.5581 40.7149 13.5361 40.7254C13.4867 40.7686 13.4347 40.81 13.3792 40.8461C13.2947 40.9448 13.196 41.0311 13.0877 41.1042C13.0841 41.1078 13.0797 41.1104 13.0762 41.1131C13.0674 41.1236 13.0595 41.1342 13.0507 41.1448C12.9837 41.2558 12.9009 41.3562 12.8049 41.4452C12.7414 41.5386 12.6666 41.624 12.582 41.6998C12.5864 41.7033 12.5908 41.7068 12.5952 41.7095L10.9275 43.3604L5.07448 49.1324C5.07096 49.1386 5.06655 49.1447 5.06215 49.1509C5.06567 49.1535 5.06831 49.1562 5.07096 49.1588L0.0917969 54.0904L5.83034 49.7632C7.87768 51.3348 10.1356 52.6483 12.5441 53.6605L14.9914 47.8515C17.8157 49.0082 20.9079 49.6266 24.1621 49.6266V56.0003C28.3308 56.0003 32.311 55.1396 35.915 53.6068L33.4404 47.7977C36.1837 46.6411 38.6583 45.028 40.7558 43.0371L45.1395 47.4207C48.125 44.4889 50.4913 40.9659 52.0514 37.0122L46.4574 34.8072C47.6141 32.0912 48.2589 29.1056 48.34 26.0126ZM36.0762 26.9543L25.614 19.7737L37.1571 12.6899C40.4131 15.9953 42.4261 20.5304 42.4261 25.529C42.4261 35.615 34.2323 43.8211 24.1613 43.8211C21.2929 43.8211 18.5769 43.1569 16.1578 41.9746L36.0753 26.9543H36.0762ZM24.1621 47.7167C19.9776 47.7167 16.0679 46.5644 12.7273 44.562L14.735 43.0476C17.5426 44.5646 20.7537 45.4262 24.1621 45.4262C29.4514 45.4262 34.4358 43.3524 38.1975 39.5864C41.961 35.8194 44.033 30.827 44.033 25.5281C44.033 20.2291 42.0905 15.5548 38.5517 11.8327L40.6748 10.5298C44.2356 14.4791 46.4036 19.7111 46.4036 25.447C46.4036 37.7381 36.4524 47.7158 24.1621 47.7158V47.7167Z" fill="#292929"/>
<path d="M43.5055 0L52.7617 3.20622L25.9187 19.8674L36.5634 26.843L0.00138855 54.1488L26.8444 27.3058L15.7369 21.2893L43.5055 0Z" fill="white"/>
<path d="M71.3804 32H66.5164V9.024H71.3804V32ZM80.1429 22.688V32H75.6949V14.912H79.7909V17.344C81.0389 15.648 82.7989 14.592 85.0389 14.592C88.4629 14.592 90.8309 16.832 90.8309 20.96V32H86.4149V22.464C86.4149 19.936 85.4229 18.528 83.4069 18.528C81.6469 18.528 80.1429 19.936 80.1429 22.688ZM93.5437 23.456C93.5437 18.4 96.5197 14.592 101.128 14.592C103.176 14.592 104.904 15.488 106.184 17.12V9.024H110.6V32H106.536V29.536C105.192 31.328 103.336 32.32 101.128 32.32C96.5197 32.32 93.5437 28.448 93.5437 23.456ZM98.1197 23.456C98.1197 26.656 99.9437 28.352 102.12 28.352C104.328 28.352 106.152 26.624 106.152 23.392C106.152 20.16 104.296 18.528 102.12 18.528C99.9437 18.528 98.1197 20.192 98.1197 23.456ZM124.97 24.8V14.912H129.386V32H125.322V29.76C124.394 31.264 122.506 32.32 120.33 32.32C116.906 32.32 114.41 30.24 114.41 25.792V14.912H118.858V24.928C118.858 27.328 120.042 28.384 121.834 28.384C123.434 28.384 124.97 27.104 124.97 24.8ZM147.814 26.528C147.814 30.112 145.094 32.32 140.23 32.32C135.366 32.32 132.646 29.984 132.294 26.176H136.55C136.582 27.936 138.086 29.056 140.294 29.056C142.022 29.056 143.334 28.512 143.334 27.296C143.334 26.208 142.63 25.76 140.998 25.44L137.926 24.864C134.854 24.32 132.998 22.624 132.998 19.968C132.998 16.8 135.718 14.592 139.974 14.592C144.262 14.592 147.206 16.864 147.526 20.544H143.27C143.11 18.88 141.862 17.856 139.974 17.856C138.342 17.856 137.254 18.464 137.254 19.552C137.254 20.576 137.958 20.992 139.494 21.28L142.79 21.888C146.118 22.528 147.814 24.064 147.814 26.528ZM161.131 27.68V31.552C160.043 32.096 159.019 32.32 157.707 32.32C154.187 32.32 151.979 30.304 151.979 26.464V18.72H148.523V14.912H151.979V9.856H156.395V14.912H161.291V18.72H156.395V25.44C156.395 27.424 157.291 28.224 158.891 28.224C159.723 28.224 160.491 28.032 161.131 27.68ZM168.455 23.712V32H164.007V14.912H168.103V18.208C169.351 16.032 172.007 14.72 174.759 14.72V19.328C170.983 19.04 168.455 19.936 168.455 23.712ZM182.222 10.944C182.222 12.448 181.006 13.568 179.246 13.568C177.518 13.568 176.302 12.448 176.302 10.944C176.302 9.376 177.518 8.256 179.246 8.256C181.006 8.256 182.222 9.376 182.222 10.944ZM181.518 32H177.07V14.912H181.518V32ZM195.652 32V29.888C194.532 31.488 192.836 32.32 190.5 32.32C186.948 32.32 184.58 30.24 184.58 27.04C184.58 23.712 187.268 21.92 192.26 21.92C193.22 21.92 194.052 21.984 195.108 22.112V21.088C195.108 19.168 194.02 18.048 192.164 18.048C190.244 18.048 189.092 19.168 188.932 21.088H184.932C185.188 17.152 188.036 14.592 192.164 14.592C196.644 14.592 199.268 17.056 199.268 21.248V32H195.652ZM188.772 26.912C188.772 28.352 189.796 29.248 191.46 29.248C193.732 29.248 195.108 28 195.108 26.016V24.8C194.052 24.64 193.316 24.576 192.548 24.576C190.02 24.576 188.772 25.376 188.772 26.912Z" fill="#292929"/>
<path d="M218.153 9.22C225.038 9.22 229.898 13.855 229.898 19.3C229.898 23.035 228.818 25.465 225.893 28.93L216.758 40H209.693L218.423 29.335C217.883 29.515 217.388 29.56 216.893 29.56C210.683 29.56 206.363 25.465 206.363 19.705C206.363 13.855 211.178 9.22 218.153 9.22ZM218.108 14.44C215.228 14.44 212.843 16.24 212.843 19.48C212.843 22.945 215.228 24.655 218.108 24.655C220.898 24.655 223.373 23.08 223.373 19.525C223.373 16.24 220.898 14.44 218.108 14.44Z" fill="white"/>
<path d="M66.2164 55H65.0064V47.102H66.2164V55ZM68.9513 51.711V55H67.8403V49.17H68.8743V50.138C69.2703 49.489 69.9303 49.06 70.7333 49.06C71.9323 49.06 72.7243 49.83 72.7243 51.227V55H71.6133V51.601C71.6133 50.6 71.1733 50.039 70.3483 50.039C69.5893 50.039 68.9513 50.677 68.9513 51.711ZM73.7817 52.085C73.7817 50.314 74.7937 49.06 76.3667 49.06C77.1477 49.06 77.8297 49.456 78.2367 50.171V47.102H79.3477V55H78.3137V53.955C77.8957 54.692 77.1917 55.11 76.3667 55.11C74.7937 55.11 73.7817 53.834 73.7817 52.085ZM74.9367 52.085C74.9367 53.383 75.6187 54.12 76.5867 54.12C77.5327 54.12 78.2367 53.35 78.2367 52.063C78.2367 50.754 77.5107 50.039 76.5867 50.039C75.6187 50.039 74.9367 50.765 74.9367 52.085ZM84.5331 52.602V49.17H85.6441V55H84.6101V54.076C84.3021 54.681 83.6201 55.11 82.8281 55.11C81.6511 55.11 80.8371 54.417 80.8371 52.921V49.17H81.9481V52.701C81.9481 53.713 82.4541 54.131 83.1801 54.131C83.9281 54.131 84.5331 53.515 84.5331 52.602ZM91.807 53.262C91.807 54.406 90.916 55.11 89.365 55.11C87.825 55.11 86.912 54.351 86.802 53.097H87.869C87.913 53.823 88.496 54.274 89.387 54.274C90.168 54.274 90.685 53.999 90.685 53.449C90.685 52.965 90.388 52.756 89.662 52.613L88.716 52.437C87.638 52.228 87.033 51.678 87.033 50.798C87.033 49.775 87.924 49.06 89.277 49.06C90.674 49.06 91.62 49.808 91.719 51.007H90.652C90.586 50.303 90.069 49.896 89.288 49.896C88.584 49.896 88.111 50.193 88.111 50.699C88.111 51.172 88.408 51.392 89.112 51.524L90.102 51.711C91.257 51.92 91.807 52.426 91.807 53.262ZM96.2338 53.922V54.901C95.8928 55.055 95.5958 55.11 95.2438 55.11C94.1658 55.11 93.4178 54.527 93.4178 53.24V50.116H92.1308V49.17H93.4178V47.443H94.5288V49.17H96.2888V50.116H94.5288V52.987C94.5288 53.79 94.9138 54.076 95.5078 54.076C95.7718 54.076 96.0028 54.032 96.2338 53.922ZM98.4601 52.019V55H97.3491V49.17H98.3831V50.402C98.7901 49.599 99.6701 49.093 100.627 49.093V50.248C99.3731 50.182 98.4601 50.732 98.4601 52.019ZM102.859 47.817C102.859 48.235 102.529 48.554 102.056 48.554C101.583 48.554 101.242 48.235 101.242 47.817C101.242 47.388 101.583 47.08 102.056 47.08C102.529 47.08 102.859 47.388 102.859 47.817ZM102.617 55H101.506V49.17H102.617V55ZM107.691 55V54.098C107.328 54.747 106.679 55.11 105.821 55.11C104.611 55.11 103.819 54.417 103.819 53.35C103.819 52.206 104.732 51.612 106.47 51.612C106.811 51.612 107.086 51.623 107.559 51.678V51.249C107.559 50.413 107.108 49.94 106.338 49.94C105.524 49.94 105.029 50.424 104.996 51.238H103.984C104.039 49.929 104.974 49.06 106.338 49.06C107.779 49.06 108.615 49.874 108.615 51.26V55H107.691ZM104.875 53.317C104.875 53.922 105.326 54.318 106.041 54.318C106.976 54.318 107.559 53.735 107.559 52.844V52.371C107.13 52.316 106.822 52.305 106.536 52.305C105.425 52.305 104.875 52.635 104.875 53.317ZM111.222 55H110.1V47.102H111.222V55ZM117.538 50.765L119.298 52.745C119.43 52.36 119.507 51.887 119.529 51.381H120.552C120.53 52.118 120.31 52.888 119.958 53.482L121.311 55H119.925L119.298 54.296C118.704 54.835 118.011 55.11 117.285 55.11C115.701 55.11 114.689 54.186 114.689 52.745C114.689 51.854 115.261 51.139 116.13 50.721C115.789 50.259 115.624 49.852 115.624 49.324C115.624 48.246 116.537 47.454 117.758 47.454C118.99 47.454 119.848 48.224 119.87 49.357H118.825C118.77 48.708 118.297 48.345 117.758 48.345C117.186 48.345 116.757 48.763 116.757 49.335C116.757 49.83 117.021 50.171 117.538 50.765ZM115.756 52.679C115.756 53.46 116.273 54.197 117.373 54.197C117.879 54.197 118.363 53.999 118.726 53.658L116.702 51.381C116.141 51.612 115.756 52.074 115.756 52.679ZM130.061 52.085C130.061 53.834 129.049 55.11 127.476 55.11C126.651 55.11 125.947 54.692 125.529 53.955V55H124.495V47.102H125.606V50.171C126.013 49.456 126.684 49.06 127.476 49.06C129.038 49.06 130.061 50.314 130.061 52.085ZM128.906 52.085C128.906 50.765 128.213 50.039 127.256 50.039C126.332 50.039 125.606 50.754 125.606 52.063C125.606 53.35 126.31 54.12 127.256 54.12C128.213 54.12 128.906 53.383 128.906 52.085ZM134.828 52.602V49.17H135.939V55H134.905V54.076C134.597 54.681 133.915 55.11 133.123 55.11C131.946 55.11 131.132 54.417 131.132 52.921V49.17H132.243V52.701C132.243 53.713 132.749 54.131 133.475 54.131C134.223 54.131 134.828 53.515 134.828 52.602ZM142.102 53.262C142.102 54.406 141.211 55.11 139.66 55.11C138.12 55.11 137.207 54.351 137.097 53.097H138.164C138.208 53.823 138.791 54.274 139.682 54.274C140.463 54.274 140.98 53.999 140.98 53.449C140.98 52.965 140.683 52.756 139.957 52.613L139.011 52.437C137.933 52.228 137.328 51.678 137.328 50.798C137.328 49.775 138.219 49.06 139.572 49.06C140.969 49.06 141.915 49.808 142.014 51.007H140.947C140.881 50.303 140.364 49.896 139.583 49.896C138.879 49.896 138.406 50.193 138.406 50.699C138.406 51.172 138.703 51.392 139.407 51.524L140.397 51.711C141.552 51.92 142.102 52.426 142.102 53.262ZM144.668 47.817C144.668 48.235 144.338 48.554 143.865 48.554C143.392 48.554 143.051 48.235 143.051 47.817C143.051 47.388 143.392 47.08 143.865 47.08C144.338 47.08 144.668 47.388 144.668 47.817ZM144.426 55H143.315V49.17H144.426V55ZM147.079 51.711V55H145.968V49.17H147.002V50.138C147.398 49.489 148.058 49.06 148.861 49.06C150.06 49.06 150.852 49.83 150.852 51.227V55H149.741V51.601C149.741 50.6 149.301 50.039 148.476 50.039C147.717 50.039 147.079 50.677 147.079 51.711ZM154.726 55.11C153.043 55.11 151.91 53.889 151.91 52.052C151.91 50.325 153.087 49.06 154.693 49.06C156.431 49.06 157.586 50.468 157.388 52.36H153.043C153.131 53.548 153.725 54.241 154.704 54.241C155.529 54.241 156.101 53.79 156.288 53.031H157.388C157.102 54.329 156.101 55.11 154.726 55.11ZM154.671 49.896C153.78 49.896 153.175 50.534 153.054 51.623H156.211C156.156 50.545 155.573 49.896 154.671 49.896ZM163.189 53.262C163.189 54.406 162.298 55.11 160.747 55.11C159.207 55.11 158.294 54.351 158.184 53.097H159.251C159.295 53.823 159.878 54.274 160.769 54.274C161.55 54.274 162.067 53.999 162.067 53.449C162.067 52.965 161.77 52.756 161.044 52.613L160.098 52.437C159.02 52.228 158.415 51.678 158.415 50.798C158.415 49.775 159.306 49.06 160.659 49.06C162.056 49.06 163.002 49.808 163.101 51.007H162.034C161.968 50.303 161.451 49.896 160.67 49.896C159.966 49.896 159.493 50.193 159.493 50.699C159.493 51.172 159.79 51.392 160.494 51.524L161.484 51.711C162.639 51.92 163.189 52.426 163.189 53.262ZM169.022 53.262C169.022 54.406 168.131 55.11 166.58 55.11C165.04 55.11 164.127 54.351 164.017 53.097H165.084C165.128 53.823 165.711 54.274 166.602 54.274C167.383 54.274 167.9 53.999 167.9 53.449C167.9 52.965 167.603 52.756 166.877 52.613L165.931 52.437C164.853 52.228 164.248 51.678 164.248 50.798C164.248 49.775 165.139 49.06 166.492 49.06C167.889 49.06 168.835 49.808 168.934 51.007H167.867C167.801 50.303 167.284 49.896 166.503 49.896C165.799 49.896 165.326 50.193 165.326 50.699C165.326 51.172 165.623 51.392 166.327 51.524L167.317 51.711C168.472 51.92 169.022 52.426 169.022 53.262ZM177.154 53.262C177.154 54.406 176.263 55.11 174.712 55.11C173.172 55.11 172.259 54.351 172.149 53.097H173.216C173.26 53.823 173.843 54.274 174.734 54.274C175.515 54.274 176.032 53.999 176.032 53.449C176.032 52.965 175.735 52.756 175.009 52.613L174.063 52.437C172.985 52.228 172.38 51.678 172.38 50.798C172.38 49.775 173.271 49.06 174.624 49.06C176.021 49.06 176.967 49.808 177.066 51.007H175.999C175.933 50.303 175.416 49.896 174.635 49.896C173.931 49.896 173.458 50.193 173.458 50.699C173.458 51.172 173.755 51.392 174.459 51.524L175.449 51.711C176.604 51.92 177.154 52.426 177.154 53.262ZM180.809 55.11C179.159 55.11 177.949 53.812 177.949 52.085C177.949 50.358 179.159 49.06 180.809 49.06C182.459 49.06 183.669 50.358 183.669 52.085C183.669 53.812 182.459 55.11 180.809 55.11ZM180.809 54.131C181.766 54.131 182.525 53.361 182.525 52.085C182.525 50.809 181.766 50.05 180.809 50.05C179.852 50.05 179.104 50.809 179.104 52.085C179.104 53.361 179.852 54.131 180.809 54.131ZM185.923 55H184.801V47.102H185.923V55ZM191.106 52.602V49.17H192.217V55H191.183V54.076C190.875 54.681 190.193 55.11 189.401 55.11C188.224 55.11 187.41 54.417 187.41 52.921V49.17H188.521V52.701C188.521 53.713 189.027 54.131 189.753 54.131C190.501 54.131 191.106 53.515 191.106 52.602ZM197.049 53.922V54.901C196.708 55.055 196.411 55.11 196.059 55.11C194.981 55.11 194.233 54.527 194.233 53.24V50.116H192.946V49.17H194.233V47.443H195.344V49.17H197.104V50.116H195.344V52.987C195.344 53.79 195.729 54.076 196.323 54.076C196.587 54.076 196.818 54.032 197.049 53.922ZM199.518 47.817C199.518 48.235 199.188 48.554 198.715 48.554C198.242 48.554 197.901 48.235 197.901 47.817C197.901 47.388 198.242 47.08 198.715 47.08C199.188 47.08 199.518 47.388 199.518 47.817ZM199.276 55H198.165V49.17H199.276V55ZM203.26 55.11C201.61 55.11 200.4 53.812 200.4 52.085C200.4 50.358 201.61 49.06 203.26 49.06C204.91 49.06 206.12 50.358 206.12 52.085C206.12 53.812 204.91 55.11 203.26 55.11ZM203.26 54.131C204.217 54.131 204.976 53.361 204.976 52.085C204.976 50.809 204.217 50.05 203.26 50.05C202.303 50.05 201.555 50.809 201.555 52.085C201.555 53.361 202.303 54.131 203.26 54.131ZM208.363 51.711V55H207.252V49.17H208.286V50.138C208.682 49.489 209.342 49.06 210.145 49.06C211.344 49.06 212.136 49.83 212.136 51.227V55H211.025V51.601C211.025 50.6 210.585 50.039 209.76 50.039C209.001 50.039 208.363 50.677 208.363 51.711ZM218.232 53.262C218.232 54.406 217.341 55.11 215.79 55.11C214.25 55.11 213.337 54.351 213.227 53.097H214.294C214.338 53.823 214.921 54.274 215.812 54.274C216.593 54.274 217.11 53.999 217.11 53.449C217.11 52.965 216.813 52.756 216.087 52.613L215.141 52.437C214.063 52.228 213.458 51.678 213.458 50.798C213.458 49.775 214.349 49.06 215.702 49.06C217.099 49.06 218.045 49.808 218.144 51.007H217.077C217.011 50.303 216.494 49.896 215.713 49.896C215.009 49.896 214.536 50.193 214.536 50.699C214.536 51.172 214.833 51.392 215.537 51.524L216.527 51.711C217.682 51.92 218.232 52.426 218.232 53.262Z" fill="#292929"/>
</svg>
