<svg width="221" height="56" viewBox="0 0 221 56" fill="none" xmlns="http://www.w3.org/2000/svg">
<path d="M48.339 26.0126H54.148C54.148 21.9514 53.341 18.0787 51.8892 14.5558L46.6986 16.6806C45.6803 14.0387 44.1809 11.616 42.3388 9.50878L52.3465 3.36764L43.6867 0.463135L41.8957 1.81364C41.8957 1.81364 41.8904 1.81012 41.8877 1.80835C41.8869 1.80923 41.886 1.81012 41.8842 1.811C41.8825 1.81188 41.8798 1.81276 41.8772 1.81364L35.7625 6.42632C35.7625 6.42632 35.7589 6.43073 35.7581 6.43249C35.7563 6.43513 35.7554 6.43777 35.7537 6.44042C35.7537 6.44042 35.7554 6.4413 35.7563 6.44218L33.6332 8.04287C33.6253 8.03847 33.6182 8.03495 33.6103 8.03054C33.5019 8.1204 33.3804 8.19352 33.2509 8.24814C33.1839 8.30452 33.1126 8.35385 33.0368 8.39702C32.9399 8.48335 32.8306 8.55647 32.7144 8.61461C32.6571 8.66835 32.5972 8.71945 32.5311 8.76262C32.4924 8.79962 32.4518 8.83485 32.4087 8.86657C32.3461 8.9529 32.2748 9.03307 32.1937 9.10443C32.1999 9.10707 32.206 9.11059 32.2122 9.11324L16.0388 21.3065L27.1732 27.2768L13.7544 40.5625C13.7544 40.5625 13.7509 40.5598 13.7492 40.5589C13.7342 40.5748 13.7157 40.588 13.6963 40.5995C13.6822 40.6136 13.6655 40.6268 13.647 40.6365C13.6434 40.6382 13.6408 40.6409 13.6382 40.6435C13.6364 40.6444 13.6346 40.6453 13.6329 40.6462C13.632 40.6462 13.6311 40.6462 13.6302 40.647C13.6223 40.6576 13.6135 40.6673 13.6073 40.6735C13.5738 40.7034 13.5571 40.7149 13.5351 40.7254C13.4857 40.7686 13.4338 40.81 13.3783 40.8461C13.2937 40.9448 13.195 41.0311 13.0867 41.1042C13.0832 41.1078 13.0787 41.1104 13.0752 41.1131C13.0664 41.1236 13.0585 41.1342 13.0497 41.1448C12.9827 41.2558 12.8999 41.3562 12.8039 41.4452C12.7405 41.5386 12.6656 41.624 12.581 41.6998C12.5854 41.7033 12.5898 41.7068 12.5942 41.7095L10.9266 43.3604L5.0735 49.1324C5.06998 49.1386 5.06558 49.1447 5.06117 49.1509C5.06469 49.1535 5.06734 49.1562 5.06998 49.1588L0.0908203 54.0904L5.82936 49.7632C7.8767 51.3348 10.1346 52.6483 12.5431 53.6605L14.9904 47.8515C17.8148 49.0082 20.9069 49.6266 24.1612 49.6266V56.0003C28.3298 56.0003 32.31 55.1396 35.914 53.6068L33.4394 47.7977C36.1827 46.6411 38.6573 45.028 40.7548 43.0371L45.1385 47.4207C48.124 44.4889 50.4903 40.9659 52.0504 37.0122L46.4564 34.8072C47.6131 32.0912 48.2579 29.1056 48.339 26.0126ZM36.0752 26.9543L25.613 19.7737L37.1561 12.6899C40.4121 15.9953 42.4251 20.5304 42.4251 25.529C42.4251 35.615 34.2314 43.8211 24.1603 43.8211C21.2919 43.8211 18.5759 43.1569 16.1568 41.9746L36.0743 26.9543H36.0752ZM24.1612 47.7167C19.9766 47.7167 16.0669 46.5644 12.7264 44.562L14.7341 43.0476C17.5417 44.5646 20.7527 45.4262 24.1612 45.4262C29.4504 45.4262 34.4349 43.3524 38.1965 39.5864C41.96 35.8194 44.032 30.827 44.032 25.5281C44.032 20.2291 42.0895 15.5548 38.5507 11.8327L40.6738 10.5298C44.2346 14.4791 46.4026 19.7111 46.4026 25.447C46.4026 37.7381 36.4514 47.7158 24.1612 47.7158V47.7167Z" fill="#292929"/>
<path d="M43.5041 0L52.7603 3.20622L25.9173 19.8674L36.5619 26.843L-7.62939e-05 54.1488L26.8429 27.3058L15.7355 21.2893L43.5041 0Z" fill="#13AB0E"/>
<path d="M71.3799 32H66.5159V9.024H81.364V13.248H71.3799V19.04H79.7959V23.232H71.3799V32ZM91.3089 32.32C86.3489 32.32 82.6369 28.416 82.6369 23.456C82.6369 18.464 86.3489 14.592 91.3089 14.592C96.2689 14.592 99.9809 18.464 99.9809 23.456C99.9809 28.416 96.2689 32.32 91.3089 32.32ZM91.3089 28.384C93.5169 28.384 95.405 26.624 95.405 23.456C95.405 20.288 93.5169 18.56 91.3089 18.56C89.1009 18.56 87.2129 20.288 87.2129 23.456C87.2129 26.624 89.1009 28.384 91.3089 28.384ZM113.219 24.8V14.912H117.635V32H113.571V29.76C112.643 31.264 110.755 32.32 108.579 32.32C105.155 32.32 102.659 30.24 102.659 25.792V14.912H107.107V24.928C107.107 27.328 108.291 28.384 110.083 28.384C111.683 28.384 113.219 27.104 113.219 24.8ZM126.08 22.688V32H121.632V14.912H125.728V17.344C126.976 15.648 128.736 14.592 130.976 14.592C134.4 14.592 136.768 16.832 136.768 20.96V32H132.352V22.464C132.352 19.936 131.36 18.528 129.344 18.528C127.584 18.528 126.08 19.936 126.08 22.688ZM139.481 23.456C139.481 18.4 142.457 14.592 147.065 14.592C149.113 14.592 150.841 15.488 152.121 17.12V9.024H156.537V32H152.473V29.536C151.129 31.328 149.273 32.32 147.065 32.32C142.457 32.32 139.481 28.448 139.481 23.456ZM144.057 23.456C144.057 26.656 145.881 28.352 148.057 28.352C150.265 28.352 152.089 26.624 152.089 23.392C152.089 20.16 150.233 18.528 148.057 18.528C145.881 18.528 144.057 20.192 144.057 23.456ZM164.955 23.712V32H160.507V14.912H164.603V18.208C165.851 16.032 168.507 14.72 171.259 14.72V19.328C167.483 19.04 164.955 19.936 164.955 23.712ZM189.274 14.912L180.954 38.176H176.122L178.554 31.808L171.834 14.912H176.634L180.922 26.624L184.826 14.912H189.274Z" fill="#292929"/>
<path d="M207.153 9.22C214.038 9.22 218.898 13.855 218.898 19.3C218.898 23.035 217.818 25.465 214.893 28.93L205.758 40H198.693L207.423 29.335C206.883 29.515 206.388 29.56 205.893 29.56C199.683 29.56 195.363 25.465 195.363 19.705C195.363 13.855 200.178 9.22 207.153 9.22ZM207.108 14.44C204.228 14.44 201.843 16.24 201.843 19.48C201.843 22.945 204.228 24.655 207.108 24.655C209.898 24.655 212.373 23.08 212.373 19.525C212.373 16.24 209.898 14.44 207.108 14.44Z" fill="#13AB0E"/>
<path d="M67.2159 55H66.0059V47.102H67.2159V55ZM69.9508 51.711V55H68.8398V49.17H69.8738V50.138C70.2698 49.489 70.9298 49.06 71.7328 49.06C72.9318 49.06 73.7238 49.83 73.7238 51.227V55H72.6128V51.601C72.6128 50.6 72.1728 50.039 71.3478 50.039C70.5888 50.039 69.9508 50.677 69.9508 51.711ZM74.7812 52.085C74.7812 50.314 75.7932 49.06 77.3662 49.06C78.1472 49.06 78.8292 49.456 79.2362 50.171V47.102H80.3472V55H79.3132V53.955C78.8952 54.692 78.1912 55.11 77.3662 55.11C75.7932 55.11 74.7812 53.834 74.7812 52.085ZM75.9362 52.085C75.9362 53.383 76.6182 54.12 77.5862 54.12C78.5322 54.12 79.2362 53.35 79.2362 52.063C79.2362 50.754 78.5102 50.039 77.5862 50.039C76.6182 50.039 75.9362 50.765 75.9362 52.085ZM85.5326 52.602V49.17H86.6436V55H85.6096V54.076C85.3016 54.681 84.6196 55.11 83.8276 55.11C82.6506 55.11 81.8366 54.417 81.8366 52.921V49.17H82.9476V52.701C82.9476 53.713 83.4536 54.131 84.1796 54.131C84.9276 54.131 85.5326 53.515 85.5326 52.602ZM92.8065 53.262C92.8065 54.406 91.9155 55.11 90.3645 55.11C88.8245 55.11 87.9115 54.351 87.8015 53.097H88.8685C88.9125 53.823 89.4955 54.274 90.3865 54.274C91.1675 54.274 91.6845 53.999 91.6845 53.449C91.6845 52.965 91.3875 52.756 90.6615 52.613L89.7155 52.437C88.6375 52.228 88.0325 51.678 88.0325 50.798C88.0325 49.775 88.9235 49.06 90.2765 49.06C91.6735 49.06 92.6195 49.808 92.7185 51.007H91.6515C91.5855 50.303 91.0685 49.896 90.2875 49.896C89.5835 49.896 89.1105 50.193 89.1105 50.699C89.1105 51.172 89.4075 51.392 90.1115 51.524L91.1015 51.711C92.2565 51.92 92.8065 52.426 92.8065 53.262ZM97.2333 53.922V54.901C96.8923 55.055 96.5953 55.11 96.2433 55.11C95.1653 55.11 94.4173 54.527 94.4173 53.24V50.116H93.1303V49.17H94.4173V47.443H95.5283V49.17H97.2883V50.116H95.5283V52.987C95.5283 53.79 95.9133 54.076 96.5073 54.076C96.7713 54.076 97.0023 54.032 97.2333 53.922ZM99.4596 52.019V55H98.3486V49.17H99.3826V50.402C99.7896 49.599 100.67 49.093 101.627 49.093V50.248C100.373 50.182 99.4596 50.732 99.4596 52.019ZM103.859 47.817C103.859 48.235 103.529 48.554 103.056 48.554C102.583 48.554 102.242 48.235 102.242 47.817C102.242 47.388 102.583 47.08 103.056 47.08C103.529 47.08 103.859 47.388 103.859 47.817ZM103.617 55H102.506V49.17H103.617V55ZM108.69 55V54.098C108.327 54.747 107.678 55.11 106.82 55.11C105.61 55.11 104.818 54.417 104.818 53.35C104.818 52.206 105.731 51.612 107.469 51.612C107.81 51.612 108.085 51.623 108.558 51.678V51.249C108.558 50.413 108.107 49.94 107.337 49.94C106.523 49.94 106.028 50.424 105.995 51.238H104.983C105.038 49.929 105.973 49.06 107.337 49.06C108.778 49.06 109.614 49.874 109.614 51.26V55H108.69ZM105.874 53.317C105.874 53.922 106.325 54.318 107.04 54.318C107.975 54.318 108.558 53.735 108.558 52.844V52.371C108.129 52.316 107.821 52.305 107.535 52.305C106.424 52.305 105.874 52.635 105.874 53.317ZM112.222 55H111.1V47.102H112.222V55ZM118.537 50.765L120.297 52.745C120.429 52.36 120.506 51.887 120.528 51.381H121.551C121.529 52.118 121.309 52.888 120.957 53.482L122.31 55H120.924L120.297 54.296C119.703 54.835 119.01 55.11 118.284 55.11C116.7 55.11 115.688 54.186 115.688 52.745C115.688 51.854 116.26 51.139 117.129 50.721C116.788 50.259 116.623 49.852 116.623 49.324C116.623 48.246 117.536 47.454 118.757 47.454C119.989 47.454 120.847 48.224 120.869 49.357H119.824C119.769 48.708 119.296 48.345 118.757 48.345C118.185 48.345 117.756 48.763 117.756 49.335C117.756 49.83 118.02 50.171 118.537 50.765ZM116.755 52.679C116.755 53.46 117.272 54.197 118.372 54.197C118.878 54.197 119.362 53.999 119.725 53.658L117.701 51.381C117.14 51.612 116.755 52.074 116.755 52.679ZM131.06 52.085C131.06 53.834 130.048 55.11 128.475 55.11C127.65 55.11 126.946 54.692 126.528 53.955V55H125.494V47.102H126.605V50.171C127.012 49.456 127.683 49.06 128.475 49.06C130.037 49.06 131.06 50.314 131.06 52.085ZM129.905 52.085C129.905 50.765 129.212 50.039 128.255 50.039C127.331 50.039 126.605 50.754 126.605 52.063C126.605 53.35 127.309 54.12 128.255 54.12C129.212 54.12 129.905 53.383 129.905 52.085ZM135.828 52.602V49.17H136.939V55H135.905V54.076C135.597 54.681 134.915 55.11 134.123 55.11C132.946 55.11 132.132 54.417 132.132 52.921V49.17H133.243V52.701C133.243 53.713 133.749 54.131 134.475 54.131C135.223 54.131 135.828 53.515 135.828 52.602ZM143.101 53.262C143.101 54.406 142.21 55.11 140.659 55.11C139.119 55.11 138.206 54.351 138.096 53.097H139.163C139.207 53.823 139.79 54.274 140.681 54.274C141.462 54.274 141.979 53.999 141.979 53.449C141.979 52.965 141.682 52.756 140.956 52.613L140.01 52.437C138.932 52.228 138.327 51.678 138.327 50.798C138.327 49.775 139.218 49.06 140.571 49.06C141.968 49.06 142.914 49.808 143.013 51.007H141.946C141.88 50.303 141.363 49.896 140.582 49.896C139.878 49.896 139.405 50.193 139.405 50.699C139.405 51.172 139.702 51.392 140.406 51.524L141.396 51.711C142.551 51.92 143.101 52.426 143.101 53.262ZM145.667 47.817C145.667 48.235 145.337 48.554 144.864 48.554C144.391 48.554 144.05 48.235 144.05 47.817C144.05 47.388 144.391 47.08 144.864 47.08C145.337 47.08 145.667 47.388 145.667 47.817ZM145.425 55H144.314V49.17H145.425V55ZM148.079 51.711V55H146.968V49.17H148.002V50.138C148.398 49.489 149.058 49.06 149.861 49.06C151.06 49.06 151.852 49.83 151.852 51.227V55H150.741V51.601C150.741 50.6 150.301 50.039 149.476 50.039C148.717 50.039 148.079 50.677 148.079 51.711ZM155.725 55.11C154.042 55.11 152.909 53.889 152.909 52.052C152.909 50.325 154.086 49.06 155.692 49.06C157.43 49.06 158.585 50.468 158.387 52.36H154.042C154.13 53.548 154.724 54.241 155.703 54.241C156.528 54.241 157.1 53.79 157.287 53.031H158.387C158.101 54.329 157.1 55.11 155.725 55.11ZM155.67 49.896C154.779 49.896 154.174 50.534 154.053 51.623H157.21C157.155 50.545 156.572 49.896 155.67 49.896ZM164.188 53.262C164.188 54.406 163.297 55.11 161.746 55.11C160.206 55.11 159.293 54.351 159.183 53.097H160.25C160.294 53.823 160.877 54.274 161.768 54.274C162.549 54.274 163.066 53.999 163.066 53.449C163.066 52.965 162.769 52.756 162.043 52.613L161.097 52.437C160.019 52.228 159.414 51.678 159.414 50.798C159.414 49.775 160.305 49.06 161.658 49.06C163.055 49.06 164.001 49.808 164.1 51.007H163.033C162.967 50.303 162.45 49.896 161.669 49.896C160.965 49.896 160.492 50.193 160.492 50.699C160.492 51.172 160.789 51.392 161.493 51.524L162.483 51.711C163.638 51.92 164.188 52.426 164.188 53.262ZM170.021 53.262C170.021 54.406 169.13 55.11 167.579 55.11C166.039 55.11 165.126 54.351 165.016 53.097H166.083C166.127 53.823 166.71 54.274 167.601 54.274C168.382 54.274 168.899 53.999 168.899 53.449C168.899 52.965 168.602 52.756 167.876 52.613L166.93 52.437C165.852 52.228 165.247 51.678 165.247 50.798C165.247 49.775 166.138 49.06 167.491 49.06C168.888 49.06 169.834 49.808 169.933 51.007H168.866C168.8 50.303 168.283 49.896 167.502 49.896C166.798 49.896 166.325 50.193 166.325 50.699C166.325 51.172 166.622 51.392 167.326 51.524L168.316 51.711C169.471 51.92 170.021 52.426 170.021 53.262ZM178.153 53.262C178.153 54.406 177.262 55.11 175.711 55.11C174.171 55.11 173.258 54.351 173.148 53.097H174.215C174.259 53.823 174.842 54.274 175.733 54.274C176.514 54.274 177.031 53.999 177.031 53.449C177.031 52.965 176.734 52.756 176.008 52.613L175.062 52.437C173.984 52.228 173.379 51.678 173.379 50.798C173.379 49.775 174.27 49.06 175.623 49.06C177.02 49.06 177.966 49.808 178.065 51.007H176.998C176.932 50.303 176.415 49.896 175.634 49.896C174.93 49.896 174.457 50.193 174.457 50.699C174.457 51.172 174.754 51.392 175.458 51.524L176.448 51.711C177.603 51.92 178.153 52.426 178.153 53.262ZM181.808 55.11C180.158 55.11 178.948 53.812 178.948 52.085C178.948 50.358 180.158 49.06 181.808 49.06C183.458 49.06 184.668 50.358 184.668 52.085C184.668 53.812 183.458 55.11 181.808 55.11ZM181.808 54.131C182.765 54.131 183.524 53.361 183.524 52.085C183.524 50.809 182.765 50.05 181.808 50.05C180.851 50.05 180.103 50.809 180.103 52.085C180.103 53.361 180.851 54.131 181.808 54.131ZM186.923 55H185.801V47.102H186.923V55ZM192.106 52.602V49.17H193.217V55H192.183V54.076C191.875 54.681 191.193 55.11 190.401 55.11C189.224 55.11 188.41 54.417 188.41 52.921V49.17H189.521V52.701C189.521 53.713 190.027 54.131 190.753 54.131C191.501 54.131 192.106 53.515 192.106 52.602ZM198.049 53.922V54.901C197.708 55.055 197.411 55.11 197.059 55.11C195.981 55.11 195.233 54.527 195.233 53.24V50.116H193.946V49.17H195.233V47.443H196.344V49.17H198.104V50.116H196.344V52.987C196.344 53.79 196.729 54.076 197.323 54.076C197.587 54.076 197.818 54.032 198.049 53.922ZM200.517 47.817C200.517 48.235 200.187 48.554 199.714 48.554C199.241 48.554 198.9 48.235 198.9 47.817C198.9 47.388 199.241 47.08 199.714 47.08C200.187 47.08 200.517 47.388 200.517 47.817ZM200.275 55H199.164V49.17H200.275V55ZM204.259 55.11C202.609 55.11 201.399 53.812 201.399 52.085C201.399 50.358 202.609 49.06 204.259 49.06C205.909 49.06 207.119 50.358 207.119 52.085C207.119 53.812 205.909 55.11 204.259 55.11ZM204.259 54.131C205.216 54.131 205.975 53.361 205.975 52.085C205.975 50.809 205.216 50.05 204.259 50.05C203.302 50.05 202.554 50.809 202.554 52.085C202.554 53.361 203.302 54.131 204.259 54.131ZM209.363 51.711V55H208.252V49.17H209.286V50.138C209.682 49.489 210.342 49.06 211.145 49.06C212.344 49.06 213.136 49.83 213.136 51.227V55H212.025V51.601C212.025 50.6 211.585 50.039 210.76 50.039C210.001 50.039 209.363 50.677 209.363 51.711ZM219.231 53.262C219.231 54.406 218.34 55.11 216.789 55.11C215.249 55.11 214.336 54.351 214.226 53.097H215.293C215.337 53.823 215.92 54.274 216.811 54.274C217.592 54.274 218.109 53.999 218.109 53.449C218.109 52.965 217.812 52.756 217.086 52.613L216.14 52.437C215.062 52.228 214.457 51.678 214.457 50.798C214.457 49.775 215.348 49.06 216.701 49.06C218.098 49.06 219.044 49.808 219.143 51.007H218.076C218.01 50.303 217.493 49.896 216.712 49.896C216.008 49.896 215.535 50.193 215.535 50.699C215.535 51.172 215.832 51.392 216.536 51.524L217.526 51.711C218.681 51.92 219.231 52.426 219.231 53.262Z" fill="#292929"/>
</svg>
