<svg width="232" height="56" viewBox="0 0 232 56" fill="none" xmlns="http://www.w3.org/2000/svg">
<path d="M48.339 26.0126H54.148C54.148 21.9514 53.341 18.0787 51.8892 14.5558L46.6986 16.6806C45.6803 14.0387 44.1809 11.616 42.3388 9.50878L52.3465 3.36764L43.6867 0.463135L41.8957 1.81364C41.8957 1.81364 41.8904 1.81012 41.8877 1.80835C41.8869 1.80923 41.886 1.81012 41.8842 1.811C41.8825 1.81188 41.8798 1.81276 41.8772 1.81364L35.7625 6.42632C35.7625 6.42632 35.7589 6.43073 35.7581 6.43249C35.7563 6.43513 35.7554 6.43777 35.7537 6.44042C35.7537 6.44042 35.7554 6.4413 35.7563 6.44218L33.6332 8.04287C33.6253 8.03847 33.6182 8.03495 33.6103 8.03054C33.5019 8.1204 33.3804 8.19352 33.2509 8.24814C33.1839 8.30452 33.1126 8.35385 33.0368 8.39702C32.9399 8.48335 32.8306 8.55647 32.7144 8.61461C32.6571 8.66835 32.5972 8.71945 32.5311 8.76262C32.4924 8.79962 32.4518 8.83485 32.4087 8.86657C32.3461 8.9529 32.2748 9.03307 32.1937 9.10443C32.1999 9.10707 32.206 9.11059 32.2122 9.11324L16.0388 21.3065L27.1732 27.2768L13.7544 40.5625C13.7544 40.5625 13.7509 40.5598 13.7492 40.5589C13.7342 40.5748 13.7157 40.588 13.6963 40.5995C13.6822 40.6136 13.6655 40.6268 13.647 40.6365C13.6434 40.6382 13.6408 40.6409 13.6382 40.6435C13.6364 40.6444 13.6346 40.6453 13.6329 40.6462C13.632 40.6462 13.6311 40.6462 13.6302 40.647C13.6223 40.6576 13.6135 40.6673 13.6073 40.6735C13.5738 40.7034 13.5571 40.7149 13.5351 40.7254C13.4857 40.7686 13.4338 40.81 13.3783 40.8461C13.2937 40.9448 13.195 41.0311 13.0867 41.1042C13.0832 41.1078 13.0787 41.1104 13.0752 41.1131C13.0664 41.1236 13.0585 41.1342 13.0497 41.1448C12.9827 41.2558 12.8999 41.3562 12.8039 41.4452C12.7405 41.5386 12.6656 41.624 12.581 41.6998C12.5854 41.7033 12.5898 41.7068 12.5942 41.7095L10.9266 43.3604L5.0735 49.1324C5.06998 49.1386 5.06558 49.1447 5.06117 49.1509C5.06469 49.1535 5.06734 49.1562 5.06998 49.1588L0.0908203 54.0904L5.82936 49.7632C7.8767 51.3348 10.1346 52.6483 12.5431 53.6605L14.9904 47.8515C17.8148 49.0082 20.9069 49.6266 24.1612 49.6266V56.0003C28.3298 56.0003 32.31 55.1396 35.914 53.6068L33.4394 47.7977C36.1827 46.6411 38.6573 45.028 40.7548 43.0371L45.1385 47.4207C48.124 44.4889 50.4903 40.9659 52.0504 37.0122L46.4564 34.8072C47.6131 32.0912 48.2579 29.1056 48.339 26.0126ZM36.0752 26.9543L25.613 19.7737L37.1561 12.6899C40.4121 15.9953 42.4251 20.5304 42.4251 25.529C42.4251 35.615 34.2314 43.8211 24.1603 43.8211C21.2919 43.8211 18.5759 43.1569 16.1568 41.9746L36.0743 26.9543H36.0752ZM24.1612 47.7167C19.9766 47.7167 16.0669 46.5644 12.7264 44.562L14.7341 43.0476C17.5417 44.5646 20.7527 45.4262 24.1612 45.4262C29.4504 45.4262 34.4349 43.3524 38.1965 39.5864C41.96 35.8194 44.032 30.827 44.032 25.5281C44.032 20.2291 42.0895 15.5548 38.5507 11.8327L40.6738 10.5298C44.2346 14.4791 46.4026 19.7111 46.4026 25.447C46.4026 37.7381 36.4514 47.7158 24.1612 47.7158V47.7167Z" fill="white"/>
<path d="M43.5041 0L52.7603 3.20622L25.9173 19.8674L36.5619 26.843L-7.62939e-05 54.1488L26.8429 27.3058L15.7355 21.2893L43.5041 0Z" fill="#FF6600"/>
<path d="M71.3799 32H66.5159V9.024H71.3799V32ZM80.1424 22.688V32H75.6944V14.912H79.7904V17.344C81.0384 15.648 82.7984 14.592 85.0384 14.592C88.4625 14.592 90.8305 16.832 90.8305 20.96V32H86.4144V22.464C86.4144 19.936 85.4225 18.528 83.4064 18.528C81.6464 18.528 80.1424 19.936 80.1424 22.688ZM93.5432 23.456C93.5432 18.4 96.5192 14.592 101.127 14.592C103.175 14.592 104.903 15.488 106.183 17.12V9.024H110.599V32H106.535V29.536C105.191 31.328 103.335 32.32 101.127 32.32C96.5192 32.32 93.5432 28.448 93.5432 23.456ZM98.1192 23.456C98.1192 26.656 99.9432 28.352 102.119 28.352C104.327 28.352 106.151 26.624 106.151 23.392C106.151 20.16 104.295 18.528 102.119 18.528C99.9432 18.528 98.1192 20.192 98.1192 23.456ZM124.969 24.8V14.912H129.385V32H125.321V29.76C124.393 31.264 122.505 32.32 120.329 32.32C116.905 32.32 114.409 30.24 114.409 25.792V14.912H118.857V24.928C118.857 27.328 120.041 28.384 121.833 28.384C123.433 28.384 124.969 27.104 124.969 24.8ZM147.814 26.528C147.814 30.112 145.094 32.32 140.23 32.32C135.366 32.32 132.646 29.984 132.294 26.176H136.55C136.582 27.936 138.086 29.056 140.294 29.056C142.022 29.056 143.334 28.512 143.334 27.296C143.334 26.208 142.63 25.76 140.998 25.44L137.926 24.864C134.854 24.32 132.998 22.624 132.998 19.968C132.998 16.8 135.718 14.592 139.974 14.592C144.262 14.592 147.206 16.864 147.526 20.544H143.27C143.11 18.88 141.862 17.856 139.974 17.856C138.342 17.856 137.254 18.464 137.254 19.552C137.254 20.576 137.958 20.992 139.494 21.28L142.79 21.888C146.118 22.528 147.814 24.064 147.814 26.528ZM161.131 27.68V31.552C160.043 32.096 159.019 32.32 157.707 32.32C154.187 32.32 151.979 30.304 151.979 26.464V18.72H148.523V14.912H151.979V9.856H156.395V14.912H161.291V18.72H156.395V25.44C156.395 27.424 157.291 28.224 158.891 28.224C159.723 28.224 160.491 28.032 161.131 27.68ZM168.455 23.712V32H164.007V14.912H168.103V18.208C169.351 16.032 172.007 14.72 174.759 14.72V19.328C170.983 19.04 168.455 19.936 168.455 23.712ZM182.221 10.944C182.221 12.448 181.005 13.568 179.245 13.568C177.517 13.568 176.301 12.448 176.301 10.944C176.301 9.376 177.517 8.256 179.245 8.256C181.005 8.256 182.221 9.376 182.221 10.944ZM181.517 32H177.069V14.912H181.517V32ZM195.652 32V29.888C194.532 31.488 192.836 32.32 190.5 32.32C186.948 32.32 184.58 30.24 184.58 27.04C184.58 23.712 187.268 21.92 192.26 21.92C193.22 21.92 194.052 21.984 195.108 22.112V21.088C195.108 19.168 194.02 18.048 192.164 18.048C190.244 18.048 189.092 19.168 188.932 21.088H184.932C185.188 17.152 188.036 14.592 192.164 14.592C196.644 14.592 199.268 17.056 199.268 21.248V32H195.652ZM188.772 26.912C188.772 28.352 189.796 29.248 191.46 29.248C193.732 29.248 195.108 28 195.108 26.016V24.8C194.052 24.64 193.316 24.576 192.548 24.576C190.02 24.576 188.772 25.376 188.772 26.912Z" fill="white"/>
<path d="M218.153 9.22C225.038 9.22 229.898 13.855 229.898 19.3C229.898 23.035 228.818 25.465 225.893 28.93L216.758 40H209.693L218.423 29.335C217.883 29.515 217.388 29.56 216.893 29.56C210.683 29.56 206.363 25.465 206.363 19.705C206.363 13.855 211.178 9.22 218.153 9.22ZM218.108 14.44C215.228 14.44 212.843 16.24 212.843 19.48C212.843 22.945 215.228 24.655 218.108 24.655C220.898 24.655 223.373 23.08 223.373 19.525C223.373 16.24 220.898 14.44 218.108 14.44Z" fill="#FF6600"/>
<path d="M66.2159 55H65.0059V47.102H66.2159V55ZM68.9508 51.711V55H67.8398V49.17H68.8738V50.138C69.2698 49.489 69.9298 49.06 70.7328 49.06C71.9318 49.06 72.7238 49.83 72.7238 51.227V55H71.6128V51.601C71.6128 50.6 71.1728 50.039 70.3478 50.039C69.5888 50.039 68.9508 50.677 68.9508 51.711ZM73.7812 52.085C73.7812 50.314 74.7932 49.06 76.3662 49.06C77.1472 49.06 77.8292 49.456 78.2362 50.171V47.102H79.3472V55H78.3132V53.955C77.8952 54.692 77.1912 55.11 76.3662 55.11C74.7932 55.11 73.7812 53.834 73.7812 52.085ZM74.9362 52.085C74.9362 53.383 75.6182 54.12 76.5862 54.12C77.5322 54.12 78.2362 53.35 78.2362 52.063C78.2362 50.754 77.5102 50.039 76.5862 50.039C75.6182 50.039 74.9362 50.765 74.9362 52.085ZM84.5326 52.602V49.17H85.6436V55H84.6096V54.076C84.3016 54.681 83.6196 55.11 82.8276 55.11C81.6506 55.11 80.8366 54.417 80.8366 52.921V49.17H81.9476V52.701C81.9476 53.713 82.4536 54.131 83.1796 54.131C83.9276 54.131 84.5326 53.515 84.5326 52.602ZM91.8065 53.262C91.8065 54.406 90.9155 55.11 89.3645 55.11C87.8245 55.11 86.9115 54.351 86.8015 53.097H87.8685C87.9125 53.823 88.4955 54.274 89.3865 54.274C90.1675 54.274 90.6845 53.999 90.6845 53.449C90.6845 52.965 90.3875 52.756 89.6615 52.613L88.7155 52.437C87.6375 52.228 87.0325 51.678 87.0325 50.798C87.0325 49.775 87.9235 49.06 89.2765 49.06C90.6735 49.06 91.6195 49.808 91.7185 51.007H90.6515C90.5855 50.303 90.0685 49.896 89.2875 49.896C88.5835 49.896 88.1105 50.193 88.1105 50.699C88.1105 51.172 88.4075 51.392 89.1115 51.524L90.1015 51.711C91.2565 51.92 91.8065 52.426 91.8065 53.262ZM96.2333 53.922V54.901C95.8923 55.055 95.5953 55.11 95.2433 55.11C94.1653 55.11 93.4173 54.527 93.4173 53.24V50.116H92.1303V49.17H93.4173V47.443H94.5283V49.17H96.2883V50.116H94.5283V52.987C94.5283 53.79 94.9133 54.076 95.5073 54.076C95.7713 54.076 96.0023 54.032 96.2333 53.922ZM98.4596 52.019V55H97.3486V49.17H98.3826V50.402C98.7896 49.599 99.6696 49.093 100.627 49.093V50.248C99.3726 50.182 98.4596 50.732 98.4596 52.019ZM102.859 47.817C102.859 48.235 102.529 48.554 102.056 48.554C101.583 48.554 101.242 48.235 101.242 47.817C101.242 47.388 101.583 47.08 102.056 47.08C102.529 47.08 102.859 47.388 102.859 47.817ZM102.617 55H101.506V49.17H102.617V55ZM107.69 55V54.098C107.327 54.747 106.678 55.11 105.82 55.11C104.61 55.11 103.818 54.417 103.818 53.35C103.818 52.206 104.731 51.612 106.469 51.612C106.81 51.612 107.085 51.623 107.558 51.678V51.249C107.558 50.413 107.107 49.94 106.337 49.94C105.523 49.94 105.028 50.424 104.995 51.238H103.983C104.038 49.929 104.973 49.06 106.337 49.06C107.778 49.06 108.614 49.874 108.614 51.26V55H107.69ZM104.874 53.317C104.874 53.922 105.325 54.318 106.04 54.318C106.975 54.318 107.558 53.735 107.558 52.844V52.371C107.129 52.316 106.821 52.305 106.535 52.305C105.424 52.305 104.874 52.635 104.874 53.317ZM111.222 55H110.1V47.102H111.222V55ZM117.537 50.765L119.297 52.745C119.429 52.36 119.506 51.887 119.528 51.381H120.551C120.529 52.118 120.309 52.888 119.957 53.482L121.31 55H119.924L119.297 54.296C118.703 54.835 118.01 55.11 117.284 55.11C115.7 55.11 114.688 54.186 114.688 52.745C114.688 51.854 115.26 51.139 116.129 50.721C115.788 50.259 115.623 49.852 115.623 49.324C115.623 48.246 116.536 47.454 117.757 47.454C118.989 47.454 119.847 48.224 119.869 49.357H118.824C118.769 48.708 118.296 48.345 117.757 48.345C117.185 48.345 116.756 48.763 116.756 49.335C116.756 49.83 117.02 50.171 117.537 50.765ZM115.755 52.679C115.755 53.46 116.272 54.197 117.372 54.197C117.878 54.197 118.362 53.999 118.725 53.658L116.701 51.381C116.14 51.612 115.755 52.074 115.755 52.679ZM130.06 52.085C130.06 53.834 129.048 55.11 127.475 55.11C126.65 55.11 125.946 54.692 125.528 53.955V55H124.494V47.102H125.605V50.171C126.012 49.456 126.683 49.06 127.475 49.06C129.037 49.06 130.06 50.314 130.06 52.085ZM128.905 52.085C128.905 50.765 128.212 50.039 127.255 50.039C126.331 50.039 125.605 50.754 125.605 52.063C125.605 53.35 126.309 54.12 127.255 54.12C128.212 54.12 128.905 53.383 128.905 52.085ZM134.828 52.602V49.17H135.939V55H134.905V54.076C134.597 54.681 133.915 55.11 133.123 55.11C131.946 55.11 131.132 54.417 131.132 52.921V49.17H132.243V52.701C132.243 53.713 132.749 54.131 133.475 54.131C134.223 54.131 134.828 53.515 134.828 52.602ZM142.101 53.262C142.101 54.406 141.21 55.11 139.659 55.11C138.119 55.11 137.206 54.351 137.096 53.097H138.163C138.207 53.823 138.79 54.274 139.681 54.274C140.462 54.274 140.979 53.999 140.979 53.449C140.979 52.965 140.682 52.756 139.956 52.613L139.01 52.437C137.932 52.228 137.327 51.678 137.327 50.798C137.327 49.775 138.218 49.06 139.571 49.06C140.968 49.06 141.914 49.808 142.013 51.007H140.946C140.88 50.303 140.363 49.896 139.582 49.896C138.878 49.896 138.405 50.193 138.405 50.699C138.405 51.172 138.702 51.392 139.406 51.524L140.396 51.711C141.551 51.92 142.101 52.426 142.101 53.262ZM144.667 47.817C144.667 48.235 144.337 48.554 143.864 48.554C143.391 48.554 143.05 48.235 143.05 47.817C143.05 47.388 143.391 47.08 143.864 47.08C144.337 47.08 144.667 47.388 144.667 47.817ZM144.425 55H143.314V49.17H144.425V55ZM147.079 51.711V55H145.968V49.17H147.002V50.138C147.398 49.489 148.058 49.06 148.861 49.06C150.06 49.06 150.852 49.83 150.852 51.227V55H149.741V51.601C149.741 50.6 149.301 50.039 148.476 50.039C147.717 50.039 147.079 50.677 147.079 51.711ZM154.725 55.11C153.042 55.11 151.909 53.889 151.909 52.052C151.909 50.325 153.086 49.06 154.692 49.06C156.43 49.06 157.585 50.468 157.387 52.36H153.042C153.13 53.548 153.724 54.241 154.703 54.241C155.528 54.241 156.1 53.79 156.287 53.031H157.387C157.101 54.329 156.1 55.11 154.725 55.11ZM154.67 49.896C153.779 49.896 153.174 50.534 153.053 51.623H156.21C156.155 50.545 155.572 49.896 154.67 49.896ZM163.188 53.262C163.188 54.406 162.297 55.11 160.746 55.11C159.206 55.11 158.293 54.351 158.183 53.097H159.25C159.294 53.823 159.877 54.274 160.768 54.274C161.549 54.274 162.066 53.999 162.066 53.449C162.066 52.965 161.769 52.756 161.043 52.613L160.097 52.437C159.019 52.228 158.414 51.678 158.414 50.798C158.414 49.775 159.305 49.06 160.658 49.06C162.055 49.06 163.001 49.808 163.1 51.007H162.033C161.967 50.303 161.45 49.896 160.669 49.896C159.965 49.896 159.492 50.193 159.492 50.699C159.492 51.172 159.789 51.392 160.493 51.524L161.483 51.711C162.638 51.92 163.188 52.426 163.188 53.262ZM169.021 53.262C169.021 54.406 168.13 55.11 166.579 55.11C165.039 55.11 164.126 54.351 164.016 53.097H165.083C165.127 53.823 165.71 54.274 166.601 54.274C167.382 54.274 167.899 53.999 167.899 53.449C167.899 52.965 167.602 52.756 166.876 52.613L165.93 52.437C164.852 52.228 164.247 51.678 164.247 50.798C164.247 49.775 165.138 49.06 166.491 49.06C167.888 49.06 168.834 49.808 168.933 51.007H167.866C167.8 50.303 167.283 49.896 166.502 49.896C165.798 49.896 165.325 50.193 165.325 50.699C165.325 51.172 165.622 51.392 166.326 51.524L167.316 51.711C168.471 51.92 169.021 52.426 169.021 53.262ZM177.153 53.262C177.153 54.406 176.262 55.11 174.711 55.11C173.171 55.11 172.258 54.351 172.148 53.097H173.215C173.259 53.823 173.842 54.274 174.733 54.274C175.514 54.274 176.031 53.999 176.031 53.449C176.031 52.965 175.734 52.756 175.008 52.613L174.062 52.437C172.984 52.228 172.379 51.678 172.379 50.798C172.379 49.775 173.27 49.06 174.623 49.06C176.02 49.06 176.966 49.808 177.065 51.007H175.998C175.932 50.303 175.415 49.896 174.634 49.896C173.93 49.896 173.457 50.193 173.457 50.699C173.457 51.172 173.754 51.392 174.458 51.524L175.448 51.711C176.603 51.92 177.153 52.426 177.153 53.262ZM180.808 55.11C179.158 55.11 177.948 53.812 177.948 52.085C177.948 50.358 179.158 49.06 180.808 49.06C182.458 49.06 183.668 50.358 183.668 52.085C183.668 53.812 182.458 55.11 180.808 55.11ZM180.808 54.131C181.765 54.131 182.524 53.361 182.524 52.085C182.524 50.809 181.765 50.05 180.808 50.05C179.851 50.05 179.103 50.809 179.103 52.085C179.103 53.361 179.851 54.131 180.808 54.131ZM185.923 55H184.801V47.102H185.923V55ZM191.106 52.602V49.17H192.217V55H191.183V54.076C190.875 54.681 190.193 55.11 189.401 55.11C188.224 55.11 187.41 54.417 187.41 52.921V49.17H188.521V52.701C188.521 53.713 189.027 54.131 189.753 54.131C190.501 54.131 191.106 53.515 191.106 52.602ZM197.049 53.922V54.901C196.708 55.055 196.411 55.11 196.059 55.11C194.981 55.11 194.233 54.527 194.233 53.24V50.116H192.946V49.17H194.233V47.443H195.344V49.17H197.104V50.116H195.344V52.987C195.344 53.79 195.729 54.076 196.323 54.076C196.587 54.076 196.818 54.032 197.049 53.922ZM199.517 47.817C199.517 48.235 199.187 48.554 198.714 48.554C198.241 48.554 197.9 48.235 197.9 47.817C197.9 47.388 198.241 47.08 198.714 47.08C199.187 47.08 199.517 47.388 199.517 47.817ZM199.275 55H198.164V49.17H199.275V55ZM203.259 55.11C201.609 55.11 200.399 53.812 200.399 52.085C200.399 50.358 201.609 49.06 203.259 49.06C204.909 49.06 206.119 50.358 206.119 52.085C206.119 53.812 204.909 55.11 203.259 55.11ZM203.259 54.131C204.216 54.131 204.975 53.361 204.975 52.085C204.975 50.809 204.216 50.05 203.259 50.05C202.302 50.05 201.554 50.809 201.554 52.085C201.554 53.361 202.302 54.131 203.259 54.131ZM208.363 51.711V55H207.252V49.17H208.286V50.138C208.682 49.489 209.342 49.06 210.145 49.06C211.344 49.06 212.136 49.83 212.136 51.227V55H211.025V51.601C211.025 50.6 210.585 50.039 209.76 50.039C209.001 50.039 208.363 50.677 208.363 51.711ZM218.231 53.262C218.231 54.406 217.34 55.11 215.789 55.11C214.249 55.11 213.336 54.351 213.226 53.097H214.293C214.337 53.823 214.92 54.274 215.811 54.274C216.592 54.274 217.109 53.999 217.109 53.449C217.109 52.965 216.812 52.756 216.086 52.613L215.14 52.437C214.062 52.228 213.457 51.678 213.457 50.798C213.457 49.775 214.348 49.06 215.701 49.06C217.098 49.06 218.044 49.808 218.143 51.007H217.076C217.01 50.303 216.493 49.896 215.712 49.896C215.008 49.896 214.535 50.193 214.535 50.699C214.535 51.172 214.832 51.392 215.536 51.524L216.526 51.711C217.681 51.92 218.231 52.426 218.231 53.262Z" fill="white"/>
</svg>
