<svg width="1170" height="364" viewBox="0 0 1170 364" fill="none" xmlns="http://www.w3.org/2000/svg">
<line y1="-1" x2="33.9654" y2="-1" transform="matrix(0.988195 -0.153203 -0.649627 -0.760253 1132.53 114.6)" stroke="#3D3D3D" stroke-width="2"/>
<line y1="-1" x2="31.8548" y2="-1" transform="matrix(0.971067 -0.238808 -0.804699 -0.593682 1133.64 82.168)" stroke="#3D3D3D" stroke-width="2"/>
<line y1="-1" x2="29.0572" y2="-1" transform="matrix(0.941661 -0.336563 -0.89169 -0.452646 1134.76 49.5654)" stroke="#3D3D3D" stroke-width="2"/>
<line y1="-1" x2="25.7482" y2="-1" transform="matrix(0.89169 -0.452648 -0.941661 -0.336564 1136.99 16.7432)" stroke="#3D3D3D" stroke-width="2"/>
<line y1="-1" x2="25.7482" y2="-1" transform="matrix(0.89169 0.452647 0.941661 -0.336564 1136.99 341.584)" stroke="#3D3D3D" stroke-width="2"/>
<line y1="-1" x2="29.0572" y2="-1" transform="matrix(0.941661 0.336564 0.89169 -0.452647 1134.76 308.757)" stroke="#3D3D3D" stroke-width="2"/>
<line y1="-1" x2="31.8548" y2="-1" transform="matrix(0.971067 0.238808 0.8047 -0.593682 1133.64 276.154)" stroke="#3D3D3D" stroke-width="2"/>
<line y1="-1" x2="33.9654" y2="-1" transform="matrix(0.988195 0.153203 0.649627 -0.760253 1132.53 243.723)" stroke="#3D3D3D" stroke-width="2"/>
<line y1="-1" x2="35.275" y2="-1" transform="matrix(0.997191 0.074896 0.382483 -0.923963 1131.41 211.411)" stroke="#3D3D3D" stroke-width="2"/>
<line y1="-1" x2="35.7185" y2="-1" transform="matrix(1 1.19249e-08 1.19249e-08 -1 1131.41 179.161)" stroke="#3D3D3D" stroke-width="2"/>
<line y1="-1" x2="35.275" y2="-1" transform="matrix(0.997191 -0.0748955 -0.382485 -0.923962 1131.41 146.911)" stroke="#3D3D3D" stroke-width="2"/>
<line y1="-1" x2="33.9654" y2="-1" transform="matrix(0.988195 -0.153203 -0.649627 -0.760253 1070.02 148.829)" stroke="#3D3D3D" stroke-width="2"/>
<line y1="-1" x2="31.8548" y2="-1" transform="matrix(0.971067 -0.238807 -0.8047 -0.593682 1071.14 116.403)" stroke="#3D3D3D" stroke-width="2"/>
<line y1="-1" x2="29.0572" y2="-1" transform="matrix(0.941661 -0.336563 -0.89169 -0.452646 1072.25 83.7998)" stroke="#3D3D3D" stroke-width="2"/>
<line y1="-1" x2="25.7482" y2="-1" transform="matrix(0.89169 -0.452647 -0.941661 -0.336563 1074.49 50.9727)" stroke="#3D3D3D" stroke-width="2"/>
<line y1="-1" x2="22.1937" y2="-1" transform="matrix(0.8047 -0.593682 -0.971067 -0.238807 1077.83 17.8828)" stroke="#3D3D3D" stroke-width="2"/>
<line y1="-1" x2="29.0572" y2="-1" transform="matrix(0.941661 0.336564 0.89169 -0.452647 1072.25 342.986)" stroke="#3D3D3D" stroke-width="2"/>
<line y1="-1" x2="31.8548" y2="-1" transform="matrix(0.971067 0.238807 0.8047 -0.593682 1071.14 310.384)" stroke="#3D3D3D" stroke-width="2"/>
<line y1="-1" x2="33.9654" y2="-1" transform="matrix(0.988195 0.153203 0.649627 -0.760253 1070.02 277.957)" stroke="#3D3D3D" stroke-width="2"/>
<line y1="-1" x2="35.275" y2="-1" transform="matrix(0.997191 0.0748958 0.382484 -0.923962 1068.91 245.646)" stroke="#3D3D3D" stroke-width="2"/>
<line y1="-1" x2="35.7185" y2="-1" transform="matrix(1 1.19249e-08 1.19249e-08 -1 1068.91 213.396)" stroke="#3D3D3D" stroke-width="2"/>
<line y1="-1" x2="35.275" y2="-1" transform="matrix(0.997191 -0.0748955 -0.382485 -0.923962 1068.91 181.142)" stroke="#3D3D3D" stroke-width="2"/>
<line y1="-1" x2="33.9654" y2="-1" transform="matrix(0.988195 -0.153203 -0.649627 -0.760253 1007.51 183.064)" stroke="#3D3D3D" stroke-width="2"/>
<line y1="-1" x2="31.8548" y2="-1" transform="matrix(0.971067 -0.238807 -0.8047 -0.593682 1008.63 150.633)" stroke="#3D3D3D" stroke-width="2"/>
<line y1="-1" x2="29.0572" y2="-1" transform="matrix(0.941661 -0.336564 -0.89169 -0.452647 1009.75 118.03)" stroke="#3D3D3D" stroke-width="2"/>
<line y1="-1" x2="25.7482" y2="-1" transform="matrix(0.891689 -0.452648 -0.941661 -0.336564 1011.98 85.2031)" stroke="#3D3D3D" stroke-width="2"/>
<line y1="-1" x2="22.1937" y2="-1" transform="matrix(0.804699 -0.593683 -0.971067 -0.238808 1015.33 52.1133)" stroke="#3D3D3D" stroke-width="2"/>
<line y1="-1" x2="18.8053" y2="-1" transform="matrix(0.649628 -0.760252 -0.988195 -0.153203 1017.56 18.7227)" stroke="#3D3D3D" stroke-width="2"/>
<line y1="-1" x2="31.8548" y2="-1" transform="matrix(0.971067 0.238808 0.8047 -0.593682 1008.63 344.618)" stroke="#3D3D3D" stroke-width="2"/>
<line y1="-1" x2="33.9654" y2="-1" transform="matrix(0.988195 0.153203 0.649627 -0.760253 1007.51 312.188)" stroke="#3D3D3D" stroke-width="2"/>
<line y1="-1" x2="35.275" y2="-1" transform="matrix(0.997191 0.0748956 0.382485 -0.923962 1006.4 279.876)" stroke="#3D3D3D" stroke-width="2"/>
<line y1="-1" x2="35.7185" y2="-1" transform="matrix(1 1.19249e-08 1.19249e-08 -1 1006.4 247.626)" stroke="#3D3D3D" stroke-width="2"/>
<line y1="-1" x2="35.275" y2="-1" transform="matrix(0.997191 -0.0748955 -0.382485 -0.923962 1006.4 215.376)" stroke="#3D3D3D" stroke-width="2"/>
<line y1="-1" x2="33.9654" y2="-1" transform="matrix(0.988195 -0.153203 -0.649627 -0.760253 945.008 217.294)" stroke="#3D3D3D" stroke-width="2"/>
<line y1="-1" x2="31.8548" y2="-1" transform="matrix(0.971067 -0.238807 -0.8047 -0.593682 946.121 184.867)" stroke="#3D3D3D" stroke-width="2"/>
<line y1="-1" x2="29.0572" y2="-1" transform="matrix(0.941661 -0.336564 -0.89169 -0.452647 947.24 152.265)" stroke="#3D3D3D" stroke-width="2"/>
<line y1="-1" x2="25.7482" y2="-1" transform="matrix(0.89169 -0.452647 -0.941661 -0.336563 949.471 119.438)" stroke="#3D3D3D" stroke-width="2"/>
<line y1="-1" x2="22.1937" y2="-1" transform="matrix(0.8047 -0.593682 -0.971067 -0.238807 952.82 86.3428)" stroke="#3D3D3D" stroke-width="2"/>
<line y1="-1" x2="18.8053" y2="-1" transform="matrix(0.649627 -0.760253 -0.988195 -0.153203 955.053 52.9531)" stroke="#3D3D3D" stroke-width="2"/>
<line y1="-1" x2="16.2163" y2="-1" transform="matrix(0.382484 -0.923962 -0.997191 -0.0748957 958.402 19.2334)" stroke="#3D3D3D" stroke-width="2"/>
<line y1="-1" x2="33.9654" y2="-1" transform="matrix(0.988195 0.153203 0.649628 -0.760253 945.008 346.422)" stroke="#3D3D3D" stroke-width="2"/>
<line y1="-1" x2="35.275" y2="-1" transform="matrix(0.997191 0.0748958 0.382484 -0.923962 943.891 314.11)" stroke="#3D3D3D" stroke-width="2"/>
<line y1="-1" x2="35.7185" y2="-1" transform="matrix(1 1.19249e-08 1.19249e-08 -1 943.891 281.86)" stroke="#3D3D3D" stroke-width="2"/>
<line y1="-1" x2="35.275" y2="-1" transform="matrix(0.997191 -0.0748957 -0.382484 -0.923962 943.891 249.605)" stroke="#3D3D3D" stroke-width="2"/>
<line y1="-1" x2="33.9654" y2="-1" transform="matrix(0.988195 -0.153203 -0.649627 -0.760253 882.498 251.528)" stroke="#3D3D3D" stroke-width="2"/>
<line y1="-1" x2="31.8548" y2="-1" transform="matrix(0.971067 -0.238808 -0.804699 -0.593682 883.615 219.098)" stroke="#3D3D3D" stroke-width="2"/>
<line y1="-1" x2="29.0572" y2="-1" transform="matrix(0.941661 -0.336564 -0.89169 -0.452647 884.73 186.495)" stroke="#3D3D3D" stroke-width="2"/>
<line y1="-1" x2="25.7482" y2="-1" transform="matrix(0.89169 -0.452647 -0.941661 -0.336564 886.965 153.667)" stroke="#3D3D3D" stroke-width="2"/>
<line y1="-1" x2="22.1937" y2="-1" transform="matrix(0.804699 -0.593683 -0.971067 -0.238808 890.312 120.578)" stroke="#3D3D3D" stroke-width="2"/>
<line y1="-1" x2="18.8053" y2="-1" transform="matrix(0.649628 -0.760252 -0.988195 -0.153203 892.547 87.1875)" stroke="#3D3D3D" stroke-width="2"/>
<line y1="-1" x2="16.2163" y2="-1" transform="matrix(0.382484 -0.923962 -0.997191 -0.0748958 895.893 53.4678)" stroke="#3D3D3D" stroke-width="2"/>
<line y1="-1" x2="35.275" y2="-1" transform="matrix(0.997191 0.0748957 0.382484 -0.923962 881.385 348.34)" stroke="#3D3D3D" stroke-width="2"/>
<line y1="-1" x2="35.7185" y2="-1" transform="matrix(1 1.19249e-08 1.19249e-08 -1 881.385 316.091)" stroke="#3D3D3D" stroke-width="2"/>
<line y1="-1" x2="35.275" y2="-1" transform="matrix(0.997191 -0.0748957 -0.382484 -0.923962 881.385 283.841)" stroke="#3D3D3D" stroke-width="2"/>
<line y1="-1" x2="15.2143" y2="-1" transform="matrix(-1.19249e-08 1 1 1.19249e-08 899.242 0.391602)" stroke="#3D3D3D" stroke-width="2"/>
<line y1="-1" x2="33.9654" y2="-1" transform="matrix(0.988195 -0.153203 -0.649627 -0.760253 819.992 285.759)" stroke="#3D3D3D" stroke-width="2"/>
<line y1="-1" x2="31.8548" y2="-1" transform="matrix(0.971067 -0.238807 -0.8047 -0.593682 821.107 253.332)" stroke="#3D3D3D" stroke-width="2"/>
<line y1="-1" x2="29.0572" y2="-1" transform="matrix(0.941661 -0.336564 -0.89169 -0.452647 822.225 220.729)" stroke="#3D3D3D" stroke-width="2"/>
<line y1="-1" x2="25.7482" y2="-1" transform="matrix(0.89169 -0.452647 -0.941661 -0.336564 824.457 187.902)" stroke="#3D3D3D" stroke-width="2"/>
<line y1="-1" x2="22.1937" y2="-1" transform="matrix(0.8047 -0.593681 -0.971067 -0.238807 827.807 154.808)" stroke="#3D3D3D" stroke-width="2"/>
<line y1="-1" x2="18.8053" y2="-1" transform="matrix(0.649627 -0.760253 -0.988195 -0.153203 830.039 121.418)" stroke="#3D3D3D" stroke-width="2"/>
<line y1="-1" x2="16.2162" y2="-1" transform="matrix(0.382486 -0.923961 -0.997191 -0.0748953 833.387 87.6982)" stroke="#3D3D3D" stroke-width="2"/>
<line y1="-1" x2="35.7185" y2="-1" transform="matrix(1 1.19249e-08 1.19249e-08 -1 818.875 350.325)" stroke="#3D3D3D" stroke-width="2"/>
<line y1="-1" x2="35.2749" y2="-1" transform="matrix(0.997191 -0.0748958 -0.382484 -0.923962 818.875 318.07)" stroke="#3D3D3D" stroke-width="2"/>
<line y1="-1" x2="15.2143" y2="-1" transform="matrix(-1.19249e-08 1 1 1.19249e-08 836.734 34.626)" stroke="#3D3D3D" stroke-width="2"/>
<line y1="-1" x2="16.2163" y2="-1" transform="matrix(0.382485 0.923962 0.997191 -0.0748954 833.387 0.563477)" stroke="#3D3D3D" stroke-width="2"/>
<line y1="-1" x2="33.9654" y2="-1" transform="matrix(0.988195 -0.153203 -0.649628 -0.760253 757.484 319.993)" stroke="#3D3D3D" stroke-width="2"/>
<line y1="-1" x2="31.8548" y2="-1" transform="matrix(0.971067 -0.238807 -0.8047 -0.593682 758.602 287.562)" stroke="#3D3D3D" stroke-width="2"/>
<line y1="-1" x2="29.0572" y2="-1" transform="matrix(0.941661 -0.336564 -0.89169 -0.452647 759.717 254.959)" stroke="#3D3D3D" stroke-width="2"/>
<line y1="-1" x2="25.7482" y2="-1" transform="matrix(0.89169 -0.452647 -0.941661 -0.336564 761.949 222.132)" stroke="#3D3D3D" stroke-width="2"/>
<line y1="-1" x2="22.1937" y2="-1" transform="matrix(0.8047 -0.593681 -0.971067 -0.238807 765.297 189.043)" stroke="#3D3D3D" stroke-width="2"/>
<line y1="-1" x2="18.8053" y2="-1" transform="matrix(0.649627 -0.760253 -0.988195 -0.153203 767.529 155.652)" stroke="#3D3D3D" stroke-width="2"/>
<line y1="-1" x2="16.2163" y2="-1" transform="matrix(0.382485 -0.923962 -0.997191 -0.0748954 770.879 121.933)" stroke="#3D3D3D" stroke-width="2"/>
<line y1="-1" x2="35.2749" y2="-1" transform="matrix(0.997191 -0.0748957 -0.382484 -0.923962 756.367 352.306)" stroke="#3D3D3D" stroke-width="2"/>
<line y1="-1" x2="15.2144" y2="-1" transform="matrix(-1.19249e-08 1 1 1.19249e-08 774.229 68.8555)" stroke="#3D3D3D" stroke-width="2"/>
<line y1="-1" x2="16.2163" y2="-1" transform="matrix(0.382485 0.923962 0.997191 -0.0748954 770.879 34.7979)" stroke="#3D3D3D" stroke-width="2"/>
<line y1="-1" x2="18.8053" y2="-1" transform="matrix(0.649627 0.760253 0.988195 -0.153203 767.529 1.07812)" stroke="#3D3D3D" stroke-width="2"/>
<line y1="-1" x2="33.9654" y2="-1" transform="matrix(0.988195 -0.153203 -0.649628 -0.760253 694.977 354.224)" stroke="#3D3D3D" stroke-width="2"/>
<line y1="-1" x2="31.8548" y2="-1" transform="matrix(0.971067 -0.238807 -0.8047 -0.593682 696.094 321.797)" stroke="#3D3D3D" stroke-width="2"/>
<line y1="-1" x2="29.0572" y2="-1" transform="matrix(0.941661 -0.336564 -0.89169 -0.452647 697.211 289.194)" stroke="#3D3D3D" stroke-width="2"/>
<line y1="-1" x2="25.7482" y2="-1" transform="matrix(0.89169 -0.452647 -0.941661 -0.336564 699.443 256.367)" stroke="#3D3D3D" stroke-width="2"/>
<line y1="-1" x2="22.1937" y2="-1" transform="matrix(0.8047 -0.593682 -0.971067 -0.238807 702.791 223.272)" stroke="#3D3D3D" stroke-width="2"/>
<line y1="-1" x2="18.8053" y2="-1" transform="matrix(0.649627 -0.760253 -0.988195 -0.153204 705.023 189.883)" stroke="#3D3D3D" stroke-width="2"/>
<line y1="-1" x2="16.2163" y2="-1" transform="matrix(0.382485 -0.923962 -0.997191 -0.0748954 708.371 156.163)" stroke="#3D3D3D" stroke-width="2"/>
<line y1="-1" x2="22.1937" y2="-1" transform="matrix(0.804699 0.593682 0.971067 -0.238808 702.791 1.91797)" stroke="#3D3D3D" stroke-width="2"/>
<line y1="-1" x2="15.2143" y2="-1" transform="matrix(-1.19249e-08 1 1 1.19249e-08 711.721 103.086)" stroke="#3D3D3D" stroke-width="2"/>
<line y1="-1" x2="16.2162" y2="-1" transform="matrix(0.382486 0.923961 0.997191 -0.0748953 708.371 69.0273)" stroke="#3D3D3D" stroke-width="2"/>
<line y1="-1" x2="18.8053" y2="-1" transform="matrix(0.649626 0.760254 0.988195 -0.153204 705.023 35.3135)" stroke="#3D3D3D" stroke-width="2"/>
<line y1="-1" x2="31.8548" y2="-1" transform="matrix(0.971067 -0.238807 -0.8047 -0.593682 633.584 356.027)" stroke="#3D3D3D" stroke-width="2"/>
<line y1="-1" x2="29.0572" y2="-1" transform="matrix(0.941661 -0.336564 -0.89169 -0.452647 634.703 323.424)" stroke="#3D3D3D" stroke-width="2"/>
<line y1="-1" x2="25.7482" y2="-1" transform="matrix(0.89169 -0.452647 -0.941661 -0.336564 636.934 290.597)" stroke="#3D3D3D" stroke-width="2"/>
<line y1="-1" x2="22.1937" y2="-1" transform="matrix(0.804699 -0.593682 -0.971067 -0.238808 640.283 257.507)" stroke="#3D3D3D" stroke-width="2"/>
<line y1="-1" x2="18.8053" y2="-1" transform="matrix(0.649627 -0.760253 -0.988195 -0.153204 642.516 224.117)" stroke="#3D3D3D" stroke-width="2"/>
<line y1="-1" x2="16.2162" y2="-1" transform="matrix(0.382484 -0.923962 -0.997191 -0.0748958 645.865 190.397)" stroke="#3D3D3D" stroke-width="2"/>
<line y1="-1" x2="22.1937" y2="-1" transform="matrix(0.804699 0.593683 0.971067 -0.238808 640.283 36.1523)" stroke="#3D3D3D" stroke-width="2"/>
<line y1="-1" x2="25.7482" y2="-1" transform="matrix(0.89169 0.452646 0.941661 -0.336563 636.934 3.05859)" stroke="#3D3D3D" stroke-width="2"/>
<line y1="-1" x2="15.2143" y2="-1" transform="matrix(-1.19249e-08 1 1 1.19249e-08 649.215 137.32)" stroke="#3D3D3D" stroke-width="2"/>
<line y1="-1" x2="16.2162" y2="-1" transform="matrix(0.382484 0.923962 0.997191 -0.0748957 645.865 103.263)" stroke="#3D3D3D" stroke-width="2"/>
<line y1="-1" x2="18.8053" y2="-1" transform="matrix(0.649627 0.760253 0.988195 -0.153203 642.516 69.543)" stroke="#3D3D3D" stroke-width="2"/>
<line y1="-1" x2="29.0572" y2="-1" transform="matrix(0.941661 -0.336564 -0.89169 -0.452647 572.193 357.659)" stroke="#3D3D3D" stroke-width="2"/>
<line y1="-1" x2="25.7482" y2="-1" transform="matrix(0.89169 -0.452647 -0.941661 -0.336564 574.428 324.832)" stroke="#3D3D3D" stroke-width="2"/>
<line y1="-1" x2="22.1937" y2="-1" transform="matrix(0.804699 -0.593682 -0.971067 -0.238808 577.775 291.737)" stroke="#3D3D3D" stroke-width="2"/>
<line y1="-1" x2="18.8053" y2="-1" transform="matrix(0.649626 -0.760253 -0.988195 -0.153204 580.008 258.347)" stroke="#3D3D3D" stroke-width="2"/>
<line y1="-1" x2="16.2162" y2="-1" transform="matrix(0.382484 -0.923962 -0.997191 -0.0748958 583.355 224.628)" stroke="#3D3D3D" stroke-width="2"/>
<line y1="-1" x2="22.1937" y2="-1" transform="matrix(0.8047 0.593682 0.971067 -0.238808 577.775 70.3828)" stroke="#3D3D3D" stroke-width="2"/>
<line y1="-1" x2="25.7482" y2="-1" transform="matrix(0.89169 0.452647 0.941661 -0.336564 574.428 37.293)" stroke="#3D3D3D" stroke-width="2"/>
<line y1="-1" x2="29.0572" y2="-1" transform="matrix(0.941661 0.336563 0.89169 -0.452646 572.193 4.46582)" stroke="#3D3D3D" stroke-width="2"/>
<line y1="-1" x2="15.2143" y2="-1" transform="matrix(-1.19249e-08 1 1 1.19249e-08 586.705 171.551)" stroke="#3D3D3D" stroke-width="2"/>
<line y1="-1" x2="16.2162" y2="-1" transform="matrix(0.382484 0.923962 0.997191 -0.0748957 583.355 137.492)" stroke="#3D3D3D" stroke-width="2"/>
<line y1="-1" x2="18.8053" y2="-1" transform="matrix(0.649626 0.760254 0.988195 -0.153204 580.008 103.773)" stroke="#3D3D3D" stroke-width="2"/>
<line y1="-1" x2="25.7482" y2="-1" transform="matrix(0.89169 -0.452647 -0.941661 -0.336564 511.92 359.062)" stroke="#3D3D3D" stroke-width="2"/>
<line y1="-1" x2="22.1937" y2="-1" transform="matrix(0.8047 -0.593681 -0.971067 -0.238807 515.27 325.972)" stroke="#3D3D3D" stroke-width="2"/>
<line y1="-1" x2="18.8053" y2="-1" transform="matrix(0.649626 -0.760253 -0.988195 -0.153204 517.502 292.582)" stroke="#3D3D3D" stroke-width="2"/>
<line y1="-1" x2="16.2162" y2="-1" transform="matrix(0.382484 -0.923962 -0.997191 -0.0748958 520.85 258.862)" stroke="#3D3D3D" stroke-width="2"/>
<line y1="-1" x2="22.1937" y2="-1" transform="matrix(0.8047 0.593681 0.971067 -0.238807 515.27 104.617)" stroke="#3D3D3D" stroke-width="2"/>
<line y1="-1" x2="25.7482" y2="-1" transform="matrix(0.891689 0.452648 0.94166 -0.336564 511.92 71.5234)" stroke="#3D3D3D" stroke-width="2"/>
<line y1="-1" x2="29.0572" y2="-1" transform="matrix(0.941661 0.336563 0.89169 -0.452646 509.688 38.7012)" stroke="#3D3D3D" stroke-width="2"/>
<line y1="-1" x2="31.8548" y2="-1" transform="matrix(0.971067 0.238807 0.804701 -0.593681 508.57 6.09277)" stroke="#3D3D3D" stroke-width="2"/>
<line y1="-1" x2="15.2143" y2="-1" transform="matrix(-1.19249e-08 1 1 1.19249e-08 524.197 205.785)" stroke="#3D3D3D" stroke-width="2"/>
<line y1="-1" x2="16.2162" y2="-1" transform="matrix(0.382484 0.923962 0.997191 -0.0748957 520.85 171.728)" stroke="#3D3D3D" stroke-width="2"/>
<line y1="-1" x2="18.8053" y2="-1" transform="matrix(0.649627 0.760253 0.988195 -0.153203 517.502 138.008)" stroke="#3D3D3D" stroke-width="2"/>
<line y1="-1" x2="22.1937" y2="-1" transform="matrix(0.8047 -0.593681 -0.971067 -0.238807 452.76 360.202)" stroke="#3D3D3D" stroke-width="2"/>
<line y1="-1" x2="18.8053" y2="-1" transform="matrix(0.649626 -0.760253 -0.988195 -0.153204 454.992 326.812)" stroke="#3D3D3D" stroke-width="2"/>
<line y1="-1" x2="16.2162" y2="-1" transform="matrix(0.382484 -0.923962 -0.997191 -0.0748958 458.342 293.093)" stroke="#3D3D3D" stroke-width="2"/>
<line y1="-1" x2="22.1937" y2="-1" transform="matrix(0.8047 0.593681 0.971067 -0.238807 452.76 138.848)" stroke="#3D3D3D" stroke-width="2"/>
<line y1="-1" x2="25.7482" y2="-1" transform="matrix(0.891689 0.452648 0.94166 -0.336564 449.412 105.758)" stroke="#3D3D3D" stroke-width="2"/>
<line y1="-1" x2="29.0572" y2="-1" transform="matrix(0.941661 0.336564 0.89169 -0.452647 447.18 72.9307)" stroke="#3D3D3D" stroke-width="2"/>
<line y1="-1" x2="31.8548" y2="-1" transform="matrix(0.971067 0.238807 0.804701 -0.593681 446.064 40.3281)" stroke="#3D3D3D" stroke-width="2"/>
<line y1="-1" x2="33.9654" y2="-1" transform="matrix(0.988195 0.153202 0.64963 -0.760251 444.947 7.89648)" stroke="#3D3D3D" stroke-width="2"/>
<line y1="-1" x2="15.2143" y2="-1" transform="matrix(-1.19249e-08 1 1 1.19249e-08 461.691 240.016)" stroke="#3D3D3D" stroke-width="2"/>
<line y1="-1" x2="16.2162" y2="-1" transform="matrix(0.382484 0.923962 0.997191 -0.0748957 458.342 205.957)" stroke="#3D3D3D" stroke-width="2"/>
<line y1="-1" x2="18.8053" y2="-1" transform="matrix(0.649627 0.760253 0.988195 -0.153203 454.992 172.237)" stroke="#3D3D3D" stroke-width="2"/>
<line y1="-1" x2="18.8053" y2="-1" transform="matrix(0.649627 -0.760253 -0.988195 -0.153204 392.486 361.047)" stroke="#3D3D3D" stroke-width="2"/>
<line y1="-1" x2="16.2162" y2="-1" transform="matrix(0.382484 -0.923962 -0.997191 -0.0748958 395.834 327.327)" stroke="#3D3D3D" stroke-width="2"/>
<line y1="-1" x2="22.1937" y2="-1" transform="matrix(0.8047 0.593681 0.971067 -0.238807 390.252 173.082)" stroke="#3D3D3D" stroke-width="2"/>
<line y1="-1" x2="25.7482" y2="-1" transform="matrix(0.89169 0.452647 0.941661 -0.336564 386.906 139.988)" stroke="#3D3D3D" stroke-width="2"/>
<line y1="-1" x2="29.0572" y2="-1" transform="matrix(0.941661 0.336564 0.89169 -0.452647 384.674 107.161)" stroke="#3D3D3D" stroke-width="2"/>
<line y1="-1" x2="31.8548" y2="-1" transform="matrix(0.971067 0.238808 0.804699 -0.593682 383.557 74.5576)" stroke="#3D3D3D" stroke-width="2"/>
<line y1="-1" x2="33.9654" y2="-1" transform="matrix(0.988195 0.153203 0.649627 -0.760253 382.439 42.1318)" stroke="#3D3D3D" stroke-width="2"/>
<line y1="-1" x2="35.275" y2="-1" transform="matrix(0.997191 0.0748955 0.382485 -0.923962 381.324 9.81934)" stroke="#3D3D3D" stroke-width="2"/>
<line y1="-1" x2="15.2143" y2="-1" transform="matrix(-1.19249e-08 1 1 1.19249e-08 399.184 274.25)" stroke="#3D3D3D" stroke-width="2"/>
<line y1="-1" x2="16.2162" y2="-1" transform="matrix(0.382484 0.923962 0.997191 -0.0748957 395.834 240.191)" stroke="#3D3D3D" stroke-width="2"/>
<line y1="-1" x2="18.8053" y2="-1" transform="matrix(0.649627 0.760253 0.988195 -0.153203 392.486 206.473)" stroke="#3D3D3D" stroke-width="2"/>
<line y1="-1" x2="16.2162" y2="-1" transform="matrix(0.382484 -0.923962 -0.997191 -0.0748958 333.328 361.557)" stroke="#3D3D3D" stroke-width="2"/>
<line y1="-1" x2="22.1937" y2="-1" transform="matrix(0.804701 0.593681 0.971067 -0.238807 327.746 207.312)" stroke="#3D3D3D" stroke-width="2"/>
<line y1="-1" x2="25.7482" y2="-1" transform="matrix(0.89169 0.452647 0.941661 -0.336564 324.396 174.223)" stroke="#3D3D3D" stroke-width="2"/>
<line y1="-1" x2="29.0572" y2="-1" transform="matrix(0.941661 0.336564 0.89169 -0.452647 322.166 141.396)" stroke="#3D3D3D" stroke-width="2"/>
<line y1="-1" x2="31.8548" y2="-1" transform="matrix(0.971067 0.238807 0.8047 -0.593682 321.047 108.793)" stroke="#3D3D3D" stroke-width="2"/>
<line y1="-1" x2="33.9654" y2="-1" transform="matrix(0.988195 0.153204 0.649627 -0.760253 319.934 76.3613)" stroke="#3D3D3D" stroke-width="2"/>
<line y1="-1" x2="35.275" y2="-1" transform="matrix(0.997191 0.0748955 0.382485 -0.923962 318.816 44.0498)" stroke="#3D3D3D" stroke-width="2"/>
<line y1="-1" x2="35.7186" y2="-1" transform="matrix(1 1.19249e-08 1.19249e-08 -1 318.816 11.7998)" stroke="#3D3D3D" stroke-width="2"/>
<line y1="-1" x2="15.2143" y2="-1" transform="matrix(-1.19249e-08 1 1 1.19249e-08 336.678 308.48)" stroke="#3D3D3D" stroke-width="2"/>
<line y1="-1" x2="16.2162" y2="-1" transform="matrix(0.382484 0.923962 0.997191 -0.0748957 333.328 274.422)" stroke="#3D3D3D" stroke-width="2"/>
<line y1="-1" x2="18.8053" y2="-1" transform="matrix(0.649627 0.760253 0.988195 -0.153203 329.979 240.702)" stroke="#3D3D3D" stroke-width="2"/>
<line y1="-1" x2="22.1937" y2="-1" transform="matrix(0.8047 0.593681 0.971067 -0.238807 265.238 241.547)" stroke="#3D3D3D" stroke-width="2"/>
<line y1="-1" x2="25.7482" y2="-1" transform="matrix(0.89169 0.452647 0.941661 -0.336564 261.891 208.452)" stroke="#3D3D3D" stroke-width="2"/>
<line y1="-1" x2="29.0572" y2="-1" transform="matrix(0.941661 0.336564 0.89169 -0.452647 259.656 175.625)" stroke="#3D3D3D" stroke-width="2"/>
<line y1="-1" x2="31.8548" y2="-1" transform="matrix(0.971067 0.238808 0.804699 -0.593682 258.541 143.022)" stroke="#3D3D3D" stroke-width="2"/>
<line y1="-1" x2="33.9654" y2="-1" transform="matrix(0.988195 0.153203 0.649628 -0.760252 257.424 110.596)" stroke="#3D3D3D" stroke-width="2"/>
<line y1="-1" x2="35.275" y2="-1" transform="matrix(0.997191 0.0748955 0.382485 -0.923962 256.311 78.2842)" stroke="#3D3D3D" stroke-width="2"/>
<line y1="-1" x2="35.7186" y2="-1" transform="matrix(1 1.19249e-08 1.19249e-08 -1 256.311 46.0342)" stroke="#3D3D3D" stroke-width="2"/>
<line y1="-1" x2="35.275" y2="-1" transform="matrix(0.997191 -0.0748955 -0.382485 -0.923962 256.311 13.7793)" stroke="#3D3D3D" stroke-width="2"/>
<line y1="-1" x2="15.2143" y2="-1" transform="matrix(-1.19249e-08 1 1 1.19249e-08 274.168 342.715)" stroke="#3D3D3D" stroke-width="2"/>
<line y1="-1" x2="16.2162" y2="-1" transform="matrix(0.382484 0.923962 0.997191 -0.0748957 270.818 308.656)" stroke="#3D3D3D" stroke-width="2"/>
<line y1="-1" x2="18.8053" y2="-1" transform="matrix(0.649627 0.760253 0.988195 -0.153203 267.471 274.938)" stroke="#3D3D3D" stroke-width="2"/>
<line y1="-1" x2="33.9654" y2="-1" transform="matrix(0.988195 -0.153203 -0.649627 -0.760253 194.918 15.7031)" stroke="#3D3D3D" stroke-width="2"/>
<line y1="-1" x2="22.1937" y2="-1" transform="matrix(0.804699 0.593683 0.971067 -0.238808 202.732 275.777)" stroke="#3D3D3D" stroke-width="2"/>
<line y1="-1" x2="25.7482" y2="-1" transform="matrix(0.89169 0.452647 0.941661 -0.336564 199.383 242.688)" stroke="#3D3D3D" stroke-width="2"/>
<line y1="-1" x2="29.0571" y2="-1" transform="matrix(0.941661 0.336564 0.891689 -0.452648 197.15 209.86)" stroke="#3D3D3D" stroke-width="2"/>
<line y1="-1" x2="31.8548" y2="-1" transform="matrix(0.971067 0.238808 0.804699 -0.593682 196.033 177.257)" stroke="#3D3D3D" stroke-width="2"/>
<line y1="-1" x2="33.9654" y2="-1" transform="matrix(0.988195 0.153203 0.649627 -0.760253 194.918 144.826)" stroke="#3D3D3D" stroke-width="2"/>
<line y1="-1" x2="35.275" y2="-1" transform="matrix(0.997191 0.0748959 0.382483 -0.923963 193.801 112.515)" stroke="#3D3D3D" stroke-width="2"/>
<line y1="-1" x2="35.7186" y2="-1" transform="matrix(1 1.19249e-08 1.19249e-08 -1 193.801 80.2646)" stroke="#3D3D3D" stroke-width="2"/>
<line y1="-1" x2="35.275" y2="-1" transform="matrix(0.997191 -0.0748955 -0.382485 -0.923962 193.801 48.0146)" stroke="#3D3D3D" stroke-width="2"/>
<line y1="-1" x2="16.2162" y2="-1" transform="matrix(0.382484 0.923962 0.997191 -0.0748957 208.312 342.887)" stroke="#3D3D3D" stroke-width="2"/>
<line y1="-1" x2="18.8054" y2="-1" transform="matrix(0.649628 0.760252 0.988195 -0.153203 204.965 309.167)" stroke="#3D3D3D" stroke-width="2"/>
<line y1="-1" x2="33.9654" y2="-1" transform="matrix(0.988195 -0.153204 -0.649627 -0.760253 132.41 49.9326)" stroke="#3D3D3D" stroke-width="2"/>
<line y1="-1" x2="31.8548" y2="-1" transform="matrix(0.971067 -0.238807 -0.804701 -0.593681 133.527 17.5059)" stroke="#3D3D3D" stroke-width="2"/>
<line y1="-1" x2="22.1936" y2="-1" transform="matrix(0.804698 0.593684 0.971067 -0.238808 140.223 310.012)" stroke="#3D3D3D" stroke-width="2"/>
<line y1="-1" x2="25.7482" y2="-1" transform="matrix(0.89169 0.452647 0.941661 -0.336564 136.875 276.917)" stroke="#3D3D3D" stroke-width="2"/>
<line y1="-1" x2="29.0571" y2="-1" transform="matrix(0.941661 0.336564 0.891689 -0.452648 134.643 244.09)" stroke="#3D3D3D" stroke-width="2"/>
<line y1="-1" x2="31.8548" y2="-1" transform="matrix(0.971067 0.238807 0.8047 -0.593682 133.527 211.487)" stroke="#3D3D3D" stroke-width="2"/>
<line y1="-1" x2="33.9654" y2="-1" transform="matrix(0.988195 0.153204 0.649627 -0.760253 132.41 179.061)" stroke="#3D3D3D" stroke-width="2"/>
<line y1="-1" x2="35.275" y2="-1" transform="matrix(0.997191 0.0748959 0.382483 -0.923963 131.293 146.749)" stroke="#3D3D3D" stroke-width="2"/>
<line y1="-1" x2="35.7186" y2="-1" transform="matrix(1 1.19249e-08 1.19249e-08 -1 131.293 114.499)" stroke="#3D3D3D" stroke-width="2"/>
<line y1="-1" x2="35.275" y2="-1" transform="matrix(0.997191 -0.0748964 -0.382481 -0.923963 131.293 82.2441)" stroke="#3D3D3D" stroke-width="2"/>
<line y1="-1" x2="18.8053" y2="-1" transform="matrix(0.649627 0.760253 0.988195 -0.153204 142.455 343.402)" stroke="#3D3D3D" stroke-width="2"/>
<line y1="-1" x2="33.9654" y2="-1" transform="matrix(0.988195 -0.153203 -0.649627 -0.760253 69.9023 84.167)" stroke="#3D3D3D" stroke-width="2"/>
<line y1="-1" x2="31.8549" y2="-1" transform="matrix(0.971067 -0.238807 -0.8047 -0.593682 71.0195 51.7363)" stroke="#3D3D3D" stroke-width="2"/>
<line y1="-1" x2="29.0571" y2="-1" transform="matrix(0.941661 -0.336564 -0.89169 -0.452647 72.1367 19.1328)" stroke="#3D3D3D" stroke-width="2"/>
<line y1="-1" x2="22.1937" y2="-1" transform="matrix(0.804699 0.593682 0.971067 -0.238808 77.7148 344.241)" stroke="#3D3D3D" stroke-width="2"/>
<line y1="-1" x2="25.7483" y2="-1" transform="matrix(0.89169 0.452646 0.941661 -0.336563 74.3691 311.152)" stroke="#3D3D3D" stroke-width="2"/>
<line y1="-1" x2="29.0571" y2="-1" transform="matrix(0.941661 0.336564 0.891689 -0.452648 72.1367 278.325)" stroke="#3D3D3D" stroke-width="2"/>
<line y1="-1" x2="31.8549" y2="-1" transform="matrix(0.971067 0.238807 0.8047 -0.593681 71.0195 245.722)" stroke="#3D3D3D" stroke-width="2"/>
<line y1="-1" x2="33.9654" y2="-1" transform="matrix(0.988195 0.153203 0.649627 -0.760253 69.9023 213.291)" stroke="#3D3D3D" stroke-width="2"/>
<line y1="-1" x2="35.275" y2="-1" transform="matrix(0.997191 0.0748955 0.382485 -0.923962 68.7871 180.979)" stroke="#3D3D3D" stroke-width="2"/>
<line y1="-1" x2="35.7185" y2="-1" transform="matrix(1 1.19249e-08 1.19249e-08 -1 68.7871 148.729)" stroke="#3D3D3D" stroke-width="2"/>
<line y1="-1" x2="35.275" y2="-1" transform="matrix(0.997191 -0.0748955 -0.382485 -0.923962 68.7871 116.479)" stroke="#3D3D3D" stroke-width="2"/>
<line y1="-1" x2="33.9654" y2="-1" transform="matrix(0.988195 -0.153203 -0.649627 -0.760253 7.39648 118.397)" stroke="#3D3D3D" stroke-width="2"/>
<line y1="-1" x2="31.8549" y2="-1" transform="matrix(0.971067 -0.238807 -0.8047 -0.593682 8.50977 85.9707)" stroke="#3D3D3D" stroke-width="2"/>
<line y1="-1" x2="29.0571" y2="-1" transform="matrix(0.941661 -0.336564 -0.89169 -0.452647 9.62891 53.3682)" stroke="#3D3D3D" stroke-width="2"/>
<line y1="-1" x2="25.7483" y2="-1" transform="matrix(0.89169 -0.452646 -0.941661 -0.336563 11.8594 20.541)" stroke="#3D3D3D" stroke-width="2"/>
<line y1="-1" x2="25.7483" y2="-1" transform="matrix(0.89169 0.452646 0.941661 -0.336563 11.8594 345.382)" stroke="#3D3D3D" stroke-width="2"/>
<line y1="-1" x2="29.0571" y2="-1" transform="matrix(0.94166 0.336564 0.891689 -0.452648 9.62891 312.555)" stroke="#3D3D3D" stroke-width="2"/>
<line y1="-1" x2="31.8549" y2="-1" transform="matrix(0.971067 0.238807 0.8047 -0.593681 8.50977 279.952)" stroke="#3D3D3D" stroke-width="2"/>
<line y1="-1" x2="33.9654" y2="-1" transform="matrix(0.988195 0.153203 0.649627 -0.760253 7.39648 247.525)" stroke="#3D3D3D" stroke-width="2"/>
<line y1="-1" x2="35.275" y2="-1" transform="matrix(0.997191 0.0748955 0.382485 -0.923962 6.2793 215.214)" stroke="#3D3D3D" stroke-width="2"/>
<line y1="-1" x2="35.7185" y2="-1" transform="matrix(1 1.19249e-08 1.19249e-08 -1 6.2793 182.964)" stroke="#3D3D3D" stroke-width="2"/>
<line y1="-1" x2="35.275" y2="-1" transform="matrix(0.997191 -0.0748959 -0.382483 -0.923963 6.2793 150.709)" stroke="#3D3D3D" stroke-width="2"/>
</svg>
