<svg width="71" height="73" viewBox="0 0 71 73" fill="none" xmlns="http://www.w3.org/2000/svg">
<path d="M8 1.0332C9.55 1.0332 9.55 2.06654 11.1 2.06654C12.65 2.06654 12.65 1.0332 14.2 1.0332C15.75 1.0332 15.75 2.06654 17.3 2.06654C18.85 2.06654 18.85 1.0332 20.4 1.0332C21.95 1.0332 21.95 2.06654 23.5 2.06654C25.05 2.06654 25.05 1.0332 26.6 1.0332C28.15 1.0332 28.15 2.06654 29.7 2.06654C31.25 2.06654 31.25 1.0332 32.8 1.0332C34.35 1.0332 34.35 2.06654 35.9 2.06654C37.45 2.06654 37.45 1.0332 39 1.0332C40.55 1.0332 40.55 2.06654 42.1 2.06654C43.65 2.06654 43.65 1.0332 45.2 1.0332C46.4271 1.0332 46.75 2.06654 48.3 2.06654C49.85 2.06654 49.85 1.0332 51.4 1.0332C52.95 1.0332 52.95 2.06654 54.5 2.06654C56.05 2.06654 56.05 1.0332 57.6 1.0332C59.15 1.0332 59.15 2.06654 60.7 2.06654C62.25 2.06654 62.25 1.0332 63.8 1.0332C65.35 1.0332 65.35 2.06654 66.9 2.06654C68.45 2.06654 68.45 1.0332 70 1.0332" stroke="#DCDCDC" stroke-linecap="round"/>
<path d="M8 4.13379C9.55 4.13379 9.55 5.16712 11.1 5.16712C12.65 5.16712 12.65 4.13379 14.2 4.13379C15.75 4.13379 15.75 5.16712 17.3 5.16712C18.85 5.16712 18.85 4.13379 20.4 4.13379C21.95 4.13379 21.95 5.16712 23.5 5.16712C25.05 5.16712 25.05 4.13379 26.6 4.13379C28.15 4.13379 28.15 5.16712 29.7 5.16712C31.25 5.16712 31.25 4.13379 32.8 4.13379C34.35 4.13379 34.35 5.16712 35.9 5.16712C37.45 5.16712 37.45 4.13379 39 4.13379C40.55 4.13379 40.55 5.16712 42.1 5.16712C43.65 5.16712 43.65 4.13379 45.2 4.13379C46.4271 4.13379 46.75 5.16712 48.3 5.16712C49.85 5.16712 49.85 4.13379 51.4 4.13379C52.95 4.13379 52.95 5.16712 54.5 5.16712C56.05 5.16712 56.05 4.13379 57.6 4.13379C59.15 4.13379 59.15 5.16712 60.7 5.16712C62.25 5.16712 62.25 4.13379 63.8 4.13379C65.35 4.13379 65.35 5.16712 66.9 5.16712C68.45 5.16712 68.45 4.13379 70 4.13379" stroke="#DCDCDC" stroke-linecap="round"/>
<path d="M8 7.2334C9.55 7.2334 9.55 8.26673 11.1 8.26673C12.65 8.26673 12.65 7.2334 14.2 7.2334C15.75 7.2334 15.75 8.26673 17.3 8.26673C18.85 8.26673 18.85 7.2334 20.4 7.2334C21.95 7.2334 21.95 8.26673 23.5 8.26673C25.05 8.26673 25.05 7.2334 26.6 7.2334C28.15 7.2334 28.15 8.26673 29.7 8.26673C31.25 8.26673 31.25 7.2334 32.8 7.2334C34.35 7.2334 34.35 8.26673 35.9 8.26673C37.45 8.26673 37.45 7.2334 39 7.2334C40.55 7.2334 40.55 8.26673 42.1 8.26673C43.65 8.26673 43.65 7.2334 45.2 7.2334C46.4271 7.2334 46.75 8.26673 48.3 8.26673C49.85 8.26673 49.85 7.2334 51.4 7.2334C52.95 7.2334 52.95 8.26673 54.5 8.26673C56.05 8.26673 56.05 7.2334 57.6 7.2334C59.15 7.2334 59.15 8.26673 60.7 8.26673C62.25 8.26673 62.25 7.2334 63.8 7.2334C65.35 7.2334 65.35 8.26673 66.9 8.26673C68.45 8.26673 68.45 7.2334 70 7.2334" stroke="#DCDCDC" stroke-linecap="round"/>
<path d="M8 10.333C9.55 10.333 9.55 11.3663 11.1 11.3663C12.65 11.3663 12.65 10.333 14.2 10.333C15.75 10.333 15.75 11.3663 17.3 11.3663C18.85 11.3663 18.85 10.333 20.4 10.333C21.95 10.333 21.95 11.3663 23.5 11.3663C25.05 11.3663 25.05 10.333 26.6 10.333C28.15 10.333 28.15 11.3663 29.7 11.3663C31.25 11.3663 31.25 10.333 32.8 10.333C34.35 10.333 34.35 11.3663 35.9 11.3663C37.45 11.3663 37.45 10.333 39 10.333C40.55 10.333 40.55 11.3663 42.1 11.3663C43.65 11.3663 43.65 10.333 45.2 10.333C46.4271 10.333 46.75 11.3663 48.3 11.3663C49.85 11.3663 49.85 10.333 51.4 10.333C52.95 10.333 52.95 11.3663 54.5 11.3663C56.05 11.3663 56.05 10.333 57.6 10.333C59.15 10.333 59.15 11.3663 60.7 11.3663C62.25 11.3663 62.25 10.333 63.8 10.333C65.35 10.333 65.35 11.3663 66.9 11.3663C68.45 11.3663 68.45 10.333 70 10.333" stroke="#DCDCDC" stroke-linecap="round"/>
<path d="M8 13.4336C9.55 13.4336 9.55 14.4669 11.1 14.4669C12.65 14.4669 12.65 13.4336 14.2 13.4336C15.75 13.4336 15.75 14.4669 17.3 14.4669C18.85 14.4669 18.85 13.4336 20.4 13.4336C21.95 13.4336 21.95 14.4669 23.5 14.4669C25.05 14.4669 25.05 13.4336 26.6 13.4336C28.15 13.4336 28.15 14.4669 29.7 14.4669C31.25 14.4669 31.25 13.4336 32.8 13.4336C34.35 13.4336 34.35 14.4669 35.9 14.4669C37.45 14.4669 37.45 13.4336 39 13.4336C40.55 13.4336 40.55 14.4669 42.1 14.4669C43.65 14.4669 43.65 13.4336 45.2 13.4336C46.4271 13.4336 46.75 14.4669 48.3 14.4669C49.85 14.4669 49.85 13.4336 51.4 13.4336C52.95 13.4336 52.95 14.4669 54.5 14.4669C56.05 14.4669 56.05 13.4336 57.6 13.4336C59.15 13.4336 59.15 14.4669 60.7 14.4669C62.25 14.4669 62.25 13.4336 63.8 13.4336C65.35 13.4336 65.35 14.4669 66.9 14.4669C68.45 14.4669 68.45 13.4336 70 13.4336" stroke="#DCDCDC" stroke-linecap="round"/>
<path d="M8 16.5332C9.55 16.5332 9.55 17.5665 11.1 17.5665C12.65 17.5665 12.65 16.5332 14.2 16.5332C15.75 16.5332 15.75 17.5665 17.3 17.5665C18.85 17.5665 18.85 16.5332 20.4 16.5332C21.95 16.5332 21.95 17.5665 23.5 17.5665C25.05 17.5665 25.05 16.5332 26.6 16.5332C28.15 16.5332 28.15 17.5665 29.7 17.5665C31.25 17.5665 31.25 16.5332 32.8 16.5332C34.35 16.5332 34.35 17.5665 35.9 17.5665C37.45 17.5665 37.45 16.5332 39 16.5332C40.55 16.5332 40.55 17.5665 42.1 17.5665C43.65 17.5665 43.65 16.5332 45.2 16.5332C46.4271 16.5332 46.75 17.5665 48.3 17.5665C49.85 17.5665 49.85 16.5332 51.4 16.5332C52.95 16.5332 52.95 17.5665 54.5 17.5665C56.05 17.5665 56.05 16.5332 57.6 16.5332C59.15 16.5332 59.15 17.5665 60.7 17.5665C62.25 17.5665 62.25 16.5332 63.8 16.5332C65.35 16.5332 65.35 17.5665 66.9 17.5665C68.45 17.5665 68.45 16.5332 70 16.5332" stroke="#DCDCDC" stroke-linecap="round"/>
<path d="M8 19.6338C9.55 19.6338 9.55 20.6671 11.1 20.6671C12.65 20.6671 12.65 19.6338 14.2 19.6338C15.75 19.6338 15.75 20.6671 17.3 20.6671C18.85 20.6671 18.85 19.6338 20.4 19.6338C21.95 19.6338 21.95 20.6671 23.5 20.6671C25.05 20.6671 25.05 19.6338 26.6 19.6338C28.15 19.6338 28.15 20.6671 29.7 20.6671C31.25 20.6671 31.25 19.6338 32.8 19.6338C34.35 19.6338 34.35 20.6671 35.9 20.6671C37.45 20.6671 37.45 19.6338 39 19.6338C40.55 19.6338 40.55 20.6671 42.1 20.6671C43.65 20.6671 43.65 19.6338 45.2 19.6338C46.4271 19.6338 46.75 20.6671 48.3 20.6671C49.85 20.6671 49.85 19.6338 51.4 19.6338C52.95 19.6338 52.95 20.6671 54.5 20.6671C56.05 20.6671 56.05 19.6338 57.6 19.6338C59.15 19.6338 59.15 20.6671 60.7 20.6671C62.25 20.6671 62.25 19.6338 63.8 19.6338C65.35 19.6338 65.35 20.6671 66.9 20.6671C68.45 20.6671 68.45 19.6338 70 19.6338" stroke="#DCDCDC" stroke-linecap="round"/>
<path d="M8 22.7334C9.55 22.7334 9.55 23.7667 11.1 23.7667C12.65 23.7667 12.65 22.7334 14.2 22.7334C15.75 22.7334 15.75 23.7667 17.3 23.7667C18.85 23.7667 18.85 22.7334 20.4 22.7334C21.95 22.7334 21.95 23.7667 23.5 23.7667C25.05 23.7667 25.05 22.7334 26.6 22.7334C28.15 22.7334 28.15 23.7667 29.7 23.7667C31.25 23.7667 31.25 22.7334 32.8 22.7334C34.35 22.7334 34.35 23.7667 35.9 23.7667C37.45 23.7667 37.45 22.7334 39 22.7334C40.55 22.7334 40.55 23.7667 42.1 23.7667C43.65 23.7667 43.65 22.7334 45.2 22.7334C46.4271 22.7334 46.75 23.7667 48.3 23.7667C49.85 23.7667 49.85 22.7334 51.4 22.7334C52.95 22.7334 52.95 23.7667 54.5 23.7667C56.05 23.7667 56.05 22.7334 57.6 22.7334C59.15 22.7334 59.15 23.7667 60.7 23.7667C62.25 23.7667 62.25 22.7334 63.8 22.7334C65.35 22.7334 65.35 23.7667 66.9 23.7667C68.45 23.7667 68.45 22.7334 70 22.7334" stroke="#DCDCDC" stroke-linecap="round"/>
<path d="M8 25.833C9.55 25.833 9.55 26.8663 11.1 26.8663C12.65 26.8663 12.65 25.833 14.2 25.833C15.75 25.833 15.75 26.8663 17.3 26.8663C18.85 26.8663 18.85 25.833 20.4 25.833C21.95 25.833 21.95 26.8663 23.5 26.8663C25.05 26.8663 25.05 25.833 26.6 25.833C28.15 25.833 28.15 26.8663 29.7 26.8663C31.25 26.8663 31.25 25.833 32.8 25.833C34.35 25.833 34.35 26.8663 35.9 26.8663C37.45 26.8663 37.45 25.833 39 25.833C40.55 25.833 40.55 26.8663 42.1 26.8663C43.65 26.8663 43.65 25.833 45.2 25.833C46.4271 25.833 46.75 26.8663 48.3 26.8663C49.85 26.8663 49.85 25.833 51.4 25.833C52.95 25.833 52.95 26.8663 54.5 26.8663C56.05 26.8663 56.05 25.833 57.6 25.833C59.15 25.833 59.15 26.8663 60.7 26.8663C62.25 26.8663 62.25 25.833 63.8 25.833C65.35 25.833 65.35 26.8663 66.9 26.8663C68.45 26.8663 68.45 25.833 70 25.833" stroke="#DCDCDC" stroke-linecap="round"/>
<path d="M8 28.9336C9.55 28.9336 9.55 29.9669 11.1 29.9669C12.65 29.9669 12.65 28.9336 14.2 28.9336C15.75 28.9336 15.75 29.9669 17.3 29.9669C18.85 29.9669 18.85 28.9336 20.4 28.9336C21.95 28.9336 21.95 29.9669 23.5 29.9669C25.05 29.9669 25.05 28.9336 26.6 28.9336C28.15 28.9336 28.15 29.9669 29.7 29.9669C31.25 29.9669 31.25 28.9336 32.8 28.9336C34.35 28.9336 34.35 29.9669 35.9 29.9669C37.45 29.9669 37.45 28.9336 39 28.9336C40.55 28.9336 40.55 29.9669 42.1 29.9669C43.65 29.9669 43.65 28.9336 45.2 28.9336C46.4271 28.9336 46.75 29.9669 48.3 29.9669C49.85 29.9669 49.85 28.9336 51.4 28.9336C52.95 28.9336 52.95 29.9669 54.5 29.9669C56.05 29.9669 56.05 28.9336 57.6 28.9336C59.15 28.9336 59.15 29.9669 60.7 29.9669C62.25 29.9669 62.25 28.9336 63.8 28.9336C65.35 28.9336 65.35 29.9669 66.9 29.9669C68.45 29.9669 68.45 28.9336 70 28.9336" stroke="#DCDCDC" stroke-linecap="round"/>
<path d="M8 32.0332C9.55 32.0332 9.55 33.0665 11.1 33.0665C12.65 33.0665 12.65 32.0332 14.2 32.0332C15.75 32.0332 15.75 33.0665 17.3 33.0665C18.85 33.0665 18.85 32.0332 20.4 32.0332C21.95 32.0332 21.95 33.0665 23.5 33.0665C25.05 33.0665 25.05 32.0332 26.6 32.0332C28.15 32.0332 28.15 33.0665 29.7 33.0665C31.25 33.0665 31.25 32.0332 32.8 32.0332C34.35 32.0332 34.35 33.0665 35.9 33.0665C37.45 33.0665 37.45 32.0332 39 32.0332C40.55 32.0332 40.55 33.0665 42.1 33.0665C43.65 33.0665 43.65 32.0332 45.2 32.0332C46.4271 32.0332 46.75 33.0665 48.3 33.0665C49.85 33.0665 49.85 32.0332 51.4 32.0332C52.95 32.0332 52.95 33.0665 54.5 33.0665C56.05 33.0665 56.05 32.0332 57.6 32.0332C59.15 32.0332 59.15 33.0665 60.7 33.0665C62.25 33.0665 62.25 32.0332 63.8 32.0332C65.35 32.0332 65.35 33.0665 66.9 33.0665C68.45 33.0665 68.45 32.0332 70 32.0332" stroke="#DCDCDC" stroke-linecap="round"/>
<path d="M8 35.1338C9.55 35.1338 9.55 36.1671 11.1 36.1671C12.65 36.1671 12.65 35.1338 14.2 35.1338C15.75 35.1338 15.75 36.1671 17.3 36.1671C18.85 36.1671 18.85 35.1338 20.4 35.1338C21.95 35.1338 21.95 36.1671 23.5 36.1671C25.05 36.1671 25.05 35.1338 26.6 35.1338C28.15 35.1338 28.15 36.1671 29.7 36.1671C31.25 36.1671 31.25 35.1338 32.8 35.1338C34.35 35.1338 34.35 36.1671 35.9 36.1671C37.45 36.1671 37.45 35.1338 39 35.1338C40.55 35.1338 40.55 36.1671 42.1 36.1671C43.65 36.1671 43.65 35.1338 45.2 35.1338C46.4271 35.1338 46.75 36.1671 48.3 36.1671C49.85 36.1671 49.85 35.1338 51.4 35.1338C52.95 35.1338 52.95 36.1671 54.5 36.1671C56.05 36.1671 56.05 35.1338 57.6 35.1338C59.15 35.1338 59.15 36.1671 60.7 36.1671C62.25 36.1671 62.25 35.1338 63.8 35.1338C65.35 35.1338 65.35 36.1671 66.9 36.1671C68.45 36.1671 68.45 35.1338 70 35.1338" stroke="#DCDCDC" stroke-linecap="round"/>
<path d="M8 38.2334C9.55 38.2334 9.55 39.2667 11.1 39.2667C12.65 39.2667 12.65 38.2334 14.2 38.2334C15.75 38.2334 15.75 39.2667 17.3 39.2667C18.85 39.2667 18.85 38.2334 20.4 38.2334C21.95 38.2334 21.95 39.2667 23.5 39.2667C25.05 39.2667 25.05 38.2334 26.6 38.2334C28.15 38.2334 28.15 39.2667 29.7 39.2667C31.25 39.2667 31.25 38.2334 32.8 38.2334C34.35 38.2334 34.35 39.2667 35.9 39.2667C37.45 39.2667 37.45 38.2334 39 38.2334C40.55 38.2334 40.55 39.2667 42.1 39.2667C43.65 39.2667 43.65 38.2334 45.2 38.2334C46.4271 38.2334 46.75 39.2667 48.3 39.2667C49.85 39.2667 49.85 38.2334 51.4 38.2334C52.95 38.2334 52.95 39.2667 54.5 39.2667C56.05 39.2667 56.05 38.2334 57.6 38.2334C59.15 38.2334 59.15 39.2667 60.7 39.2667C62.25 39.2667 62.25 38.2334 63.8 38.2334C65.35 38.2334 65.35 39.2667 66.9 39.2667C68.45 39.2667 68.45 38.2334 70 38.2334" stroke="#DCDCDC" stroke-linecap="round"/>
<path d="M8 41.333C9.55 41.333 9.55 42.3663 11.1 42.3663C12.65 42.3663 12.65 41.333 14.2 41.333C15.75 41.333 15.75 42.3663 17.3 42.3663C18.85 42.3663 18.85 41.333 20.4 41.333C21.95 41.333 21.95 42.3663 23.5 42.3663C25.05 42.3663 25.05 41.333 26.6 41.333C28.15 41.333 28.15 42.3663 29.7 42.3663C31.25 42.3663 31.25 41.333 32.8 41.333C34.35 41.333 34.35 42.3663 35.9 42.3663C37.45 42.3663 37.45 41.333 39 41.333C40.55 41.333 40.55 42.3663 42.1 42.3663C43.65 42.3663 43.65 41.333 45.2 41.333C46.4271 41.333 46.75 42.3663 48.3 42.3663C49.85 42.3663 49.85 41.333 51.4 41.333C52.95 41.333 52.95 42.3663 54.5 42.3663C56.05 42.3663 56.05 41.333 57.6 41.333C59.15 41.333 59.15 42.3663 60.7 42.3663C62.25 42.3663 62.25 41.333 63.8 41.333C65.35 41.333 65.35 42.3663 66.9 42.3663C68.45 42.3663 68.45 41.333 70 41.333" stroke="#DCDCDC" stroke-linecap="round"/>
<path d="M8 44.4336C9.55 44.4336 9.55 45.4669 11.1 45.4669C12.65 45.4669 12.65 44.4336 14.2 44.4336C15.75 44.4336 15.75 45.4669 17.3 45.4669C18.85 45.4669 18.85 44.4336 20.4 44.4336C21.95 44.4336 21.95 45.4669 23.5 45.4669C25.05 45.4669 25.05 44.4336 26.6 44.4336C28.15 44.4336 28.15 45.4669 29.7 45.4669C31.25 45.4669 31.25 44.4336 32.8 44.4336C34.35 44.4336 34.35 45.4669 35.9 45.4669C37.45 45.4669 37.45 44.4336 39 44.4336C40.55 44.4336 40.55 45.4669 42.1 45.4669C43.65 45.4669 43.65 44.4336 45.2 44.4336C46.4271 44.4336 46.75 45.4669 48.3 45.4669C49.85 45.4669 49.85 44.4336 51.4 44.4336C52.95 44.4336 52.95 45.4669 54.5 45.4669C56.05 45.4669 56.05 44.4336 57.6 44.4336C59.15 44.4336 59.15 45.4669 60.7 45.4669C62.25 45.4669 62.25 44.4336 63.8 44.4336C65.35 44.4336 65.35 45.4669 66.9 45.4669C68.45 45.4669 68.45 44.4336 70 44.4336" stroke="#DCDCDC" stroke-linecap="round"/>
<path d="M8 47.5332C9.55 47.5332 9.55 48.5665 11.1 48.5665C12.65 48.5665 12.65 47.5332 14.2 47.5332C15.75 47.5332 15.75 48.5665 17.3 48.5665C18.85 48.5665 18.85 47.5332 20.4 47.5332C21.95 47.5332 21.95 48.5665 23.5 48.5665C25.05 48.5665 25.05 47.5332 26.6 47.5332C28.15 47.5332 28.15 48.5665 29.7 48.5665C31.25 48.5665 31.25 47.5332 32.8 47.5332C34.35 47.5332 34.35 48.5665 35.9 48.5665C37.45 48.5665 37.45 47.5332 39 47.5332C40.55 47.5332 40.55 48.5665 42.1 48.5665C43.65 48.5665 43.65 47.5332 45.2 47.5332C46.4271 47.5332 46.75 48.5665 48.3 48.5665C49.85 48.5665 49.85 47.5332 51.4 47.5332C52.95 47.5332 52.95 48.5665 54.5 48.5665C56.05 48.5665 56.05 47.5332 57.6 47.5332C59.15 47.5332 59.15 48.5665 60.7 48.5665C62.25 48.5665 62.25 47.5332 63.8 47.5332C65.35 47.5332 65.35 48.5665 66.9 48.5665C68.45 48.5665 68.45 47.5332 70 47.5332" stroke="#DCDCDC" stroke-linecap="round"/>
<path d="M8 50.6338C9.55 50.6338 9.55 51.6671 11.1 51.6671C12.65 51.6671 12.65 50.6338 14.2 50.6338C15.75 50.6338 15.75 51.6671 17.3 51.6671C18.85 51.6671 18.85 50.6338 20.4 50.6338C21.95 50.6338 21.95 51.6671 23.5 51.6671C25.05 51.6671 25.05 50.6338 26.6 50.6338C28.15 50.6338 28.15 51.6671 29.7 51.6671C31.25 51.6671 31.25 50.6338 32.8 50.6338C34.35 50.6338 34.35 51.6671 35.9 51.6671C37.45 51.6671 37.45 50.6338 39 50.6338C40.55 50.6338 40.55 51.6671 42.1 51.6671C43.65 51.6671 43.65 50.6338 45.2 50.6338C46.4271 50.6338 46.75 51.6671 48.3 51.6671C49.85 51.6671 49.85 50.6338 51.4 50.6338C52.95 50.6338 52.95 51.6671 54.5 51.6671C56.05 51.6671 56.05 50.6338 57.6 50.6338C59.15 50.6338 59.15 51.6671 60.7 51.6671C62.25 51.6671 62.25 50.6338 63.8 50.6338C65.35 50.6338 65.35 51.6671 66.9 51.6671C68.45 51.6671 68.45 50.6338 70 50.6338" stroke="#DCDCDC" stroke-linecap="round"/>
<path d="M8 53.7334C9.55 53.7334 9.55 54.7667 11.1 54.7667C12.65 54.7667 12.65 53.7334 14.2 53.7334C15.75 53.7334 15.75 54.7667 17.3 54.7667C18.85 54.7667 18.85 53.7334 20.4 53.7334C21.95 53.7334 21.95 54.7667 23.5 54.7667C25.05 54.7667 25.05 53.7334 26.6 53.7334C28.15 53.7334 28.15 54.7667 29.7 54.7667C31.25 54.7667 31.25 53.7334 32.8 53.7334C34.35 53.7334 34.35 54.7667 35.9 54.7667C37.45 54.7667 37.45 53.7334 39 53.7334C40.55 53.7334 40.55 54.7667 42.1 54.7667C43.65 54.7667 43.65 53.7334 45.2 53.7334C46.4271 53.7334 46.75 54.7667 48.3 54.7667C49.85 54.7667 49.85 53.7334 51.4 53.7334C52.95 53.7334 52.95 54.7667 54.5 54.7667C56.05 54.7667 56.05 53.7334 57.6 53.7334C59.15 53.7334 59.15 54.7667 60.7 54.7667C62.25 54.7667 62.25 53.7334 63.8 53.7334C65.35 53.7334 65.35 54.7667 66.9 54.7667C68.45 54.7667 68.45 53.7334 70 53.7334" stroke="#DCDCDC" stroke-linecap="round"/>
<path d="M8 56.833C9.55 56.833 9.55 57.8663 11.1 57.8663C12.65 57.8663 12.65 56.833 14.2 56.833C15.75 56.833 15.75 57.8663 17.3 57.8663C18.85 57.8663 18.85 56.833 20.4 56.833C21.95 56.833 21.95 57.8663 23.5 57.8663C25.05 57.8663 25.05 56.833 26.6 56.833C28.15 56.833 28.15 57.8663 29.7 57.8663C31.25 57.8663 31.25 56.833 32.8 56.833C34.35 56.833 34.35 57.8663 35.9 57.8663C37.45 57.8663 37.45 56.833 39 56.833C40.55 56.833 40.55 57.8663 42.1 57.8663C43.65 57.8663 43.65 56.833 45.2 56.833C46.4271 56.833 46.75 57.8663 48.3 57.8663C49.85 57.8663 49.85 56.833 51.4 56.833C52.95 56.833 52.95 57.8663 54.5 57.8663C56.05 57.8663 56.05 56.833 57.6 56.833C59.15 56.833 59.15 57.8663 60.7 57.8663C62.25 57.8663 62.25 56.833 63.8 56.833C65.35 56.833 65.35 57.8663 66.9 57.8663C68.45 57.8663 68.45 56.833 70 56.833" stroke="#DCDCDC" stroke-linecap="round"/>
<path d="M8 59.9336C9.55 59.9336 9.55 60.9669 11.1 60.9669C12.65 60.9669 12.65 59.9336 14.2 59.9336C15.75 59.9336 15.75 60.9669 17.3 60.9669C18.85 60.9669 18.85 59.9336 20.4 59.9336C21.95 59.9336 21.95 60.9669 23.5 60.9669C25.05 60.9669 25.05 59.9336 26.6 59.9336C28.15 59.9336 28.15 60.9669 29.7 60.9669C31.25 60.9669 31.25 59.9336 32.8 59.9336C34.35 59.9336 34.35 60.9669 35.9 60.9669C37.45 60.9669 37.45 59.9336 39 59.9336C40.55 59.9336 40.55 60.9669 42.1 60.9669C43.65 60.9669 43.65 59.9336 45.2 59.9336C46.4271 59.9336 46.75 60.9669 48.3 60.9669C49.85 60.9669 49.85 59.9336 51.4 59.9336C52.95 59.9336 52.95 60.9669 54.5 60.9669C56.05 60.9669 56.05 59.9336 57.6 59.9336C59.15 59.9336 59.15 60.9669 60.7 60.9669C62.25 60.9669 62.25 59.9336 63.8 59.9336C65.35 59.9336 65.35 60.9669 66.9 60.9669C68.45 60.9669 68.45 59.9336 70 59.9336" stroke="#DCDCDC" stroke-linecap="round"/>
<path d="M0 23C0 17.4772 4.47715 13 10 13L50 13C55.5228 13 60 17.4772 60 23V63C60 68.5228 55.5228 73 50 73H10C4.47715 73 0 68.5228 0 63V23Z" fill="#FFC26D"/>
</svg>
