<svg width="19" height="19" viewBox="0 0 19 19" fill="none" xmlns="http://www.w3.org/2000/svg">
<path d="M0 18.2184C0 18.2931 0.0296665 18.3647 0.0824733 18.4175C0.13528 18.4703 0.206901 18.5 0.281581 18.5H17.8021C17.8394 18.5003 17.8763 18.4931 17.9106 18.4788C17.945 18.4644 17.9761 18.4433 18.0021 18.4166L18.0037 18.4155C18.0054 18.4138 18.0054 18.4104 18.0077 18.4088C18.0357 18.3771 18.0563 18.3396 18.0679 18.2989C18.0719 18.286 18.0736 18.2736 18.0758 18.2601C18.0781 18.246 18.0843 18.2336 18.0843 18.219C18.0843 18.1964 18.0764 18.1767 18.0713 18.1559C18.0696 18.148 18.073 18.1401 18.0702 18.1322L16.2906 12.6611C16.2771 12.6188 16.2535 12.5803 16.2219 12.5491L6.58225 2.90883C6.57211 2.89306 6.56479 2.87617 6.55127 2.86209L4.44561 0.756424C4.28092 0.592213 4.05785 0.5 3.82528 0.5C3.59272 0.5 3.36964 0.592213 3.20496 0.756424L0.256802 3.70458C0.0912324 3.87015 0 4.09035 0 4.32462C0 4.5589 0.0912324 4.77966 0.256802 4.94523L2.31572 7.00415C2.32586 7.01936 2.33262 7.03681 2.34614 7.05033L11.9706 16.7395C12.0036 16.7732 12.0447 16.7978 12.09 16.8111L15.8705 17.9374H0.281581C0.24463 17.9373 0.208027 17.9445 0.173867 17.9586C0.139708 17.9727 0.108662 17.9934 0.0825073 18.0195C0.0563527 18.0456 0.0356027 18.0766 0.021445 18.1107C0.0072873 18.1449 -7.41985e-08 18.1815 0 18.2184ZM3.58284 6.21291L12.4172 14.934L12.0922 16.0615L2.94365 6.8521L3.58284 6.21291ZM12.8491 14.5697L3.98043 5.81531L5.35286 4.44289L14.1421 13.2553V14.5697H12.8491ZM14.493 12.8098L5.75102 4.04473L6.33614 3.4596L15.4656 12.589L14.493 12.8098ZM12.946 15.1328H14.4237C14.4984 15.1328 14.57 15.1032 14.6228 15.0504C14.6756 14.9976 14.7053 14.9259 14.7053 14.8513V13.3392L15.8356 13.0824L17.3691 17.796L12.5889 16.3718L12.946 15.1328ZM0.563163 4.32462C0.563163 4.24071 0.595826 4.16243 0.654958 4.10274L3.60311 1.15458C3.66212 1.09581 3.742 1.06281 3.82528 1.06281C3.90856 1.06281 3.98845 1.09581 4.04745 1.15458L5.94643 3.05356L2.55451 6.44549L0.655521 4.54651C0.62612 4.51754 0.602804 4.48299 0.586943 4.44489C0.571083 4.40679 0.562998 4.3659 0.563163 4.32462Z" fill="#292929"/>
</svg>
