<svg width="1440" height="71" viewBox="0 0 1440 71" fill="none" xmlns="http://www.w3.org/2000/svg">
<path d="M1453.97 23.6878C1450.39 22.7448 1447.22 22.2581 1443.76 24.4483C1437.77 26.2126 1432.96 28.3115 1426.71 27.5814C1421.01 28.9807 1415.28 33.8477 1409.48 28.9199C1400.83 22.3798 1392.4 24.5396 1383.81 23.627C1372.4 19.7029 1360.87 21.7714 1349.43 23.6878C1343.03 23.6574 1339.57 25.6042 1333.87 26.3647C1331.43 28.7678 1330.04 30.8667 1327.5 27.1556C1320.4 28.2811 1312.13 33.939 1305.22 27.2468C1302.02 27.7944 1299.49 19.8246 1296.29 23.9616C1293.34 27.1556 1290.24 23.8703 1287.26 23.6574C1282.57 29.2849 1281.46 23.5053 1277.18 20.9805C1274.04 13.9234 1270.78 22.5927 1267.52 20.1288C1257.53 22.7144 1247.55 18.6687 1237.6 20.2201C1231.42 22.5319 1224.74 10.6685 1218.65 20.068C1211.68 16.0831 1205.82 24.4787 1199.13 26.7905C1196.03 32.996 1193.24 20.5547 1190.17 29.7412C1180.69 36.3117 1171.57 28.7982 1161.58 32.3268C1156.39 32.9352 1151.44 37.6501 1146.53 30.6842C1143.17 38.1064 1140.51 22.7448 1137.31 25.3C1131.67 14.7447 1125.71 17.4824 1119.57 21.9539C1112.72 20.7372 1106.07 22.8057 1099.38 23.6574C1092.69 25.0263 1086.01 21.4368 1079.1 25.4825C1073.3 24.7221 1069.12 23.0186 1064.08 27.1252C1056.76 26.6993 1049.54 30.9579 1042.44 27.5206C1036.45 31.7792 1029.48 15.5356 1023.36 27.1252C1015.44 31.7488 1007.49 22.3798 999.565 27.1252C991.643 16.8131 983.689 40.9962 975.767 27.1252C967.497 29.9845 959.195 21.8627 950.924 27.1556C943.984 17.1782 939.516 21.0414 932.957 22.1973C927.665 19.855 922.088 20.2201 916.765 21.6802C913.691 20.798 911.441 25.1783 908.621 18.3949C905.262 8.53921 902.727 12.4024 899.305 16.4481C895.566 7.7179 893.126 13.4975 889.101 13.1933C881.781 16.509 871.99 22.7448 864.955 13.0716C861.628 10.9423 859.315 11.429 855.829 8.32628C851.678 5.40607 848.668 8.93466 844.834 9.93848C839.352 11.5203 834.123 18.182 828.198 15.201C824.744 22.106 821.702 12.4937 818.343 13.7104C814.857 6.04486 809.755 7.7179 806.238 13.68C804.178 13.3454 802.657 16.1439 800.281 16.4481C796.13 15.7181 791.535 20.7372 787.289 16.7827C782.694 11.4594 778.321 20.068 774.043 15.6268C768.815 10.8206 762.921 6.89659 756.869 9.39094C750.816 14.2275 744.574 3.09423 738.617 8.56963C731.455 9.60387 724.325 12.2199 717.069 13.1629C709.844 13.2846 702.493 13.2237 694.983 15.0793C688.582 18.3037 682.149 14.1971 675.97 13.4367C671.312 11.429 668.65 9.69513 663.96 8.50879C657.591 11.6115 651.729 7.90042 646.057 10.8206C642.286 15.1401 638.642 14.8968 634.491 16.6002C631.544 16.6002 628.153 16.8132 625.143 16.7523C616.809 14.5926 606.099 18.9121 598.81 18.4862C593.455 23.4445 588.195 19.9159 582.111 20.2505C577.39 18.8512 575.045 25.2392 571.147 18.9729C570.133 19.2467 569.341 14.8663 568.2 17.1173C565.824 12.5849 562.021 15.6268 559.581 16.6915C555.779 15.8397 557.014 17.7257 553.941 19.3683C548.966 24.3875 543.42 18.3341 537.622 21.9539C530.999 25.0871 524.661 19.9463 518.387 22.1365C512.113 22.7448 505.87 27.8856 499.47 24.9958C491.579 29.3762 484.291 30.2583 476.021 28.9199C470.095 29.9845 462.617 27.8552 456.818 28.7374C455.107 28.0377 454.061 31.5967 452.382 30.5929C445.474 33.9998 438.027 34.9732 430.834 32.3572C425.289 30.5017 419.712 31.11 414.166 32.3268C407.068 28.5244 404.376 25.2088 397.5 28.7374C391.194 37.0417 379.627 35.8554 372.782 30.5929C364.638 31.323 356.58 27.5814 348.5 28.9199C345.109 29.6195 339.542 31.0492 336.753 27.6119C335.01 30.167 336.848 30.6842 335.01 32.7222C330.416 30.5929 326.296 36.0075 322.05 27.6119C319.705 25.0871 317.709 28.5548 315.142 23.992C311.34 25.1479 307.03 30.3496 303.133 23.6574C296.605 19.0642 291.06 25.0871 284.69 25.4521C274.899 29.072 265.393 24.8742 255.76 24.1137C250.721 17.7257 249.644 19.4596 245.239 20.1592C242.102 13.7713 242.229 19.7334 239.092 18.6687C234.402 19.4596 229.586 9.3301 224.959 12.8891C215.96 8.87382 204.204 1.66454 194.507 11.6115C189.596 11.0336 180.406 11.3378 176.319 11.3073C175.019 9.4822 174.386 7.68748 173.181 7.7179C171.819 1.117 169.696 3.368 168.08 5.10188C162.027 -1.65112 156.038 4.0068 149.542 2.97256C144.821 4.03722 141.589 8.38712 137.089 1.63412C130.942 -0.403941 124.192 1.57329 117.886 1.23868C115.89 -0.921062 113.704 0.11318 111.802 1.54287C109.648 0.569464 109.014 3.33758 106.542 4.82811C103.31 7.65707 98.7788 4.25015 95.3565 4.70643C88.5119 2.60753 81.6674 0.539044 74.8229 4.70643C66.2989 6.50115 60.0247 7.20078 52.1979 10.3339C44.4344 11.3378 37.3363 14.7142 28.9074 13.315C24.5345 14.1667 17.69 10.6077 13.5072 13.1325C10.6553 19.7638 10.1166 18.3645 7.74003 17.3303C6.15565 16.3569 4.53958 19.855 2.86013 18.8816C-5.2836 17.4824 -12.2549 24.8437 -21.0324 21.9539C-21.0324 22.8361 -30 47.0191 -30 46.1065C-26.8629 50.2739 -25.1835 48.2663 -22.3633 49.2701C-19.7332 48.4184 -16.9764 47.9925 -14.2829 49.5439C-9.78326 45.4982 -4.39635 52.7987 0.0399246 49.4222C4.85645 49.483 8.69066 55.9319 13.5072 54.3501C19.3694 55.6885 25.3267 52.2207 30.6185 52.2512C37.6532 49.5743 43.7689 42.4259 51.374 37.3459C52.9584 39.171 55.479 41.422 57 44.3727C61.975 43.673 61.3419 36.3421 66 44.3727C70.1828 44.3727 72.6835 39.8801 77.5 43.5C82.5 42 84.9053 44.8594 89.5 44.3727C93.1441 46.867 95.6975 37.8117 99.5 43.5C104 46.5 120.93 33.8477 126 44.3727C133.7 45.3157 139.909 39.5969 147.831 40.9049C155.056 42.0608 163.358 31.6272 170.678 40.8137C175.938 39.7794 181.674 46.0761 186.459 44.3727C191.877 44.3727 197.644 46.6541 203.412 49.1484C212.474 48.0229 223.248 43.7339 232.501 49.5439C238.553 50.639 244.732 49.0876 250.785 49.5135C257.154 44.4031 261.146 55.8102 267.579 54.8672C273.441 55.6277 280.603 57.7874 286.306 54.6543C288.208 58.0307 289.57 57.8482 291.44 56.5706C294.038 56.236 297.587 55.5972 300.249 56.4794C301.992 53.2246 304.273 55.5364 305.953 56.236C308.171 56.1752 308.995 54.9584 311.15 51.582C313.97 51.8861 320.117 55.3843 322.937 51.3082C327.691 50.8215 332.444 53.6504 336.753 52.9812C343.091 57.3007 347.59 59.9471 355.386 60.0384C361.121 53.62 367.015 58.3045 372.782 59.9471C377.821 61.6202 383.176 60.4034 387.707 58.9433C389.228 58.5783 390.464 55.2322 392.08 56.4794C395.312 58.3349 399.02 56.5706 402.474 54.7455C407.956 53.4071 413.533 57.9395 419.014 54.7759C422.754 56.7227 430.169 61.1943 433.559 54.4717C435.936 45.4678 436.791 48.5401 439.104 48.2663C444.46 44.7377 454.188 49.5743 460.43 46.1674C463.726 48.175 463.155 45.2548 466.895 47.1712C471.806 44.251 475.545 60.6772 480.679 54.9889C486.541 53.7113 492.403 60.008 498.487 56.5098C505.49 57.2703 512.493 59.43 519.496 56.5098C521.271 57.3615 523.647 59.0042 525.39 56.2969C530.777 59.2475 532.044 61.3768 536.703 63.202C540.759 69.3466 545.512 65.2704 549.726 63.3236C555.557 56.1752 560.785 65.7571 566.774 65.1488C572.763 60.8901 578.752 64.9663 584.773 65.1488C588.702 63.6887 593.233 64.3579 597.099 65.0575C600.427 62.1677 603.31 71.628 606.637 66.9435C615.256 68.8903 624.541 66.183 632.399 63.0803C637.121 62.7761 640.892 57.7874 645.772 56.6315C648.338 58.4262 649.923 49.696 652.299 53.8634C655.753 51.2473 659.271 55.1714 663.041 53.1029C668.555 60.0688 674.481 50.6085 679.963 53.2246C687.98 56.0535 693.683 50.426 700.813 43.4601C705.186 43.1559 711.492 46.2891 716.213 42.6388C722.266 46.3803 727.146 42.7605 732.944 45.8936C734.814 44.2206 736.652 54.7759 738.49 46.5628C740.296 46.9583 742.134 51.7645 743.94 49.3614C753.985 46.0153 764.537 61.4681 775.184 54.8976C781.965 53.1637 788.81 57.0269 795.591 54.6847C802.404 50.7911 809.153 52.5554 815.744 56.1752C821.448 60.7989 827.057 64.4491 832.412 54.4413C837.926 45.7719 840.651 50.0306 846.735 51.369C857.509 50.8823 868.251 49.8481 879.025 51.369C885.204 53.4983 891.415 52.1903 897.594 51.369C903.424 50.3043 907.765 48.9659 913.406 53.1333C924.782 55.8406 935.524 49.7872 945.664 56.5098C949.973 59.43 954.663 67.704 959.099 61.6202C966.229 61.4985 973.042 66.548 980.964 68.3732C989.995 71.5063 996.713 62.9586 1005.46 65.453C1016.96 68.2819 1028.21 57.8178 1040.03 63.4453C1047.22 60.4643 1057.3 66.3351 1064.11 63.1715C1069.53 62.6544 1072 60.2513 1078.21 56.5098C1083.66 52.0991 1089.72 63.8103 1095.13 56.3577C1100.93 57.7266 1106.16 57.6961 1111.96 60.1601C1115.92 67.3694 1120.23 56.6619 1124.26 59.9776C1130.97 60.4643 1137.72 54.928 1144.44 59.9776C1151.16 59.8863 1157.91 59.4909 1164.63 59.9776C1171.88 50.8215 1179.3 63.7191 1186.27 62.1069C1192.51 69.012 1196.57 68.3428 1203.6 68.6774C1211.62 73.5444 1216.85 66.6697 1224.36 64.6317C1230.92 64.9663 1237.48 64.0841 1244.07 63.0499C1251.32 62.8065 1257.76 61.894 1264.38 58.2741C1271.67 57.3007 1277.05 48.8747 1285.45 54.8368C1296.16 58.5783 1306.87 60.0688 1317.58 54.8368C1323.79 58.3349 1328.13 53.8634 1334.34 53.1333C1342.71 48.7834 1350.47 56.449 1358.68 54.4717C1366.98 55.5972 1375.86 59.8863 1384.25 56.5402C1390.46 57.2399 1395 57.8482 1400.7 62.4719C1407.48 67.2477 1416.23 58.9129 1423.58 63.4757C1429.76 66.5785 1434.03 60.4947 1439.74 60.0688C1445.13 60.2817 1458.05 60.9205 1461.03 53.1333C1461.03 46.8062 1470 15.5356 1470 20.3722C1466.99 28.3115 1458.15 23.262 1453.9 23.8399L1453.97 23.6878Z" fill="white"/>
</svg>
