<svg width="15" height="19" viewBox="0 0 15 19" fill="none" xmlns="http://www.w3.org/2000/svg">
<path d="M12.1147 18.5H2.26426C1.66374 18.5 1.08782 18.2614 0.663188 17.8368C0.238556 17.4122 0 16.8363 0 16.2357V15.4867C0 11.892 3.22522 8.96563 7.18949 8.96563C11.1538 8.96563 14.379 11.8902 14.379 15.4867V16.2357C14.379 16.8363 14.1404 17.4122 13.7158 17.8368C13.2912 18.2614 12.7152 18.5 12.1147 18.5ZM7.18949 9.87315C3.72426 9.87315 0.905706 12.391 0.905706 15.4885V16.2375C0.905706 16.5979 1.04884 16.9434 1.30362 17.1982C1.5584 17.453 1.90395 17.5961 2.26426 17.5961H12.1147C12.475 17.5961 12.8206 17.453 13.0754 17.1982C13.3301 16.9434 13.4733 16.5979 13.4733 16.2375V15.4867C13.4733 12.391 10.6547 9.87315 7.18949 9.87315ZM7.18949 7.60798C6.48654 7.60816 5.79932 7.39987 5.21475 7.00947C4.63019 6.61906 4.17452 6.06406 3.90539 5.41467C3.63626 4.76528 3.56575 4.05066 3.70278 3.3612C3.83981 2.67173 4.17822 2.03839 4.67522 1.54126C5.17221 1.04414 5.80547 0.705562 6.4949 0.568357C7.18434 0.431152 7.89897 0.50148 8.54843 0.770446C9.19789 1.03941 9.753 1.49494 10.1436 2.07941C10.5341 2.66388 10.7426 3.35104 10.7426 4.05399C10.7419 4.99619 10.3673 5.89961 9.70116 6.56593C9.03501 7.23225 8.13169 7.60702 7.18949 7.60798ZM7.18949 1.40661C6.66563 1.40643 6.15349 1.56162 5.71784 1.85255C5.2822 2.14348 4.94262 2.55708 4.74206 3.04102C4.54151 3.52497 4.48899 4.05753 4.59115 4.57133C4.6933 5.08513 4.94554 5.55709 5.31597 5.92752C5.68639 6.29794 6.15835 6.55018 6.67215 6.65234C7.18596 6.75449 7.71851 6.70197 8.20246 6.50142C8.68641 6.30086 9.1 5.96129 9.39093 5.52564C9.68186 5.08999 9.83705 4.57785 9.83687 4.05399C9.83615 3.35208 9.557 2.67913 9.06068 2.18281C8.56435 1.68648 7.8914 1.40733 7.18949 1.40661Z" fill="#292929"/>
</svg>
