<svg width="71" height="73" viewBox="0 0 71 73" fill="none" xmlns="http://www.w3.org/2000/svg">
<path d="M8 1.0332C9.55 1.0332 9.55 2.06654 11.1 2.06654C12.65 2.06654 12.65 1.0332 14.2 1.0332C15.75 1.0332 15.75 2.06654 17.3 2.06654C18.85 2.06654 18.85 1.0332 20.4 1.0332C21.95 1.0332 21.95 2.06654 23.5 2.06654C25.05 2.06654 25.05 1.0332 26.6 1.0332C28.15 1.0332 28.15 2.06654 29.7 2.06654C31.25 2.06654 31.25 1.0332 32.8 1.0332C34.35 1.0332 34.35 2.06654 35.9 2.06654C37.45 2.06654 37.45 1.0332 39 1.0332C40.55 1.0332 40.55 2.06654 42.1 2.06654C43.65 2.06654 43.65 1.0332 45.2 1.0332C46.4271 1.0332 46.75 2.06654 48.3 2.06654C49.85 2.06654 49.85 1.0332 51.4 1.0332C52.95 1.0332 52.95 2.06654 54.5 2.06654C56.05 2.06654 56.05 1.0332 57.6 1.0332C59.15 1.0332 59.15 2.06654 60.7 2.06654C62.25 2.06654 62.25 1.0332 63.8 1.0332C65.35 1.0332 65.35 2.06654 66.9 2.06654C68.45 2.06654 68.45 1.0332 70 1.0332" stroke="#DCDCDC" stroke-linecap="round"/>
<path d="M8 4.1333C9.55 4.1333 9.55 5.16663 11.1 5.16663C12.65 5.16663 12.65 4.1333 14.2 4.1333C15.75 4.1333 15.75 5.16663 17.3 5.16663C18.85 5.16663 18.85 4.1333 20.4 4.1333C21.95 4.1333 21.95 5.16663 23.5 5.16663C25.05 5.16663 25.05 4.1333 26.6 4.1333C28.15 4.1333 28.15 5.16663 29.7 5.16663C31.25 5.16663 31.25 4.1333 32.8 4.1333C34.35 4.1333 34.35 5.16663 35.9 5.16663C37.45 5.16663 37.45 4.1333 39 4.1333C40.55 4.1333 40.55 5.16663 42.1 5.16663C43.65 5.16663 43.65 4.1333 45.2 4.1333C46.4271 4.1333 46.75 5.16663 48.3 5.16663C49.85 5.16663 49.85 4.1333 51.4 4.1333C52.95 4.1333 52.95 5.16663 54.5 5.16663C56.05 5.16663 56.05 4.1333 57.6 4.1333C59.15 4.1333 59.15 5.16663 60.7 5.16663C62.25 5.16663 62.25 4.1333 63.8 4.1333C65.35 4.1333 65.35 5.16663 66.9 5.16663C68.45 5.16663 68.45 4.1333 70 4.1333" stroke="#DCDCDC" stroke-linecap="round"/>
<path d="M8 7.2334C9.55 7.2334 9.55 8.26673 11.1 8.26673C12.65 8.26673 12.65 7.2334 14.2 7.2334C15.75 7.2334 15.75 8.26673 17.3 8.26673C18.85 8.26673 18.85 7.2334 20.4 7.2334C21.95 7.2334 21.95 8.26673 23.5 8.26673C25.05 8.26673 25.05 7.2334 26.6 7.2334C28.15 7.2334 28.15 8.26673 29.7 8.26673C31.25 8.26673 31.25 7.2334 32.8 7.2334C34.35 7.2334 34.35 8.26673 35.9 8.26673C37.45 8.26673 37.45 7.2334 39 7.2334C40.55 7.2334 40.55 8.26673 42.1 8.26673C43.65 8.26673 43.65 7.2334 45.2 7.2334C46.4271 7.2334 46.75 8.26673 48.3 8.26673C49.85 8.26673 49.85 7.2334 51.4 7.2334C52.95 7.2334 52.95 8.26673 54.5 8.26673C56.05 8.26673 56.05 7.2334 57.6 7.2334C59.15 7.2334 59.15 8.26673 60.7 8.26673C62.25 8.26673 62.25 7.2334 63.8 7.2334C65.35 7.2334 65.35 8.26673 66.9 8.26673C68.45 8.26673 68.45 7.2334 70 7.2334" stroke="#DCDCDC" stroke-linecap="round"/>
<path d="M8 10.3335C9.55 10.3335 9.55 11.3668 11.1 11.3668C12.65 11.3668 12.65 10.3335 14.2 10.3335C15.75 10.3335 15.75 11.3668 17.3 11.3668C18.85 11.3668 18.85 10.3335 20.4 10.3335C21.95 10.3335 21.95 11.3668 23.5 11.3668C25.05 11.3668 25.05 10.3335 26.6 10.3335C28.15 10.3335 28.15 11.3668 29.7 11.3668C31.25 11.3668 31.25 10.3335 32.8 10.3335C34.35 10.3335 34.35 11.3668 35.9 11.3668C37.45 11.3668 37.45 10.3335 39 10.3335C40.55 10.3335 40.55 11.3668 42.1 11.3668C43.65 11.3668 43.65 10.3335 45.2 10.3335C46.4271 10.3335 46.75 11.3668 48.3 11.3668C49.85 11.3668 49.85 10.3335 51.4 10.3335C52.95 10.3335 52.95 11.3668 54.5 11.3668C56.05 11.3668 56.05 10.3335 57.6 10.3335C59.15 10.3335 59.15 11.3668 60.7 11.3668C62.25 11.3668 62.25 10.3335 63.8 10.3335C65.35 10.3335 65.35 11.3668 66.9 11.3668C68.45 11.3668 68.45 10.3335 70 10.3335" stroke="#DCDCDC" stroke-linecap="round"/>
<path d="M8 13.4331C9.55 13.4331 9.55 14.4664 11.1 14.4664C12.65 14.4664 12.65 13.4331 14.2 13.4331C15.75 13.4331 15.75 14.4664 17.3 14.4664C18.85 14.4664 18.85 13.4331 20.4 13.4331C21.95 13.4331 21.95 14.4664 23.5 14.4664C25.05 14.4664 25.05 13.4331 26.6 13.4331C28.15 13.4331 28.15 14.4664 29.7 14.4664C31.25 14.4664 31.25 13.4331 32.8 13.4331C34.35 13.4331 34.35 14.4664 35.9 14.4664C37.45 14.4664 37.45 13.4331 39 13.4331C40.55 13.4331 40.55 14.4664 42.1 14.4664C43.65 14.4664 43.65 13.4331 45.2 13.4331C46.4271 13.4331 46.75 14.4664 48.3 14.4664C49.85 14.4664 49.85 13.4331 51.4 13.4331C52.95 13.4331 52.95 14.4664 54.5 14.4664C56.05 14.4664 56.05 13.4331 57.6 13.4331C59.15 13.4331 59.15 14.4664 60.7 14.4664C62.25 14.4664 62.25 13.4331 63.8 13.4331C65.35 13.4331 65.35 14.4664 66.9 14.4664C68.45 14.4664 68.45 13.4331 70 13.4331" stroke="#DCDCDC" stroke-linecap="round"/>
<path d="M8 16.5332C9.55 16.5332 9.55 17.5665 11.1 17.5665C12.65 17.5665 12.65 16.5332 14.2 16.5332C15.75 16.5332 15.75 17.5665 17.3 17.5665C18.85 17.5665 18.85 16.5332 20.4 16.5332C21.95 16.5332 21.95 17.5665 23.5 17.5665C25.05 17.5665 25.05 16.5332 26.6 16.5332C28.15 16.5332 28.15 17.5665 29.7 17.5665C31.25 17.5665 31.25 16.5332 32.8 16.5332C34.35 16.5332 34.35 17.5665 35.9 17.5665C37.45 17.5665 37.45 16.5332 39 16.5332C40.55 16.5332 40.55 17.5665 42.1 17.5665C43.65 17.5665 43.65 16.5332 45.2 16.5332C46.4271 16.5332 46.75 17.5665 48.3 17.5665C49.85 17.5665 49.85 16.5332 51.4 16.5332C52.95 16.5332 52.95 17.5665 54.5 17.5665C56.05 17.5665 56.05 16.5332 57.6 16.5332C59.15 16.5332 59.15 17.5665 60.7 17.5665C62.25 17.5665 62.25 16.5332 63.8 16.5332C65.35 16.5332 65.35 17.5665 66.9 17.5665C68.45 17.5665 68.45 16.5332 70 16.5332" stroke="#DCDCDC" stroke-linecap="round"/>
<path d="M8 19.6333C9.55 19.6333 9.55 20.6666 11.1 20.6666C12.65 20.6666 12.65 19.6333 14.2 19.6333C15.75 19.6333 15.75 20.6666 17.3 20.6666C18.85 20.6666 18.85 19.6333 20.4 19.6333C21.95 19.6333 21.95 20.6666 23.5 20.6666C25.05 20.6666 25.05 19.6333 26.6 19.6333C28.15 19.6333 28.15 20.6666 29.7 20.6666C31.25 20.6666 31.25 19.6333 32.8 19.6333C34.35 19.6333 34.35 20.6666 35.9 20.6666C37.45 20.6666 37.45 19.6333 39 19.6333C40.55 19.6333 40.55 20.6666 42.1 20.6666C43.65 20.6666 43.65 19.6333 45.2 19.6333C46.4271 19.6333 46.75 20.6666 48.3 20.6666C49.85 20.6666 49.85 19.6333 51.4 19.6333C52.95 19.6333 52.95 20.6666 54.5 20.6666C56.05 20.6666 56.05 19.6333 57.6 19.6333C59.15 19.6333 59.15 20.6666 60.7 20.6666C62.25 20.6666 62.25 19.6333 63.8 19.6333C65.35 19.6333 65.35 20.6666 66.9 20.6666C68.45 20.6666 68.45 19.6333 70 19.6333" stroke="#DCDCDC" stroke-linecap="round"/>
<path d="M8 22.7334C9.55 22.7334 9.55 23.7667 11.1 23.7667C12.65 23.7667 12.65 22.7334 14.2 22.7334C15.75 22.7334 15.75 23.7667 17.3 23.7667C18.85 23.7667 18.85 22.7334 20.4 22.7334C21.95 22.7334 21.95 23.7667 23.5 23.7667C25.05 23.7667 25.05 22.7334 26.6 22.7334C28.15 22.7334 28.15 23.7667 29.7 23.7667C31.25 23.7667 31.25 22.7334 32.8 22.7334C34.35 22.7334 34.35 23.7667 35.9 23.7667C37.45 23.7667 37.45 22.7334 39 22.7334C40.55 22.7334 40.55 23.7667 42.1 23.7667C43.65 23.7667 43.65 22.7334 45.2 22.7334C46.4271 22.7334 46.75 23.7667 48.3 23.7667C49.85 23.7667 49.85 22.7334 51.4 22.7334C52.95 22.7334 52.95 23.7667 54.5 23.7667C56.05 23.7667 56.05 22.7334 57.6 22.7334C59.15 22.7334 59.15 23.7667 60.7 23.7667C62.25 23.7667 62.25 22.7334 63.8 22.7334C65.35 22.7334 65.35 23.7667 66.9 23.7667C68.45 23.7667 68.45 22.7334 70 22.7334" stroke="#DCDCDC" stroke-linecap="round"/>
<path d="M8 25.8335C9.55 25.8335 9.55 26.8668 11.1 26.8668C12.65 26.8668 12.65 25.8335 14.2 25.8335C15.75 25.8335 15.75 26.8668 17.3 26.8668C18.85 26.8668 18.85 25.8335 20.4 25.8335C21.95 25.8335 21.95 26.8668 23.5 26.8668C25.05 26.8668 25.05 25.8335 26.6 25.8335C28.15 25.8335 28.15 26.8668 29.7 26.8668C31.25 26.8668 31.25 25.8335 32.8 25.8335C34.35 25.8335 34.35 26.8668 35.9 26.8668C37.45 26.8668 37.45 25.8335 39 25.8335C40.55 25.8335 40.55 26.8668 42.1 26.8668C43.65 26.8668 43.65 25.8335 45.2 25.8335C46.4271 25.8335 46.75 26.8668 48.3 26.8668C49.85 26.8668 49.85 25.8335 51.4 25.8335C52.95 25.8335 52.95 26.8668 54.5 26.8668C56.05 26.8668 56.05 25.8335 57.6 25.8335C59.15 25.8335 59.15 26.8668 60.7 26.8668C62.25 26.8668 62.25 25.8335 63.8 25.8335C65.35 25.8335 65.35 26.8668 66.9 26.8668C68.45 26.8668 68.45 25.8335 70 25.8335" stroke="#DCDCDC" stroke-linecap="round"/>
<path d="M8 28.9331C9.55 28.9331 9.55 29.9664 11.1 29.9664C12.65 29.9664 12.65 28.9331 14.2 28.9331C15.75 28.9331 15.75 29.9664 17.3 29.9664C18.85 29.9664 18.85 28.9331 20.4 28.9331C21.95 28.9331 21.95 29.9664 23.5 29.9664C25.05 29.9664 25.05 28.9331 26.6 28.9331C28.15 28.9331 28.15 29.9664 29.7 29.9664C31.25 29.9664 31.25 28.9331 32.8 28.9331C34.35 28.9331 34.35 29.9664 35.9 29.9664C37.45 29.9664 37.45 28.9331 39 28.9331C40.55 28.9331 40.55 29.9664 42.1 29.9664C43.65 29.9664 43.65 28.9331 45.2 28.9331C46.4271 28.9331 46.75 29.9664 48.3 29.9664C49.85 29.9664 49.85 28.9331 51.4 28.9331C52.95 28.9331 52.95 29.9664 54.5 29.9664C56.05 29.9664 56.05 28.9331 57.6 28.9331C59.15 28.9331 59.15 29.9664 60.7 29.9664C62.25 29.9664 62.25 28.9331 63.8 28.9331C65.35 28.9331 65.35 29.9664 66.9 29.9664C68.45 29.9664 68.45 28.9331 70 28.9331" stroke="#DCDCDC" stroke-linecap="round"/>
<path d="M8 32.0332C9.55 32.0332 9.55 33.0665 11.1 33.0665C12.65 33.0665 12.65 32.0332 14.2 32.0332C15.75 32.0332 15.75 33.0665 17.3 33.0665C18.85 33.0665 18.85 32.0332 20.4 32.0332C21.95 32.0332 21.95 33.0665 23.5 33.0665C25.05 33.0665 25.05 32.0332 26.6 32.0332C28.15 32.0332 28.15 33.0665 29.7 33.0665C31.25 33.0665 31.25 32.0332 32.8 32.0332C34.35 32.0332 34.35 33.0665 35.9 33.0665C37.45 33.0665 37.45 32.0332 39 32.0332C40.55 32.0332 40.55 33.0665 42.1 33.0665C43.65 33.0665 43.65 32.0332 45.2 32.0332C46.4271 32.0332 46.75 33.0665 48.3 33.0665C49.85 33.0665 49.85 32.0332 51.4 32.0332C52.95 32.0332 52.95 33.0665 54.5 33.0665C56.05 33.0665 56.05 32.0332 57.6 32.0332C59.15 32.0332 59.15 33.0665 60.7 33.0665C62.25 33.0665 62.25 32.0332 63.8 32.0332C65.35 32.0332 65.35 33.0665 66.9 33.0665C68.45 33.0665 68.45 32.0332 70 32.0332" stroke="#DCDCDC" stroke-linecap="round"/>
<path d="M8 35.1333C9.55 35.1333 9.55 36.1666 11.1 36.1666C12.65 36.1666 12.65 35.1333 14.2 35.1333C15.75 35.1333 15.75 36.1666 17.3 36.1666C18.85 36.1666 18.85 35.1333 20.4 35.1333C21.95 35.1333 21.95 36.1666 23.5 36.1666C25.05 36.1666 25.05 35.1333 26.6 35.1333C28.15 35.1333 28.15 36.1666 29.7 36.1666C31.25 36.1666 31.25 35.1333 32.8 35.1333C34.35 35.1333 34.35 36.1666 35.9 36.1666C37.45 36.1666 37.45 35.1333 39 35.1333C40.55 35.1333 40.55 36.1666 42.1 36.1666C43.65 36.1666 43.65 35.1333 45.2 35.1333C46.4271 35.1333 46.75 36.1666 48.3 36.1666C49.85 36.1666 49.85 35.1333 51.4 35.1333C52.95 35.1333 52.95 36.1666 54.5 36.1666C56.05 36.1666 56.05 35.1333 57.6 35.1333C59.15 35.1333 59.15 36.1666 60.7 36.1666C62.25 36.1666 62.25 35.1333 63.8 35.1333C65.35 35.1333 65.35 36.1666 66.9 36.1666C68.45 36.1666 68.45 35.1333 70 35.1333" stroke="#DCDCDC" stroke-linecap="round"/>
<path d="M8 38.2334C9.55 38.2334 9.55 39.2667 11.1 39.2667C12.65 39.2667 12.65 38.2334 14.2 38.2334C15.75 38.2334 15.75 39.2667 17.3 39.2667C18.85 39.2667 18.85 38.2334 20.4 38.2334C21.95 38.2334 21.95 39.2667 23.5 39.2667C25.05 39.2667 25.05 38.2334 26.6 38.2334C28.15 38.2334 28.15 39.2667 29.7 39.2667C31.25 39.2667 31.25 38.2334 32.8 38.2334C34.35 38.2334 34.35 39.2667 35.9 39.2667C37.45 39.2667 37.45 38.2334 39 38.2334C40.55 38.2334 40.55 39.2667 42.1 39.2667C43.65 39.2667 43.65 38.2334 45.2 38.2334C46.4271 38.2334 46.75 39.2667 48.3 39.2667C49.85 39.2667 49.85 38.2334 51.4 38.2334C52.95 38.2334 52.95 39.2667 54.5 39.2667C56.05 39.2667 56.05 38.2334 57.6 38.2334C59.15 38.2334 59.15 39.2667 60.7 39.2667C62.25 39.2667 62.25 38.2334 63.8 38.2334C65.35 38.2334 65.35 39.2667 66.9 39.2667C68.45 39.2667 68.45 38.2334 70 38.2334" stroke="#DCDCDC" stroke-linecap="round"/>
<path d="M8 41.3335C9.55 41.3335 9.55 42.3668 11.1 42.3668C12.65 42.3668 12.65 41.3335 14.2 41.3335C15.75 41.3335 15.75 42.3668 17.3 42.3668C18.85 42.3668 18.85 41.3335 20.4 41.3335C21.95 41.3335 21.95 42.3668 23.5 42.3668C25.05 42.3668 25.05 41.3335 26.6 41.3335C28.15 41.3335 28.15 42.3668 29.7 42.3668C31.25 42.3668 31.25 41.3335 32.8 41.3335C34.35 41.3335 34.35 42.3668 35.9 42.3668C37.45 42.3668 37.45 41.3335 39 41.3335C40.55 41.3335 40.55 42.3668 42.1 42.3668C43.65 42.3668 43.65 41.3335 45.2 41.3335C46.4271 41.3335 46.75 42.3668 48.3 42.3668C49.85 42.3668 49.85 41.3335 51.4 41.3335C52.95 41.3335 52.95 42.3668 54.5 42.3668C56.05 42.3668 56.05 41.3335 57.6 41.3335C59.15 41.3335 59.15 42.3668 60.7 42.3668C62.25 42.3668 62.25 41.3335 63.8 41.3335C65.35 41.3335 65.35 42.3668 66.9 42.3668C68.45 42.3668 68.45 41.3335 70 41.3335" stroke="#DCDCDC" stroke-linecap="round"/>
<path d="M8 44.4331C9.55 44.4331 9.55 45.4664 11.1 45.4664C12.65 45.4664 12.65 44.4331 14.2 44.4331C15.75 44.4331 15.75 45.4664 17.3 45.4664C18.85 45.4664 18.85 44.4331 20.4 44.4331C21.95 44.4331 21.95 45.4664 23.5 45.4664C25.05 45.4664 25.05 44.4331 26.6 44.4331C28.15 44.4331 28.15 45.4664 29.7 45.4664C31.25 45.4664 31.25 44.4331 32.8 44.4331C34.35 44.4331 34.35 45.4664 35.9 45.4664C37.45 45.4664 37.45 44.4331 39 44.4331C40.55 44.4331 40.55 45.4664 42.1 45.4664C43.65 45.4664 43.65 44.4331 45.2 44.4331C46.4271 44.4331 46.75 45.4664 48.3 45.4664C49.85 45.4664 49.85 44.4331 51.4 44.4331C52.95 44.4331 52.95 45.4664 54.5 45.4664C56.05 45.4664 56.05 44.4331 57.6 44.4331C59.15 44.4331 59.15 45.4664 60.7 45.4664C62.25 45.4664 62.25 44.4331 63.8 44.4331C65.35 44.4331 65.35 45.4664 66.9 45.4664C68.45 45.4664 68.45 44.4331 70 44.4331" stroke="#DCDCDC" stroke-linecap="round"/>
<path d="M8 47.5332C9.55 47.5332 9.55 48.5665 11.1 48.5665C12.65 48.5665 12.65 47.5332 14.2 47.5332C15.75 47.5332 15.75 48.5665 17.3 48.5665C18.85 48.5665 18.85 47.5332 20.4 47.5332C21.95 47.5332 21.95 48.5665 23.5 48.5665C25.05 48.5665 25.05 47.5332 26.6 47.5332C28.15 47.5332 28.15 48.5665 29.7 48.5665C31.25 48.5665 31.25 47.5332 32.8 47.5332C34.35 47.5332 34.35 48.5665 35.9 48.5665C37.45 48.5665 37.45 47.5332 39 47.5332C40.55 47.5332 40.55 48.5665 42.1 48.5665C43.65 48.5665 43.65 47.5332 45.2 47.5332C46.4271 47.5332 46.75 48.5665 48.3 48.5665C49.85 48.5665 49.85 47.5332 51.4 47.5332C52.95 47.5332 52.95 48.5665 54.5 48.5665C56.05 48.5665 56.05 47.5332 57.6 47.5332C59.15 47.5332 59.15 48.5665 60.7 48.5665C62.25 48.5665 62.25 47.5332 63.8 47.5332C65.35 47.5332 65.35 48.5665 66.9 48.5665C68.45 48.5665 68.45 47.5332 70 47.5332" stroke="#DCDCDC" stroke-linecap="round"/>
<path d="M8 50.6333C9.55 50.6333 9.55 51.6666 11.1 51.6666C12.65 51.6666 12.65 50.6333 14.2 50.6333C15.75 50.6333 15.75 51.6666 17.3 51.6666C18.85 51.6666 18.85 50.6333 20.4 50.6333C21.95 50.6333 21.95 51.6666 23.5 51.6666C25.05 51.6666 25.05 50.6333 26.6 50.6333C28.15 50.6333 28.15 51.6666 29.7 51.6666C31.25 51.6666 31.25 50.6333 32.8 50.6333C34.35 50.6333 34.35 51.6666 35.9 51.6666C37.45 51.6666 37.45 50.6333 39 50.6333C40.55 50.6333 40.55 51.6666 42.1 51.6666C43.65 51.6666 43.65 50.6333 45.2 50.6333C46.4271 50.6333 46.75 51.6666 48.3 51.6666C49.85 51.6666 49.85 50.6333 51.4 50.6333C52.95 50.6333 52.95 51.6666 54.5 51.6666C56.05 51.6666 56.05 50.6333 57.6 50.6333C59.15 50.6333 59.15 51.6666 60.7 51.6666C62.25 51.6666 62.25 50.6333 63.8 50.6333C65.35 50.6333 65.35 51.6666 66.9 51.6666C68.45 51.6666 68.45 50.6333 70 50.6333" stroke="#DCDCDC" stroke-linecap="round"/>
<path d="M8 53.7334C9.55 53.7334 9.55 54.7667 11.1 54.7667C12.65 54.7667 12.65 53.7334 14.2 53.7334C15.75 53.7334 15.75 54.7667 17.3 54.7667C18.85 54.7667 18.85 53.7334 20.4 53.7334C21.95 53.7334 21.95 54.7667 23.5 54.7667C25.05 54.7667 25.05 53.7334 26.6 53.7334C28.15 53.7334 28.15 54.7667 29.7 54.7667C31.25 54.7667 31.25 53.7334 32.8 53.7334C34.35 53.7334 34.35 54.7667 35.9 54.7667C37.45 54.7667 37.45 53.7334 39 53.7334C40.55 53.7334 40.55 54.7667 42.1 54.7667C43.65 54.7667 43.65 53.7334 45.2 53.7334C46.4271 53.7334 46.75 54.7667 48.3 54.7667C49.85 54.7667 49.85 53.7334 51.4 53.7334C52.95 53.7334 52.95 54.7667 54.5 54.7667C56.05 54.7667 56.05 53.7334 57.6 53.7334C59.15 53.7334 59.15 54.7667 60.7 54.7667C62.25 54.7667 62.25 53.7334 63.8 53.7334C65.35 53.7334 65.35 54.7667 66.9 54.7667C68.45 54.7667 68.45 53.7334 70 53.7334" stroke="#DCDCDC" stroke-linecap="round"/>
<path d="M8 56.8335C9.55 56.8335 9.55 57.8668 11.1 57.8668C12.65 57.8668 12.65 56.8335 14.2 56.8335C15.75 56.8335 15.75 57.8668 17.3 57.8668C18.85 57.8668 18.85 56.8335 20.4 56.8335C21.95 56.8335 21.95 57.8668 23.5 57.8668C25.05 57.8668 25.05 56.8335 26.6 56.8335C28.15 56.8335 28.15 57.8668 29.7 57.8668C31.25 57.8668 31.25 56.8335 32.8 56.8335C34.35 56.8335 34.35 57.8668 35.9 57.8668C37.45 57.8668 37.45 56.8335 39 56.8335C40.55 56.8335 40.55 57.8668 42.1 57.8668C43.65 57.8668 43.65 56.8335 45.2 56.8335C46.4271 56.8335 46.75 57.8668 48.3 57.8668C49.85 57.8668 49.85 56.8335 51.4 56.8335C52.95 56.8335 52.95 57.8668 54.5 57.8668C56.05 57.8668 56.05 56.8335 57.6 56.8335C59.15 56.8335 59.15 57.8668 60.7 57.8668C62.25 57.8668 62.25 56.8335 63.8 56.8335C65.35 56.8335 65.35 57.8668 66.9 57.8668C68.45 57.8668 68.45 56.8335 70 56.8335" stroke="#DCDCDC" stroke-linecap="round"/>
<path d="M8 59.9331C9.55 59.9331 9.55 60.9664 11.1 60.9664C12.65 60.9664 12.65 59.9331 14.2 59.9331C15.75 59.9331 15.75 60.9664 17.3 60.9664C18.85 60.9664 18.85 59.9331 20.4 59.9331C21.95 59.9331 21.95 60.9664 23.5 60.9664C25.05 60.9664 25.05 59.9331 26.6 59.9331C28.15 59.9331 28.15 60.9664 29.7 60.9664C31.25 60.9664 31.25 59.9331 32.8 59.9331C34.35 59.9331 34.35 60.9664 35.9 60.9664C37.45 60.9664 37.45 59.9331 39 59.9331C40.55 59.9331 40.55 60.9664 42.1 60.9664C43.65 60.9664 43.65 59.9331 45.2 59.9331C46.4271 59.9331 46.75 60.9664 48.3 60.9664C49.85 60.9664 49.85 59.9331 51.4 59.9331C52.95 59.9331 52.95 60.9664 54.5 60.9664C56.05 60.9664 56.05 59.9331 57.6 59.9331C59.15 59.9331 59.15 60.9664 60.7 60.9664C62.25 60.9664 62.25 59.9331 63.8 59.9331C65.35 59.9331 65.35 60.9664 66.9 60.9664C68.45 60.9664 68.45 59.9331 70 59.9331" stroke="#DCDCDC" stroke-linecap="round"/>
<path d="M0 43C0 26.4315 13.4315 13 30 13C46.5685 13 60 26.4315 60 43C60 59.5685 46.5685 73 30 73C13.4315 73 0 59.5685 0 43Z" fill="#3D3D3D"/>
</svg>
