<svg width="24" height="21" viewBox="0 0 24 21" fill="none" xmlns="http://www.w3.org/2000/svg">
<path d="M12.0095 0.664212C11.873 0.557793 11.7049 0.5 11.5318 0.5C11.3587 0.5 11.1906 0.557793 11.0541 0.664212L0 9.28362L0.956173 10.4929L2.30774 9.43901V18.9615C2.30855 19.3693 2.4709 19.7601 2.75925 20.0485C3.0476 20.3368 3.43845 20.4992 3.84623 20.5H19.2312C19.6389 20.4992 20.0298 20.3368 20.3181 20.0485C20.6065 19.7601 20.7688 19.3693 20.7697 18.9615V9.44593L22.1212 10.4998L23.0774 9.29054L12.0095 0.664212ZM13.0772 18.9615H10.0002V12.8075H13.0772V18.9615ZM14.6157 18.9615V12.8075C14.6153 12.3996 14.4531 12.0085 14.1646 11.7201C13.8762 11.4317 13.4851 11.2695 13.0772 11.269H10.0002C9.5923 11.2695 9.20121 11.4317 8.91278 11.7201C8.62434 12.0085 8.46212 12.3996 8.46171 12.8075V18.9615H3.84623V8.23975L11.5387 2.24732L19.2312 8.24744V18.9615H14.6157Z" fill="#292929"/>
</svg>
