<svg width="153" height="54" viewBox="0 0 153 54" fill="none" xmlns="http://www.w3.org/2000/svg">
<path d="M65.1 13L62.468 6.322V13H60.536V2.948H63.084L65.996 10.396L68.922 2.948H71.47V13H69.538V6.266L66.878 13H65.1ZM76.6603 13.14C74.4903 13.14 72.8663 11.432 72.8663 9.262C72.8663 7.078 74.4903 5.384 76.6603 5.384C78.8303 5.384 80.4543 7.078 80.4543 9.262C80.4543 11.432 78.8303 13.14 76.6603 13.14ZM76.6603 11.418C77.6263 11.418 78.4523 10.648 78.4523 9.262C78.4523 7.876 77.6263 7.12 76.6603 7.12C75.6943 7.12 74.8683 7.876 74.8683 9.262C74.8683 10.648 75.6943 11.418 76.6603 11.418ZM88.0101 10.606C88.0101 12.174 86.8201 13.14 84.6921 13.14C82.5641 13.14 81.3741 12.118 81.2201 10.452H83.0821C83.0961 11.222 83.7541 11.712 84.7201 11.712C85.4761 11.712 86.0501 11.474 86.0501 10.942C86.0501 10.466 85.7421 10.27 85.0281 10.13L83.6841 9.878C82.3401 9.64 81.5281 8.898 81.5281 7.736C81.5281 6.35 82.7181 5.384 84.5801 5.384C86.4561 5.384 87.7441 6.378 87.8841 7.988H86.0221C85.9521 7.26 85.4061 6.812 84.5801 6.812C83.8661 6.812 83.3901 7.078 83.3901 7.554C83.3901 8.002 83.6981 8.184 84.3701 8.31L85.8121 8.576C87.2681 8.856 88.0101 9.528 88.0101 10.606ZM93.8363 11.11V12.804C93.3603 13.042 92.9123 13.14 92.3383 13.14C90.7983 13.14 89.8323 12.258 89.8323 10.578V7.19H88.3203V5.524H89.8323V3.312H91.7643V5.524H93.9063V7.19H91.7643V10.13C91.7643 10.998 92.1563 11.348 92.8563 11.348C93.2203 11.348 93.5563 11.264 93.8363 11.11ZM105.482 9.262C105.482 11.474 104.18 13.14 102.164 13.14C101.282 13.14 100.526 12.762 99.9663 12.034V15.702H98.0203V5.524H99.8123V6.616C100.386 5.818 101.212 5.384 102.164 5.384C104.18 5.384 105.482 7.064 105.482 9.262ZM103.48 9.262C103.48 7.862 102.682 7.106 101.73 7.106C100.778 7.106 99.9803 7.848 99.9803 9.262C99.9803 10.676 100.778 11.404 101.73 11.404C102.682 11.404 103.48 10.69 103.48 9.262ZM110.033 13.14C107.863 13.14 106.239 11.432 106.239 9.262C106.239 7.078 107.863 5.384 110.033 5.384C112.203 5.384 113.827 7.078 113.827 9.262C113.827 11.432 112.203 13.14 110.033 13.14ZM110.033 11.418C110.999 11.418 111.825 10.648 111.825 9.262C111.825 7.876 110.999 7.12 110.033 7.12C109.067 7.12 108.241 7.876 108.241 9.262C108.241 10.648 109.067 11.418 110.033 11.418ZM122.531 9.262C122.531 11.474 121.229 13.14 119.213 13.14C118.331 13.14 117.575 12.762 117.015 12.034V15.702H115.069V5.524H116.861V6.616C117.435 5.818 118.261 5.384 119.213 5.384C121.229 5.384 122.531 7.064 122.531 9.262ZM120.529 9.262C120.529 7.862 119.731 7.106 118.779 7.106C117.827 7.106 117.029 7.848 117.029 9.262C117.029 10.676 117.827 11.404 118.779 11.404C119.731 11.404 120.529 10.69 120.529 9.262ZM128.328 9.85V5.524H130.26V13H128.482V12.02C128.076 12.678 127.25 13.14 126.298 13.14C124.8 13.14 123.708 12.23 123.708 10.284V5.524H125.654V9.906C125.654 10.956 126.172 11.418 126.956 11.418C127.656 11.418 128.328 10.858 128.328 9.85ZM133.969 13H132.009V2.948H133.969V13ZM140.166 13V12.076C139.676 12.776 138.934 13.14 137.912 13.14C136.358 13.14 135.322 12.23 135.322 10.83C135.322 9.374 136.498 8.59 138.682 8.59C139.102 8.59 139.466 8.618 139.928 8.674V8.226C139.928 7.386 139.452 6.896 138.64 6.896C137.8 6.896 137.296 7.386 137.226 8.226H135.476C135.588 6.504 136.834 5.384 138.64 5.384C140.6 5.384 141.748 6.462 141.748 8.296V13H140.166ZM137.156 10.774C137.156 11.404 137.604 11.796 138.332 11.796C139.326 11.796 139.928 11.25 139.928 10.382V9.85C139.466 9.78 139.144 9.752 138.808 9.752C137.702 9.752 137.156 10.102 137.156 10.774ZM145.371 9.374V13H143.425V5.524H145.217V6.966C145.763 6.014 146.925 5.44 148.129 5.44V7.456C146.477 7.33 145.371 7.722 145.371 9.374ZM151.001 9.976H149.531L149.041 2.948H151.505L151.001 9.976ZM151.617 11.796C151.617 12.538 151.043 13.07 150.273 13.07C149.503 13.07 148.929 12.538 148.929 11.796C148.929 11.054 149.489 10.508 150.273 10.508C151.057 10.508 151.617 11.054 151.617 11.796Z" fill="#FF6600"/>
<path d="M9.22032 50.4487C9.06297 51.262 9.59476 52.0489 10.4081 52.2063C11.2215 52.3636 12.0084 51.8318 12.1657 51.0185L9.22032 50.4487ZM50.5838 11.7913C51.4048 11.6804 51.9804 10.9249 51.8694 10.1039C51.7584 9.28295 51.0029 8.70739 50.182 8.81836L50.5838 11.7913ZM4.78701 40.3309C4.36014 39.6209 3.43853 39.3914 2.72855 39.8183C2.01857 40.2452 1.78907 41.1668 2.21594 41.8768L4.78701 40.3309ZM8.97646 50.21L7.69093 50.9829L7.69165 50.9841L8.97646 50.21ZM12.593 51.2607L11.98 49.8917L11.9788 49.8922L12.593 51.2607ZM23.5121 48.0157C24.2682 47.6772 24.6067 46.7898 24.2682 46.0337C23.9297 45.2776 23.0423 44.939 22.2862 45.2776L23.5121 48.0157ZM10.693 50.7336C12.1657 51.0185 12.1656 51.0188 12.1656 51.0191C12.1656 51.0191 12.1656 51.0193 12.1656 51.0193C12.1656 51.0193 12.1656 51.019 12.1657 51.0185C12.1659 51.0174 12.1663 51.0153 12.1669 51.0122C12.1682 51.0059 12.1703 50.9954 12.1732 50.9809C12.1791 50.9518 12.1884 50.9065 12.2013 50.8457C12.2272 50.7241 12.2673 50.5405 12.3231 50.3009C12.4347 49.8218 12.6086 49.1194 12.8549 48.2422C13.3479 46.4864 14.1289 44.0372 15.2771 41.2783C17.583 35.7376 21.3233 29.0616 27.0835 24.2003L25.1487 21.9077C18.876 27.2014 14.9048 34.3652 12.5074 40.1256C11.3039 43.0172 10.4853 45.5838 9.9666 47.4312C9.70706 48.3556 9.5221 49.1017 9.40127 49.6205C9.34085 49.88 9.29643 50.0828 9.26671 50.2229C9.25185 50.2929 9.24066 50.3472 9.23298 50.3851C9.22915 50.404 9.22618 50.4189 9.22408 50.4295C9.22303 50.4348 9.22219 50.4391 9.22156 50.4423C9.22125 50.4439 9.22099 50.4452 9.22078 50.4463C9.22068 50.4468 9.22056 50.4474 9.22051 50.4477C9.22041 50.4482 9.22032 50.4487 10.693 50.7336ZM27.0835 24.2003C38.8961 14.2312 48.2846 12.1021 50.5838 11.7913L50.182 8.81836C47.3234 9.20477 37.4018 11.5667 25.1487 21.9077L27.0835 24.2003ZM2.21594 41.8768L7.69093 50.9829L10.262 49.437L4.78701 40.3309L2.21594 41.8768ZM7.69165 50.9841C8.83391 52.8799 11.2202 53.521 13.2071 52.6292L11.9788 49.8922C11.2777 50.2069 10.5659 49.9414 10.2613 49.4358L7.69165 50.9841ZM13.2059 52.6298L23.5121 48.0157L22.2862 45.2776L11.98 49.8917L13.2059 52.6298Z" fill="#FF6600"/>
</svg>
