<svg width="44" height="42" viewBox="0 0 44 42" fill="none" xmlns="http://www.w3.org/2000/svg">
<path d="M15.8687 38.3862C7.2533 38.3862 1 33.4964 1 26.7591C1 21.0759 7.61013 12.0488 12.8207 8.91884L12.9947 8.87061H18.7379L18.9119 8.91884C24.1224 12.0459 30.7326 21.0726 30.7326 26.7591C30.7326 26.8955 30.7321 27.0268 30.722 27.158L30.0471 27.1047C30.0564 26.9911 30.0559 26.8774 30.0559 26.7591C30.0559 21.4499 23.6498 12.605 18.6436 9.54726H13.0894C8.08281 12.6076 1.67665 21.453 1.67665 26.7591C1.67665 33.1043 7.64537 37.7096 15.8687 37.7096C16.6264 37.7096 17.3639 37.6706 18.0603 37.5939L18.1343 38.2666C17.4136 38.3459 16.6511 38.3862 15.8687 38.3862Z" fill="#656565" stroke="#656565" stroke-width="0.5"/>
<path d="M16.4917 30.8464C15.5428 30.8464 14.6221 30.5006 13.9129 29.8673C13.0926 29.1354 12.6226 28.0856 12.6226 26.9874H13.2992C13.2992 27.8931 13.6869 28.7587 14.3631 29.3625C15.0485 29.9746 15.9345 30.2541 16.8569 30.149C18.2803 29.9871 19.449 28.8407 19.6366 27.4233C19.7803 26.3354 19.371 25.2653 18.5424 24.5605C18.2322 24.2973 17.8256 24.1521 17.3979 24.1521H15.5666C14.9781 24.1521 14.4164 23.9499 13.9842 23.5825C12.9798 22.7288 12.4834 21.433 12.6574 20.1158C12.8847 18.3946 14.3036 17.0028 16.0309 16.8063C17.1331 16.6827 18.2327 17.029 19.0521 17.7603C19.8719 18.4922 20.3419 19.542 20.3419 20.6402H19.6653C19.6653 19.7345 19.2776 18.8689 18.6014 18.2651C17.9155 17.6528 17.0256 17.3755 16.1076 17.4786C14.6842 17.6404 13.5155 18.7869 13.3278 20.2043C13.1847 21.2924 13.5939 22.3627 14.4226 23.0669C14.7327 23.3305 15.1389 23.4755 15.5666 23.4755H17.3979C17.986 23.4755 18.5481 23.6777 18.9803 24.0448C19.9851 24.8993 20.4811 26.1953 20.3071 27.5118C20.0798 29.233 18.6609 30.6248 16.9336 30.8213C16.786 30.838 16.6384 30.8464 16.4917 30.8464Z" fill="#656565" stroke="#656565" stroke-width="0.5"/>
<path d="M16.144 14.3374H16.8207V33.2909H16.144V14.3374Z" fill="#656565" stroke="#656565" stroke-width="0.5"/>
<path d="M9.52051 8.87158H22.213V9.54825H9.52051V8.87158Z" fill="#656565" stroke="#656565" stroke-width="0.5"/>
<path d="M18.7401 9.56615H12.963L12.6692 9.39545L9.67269 4.14369C9.2956 3.48268 9.36916 2.67959 9.86079 2.09743C10.3507 1.5166 11.1282 1.31021 11.8401 1.57034C13.2454 2.08312 14.8379 2.66417 17.985 2.66417C18.5771 2.66417 19.1436 2.64347 19.6687 2.6025C20.3427 2.55184 20.9828 2.86924 21.3423 3.43554C21.7018 4.0025 21.7176 4.69038 21.3837 5.27585L19.0339 9.39545L18.7401 9.56615ZM13.1595 8.8895H18.5436L20.796 4.9406C21.0035 4.57695 20.9938 4.14964 20.7709 3.79809C20.5423 3.43796 20.1414 3.24215 19.7216 3.27695C19.1788 3.31946 18.5947 3.34083 17.985 3.34083C14.9586 3.34083 13.3705 2.84898 11.6084 2.20602C11.0709 2.00955 10.6203 2.24655 10.3775 2.534C10.1339 2.82254 9.97533 3.30889 10.2604 3.80845L13.1595 8.8895Z" fill="#656565" stroke="#656565" stroke-width="0.5"/>
<path d="M23.0307 40.6614H22.3541V33.4603H18.4369V40.6614H17.7603V33.122L18.0986 32.7837H22.6924L23.0307 33.122V40.6614Z" fill="#656565" stroke="#656565" stroke-width="0.5"/>
<path d="M27.6247 40.6617H26.9481V30.4652H23.0309V40.6617H22.3542V30.1269L22.6926 29.7886H27.2864L27.6247 30.1269V40.6617Z" fill="#656565" stroke="#656565" stroke-width="0.5"/>
<path d="M32.218 40.6615H31.5414V27.4696H27.6247V40.6615H26.948V27.1313L27.2863 26.793H31.8797L32.218 27.1313V40.6615Z" fill="#656565" stroke="#656565" stroke-width="0.5"/>
<path d="M36.812 40.6614H36.1353V24.474H32.2182V40.6614H31.5415V24.1357L31.8798 23.7974H36.4737L36.812 24.1357V40.6614Z" fill="#656565" stroke="#656565" stroke-width="0.5"/>
<path d="M41.4057 40.6617H40.7291V21.4789H36.8119V40.6617H36.1353V21.1406L36.4736 20.8022H41.0674L41.4057 21.1406V40.6617Z" fill="#656565" stroke="#656565" stroke-width="0.5"/>
<path d="M8.95898 40.3232H43.7418V40.9999H8.95898V40.3232Z" fill="#656565" stroke="#656565" stroke-width="0.5"/>
<path d="M36.8101 19.2546H36.1334V10.9531L36.4717 10.6147H39.9863L32.9947 1.75573L26.0035 10.6147H29.5176L29.8559 10.9531V18.3264H29.1792V11.2914H25.3057L25.04 10.7434L32.729 1H33.2603L40.9497 10.7434L40.6841 11.2914H36.8101V19.2546Z" fill="#656565" stroke="#656565" stroke-width="0.5"/>
</svg>
