<svg width="33" height="40" viewBox="0 0 33 40" fill="none" xmlns="http://www.w3.org/2000/svg">
<path fill-rule="evenodd" clip-rule="evenodd" d="M8.64417 11.5106C8.48948 11.5106 8.33479 11.4287 8.2529 11.274C8.14371 11.0647 8.2256 10.8008 8.43488 10.6825C10.646 9.52695 13.1392 8.9082 15.6414 8.9082C17.8525 8.9082 19.9908 9.36316 21.9927 10.264C22.211 10.3641 22.3111 10.6188 22.211 10.8372C22.111 11.0556 21.8562 11.1557 21.6287 11.0556C19.7361 10.2094 17.7161 9.78172 15.6323 9.78172C13.2666 9.78172 10.9099 10.355 8.82615 11.456C8.78065 11.4924 8.71696 11.5106 8.64417 11.5106ZM15.6505 40.0001C7.07911 40.0001 0.109131 33.0301 0.109131 24.4587C0.109131 22.6298 0.418503 20.8463 1.03725 19.1448C1.11914 18.9173 1.37392 18.799 1.5923 18.8809C1.81978 18.9628 1.93807 19.2176 1.85617 19.4451C1.27383 21.0465 0.973553 22.739 0.973553 24.4587C0.973553 32.5479 7.55226 39.1266 15.6414 39.1266C23.7306 39.1266 30.3093 32.5479 30.3093 24.4587C30.3093 21.3923 29.3721 18.4532 27.6069 15.9692C27.4704 15.769 27.5159 15.496 27.707 15.3595C27.9071 15.223 28.1801 15.2685 28.3166 15.4596C30.191 18.0984 31.1828 21.2103 31.1828 24.4587C31.1919 33.0301 24.222 40.0001 15.6505 40.0001Z" fill="#656565"/>
<path fill-rule="evenodd" clip-rule="evenodd" d="M10.8826 19.5634C10.6642 19.5634 10.4731 19.3997 10.4458 19.1722C10.4185 18.9356 10.6005 18.7172 10.8371 18.6899C11.6742 18.608 14.0582 16.4606 14.6224 14.8501C14.7133 14.5862 14.7952 14.2313 14.6133 14.0584C14.1219 13.5762 13.6851 12.73 14.3676 11.4379C14.7861 10.6553 15.5141 9.89101 16.0964 9.27226C16.1601 9.20857 16.2238 9.13578 16.2875 9.07208C16.4513 8.8992 16.7334 8.8901 16.9063 9.05388C17.0791 9.21767 17.0882 9.49974 16.9244 9.67263C16.8608 9.73632 16.7971 9.80002 16.7334 9.87281C15.3776 11.2923 14.3221 12.548 15.2229 13.4306C15.505 13.7036 15.7689 14.2222 15.4413 15.1412C14.8225 16.9065 12.2384 19.427 10.919 19.5634C10.9099 19.5634 10.8917 19.5634 10.8826 19.5634Z" fill="#656565"/>
<path fill-rule="evenodd" clip-rule="evenodd" d="M0.864498 27.9893C0.728011 27.9893 0.600622 27.9256 0.518729 27.8164C0.373142 27.6254 0.409539 27.3524 0.609721 27.2068C0.691613 27.1522 2.52965 25.7873 4.26759 25.7327C4.50417 25.7236 4.71345 25.9147 4.71345 26.1604C4.72255 26.397 4.53147 26.6063 4.29489 26.6063C2.83902 26.6518 1.15567 27.8983 1.13747 27.9074C1.04648 27.9529 0.95549 27.9893 0.864498 27.9893ZM14.4678 39.9548C14.4587 39.9548 14.4587 39.9548 14.4496 39.9548C14.213 39.9457 14.0219 39.7455 14.031 39.4998C14.2312 34.8592 13.7489 31.9384 12.5933 30.801C12.011 30.2186 11.3104 30.1367 10.3731 30.1913C8.44412 30.3005 7.58879 29.9184 6.60608 29.1449C6.415 28.9902 6.3877 28.7173 6.53329 28.5353C6.68797 28.3442 6.96095 28.3169 7.15203 28.4625C7.99826 29.1358 8.6534 29.4179 10.3276 29.3269C11.3104 29.2723 12.3477 29.336 13.203 30.1913C14.5679 31.538 15.1047 34.5134 14.8954 39.5453C14.8954 39.7728 14.6953 39.9548 14.4678 39.9548Z" fill="#656565"/>
<path fill-rule="evenodd" clip-rule="evenodd" d="M30.7552 24.8952C30.6642 24.8952 30.5642 24.8679 30.4823 24.8042C30.4459 24.7769 26.7698 21.8925 24.95 23.4394C24.2311 24.0581 23.4304 24.049 22.8026 23.4121C21.5742 22.1473 21.283 18.5895 22.6479 17.0699C23.0027 16.6787 23.3121 16.2146 23.5942 15.6869C23.7034 15.4685 23.9672 15.3866 24.1856 15.5049C24.404 15.6141 24.4859 15.8779 24.3676 16.0963C24.0582 16.6878 23.7034 17.2155 23.303 17.6614C22.2657 18.817 22.4932 21.847 23.4304 22.8115C23.6488 23.039 23.9127 23.1846 24.3767 22.7842C26.7334 20.7733 30.8462 23.9853 31.0191 24.1309C31.2102 24.2765 31.2375 24.5586 31.0919 24.7405C31.01 24.8406 30.8826 24.8952 30.7552 24.8952Z" fill="#656565"/>
<path fill-rule="evenodd" clip-rule="evenodd" d="M20.7008 39.1354C20.4916 39.1354 20.3005 38.9807 20.2732 38.7623C19.7727 35.5139 19.6544 33.8579 19.8455 32.8751C20.0639 31.7195 20.7281 31.4102 21.4834 31.0553C22.0748 30.7732 22.8118 30.4275 23.6945 29.5539C24.5862 28.6622 25.4415 28.3437 26.2513 28.5894C28.0257 29.1354 28.6717 32.2655 28.7445 32.6204C28.79 32.8569 28.6353 33.0844 28.3987 33.1299C28.1622 33.1754 27.9347 33.0207 27.8892 32.7841C27.7254 31.9652 27.0794 29.7541 25.9966 29.4265C25.5234 29.281 24.9502 29.5357 24.3132 30.1727C23.3305 31.1554 22.4843 31.5558 21.8564 31.8469C20.5916 32.4384 20.2095 32.6204 21.1376 38.6349C21.174 38.8715 21.0102 39.099 20.7736 39.1354C20.7463 39.1354 20.719 39.1354 20.7008 39.1354Z" fill="#656565"/>
<path fill-rule="evenodd" clip-rule="evenodd" d="M25.9417 0.864422C23.039 0.864422 20.6824 3.22111 20.6824 6.12375C20.6824 6.94268 23.4667 13.5396 24.9681 17.0792C25.3502 17.9891 25.6869 18.7807 25.9417 19.3995C26.2056 18.7716 26.5331 17.98 26.9153 17.0792C28.4167 13.5305 31.201 6.93358 31.201 6.12375C31.201 3.22111 28.8443 0.864422 25.9417 0.864422ZM25.9417 21.0009C25.7597 21.0009 25.605 20.8917 25.5322 20.7279C25.2865 20.1092 24.7588 18.8626 24.1582 17.434C21.7743 11.7925 19.8088 7.05187 19.8088 6.13285C19.8088 2.74795 22.5568 0 25.9417 0C29.3266 0 32.0745 2.74795 32.0745 6.13285C32.0745 7.05187 30.1 11.7925 27.7251 17.434C27.1155 18.8717 26.5968 20.1092 26.3511 20.7279C26.2875 20.8917 26.1237 21.0009 25.9417 21.0009Z" fill="#656565"/>
<path fill-rule="evenodd" clip-rule="evenodd" d="M25.9417 3.43047C24.5405 3.43047 23.4031 4.56787 23.4031 5.96914C23.4031 7.37042 24.5405 8.50782 25.9417 8.50782C27.343 8.50782 28.4804 7.37042 28.4804 5.96914C28.4804 4.56787 27.343 3.43047 25.9417 3.43047ZM25.9417 9.37224C24.0582 9.37224 22.5295 7.84358 22.5295 5.96005C22.5295 4.07651 24.0582 2.54785 25.9417 2.54785C27.8253 2.54785 29.3539 4.07651 29.3539 5.96005C29.3539 7.84358 27.8253 9.37224 25.9417 9.37224Z" fill="#656565"/>
<path fill-rule="evenodd" clip-rule="evenodd" d="M6.13285 10.9282C3.23021 10.9282 0.873521 13.2849 0.873521 16.1875C0.873521 17.0065 3.65787 23.6034 5.15924 27.143C5.5414 28.0529 5.87807 28.8445 6.13285 29.4632C6.39673 28.8354 6.7243 28.0529 7.10646 27.143C8.60783 23.5943 11.3922 16.9974 11.3922 16.1784C11.3922 13.2849 9.03549 10.9282 6.13285 10.9282ZM6.13285 31.0556C5.95087 31.0556 5.79618 30.9464 5.72339 30.7826C5.47771 30.1639 4.95905 28.9173 4.34941 27.4887C1.96542 21.8472 0 17.1066 0 16.1875C0 12.8026 2.74795 10.0547 6.13285 10.0547C9.51775 10.0547 12.2657 12.8026 12.2657 16.1875C12.2657 17.1066 10.2912 21.8472 7.91629 27.4887C7.30664 28.9264 6.78799 30.1639 6.54231 30.7826C6.47862 30.9464 6.31483 31.0556 6.13285 31.0556Z" fill="#656565"/>
<path fill-rule="evenodd" clip-rule="evenodd" d="M6.1329 13.4848C4.73162 13.4848 3.59422 14.6222 3.59422 16.0235C3.59422 17.4248 4.73162 18.5622 6.1329 18.5622C7.53417 18.5622 8.67157 17.4248 8.67157 16.0235C8.67157 14.6222 7.53417 13.4848 6.1329 13.4848ZM6.1329 19.4357C4.24937 19.4357 2.7207 17.9071 2.7207 16.0235C2.7207 14.14 4.24937 12.6113 6.1329 12.6113C8.01643 12.6113 9.54509 14.14 9.54509 16.0235C9.54509 17.9071 8.01643 19.4357 6.1329 19.4357Z" fill="#656565"/>
<path fill-rule="evenodd" clip-rule="evenodd" d="M9.45396 27.8618C9.29927 27.8618 9.15369 27.7799 9.07179 27.6434C8.9535 27.4341 9.0263 27.1702 9.23558 27.0428L10.7187 26.1875C10.928 26.0692 11.1919 26.142 11.3193 26.3513C11.4376 26.5606 11.3648 26.8245 11.1555 26.9518L9.67234 27.8072C9.59955 27.8436 9.52675 27.8618 9.45396 27.8618Z" fill="#656565"/>
<path fill-rule="evenodd" clip-rule="evenodd" d="M12.5843 26.0512C12.4296 26.0512 12.2841 25.9693 12.2022 25.8328C12.0839 25.6236 12.1567 25.3597 12.3659 25.2323L13.8491 24.377C14.0584 24.2587 14.3223 24.3315 14.4497 24.5408C14.568 24.75 14.4952 25.0139 14.2859 25.1413L12.8027 25.9966C12.739 26.033 12.6571 26.0512 12.5843 26.0512Z" fill="#656565"/>
<path fill-rule="evenodd" clip-rule="evenodd" d="M15.7232 24.2402C15.5686 24.2402 15.423 24.1583 15.3411 24.0218C15.2228 23.8125 15.2956 23.5486 15.5049 23.4213L16.988 22.5659C17.1973 22.4476 17.4612 22.5204 17.5886 22.7297C17.7069 22.939 17.6341 23.2029 17.4248 23.3303L15.9416 24.1856C15.8688 24.222 15.796 24.2402 15.7232 24.2402Z" fill="#656565"/>
<path fill-rule="evenodd" clip-rule="evenodd" d="M18.8534 22.4296C18.6987 22.4296 18.5531 22.3477 18.4712 22.2113C18.3529 22.002 18.4257 21.7381 18.635 21.6107L20.1182 20.7554C20.3274 20.6371 20.5913 20.7099 20.7187 20.9192C20.837 21.1285 20.7642 21.3923 20.564 21.5197L19.0809 22.375C19.0081 22.4114 18.9262 22.4296 18.8534 22.4296Z" fill="#656565"/>
</svg>
