<svg width="40" height="40" viewBox="0 0 40 40" fill="none" xmlns="http://www.w3.org/2000/svg">
<path d="M36.7335 27.5796H34.1545C34.0064 27.5796 33.8699 27.4993 33.7978 27.3699L22.9238 7.82667L23.6371 7.42986L34.3944 26.7633H36.1411L26.849 2.37398C26.5356 1.55131 25.9878 1.03075 25.2651 0.868634C24.4656 0.689699 23.5356 0.994671 22.8374 1.66568L21.5318 2.91993L20.9663 2.33129L22.2717 1.07696C23.1785 0.20563 24.3643 -0.169953 25.4437 0.0720818C26.4321 0.293872 27.2021 1.00806 27.6117 2.0833L37.1148 27.0261C37.1626 27.1516 37.1457 27.2926 37.0695 27.403C36.9933 27.5136 36.8677 27.5796 36.7335 27.5796Z" fill="#656565"/>
<path d="M7.84658 23.2649H7.03027V19.9975C7.03027 17.8647 7.65573 15.8455 8.94231 13.8242C9.97649 12.1996 11.4596 10.561 13.4766 8.81488L20.9821 2.317C21.5471 1.82795 22.2759 1.5953 23.0346 1.66142C23.796 1.72795 24.5067 2.10288 24.9844 2.69021C25.9876 3.92349 25.9383 5.53806 24.8644 6.61632L16.9087 14.6052L16.3303 14.0291L24.286 6.04025C25.0666 5.25636 25.0928 4.11712 24.3512 3.2053C24.0121 2.78842 23.5062 2.52206 22.9635 2.47463C22.4272 2.42761 21.913 2.59087 21.5164 2.93421L14.0108 9.43209C9.74768 13.1228 7.84658 16.3813 7.84658 19.9975V23.2649Z" fill="#656565"/>
<path d="M22.4081 32.4629H21.5918V30.9219H22.4081V32.4629ZM11.2296 32.4629H10.4133V30.9219H11.2296V32.4629Z" fill="#656565"/>
<path d="M24.7686 40H8.05247C5.86199 40 4.07983 38.2179 4.07983 36.0274C4.07983 33.8368 5.86199 32.0547 8.05247 32.0547H24.7686C26.9591 32.0547 28.7413 33.8368 28.7413 36.0274C28.7413 38.2179 26.959 40 24.7686 40ZM8.05247 32.871C6.31211 32.871 4.89614 34.287 4.89614 36.0274C4.89614 37.7678 6.31211 39.1837 8.05247 39.1837H24.7686C26.509 39.1837 27.925 37.7678 27.925 36.0274C27.925 34.287 26.509 32.871 24.7686 32.871H8.05247Z" fill="#656565"/>
<path d="M23.0729 37.3243H9.74854V36.508H23.0729V37.3243H23.0729ZM23.0729 35.5463H9.74854V34.73H23.0729V35.5463H23.0729Z" fill="#656565"/>
<path d="M24.3384 37.9823C23.2606 37.9823 22.3837 37.1054 22.3837 36.0276C22.3837 34.9497 23.2606 34.0728 24.3384 34.0728C25.4163 34.0728 26.2932 34.9497 26.2932 36.0276C26.2932 37.1054 25.4163 37.9823 24.3384 37.9823ZM24.3384 34.889C23.7107 34.889 23.2 35.3997 23.2 36.0275C23.2 36.6552 23.7107 37.1659 24.3384 37.1659C24.9662 37.1659 25.4769 36.6552 25.4769 36.0275C25.4769 35.3997 24.9662 34.889 24.3384 34.889ZM8.48256 37.9823C7.40471 37.9823 6.52783 37.1054 6.52783 36.0276C6.52783 34.9497 7.40471 34.0728 8.48256 34.0728C9.56041 34.0728 10.4374 34.9497 10.4374 36.0276C10.4374 37.1054 9.56041 37.9823 8.48256 37.9823ZM8.48256 34.889C7.85482 34.889 7.34414 35.3997 7.34414 36.0275C7.34414 36.6552 7.85482 37.1659 8.48256 37.1659C9.1103 37.1659 9.62106 36.6552 9.62106 36.0275C9.62106 35.3997 9.1103 34.889 8.48256 34.889Z" fill="#656565"/>
<path d="M23.3309 31.33H2.04011C0.915243 31.33 0 30.4148 0 29.2899V24.897C0 23.7721 0.915243 22.857 2.04011 22.857H11.9062V15.9492C11.9062 14.8243 12.8215 13.9092 13.9464 13.9092H20.4753C21.334 13.9092 22.0837 14.4286 22.3854 15.2326L25.1369 22.5674C25.2987 22.9987 25.3709 23.3965 25.3709 23.8572V29.29C25.371 30.4148 24.4558 31.33 23.3309 31.33ZM2.04011 23.6732C1.36527 23.6732 0.816306 24.2222 0.816306 24.8969V29.2899C0.816306 29.9647 1.36535 30.5136 2.04011 30.5136H23.3309C24.0058 30.5136 24.5547 29.9646 24.5547 29.2899V23.8571C24.5547 23.494 24.5002 23.194 24.3727 22.8541L21.6212 15.5193C21.4374 15.0296 20.9984 14.7254 20.4754 14.7254H13.9464C13.2716 14.7254 12.7226 15.2744 12.7226 15.9491V23.265C12.7226 23.4905 12.5399 23.6732 12.3145 23.6732H2.04011Z" fill="#656565"/>
<path d="M23.3309 28.0663H18.9533C18.802 28.0663 18.6633 27.9827 18.5926 27.849L16.3822 23.6733H13.9462C13.7208 23.6733 13.5381 23.4906 13.5381 23.2652V15.9492C13.5381 15.7237 13.7208 15.541 13.9462 15.541L20.4753 15.5411C20.6454 15.5411 20.7977 15.6466 20.8575 15.8059L23.6091 23.1407C23.7001 23.3834 23.7391 23.5977 23.7391 23.8572V27.6581C23.7391 27.8836 23.5564 28.0663 23.3309 28.0663ZM19.1991 27.25H22.9228V23.8572C22.9228 23.6953 22.9016 23.5788 22.8449 23.4274L20.1925 16.3574L14.3544 16.3573V22.857H16.628C16.7792 22.857 16.918 22.9406 16.9887 23.0742L19.1991 27.25Z" fill="#656565"/>
<path d="M13.9462 31.3301C13.7208 31.3301 13.5381 31.1474 13.5381 30.9219V27.6582C13.5381 27.4327 13.7208 27.25 13.9462 27.25C14.1717 27.25 14.3544 27.4327 14.3544 27.6582V30.9219C14.3544 31.1473 14.1717 31.3301 13.9462 31.3301Z" fill="#656565"/>
<path d="M9.01324 28.4586H3.8061C3.58064 28.4586 3.39795 28.2759 3.39795 28.0504C3.39795 27.825 3.58064 27.6423 3.8061 27.6423H9.01324C9.2387 27.6423 9.42139 27.825 9.42139 28.0504C9.42139 28.2759 9.23862 28.4586 9.01324 28.4586ZM9.01324 26.5443H3.8061C3.58064 26.5443 3.39795 26.3616 3.39795 26.1362C3.39795 25.9107 3.58064 25.728 3.8061 25.728H9.01324C9.2387 25.728 9.42139 25.9107 9.42139 26.1362C9.42139 26.3616 9.23862 26.5443 9.01324 26.5443Z" fill="#656565"/>
<path d="M33.1666 39.9998C33.098 39.9998 33.0293 39.9825 32.9673 39.9477C32.8367 39.8746 32.7567 39.736 32.7586 39.5864L32.7752 38.2805C32.7761 38.2074 32.7968 38.1357 32.8348 38.0732L33.7465 36.5782V27.2285C33.7465 27.0031 33.9292 26.8204 34.1546 26.8204C34.3801 26.8204 34.5628 27.0031 34.5628 27.2285V36.6927C34.5628 36.7677 34.5421 36.8412 34.5031 36.9053L33.59 38.4027L33.5844 38.8457L38.2153 35.9254C38.829 35.5384 39.1669 34.9257 39.1669 34.2V31.0973C39.1669 29.776 38.171 29.1665 37.1417 28.8136V33.4935C37.1417 33.719 36.959 33.9017 36.7336 33.9017C36.5081 33.9017 36.3254 33.719 36.3254 33.4935V28.2715C36.3253 28.2654 36.3253 28.2593 36.3254 28.2531V27.2285C36.3254 27.003 36.5081 26.8203 36.7336 26.8203C36.959 26.8203 37.1417 27.003 37.1417 27.2285V27.9536C38.1384 28.2501 39.9832 28.973 39.9832 31.0972V34.1999C39.9832 35.2012 39.4975 36.0817 38.6507 36.6158L33.3843 39.9369C33.318 39.9788 33.2424 39.9998 33.1666 39.9998Z" fill="#656565"/>
<path fill-rule="evenodd" clip-rule="evenodd" d="M23.0707 3.64795C22.6833 3.64795 22.3691 3.96198 22.3691 4.3494C22.3691 4.73682 22.6833 5.05094 23.0707 5.05094C23.4581 5.05094 23.7722 4.73682 23.7722 4.3494C23.7722 3.96206 23.4581 3.64795 23.0707 3.64795Z" fill="#656565"/>
<path d="M20.8179 24.8162C20.7135 24.8162 20.609 24.7764 20.5294 24.6966L17.3134 21.4807C17.154 21.3214 17.154 21.0629 17.3134 20.9036C17.4727 20.7442 17.7313 20.7442 17.8906 20.9036L21.1065 24.1195C21.2659 24.2789 21.2659 24.5373 21.1065 24.6966C21.0269 24.7764 20.9223 24.8162 20.8179 24.8162ZM20.1477 21.5523C20.0433 21.5523 19.9388 21.5125 19.8592 21.4327L16.6433 18.2167C16.4838 18.0574 16.4838 17.7989 16.6433 17.6396C16.8025 17.4802 17.0611 17.4802 17.2204 17.6396L20.4363 20.8556C20.5957 21.0149 20.5957 21.2734 20.4363 21.4327C20.3567 21.5125 20.2521 21.5523 20.1477 21.5523Z" fill="#656565"/>
</svg>
