<svg width="1440" height="930" viewBox="0 0 1440 930" fill="none" xmlns="http://www.w3.org/2000/svg">
<rect width="1440" height="930" fill="#292929"/>
<g opacity="0.1">
<line y1="-1" x2="22.5522" y2="-1" transform="matrix(0.807755 -0.589519 -0.178597 -0.983922 614.664 292.795)" stroke="#FFCEC7" stroke-width="2"/>
<line y1="-1" x2="25.6829" y2="-1" transform="matrix(0.653686 -0.756766 -0.276689 -0.96096 615.269 209.935)" stroke="#FFCEC7" stroke-width="2"/>
<line y1="-1" x2="29.0662" y2="-1" transform="matrix(0.510913 -0.859632 -0.38603 -0.922486 615.875 126.636)" stroke="#FFCEC7" stroke-width="2"/>
<line y1="-1" x2="32.2796" y2="-1" transform="matrix(0.386029 -0.922486 -0.510912 -0.859633 617.086 42.7769)" stroke="#FFCEC7" stroke-width="2"/>
<line y1="-1" x2="32.2796" y2="-1" transform="matrix(0.386029 0.922486 0.510912 -0.859633 617.086 872.729)" stroke="#FFCEC7" stroke-width="2"/>
<line y1="-1" x2="29.0663" y2="-1" transform="matrix(0.510912 0.859633 0.38603 -0.922486 615.875 788.857)" stroke="#FFCEC7" stroke-width="2"/>
<line y1="-1" x2="25.6828" y2="-1" transform="matrix(0.653686 0.756766 0.276689 -0.96096 615.269 705.558)" stroke="#FFCEC7" stroke-width="2"/>
<line y1="-1" x2="22.5522" y2="-1" transform="matrix(0.807754 0.58952 0.178597 -0.983922 614.664 622.698)" stroke="#FFCEC7" stroke-width="2"/>
<line y1="-1" x2="20.2494" y2="-1" transform="matrix(0.942805 0.333345 0.0875976 -0.996156 614.057 540.143)" stroke="#FFCEC7" stroke-width="2"/>
<line y1="-1" x2="19.3857" y2="-1" transform="matrix(1 1.19249e-08 1.19249e-08 -1 614.057 457.747)" stroke="#FFCEC7" stroke-width="2"/>
<line y1="-1" x2="20.2493" y2="-1" transform="matrix(0.942805 -0.333344 -0.087598 -0.996156 614.057 375.35)" stroke="#FFCEC7" stroke-width="2"/>
<line y1="-1" x2="22.5522" y2="-1" transform="matrix(0.807755 -0.589519 -0.178597 -0.983922 580.738 380.25)" stroke="#FFCEC7" stroke-width="2"/>
<line y1="-1" x2="25.6828" y2="-1" transform="matrix(0.653686 -0.756766 -0.276688 -0.96096 581.345 297.403)" stroke="#FFCEC7" stroke-width="2"/>
<line y1="-1" x2="29.0663" y2="-1" transform="matrix(0.510912 -0.859633 -0.386029 -0.922487 581.95 214.104)" stroke="#FFCEC7" stroke-width="2"/>
<line y1="-1" x2="32.2796" y2="-1" transform="matrix(0.386029 -0.922486 -0.510912 -0.859633 583.161 130.232)" stroke="#FFCEC7" stroke-width="2"/>
<line y1="-1" x2="35.0316" y2="-1" transform="matrix(0.276688 -0.96096 -0.653686 -0.756766 584.979 45.6904)" stroke="#FFCEC7" stroke-width="2"/>
<line y1="-1" x2="29.0663" y2="-1" transform="matrix(0.510912 0.859633 0.386029 -0.922486 581.949 876.312)" stroke="#FFCEC7" stroke-width="2"/>
<line y1="-1" x2="25.6828" y2="-1" transform="matrix(0.653686 0.756766 0.276689 -0.96096 581.345 793.014)" stroke="#FFCEC7" stroke-width="2"/>
<line y1="-1" x2="22.5522" y2="-1" transform="matrix(0.807754 0.589519 0.178597 -0.983922 580.738 710.166)" stroke="#FFCEC7" stroke-width="2"/>
<line y1="-1" x2="20.2494" y2="-1" transform="matrix(0.942805 0.333345 0.0875976 -0.996156 580.133 627.611)" stroke="#FFCEC7" stroke-width="2"/>
<line y1="-1" x2="19.3857" y2="-1" transform="matrix(1 1.19249e-08 1.19249e-08 -1 580.133 545.214)" stroke="#FFCEC7" stroke-width="2"/>
<line y1="-1" x2="20.2494" y2="-1" transform="matrix(0.942805 -0.333345 -0.0875976 -0.996156 580.133 462.806)" stroke="#FFCEC7" stroke-width="2"/>
<line y1="-1" x2="22.5522" y2="-1" transform="matrix(0.807755 -0.589519 -0.178597 -0.983922 546.813 467.718)" stroke="#FFCEC7" stroke-width="2"/>
<line y1="-1" x2="25.6828" y2="-1" transform="matrix(0.653686 -0.756766 -0.276688 -0.96096 547.419 384.859)" stroke="#FFCEC7" stroke-width="2"/>
<line y1="-1" x2="29.0663" y2="-1" transform="matrix(0.510912 -0.859633 -0.386029 -0.922487 548.026 301.56)" stroke="#FFCEC7" stroke-width="2"/>
<line y1="-1" x2="32.2796" y2="-1" transform="matrix(0.386029 -0.922486 -0.510912 -0.859633 549.237 217.688)" stroke="#FFCEC7" stroke-width="2"/>
<line y1="-1" x2="35.0317" y2="-1" transform="matrix(0.276689 -0.96096 -0.653686 -0.756766 551.055 133.146)" stroke="#FFCEC7" stroke-width="2"/>
<line y1="-1" x2="37.1245" y2="-1" transform="matrix(0.178597 -0.983922 -0.807754 -0.58952 552.266 47.8359)" stroke="#FFCEC7" stroke-width="2"/>
<line y1="-1" x2="25.6828" y2="-1" transform="matrix(0.653686 0.756766 0.276689 -0.96096 547.419 880.481)" stroke="#FFCEC7" stroke-width="2"/>
<line y1="-1" x2="22.5522" y2="-1" transform="matrix(0.807754 0.589519 0.178597 -0.983922 546.813 797.622)" stroke="#FFCEC7" stroke-width="2"/>
<line y1="-1" x2="20.2493" y2="-1" transform="matrix(0.942805 0.333345 0.0875978 -0.996156 546.208 715.067)" stroke="#FFCEC7" stroke-width="2"/>
<line y1="-1" x2="19.3857" y2="-1" transform="matrix(1 1.19249e-08 1.19249e-08 -1 546.208 632.67)" stroke="#FFCEC7" stroke-width="2"/>
<line y1="-1" x2="20.2493" y2="-1" transform="matrix(0.942805 -0.333344 -0.087598 -0.996156 546.208 550.273)" stroke="#FFCEC7" stroke-width="2"/>
<line y1="-1" x2="22.5522" y2="-1" transform="matrix(0.807755 -0.589519 -0.178597 -0.983922 512.889 555.174)" stroke="#FFCEC7" stroke-width="2"/>
<line y1="-1" x2="25.6828" y2="-1" transform="matrix(0.653686 -0.756766 -0.276689 -0.96096 513.493 472.327)" stroke="#FFCEC7" stroke-width="2"/>
<line y1="-1" x2="29.0663" y2="-1" transform="matrix(0.510912 -0.859633 -0.386029 -0.922487 514.1 389.028)" stroke="#FFCEC7" stroke-width="2"/>
<line y1="-1" x2="32.2796" y2="-1" transform="matrix(0.386029 -0.922486 -0.510912 -0.859633 515.311 305.156)" stroke="#FFCEC7" stroke-width="2"/>
<line y1="-1" x2="35.0316" y2="-1" transform="matrix(0.276689 -0.960959 -0.653686 -0.756766 517.129 220.602)" stroke="#FFCEC7" stroke-width="2"/>
<line y1="-1" x2="37.1245" y2="-1" transform="matrix(0.178597 -0.983922 -0.807754 -0.58952 518.341 135.292)" stroke="#FFCEC7" stroke-width="2"/>
<line y1="-1" x2="38.429" y2="-1" transform="matrix(0.0875978 -0.996156 -0.942805 -0.333345 520.158 49.1406)" stroke="#FFCEC7" stroke-width="2"/>
<line y1="-1" x2="22.5522" y2="-1" transform="matrix(0.807754 0.589519 0.178597 -0.983922 512.889 885.09)" stroke="#FFCEC7" stroke-width="2"/>
<line y1="-1" x2="20.2494" y2="-1" transform="matrix(0.942805 0.333345 0.0875978 -0.996156 512.282 802.535)" stroke="#FFCEC7" stroke-width="2"/>
<line y1="-1" x2="19.3857" y2="-1" transform="matrix(1 1.19249e-08 1.19249e-08 -1 512.282 720.138)" stroke="#FFCEC7" stroke-width="2"/>
<line y1="-1" x2="20.2493" y2="-1" transform="matrix(0.942805 -0.333344 -0.087598 -0.996156 512.282 637.729)" stroke="#FFCEC7" stroke-width="2"/>
<line y1="-1" x2="22.5521" y2="-1" transform="matrix(0.807754 -0.589519 -0.178597 -0.983922 478.963 642.642)" stroke="#FFCEC7" stroke-width="2"/>
<line y1="-1" x2="25.6828" y2="-1" transform="matrix(0.653685 -0.756766 -0.276688 -0.96096 479.57 559.782)" stroke="#FFCEC7" stroke-width="2"/>
<line y1="-1" x2="29.0662" y2="-1" transform="matrix(0.510913 -0.859633 -0.38603 -0.922486 480.174 476.483)" stroke="#FFCEC7" stroke-width="2"/>
<line y1="-1" x2="32.2796" y2="-1" transform="matrix(0.386029 -0.922487 -0.510912 -0.859633 481.387 392.612)" stroke="#FFCEC7" stroke-width="2"/>
<line y1="-1" x2="35.0317" y2="-1" transform="matrix(0.276689 -0.96096 -0.653686 -0.756766 483.204 308.07)" stroke="#FFCEC7" stroke-width="2"/>
<line y1="-1" x2="37.1244" y2="-1" transform="matrix(0.178597 -0.983922 -0.807754 -0.58952 484.417 222.76)" stroke="#FFCEC7" stroke-width="2"/>
<line y1="-1" x2="38.429" y2="-1" transform="matrix(0.087598 -0.996156 -0.942805 -0.333344 486.233 136.608)" stroke="#FFCEC7" stroke-width="2"/>
<line y1="-1" x2="20.2493" y2="-1" transform="matrix(0.942805 0.333345 0.0875977 -0.996156 478.358 889.99)" stroke="#FFCEC7" stroke-width="2"/>
<line y1="-1" x2="19.3857" y2="-1" transform="matrix(1 1.19249e-08 1.19249e-08 -1 478.358 807.594)" stroke="#FFCEC7" stroke-width="2"/>
<line y1="-1" x2="20.2493" y2="-1" transform="matrix(0.942805 -0.333345 -0.0875978 -0.996156 478.358 725.197)" stroke="#FFCEC7" stroke-width="2"/>
<line y1="-1" x2="38.8718" y2="-1" transform="matrix(-1.19249e-08 1 1 1.19249e-08 488.051 0.999512)" stroke="#FFCEC7" stroke-width="2"/>
<line y1="-1" x2="22.5522" y2="-1" transform="matrix(0.807754 -0.58952 -0.178597 -0.983922 445.039 730.098)" stroke="#FFCEC7" stroke-width="2"/>
<line y1="-1" x2="25.6828" y2="-1" transform="matrix(0.653686 -0.756766 -0.276689 -0.96096 445.644 647.25)" stroke="#FFCEC7" stroke-width="2"/>
<line y1="-1" x2="29.0663" y2="-1" transform="matrix(0.510912 -0.859633 -0.386029 -0.922487 446.25 563.952)" stroke="#FFCEC7" stroke-width="2"/>
<line y1="-1" x2="32.2796" y2="-1" transform="matrix(0.386029 -0.922486 -0.510912 -0.859633 447.462 480.08)" stroke="#FFCEC7" stroke-width="2"/>
<line y1="-1" x2="35.0317" y2="-1" transform="matrix(0.276689 -0.96096 -0.653686 -0.756766 449.28 395.525)" stroke="#FFCEC7" stroke-width="2"/>
<line y1="-1" x2="37.1245" y2="-1" transform="matrix(0.178597 -0.983922 -0.807754 -0.589519 450.491 310.215)" stroke="#FFCEC7" stroke-width="2"/>
<line y1="-1" x2="38.429" y2="-1" transform="matrix(0.087598 -0.996156 -0.942805 -0.333344 452.309 224.064)" stroke="#FFCEC7" stroke-width="2"/>
<line y1="-1" x2="19.3857" y2="-1" transform="matrix(1 1.19249e-08 1.19249e-08 -1 444.433 895.062)" stroke="#FFCEC7" stroke-width="2"/>
<line y1="-1" x2="20.2494" y2="-1" transform="matrix(0.942805 -0.333345 -0.0875978 -0.996156 444.433 812.653)" stroke="#FFCEC7" stroke-width="2"/>
<line y1="-1" x2="38.8718" y2="-1" transform="matrix(-1.19249e-08 1 1 1.19249e-08 454.125 88.4673)" stroke="#FFCEC7" stroke-width="2"/>
<line y1="-1" x2="38.429" y2="-1" transform="matrix(0.087598 0.996156 0.942805 -0.333344 452.309 1.43848)" stroke="#FFCEC7" stroke-width="2"/>
<line y1="-1" x2="22.5522" y2="-1" transform="matrix(0.807754 -0.589519 -0.178597 -0.983922 411.113 817.565)" stroke="#FFCEC7" stroke-width="2"/>
<line y1="-1" x2="25.6829" y2="-1" transform="matrix(0.653686 -0.756766 -0.276689 -0.96096 411.72 734.706)" stroke="#FFCEC7" stroke-width="2"/>
<line y1="-1" x2="29.0662" y2="-1" transform="matrix(0.510913 -0.859633 -0.38603 -0.922486 412.325 651.407)" stroke="#FFCEC7" stroke-width="2"/>
<line y1="-1" x2="32.2796" y2="-1" transform="matrix(0.386029 -0.922486 -0.510912 -0.859633 413.536 567.536)" stroke="#FFCEC7" stroke-width="2"/>
<line y1="-1" x2="35.0316" y2="-1" transform="matrix(0.276689 -0.96096 -0.653686 -0.756766 415.354 482.993)" stroke="#FFCEC7" stroke-width="2"/>
<line y1="-1" x2="37.1244" y2="-1" transform="matrix(0.178597 -0.983922 -0.807754 -0.58952 416.565 397.683)" stroke="#FFCEC7" stroke-width="2"/>
<line y1="-1" x2="38.429" y2="-1" transform="matrix(0.0875977 -0.996156 -0.942805 -0.333345 418.383 311.532)" stroke="#FFCEC7" stroke-width="2"/>
<line y1="-1" x2="20.2493" y2="-1" transform="matrix(0.942805 -0.333345 -0.0875977 -0.996156 410.507 900.121)" stroke="#FFCEC7" stroke-width="2"/>
<line y1="-1" x2="38.8718" y2="-1" transform="matrix(-1.19249e-08 1 1 1.19249e-08 420.201 175.923)" stroke="#FFCEC7" stroke-width="2"/>
<line y1="-1" x2="38.429" y2="-1" transform="matrix(0.0875976 0.996156 0.942805 -0.333345 418.383 88.9062)" stroke="#FFCEC7" stroke-width="2"/>
<line y1="-1" x2="37.1245" y2="-1" transform="matrix(0.178596 0.983922 0.807754 -0.58952 416.565 2.75488)" stroke="#FFCEC7" stroke-width="2"/>
<line y1="-1" x2="22.5522" y2="-1" transform="matrix(0.807754 -0.58952 -0.178597 -0.983922 377.188 905.021)" stroke="#FFCEC7" stroke-width="2"/>
<line y1="-1" x2="25.6828" y2="-1" transform="matrix(0.653686 -0.756766 -0.276688 -0.96096 377.794 822.174)" stroke="#FFCEC7" stroke-width="2"/>
<line y1="-1" x2="29.0663" y2="-1" transform="matrix(0.510913 -0.859633 -0.38603 -0.922486 378.401 738.875)" stroke="#FFCEC7" stroke-width="2"/>
<line y1="-1" x2="32.2796" y2="-1" transform="matrix(0.386029 -0.922486 -0.510912 -0.859633 379.612 655.003)" stroke="#FFCEC7" stroke-width="2"/>
<line y1="-1" x2="35.0316" y2="-1" transform="matrix(0.276689 -0.96096 -0.653686 -0.756766 381.43 570.449)" stroke="#FFCEC7" stroke-width="2"/>
<line y1="-1" x2="37.1244" y2="-1" transform="matrix(0.178597 -0.983922 -0.807754 -0.58952 382.641 485.139)" stroke="#FFCEC7" stroke-width="2"/>
<line y1="-1" x2="38.429" y2="-1" transform="matrix(0.0875977 -0.996156 -0.942805 -0.333345 384.458 398.988)" stroke="#FFCEC7" stroke-width="2"/>
<line y1="-1" x2="35.0317" y2="-1" transform="matrix(0.276689 0.96096 0.653686 -0.756766 381.43 4.90039)" stroke="#FFCEC7" stroke-width="2"/>
<line y1="-1" x2="38.8718" y2="-1" transform="matrix(-1.19249e-08 1 1 1.19249e-08 386.275 263.379)" stroke="#FFCEC7" stroke-width="2"/>
<line y1="-1" x2="38.429" y2="-1" transform="matrix(0.0875976 0.996156 0.942805 -0.333345 384.458 176.362)" stroke="#FFCEC7" stroke-width="2"/>
<line y1="-1" x2="37.1244" y2="-1" transform="matrix(0.178597 0.983922 0.807754 -0.58952 382.641 90.2231)" stroke="#FFCEC7" stroke-width="2"/>
<line y1="-1" x2="25.6828" y2="-1" transform="matrix(0.653686 -0.756766 -0.276689 -0.96096 343.869 909.629)" stroke="#FFCEC7" stroke-width="2"/>
<line y1="-1" x2="29.0663" y2="-1" transform="matrix(0.510912 -0.859633 -0.386029 -0.922486 344.475 826.331)" stroke="#FFCEC7" stroke-width="2"/>
<line y1="-1" x2="32.2796" y2="-1" transform="matrix(0.386029 -0.922487 -0.510912 -0.859633 345.687 742.459)" stroke="#FFCEC7" stroke-width="2"/>
<line y1="-1" x2="35.0316" y2="-1" transform="matrix(0.276689 -0.960959 -0.653687 -0.756765 347.504 657.917)" stroke="#FFCEC7" stroke-width="2"/>
<line y1="-1" x2="37.1244" y2="-1" transform="matrix(0.178597 -0.983922 -0.807754 -0.589519 348.716 572.607)" stroke="#FFCEC7" stroke-width="2"/>
<line y1="-1" x2="38.429" y2="-1" transform="matrix(0.087598 -0.996156 -0.942805 -0.333344 350.533 486.456)" stroke="#FFCEC7" stroke-width="2"/>
<line y1="-1" x2="35.0316" y2="-1" transform="matrix(0.276689 0.960959 0.653687 -0.756765 347.504 92.3687)" stroke="#FFCEC7" stroke-width="2"/>
<line y1="-1" x2="32.2796" y2="-1" transform="matrix(0.386029 0.922487 0.510912 -0.859633 345.687 7.81396)" stroke="#FFCEC7" stroke-width="2"/>
<line y1="-1" x2="38.8718" y2="-1" transform="matrix(-1.19249e-08 1 1 1.19249e-08 352.351 350.847)" stroke="#FFCEC7" stroke-width="2"/>
<line y1="-1" x2="38.429" y2="-1" transform="matrix(0.087598 0.996156 0.942805 -0.333344 350.533 263.83)" stroke="#FFCEC7" stroke-width="2"/>
<line y1="-1" x2="37.1245" y2="-1" transform="matrix(0.178597 0.983922 0.807754 -0.589519 348.716 177.679)" stroke="#FFCEC7" stroke-width="2"/>
<line y1="-1" x2="29.0663" y2="-1" transform="matrix(0.510912 -0.859633 -0.386029 -0.922486 310.55 913.799)" stroke="#FFCEC7" stroke-width="2"/>
<line y1="-1" x2="32.2796" y2="-1" transform="matrix(0.38603 -0.922486 -0.510913 -0.859632 311.762 829.927)" stroke="#FFCEC7" stroke-width="2"/>
<line y1="-1" x2="35.0316" y2="-1" transform="matrix(0.276688 -0.96096 -0.653685 -0.756766 313.579 745.373)" stroke="#FFCEC7" stroke-width="2"/>
<line y1="-1" x2="37.1244" y2="-1" transform="matrix(0.178596 -0.983922 -0.807753 -0.589521 314.79 660.062)" stroke="#FFCEC7" stroke-width="2"/>
<line y1="-1" x2="38.429" y2="-1" transform="matrix(0.087598 -0.996156 -0.942805 -0.333344 316.608 573.911)" stroke="#FFCEC7" stroke-width="2"/>
<line y1="-1" x2="35.0316" y2="-1" transform="matrix(0.276689 0.96096 0.653686 -0.756766 313.579 179.824)" stroke="#FFCEC7" stroke-width="2"/>
<line y1="-1" x2="32.2796" y2="-1" transform="matrix(0.38603 0.922486 0.510913 -0.859632 311.762 95.2822)" stroke="#FFCEC7" stroke-width="2"/>
<line y1="-1" x2="29.0662" y2="-1" transform="matrix(0.510913 0.859632 0.38603 -0.922486 310.55 11.4106)" stroke="#FFCEC7" stroke-width="2"/>
<line y1="-1" x2="38.8718" y2="-1" transform="matrix(-1.19249e-08 1 1 1.19249e-08 318.426 438.302)" stroke="#FFCEC7" stroke-width="2"/>
<line y1="-1" x2="38.429" y2="-1" transform="matrix(0.087598 0.996156 0.942805 -0.333344 316.608 351.286)" stroke="#FFCEC7" stroke-width="2"/>
<line y1="-1" x2="37.1245" y2="-1" transform="matrix(0.178596 0.983922 0.807753 -0.589521 314.79 265.134)" stroke="#FFCEC7" stroke-width="2"/>
<line y1="-1" x2="32.2796" y2="-1" transform="matrix(0.386029 -0.922487 -0.510912 -0.859633 277.837 917.383)" stroke="#FFCEC7" stroke-width="2"/>
<line y1="-1" x2="35.0316" y2="-1" transform="matrix(0.276689 -0.960959 -0.653687 -0.756765 279.655 832.84)" stroke="#FFCEC7" stroke-width="2"/>
<line y1="-1" x2="37.1244" y2="-1" transform="matrix(0.178597 -0.983922 -0.807755 -0.589519 280.866 747.53)" stroke="#FFCEC7" stroke-width="2"/>
<line y1="-1" x2="38.429" y2="-1" transform="matrix(0.0875973 -0.996156 -0.942804 -0.333347 282.684 661.379)" stroke="#FFCEC7" stroke-width="2"/>
<line y1="-1" x2="35.0316" y2="-1" transform="matrix(0.276689 0.960959 0.653687 -0.756765 279.655 267.292)" stroke="#FFCEC7" stroke-width="2"/>
<line y1="-1" x2="32.2796" y2="-1" transform="matrix(0.386029 0.922487 0.510912 -0.859633 277.837 182.738)" stroke="#FFCEC7" stroke-width="2"/>
<line y1="-1" x2="29.0662" y2="-1" transform="matrix(0.510913 0.859632 0.38603 -0.922486 276.625 98.8784)" stroke="#FFCEC7" stroke-width="2"/>
<line y1="-1" x2="25.6829" y2="-1" transform="matrix(0.653686 0.756766 0.276689 -0.96096 276.019 15.5674)" stroke="#FFCEC7" stroke-width="2"/>
<line y1="-1" x2="38.8718" y2="-1" transform="matrix(-1.19249e-08 1 1 1.19249e-08 284.5 525.771)" stroke="#FFCEC7" stroke-width="2"/>
<line y1="-1" x2="38.429" y2="-1" transform="matrix(0.0875972 0.996156 0.942804 -0.333347 282.684 438.753)" stroke="#FFCEC7" stroke-width="2"/>
<line y1="-1" x2="37.1244" y2="-1" transform="matrix(0.178597 0.983922 0.807755 -0.589519 280.866 352.602)" stroke="#FFCEC7" stroke-width="2"/>
<line y1="-1" x2="35.0316" y2="-1" transform="matrix(0.276688 -0.96096 -0.653685 -0.756766 245.729 920.296)" stroke="#FFCEC7" stroke-width="2"/>
<line y1="-1" x2="37.1244" y2="-1" transform="matrix(0.178596 -0.983922 -0.807753 -0.589521 246.94 834.986)" stroke="#FFCEC7" stroke-width="2"/>
<line y1="-1" x2="38.429" y2="-1" transform="matrix(0.087598 -0.996156 -0.942805 -0.333344 248.758 748.835)" stroke="#FFCEC7" stroke-width="2"/>
<line y1="-1" x2="35.0316" y2="-1" transform="matrix(0.276689 0.96096 0.653686 -0.756766 245.729 354.748)" stroke="#FFCEC7" stroke-width="2"/>
<line y1="-1" x2="32.2796" y2="-1" transform="matrix(0.386029 0.922487 0.510912 -0.859633 243.911 270.206)" stroke="#FFCEC7" stroke-width="2"/>
<line y1="-1" x2="29.0662" y2="-1" transform="matrix(0.510913 0.859632 0.38603 -0.922486 242.7 186.334)" stroke="#FFCEC7" stroke-width="2"/>
<line y1="-1" x2="25.6829" y2="-1" transform="matrix(0.653686 0.756766 0.276689 -0.96096 242.095 103.035)" stroke="#FFCEC7" stroke-width="2"/>
<line y1="-1" x2="22.5522" y2="-1" transform="matrix(0.807755 0.589519 0.178597 -0.983922 241.489 20.1753)" stroke="#FFCEC7" stroke-width="2"/>
<line y1="-1" x2="38.8718" y2="-1" transform="matrix(-1.19249e-08 1 1 1.19249e-08 250.576 613.226)" stroke="#FFCEC7" stroke-width="2"/>
<line y1="-1" x2="38.429" y2="-1" transform="matrix(0.087598 0.996156 0.942805 -0.333344 248.758 526.209)" stroke="#FFCEC7" stroke-width="2"/>
<line y1="-1" x2="37.1244" y2="-1" transform="matrix(0.178596 0.983922 0.807753 -0.589521 246.94 440.058)" stroke="#FFCEC7" stroke-width="2"/>
<line y1="-1" x2="37.1244" y2="-1" transform="matrix(0.178597 -0.983922 -0.807755 -0.589519 213.016 922.454)" stroke="#FFCEC7" stroke-width="2"/>
<line y1="-1" x2="38.429" y2="-1" transform="matrix(0.087598 -0.996156 -0.942805 -0.333344 214.833 836.303)" stroke="#FFCEC7" stroke-width="2"/>
<line y1="-1" x2="35.0316" y2="-1" transform="matrix(0.276688 0.96096 0.653685 -0.756766 211.803 442.216)" stroke="#FFCEC7" stroke-width="2"/>
<line y1="-1" x2="32.2796" y2="-1" transform="matrix(0.386029 0.922487 0.510912 -0.859633 209.987 357.661)" stroke="#FFCEC7" stroke-width="2"/>
<line y1="-1" x2="29.0662" y2="-1" transform="matrix(0.510913 0.859632 0.38603 -0.922486 208.776 273.79)" stroke="#FFCEC7" stroke-width="2"/>
<line y1="-1" x2="25.6828" y2="-1" transform="matrix(0.653685 0.756767 0.276688 -0.96096 208.169 190.491)" stroke="#FFCEC7" stroke-width="2"/>
<line y1="-1" x2="22.5521" y2="-1" transform="matrix(0.807754 0.589519 0.178597 -0.983922 207.563 107.644)" stroke="#FFCEC7" stroke-width="2"/>
<line y1="-1" x2="20.2493" y2="-1" transform="matrix(0.942805 0.333344 0.087598 -0.996156 206.958 25.0884)" stroke="#FFCEC7" stroke-width="2"/>
<line y1="-1" x2="38.8718" y2="-1" transform="matrix(-1.19249e-08 1 1 1.19249e-08 216.65 700.694)" stroke="#FFCEC7" stroke-width="2"/>
<line y1="-1" x2="38.429" y2="-1" transform="matrix(0.087598 0.996156 0.942805 -0.333344 214.833 613.677)" stroke="#FFCEC7" stroke-width="2"/>
<line y1="-1" x2="37.1244" y2="-1" transform="matrix(0.178597 0.983922 0.807754 -0.589519 213.016 527.526)" stroke="#FFCEC7" stroke-width="2"/>
<line y1="-1" x2="38.429" y2="-1" transform="matrix(0.087598 -0.996156 -0.942805 -0.333344 180.908 923.758)" stroke="#FFCEC7" stroke-width="2"/>
<line y1="-1" x2="35.0316" y2="-1" transform="matrix(0.276689 0.960959 0.653687 -0.756765 177.879 529.671)" stroke="#FFCEC7" stroke-width="2"/>
<line y1="-1" x2="32.2796" y2="-1" transform="matrix(0.386029 0.922487 0.510912 -0.859633 176.062 445.129)" stroke="#FFCEC7" stroke-width="2"/>
<line y1="-1" x2="29.0662" y2="-1" transform="matrix(0.510913 0.859632 0.38603 -0.922486 174.85 361.258)" stroke="#FFCEC7" stroke-width="2"/>
<line y1="-1" x2="25.6829" y2="-1" transform="matrix(0.653686 0.756766 0.276689 -0.96096 174.244 277.959)" stroke="#FFCEC7" stroke-width="2"/>
<line y1="-1" x2="22.5522" y2="-1" transform="matrix(0.807755 0.589519 0.178597 -0.983922 173.639 195.099)" stroke="#FFCEC7" stroke-width="2"/>
<line y1="-1" x2="20.2494" y2="-1" transform="matrix(0.942805 0.333344 0.0875981 -0.996156 173.032 112.544)" stroke="#FFCEC7" stroke-width="2"/>
<line y1="-1" x2="19.3857" y2="-1" transform="matrix(1 1.19249e-08 1.19249e-08 -1 173.032 30.1475)" stroke="#FFCEC7" stroke-width="2"/>
<line y1="-1" x2="38.8718" y2="-1" transform="matrix(-1.19249e-08 1 1 1.19249e-08 182.726 788.149)" stroke="#FFCEC7" stroke-width="2"/>
<line y1="-1" x2="38.429" y2="-1" transform="matrix(0.087598 0.996156 0.942805 -0.333344 180.908 701.133)" stroke="#FFCEC7" stroke-width="2"/>
<line y1="-1" x2="37.1244" y2="-1" transform="matrix(0.178597 0.983922 0.807754 -0.589519 179.091 614.981)" stroke="#FFCEC7" stroke-width="2"/>
<line y1="-1" x2="35.0316" y2="-1" transform="matrix(0.276688 0.96096 0.653685 -0.756766 143.954 617.139)" stroke="#FFCEC7" stroke-width="2"/>
<line y1="-1" x2="32.2796" y2="-1" transform="matrix(0.38603 0.922486 0.510913 -0.859632 142.137 532.585)" stroke="#FFCEC7" stroke-width="2"/>
<line y1="-1" x2="29.0663" y2="-1" transform="matrix(0.510912 0.859633 0.386029 -0.922487 140.925 448.713)" stroke="#FFCEC7" stroke-width="2"/>
<line y1="-1" x2="25.6829" y2="-1" transform="matrix(0.653686 0.756766 0.276689 -0.96096 140.32 365.415)" stroke="#FFCEC7" stroke-width="2"/>
<line y1="-1" x2="22.5522" y2="-1" transform="matrix(0.807753 0.589521 0.178596 -0.983922 139.713 282.567)" stroke="#FFCEC7" stroke-width="2"/>
<line y1="-1" x2="20.2494" y2="-1" transform="matrix(0.942804 0.333347 0.0875972 -0.996156 139.108 200.012)" stroke="#FFCEC7" stroke-width="2"/>
<line y1="-1" x2="19.3857" y2="-1" transform="matrix(1 1.19249e-08 1.19249e-08 -1 139.108 117.615)" stroke="#FFCEC7" stroke-width="2"/>
<line y1="-1" x2="20.2494" y2="-1" transform="matrix(0.942804 -0.333347 -0.0875972 -0.996156 139.108 35.2065)" stroke="#FFCEC7" stroke-width="2"/>
<line y1="-1" x2="38.8718" y2="-1" transform="matrix(-1.19249e-08 1 1 1.19249e-08 148.801 875.618)" stroke="#FFCEC7" stroke-width="2"/>
<line y1="-1" x2="38.429" y2="-1" transform="matrix(0.087598 0.996156 0.942805 -0.333344 146.983 788.601)" stroke="#FFCEC7" stroke-width="2"/>
<line y1="-1" x2="37.1244" y2="-1" transform="matrix(0.178596 0.983922 0.807753 -0.589521 145.165 702.449)" stroke="#FFCEC7" stroke-width="2"/>
<line y1="-1" x2="22.5522" y2="-1" transform="matrix(0.807753 -0.589521 -0.178596 -0.983922 105.789 40.1196)" stroke="#FFCEC7" stroke-width="2"/>
<line y1="-1" x2="35.0316" y2="-1" transform="matrix(0.276688 0.96096 0.653684 -0.756767 110.03 704.595)" stroke="#FFCEC7" stroke-width="2"/>
<line y1="-1" x2="32.2796" y2="-1" transform="matrix(0.386029 0.922487 0.510912 -0.859633 108.212 620.053)" stroke="#FFCEC7" stroke-width="2"/>
<line y1="-1" x2="29.0663" y2="-1" transform="matrix(0.510913 0.859632 0.38603 -0.922486 107.001 536.181)" stroke="#FFCEC7" stroke-width="2"/>
<line y1="-1" x2="25.6828" y2="-1" transform="matrix(0.653686 0.756766 0.276689 -0.96096 106.394 452.882)" stroke="#FFCEC7" stroke-width="2"/>
<line y1="-1" x2="22.5522" y2="-1" transform="matrix(0.807755 0.589519 0.178597 -0.983922 105.789 370.022)" stroke="#FFCEC7" stroke-width="2"/>
<line y1="-1" x2="20.2494" y2="-1" transform="matrix(0.942805 0.333344 0.0875981 -0.996156 105.183 287.468)" stroke="#FFCEC7" stroke-width="2"/>
<line y1="-1" x2="19.3857" y2="-1" transform="matrix(1 1.19249e-08 1.19249e-08 -1 105.183 205.071)" stroke="#FFCEC7" stroke-width="2"/>
<line y1="-1" x2="20.2494" y2="-1" transform="matrix(0.942804 -0.333346 -0.0875973 -0.996156 105.183 122.674)" stroke="#FFCEC7" stroke-width="2"/>
<line y1="-1" x2="38.429" y2="-1" transform="matrix(0.0875988 0.996156 0.942806 -0.333341 113.059 876.056)" stroke="#FFCEC7" stroke-width="2"/>
<line y1="-1" x2="37.1244" y2="-1" transform="matrix(0.178595 0.983923 0.807752 -0.589523 111.241 789.905)" stroke="#FFCEC7" stroke-width="2"/>
<line y1="-1" x2="22.5521" y2="-1" transform="matrix(0.807752 -0.589522 -0.178596 -0.983923 71.8638 127.575)" stroke="#FFCEC7" stroke-width="2"/>
<line y1="-1" x2="25.6829" y2="-1" transform="matrix(0.653686 -0.756766 -0.276689 -0.96096 72.4702 44.7275)" stroke="#FFCEC7" stroke-width="2"/>
<line y1="-1" x2="35.0316" y2="-1" transform="matrix(0.276689 0.960959 0.653687 -0.756765 76.1042 792.063)" stroke="#FFCEC7" stroke-width="2"/>
<line y1="-1" x2="32.2796" y2="-1" transform="matrix(0.386029 0.922487 0.510912 -0.859633 74.2864 707.508)" stroke="#FFCEC7" stroke-width="2"/>
<line y1="-1" x2="29.0663" y2="-1" transform="matrix(0.510913 0.859632 0.38603 -0.922486 73.075 623.637)" stroke="#FFCEC7" stroke-width="2"/>
<line y1="-1" x2="25.6829" y2="-1" transform="matrix(0.653686 0.756766 0.276689 -0.96096 72.4702 540.338)" stroke="#FFCEC7" stroke-width="2"/>
<line y1="-1" x2="22.5521" y2="-1" transform="matrix(0.807754 0.58952 0.178597 -0.983922 71.8638 457.491)" stroke="#FFCEC7" stroke-width="2"/>
<line y1="-1" x2="20.2494" y2="-1" transform="matrix(0.942804 0.333347 0.0875972 -0.996156 71.2573 374.936)" stroke="#FFCEC7" stroke-width="2"/>
<line y1="-1" x2="19.3857" y2="-1" transform="matrix(1 1.19249e-08 1.19249e-08 -1 71.2573 292.539)" stroke="#FFCEC7" stroke-width="2"/>
<line y1="-1" x2="20.2494" y2="-1" transform="matrix(0.942804 -0.333347 -0.0875972 -0.996156 71.2573 210.13)" stroke="#FFCEC7" stroke-width="2"/>
<line y1="-1" x2="37.1244" y2="-1" transform="matrix(0.178597 0.983922 0.807755 -0.589519 77.3157 877.373)" stroke="#FFCEC7" stroke-width="2"/>
<line y1="-1" x2="22.5522" y2="-1" transform="matrix(0.807755 -0.589519 -0.178597 -0.983922 37.9382 215.043)" stroke="#FFCEC7" stroke-width="2"/>
<line y1="-1" x2="25.6829" y2="-1" transform="matrix(0.653686 -0.756766 -0.276689 -0.96096 38.5447 132.183)" stroke="#FFCEC7" stroke-width="2"/>
<line y1="-1" x2="29.0662" y2="-1" transform="matrix(0.510912 -0.859633 -0.386029 -0.922486 39.1511 48.8843)" stroke="#FFCEC7" stroke-width="2"/>
<line y1="-1" x2="35.0316" y2="-1" transform="matrix(0.276689 0.960959 0.653687 -0.756765 42.1787 879.519)" stroke="#FFCEC7" stroke-width="2"/>
<line y1="-1" x2="32.2797" y2="-1" transform="matrix(0.386031 0.922486 0.510914 -0.859632 40.3623 794.977)" stroke="#FFCEC7" stroke-width="2"/>
<line y1="-1" x2="29.0662" y2="-1" transform="matrix(0.510912 0.859633 0.386029 -0.922487 39.1511 711.105)" stroke="#FFCEC7" stroke-width="2"/>
<line y1="-1" x2="25.6828" y2="-1" transform="matrix(0.653686 0.756766 0.276689 -0.96096 38.5447 627.806)" stroke="#FFCEC7" stroke-width="2"/>
<line y1="-1" x2="22.5522" y2="-1" transform="matrix(0.807755 0.589519 0.178597 -0.983922 37.9382 544.946)" stroke="#FFCEC7" stroke-width="2"/>
<line y1="-1" x2="20.2493" y2="-1" transform="matrix(0.942805 0.333344 0.087598 -0.996156 37.3333 462.391)" stroke="#FFCEC7" stroke-width="2"/>
<line y1="-1" x2="19.3857" y2="-1" transform="matrix(1 1.19249e-08 1.19249e-08 -1 37.3333 379.995)" stroke="#FFCEC7" stroke-width="2"/>
<line y1="-1" x2="20.2493" y2="-1" transform="matrix(0.942805 -0.333344 -0.087598 -0.996156 37.3333 297.598)" stroke="#FFCEC7" stroke-width="2"/>
<line y1="-1" x2="22.5522" y2="-1" transform="matrix(0.807753 -0.589521 -0.178596 -0.983922 4.01416 302.499)" stroke="#FFCEC7" stroke-width="2"/>
<line y1="-1" x2="25.6829" y2="-1" transform="matrix(0.653686 -0.756766 -0.276689 -0.96096 4.6189 219.651)" stroke="#FFCEC7" stroke-width="2"/>
<line y1="-1" x2="29.0662" y2="-1" transform="matrix(0.510912 -0.859633 -0.386029 -0.922486 5.22534 136.353)" stroke="#FFCEC7" stroke-width="2"/>
<line y1="-1" x2="32.2796" y2="-1" transform="matrix(0.386029 -0.922487 -0.510912 -0.859633 6.43677 52.4805)" stroke="#FFCEC7" stroke-width="2"/>
<line y1="-1" x2="32.2796" y2="-1" transform="matrix(0.386029 0.922487 0.510912 -0.859633 6.43677 882.432)" stroke="#FFCEC7" stroke-width="2"/>
<line y1="-1" x2="29.0662" y2="-1" transform="matrix(0.510912 0.859633 0.386029 -0.922487 5.22534 798.561)" stroke="#FFCEC7" stroke-width="2"/>
<line y1="-1" x2="25.6829" y2="-1" transform="matrix(0.653686 0.756766 0.276689 -0.96096 4.6189 715.262)" stroke="#FFCEC7" stroke-width="2"/>
<line y1="-1" x2="22.5522" y2="-1" transform="matrix(0.807755 0.589519 0.178597 -0.983922 4.01416 632.414)" stroke="#FFCEC7" stroke-width="2"/>
<line y1="-1" x2="20.2493" y2="-1" transform="matrix(0.942805 0.333344 0.087598 -0.996156 3.40771 549.859)" stroke="#FFCEC7" stroke-width="2"/>
<line y1="-1" x2="19.3857" y2="-1" transform="matrix(1 1.19249e-08 1.19249e-08 -1 3.40771 467.462)" stroke="#FFCEC7" stroke-width="2"/>
<line y1="-1" x2="20.2494" y2="-1" transform="matrix(0.942804 -0.333347 -0.0875972 -0.996156 3.40771 385.054)" stroke="#FFCEC7" stroke-width="2"/>
</g>
</svg>
