<svg width="110" height="110" viewBox="0 0 110 110" fill="none" xmlns="http://www.w3.org/2000/svg">
<path d="M89.1223 34.136C89.1223 34.136 86.5515 36.4623 81.437 40.3422C76.3226 44.2221 68.6755 49.6489 58.5338 55.8435C70.9229 76.1269 75.8366 89.1223 75.8366 89.1223C75.8366 89.1223 73.5104 86.5516 69.6305 81.4371C65.7506 76.3227 60.3237 68.6755 54.1291 58.5339C33.8458 70.923 20.8503 75.8367 20.8503 75.8367C20.8503 75.8367 23.4211 73.5104 28.5355 69.6305C33.65 65.7506 41.2971 60.3238 51.4388 54.1292C39.0497 33.8458 34.136 20.8504 34.136 20.8504C34.136 20.8504 43.4543 31.1555 55.8434 51.4389C76.1268 39.0497 89.1223 34.136 89.1223 34.136Z" fill="#A1390B"/>
<path d="M54.4981 49.2367C55.7244 36.3919 60.9861 30.154 60.9861 30.154C61.2236 36.924 60.2272 43.6806 58.0456 50.0938" fill="#A1390B"/>
<path d="M49.2365 55.4743C36.3917 54.2481 30.1538 48.9863 30.1538 48.9863C36.9238 48.7489 43.6804 49.7453 50.0936 51.9268" fill="#A1390B"/>
<path d="M55.4744 60.7362C54.2481 73.581 48.9864 79.8189 48.9864 79.8189C48.7489 73.049 49.7453 66.2923 51.9269 59.8791" fill="#A1390B"/>
<path d="M60.736 54.4981C73.5808 55.7243 79.8187 60.9861 79.8187 60.9861C73.0487 61.2236 66.2921 60.2272 59.8789 58.0456" fill="#A1390B"/>
<path d="M58.3491 60.4919C61.3899 58.6346 62.3493 54.6639 60.492 51.6232C58.6347 48.5824 54.664 47.623 51.6232 49.4803C48.5825 51.3376 47.6231 55.3083 49.4804 58.3491C51.3377 61.3898 55.3084 62.3492 58.3491 60.4919Z" fill="#FF6600"/>
</svg>
