<svg width="34" height="40" viewBox="0 0 34 40" fill="none" xmlns="http://www.w3.org/2000/svg">
<path fill-rule="evenodd" clip-rule="evenodd" d="M9.60681 11.5106C9.45213 11.5106 9.29744 11.4287 9.21555 11.274C9.10636 11.0647 9.18825 10.8008 9.39753 10.6825C11.6086 9.52695 14.1018 8.9082 16.6041 8.9082C18.8152 8.9082 20.9535 9.36316 22.9553 10.264C23.1737 10.3641 23.2738 10.6188 23.1737 10.8372C23.0736 11.0556 22.8188 11.1557 22.5913 11.0556C20.6987 10.2094 18.6787 9.78172 16.595 9.78172C14.2292 9.78172 11.8725 10.355 9.7888 11.456C9.7433 11.4924 9.6796 11.5106 9.60681 11.5106ZM16.6132 40.0001C8.04175 40.0001 1.07178 33.0301 1.07178 24.4587C1.07178 22.6298 1.38115 20.8463 1.99989 19.1448C2.08179 18.9173 2.33656 18.799 2.55494 18.8809C2.78242 18.9628 2.90071 19.2176 2.81882 19.4451C2.23647 21.0465 1.9362 22.739 1.9362 24.4587C1.9362 32.5479 8.51491 39.1266 16.6041 39.1266C24.6933 39.1266 31.272 32.5479 31.272 24.4587C31.272 21.3923 30.3348 18.4532 28.5695 15.9692C28.433 15.769 28.4785 15.496 28.6696 15.3595C28.8698 15.223 29.1428 15.2685 29.2792 15.4596C31.1537 18.0984 32.1455 21.2103 32.1455 24.4587C32.1546 33.0301 25.1846 40.0001 16.6132 40.0001Z" fill="white"/>
<path fill-rule="evenodd" clip-rule="evenodd" d="M11.8454 19.5634C11.627 19.5634 11.4359 19.3997 11.4086 19.1722C11.3813 18.9356 11.5633 18.7172 11.7999 18.6899C12.637 18.608 15.021 16.4606 15.5851 14.8501C15.6761 14.5862 15.758 14.2313 15.576 14.0584C15.0847 13.5762 14.6479 12.73 15.3303 11.4379C15.7489 10.6553 16.4768 9.89101 17.0592 9.27226C17.1229 9.20857 17.1866 9.13578 17.2503 9.07208C17.4141 8.8992 17.6961 8.8901 17.869 9.05388C18.0419 9.21767 18.051 9.49974 17.8872 9.67263C17.8235 9.73632 17.7598 9.80002 17.6961 9.87281C16.3404 11.2923 15.2849 12.548 16.1857 13.4306C16.4677 13.7036 16.7316 14.2222 16.404 15.1412C15.7853 16.9065 13.2011 19.427 11.8818 19.5634C11.8727 19.5634 11.8545 19.5634 11.8454 19.5634Z" fill="white"/>
<path fill-rule="evenodd" clip-rule="evenodd" d="M1.82702 27.9893C1.69053 27.9893 1.56315 27.9256 1.48125 27.8164C1.33567 27.6254 1.37206 27.3524 1.57225 27.2068C1.65414 27.1522 3.49217 25.7873 5.23012 25.7327C5.4667 25.7236 5.67598 25.9147 5.67598 26.1604C5.68508 26.397 5.49399 26.6063 5.25741 26.6063C3.80155 26.6518 2.1182 27.8983 2.1 27.9074C2.00901 27.9529 1.91801 27.9893 1.82702 27.9893ZM15.4303 39.9548C15.4212 39.9548 15.4212 39.9548 15.4121 39.9548C15.1755 39.9457 14.9844 39.7455 14.9935 39.4998C15.1937 34.8592 14.7115 31.9384 13.5559 30.801C12.9735 30.2186 12.2729 30.1367 11.3357 30.1913C9.40664 30.3005 8.55132 29.9184 7.56861 29.1449C7.37752 28.9902 7.35023 28.7173 7.49581 28.5353C7.6505 28.3442 7.92348 28.3169 8.11456 28.4625C8.96078 29.1358 9.61592 29.4179 11.2902 29.3269C12.2729 29.2723 13.3102 29.336 14.1655 30.1913C15.5304 31.538 16.0672 34.5134 15.858 39.5453C15.858 39.7728 15.6578 39.9548 15.4303 39.9548Z" fill="white"/>
<path fill-rule="evenodd" clip-rule="evenodd" d="M31.7179 24.8952C31.6269 24.8952 31.5268 24.8679 31.4449 24.8042C31.4085 24.7769 27.7324 21.8925 25.9126 23.4394C25.1938 24.0581 24.393 24.049 23.7652 23.4121C22.5368 22.1473 22.2456 18.5895 23.6105 17.0699C23.9654 16.6787 24.2748 16.2146 24.5568 15.6869C24.666 15.4685 24.9299 15.3866 25.1483 15.5049C25.3667 15.6141 25.4485 15.8779 25.3303 16.0963C25.0209 16.6878 24.666 17.2155 24.2657 17.6614C23.2283 18.817 23.4558 21.847 24.393 22.8115C24.6114 23.039 24.8753 23.1846 25.3394 22.7842C27.696 20.7733 31.8089 23.9853 31.9818 24.1309C32.1728 24.2765 32.2001 24.5586 32.0546 24.7405C31.9727 24.8406 31.8453 24.8952 31.7179 24.8952Z" fill="white"/>
<path fill-rule="evenodd" clip-rule="evenodd" d="M21.6634 39.1354C21.4541 39.1354 21.263 38.9807 21.2357 38.7623C20.7352 35.5139 20.617 33.8579 20.808 32.8751C21.0264 31.7195 21.6907 31.4102 22.4459 31.0553C23.0373 30.7732 23.7744 30.4275 24.657 29.5539C25.5487 28.6622 26.404 28.3437 27.2139 28.5894C28.9882 29.1354 29.6342 32.2655 29.707 32.6204C29.7525 32.8569 29.5978 33.0844 29.3613 33.1299C29.1247 33.1754 28.8972 33.0207 28.8517 32.7841C28.6879 31.9652 28.0419 29.7541 26.9591 29.4265C26.4859 29.281 25.9127 29.5357 25.2757 30.1727C24.293 31.1554 23.4468 31.5558 22.819 31.8469C21.5542 32.4384 21.172 32.6204 22.1001 38.6349C22.1365 38.8715 21.9727 39.099 21.7362 39.1354C21.7089 39.1354 21.6816 39.1354 21.6634 39.1354Z" fill="white"/>
<path fill-rule="evenodd" clip-rule="evenodd" d="M26.9043 0.864422C24.0017 0.864422 21.645 3.22111 21.645 6.12375C21.645 6.94268 24.4294 13.5396 25.9307 17.0792C26.3129 17.9891 26.6496 18.7807 26.9043 19.3995C27.1682 18.7716 27.4958 17.98 27.8779 17.0792C29.3793 13.5305 32.1637 6.93358 32.1637 6.12375C32.1637 3.22111 29.807 0.864422 26.9043 0.864422ZM26.9043 21.0009C26.7223 21.0009 26.5677 20.8917 26.4949 20.7279C26.2492 20.1092 25.7214 18.8626 25.1209 17.434C22.7369 11.7925 20.7715 7.05187 20.7715 6.13285C20.7715 2.74795 23.5194 0 26.9043 0C30.2892 0 33.0372 2.74795 33.0372 6.13285C33.0372 7.05187 31.0627 11.7925 28.6878 17.434C28.0781 18.8717 27.5595 20.1092 27.3138 20.7279C27.2501 20.8917 27.0863 21.0009 26.9043 21.0009Z" fill="white"/>
<path fill-rule="evenodd" clip-rule="evenodd" d="M26.9044 3.43047C25.5031 3.43047 24.3657 4.56787 24.3657 5.96914C24.3657 7.37042 25.5031 8.50782 26.9044 8.50782C28.3057 8.50782 29.4431 7.37042 29.4431 5.96914C29.4431 4.56787 28.3057 3.43047 26.9044 3.43047ZM26.9044 9.37224C25.0209 9.37224 23.4922 7.84358 23.4922 5.96005C23.4922 4.07651 25.0209 2.54785 26.9044 2.54785C28.7879 2.54785 30.3166 4.07651 30.3166 5.96005C30.3166 7.84358 28.7879 9.37224 26.9044 9.37224Z" fill="white"/>
<path fill-rule="evenodd" clip-rule="evenodd" d="M7.0955 10.9282C4.19286 10.9282 1.83617 13.2849 1.83617 16.1875C1.83617 17.0065 4.62052 23.6034 6.12188 27.143C6.50405 28.0529 6.84072 28.8445 7.0955 29.4632C7.35937 28.8354 7.68694 28.0529 8.06911 27.143C9.57047 23.5943 12.3548 16.9974 12.3548 16.1784C12.3548 13.2849 9.99813 10.9282 7.0955 10.9282ZM7.0955 31.0556C6.91351 31.0556 6.75883 30.9464 6.68603 30.7826C6.44035 30.1639 5.9217 28.9173 5.31206 27.4887C2.92807 21.8472 0.962646 17.1066 0.962646 16.1875C0.962646 12.8026 3.7106 10.0547 7.0955 10.0547C10.4804 10.0547 13.2283 12.8026 13.2283 16.1875C13.2283 17.1066 11.2538 21.8472 8.87894 27.4887C8.26929 28.9264 7.75064 30.1639 7.50496 30.7826C7.44126 30.9464 7.27748 31.0556 7.0955 31.0556Z" fill="white"/>
<path fill-rule="evenodd" clip-rule="evenodd" d="M7.09542 13.4848C5.69415 13.4848 4.55675 14.6222 4.55675 16.0235C4.55675 17.4248 5.69415 18.5622 7.09542 18.5622C8.49669 18.5622 9.63409 17.4248 9.63409 16.0235C9.63409 14.6222 8.49669 13.4848 7.09542 13.4848ZM7.09542 19.4357C5.21189 19.4357 3.68323 17.9071 3.68323 16.0235C3.68323 14.14 5.21189 12.6113 7.09542 12.6113C8.97895 12.6113 10.5076 14.14 10.5076 16.0235C10.5076 17.9071 8.97895 19.4357 7.09542 19.4357Z" fill="white"/>
<path fill-rule="evenodd" clip-rule="evenodd" d="M10.4166 27.8618C10.2619 27.8618 10.1163 27.7799 10.0344 27.6434C9.91615 27.4341 9.98894 27.1702 10.1982 27.0428L11.6814 26.1875C11.8907 26.0692 12.1545 26.142 12.2819 26.3513C12.4002 26.5606 12.3274 26.8245 12.1182 26.9518L10.635 27.8072C10.5622 27.8436 10.4894 27.8618 10.4166 27.8618Z" fill="white"/>
<path fill-rule="evenodd" clip-rule="evenodd" d="M13.5469 26.0512C13.3922 26.0512 13.2466 25.9693 13.1647 25.8328C13.0464 25.6236 13.1192 25.3597 13.3285 25.2323L14.8116 24.377C15.0209 24.2587 15.2848 24.3315 15.4122 24.5408C15.5305 24.75 15.4577 25.0139 15.2484 25.1413L13.7652 25.9966C13.7015 26.033 13.6196 26.0512 13.5469 26.0512Z" fill="white"/>
<path fill-rule="evenodd" clip-rule="evenodd" d="M16.686 24.2402C16.5313 24.2402 16.3857 24.1583 16.3038 24.0218C16.1856 23.8125 16.2584 23.5486 16.4676 23.4213L17.9508 22.5659C18.1601 22.4476 18.424 22.5204 18.5513 22.7297C18.6696 22.939 18.5968 23.2029 18.3876 23.3303L16.9044 24.1856C16.8316 24.222 16.7588 24.2402 16.686 24.2402Z" fill="white"/>
<path fill-rule="evenodd" clip-rule="evenodd" d="M19.816 22.4296C19.6613 22.4296 19.5157 22.3477 19.4339 22.2113C19.3156 22.002 19.3884 21.7381 19.5976 21.6107L21.0808 20.7554C21.2901 20.6371 21.554 20.7099 21.6814 20.9192C21.7996 21.1285 21.7268 21.3923 21.5267 21.5197L20.0435 22.375C19.9707 22.4114 19.8888 22.4296 19.816 22.4296Z" fill="white"/>
</svg>
