<svg width="44" height="42" viewBox="0 0 44 42" fill="none" xmlns="http://www.w3.org/2000/svg">
<path d="M15.8771 38.3862C7.26172 38.3862 1.00842 33.4964 1.00842 26.7591C1.00842 21.0759 7.61855 12.0488 12.8291 8.91884L13.0031 8.87061H18.7463L18.9203 8.91884C24.1309 12.0459 30.741 21.0726 30.741 26.7591C30.741 26.8955 30.7406 27.0268 30.7304 27.158L30.0555 27.1047C30.0648 26.9911 30.0643 26.8774 30.0643 26.7591C30.0643 21.4499 23.6582 12.605 18.652 9.54726H13.0978C8.09124 12.6076 1.68507 21.453 1.68507 26.7591C1.68507 33.1043 7.65379 37.7096 15.8771 37.7096C16.6348 37.7096 17.3723 37.6706 18.0688 37.5939L18.1428 38.2666C17.4221 38.3459 16.6595 38.3862 15.8771 38.3862Z" fill="white" stroke="white" stroke-width="0.5"/>
<path d="M16.5 30.8464C15.5511 30.8464 14.6304 30.5006 13.9212 29.8673C13.1009 29.1354 12.6309 28.0856 12.6309 26.9874H13.3075C13.3075 27.8931 13.6952 28.7587 14.3714 29.3625C15.0568 29.9746 15.9428 30.2541 16.8652 30.149C18.2886 29.9871 19.4573 28.8407 19.6449 27.4233C19.7886 26.3354 19.3793 25.2653 18.5507 24.5605C18.2405 24.2973 17.8339 24.1521 17.4062 24.1521H15.5749C14.9864 24.1521 14.4247 23.9499 13.9925 23.5825C12.9881 22.7288 12.4917 21.433 12.6657 20.1158C12.893 18.3946 14.3119 17.0028 16.0392 16.8063C17.1414 16.6827 18.241 17.029 19.0604 17.7603C19.8802 18.4922 20.3502 19.542 20.3502 20.6402H19.6736C19.6736 19.7345 19.2859 18.8689 18.6097 18.2651C17.9238 17.6528 17.0339 17.3755 16.1159 17.4786C14.6925 17.6404 13.5238 18.7869 13.3361 20.2043C13.193 21.2924 13.6022 22.3627 14.4309 23.0669C14.741 23.3305 15.1472 23.4755 15.5749 23.4755H17.4062C17.9943 23.4755 18.5564 23.6777 18.9886 24.0448C19.9934 24.8993 20.4894 26.1953 20.3154 27.5118C20.0881 29.233 18.6692 30.6248 16.9419 30.8213C16.7943 30.838 16.6467 30.8464 16.5 30.8464Z" fill="white" stroke="white" stroke-width="0.5"/>
<path d="M16.1525 14.3374H16.8291V33.2909H16.1525V14.3374Z" fill="white" stroke="white" stroke-width="0.5"/>
<path d="M9.52893 8.87158H22.2214V9.54825H9.52893V8.87158Z" fill="white" stroke="white" stroke-width="0.5"/>
<path d="M18.7485 9.56615H12.9714L12.6776 9.39545L9.68111 4.14369C9.30402 3.48268 9.37759 2.67959 9.86922 2.09743C10.3591 1.5166 11.1366 1.31021 11.8485 1.57034C13.2538 2.08312 14.8463 2.66417 17.9934 2.66417C18.5855 2.66417 19.152 2.64347 19.6771 2.6025C20.3511 2.55184 20.9912 2.86924 21.3507 3.43554C21.7102 4.0025 21.726 4.69038 21.3921 5.27585L19.0423 9.39545L18.7485 9.56615ZM13.1679 8.8895H18.552L20.8044 4.9406C21.0119 4.57695 21.0022 4.14964 20.7793 3.79809C20.5507 3.43796 20.1498 3.24215 19.73 3.27695C19.1873 3.31946 18.6031 3.34083 17.9934 3.34083C14.967 3.34083 13.3789 2.84898 11.6168 2.20602C11.0793 2.00955 10.6287 2.24655 10.386 2.534C10.1423 2.82254 9.98375 3.30889 10.2688 3.80845L13.1679 8.8895Z" fill="white" stroke="white" stroke-width="0.5"/>
<path d="M23.0393 40.6614H22.3626V33.4603H18.4454V40.6614H17.7688V33.122L18.1071 32.7837H22.701L23.0393 33.122V40.6614Z" fill="white" stroke="white" stroke-width="0.5"/>
<path d="M27.633 40.6617H26.9564V30.4652H23.0392V40.6617H22.3625V30.1269L22.7009 29.7886H27.2947L27.633 30.1269V40.6617Z" fill="white" stroke="white" stroke-width="0.5"/>
<path d="M32.2265 40.6615H31.5498V27.4696H27.6331V40.6615H26.9564V27.1313L27.2947 26.793H31.8881L32.2265 27.1313V40.6615Z" fill="white" stroke="white" stroke-width="0.5"/>
<path d="M36.8203 40.6614H36.1436V24.474H32.2265V40.6614H31.5498V24.1357L31.8881 23.7974H36.482L36.8203 24.1357V40.6614Z" fill="white" stroke="white" stroke-width="0.5"/>
<path d="M41.4142 40.6617H40.7375V21.4789H36.8203V40.6617H36.1437V21.1406L36.482 20.8022H41.0758L41.4142 21.1406V40.6617Z" fill="white" stroke="white" stroke-width="0.5"/>
<path d="M8.96741 40.3232H43.7502V40.9999H8.96741V40.3232Z" fill="white" stroke="white" stroke-width="0.5"/>
<path d="M36.8185 19.2546H36.1418V10.9531L36.4802 10.6147H39.9947L33.0031 1.75573L26.0119 10.6147H29.526L29.8643 10.9531V18.3264H29.1877V11.2914H25.3141L25.0485 10.7434L32.7374 1H33.2687L40.9581 10.7434L40.6925 11.2914H36.8185V19.2546Z" fill="white" stroke="white" stroke-width="0.5"/>
</svg>
