<svg width="41" height="40" viewBox="0 0 41 40" fill="none" xmlns="http://www.w3.org/2000/svg">
<path d="M37.2421 27.5796H34.663C34.5149 27.5796 34.3785 27.4993 34.3064 27.3699L23.4324 7.82667L24.1456 7.42986L34.9029 26.7633H36.6497L27.3576 2.37398C27.0441 1.55131 26.4964 1.03075 25.7737 0.868634C24.9741 0.689699 24.0441 0.994671 23.3459 1.66568L22.0404 2.91993L21.4749 2.33129L22.7803 1.07696C23.687 0.20563 24.8729 -0.169953 25.9522 0.0720818C26.9406 0.293872 27.7106 1.00806 28.1202 2.0833L37.6234 27.0261C37.6712 27.1516 37.6542 27.2926 37.5781 27.403C37.5019 27.5136 37.3763 27.5796 37.2421 27.5796Z" fill="white"/>
<path d="M8.355 23.2649H7.5387V19.9975C7.5387 17.8647 8.16415 15.8455 9.45073 13.8242C10.4849 12.1996 11.9681 10.561 13.985 8.81488L21.4905 2.317C22.0555 1.82795 22.7844 1.5953 23.543 1.66142C24.3044 1.72795 25.0151 2.10288 25.4929 2.69021C26.496 3.92349 26.4467 5.53806 25.3729 6.61632L17.4171 14.6052L16.8387 14.0291L24.7944 6.04025C25.5751 5.25636 25.6013 4.11712 24.8596 3.2053C24.5205 2.78842 24.0146 2.52206 23.4719 2.47463C22.9356 2.42761 22.4214 2.59087 22.0248 2.93421L14.5193 9.43209C10.2561 13.1228 8.355 16.3813 8.355 19.9975V23.2649Z" fill="white"/>
<path d="M22.9164 32.4629H22.1001V30.9219H22.9164V32.4629ZM11.7379 32.4629H10.9216V30.9219H11.7379V32.4629Z" fill="white"/>
<path d="M25.2771 40H8.56102C6.37054 40 4.58838 38.2179 4.58838 36.0274C4.58838 33.8368 6.37054 32.0547 8.56102 32.0547H25.2771C27.4677 32.0547 29.2498 33.8368 29.2498 36.0274C29.2498 38.2179 27.4676 40 25.2771 40ZM8.56102 32.871C6.82065 32.871 5.40469 34.287 5.40469 36.0274C5.40469 37.7678 6.82065 39.1837 8.56102 39.1837H25.2771C27.0175 39.1837 28.4335 37.7678 28.4335 36.0274C28.4335 34.287 27.0175 32.871 25.2771 32.871H8.56102Z" fill="white"/>
<path d="M23.5812 37.3243H10.2568V36.508H23.5812V37.3243H23.5812ZM23.5812 35.5463H10.2568V34.73H23.5812V35.5463H23.5812Z" fill="white"/>
<path d="M24.847 37.9823C23.7691 37.9823 22.8922 37.1054 22.8922 36.0276C22.8922 34.9497 23.7691 34.0728 24.847 34.0728C25.9248 34.0728 26.8018 34.9497 26.8018 36.0276C26.8018 37.1054 25.9248 37.9823 24.847 37.9823ZM24.847 34.889C24.2192 34.889 23.7085 35.3997 23.7085 36.0275C23.7085 36.6552 24.2192 37.1659 24.847 37.1659C25.4747 37.1659 25.9855 36.6552 25.9855 36.0275C25.9855 35.3997 25.4747 34.889 24.847 34.889ZM8.9911 37.9823C7.91325 37.9823 7.03638 37.1054 7.03638 36.0276C7.03638 34.9497 7.91325 34.0728 8.9911 34.0728C10.069 34.0728 10.9459 34.9497 10.9459 36.0276C10.9459 37.1054 10.069 37.9823 8.9911 37.9823ZM8.9911 34.889C8.36336 34.889 7.85268 35.3997 7.85268 36.0275C7.85268 36.6552 8.36336 37.1659 8.9911 37.1659C9.61884 37.1659 10.1296 36.6552 10.1296 36.0275C10.1296 35.3997 9.61884 34.889 8.9911 34.889Z" fill="white"/>
<path d="M23.8394 31.33H2.54854C1.42367 31.33 0.508423 30.4148 0.508423 29.2899V24.897C0.508423 23.7721 1.42367 22.857 2.54854 22.857H12.4147V15.9492C12.4147 14.8243 13.3299 13.9092 14.4548 13.9092H20.9838C21.8424 13.9092 22.5921 14.4286 22.8938 15.2326L25.6454 22.5674C25.8071 22.9987 25.8793 23.3965 25.8793 23.8572V29.29C25.8794 30.4148 24.9642 31.33 23.8394 31.33ZM2.54854 23.6732C1.8737 23.6732 1.32473 24.2222 1.32473 24.8969V29.2899C1.32473 29.9647 1.87378 30.5136 2.54854 30.5136H23.8394C24.5142 30.5136 25.0631 29.9646 25.0631 29.2899V23.8571C25.0631 23.494 25.0086 23.194 24.8811 22.8541L22.1296 15.5193C21.9459 15.0296 21.5068 14.7254 20.9838 14.7254H14.4549C13.78 14.7254 13.231 15.2744 13.231 15.9491V23.265C13.231 23.4905 13.0484 23.6732 12.8229 23.6732H2.54854Z" fill="white"/>
<path d="M23.8393 28.0663H19.4617C19.3105 28.0663 19.1717 27.9827 19.101 27.849L16.8906 23.6733H14.4547C14.2292 23.6733 14.0465 23.4906 14.0465 23.2652V15.9492C14.0465 15.7237 14.2292 15.541 14.4547 15.541L20.9837 15.5411C21.1538 15.5411 21.3061 15.6466 21.3659 15.8059L24.1175 23.1407C24.2085 23.3834 24.2475 23.5977 24.2475 23.8572V27.6581C24.2475 27.8836 24.0648 28.0663 23.8393 28.0663ZM19.7075 27.25H23.4312V23.8572C23.4312 23.6953 23.41 23.5788 23.3533 23.4274L20.701 16.3574L14.8628 16.3573V22.857H17.1364C17.2877 22.857 17.4264 22.9406 17.4971 23.0742L19.7075 27.25Z" fill="white"/>
<path d="M14.4547 31.3301C14.2292 31.3301 14.0465 31.1474 14.0465 30.9219V27.6582C14.0465 27.4327 14.2292 27.25 14.4547 27.25C14.6801 27.25 14.8628 27.4327 14.8628 27.6582V30.9219C14.8628 31.1473 14.6801 31.3301 14.4547 31.3301Z" fill="white"/>
<path d="M9.52178 28.4586H4.31465C4.08918 28.4586 3.90649 28.2759 3.90649 28.0504C3.90649 27.825 4.08918 27.6423 4.31465 27.6423H9.52178C9.74725 27.6423 9.92994 27.825 9.92994 28.0504C9.92994 28.2759 9.74717 28.4586 9.52178 28.4586ZM9.52178 26.5443H4.31465C4.08918 26.5443 3.90649 26.3616 3.90649 26.1362C3.90649 25.9107 4.08918 25.728 4.31465 25.728H9.52178C9.74725 25.728 9.92994 25.9107 9.92994 26.1362C9.92994 26.3616 9.74717 26.5443 9.52178 26.5443Z" fill="white"/>
<path d="M33.6749 39.9998C33.6063 39.9998 33.5376 39.9825 33.4756 39.9477C33.345 39.8746 33.265 39.736 33.2669 39.5864L33.2835 38.2805C33.2844 38.2074 33.3051 38.1357 33.3431 38.0732L34.2548 36.5782V27.2285C34.2548 27.0031 34.4375 26.8204 34.6629 26.8204C34.8884 26.8204 35.0711 27.0031 35.0711 27.2285V36.6927C35.0711 36.7677 35.0504 36.8412 35.0114 36.9053L34.0983 38.4027L34.0927 38.8457L38.7236 35.9254C39.3373 35.5384 39.6752 34.9257 39.6752 34.2V31.0973C39.6752 29.776 38.6793 29.1665 37.65 28.8136V33.4935C37.65 33.719 37.4673 33.9017 37.2419 33.9017C37.0164 33.9017 36.8337 33.719 36.8337 33.4935V28.2715C36.8336 28.2654 36.8336 28.2593 36.8337 28.2531V27.2285C36.8337 27.003 37.0164 26.8203 37.2419 26.8203C37.4673 26.8203 37.65 27.003 37.65 27.2285V27.9536C38.6467 28.2501 40.4915 28.973 40.4915 31.0972V34.1999C40.4915 35.2012 40.0058 36.0817 39.159 36.6158L33.8926 39.9369C33.8263 39.9788 33.7507 39.9998 33.6749 39.9998Z" fill="white"/>
<path fill-rule="evenodd" clip-rule="evenodd" d="M23.5791 3.64795C23.1917 3.64795 22.8776 3.96198 22.8776 4.3494C22.8776 4.73682 23.1917 5.05094 23.5791 5.05094C23.9665 5.05094 24.2806 4.73682 24.2806 4.3494C24.2806 3.96206 23.9665 3.64795 23.5791 3.64795Z" fill="white"/>
<path d="M21.3263 24.8162C21.2219 24.8162 21.1174 24.7764 21.0378 24.6966L17.8219 21.4807C17.6624 21.3214 17.6624 21.0629 17.8219 20.9036C17.9811 20.7442 18.2397 20.7442 18.399 20.9036L21.6149 24.1195C21.7743 24.2789 21.7743 24.5373 21.6149 24.6966C21.5353 24.7764 21.4308 24.8162 21.3263 24.8162ZM20.6562 21.5523C20.5518 21.5523 20.4472 21.5125 20.3676 21.4327L17.1517 18.2167C16.9922 18.0574 16.9922 17.7989 17.1517 17.6396C17.3109 17.4802 17.5695 17.4802 17.7288 17.6396L20.9447 20.8556C21.1041 21.0149 21.1041 21.2734 20.9447 21.4327C20.8651 21.5125 20.7606 21.5523 20.6562 21.5523Z" fill="white"/>
</svg>
