<svg width="53" height="40" viewBox="0 0 53 40" fill="none" xmlns="http://www.w3.org/2000/svg">
<path d="M24.4162 40C24.3085 40 24.2127 39.988 24.105 39.9761C23.1593 39.8683 22.3812 39.2937 21.627 38.7431C21.1003 38.348 20.6215 37.9889 20.1187 37.8094C19.6399 37.6418 19.0294 37.6178 18.395 37.6059C17.4493 37.5819 16.4796 37.546 15.6537 37.0313C14.8636 36.5285 14.4207 35.6786 13.9898 34.8526C13.6785 34.2661 13.3912 33.7154 13.0082 33.3323C12.6251 32.9493 12.0744 32.662 11.4879 32.3627C10.6739 31.9318 9.81199 31.4889 9.30922 30.6988C8.78251 29.8848 8.75857 28.9032 8.73463 27.9695C8.71069 27.3231 8.69872 26.7245 8.53113 26.2337C8.35157 25.731 7.99245 25.2402 7.59742 24.7135C7.0348 23.9713 6.46021 23.1932 6.36444 22.2475C6.25671 21.3018 6.65174 20.416 7.0348 19.5661C7.29815 18.9676 7.54954 18.4169 7.60939 17.8782C7.66924 17.3515 7.54954 16.765 7.41786 16.1305C7.2383 15.2088 7.05874 14.2751 7.35801 13.3533C7.66924 12.4555 8.41142 11.833 9.11769 11.2225C9.60849 10.8036 10.0753 10.4085 10.3626 9.95365C10.638 9.52271 10.7816 8.94812 10.9372 8.33761C11.1766 7.42784 11.4161 6.48216 12.1104 5.77589C12.8047 5.08159 13.7623 4.84218 14.6721 4.5908C15.2826 4.43518 15.8691 4.27956 16.3001 4.01621C16.743 3.72891 17.138 3.26205 17.557 2.77126C18.1675 2.05302 18.79 1.32281 19.6998 0.999601C20.6095 0.688364 21.5672 0.867924 22.4889 1.05945C23.1234 1.17916 23.7099 1.29887 24.2247 1.25098C24.7514 1.19113 25.302 0.939747 25.9006 0.688363C26.7505 0.305302 27.6363 -0.0897295 28.594 0.0180065C29.5396 0.125742 30.3177 0.700334 31.0719 1.25098C31.5986 1.64602 32.0774 2.00514 32.5802 2.1847C33.059 2.35228 33.6695 2.37623 34.304 2.3882C35.2496 2.41214 36.2193 2.44805 37.0452 2.96279C37.8353 3.46556 38.2782 4.31547 38.7092 5.14145C39.0204 5.72801 39.3077 6.27866 39.6908 6.66172C40.0738 7.04478 40.6245 7.33208 41.211 7.63134C42.025 8.06229 42.8869 8.5052 43.3897 9.29527C43.9164 10.1093 43.9403 11.0909 43.9643 12.0246C43.9882 12.671 44.0002 13.2695 44.1678 13.7603C44.3473 14.2631 44.7065 14.7539 45.1015 15.2806C45.6641 16.0228 46.2387 16.8009 46.3345 17.7465C46.4422 18.6922 46.0472 19.5781 45.6641 20.428C45.4008 21.0265 45.1494 21.5772 45.0895 22.1158C45.0297 22.6426 45.1494 23.2291 45.281 23.8636C45.4606 24.7853 45.6402 25.719 45.3409 26.6407C45.0297 27.5385 44.2875 28.161 43.5812 28.7715C43.0904 29.1905 42.6236 29.5855 42.3363 30.0404C42.0729 30.4594 41.9293 31.034 41.7736 31.6445C41.5342 32.5782 41.2948 33.5358 40.5886 34.2301C39.8943 34.9244 38.9486 35.1639 38.0268 35.4033C37.4163 35.5589 36.8298 35.7145 36.3988 35.9779C35.9559 36.2652 35.5609 36.732 35.1419 37.2228C34.5314 37.941 33.9089 38.6713 32.9992 38.9825C32.0894 39.2937 31.1317 39.1142 30.21 38.9226C29.5875 38.8029 28.989 38.6832 28.4742 38.7311C27.9475 38.791 27.3969 39.0424 26.7984 39.2937C26.0442 39.6529 25.2541 40 24.4162 40ZM20.8011 2.01711C20.5497 2.01711 20.3222 2.04105 20.0948 2.12484C19.4963 2.32834 18.9935 2.91491 18.4668 3.53738C18.0119 4.07606 17.5331 4.62671 16.9465 5.00977C16.348 5.38086 15.6656 5.56042 14.9833 5.73998C14.1813 5.94348 13.4271 6.13501 12.9603 6.61384C12.4934 7.09266 12.3019 7.84682 12.0984 8.63688C11.9188 9.30724 11.7393 10.0015 11.3682 10.5881C10.9851 11.1986 10.4345 11.6655 9.88381 12.1203C9.26134 12.647 8.67478 13.1378 8.47128 13.7364C8.26778 14.3469 8.41142 15.101 8.57901 15.9031C8.72266 16.5974 8.85434 17.3036 8.77054 18.0099C8.68675 18.7162 8.38748 19.3865 8.10019 20.0329C7.76501 20.7751 7.45377 21.4814 7.5256 22.1158C7.58545 22.7383 8.0523 23.3488 8.5431 24.0072C8.97404 24.5698 9.40499 25.1684 9.6444 25.8387C9.87184 26.4971 9.89579 27.2273 9.91973 27.9336C9.94367 28.7476 9.96761 29.5257 10.3148 30.0763C10.6499 30.603 11.3323 30.9622 12.0505 31.3332C12.6849 31.6684 13.3433 32.0036 13.8581 32.5183C14.3728 33.045 14.708 33.6915 15.0432 34.3259C15.4143 35.0442 15.7734 35.7265 16.3001 36.0497C16.8627 36.3968 17.6408 36.4208 18.4548 36.4447C19.1491 36.4687 19.8673 36.4926 20.5257 36.72C21.2081 36.9475 21.7826 37.3904 22.3453 37.8213C22.9917 38.3002 23.6142 38.767 24.2486 38.8388C24.895 38.8987 25.5893 38.5994 26.3315 38.2643C26.9779 37.977 27.6483 37.6777 28.3545 37.6059C29.0488 37.534 29.7551 37.6657 30.4374 37.8094C31.2514 37.965 32.0056 38.1206 32.6281 37.9051C33.2266 37.7016 33.7294 37.1151 34.2561 36.4926C34.711 35.9539 35.1898 35.4033 35.7763 35.0202C36.3629 34.6491 37.0572 34.4696 37.7395 34.29C38.5416 34.0865 39.2957 33.895 39.7626 33.4161C40.2414 32.9373 40.4329 32.1832 40.6484 31.3692C40.816 30.7108 40.9956 30.0165 41.3547 29.4419C41.7377 28.8314 42.2884 28.3645 42.839 27.8977C43.4615 27.371 44.0481 26.8802 44.2516 26.2816C44.4551 25.6711 44.3114 24.917 44.1438 24.1149C44.0002 23.4206 43.8685 22.7144 43.9523 22.0081C44.0361 21.3018 44.3354 20.6315 44.6227 19.9851C44.9578 19.2429 45.2691 18.5366 45.1973 17.9022C45.1374 17.2797 44.6705 16.6692 44.1798 16.0108C43.7488 15.4482 43.3179 14.8497 43.0784 14.1793C42.851 13.5209 42.8271 12.7907 42.8031 12.0844C42.7792 11.2704 42.7552 10.4923 42.4081 9.94168C42.0729 9.41497 41.3906 9.05585 40.6723 8.68476C40.0379 8.34958 39.3795 8.01441 38.8648 7.49967C38.35 6.97296 38.0149 6.32654 37.6797 5.6921C37.3086 4.97386 36.9495 4.29153 36.4228 3.96832C35.8601 3.62117 35.082 3.59723 34.268 3.57329C33.5737 3.54935 32.8555 3.52541 32.1971 3.29797C31.5268 3.07052 30.9402 2.62761 30.3776 2.19667C29.7312 1.71784 29.1087 1.25098 28.4742 1.17916C27.8278 1.11931 27.1335 1.41857 26.3914 1.75375C25.7449 2.04105 25.0746 2.34031 24.3683 2.41214C23.674 2.48396 22.9677 2.35228 22.2854 2.20864C21.7587 2.11287 21.2559 2.01711 20.8011 2.01711Z" fill="white"/>
<path d="M26.3793 34.314C18.5026 34.314 12.0863 27.9097 12.0863 20.021C12.0863 12.1443 18.4906 5.72803 26.3793 5.72803C34.256 5.72803 40.6722 12.1323 40.6722 20.021C40.6722 27.9097 34.256 34.314 26.3793 34.314ZM26.3793 6.88918C19.137 6.88918 13.2475 12.7787 13.2475 20.021C13.2475 27.2632 19.137 33.1408 26.3793 33.1408C33.6215 33.1408 39.5111 27.2513 39.5111 20.009C39.5111 12.7668 33.6095 6.88918 26.3793 6.88918Z" fill="white"/>
<path d="M22.872 27.5988C22.4411 27.5988 22.046 27.4312 21.7468 27.1199L17.8683 23.2295C17.0184 22.3796 17.0184 20.967 17.8683 20.1051C18.7182 19.2552 20.1307 19.2432 21.0046 20.0932L22.9079 21.9965L31.8261 13.0784C32.676 12.2284 34.0885 12.2284 34.9504 13.0784C35.8003 13.9283 35.8123 15.3408 34.9624 16.2147L24.0212 27.108C23.71 27.4312 23.291 27.5988 22.872 27.5988ZM19.4125 20.6199C19.1372 20.6199 18.8858 20.7276 18.6823 20.9191C18.2872 21.3261 18.2872 21.9845 18.6823 22.4035L22.5847 26.3059C22.5847 26.3059 22.5847 26.3059 22.5967 26.3179C22.6685 26.3897 22.7762 26.4376 22.884 26.4376C23.0037 26.4376 23.1114 26.3897 23.1952 26.3059L34.1125 15.4126C34.5075 15.0056 34.5075 14.3472 34.1125 13.9283C33.7055 13.5332 33.0471 13.5332 32.6281 13.9283L23.303 23.2534C23.0755 23.4809 22.7044 23.4809 22.477 23.2534L20.1547 20.9311C19.9512 20.7276 19.6878 20.6199 19.4125 20.6199Z" fill="white"/>
<path d="M4.20985 14.8493C4.11409 14.8493 4.01832 14.8254 3.93453 14.7894L1.99528 13.736C1.70798 13.5924 1.60025 13.2213 1.75587 12.946C1.89952 12.6587 2.27061 12.5509 2.54593 12.7066L4.48518 13.748C4.77247 13.8916 4.88021 14.2627 4.72459 14.5381C4.62882 14.7416 4.42532 14.8493 4.20985 14.8493Z" fill="white"/>
<path d="M3.33573 20.5955H1.2289C0.905689 20.5955 0.642334 20.3321 0.642334 20.0089C0.642334 19.6857 0.905689 19.4224 1.2289 19.4224H3.33573C3.65894 19.4224 3.92229 19.6857 3.92229 20.0089C3.91032 20.3441 3.64697 20.5955 3.33573 20.5955Z" fill="white"/>
<path d="M2.2708 27.4065C2.0673 27.4065 1.8638 27.2988 1.75606 27.0953C1.61241 26.808 1.70818 26.4488 1.99547 26.3052L3.93472 25.2638C4.22202 25.1201 4.58113 25.2159 4.72478 25.5032C4.86843 25.7905 4.77267 26.1496 4.48537 26.2932L2.54612 27.3347C2.46233 27.3826 2.36656 27.4065 2.2708 27.4065Z" fill="white"/>
<path d="M48.5374 14.8494C48.3339 14.8494 48.1304 14.7416 48.0227 14.5381C47.879 14.2508 47.9748 13.8917 48.2621 13.7481L50.2013 12.7066C50.4886 12.563 50.8477 12.6587 50.9914 12.946C51.135 13.2333 51.0393 13.5924 50.752 13.7361L48.8127 14.7775C48.717 14.8254 48.6332 14.8494 48.5374 14.8494Z" fill="white"/>
<path d="M51.5301 20.5955H49.4232C49.1 20.5955 48.8367 20.3321 48.8367 20.0089C48.8367 19.6857 49.1 19.4224 49.4232 19.4224H51.5301C51.8533 19.4224 52.1166 19.6857 52.1166 20.0089C52.1166 20.3441 51.8533 20.5955 51.5301 20.5955Z" fill="white"/>
<path d="M50.4765 27.4067C50.3807 27.4067 50.2849 27.3827 50.2011 27.3468L48.2619 26.3054C47.9746 26.1617 47.8669 25.7906 48.0225 25.5153C48.1661 25.228 48.5372 25.1203 48.8125 25.2759L50.7518 26.3173C51.0391 26.461 51.1468 26.8321 50.9912 27.1074C50.8835 27.287 50.68 27.4067 50.4765 27.4067Z" fill="white"/>
</svg>
