<svg width="201" height="100" viewBox="0 0 201 100" fill="none" xmlns="http://www.w3.org/2000/svg">
<path opacity="0.856" fill-rule="evenodd" clip-rule="evenodd" d="M163.444 9.97553C165.551 9.96527 167.659 9.97553 169.767 10.0062C169.961 10.0069 170.134 10.0581 170.289 10.1597C170.354 10.4853 170.313 10.7922 170.166 11.0805C170.104 11.5102 170.043 11.9399 169.982 12.3696C169.864 12.8449 169.742 13.3155 169.613 13.7815C169.55 14.106 169.509 14.4334 169.49 14.7637C169.322 15.4412 169.158 16.1165 168.999 16.7895C168.889 17.5087 168.766 18.2249 168.631 18.9381C168.541 19.0898 168.48 19.2535 168.447 19.4292C168.418 20.0633 168.295 20.6772 168.079 21.2708C168.048 21.3833 167.976 21.455 167.864 21.4857C165.858 21.5266 163.853 21.5266 161.848 21.4857C161.695 21.4553 161.603 21.3632 161.571 21.2094C161.53 21.0048 161.53 20.8001 161.571 20.5955C161.736 19.7858 161.839 18.9673 161.878 18.14C161.901 18.0106 161.942 17.8879 162.001 17.7717C162.047 17.1582 162.088 16.5443 162.124 15.9301C162.275 14.9704 162.418 14.0087 162.554 13.0449C162.61 12.3078 162.672 11.5711 162.738 10.8349C162.785 10.578 162.866 10.3325 162.983 10.0983C163.144 10.0601 163.297 10.0191 163.444 9.97553Z" fill="#BDBDBD"/>
<path opacity="0.928" fill-rule="evenodd" clip-rule="evenodd" d="M68.4162 10.2208C70.4849 10.2013 72.5518 10.2525 74.6163 10.3743C74.7237 10.4032 74.8256 10.4442 74.9232 10.4971C75.3548 10.5177 75.7845 10.5586 76.2123 10.6199C76.5739 10.8042 76.9625 10.886 77.3787 10.8654C77.5303 10.8723 77.6531 10.9337 77.747 11.0496C78.0712 11.0586 78.3578 11.1609 78.6065 11.3565C78.7906 11.3769 78.9748 11.3975 79.1589 11.4179C79.3517 11.5843 79.577 11.6866 79.8342 11.7248C79.8956 11.7862 79.957 11.8476 80.0184 11.909C80.1896 11.9238 80.3535 11.9647 80.5095 12.0318C80.8244 12.2455 81.1516 12.4296 81.4917 12.5843C82.8925 13.5285 84.0079 14.746 84.8373 16.2368C85.0662 16.7189 85.2707 17.21 85.4511 17.7101C85.6887 18.4916 85.8729 19.2896 86.0036 20.1042C86.1264 21.7412 86.1264 23.3782 86.0036 25.0152C85.8446 25.451 85.763 25.9012 85.7581 26.3657C85.5709 26.728 85.4689 27.1167 85.4511 27.5321C85.3898 27.6139 85.3284 27.6958 85.267 27.7776C85.1608 28.133 85.038 28.4809 84.8987 28.8212C84.2903 29.9071 83.5438 30.8791 82.658 31.7371C82.0356 32.2369 81.3812 32.6871 80.6936 33.0876C80.0122 33.3208 79.3572 33.6073 78.7292 33.9471C77.6279 34.2101 76.523 34.4761 75.4143 34.7451C74.7612 34.8083 74.1061 34.8492 73.4499 34.8679C73.0491 34.9831 72.6402 35.0445 72.2222 35.052C70.8305 35.093 69.4395 35.093 68.0478 35.052C67.0319 34.8947 66.0085 34.7924 64.9785 34.7451C64.5426 34.585 64.0926 34.5031 63.6279 34.4995C63.2424 34.3219 62.8336 34.2196 62.4002 34.1926C62.1866 34.0214 61.941 33.9396 61.6635 33.9471C61.1929 33.7629 60.7223 33.5787 60.2516 33.3946C60.1698 33.3536 60.1084 33.2922 60.0675 33.2104C59.5446 33.0195 59.074 32.7432 58.6556 32.3817C58.5564 32.3415 58.4541 32.3108 58.3486 32.2896C57.8405 31.8353 57.3391 31.3749 56.8446 30.9084C56.8242 30.847 56.8037 30.7856 56.7833 30.7242C56.64 30.581 56.4968 30.4377 56.3535 30.2945C56.2158 30.0036 56.0419 29.7376 55.8317 29.4965C55.7731 29.259 55.6605 29.0544 55.4941 28.8826C55.2727 28.1469 55.0066 27.4307 54.6961 26.734C54.6282 26.4106 54.5872 26.0831 54.5733 25.7518C54.5119 25.5881 54.4505 25.4245 54.3891 25.2607C54.2956 23.7478 54.2751 22.2335 54.3278 20.7181C54.4295 20.023 54.5318 19.3273 54.6347 18.6309C54.7984 18.305 54.9007 17.9571 54.9416 17.5873C55.1181 17.4006 55.1999 17.1755 55.1872 16.9121C55.3932 16.5001 55.5978 16.0908 55.8011 15.6843C56.0373 15.4492 56.2214 15.1831 56.3535 14.8863C57.0812 14.0156 57.9099 13.2483 58.8397 12.5843C58.9757 12.5202 59.1189 12.4793 59.2694 12.4615C59.3104 12.4001 59.3513 12.3387 59.3922 12.2773C59.6101 12.2343 59.7942 12.132 59.9447 11.9704C60.1748 11.9839 60.3589 11.9021 60.4972 11.7248C60.7106 11.6956 60.8947 11.6137 61.0497 11.4793C61.2697 11.4134 61.4947 11.3725 61.7249 11.3565C61.7894 11.2715 61.871 11.2101 61.9705 11.1723C62.1945 11.1248 62.4192 11.0839 62.6457 11.0496C62.7397 10.9337 62.8624 10.8723 63.0141 10.8654C63.2799 10.845 63.5463 10.8245 63.8121 10.804C63.887 10.6972 63.9889 10.6358 64.119 10.6199C64.5678 10.5665 65.0184 10.5255 65.4696 10.4971C65.5383 10.433 65.6206 10.3921 65.7151 10.3743C65.8993 10.3539 66.0834 10.3334 66.2676 10.3129C66.9944 10.3025 67.7108 10.2719 68.4162 10.2208ZM68.2934 17.4032C69.7476 17.38 71.2007 17.4107 72.6519 17.4952C73.0055 17.6396 73.3738 17.7215 73.7569 17.7408C74.5199 18.0148 75.2259 18.3934 75.8747 18.8765C76.0313 19.0707 76.1945 19.2549 76.3658 19.4289C76.4254 19.5451 76.4665 19.6679 76.4886 19.7973C76.6715 19.9564 76.7734 20.1611 76.7955 20.4111C76.9214 20.5462 76.9828 20.7099 76.9797 20.9022C77.1129 22.1124 77.0926 23.3197 76.9183 24.5241C76.7648 24.6968 76.6832 24.9014 76.6728 25.138C76.4892 25.296 76.3971 25.5006 76.3965 25.7518C76.24 25.7556 76.1479 25.8374 76.1203 25.9974C75.8907 26.2092 75.6556 26.4139 75.4143 26.6113C75.3597 26.6619 75.3394 26.7233 75.3529 26.7954C75.2265 26.8069 75.1037 26.8376 74.9846 26.8875C74.7084 27.041 74.4321 27.1944 74.1559 27.3479C73.9625 27.3843 73.7679 27.415 73.5727 27.44C73.4732 27.4777 73.3916 27.5391 73.3271 27.6242C72.8164 27.6189 72.3253 27.7008 71.8538 27.8697C70.7489 27.9107 69.6439 27.9107 68.5389 27.8697C68.0626 27.7089 67.5715 27.6271 67.0656 27.6242C66.763 27.4528 66.4358 27.3505 66.0834 27.3172C65.7495 27.1531 65.4223 26.9792 65.1012 26.7954C64.9275 26.6683 64.7845 26.5148 64.6715 26.335C64.5936 26.3161 64.5224 26.2854 64.4567 26.2429C64.2289 25.9094 63.9932 25.582 63.7507 25.2607C63.6752 24.9175 63.5629 24.59 63.4131 24.2785C63.3664 23.8011 63.2842 23.3305 63.1675 22.8666C63.2093 22.0838 63.3118 21.3062 63.4745 20.5339C63.604 20.3502 63.6856 20.1456 63.72 19.92C63.8594 19.7021 64.0128 19.4975 64.1804 19.3062C64.2265 19.2303 64.2467 19.1484 64.2418 19.0606C64.402 19.0743 64.5046 19.0027 64.5488 18.8458C64.7298 18.8389 64.8115 18.7468 64.7943 18.5695C65.3848 18.3215 65.968 18.0555 66.5438 17.7715C67.1448 17.6693 67.728 17.5466 68.2934 17.4032Z" fill="#BDBDBD"/>
<path opacity="0.899" fill-rule="evenodd" clip-rule="evenodd" d="M181.43 10.3437C182.515 10.3334 183.6 10.3437 184.684 10.3744C184.891 10.4021 185.096 10.443 185.298 10.4972C186.158 10.5199 187.017 10.5609 187.876 10.6199C188.367 10.8079 188.878 10.8897 189.411 10.8655C189.575 10.8808 189.718 10.9422 189.84 11.0496C190.226 11.0444 190.574 11.1468 190.884 11.3566C191.088 11.377 191.293 11.3975 191.498 11.418C191.716 11.5755 191.962 11.6778 192.235 11.7249C192.373 11.9021 192.557 11.984 192.787 11.9705C194.673 12.8546 195.931 14.2972 196.562 16.2983C196.562 16.6393 196.623 16.9666 196.747 17.2805C196.788 17.567 196.788 17.8534 196.747 18.1399C196.7 18.1783 196.65 18.209 196.593 18.232C194.076 18.2729 191.559 18.2729 189.042 18.232C188.777 17.9872 188.532 17.7212 188.306 17.4339C188.109 17.4171 187.945 17.3353 187.815 17.1884C187.489 17.1735 187.182 17.0916 186.894 16.9428C184.029 16.7431 181.164 16.7431 178.3 16.9428C178.025 17.0652 177.769 17.2186 177.532 17.4032C177.164 17.9353 177.164 18.4673 177.532 18.9993C177.758 19.0935 177.993 19.1652 178.238 19.2142C178.279 19.2551 178.32 19.296 178.361 19.3369C179.349 19.3679 180.332 19.4498 181.308 19.5825C182.985 19.6493 184.662 19.6902 186.341 19.7053C186.721 19.7117 187.089 19.7731 187.446 19.8894C188.164 19.9059 188.88 19.9468 189.595 20.0122C189.689 20.03 189.772 20.0709 189.84 20.135C190.35 20.1975 190.862 20.2384 191.375 20.2577C191.54 20.273 191.683 20.3344 191.805 20.4419C192.225 20.4393 192.613 20.5417 192.971 20.7488C193.155 20.7693 193.34 20.7898 193.524 20.8102C193.734 20.9831 193.98 21.0854 194.26 21.1172C194.403 21.2811 194.587 21.363 194.813 21.3627C194.854 21.4241 194.894 21.4855 194.936 21.5469C195.065 21.569 195.188 21.6099 195.304 21.6697C195.819 22.0974 196.3 22.5578 196.747 23.0509C196.984 23.404 197.189 23.7723 197.36 24.1558C197.481 24.5814 197.583 25.0111 197.667 25.445C197.942 27.3418 197.645 29.122 196.777 30.7857C196.258 31.5807 195.603 32.2457 194.813 32.7808C194.47 32.9403 194.142 33.1245 193.831 33.3333C193.268 33.5619 192.694 33.7665 192.112 33.9471C191.26 34.1709 190.401 34.355 189.533 34.4996C188.769 34.5094 188.012 34.5912 187.262 34.7452C184.581 34.8674 181.901 34.8674 179.22 34.7452C178.535 34.5829 177.839 34.501 177.133 34.4996C176.91 34.49 176.705 34.4286 176.519 34.3155C176.022 34.3247 175.551 34.2224 175.107 34.0085C174.923 33.9881 174.739 33.9676 174.555 33.9471C174.425 33.9312 174.323 33.8698 174.248 33.763C172.755 33.3595 171.497 32.5717 170.473 31.3996C170.292 31.0759 170.088 30.769 169.859 30.4787C169.641 30.0425 169.457 29.5923 169.306 29.1282C169.25 28.7616 169.21 28.3932 169.184 28.0232C169.054 27.7007 168.983 27.363 168.969 27.0104C168.963 26.8376 169.025 26.6944 169.153 26.5806C171.711 26.5397 174.268 26.5397 176.826 26.5806C177.001 26.8273 177.165 27.0831 177.317 27.348C177.53 27.5305 177.755 27.6942 177.993 27.8391C178.231 27.9214 178.476 27.9726 178.729 27.9926C179.068 28.18 179.436 28.2619 179.834 28.2381C180.066 28.2744 180.291 28.3358 180.51 28.4223C182.863 28.5418 185.216 28.5418 187.569 28.4223C187.638 28.3582 187.72 28.3173 187.815 28.2995C188.16 28.2402 188.508 28.1992 188.858 28.1767C188.998 28.0064 189.182 27.9143 189.411 27.9005C189.934 27.4008 190.026 26.8279 189.687 26.1816C189.376 25.8182 188.977 25.6443 188.49 25.6598C188.35 25.6308 188.227 25.5694 188.122 25.4757C185.316 25.3742 182.513 25.2514 179.712 25.1073C178.411 24.9663 177.122 24.7821 175.844 24.5549C175.493 24.3932 175.125 24.2909 174.739 24.2479C174.698 24.207 174.657 24.1661 174.616 24.1252C174.371 24.0842 174.125 24.0433 173.88 24.0024C173.78 23.9646 173.699 23.9032 173.634 23.8182C173.511 23.7978 173.389 23.7773 173.266 23.7568C172.715 23.4526 172.163 23.1457 171.608 22.836C171.329 22.5384 171.033 22.2622 170.718 22.0073C170.431 21.5547 170.144 21.1046 169.859 20.6568C169.805 20.4549 169.764 20.2502 169.736 20.0429C169.62 19.9492 169.559 19.8264 169.552 19.6746C169.507 19.0779 169.435 18.4845 169.337 17.8943C169.365 17.3234 169.436 16.7504 169.552 16.1755C169.896 14.9525 170.54 13.9192 171.486 13.0754C171.574 13.062 171.656 13.0313 171.731 12.9833C171.903 12.8448 172.067 12.6913 172.222 12.5229C172.426 12.5368 172.57 12.4549 172.652 12.2774C172.87 12.2344 173.054 12.1321 173.204 11.9705C173.454 11.9884 173.659 11.9065 173.818 11.7249C174.103 11.6644 174.368 11.5621 174.616 11.418C174.934 11.4333 175.221 11.3514 175.476 11.1724C175.739 11.1164 176.006 11.0755 176.274 11.0496C176.396 10.9422 176.539 10.8808 176.704 10.8655C177.236 10.8897 177.748 10.8079 178.238 10.6199C179.199 10.5555 180.161 10.5145 181.123 10.4972C181.235 10.4507 181.337 10.3996 181.43 10.3437Z" fill="#BDBDBD"/>
<path opacity="0.926" fill-rule="evenodd" clip-rule="evenodd" d="M2.97723 10.4668C9.04095 10.5149 15.2616 10.5456 21.639 10.5589C21.9368 10.547 22.2028 10.6289 22.437 10.8044C22.6212 10.8249 22.8053 10.8454 22.9895 10.8658C23.2342 11.0187 23.5002 11.1209 23.7875 11.1728C23.8917 11.3558 24.0554 11.4377 24.2786 11.4183C24.5848 11.6124 24.8917 11.8068 25.1994 12.0015C25.2538 12.0521 25.2743 12.1135 25.2608 12.1856C25.8041 12.4931 26.2645 12.9024 26.6421 13.4134C26.6717 13.4716 26.6819 13.533 26.6727 13.5976C26.7539 13.5871 26.8255 13.6076 26.8876 13.6589C27.0718 13.9454 27.2559 14.2319 27.4401 14.5184C27.6233 14.8849 27.8075 15.2532 27.9926 15.6233C28.0014 15.8953 28.0832 16.1409 28.2381 16.36C28.2784 16.8062 28.3807 17.2359 28.5451 17.6491C28.6667 18.9791 28.6667 20.3092 28.5451 21.6393C28.3986 22.3074 28.2144 22.9621 27.9926 23.6037C27.8084 23.9925 27.6243 24.3813 27.4401 24.7701C27.2706 24.8314 27.1888 24.9542 27.1945 25.1384C27.0428 25.2487 26.9405 25.392 26.8876 25.5681C26.0435 26.6714 24.9897 27.5206 23.7262 28.1157C23.4282 28.1474 23.1622 28.2497 22.9281 28.4226C22.6024 28.4375 22.2955 28.5193 22.0073 28.6681C18.1416 28.7586 14.2742 28.7893 10.4051 28.7602C10.4153 30.602 10.4051 32.4436 10.3744 34.2851C10.3554 34.3628 10.3247 34.4344 10.2823 34.4999C9.02388 34.5102 7.76544 34.5204 6.507 34.5306C5.22502 34.5303 3.95635 34.4894 2.70098 34.4079C2.66006 26.4685 2.66006 18.529 2.70098 10.5896C2.80058 10.5528 2.89267 10.5119 2.97723 10.4668ZM10.4665 17.6491C13.5985 17.6216 16.7292 17.6523 19.8587 17.7412C19.974 17.8705 20.1172 17.9523 20.2885 17.9867C21.1052 19.0778 21.1052 20.1726 20.2885 21.271C20.0807 21.2914 19.9169 21.3835 19.7974 21.5472C16.6667 21.5779 13.5359 21.5882 10.4051 21.5779C10.3853 20.2637 10.4058 18.9541 10.4665 17.6491Z" fill="#BDBDBD"/>
<path opacity="0.91" fill-rule="evenodd" clip-rule="evenodd" d="M29.558 10.528C37.4001 10.4975 45.2372 10.5282 53.0694 10.6201C53.1078 10.6661 53.1385 10.7173 53.1615 10.7735C53.2024 12.7584 53.2024 14.7433 53.1615 16.7281C53.106 16.8018 53.0345 16.853 52.9466 16.8816C47.7288 16.9123 42.5108 16.9225 37.2928 16.9123C37.2826 17.8538 37.2928 18.795 37.3235 19.7361C37.3465 19.7923 37.3772 19.8435 37.4156 19.8895C42.6308 19.8984 47.8488 19.919 53.0694 19.9509C53.1078 19.997 53.1385 20.0482 53.1615 20.1044C53.2024 21.7209 53.2024 23.3375 53.1615 24.954C53.1214 25.0905 53.0294 25.1621 52.8852 25.1689C47.6674 25.1996 42.4494 25.2098 37.2315 25.1996C37.2212 26.1206 37.2315 27.0414 37.2621 27.962C37.2811 28.0397 37.3118 28.1113 37.3542 28.1768C42.6071 28.1872 47.8558 28.2178 53.1001 28.2689C53.2015 30.2895 53.2219 32.3153 53.1615 34.3463C53.1308 34.4179 53.0796 34.469 53.008 34.4997C45.1709 34.5407 37.3338 34.5407 29.4966 34.4997C29.4455 34.4486 29.3943 34.3974 29.3432 34.3463C29.3298 34.1666 29.2991 33.9927 29.2511 33.8245C29.2511 26.2943 29.2511 18.7641 29.2511 11.2339C29.2991 11.0657 29.3298 10.8918 29.3432 10.7121C29.4364 10.6714 29.508 10.61 29.558 10.528Z" fill="#BDBDBD"/>
<path opacity="0.905" fill-rule="evenodd" clip-rule="evenodd" d="M137.17 10.5279C145.031 10.4976 152.889 10.5282 160.743 10.62C160.816 10.6755 160.867 10.747 160.896 10.8349C160.937 12.7583 160.937 14.6818 160.896 16.6053C160.828 16.7474 160.716 16.8395 160.559 16.8815C155.341 16.9122 150.123 16.9225 144.905 16.9122C144.905 17.8944 144.905 18.8766 144.905 19.8588C150.143 19.8977 155.382 19.9284 160.62 19.9509C160.808 20.0163 160.9 20.1494 160.896 20.3499C160.937 21.8642 160.937 23.3783 160.896 24.8926C160.814 25.0518 160.681 25.1439 160.497 25.1688C155.3 25.1995 150.102 25.2098 144.905 25.1995C144.905 26.2022 144.905 27.2049 144.905 28.2075C150.164 28.1972 155.422 28.2075 160.681 28.2382C160.732 28.2893 160.784 28.3405 160.835 28.3917C160.906 29.6071 160.937 30.8246 160.927 32.0442C160.885 32.811 160.854 33.5783 160.835 34.3462C160.758 34.3899 160.686 34.441 160.62 34.4997C152.783 34.5406 144.946 34.5406 137.109 34.4997C137.023 34.4278 136.972 34.3357 136.955 34.2235C136.914 26.4273 136.914 18.6311 136.955 10.8349C136.971 10.6871 137.042 10.5848 137.17 10.5279Z" fill="#BDBDBD"/>
<path opacity="0.918" fill-rule="evenodd" clip-rule="evenodd" d="M87.3235 10.5898C93.3806 10.5795 99.4371 10.5898 105.494 10.6205C105.991 10.7866 106.503 10.8889 107.029 10.9274C108.5 11.4399 109.758 12.2892 110.804 13.475C111.049 13.7827 111.274 14.1101 111.479 14.4572C111.651 14.828 111.836 15.1964 112.032 15.5622C112.222 16.0415 112.385 16.5326 112.523 17.0355C112.572 17.5938 112.654 18.1463 112.769 18.6929C112.964 20.9624 112.504 23.07 111.387 25.0158C110.497 26.3669 109.331 27.4002 107.888 28.1159C107.334 28.3347 106.761 28.5189 106.169 28.6684C102.386 28.7486 98.5998 28.7895 94.8128 28.7911C94.884 30.5567 94.8944 32.3267 94.8435 34.1011C94.8472 34.3017 94.7551 34.4347 94.5672 34.5002C92.132 34.5411 89.6974 34.5411 87.2622 34.5002C87.1277 34.3396 87.0461 34.1554 87.0166 33.9477C87.0982 33.4975 87.0982 33.0473 87.0166 32.5971C87.1296 25.2886 87.2008 18.0142 87.2315 10.7739C87.2628 10.7109 87.2935 10.6495 87.3235 10.5898ZM94.8742 17.7107C97.8619 17.7005 100.849 17.7107 103.837 17.7414C104.014 17.8401 104.198 17.9219 104.389 17.987C104.543 18.1404 104.696 18.2939 104.85 18.4474C104.882 18.7094 104.964 18.9549 105.095 19.184C105.106 19.3272 105.115 19.4705 105.126 19.6137C105.066 20.0695 104.974 20.5197 104.85 20.9642C104.693 21.024 104.601 21.1366 104.573 21.3019C104.419 21.3337 104.296 21.4156 104.205 21.5474C101.096 21.6369 97.9859 21.6676 94.8742 21.6395C94.8742 20.3299 94.8742 19.0203 94.8742 17.7107Z" fill="#BDBDBD"/>
<path opacity="0.898" fill-rule="evenodd" clip-rule="evenodd" d="M113.352 10.5898C115.828 10.5795 118.304 10.5898 120.78 10.6205C120.917 10.6958 121.009 10.8084 121.056 10.9581C121.102 15.952 121.051 20.9448 120.902 25.9366C120.923 26.4073 120.944 26.8779 120.964 27.3485C125.975 27.3995 130.988 27.4302 136.004 27.4406C136.137 27.4917 136.229 27.5838 136.28 27.7169C136.321 29.8245 136.321 31.9321 136.28 34.0398C136.279 34.2772 136.166 34.4307 135.942 34.5002C128.392 34.5411 120.841 34.5411 113.29 34.5002C113.178 34.4834 113.086 34.4322 113.014 34.3467C112.944 33.4708 112.913 32.591 112.922 31.707C112.978 26.3574 113.039 21.0065 113.106 15.6542C113.097 14.9549 113.077 14.2592 113.045 13.5671C113.095 12.7225 113.126 11.8733 113.137 11.0195C113.145 10.8412 113.217 10.6979 113.352 10.5898Z" fill="#BDBDBD"/>
<path opacity="0.915" fill-rule="evenodd" clip-rule="evenodd" d="M29.4966 37.8454C30.8685 37.8361 32.2395 37.8668 33.6096 37.9374C34.3765 38.1085 35.1541 38.1904 35.9423 38.183C36.1066 38.1983 36.2498 38.2597 36.372 38.3672C36.7633 38.3862 37.1521 38.4271 37.5384 38.4899C37.5972 38.5798 37.6791 38.6309 37.7839 38.6434C38.0277 38.6862 38.2732 38.7169 38.5206 38.7355C38.6302 38.7475 38.712 38.7986 38.7661 38.8889C39.114 38.8991 39.4209 39.0116 39.6869 39.2266C39.8301 39.247 39.9734 39.2675 40.1166 39.288C40.8503 39.6338 41.5665 40.0021 42.2652 40.3929C42.3061 40.4543 42.347 40.5157 42.388 40.5771C44.0133 41.6309 45.1694 43.0735 45.8563 44.9049C46.2029 45.8986 46.4382 46.9218 46.5623 47.9743C46.5717 48.1711 46.5307 48.3552 46.4395 48.5268C43.4931 48.5984 40.5465 48.6086 37.5997 48.5575C37.3368 48.2941 37.1833 47.977 37.1393 47.606C36.9792 47.5072 36.8974 47.364 36.8938 47.1762C36.7063 47.0617 36.6142 46.898 36.6175 46.6851C36.553 46.6943 36.4916 46.6841 36.4334 46.6544C35.823 46.0222 35.0864 45.6335 34.2234 45.4881C34.1825 45.4471 34.1416 45.4063 34.1007 45.3653C33.4163 45.319 32.7411 45.2167 32.0749 45.0584C31.2564 45.0174 30.4379 45.0174 29.6194 45.0584C28.9523 45.2112 28.277 45.3135 27.5936 45.3653C27.0823 45.4981 26.5912 45.6823 26.1203 45.9178C25.2605 46.3983 24.6159 47.0839 24.1866 47.9743C24.1707 48.2637 24.0888 48.5297 23.9411 48.7723C23.8183 49.775 23.8183 50.7777 23.9411 51.7803C23.9972 51.8311 24.0381 51.8925 24.0638 51.9645C24.1187 52.2323 24.1801 52.4983 24.248 52.7625C24.3949 52.8926 24.4767 53.0562 24.4935 53.2536C24.5549 53.2945 24.6163 53.3354 24.6777 53.3764C24.7419 53.5626 24.8442 53.7263 24.9846 53.8675C25.2704 54.1021 25.5466 54.3476 25.8134 54.6041C26.0206 54.6725 26.2048 54.7748 26.3659 54.911C26.6182 54.9392 26.8433 55.0313 27.0411 55.1873C27.5053 55.23 27.9555 55.3322 28.3916 55.4942C29.9673 55.6144 31.5429 55.6144 33.1185 55.4942C33.5707 55.3273 34.0414 55.225 34.5304 55.1873C34.9266 55.0199 35.3154 54.8357 35.6967 54.6348C35.9093 54.4796 36.1139 54.3159 36.3106 54.1437C36.5055 53.9692 36.6795 53.7748 36.8324 53.5605C36.8849 53.3702 36.977 53.2064 37.1086 53.0694C37.1714 52.8889 37.2225 52.7047 37.2621 52.5169C37.3821 52.3689 37.4947 52.2155 37.5997 52.0565C40.5259 52.0156 43.452 52.0156 46.3781 52.0565C46.5229 52.2351 46.5843 52.4397 46.5623 52.6704C46.3057 55.6199 45.0575 58.0141 42.8177 59.8527C42.642 59.9098 42.4988 60.0122 42.388 60.1597C42.3061 60.1801 42.2242 60.2006 42.1424 60.2211C41.986 60.3749 41.8223 60.5181 41.6513 60.6508C41.5153 60.7149 41.3721 60.7557 41.2216 60.7735C40.9597 60.9461 40.6936 61.1098 40.4236 61.2646C40.2803 61.2851 40.1371 61.3056 39.9939 61.326C39.7753 61.5298 39.5093 61.6323 39.1958 61.633C39.1212 61.7398 39.0189 61.8012 38.8889 61.8171C38.5709 61.8018 38.2844 61.8834 38.0295 62.0627C37.5559 62.0885 37.1058 62.1904 36.6789 62.3696C36.13 62.3549 35.598 62.4371 35.0829 62.6152C32.1976 62.7373 29.3124 62.7373 26.4272 62.6152C25.9125 62.4371 25.3804 62.3549 24.8312 62.3696C24.6793 62.3629 24.5565 62.3015 24.4629 62.1854C24.1136 62.1566 23.7657 62.1155 23.4193 62.0627C23.1905 61.8791 22.9244 61.7975 22.6212 61.8171C22.4912 61.8012 22.3889 61.7398 22.3143 61.633C22.0084 61.6268 21.7424 61.5243 21.5163 61.326C21.2698 61.3338 21.0651 61.2519 20.9024 61.0805C20.66 61.0691 20.4758 60.9667 20.3499 60.7735C20.2271 60.7531 20.1044 60.7326 19.9816 60.7122C19.8252 60.5583 19.6614 60.4151 19.4905 60.2824C19.2044 60.201 18.9589 60.0578 18.7538 59.8527C18.7024 59.7907 18.682 59.719 18.6924 59.6379C18.6082 59.6475 18.5263 59.6373 18.4469 59.6072C18.0855 59.2458 17.7274 58.8877 17.3726 58.5329C16.9697 58.0823 16.6218 57.5912 16.329 57.0596C16.1061 56.6344 15.9015 56.2047 15.7152 55.7705C15.6842 55.4375 15.5818 55.1306 15.4082 54.8497C15.4037 54.4986 15.3218 54.1712 15.1627 53.8675C15.1116 53.4387 15.0706 53.009 15.0399 52.5783C14.987 52.4809 14.946 52.3786 14.9171 52.2714C14.7271 50.3494 14.8294 48.4463 15.2241 46.5624C15.3681 45.9865 15.5318 45.4135 15.7152 44.8435C15.8993 44.4548 16.0835 44.0659 16.2676 43.6772C16.4744 43.3484 16.679 43.021 16.8815 42.695C17.0113 42.5372 17.1545 42.394 17.3112 42.2653C17.3181 42.0843 17.4102 42.0025 17.5875 42.0197C17.5783 41.9551 17.5885 41.8937 17.6182 41.8355C17.969 41.5774 18.2862 41.2807 18.5697 40.9454C19.0122 40.6679 19.4419 40.3814 19.8588 40.086C19.9382 40.0559 20.0201 40.0457 20.1044 40.0553C20.0909 39.9832 20.1113 39.9218 20.1657 39.8711C20.3055 39.8274 20.4487 39.7967 20.5954 39.7791C20.7991 39.5928 21.0242 39.4496 21.2707 39.3494C21.4722 39.2866 21.6768 39.2354 21.8846 39.1959C22.109 39.0017 22.3749 38.9096 22.6826 38.9196C22.7748 38.8428 22.8771 38.7814 22.9896 38.7355C23.3476 38.7557 23.675 38.6739 23.9718 38.4899C24.3369 38.4241 24.7053 38.3831 25.0767 38.3672C25.1989 38.2597 25.3421 38.1983 25.5064 38.183C26.8391 38.0242 28.1692 37.9116 29.4966 37.8454Z" fill="#BDBDBD"/>
<path opacity="0.926" fill-rule="evenodd" clip-rule="evenodd" d="M92.1731 37.8454C93.6679 37.836 95.1614 37.8667 96.6544 37.9375C97.375 38.1089 98.1117 38.1908 98.8643 38.183C99.0368 38.1842 99.1798 38.2456 99.294 38.3672C99.8355 38.3453 100.347 38.4476 100.829 38.6741C101.033 38.6946 101.238 38.7151 101.443 38.7355C101.835 38.8803 102.224 39.044 102.609 39.2266C102.859 39.2086 103.063 39.2905 103.223 39.4722C103.55 39.5949 103.878 39.7177 104.205 39.8405C104.772 40.1983 105.324 40.5666 105.862 40.9455C107.551 42.4125 108.665 44.2439 109.208 46.4396C109.262 47.0216 109.365 47.5945 109.515 48.1585C109.556 49.5908 109.556 51.0232 109.515 52.4556C109.354 53.0373 109.252 53.6307 109.208 54.2358C108.991 55.0165 108.725 55.7737 108.41 56.5072C107.927 57.3926 107.354 58.2111 106.691 58.9627C106.262 59.3973 105.802 59.7964 105.31 60.1597C105.228 60.1801 105.146 60.2006 105.064 60.2211C104.859 60.3848 104.654 60.5485 104.451 60.7122C104.348 60.7326 104.246 60.7531 104.144 60.7736C103.857 60.9373 103.571 61.101 103.284 61.2647C103.041 61.2569 102.836 61.3388 102.67 61.5102C102.491 61.571 102.307 61.6115 102.118 61.633C102.043 61.7398 101.941 61.8012 101.811 61.8172C101.498 61.8098 101.212 61.8921 100.951 62.0627C100.648 62.1241 100.341 62.1646 100.031 62.1855C99.9797 62.2413 99.9183 62.2825 99.8465 62.3083C99.4401 62.3764 99.0313 62.4169 98.6188 62.431C98.4401 62.5102 98.256 62.5716 98.0663 62.6152C95.4278 62.7122 92.7882 62.7324 90.1473 62.6766C89.3364 62.5378 88.5175 62.4359 87.6918 62.3696C87.5273 62.3543 87.3843 62.2929 87.2621 62.1855C86.8048 62.1922 86.375 62.0897 85.973 61.8785C85.8091 61.8583 85.6458 61.8374 85.4819 61.8172C85.372 61.7914 85.2903 61.73 85.2363 61.633C84.7851 61.5593 84.3554 61.4366 83.9472 61.2647C83.7262 61.1126 83.5015 60.9694 83.2719 60.835C83.1363 60.7709 82.9926 60.73 82.8422 60.7122C82.7176 60.5476 82.5543 60.4453 82.3511 60.4053C82.0325 60.1907 81.7256 59.9452 81.4303 59.6686C81.2603 59.652 81.1577 59.5599 81.1234 59.3924C80.9484 59.3609 80.8668 59.2586 80.8778 59.0854C80.6734 59.0854 80.5709 58.9831 80.5709 58.7785C80.4898 58.7889 80.418 58.7685 80.356 58.7171C79.709 57.8723 79.1565 56.972 78.6986 56.0161C78.496 55.4921 78.3118 54.9601 78.1461 54.42C78.116 53.849 78.0135 53.2965 77.8391 52.7625C77.8305 51.9818 77.779 51.2043 77.6857 50.4298C77.7642 49.4479 77.8355 48.4657 77.9005 47.4832C78.0546 47.0717 78.1363 46.642 78.1461 46.1941C78.3155 45.9128 78.418 45.6059 78.453 45.2733C78.7348 44.6893 79.0006 44.0959 79.251 43.493C80.035 42.2795 81.0067 41.2461 82.1669 40.393C82.2725 40.3717 82.3744 40.341 82.4739 40.3009C82.6267 40.153 82.7906 40.02 82.965 39.9019C83.3468 39.7838 83.7151 39.6405 84.07 39.4722C84.2296 39.2905 84.434 39.2086 84.6838 39.2266C85.0663 39.0439 85.4549 38.8801 85.8502 38.7355C86.2234 38.7457 86.5715 38.6639 86.8938 38.49C87.2179 38.427 87.5457 38.386 87.876 38.3672C88.0423 38.2599 88.2265 38.1986 88.4285 38.183C89.6795 38.0341 90.9281 37.9215 92.1731 37.8454ZM92.4186 45.0277C93.1964 45.0175 93.9742 45.0277 94.7514 45.0584C95.4389 45.2137 96.135 45.3159 96.8385 45.3654C97.1 45.5229 97.3867 45.6048 97.6979 45.6109C98.1682 45.8758 98.6384 46.1418 99.1099 46.4089C99.3499 46.7062 99.6059 46.9824 99.8772 47.2377C100.089 47.6537 100.273 48.0834 100.43 48.5268C100.483 49.1099 100.535 49.693 100.583 50.2763C100.535 50.8596 100.483 51.4428 100.43 52.0259C100.262 52.3053 100.16 52.6123 100.123 52.9467C99.965 53.2484 99.7808 53.5348 99.5703 53.8061C99.2418 54.1136 98.8944 54.4 98.5267 54.6655C98.178 54.8623 97.8201 55.0363 97.4524 55.1873C96.9656 55.2217 96.4948 55.324 96.0405 55.4943C94.4444 55.6156 92.8483 55.6156 91.2523 55.4943C90.8195 55.3224 90.3695 55.22 89.9018 55.1873C89.7293 55.0341 89.5242 54.9522 89.2879 54.9418C88.9828 54.7578 88.6758 54.5736 88.3671 54.3893C88.1547 54.2078 87.9502 54.0134 87.7532 53.8061C87.5739 53.5426 87.4002 53.2766 87.2314 53.0081C87.1755 52.7241 87.0736 52.458 86.9245 52.21C86.806 51.5681 86.7139 50.9235 86.6482 50.2763C86.7268 49.6108 86.8189 48.9458 86.9245 48.2812C87.1909 47.6973 87.5285 47.155 87.9374 46.6545C88.2977 46.4215 88.6458 46.176 88.9809 45.9178C89.4518 45.6836 89.9429 45.4995 90.4542 45.3654C90.8612 45.3012 91.2701 45.2603 91.682 45.2426C91.9478 45.2126 92.1933 45.141 92.4186 45.0277Z" fill="#BDBDBD"/>
<path opacity="0.916" fill-rule="evenodd" clip-rule="evenodd" d="M134.776 37.8457C136.25 37.8355 137.723 37.8662 139.196 37.9377C139.921 38.1053 140.657 38.1871 141.406 38.1833C141.57 38.1986 141.713 38.26 141.835 38.3674C142.207 38.3834 142.575 38.4244 142.94 38.4902C143.262 38.6641 143.61 38.746 143.984 38.7358C144.114 38.7517 144.216 38.8131 144.291 38.9199C144.624 38.9105 144.91 39.0128 145.15 39.2269C145.314 39.2473 145.478 39.2678 145.641 39.2883C146.051 39.4929 146.46 39.6975 146.869 39.9021C148.588 40.823 149.929 42.1428 150.89 43.8616C151.169 44.5817 151.455 45.2979 151.749 46.0102C151.797 46.5733 151.899 47.1258 152.056 47.6676C152.098 47.8927 152.098 48.1178 152.056 48.3429C152.028 48.4307 151.977 48.5023 151.903 48.5577C148.977 48.5987 146.051 48.5987 143.125 48.5577C142.881 48.3564 142.748 48.1007 142.726 47.7904C142.564 47.4687 142.38 47.1618 142.173 46.8696C141.808 46.524 141.43 46.2069 141.037 45.9181C140.565 45.684 140.074 45.4998 139.564 45.3656C138.88 45.3193 138.205 45.217 137.538 45.0587C136.761 45.0177 135.983 45.0177 135.206 45.0587C134.538 45.2115 133.863 45.3138 133.18 45.3656C132.899 45.5316 132.592 45.6135 132.259 45.6112C132.079 45.8049 131.854 45.897 131.584 45.8874C131.597 45.9595 131.577 46.0209 131.522 46.0716C131.403 46.1139 131.28 46.1445 131.154 46.1636C131.107 46.3134 131.004 46.3953 130.847 46.4092C130.775 46.5627 130.663 46.6752 130.509 46.7468C130.48 46.805 130.47 46.8664 130.479 46.931C130.406 46.9175 130.345 46.938 130.295 46.9924C129.621 47.9576 129.314 49.0422 129.374 50.2459C129.396 50.7376 129.427 51.2287 129.466 51.7192C129.664 52.6634 130.104 53.4717 130.786 54.144C130.932 54.2823 131.095 54.3949 131.277 54.4816C131.331 54.5323 131.352 54.5937 131.338 54.6658C131.487 54.6672 131.63 54.6979 131.768 54.7579C132.034 54.9011 132.3 55.0444 132.566 55.1876C133.055 55.2153 133.525 55.3175 133.978 55.4945C135.533 55.6159 137.088 55.6159 138.643 55.4945C139.101 55.331 139.571 55.2185 140.055 55.1569C140.573 54.9152 141.085 54.6595 141.59 54.3895C141.881 54.0614 142.168 53.7339 142.449 53.4073C142.475 53.2477 142.546 53.1147 142.664 53.0083C142.669 52.614 142.823 52.2969 143.125 52.0568C146.051 52.0159 148.977 52.0159 151.903 52.0568C152.079 52.3503 152.13 52.6675 152.056 53.0083C151.906 53.8172 151.722 54.6152 151.504 55.4024C151.327 55.8868 151.122 56.3574 150.89 56.8143C150.053 58.2614 148.938 59.4482 147.544 60.3748C146.975 60.6391 146.422 60.9358 145.887 61.2649C145.485 61.4632 145.055 61.5958 144.598 61.6639C144.562 61.7437 144.5 61.7947 144.414 61.8174C144.079 61.8064 143.772 61.888 143.493 62.063C143.189 62.1244 142.882 62.1649 142.572 62.1857C142.43 62.3005 142.267 62.3619 142.081 62.3699C141.571 62.3546 141.08 62.4362 140.608 62.6154C137.722 62.7376 134.837 62.7376 131.952 62.6154C131.438 62.4331 130.906 62.3515 130.356 62.3699C129.929 62.1925 129.478 62.09 129.005 62.063C128.751 61.8837 128.464 61.8021 128.146 61.8174C127.909 61.6566 127.643 61.5541 127.348 61.5105C127.182 61.3391 126.977 61.2572 126.734 61.2649C125.762 60.7895 124.842 60.2371 123.972 59.6075C123.304 58.9395 122.68 58.2336 122.099 57.4896C121.839 56.9023 121.552 56.3293 121.24 55.7708C121.203 55.4391 121.101 55.1322 120.933 54.85C120.913 54.6658 120.892 54.4816 120.872 54.2975C120.778 54.1918 120.716 54.069 120.687 53.9291C120.664 53.3822 120.583 52.8501 120.442 52.3331C120.319 50.9825 120.319 49.632 120.442 48.2815C120.588 47.7623 120.67 47.2302 120.687 46.6854C120.716 46.5455 120.778 46.4228 120.872 46.3171C120.892 46.1534 120.913 45.9897 120.933 45.826C121.096 45.5425 121.199 45.2355 121.24 44.9052C121.409 44.4614 121.613 44.0317 121.854 43.6161C122.543 42.4794 123.413 41.5075 124.463 40.7002C124.556 40.6382 124.659 40.6075 124.77 40.6081C124.756 40.536 124.776 40.4746 124.831 40.4239C125.168 40.2393 125.495 40.0449 125.813 39.8407C126.037 39.8601 126.2 39.7783 126.304 39.5952C127.093 39.3323 127.871 39.0458 128.637 38.7358C128.821 38.7153 129.005 38.6948 129.19 38.6744C129.652 38.455 130.143 38.3528 130.663 38.3674C130.832 38.26 131.016 38.1986 131.215 38.1833C132.404 38.0492 133.591 37.9366 134.776 37.8457Z" fill="#BDBDBD"/>
<path opacity="0.891" fill-rule="evenodd" clip-rule="evenodd" d="M153.561 38.1523C161.377 38.142 169.194 38.1523 177.01 38.183C177.061 38.2341 177.113 38.2853 177.164 38.3364C177.265 40.3184 177.285 42.3032 177.225 44.291C177.166 44.4018 177.094 44.5042 177.01 44.598C171.775 44.6434 166.536 44.6537 161.295 44.6286C161.235 45.5754 161.214 46.5269 161.234 47.4832C166.39 47.4729 171.547 47.4832 176.704 47.5139C177.05 47.471 177.223 47.6245 177.225 47.9743C177.236 48.6598 177.246 49.3452 177.256 50.0307C177.232 50.8235 177.232 51.6113 177.256 52.3941C177.214 52.6923 177.05 52.8867 176.765 52.9773C171.588 53.008 166.411 53.0183 161.234 53.008C161.234 53.9288 161.234 54.8496 161.234 55.7705C166.411 55.7602 171.588 55.7705 176.765 55.8011C176.95 55.7913 177.083 55.863 177.164 56.016C177.205 58.0008 177.205 59.9857 177.164 61.9706C177.109 62.0442 177.037 62.0952 176.949 62.124C176.667 62.1363 176.391 62.167 176.12 62.2161C173.627 62.1842 171.131 62.1639 168.631 62.1547C168.5 62.1934 168.367 62.2241 168.232 62.2468C163.362 62.288 158.492 62.288 153.622 62.2468C153.49 62.1762 153.378 62.0841 153.284 61.9706C153.243 54.1539 153.243 46.3372 153.284 38.5206C153.321 38.3515 153.413 38.2288 153.561 38.1523Z" fill="#BDBDBD"/>
<path opacity="0.913" fill-rule="evenodd" clip-rule="evenodd" d="M47.8514 38.2139C50.5037 38.2171 53.1536 38.2171 55.801 38.2139C56.0473 38.2355 56.2519 38.3379 56.4149 38.5208C56.4253 41.2569 56.456 43.9886 56.507 46.716C60.369 46.7449 64.2363 46.7551 68.1092 46.7467C68.0988 44.0047 68.1092 41.2627 68.1399 38.5208C68.1909 38.4287 68.2627 38.3571 68.3548 38.3059C70.3818 38.3008 72.4075 38.2906 74.4321 38.2753C75.2105 38.3114 75.9883 38.3626 76.7648 38.4287C76.8502 38.5006 76.9017 38.5927 76.9183 38.705C76.9594 46.4398 76.9594 54.1746 76.9183 61.9094C76.9011 62.1316 76.7882 62.2851 76.5807 62.3698C73.7832 62.4207 70.9901 62.4103 68.2013 62.3391C68.1104 59.519 68.0797 56.6951 68.1092 53.8676C64.2215 53.8676 60.3335 53.8676 56.4456 53.8676C56.4559 56.6301 56.4456 59.3926 56.4149 62.1549C56.392 62.2114 56.3613 62.2624 56.3228 62.3084C53.4632 62.4103 50.5985 62.4306 47.7286 62.3698C47.6408 62.3409 47.5692 62.29 47.5137 62.2163C47.412 54.3609 47.3915 46.5033 47.4524 38.6436C47.5667 38.4799 47.6996 38.3366 47.8514 38.2139Z" fill="#BDBDBD"/>
<path opacity="0.902" fill-rule="evenodd" clip-rule="evenodd" d="M110.774 38.3974C113.536 38.3871 116.298 38.3974 119.061 38.4281C119.092 38.4588 119.122 38.4895 119.153 38.5202C119.255 46.3334 119.275 54.1501 119.214 61.9701C119.146 62.1003 119.053 62.2132 118.938 62.3078C116.217 62.3489 113.495 62.3489 110.774 62.3078C110.723 62.2157 110.651 62.1439 110.559 62.0929C110.457 54.3206 110.437 46.5449 110.497 38.7657C110.534 38.5967 110.626 38.4739 110.774 38.3974Z" fill="#BDBDBD"/>
<path opacity="0.899" fill-rule="evenodd" clip-rule="evenodd" d="M167.066 65.4692C168.95 65.4464 170.832 65.4771 172.713 65.5612C172.821 65.5901 172.923 65.6312 173.02 65.684C173.657 65.6963 174.291 65.7368 174.923 65.8068C175.757 65.9369 176.576 66.1211 177.379 66.3593C178.053 66.6239 178.729 66.8897 179.405 67.1573C179.617 67.3053 179.821 67.4587 180.018 67.6177C180.141 67.6588 180.264 67.6994 180.387 67.7405C180.815 68.0763 181.214 68.4446 181.584 68.8455C182.263 69.6539 182.734 70.5747 182.996 71.6079C183.08 72.1377 183.1 72.6699 183.057 73.204C183.026 73.3163 182.955 73.3881 182.842 73.4188C180.407 73.4599 177.972 73.4599 175.537 73.4188C175.406 73.3083 175.273 73.1954 175.138 73.0812C175.073 72.8933 174.961 72.7399 174.8 72.6208C174.656 72.6085 174.553 72.5373 174.494 72.4059C174.22 72.3832 173.974 72.2911 173.757 72.1297C173.021 72.0591 172.285 71.9977 171.547 71.9455C171.401 71.9142 171.258 71.8731 171.117 71.8228C169.48 71.7816 167.843 71.7816 166.206 71.8228C165.622 71.9689 165.028 72.0714 164.426 72.1297C164.291 72.2347 164.147 72.3267 163.996 72.4059C163.876 72.5318 163.784 72.6754 163.72 72.8356C163.497 73.533 163.712 74.0137 164.365 74.2782C164.783 74.3212 165.192 74.4035 165.592 74.5238C168.418 74.6251 171.242 74.7479 174.064 74.8921C175.464 75.0235 176.856 75.2076 178.238 75.4446C178.519 75.6189 178.826 75.7012 179.159 75.6902C179.456 75.87 179.783 75.9725 180.141 75.9971C180.303 76.1291 180.487 76.2107 180.694 76.2426C181.309 76.5502 181.882 76.9185 182.412 77.3476C183.433 78.3378 183.996 79.5551 184.101 81.0002C184.207 82.3961 184.023 83.7466 183.548 85.0517C183.125 85.9652 182.541 86.7528 181.799 87.4151C181.498 87.552 181.232 87.7362 181.001 87.9676C180.865 88.0315 180.721 88.0726 180.571 88.0904C180.53 88.1518 180.489 88.2132 180.448 88.2746C180.2 88.2954 179.995 88.3979 179.834 88.5815C179.67 88.6018 179.507 88.6226 179.343 88.6429C179.302 88.7245 179.241 88.7859 179.159 88.827C178.809 88.8602 178.481 88.9627 178.177 89.134C177.159 89.3421 176.136 89.5262 175.107 89.6865C174.015 89.6723 172.93 89.7546 171.854 89.932C170.381 89.9731 168.907 89.9731 167.434 89.932C166.378 89.7552 165.314 89.6736 164.242 89.6865C163.978 89.6846 163.732 89.6232 163.505 89.5023C163.094 89.4747 162.685 89.4342 162.277 89.3795C162.178 89.3415 162.096 89.2801 162.032 89.1954C161.766 89.1751 161.5 89.1542 161.234 89.134C161.124 89.1217 161.042 89.0708 160.988 88.9805C160.764 88.9265 160.539 88.8755 160.313 88.827C160.231 88.7859 160.17 88.7245 160.129 88.6429C159.92 88.6245 159.715 88.584 159.515 88.5201C159.311 88.3771 159.106 88.2334 158.901 88.0904C158.799 88.0701 158.697 88.0493 158.594 88.029C158.35 87.8043 158.084 87.6103 157.796 87.4458C157.529 87.1278 157.233 86.8412 156.906 86.5864C156.77 86.2862 156.586 86.0204 156.354 85.7884C156.153 85.3679 155.969 84.9382 155.801 84.4992C155.749 84.0757 155.647 83.6662 155.494 83.2715C155.459 82.8203 155.438 82.3703 155.433 81.921C155.517 81.7135 155.671 81.6005 155.893 81.5833C158.25 81.5471 160.603 81.5471 162.953 81.5833C163.066 81.6705 163.188 81.7423 163.321 81.7982C163.401 82.0726 163.544 82.3077 163.751 82.5041C164.032 82.7337 164.339 82.9179 164.672 83.0566C165.094 83.1064 165.504 83.2089 165.899 83.3636C166.783 83.4016 167.664 83.4833 168.539 83.6091C170.613 83.7024 172.68 83.6208 174.739 83.3636C175.036 83.2328 175.343 83.1309 175.66 83.0566C176.19 82.6134 176.343 82.0505 176.12 81.3685C175.969 81.2169 175.815 81.0634 175.66 80.9081C175.373 80.8872 175.107 80.8056 174.862 80.6625C173.893 80.6165 172.931 80.514 171.977 80.3556C170.401 80.3353 168.826 80.3145 167.25 80.2942C166.894 80.2776 166.546 80.2162 166.206 80.11C165.591 80.0898 164.977 80.0487 164.365 79.9873C164.198 79.8798 164.014 79.8185 163.812 79.8031C163.464 79.7828 163.117 79.762 162.769 79.7417C162.604 79.7264 162.461 79.665 162.339 79.5576C161.704 79.5041 161.09 79.3814 160.497 79.1892C160.398 79.1512 160.316 79.0898 160.252 79.0051C159.858 78.9351 159.49 78.8123 159.147 78.6367C159.01 78.4557 158.826 78.3531 158.594 78.3298C158.553 78.2684 158.513 78.207 158.471 78.1456C158.342 78.1235 158.219 78.0824 158.103 78.0229C157.945 77.8933 157.802 77.7497 157.673 77.5932C157.5 77.5827 157.408 77.4906 157.397 77.3169C157.22 77.1892 157.057 77.0462 156.906 76.8872C156.877 76.7798 156.836 76.6779 156.783 76.5803C156.64 76.3961 156.497 76.2119 156.354 76.0278C156.108 75.4145 155.924 74.7798 155.801 74.1248C155.591 72.6631 155.796 71.2715 156.415 69.9504C157.34 68.3771 158.68 67.3231 160.436 66.789C160.5 66.7043 160.582 66.6429 160.681 66.6048C161.035 66.5778 161.363 66.4753 161.664 66.2979C162.435 66.11 163.212 65.9461 163.996 65.8068C164.587 65.738 165.181 65.6969 165.777 65.684C166.207 65.5723 166.637 65.5005 167.066 65.4692Z" fill="#BDBDBD"/>
<path opacity="0.917" fill-rule="evenodd" clip-rule="evenodd" d="M20.7796 65.7149C24.7289 65.7044 28.6782 65.7149 32.6274 65.7456C32.7555 65.7941 32.8681 65.8659 32.965 65.9604C33.0884 66.3699 33.2111 66.7793 33.3334 67.1882C33.3947 67.2495 33.4561 67.3109 33.5175 67.3723C33.5453 67.5798 33.5862 67.7842 33.6403 67.9862C33.7761 68.2766 33.9193 68.5626 34.07 68.8456C34.0886 69.1673 34.1909 69.454 34.3769 69.705C34.3634 69.9352 34.4453 70.1194 34.6225 70.2575C34.6944 70.7063 34.8172 71.136 34.9908 71.5467C35.0758 71.6111 35.1372 71.6928 35.175 71.7922C35.251 72.2053 35.3738 72.5945 35.5433 72.9586C35.5811 73.058 35.6424 73.1397 35.7275 73.2041C35.8234 73.6455 35.9462 74.0752 36.0958 74.4933C36.1572 74.5546 36.2186 74.616 36.28 74.6774C36.3879 75.1163 36.5107 75.546 36.6483 75.9665C36.8256 76.1526 36.928 76.3772 36.9552 76.6418C37.1264 76.8554 37.2083 77.101 37.2008 77.3785C37.2385 77.4779 37.2999 77.5596 37.3849 77.624C37.5083 78.0335 37.631 78.4429 37.7533 78.8518C37.791 78.9512 37.8524 79.0328 37.9374 79.0973C38.1121 79.5092 38.2349 79.9389 38.3057 80.3864C38.4693 80.7106 38.633 81.0384 38.7968 81.3686C38.7841 81.632 38.8659 81.8573 39.0424 82.0439C39.1941 82.422 39.3169 82.8106 39.4107 83.2103C39.5744 83.5786 39.7381 83.9469 39.9018 84.3152C39.8838 84.5651 39.9657 84.7695 40.1474 84.9291C40.2711 85.3398 40.3938 85.7486 40.5157 86.1569C40.6007 86.2213 40.6621 86.303 40.6998 86.4024C40.8067 86.799 40.9295 87.1882 41.0682 87.5688C41.2319 87.9371 41.3955 88.3054 41.5593 88.6737C41.5797 88.7965 41.6002 88.9193 41.6207 89.0421C41.8949 89.3177 41.9052 89.6044 41.6513 89.9015C38.9324 89.9727 36.2109 89.9831 33.4868 89.9322C33.3947 89.799 33.2822 89.6866 33.1492 89.5945C32.9725 89.1581 32.8292 88.7081 32.7195 88.244C32.6581 88.1624 32.5967 88.0801 32.5353 87.9985C32.3794 87.6031 32.2566 87.1943 32.167 86.7707C31.9956 86.605 31.9137 86.3999 31.9215 86.1569C31.8001 85.9672 31.708 85.7627 31.6452 85.543C28.3485 85.4613 25.054 85.4613 21.7618 85.543C21.6132 85.9064 21.4801 86.2747 21.3628 86.6479C21.1833 86.9015 21.0809 87.1875 21.0559 87.5074C20.9125 87.7959 20.7693 88.0826 20.6262 88.3668C20.5727 88.8002 20.4499 89.209 20.2579 89.5945C20.1078 89.6854 19.9747 89.7977 19.8588 89.9322C17.1782 89.9733 14.4977 89.9733 11.8171 89.9322C11.5843 89.8063 11.5127 89.6117 11.6022 89.349C11.7361 89.0408 11.8793 88.7339 12.0319 88.4282C12.0242 88.1814 12.106 87.977 12.2775 87.8143C12.4008 87.4049 12.5236 86.9954 12.6458 86.5866C12.7984 86.2809 12.9416 85.9739 13.0755 85.6658C13.1982 85.1249 13.3927 84.613 13.6587 84.1311C13.6982 83.9236 13.7494 83.7185 13.8122 83.5172C13.9461 83.209 14.0893 82.9021 14.2419 82.5964C14.2402 82.3373 14.322 82.112 14.4874 81.9211C14.5945 81.5239 14.7173 81.1354 14.8558 80.7548C15.0195 80.3864 15.1831 80.0181 15.3469 79.6498C15.3573 79.4134 15.4392 79.2084 15.5924 79.0359C15.6255 78.8499 15.6664 78.6658 15.7152 78.4834C15.8611 78.1384 16.0146 77.8008 16.1756 77.4705C16.2124 77.2723 16.2635 77.0777 16.3291 76.8874C16.437 76.6363 16.5598 76.3907 16.6974 76.1507C16.7251 75.9432 16.766 75.7388 16.8202 75.5368C16.9633 75.2526 17.1065 74.9659 17.2499 74.6774C17.4655 73.9991 17.6906 73.3238 17.9251 72.6516C18.0609 72.3588 18.2041 72.0727 18.3548 71.7922C18.3826 71.5847 18.4235 71.3803 18.4776 71.1783C18.6027 70.8812 18.746 70.5945 18.9073 70.3189C18.9286 70.1298 18.9695 69.9457 19.0301 69.7664C19.5472 68.5381 20.0178 67.2901 20.442 66.0218C20.5482 65.9052 20.6607 65.8026 20.7796 65.7149ZM26.6728 72.5902C26.883 72.9359 27.057 73.3042 27.1946 73.6952C27.3378 74.1249 27.4811 74.5546 27.6243 74.9844C27.6653 75.0255 27.7062 75.066 27.7471 75.1071C27.9671 75.7167 28.1717 76.3306 28.361 76.9487C28.6009 77.5712 28.8567 78.1851 29.1283 78.7904C29.173 78.8917 29.1833 78.9942 29.159 79.0973C27.5251 79.0789 25.8881 79.0991 24.248 79.1587C24.2071 79.0562 24.2071 78.9543 24.248 78.8518C24.3856 78.6117 24.5084 78.3662 24.6164 78.1151C24.6855 77.872 24.7469 77.6265 24.8005 77.3785C24.9363 77.0881 25.0795 76.802 25.2302 76.519C25.258 76.3115 25.2989 76.1071 25.353 75.9052C25.62 75.4724 25.8041 75.0015 25.9055 74.4933C26.2251 73.8812 26.4809 73.2471 26.6728 72.5902Z" fill="#BDBDBD"/>
<path opacity="0.919" fill-rule="evenodd" clip-rule="evenodd" d="M34.5304 65.7149C37.1088 65.7044 39.687 65.7149 42.2653 65.7456C42.3215 65.7683 42.3727 65.799 42.4187 65.8376C42.6122 66.1495 42.7759 66.4773 42.9098 66.8198C42.9508 67.0243 42.9917 67.2293 43.0326 67.4337C43.1834 67.7142 43.3266 68.0003 43.4623 68.2931C43.4792 68.5467 43.561 68.772 43.7079 68.9684C43.8795 69.4073 44.0228 69.8573 44.1376 70.3189C44.2808 70.6234 44.4241 70.9303 44.5673 71.2397C44.6004 71.4257 44.6413 71.6099 44.6901 71.7922C44.8333 72.0967 44.9765 72.4036 45.1198 72.713C45.2431 73.1225 45.3659 73.5319 45.4881 73.9408C45.6407 74.2465 45.7839 74.5534 45.9178 74.8616C45.9428 75.1814 46.0452 75.4675 46.2247 75.721C46.3815 76.1176 46.5043 76.5264 46.5931 76.9487C46.6544 77.0304 46.7158 77.1127 46.7772 77.1943C46.7988 77.4435 46.8807 77.6682 47.0228 77.8696C47.0545 78.1673 47.1568 78.4337 47.3297 78.6676C47.3812 78.9543 47.4834 79.2207 47.6366 79.4656C47.6838 79.1931 47.7861 78.9475 47.9436 78.729C47.9317 78.4313 48.0136 78.1648 48.1891 77.9309C48.2166 77.6154 48.319 77.3287 48.4961 77.0715C48.4842 76.7738 48.5661 76.5074 48.7416 76.2735C48.7695 75.9555 48.8718 75.6694 49.0486 75.4141C49.069 75.2502 49.0895 75.0869 49.1099 74.923C49.1259 74.7928 49.1873 74.6909 49.2941 74.616C49.4382 74.1041 49.5815 73.5927 49.7238 73.0813C49.7648 73.0402 49.8056 72.9997 49.8466 72.9586C49.9416 72.4288 50.0848 71.9174 50.2763 71.4239C50.3172 71.3828 50.3581 71.3422 50.3991 71.3011C50.4703 70.8125 50.5931 70.3422 50.7674 69.8892C50.9536 69.6166 51.0559 69.3097 51.0743 68.9684C51.215 68.5749 51.3685 68.1863 51.5347 67.802C51.5422 67.5184 51.6241 67.2624 51.7803 67.0347C51.8412 66.6062 51.9742 66.2072 52.1793 65.8376C52.2254 65.799 52.2765 65.7683 52.3328 65.7456C55.5249 65.7044 58.7171 65.7044 61.9092 65.7456C61.9933 65.7701 62.0756 65.8008 62.1548 65.8376C62.2333 66.0991 62.3463 66.3447 62.4924 66.5743C62.5397 66.7983 62.5808 67.023 62.6152 67.2495C62.7785 67.5332 62.881 67.8401 62.9221 68.1704C63.0878 68.4049 63.1701 68.6713 63.1676 68.9684C63.3383 69.2274 63.4408 69.5141 63.4746 69.8278C63.5157 69.8689 63.5562 69.9095 63.5974 69.9506C63.6219 70.306 63.7244 70.6338 63.9043 70.9328C63.9209 71.1863 64.0031 71.4116 64.1498 71.608C64.202 71.8518 64.2432 72.0973 64.2726 72.3447C64.4506 72.5767 64.5532 72.8432 64.5796 73.1427C64.6207 73.1839 64.6612 73.2244 64.7023 73.2655C64.7545 73.5092 64.7956 73.7548 64.8251 74.0022C64.8632 74.1016 64.9246 74.1832 65.0093 74.2477C65.1609 74.7081 65.2837 75.1789 65.3776 75.6596C65.439 75.7621 65.5004 75.864 65.5618 75.9665C65.7183 76.4042 65.8411 76.8542 65.9301 77.3171C66.1087 77.5952 66.2112 77.9021 66.237 78.2379C66.3936 78.4534 66.4752 78.6989 66.4826 78.9745C66.6145 79.136 66.6962 79.3201 66.7281 79.527C66.7146 79.2944 66.7963 79.1102 66.9737 78.9745C67.0209 78.7505 67.0621 78.5258 67.0964 78.2993C67.1388 78.2465 67.1897 78.206 67.2499 78.1765C67.3979 77.7314 67.5311 77.2809 67.6489 76.826C67.8091 76.6553 67.8908 76.4509 67.8945 76.2121C68.0903 75.9635 68.1922 75.6768 68.2014 75.3527C68.3549 75.0457 68.5083 74.7388 68.6618 74.4319C68.7011 74.2495 68.7318 74.0654 68.7539 73.8794C68.8153 73.818 68.8767 73.7566 68.9381 73.6952C69.0897 73.2759 69.2125 72.8462 69.3064 72.4061C69.3678 72.3447 69.4292 72.2833 69.4905 72.2219C69.6127 71.8131 69.7355 71.4036 69.8589 70.9942C70.035 70.8076 70.1173 70.5823 70.1044 70.3189C70.3002 70.0703 70.4021 69.7836 70.4114 69.4595C70.4727 69.3981 70.5341 69.3367 70.5955 69.2753C70.6139 69.066 70.6544 68.861 70.7183 68.6615C70.854 68.3711 70.9976 68.085 71.148 67.802C71.1382 67.4945 71.2303 67.2287 71.4242 67.004C71.4298 66.756 71.5219 66.5516 71.7005 66.3901C71.7134 66.1986 71.7539 66.0144 71.8233 65.8376C71.889 65.7953 71.9602 65.7646 72.0381 65.7456C74.6164 65.7044 77.1947 65.7044 79.7729 65.7456C79.9307 65.7603 80.0332 65.8425 80.0799 65.9911C79.8282 66.6909 79.5931 67.3969 79.3739 68.109C79.0258 68.9678 78.6784 69.8272 78.3303 70.6872C78.3088 70.8763 78.2683 71.0605 78.2076 71.2397C78.0823 71.5344 77.9393 71.8204 77.7778 72.0991C77.7576 72.2422 77.7367 72.3858 77.7164 72.5289C77.5642 72.8315 77.4206 73.1384 77.2867 73.4497C77.1394 74.0052 76.935 74.5375 76.6729 75.0457C76.6526 75.1888 76.6317 75.3324 76.6115 75.4755C76.4568 75.8266 76.2935 76.1747 76.1204 76.519C75.9252 77.1562 75.7207 77.7904 75.5065 78.422C75.4684 78.5215 75.4071 78.6031 75.3223 78.6676C75.1517 79.1059 75.008 79.5565 74.8926 80.0181C74.7735 80.3349 74.6299 80.6418 74.4629 80.9389C74.307 81.3336 74.1842 81.7431 74.0946 82.1667C73.9516 82.4712 73.8079 82.7781 73.6649 83.0875C73.6317 83.2735 73.5906 83.4576 73.5421 83.64C73.4064 83.9328 73.2634 84.2189 73.1124 84.4994C73.0234 84.9217 72.9006 85.3312 72.7441 85.7271C72.6827 85.8088 72.6213 85.891 72.5599 85.9727C72.5525 86.2483 72.4709 86.4939 72.3144 86.7093C72.0817 87.4067 71.8362 88.1022 71.5777 88.7965C71.5366 88.8376 71.4961 88.8782 71.4549 88.9193C71.4273 89.1268 71.3862 89.3312 71.3322 89.5332C71.199 89.6664 71.0664 89.799 70.9331 89.9322C67.9203 89.9929 64.9123 89.9727 61.9092 89.8708C61.803 89.7308 61.6901 89.5982 61.5716 89.4718C61.5538 89.1145 61.4513 88.7873 61.2646 88.4896C61.073 87.791 60.8684 87.0955 60.6508 86.4024C60.544 86.3275 60.4826 86.2256 60.4666 86.0955C60.3721 85.6142 60.2493 85.144 60.0983 84.6836C60.0133 84.6191 59.9519 84.5375 59.9141 84.438C59.8798 84.2115 59.8389 83.9868 59.7913 83.7627C59.6259 83.5718 59.5441 83.3465 59.5458 83.0875C59.3658 82.7885 59.2635 82.4607 59.2389 82.1053C59.1979 82.0642 59.157 82.0236 59.1161 81.9825C58.912 81.4718 58.7688 80.9395 58.6864 80.3864C58.6013 80.322 58.54 80.2403 58.5022 80.1409C58.3467 79.705 58.2239 79.2551 58.1339 78.7904C57.9627 78.5792 57.8808 78.3336 57.8883 78.0537C57.7246 77.6424 57.5609 77.233 57.3972 76.826C57.3768 76.6621 57.3563 76.4988 57.3358 76.3349C57.2929 76.241 57.2213 76.1796 57.121 76.1507C56.9207 76.6799 56.7263 77.2121 56.5378 77.7468C56.5199 78.1041 56.4176 78.4313 56.2309 78.729C56.0358 79.201 55.8926 79.6921 55.8012 80.2023C55.6935 80.4939 55.5707 80.7805 55.4328 81.0617C55.3985 81.2882 55.3576 81.5129 55.3101 81.737C55.1668 82.0642 55.0236 82.392 54.8804 82.7192C54.8526 82.9266 54.8117 83.1311 54.7576 83.333C54.0705 85.3054 53.4157 87.2901 52.7932 89.2876C52.6909 89.4718 52.5886 89.6559 52.4862 89.8401C52.4207 89.8824 52.3491 89.9131 52.2714 89.9322C49.3248 89.9733 46.3782 89.9733 43.4316 89.9322C43.3345 89.8039 43.2117 89.7118 43.0633 89.6559C43.024 89.4245 42.9319 89.2201 42.787 89.0421C42.729 88.8204 42.6881 88.5952 42.6643 88.3668C42.6029 88.3054 42.5415 88.244 42.4801 88.1826C42.2814 87.7775 42.1484 87.3478 42.0811 86.8935C42.0013 86.8573 41.9502 86.7959 41.9276 86.7093C41.7154 86.0488 41.4904 85.3938 41.2524 84.7449C41.0958 84.5295 41.0139 84.2839 41.0068 84.0083C40.8252 83.8487 40.7433 83.6443 40.7613 83.3944C40.5746 83.1409 40.4621 82.8548 40.4236 82.535C40.3439 82.4988 40.2928 82.4374 40.2702 82.3508C40.263 82.0752 40.1812 81.8297 40.0246 81.6142C39.8317 81.2066 39.6885 80.7769 39.5949 80.3251C39.461 80.0169 39.3178 79.7099 39.1652 79.4042C39.1667 79.0801 39.0643 78.7934 38.8583 78.5448C38.8378 78.422 38.8173 78.2993 38.7969 78.1765C38.7118 78.112 38.6505 78.0304 38.6127 77.9309C38.585 77.7235 38.5441 77.519 38.4899 77.3171C38.354 77.0304 38.2108 76.7437 38.0602 76.4576C37.9369 76.0482 37.8141 75.6387 37.6919 75.2299C37.5154 75.0433 37.4336 74.818 37.4463 74.5546C37.4086 74.4552 37.3472 74.3735 37.2622 74.3091C37.0307 73.6387 36.8056 72.9635 36.5869 72.2833C36.5255 72.2017 36.4641 72.1194 36.4028 72.0378C36.2794 71.6283 36.1567 71.2189 36.0344 70.81C35.9494 70.7456 35.888 70.6639 35.8503 70.5645C35.6935 70.1679 35.5707 69.7591 35.482 69.3367C35.3969 69.2723 35.3355 69.1906 35.2978 69.0912C35.2676 68.7959 35.1653 68.5301 34.9909 68.2931C34.9704 68.1501 34.9499 68.0065 34.9295 67.8634C34.7788 67.5804 34.6355 67.2944 34.4998 67.004C34.4562 66.6682 34.3641 66.3514 34.2235 66.0525C34.2536 65.8689 34.3559 65.7566 34.5304 65.7149Z" fill="#BDBDBD"/>
<path opacity="0.92" fill-rule="evenodd" clip-rule="evenodd" d="M81.4303 65.7149C85.3794 65.7044 89.329 65.7149 93.2781 65.7456C93.3395 65.7762 93.4009 65.8069 93.4622 65.8376C93.5206 65.9874 93.6126 66.1102 93.7385 66.206C93.7796 66.4104 93.8201 66.6154 93.8613 66.8198C94.0043 67.1041 94.1473 67.3907 94.291 67.6793C94.3321 67.8837 94.3726 68.0887 94.4138 68.2931C94.485 68.3238 94.5359 68.3748 94.5672 68.4466C94.5912 68.7099 94.6832 68.9457 94.8435 69.1526C95.0681 69.8254 95.2934 70.5006 95.5187 71.1783C95.6949 71.365 95.7772 71.5902 95.7643 71.8536C95.9257 72.1347 96.0694 72.4214 96.194 72.713C96.2548 72.8923 96.2953 73.0764 96.3168 73.2655C96.4948 73.4975 96.5973 73.764 96.6237 74.0635C96.6648 74.1047 96.7053 74.1452 96.7465 74.1863C97.0012 74.8966 97.2468 75.613 97.4831 76.3349C97.6169 76.643 97.76 76.95 97.9128 77.2557C97.9343 77.4448 97.9748 77.6289 98.0356 77.8082C98.1608 78.1028 98.3039 78.3889 98.4653 78.6676C98.4837 78.8769 98.5243 79.082 98.5881 79.2815C98.7311 79.5657 98.8742 79.8524 99.0178 80.1409C99.2333 80.8168 99.458 81.492 99.6931 82.1667C99.8158 82.4122 99.9386 82.6578 100.061 82.9033C100.122 83.0826 100.163 83.2667 100.184 83.4558C100.38 83.7044 100.482 83.9911 100.491 84.3152C100.621 84.4306 100.702 84.5737 100.737 84.7449C100.741 80.2815 100.71 75.7898 100.645 71.2704C100.673 71.1384 100.693 71.0058 100.706 70.8714C100.53 69.2391 100.479 67.6019 100.552 65.9604C100.603 65.9095 100.655 65.8579 100.706 65.8069C106.983 65.705 113.265 65.6842 119.552 65.7456C120.049 65.8953 120.56 65.9972 121.087 66.0525C122.188 66.4503 123.191 67.0126 124.095 67.7406C124.342 68.0592 124.618 68.3459 124.923 68.6001C125.357 69.1667 125.746 69.7603 126.09 70.3803C126.281 70.7228 126.403 71.0912 126.458 71.4853C126.499 71.5264 126.54 71.5669 126.581 71.608C126.631 71.9942 126.734 72.3625 126.888 72.713C126.942 73.5031 127.014 74.2913 127.103 75.0764C127.023 75.926 126.931 76.7756 126.826 77.624C126.691 78.144 126.527 78.6559 126.335 79.1587C126.158 79.5344 125.963 79.9027 125.752 80.2637C125.504 80.6437 125.238 81.012 124.954 81.3686C124.802 81.4362 124.7 81.5491 124.647 81.7063C124.589 81.7357 124.527 81.7462 124.463 81.737C124.472 81.8014 124.462 81.8628 124.432 81.9211C124.06 82.2287 123.681 82.5258 123.297 82.8112C123.217 82.8413 123.135 82.8518 123.051 82.8419C123.064 82.9426 123.044 83.0347 122.99 83.1182C123.352 83.7339 123.721 84.3379 124.095 84.9291C124.343 85.4165 124.619 85.8867 124.923 86.341C124.983 86.457 125.024 86.5798 125.046 86.7093C125.227 86.8174 125.329 86.9813 125.353 87.2004C125.84 87.8665 126.269 88.562 126.642 89.2876C126.683 89.4718 126.683 89.6559 126.642 89.8401C126.596 89.8788 126.545 89.9095 126.489 89.9322C123.603 89.9733 120.718 89.9733 117.833 89.9322C117.523 89.7652 117.329 89.5098 117.25 89.1648C117.086 89.0427 116.994 88.8788 116.974 88.6737C116.928 88.6252 116.877 88.5847 116.82 88.551C116.487 87.9432 116.171 87.3293 115.869 86.7093C115.808 86.6799 115.758 86.6394 115.715 86.5866C115.565 86.3336 115.442 86.0678 115.347 85.7885C115.285 85.7271 115.224 85.6658 115.163 85.6044C114.99 85.3379 114.856 85.0519 114.764 84.7449C114.624 84.5866 114.502 84.4122 114.395 84.2231C112.519 84.2127 110.646 84.182 108.778 84.1311C108.713 84.2195 108.683 84.322 108.686 84.438C108.729 86.0942 108.74 87.8131 108.717 89.5945C108.675 89.7517 108.583 89.864 108.441 89.9322C103.694 89.9733 98.946 89.9733 94.1989 89.9322C94.0688 89.8634 93.9558 89.7713 93.8613 89.6559C93.8293 89.4491 93.7477 89.2649 93.6157 89.1034C93.5709 88.8972 93.52 88.6921 93.4622 88.4896C93.081 87.5239 92.7127 86.5522 92.3573 85.5737C90.6949 85.5025 89.027 85.4718 87.3542 85.4816C85.7274 85.492 84.1007 85.5018 82.4739 85.5123C82.2879 85.8855 82.1142 86.2637 81.9521 86.6479C81.8803 87.0562 81.7575 87.4454 81.5838 87.8143C81.4076 88.0009 81.3254 88.2262 81.3382 88.4896C81.1878 88.7351 81.0859 89.0009 81.0313 89.2876C80.9153 89.5295 80.7618 89.7443 80.5709 89.9322C77.8699 89.9733 75.1688 89.9733 72.4678 89.9322C72.2204 89.5884 72.2308 89.2508 72.4985 88.9193C72.5255 88.6547 72.628 88.43 72.8054 88.244C72.7858 87.8929 72.8883 87.5859 73.1123 87.3232C73.1123 87.0973 73.194 86.9131 73.3579 86.7707C73.3573 86.4245 73.4592 86.1176 73.6648 85.8499C73.6851 85.7271 73.706 85.6044 73.7262 85.4816C73.8999 85.3214 73.9822 85.1169 73.9718 84.8677C74.1664 84.5712 74.2891 84.244 74.3401 83.8855C74.3812 83.8444 74.4217 83.8039 74.4629 83.7627C74.496 83.5767 74.5371 83.3926 74.5856 83.2103C74.7213 82.923 74.8649 82.6363 75.0153 82.3508C75.0135 82.0918 75.0952 81.8665 75.2609 81.6756C75.3094 81.4933 75.3505 81.3091 75.3837 81.1231C75.4217 81.0236 75.4831 80.942 75.5678 80.8775C75.6906 80.4681 75.8134 80.0592 75.9362 79.6498C76.0866 79.3668 76.2302 79.0807 76.3659 78.7904C76.407 78.5859 76.4475 78.3809 76.4886 78.1765C76.639 77.8935 76.7827 77.6074 76.9184 77.3171C76.9926 76.9052 77.1154 76.5166 77.2867 76.1507C77.4825 75.9021 77.5844 75.6154 77.5936 75.2913C77.6317 75.1918 77.6931 75.1102 77.7778 75.0457C77.9012 74.6363 78.0239 74.2268 78.1461 73.818C78.3241 73.5859 78.4266 73.3195 78.453 73.02C78.5887 72.7296 78.7324 72.4435 78.8828 72.1605C78.8901 71.8849 78.9718 71.6394 79.1283 71.4239C79.361 70.7726 79.5863 70.1176 79.8036 69.4595C79.9705 69.2231 80.0731 68.9567 80.1105 68.6615C80.2443 68.3502 80.388 68.0433 80.5402 67.7406C80.5734 67.5546 80.6145 67.3705 80.663 67.1882C80.7937 66.899 80.9374 66.613 81.0927 66.3287C81.1179 66.1611 81.159 65.9972 81.2155 65.8376C81.2953 65.802 81.3671 65.7609 81.4303 65.7149ZM87.3849 72.5902C87.8275 73.7099 88.2572 74.8456 88.674 75.9972C88.8269 76.2274 88.919 76.4828 88.9503 76.7646C89.2216 77.2213 89.4058 77.7124 89.5028 78.2379C89.6292 78.5037 89.7624 78.7695 89.9018 79.0359C88.2449 79.0973 86.5875 79.1176 84.9294 79.0973C84.9196 78.9727 84.9294 78.8499 84.9601 78.729C85.1326 78.3871 85.2965 78.039 85.4512 77.6854C85.4604 77.3613 85.5623 77.0746 85.7581 76.826C85.9319 76.457 86.0546 76.0685 86.1265 75.6596C86.2695 75.3551 86.4131 75.0482 86.5562 74.7388C86.5752 74.4368 86.6771 74.1704 86.8631 73.9408C87.0012 73.5608 87.124 73.1722 87.2314 72.7744C87.2953 72.721 87.3468 72.6596 87.3849 72.5902ZM108.564 72.8972C111.613 72.8867 114.661 72.8972 117.71 72.9279C117.904 73.0936 118.128 73.1753 118.386 73.1734C118.621 73.3269 118.815 73.5215 118.969 73.7566C118.997 74.039 119.079 74.3048 119.214 74.5546C119.255 74.8413 119.255 75.1274 119.214 75.4141C119.079 75.6658 118.987 75.9316 118.938 76.2121C118.78 76.4141 118.595 76.5878 118.386 76.7339C118.135 76.7762 117.89 76.8376 117.649 76.9181C114.663 77.0083 111.676 77.039 108.686 77.0101C108.586 75.6424 108.546 74.271 108.564 72.8972Z" fill="#BDBDBD"/>
<path opacity="0.917" fill-rule="evenodd" clip-rule="evenodd" d="M127.839 65.7149C133.712 65.7044 139.584 65.7149 145.457 65.7456C145.981 65.8843 146.513 65.9868 147.053 66.0525C148.589 66.4933 149.96 67.2397 151.166 68.2931C151.764 68.8204 152.265 69.4343 152.67 70.1347C152.732 70.1759 152.793 70.2164 152.855 70.2575C153.269 70.969 153.638 71.7057 153.959 72.4675C153.984 72.8229 154.087 73.1507 154.266 73.4497C154.271 73.7971 154.354 74.1249 154.512 74.4319C154.564 75.1961 154.666 75.953 154.819 76.7032C154.86 77.5424 154.86 78.3809 154.819 79.2201C154.662 79.9481 154.559 80.6848 154.512 81.43C154.346 82.0691 154.162 82.7038 153.959 83.333C153.748 83.729 153.564 84.1384 153.407 84.5608C152.93 85.3607 152.398 86.1182 151.811 86.8321C151.743 86.9266 151.651 86.9672 151.535 86.9549C151.544 87.0193 151.533 87.0807 151.504 87.139C151.151 87.3809 150.834 87.6572 150.552 87.9678C150.43 88.0187 150.307 88.0703 150.184 88.1212C150.026 88.2385 149.882 88.3717 149.754 88.5203C149.619 88.5841 149.475 88.6252 149.325 88.643C149.291 88.6995 149.25 88.7511 149.202 88.7965C148.948 88.8567 148.723 88.9696 148.527 89.1341C148.384 89.1544 148.24 89.1753 148.097 89.1955C148.056 89.2772 147.994 89.3386 147.913 89.3797C147.609 89.4042 147.323 89.4865 147.053 89.6252C146.627 89.6971 146.198 89.7382 145.764 89.748C145.642 89.8554 145.499 89.9168 145.335 89.9322C139.539 89.9929 133.748 89.9727 127.962 89.8708C127.887 89.7695 127.836 89.6572 127.808 89.5332C127.729 82.422 127.637 75.3115 127.532 68.201C127.543 67.4748 127.552 66.748 127.563 66.0218C127.608 65.8702 127.7 65.7677 127.839 65.7149ZM135.451 72.8972C137.948 72.8867 140.444 72.8972 142.94 72.9279C143.376 73.0887 143.826 73.1704 144.291 73.1734C144.691 73.3514 145.079 73.546 145.457 73.7566C145.504 73.826 145.545 73.8972 145.58 73.9715C145.727 74.0906 145.881 74.2029 146.041 74.3091C146.214 74.5902 146.378 74.8763 146.532 75.1685C146.576 75.4975 146.678 75.8045 146.839 76.0893C146.96 77.2968 146.96 78.5037 146.839 79.7112C146.683 79.9764 146.581 80.2624 146.532 80.5706C146.384 80.845 146.22 81.1108 146.041 81.3686C145.97 81.4448 145.888 81.5061 145.795 81.5528C145.765 81.6111 145.755 81.6725 145.764 81.737C145.604 81.7235 145.502 81.7947 145.457 81.9518C145.252 81.9929 145.088 82.0948 144.966 82.2588C144.751 82.2661 144.567 82.3379 144.414 82.4736C143.882 82.5657 143.35 82.6578 142.818 82.7499C140.403 82.8008 137.988 82.791 135.574 82.7192C135.533 79.4454 135.492 76.171 135.451 72.8972Z" fill="#BDBDBD"/>
</svg>
