<svg width="97" height="100" viewBox="0 0 97 100" fill="none" xmlns="http://www.w3.org/2000/svg">
<g clip-path="url(#clip0_143_1749)">
<path d="M72.2431 60.6877L81.0475 51.888L76.632 64.9922L72.2165 69.2991L72.2431 60.6877ZM88.4766 26.3144L84.8284 38.7043L62.8547 60.1858V51.9146L88.4766 26.3144ZM96.2508 0L92.6026 12.3899L53.4423 50.9905V42.7748L96.2508 0ZM15.3653 51.9146L63.5158 100H55.2929L48.3922 93.1572L41.4891 100H32.8439L44.0032 88.8503L39.0569 83.9619L30.0932 92.8146L27.8203 86.949L34.9334 79.8938L29.7241 74.7424L24.937 79.4716L22.6641 73.5529L25.545 70.6744L19.8869 65.1249L15.3653 51.9146ZM0.0292969 0L73.7752 73.606L71.5023 79.4716L66.8214 74.8486L63.014 78.6006V71.1232L57.5151 65.6798L53.4953 69.5379V61.7179L48.1002 56.3807L43.9236 60.5019V52.2862L3.67751 12.3899L0.0292969 0ZM7.9627 26.7101L68.3825 87.212L66.1072 93.0776L57.409 84.2804L53.5484 88.0323V80.4753L48.0472 75.032L43.9236 79.0493V71.017L38.6347 65.8125L34.5087 69.8806V61.7179L11.6109 39.1024L7.9627 26.7101Z" fill="#BDBDBD"/>
</g>
<defs>
<clipPath id="clip0_143_1749">
<rect width="96.28" height="100" fill="white"/>
</clipPath>
</defs>
</svg>
