<svg width="230" height="100" viewBox="0 0 230 100" fill="none" xmlns="http://www.w3.org/2000/svg">
<path d="M81.4153 97.6564H70.7911V85.0636C70.7911 82.2046 68.4631 79.8921 65.6196 79.8921H63.2917V76.08C63.2917 73.7521 61.4013 71.8617 59.0733 71.8617H58.5421L61.8231 46.9886C61.9013 46.348 61.4637 45.7545 60.8076 45.6763C60.167 45.5825 59.5889 46.0356 59.4951 46.6762L56.1829 71.8617H25.3885L18.6704 24.4435C17.8267 19.9128 20.3421 15.4599 24.6543 13.8351L53.9956 2.83596C56.5735 1.88293 59.3701 2.35172 61.4794 4.08594C63.6042 5.82016 64.6198 8.47611 64.1666 11.2103L60.9638 35.5521C60.8857 36.1926 61.3387 36.7865 61.9794 36.8645C62.6199 36.9738 63.198 36.5052 63.2917 35.8489L66.4946 11.554C67.0571 8.00753 65.7446 4.53892 62.9637 2.27356C60.1982 -0.00744382 56.5267 -0.6168 53.1832 0.648627L23.8418 11.6478C18.4673 13.6633 15.3113 19.2254 16.3581 24.8185L23.0294 71.9086C20.9358 72.1428 19.2954 73.9239 19.2954 76.08V79.8921H16.9831C14.1239 79.8921 11.796 82.2046 11.796 85.0636V97.6564H1.17178C0.531253 97.6564 0 98.172 0 98.8282C0 99.4687 0.531253 100 1.17178 100H81.4153C82.0714 100 82.5871 99.4687 82.5871 98.8282C82.5871 98.172 82.0714 97.6564 81.4153 97.6564ZM21.6389 76.08C21.6389 75.049 22.4825 74.2052 23.5138 74.2052H59.0733C60.1045 74.2052 60.9481 75.049 60.9481 76.08V79.8921H21.6389V76.08ZM68.4475 97.6096H14.1395V85.0636C14.1395 83.5013 15.4207 82.2357 16.9831 82.2357H65.6196C67.182 82.2357 68.4475 83.5013 68.4475 85.0636L68.4475 97.6096Z" fill="#BDBDBD"/>
<path d="M55.0495 25.5102C54.9114 25.0861 54.5444 24.7779 54.1027 24.7138L46.0559 23.5481L42.4437 16.2276C42.05 15.4281 40.7364 15.4281 40.3427 16.2276L36.7305 23.5481L28.6837 24.7138C28.242 24.7779 27.875 25.0861 27.7369 25.5102C27.5989 25.9344 27.714 26.4013 28.0337 26.7125L33.8636 32.3975L32.4866 40.4291C32.4111 40.8685 32.5919 41.314 32.9527 41.5749C33.3143 41.8404 33.7927 41.8724 34.1871 41.6649L41.3932 37.8765L48.5993 41.6649C48.771 41.755 48.9579 41.7992 49.1448 41.7992C49.3874 41.7992 49.6292 41.7245 49.8337 41.5749C50.1945 41.314 50.3753 40.8685 50.2998 40.4291L48.9228 32.3975L54.7527 26.7126C55.0723 26.4013 55.1875 25.9344 55.0495 25.5102ZM46.8463 31.1494C46.5701 31.4195 46.4442 31.807 46.5091 32.187L47.5885 38.4853L41.9387 35.5146C41.7678 35.4246 41.5809 35.3803 41.3932 35.3803C41.2055 35.3803 41.0186 35.4246 40.8478 35.5146L35.1979 38.4853L36.2774 32.187C36.3422 31.807 36.2163 31.4195 35.9402 31.1494L31.3698 26.6927L37.6765 25.7788C38.0587 25.7239 38.389 25.4843 38.5591 25.138L41.3932 19.395L44.2273 25.138C44.3974 25.4843 44.7277 25.7239 45.1099 25.7788L51.4166 26.6927L46.8463 31.1494Z" fill="#BDBDBD"/>
<path d="M54.6741 52.1542C54.6741 51.5073 54.1493 50.9824 53.5023 50.9824H29.0895C28.4426 50.9824 27.9177 51.5073 27.9177 52.1542C27.9177 52.8011 28.4426 53.326 29.0895 53.326H53.5023C54.1493 53.326 54.6741 52.8011 54.6741 52.1542Z" fill="#BDBDBD"/>
<path d="M53.4696 59.1151C53.4696 58.4682 52.9447 57.9434 52.2978 57.9434H30.2934C29.6464 57.9434 29.1216 58.4682 29.1216 59.1151C29.1216 59.7621 29.6464 60.2869 30.2934 60.2869H52.2978C52.9447 60.2869 53.4696 59.7621 53.4696 59.1151Z" fill="#BDBDBD"/>
<path d="M51.3099 64.8018H31.2813C30.6344 64.8018 30.1095 65.3266 30.1095 65.9735C30.1095 66.6205 30.6344 67.1453 31.2813 67.1453H51.3099C51.9568 67.1453 52.4816 66.6205 52.4816 65.9735C52.4816 65.3266 51.9568 64.8018 51.3099 64.8018Z" fill="#BDBDBD"/>
<path d="M98.6872 28H94.1472V13.64H98.6872C103.267 13.64 105.907 16.56 105.907 20.76C105.907 24.9 103.167 28 98.6872 28ZM96.3472 15.54V26.1H98.5872C101.887 26.1 103.667 24.06 103.667 20.76C103.667 17.52 101.907 15.54 98.5872 15.54H96.3472ZM114.67 23.64V17.4H116.69V28H114.81V26.32C114.25 27.42 113.01 28.2 111.57 28.2C109.43 28.2 107.95 26.94 107.95 24.22V17.4H109.97V23.82C109.97 25.66 110.89 26.42 112.21 26.42C113.57 26.42 114.67 25.3 114.67 23.64ZM129.615 22.7C129.615 25.88 127.775 28.2 124.915 28.2C123.415 28.2 122.135 27.44 121.375 26.1V28H119.495V13.64H121.515V19.22C122.255 17.92 123.475 17.2 124.915 17.2C127.755 17.2 129.615 19.48 129.615 22.7ZM127.515 22.7C127.515 20.3 126.255 18.98 124.515 18.98C122.835 18.98 121.515 20.28 121.515 22.66C121.515 25 122.795 26.4 124.515 26.4C126.255 26.4 127.515 25.06 127.515 22.7ZM138.083 28V26.36C137.423 27.54 136.243 28.2 134.683 28.2C132.483 28.2 131.043 26.94 131.043 25C131.043 22.92 132.703 21.84 135.863 21.84C136.483 21.84 136.983 21.86 137.843 21.96V21.18C137.843 19.66 137.023 18.8 135.623 18.8C134.143 18.8 133.243 19.68 133.183 21.16H131.343C131.443 18.78 133.143 17.2 135.623 17.2C138.243 17.2 139.763 18.68 139.763 21.2V28H138.083ZM132.963 24.94C132.963 26.04 133.783 26.76 135.083 26.76C136.783 26.76 137.843 25.7 137.843 24.08V23.22C137.063 23.12 136.503 23.1 135.983 23.1C133.963 23.1 132.963 23.7 132.963 24.94ZM144.924 14.94C144.924 15.7 144.324 16.28 143.464 16.28C142.604 16.28 141.984 15.7 141.984 14.94C141.984 14.16 142.604 13.6 143.464 13.6C144.324 13.6 144.924 14.16 144.924 14.94ZM144.484 28H142.464V17.4H144.484V28ZM104.027 58L102.727 54.44H96.5272L95.2072 58H92.9872L98.4872 43.64H100.907L106.367 58H104.027ZM99.6472 46.04L97.1872 52.66H102.067L99.6472 46.04ZM110.206 52.58V58H108.186V47.4H110.066V49.64C110.806 48.18 112.406 47.26 114.146 47.26V49.36C111.866 49.24 110.206 50.24 110.206 52.58ZM122.37 56.04V57.82C121.75 58.1 121.21 58.2 120.57 58.2C118.61 58.2 117.25 57.14 117.25 54.8V49.12H114.91V47.4H117.25V44.26H119.27V47.4H122.47V49.12H119.27V54.34C119.27 55.8 119.97 56.32 121.05 56.32C121.53 56.32 121.95 56.24 122.37 56.04ZM128.284 58.22C125.384 58.22 123.344 55.94 123.344 52.7C123.344 49.5 125.424 47.2 128.284 47.2C130.904 47.2 132.804 48.94 133.184 51.7H131.064C130.844 50 129.784 48.98 128.304 48.98C126.564 48.98 125.424 50.46 125.424 52.7C125.424 54.96 126.564 56.42 128.304 56.42C129.804 56.42 130.844 55.42 131.084 53.7H133.184C132.824 56.5 130.944 58.22 128.284 58.22ZM137.238 52.02V58H135.218V43.64H137.238V49.1C137.938 47.96 139.018 47.2 140.478 47.2C142.658 47.2 144.098 48.6 144.098 51.14V58H142.078V51.82C142.078 50 141.278 48.98 139.778 48.98C138.398 48.98 137.238 50.14 137.238 52.02ZM149.24 44.94C149.24 45.7 148.64 46.28 147.78 46.28C146.92 46.28 146.3 45.7 146.3 44.94C146.3 44.16 146.92 43.6 147.78 43.6C148.64 43.6 149.24 44.16 149.24 44.94ZM148.8 58H146.78V47.4H148.8V58ZM157.584 56.04V57.82C156.964 58.1 156.424 58.2 155.784 58.2C153.824 58.2 152.464 57.14 152.464 54.8V49.12H150.124V47.4H152.464V44.26H154.484V47.4H157.684V49.12H154.484V54.34C154.484 55.8 155.184 56.32 156.264 56.32C156.744 56.32 157.164 56.24 157.584 56.04ZM163.679 58.2C160.619 58.2 158.559 55.98 158.559 52.64C158.559 49.5 160.699 47.2 163.619 47.2C166.779 47.2 168.879 49.76 168.519 53.2H160.619C160.779 55.36 161.859 56.62 163.639 56.62C165.139 56.62 166.179 55.8 166.519 54.42H168.519C167.999 56.78 166.179 58.2 163.679 58.2ZM163.579 48.72C161.959 48.72 160.859 49.88 160.639 51.86H166.379C166.279 49.9 165.219 48.72 163.579 48.72ZM174.652 58.22C171.752 58.22 169.712 55.94 169.712 52.7C169.712 49.5 171.792 47.2 174.652 47.2C177.272 47.2 179.172 48.94 179.552 51.7H177.432C177.212 50 176.152 48.98 174.672 48.98C172.932 48.98 171.792 50.46 171.792 52.7C171.792 54.96 172.932 56.42 174.672 56.42C176.172 56.42 177.212 55.42 177.452 53.7H179.552C179.192 56.5 177.312 58.22 174.652 58.22ZM187.565 56.04V57.82C186.945 58.1 186.405 58.2 185.765 58.2C183.805 58.2 182.445 57.14 182.445 54.8V49.12H180.105V47.4H182.445V44.26H184.465V47.4H187.665V49.12H184.465V54.34C184.465 55.8 185.165 56.32 186.245 56.32C186.725 56.32 187.145 56.24 187.565 56.04ZM104.027 88L102.727 84.44H96.5272L95.2072 88H92.9872L98.4872 73.64H100.907L106.367 88H104.027ZM99.6472 76.04L97.1872 82.66H102.067L99.6472 76.04ZM116.556 88L114.156 80.12L111.736 88H109.696L106.636 77.4H108.616L110.756 85.12L113.156 77.4H115.156L117.516 85.14L119.656 77.4H121.656L118.576 88H116.556ZM129.392 88V86.36C128.732 87.54 127.552 88.2 125.992 88.2C123.792 88.2 122.352 86.94 122.352 85C122.352 82.92 124.012 81.84 127.172 81.84C127.792 81.84 128.292 81.86 129.152 81.96V81.18C129.152 79.66 128.332 78.8 126.932 78.8C125.452 78.8 124.552 79.68 124.492 81.16H122.652C122.752 78.78 124.452 77.2 126.932 77.2C129.552 77.2 131.072 78.68 131.072 81.2V88H129.392ZM124.272 84.94C124.272 86.04 125.092 86.76 126.392 86.76C128.092 86.76 129.152 85.7 129.152 84.08V83.22C128.372 83.12 127.812 83.1 127.292 83.1C125.272 83.1 124.272 83.7 124.272 84.94ZM135.792 82.58V88H133.772V77.4H135.652V79.64C136.392 78.18 137.992 77.26 139.732 77.26V79.36C137.452 79.24 135.792 80.24 135.792 82.58ZM140.532 82.7C140.532 79.48 142.372 77.2 145.232 77.2C146.652 77.2 147.892 77.92 148.632 79.22V73.64H150.652V88H148.772V86.1C148.012 87.44 146.732 88.2 145.232 88.2C142.372 88.2 140.532 85.88 140.532 82.7ZM142.632 82.7C142.632 85.06 143.872 86.4 145.632 86.4C147.352 86.4 148.632 85 148.632 82.66C148.632 80.28 147.312 78.98 145.632 78.98C143.872 78.98 142.632 80.3 142.632 82.7ZM166.02 86.2V88H157.28V86.84L161.5 82.28C163.1 80.54 163.72 79.6 163.72 78.38C163.72 77.04 162.78 76.1 161.4 76.1C159.9 76.1 158.9 77.08 158.9 78.58H156.92C156.92 76.08 158.8 74.28 161.48 74.28C164 74.28 165.84 75.92 165.84 78.14C165.84 79.68 165.26 80.76 163.04 83.12L160.32 86.2H166.02ZM167.884 81.26C167.884 76.78 169.664 74.28 172.864 74.28C176.064 74.28 177.864 76.78 177.864 81.26C177.864 85.74 176.104 88.2 172.864 88.2C169.624 88.2 167.884 85.74 167.884 81.26ZM169.964 81.26C169.964 84.6 170.964 86.38 172.864 86.38C174.764 86.38 175.784 84.62 175.784 81.26C175.784 77.88 174.764 76.1 172.864 76.1C171.004 76.1 169.964 77.88 169.964 81.26ZM188.617 86.2V88H179.877V86.84L184.097 82.28C185.697 80.54 186.317 79.6 186.317 78.38C186.317 77.04 185.377 76.1 183.997 76.1C182.497 76.1 181.497 77.08 181.497 78.58H179.517C179.517 76.08 181.397 74.28 184.077 74.28C186.597 74.28 188.437 75.92 188.437 78.14C188.437 79.68 187.857 80.76 185.637 83.12L182.917 86.2H188.617ZM199.97 85.02H198.13V88H196.11V85.02H189.61V83.6L196.57 74.48H198.13V83.26H199.97V85.02ZM191.87 83.26H196.11V77.54L191.87 83.26Z" fill="#BDBDBD"/>
</svg>
