<svg width="146" height="100" viewBox="0 0 146 100" fill="none" xmlns="http://www.w3.org/2000/svg">
<path fill-rule="evenodd" clip-rule="evenodd" d="M14.0372 62.0813C14.542 64.5895 16.4459 66.1973 18.9009 64.9698C21.3541 63.744 22.2443 62.7414 23.9456 60.5688C25.6444 58.3979 27.8401 48.0818 28.3757 46.2784C28.9097 44.4723 29.4213 42.9118 29.7217 42.9118C31.3106 43.5968 32.0196 47.2097 32.5595 49.9377C32.981 52.0819 35.6935 67.3466 36.2927 70.2772C37.1871 73.4978 38.212 75.3305 39.1305 76.7151C40.049 78.1014 40.94 78.6885 41.6207 79.2533C42.2988 79.813 43.3615 80.2791 44.3461 80.5512C44.5873 80.6182 46.1015 81.3023 47.4689 80.7624C35.5201 86.3239 27.4813 88.4209 13.7394 90.1763C10.1556 90.76 2.98805 89.5943 0 87.8355C1.49445 89.5943 5.97438 90.1763 9.26201 90.7592C16.73 91.0527 24.0203 90.4158 29.8702 88.7119C41.2215 85.7865 44.8336 84.1316 58.8425 79.3486C65.1431 77.1958 80.1494 72.2987 92.7051 68.7106C108.693 64.1423 125.155 63.18 125.155 63.18C125.453 74.1545 125.422 77.4172 123.016 83.6826C120.826 89.4218 117.411 93.6459 111.292 97.4752C108.45 99.0375 104.953 99.9079 101.893 98.6924C98.1782 97.125 95.5524 93.8202 95.7704 90.3446C96.4262 84.6028 99.8039 81.759 107.137 78.1649C105.211 79.1108 106.128 78.4713 104.951 79.0739C102.759 80.1873 99.2812 82.3126 97.7164 84.238C95.9713 86.6707 94.9128 89.2991 95.136 92.0845C95.3523 93.4777 96.2073 94.8657 97.0846 96.0829C98.3524 97.4323 99.2872 98.7199 102.129 99.5233C105.96 100.653 109.232 99.6813 112.512 97.5937C112.73 97.5937 113.166 97.3284 113.607 97.1542C117.178 96.2537 117.401 94.8391 120.896 92.7481C122.863 91.5326 126.078 86.3256 126.736 84.5882C128.048 80.4104 128.996 79.2533 129.651 75.0807C130.089 72.6463 130.362 70.4703 130.588 67.3466C130.893 65.7569 130.752 64.6796 130.828 63.1422C134.63 63.0281 137.083 62.9697 140.243 63.8075C142.483 64.5388 143.905 64.8874 145.994 66.205C139.995 61.9027 136.575 61.968 131.133 61.568L131.429 44.2045C131.429 39.825 131.154 32.248 130.838 31.0609C130.632 30.278 130.357 29.6565 129.49 29.5175C128.238 29.3166 127.158 29.9398 126.421 30.7982C125.685 31.6591 123.651 39.6155 120.903 45.0251C119.526 47.6895 117.943 51.7214 115.627 52.3635C114.528 52.6716 113.525 53.4313 112.023 51.1652C110.524 48.8973 112.256 43.3719 113.094 39.3074C113.094 39.3074 114.645 33.4266 114.793 29.7887C114.944 26.1483 114.354 22.7293 114.354 22.7293L112.878 30.0411C112.397 31.9433 111.995 33.2875 109.936 41.8422L108.648 47.1754C108.65 47.1453 108.643 47.0466 108.391 48.5745C107.838 48.3788 106.541 48.2114 106.015 47.9205C106.414 45.4268 106.914 41.8894 106.766 39.0361C106.766 37.5743 106.086 36.5597 105.291 35.5296C104.499 34.4953 102.23 34.2051 100.737 35.3734C97.7507 38.0095 95.5833 41.2276 93.7927 45.6157C93.5815 38.3331 93.6905 36.5288 93.5695 34.2386C93.4441 31.9519 93.5429 29.9544 93.1772 26.8513C92.8098 23.7517 92.3205 22.4855 91.2673 19.6117C90.2158 16.7395 90.3265 17.6348 88.4912 14.5995C91.2321 19.2503 90.9205 26.8994 89.7067 34.9597C88.614 42.8628 88.5651 47.9368 88.9119 55.9326C86.8191 58.7155 84.7023 60.9971 83.9341 64.1294C83.468 66.1681 83.6336 66.4702 84.2345 67.6419C73.1827 71.1527 61.3585 74.7657 50.6063 79.4448C50.3058 79.4448 48.0672 80.7143 50.1831 79.3495C53.1703 75.5451 53.9282 69.9338 53.3505 66.9449C53.0089 65.1981 52.7686 63.6006 52.366 61.592C51.4733 57.4966 50.6895 54.136 50.0912 50.039C49.7814 48.4758 49.7814 48.3883 49.5839 46.8638C50.4792 51.4776 53.0587 57.5799 55.9738 57.737C57.1275 57.737 58.9026 57.2219 60.4486 55.973C61.6469 55.0039 61.8623 54.7893 63.1456 52.7909C64.4306 50.7926 67.2813 43.2045 68.5526 39.4731C68.9286 43.5083 69.4977 47.0071 69.6428 48.8638C69.787 50.7197 70.2145 52.7901 70.3535 54.2202C70.4977 55.6468 70.6445 56.0022 70.8548 57.6451C71.0128 58.8434 71.2943 60.2237 71.4462 61.4409C71.5965 62.6495 71.8471 64.3929 72.1475 64.6882C71.0454 66.1483 70.9449 66.09 69.9449 67.1681C68.9492 68.2445 68.5535 68.3012 66.8333 70.1287C66.8333 70.1287 71.1552 68.7089 73.6497 66.9269C76.139 65.1414 79.1065 61.792 81.3383 58.2408C81.5349 57.9327 81.9684 57.3035 82.1546 56.9833C82.4147 56.549 82.7461 56.0391 82.9933 55.5919C86.0225 50.002 87.8517 43.5161 87.8938 36.9108C87.9058 34.7802 88.117 33.6892 87.22 32.2274C86.3264 30.7638 83.9358 30.9098 82.7418 31.7879C78.2618 35.0077 77.2644 36.958 73.9278 47.2535C73.4666 42.8091 72.8536 38.3819 72.09 33.9794C71.7123 31.8025 72.3596 34.8463 71.4462 30.4935C70.526 26.1371 70.0436 13.1291 72.5106 4.42592C69.823 11.8158 70.1441 13.6673 69.6428 16.0957C69.3595 18.3061 69.1028 24.2761 68.9526 26.0324C68.6539 32.6909 68.4522 35.5682 68.4033 37.2026C67.7878 39.7967 66.5749 42.1615 65.786 44.0817C65.0006 45.9968 61.9319 51.6476 58.7198 51.5755C56.1086 51.5188 55.8253 50.5008 55.0802 48.6484C54.3308 46.7968 54.1428 45.8277 54.1858 44.2577C58.8047 37.5485 66.5766 29.0316 66.1809 24.9569C65.786 20.8778 64.2856 20.234 63.2177 19.8074C62.1456 19.3782 61.5318 19.3396 61.2434 19.3396C58.6451 19.3396 55.2278 22.6169 54.3609 25.0916C50.9659 31.1793 50.0329 38.8842 49.5127 42.6894L48.4637 24.065C48.5153 22.9113 48.3461 20.9405 48.4371 19.8134C49.1616 10.7188 51.4896 4.74438 59.6734 1.21126C63.5336 -0.363886 64.2263 0.643003 69.0101 1.21297C65.0435 -0.0394159 63.0117 -0.684067 58.458 1.09709C56.1832 1.98724 56.1257 2.22072 53.8699 4.31519C51.8509 6.43884 50.3745 8.31614 49.5178 10.1539C48.3934 12.8364 47.8045 14.9017 46.9041 18.7722C45.298 25.126 44.5074 31.448 44.8079 38.6687C45.4027 44.4199 45.6199 51.5626 45.7358 53.7944C45.8534 56.0262 46.0482 59.0323 46.2431 60.2074C46.4388 61.3843 46.783 63.4933 46.9178 65.0221C47.0526 66.544 47.486 69.0394 46.6912 72.424C46.3693 74.1373 44.5031 77.2387 42.6138 73.8841C39.3734 68.1149 36.4437 50.8115 34.9501 44.3745C34.6514 42.9109 34.2506 39.6173 33.5896 38.728C32.9278 37.8327 32.1123 37.6421 32.1123 37.6421C27.0341 37.6421 26.7354 56.961 22.8512 58.7147C21.6571 58.7147 21.0606 54.3257 21.0606 53.7386C20.5953 45.4371 20.5352 38.6533 22.6709 29.8565C23.0237 26.908 23.2228 25.7174 23.1353 23.501C23.0658 21.0074 22.8572 18.7172 21.7704 16.4708C19.0777 12.2415 14.6819 13.3798 12.2054 14.8742C9.18905 16.6957 7.54867 18.2082 6.0628 22.0323C5.83618 22.9216 5.70742 23.6169 5.74519 24.7234C5.76408 25.3517 5.83618 26.168 6.09112 27.0196C6.34435 27.8728 6.84994 28.7398 7.5212 29.1329C8.19503 29.5226 9.80279 29.8952 11.299 29.1063C12.3333 28.5835 12.7376 28.1801 12.5702 27.0685C12.4861 28.1749 12.0054 28.3801 11.5857 28.5586C9.0208 29.6668 7.78472 28.7887 7.38901 28.302C5.83618 26.4015 6.12975 23.2143 7.11518 21.3001C8.58217 18.2966 13.4269 14.3566 16.609 15.2785C17.3566 15.3017 19.9069 16.3472 20.3996 19.8906C20.9258 22.9499 19.6871 27.1414 19.215 30.1716C18.1987 36.394 14.8905 42.6414 14.1754 49.3299C13.4518 56.0142 13.5334 59.5731 14.0372 62.0813ZM73.4806 56.8116C74.8712 44.765 78.2507 37.2842 80.449 36.8601C82.6456 36.4404 82.8448 38.1752 83.0662 39.6653C83.2911 41.1572 82.9958 43.6285 82.8551 45.3273C82.7143 47.0303 82.6877 47.7505 82.4345 49.6896C82.183 51.6347 81.9066 52.3669 81.3211 53.7403C79.8275 57.2528 76.7657 61.4203 73.9278 63.6187C73.3321 62.4487 73.4806 57.9876 73.4806 56.8116ZM55.9729 25.259C59.5043 22.5928 60.4374 27.3002 60.6443 28.6591C60.852 30.0179 60.3026 31.1699 60.3026 31.5218C60.0177 32.2291 58.5524 35.5931 58.1378 36.1992C56.6931 38.3185 54.5532 41.2928 53.5403 42.4396C52.8261 40.1701 52.1986 37.0739 52.4879 35.6601C52.2707 33.8043 54.0115 26.7346 55.9729 25.259ZM89.8587 65.5741C89.5617 66.0702 88.6852 66.0402 88.1367 66.0891C86.9384 65.5002 86.7067 64.2161 86.8474 62.8581C86.9831 61.5525 87.5685 59.7396 89.2114 57.6443C89.5084 57.9378 89.8535 61.4538 89.9076 61.7431C90.2329 63.4968 90.1539 65.0822 89.8587 65.5741ZM93.6914 49.7892C94.8854 46.8638 96.1876 42.2963 98.8417 41.5598C101.496 40.8242 101.684 45.2208 101.224 48.3754C99.3172 48.6037 98.8082 48.8226 97.5138 49.4647C96.409 50.0123 94.3369 51.1574 93.4433 51.7377C92.1471 52.4227 93.6914 50.0844 93.6914 49.7892ZM93.3978 64.6015C93.3978 64.6015 92.4501 64.362 92.3197 64.0985C91.3737 62.1989 90.7068 56.3996 91.9978 54.864C93.8519 52.6596 97.0545 49.9351 101.165 49.4321C101.097 51.5609 100.205 53.8296 99.4872 55.8262C98.7696 57.8245 96.688 62.2607 93.3978 64.6015ZM126.053 42.6963L125.228 61.5002C116.568 61.2032 104.498 63.1568 96.4313 64.9157C99.7997 62.6375 101.932 59.792 102.804 58.3533C103.68 56.9146 103.877 56.0949 104.324 54.9987L104.583 54.3077C105.179 52.661 105.568 50.9465 105.741 49.2037C105.832 48.2818 107.579 48.972 108.315 49.0372C108.151 51.4089 108.972 57.0554 111.993 57.773C115.022 58.4872 117.759 56.7756 119.184 55.2665C120.605 53.7626 121.168 52.4519 121.168 52.4519C122.641 50.1548 123.77 47.7539 124.655 45.4594L126.053 42.6963Z" fill="#BDBDBD"/>
<path fill-rule="evenodd" clip-rule="evenodd" d="M118.246 92.8043C118.246 95.5837 115.613 96.6867 113.251 96.6867C111.59 96.6867 109.299 95.5099 109.299 93.5931C109.299 93.4506 109.404 93.2892 109.566 93.2892C109.839 93.2892 109.711 94.012 110.198 94.7682C110.651 95.4738 111.409 96.249 113.36 96.249C115.165 96.249 116.769 95.5665 116.769 93.5399C116.769 90.0626 109.798 91.3235 109.798 87.3698C109.798 85.041 110.809 83.5946 114.518 83.6264C115.114 83.6298 117.519 84.332 117.519 84.5483C117.519 84.689 117.427 84.7998 117.301 84.7998C116.905 84.7998 116.567 84.5199 115.936 84.3105C113.82 83.6195 111.649 84.1028 111.649 86.5672C111.649 89.6874 118.246 88.5072 118.246 92.8043ZM49.8226 83.6401V83.9826H51.2673L55.2545 96.6739H55.979L59.5275 84.7388L62.1679 96.6739H62.8881L67.2556 83.6693H64.7122V84.0144H66.4075L63.4238 93.0274L61.0649 83.6401H57.4253V83.9826H58.87L56.5129 93.0274L53.4356 83.6401H49.8226ZM39.9597 96.6739L44.3263 83.6401H44.7667L49.2887 96.6739H47.2337L45.7375 92.3382H42.1289L40.7125 96.6739H39.9597ZM42.4087 91.8841H45.4929L43.8868 87.2651L42.4087 91.8841ZM69.1329 96.6739L73.5012 83.6401H73.9399L78.4644 96.6739H76.4103L74.915 92.3382H71.3012L69.8909 96.6739H69.1329ZM71.581 91.8841H74.6729L73.0626 87.2651L71.581 91.8841ZM87.1299 83.6306C90.6621 83.6813 90.5917 86.4659 90.5917 86.4659C90.3222 89.7956 87.7634 89.514 87.7634 89.514C88.1659 89.514 91.0209 89.5827 91.1033 93.4644C91.1154 94.0884 91.0999 93.6489 91.1351 95.0301C91.1634 96.2241 92.3154 96.2979 92.3154 96.2979V96.6447C92.3154 96.6447 90.7145 96.7082 90.3385 96.6447C89.9626 96.5794 89.4784 95.9305 89.4484 95.4275C89.4166 94.9262 89.3694 93.5133 89.1445 91.9656C88.923 90.4179 87.4809 89.8282 87.4809 89.8282H85.1573V96.6756H83.0199V84.0264H81.5761L81.6113 83.6221L87.1299 83.6306ZM85.1581 89.4162C85.1581 89.4162 84.4105 89.4282 87.0243 89.4162C88.7325 89.411 89.0612 84.0427 87.0088 84.0564H85.1693L85.1581 89.4162ZM100.943 83.6306C103.754 83.6555 106.638 83.756 106.858 89.951C107.081 96.1408 102.717 96.637 101.017 96.6438C100.482 96.6455 95.6133 96.6438 95.6133 96.6438V84.0667H93.8579V83.641C93.8579 83.6401 100.339 83.6238 100.943 83.6306ZM98.3207 84.053C98.0795 84.0144 97.8812 84.2126 97.8812 84.4573V95.7305C97.8812 95.9751 98.0786 96.1734 98.3207 96.1734H100.22C100.465 96.1734 101.9 96.1932 102.762 94.9682C102.762 94.9682 104.449 93.8077 104.449 89.9286C104.449 86.0522 102.593 84.7234 102.593 84.7234C102.033 83.9689 100.373 84.0161 100.132 84.0547H98.3207V84.053Z" fill="#BDBDBD"/>
</svg>
