<svg width="34" height="40" viewBox="0 0 34 40" fill="none" xmlns="http://www.w3.org/2000/svg">
<path d="M33.019 39.0626H28.7693V34.0255C28.7693 32.8818 27.8381 31.9568 26.7007 31.9568H25.7696V30.432C25.7696 29.5008 25.0134 28.7447 24.0822 28.7447H23.8697L25.1821 18.7955C25.2134 18.5392 25.0384 18.3018 24.7759 18.2705C24.5197 18.233 24.2884 18.4142 24.2509 18.6705L22.926 28.7447H10.6083L7.92103 9.7774C7.58357 7.96512 8.58973 6.18395 10.3146 5.53405L22.0511 1.13439C23.0823 0.753173 24.2009 0.940689 25.0446 1.63438C25.8946 2.32806 26.3008 3.39044 26.1195 4.48411L24.8384 14.2209C24.8072 14.477 24.9884 14.7146 25.2446 14.7458C25.5008 14.7895 25.7321 14.6021 25.7696 14.3396L27.0507 4.62158C27.2757 3.20301 26.7507 1.81557 25.6383 0.909423C24.5322 -0.00297753 23.0636 -0.24672 21.7262 0.259451L9.98961 4.65911C7.83978 5.46532 6.57741 7.69018 6.99611 9.92739L9.66466 28.7634C8.82721 28.8571 8.17102 29.5696 8.17102 30.432V31.9568H7.24611C6.10244 31.9568 5.17128 32.8818 5.17128 34.0255V39.0626H0.921592C0.665382 39.0626 0.452881 39.2688 0.452881 39.5313C0.452881 39.7875 0.665382 40 0.921592 40H33.019C33.2815 40 33.4877 39.7875 33.4877 39.5313C33.4877 39.2688 33.2815 39.0626 33.019 39.0626ZM9.10844 30.432C9.10844 30.0196 9.4459 29.6821 9.85839 29.6821H24.0822C24.4947 29.6821 24.8321 30.0196 24.8321 30.432V31.9568H9.10844V30.432ZM27.8319 39.0438H6.1087V34.0255C6.1087 33.4005 6.62116 32.8943 7.24611 32.8943H26.7007C27.3257 32.8943 27.8319 33.4005 27.8319 34.0255L27.8319 39.0438Z" fill="#656565"/>
<path d="M22.4727 10.2041C22.4174 10.0345 22.2707 9.9112 22.094 9.88557L18.8752 9.4193L17.4304 6.49107C17.2729 6.17127 16.7474 6.17127 16.59 6.49107L15.1451 9.4193L11.9263 9.88557C11.7497 9.9112 11.6029 10.0345 11.5477 10.2041C11.4924 10.3738 11.5385 10.5606 11.6664 10.6851L13.9983 12.959L13.4475 16.1717C13.4173 16.3474 13.4896 16.5257 13.634 16.63C13.7786 16.7362 13.9699 16.749 14.1277 16.666L17.0102 15.1506L19.8926 16.666C19.9613 16.702 20.036 16.7197 20.1108 16.7197C20.2078 16.7197 20.3046 16.6898 20.3863 16.63C20.5307 16.5257 20.603 16.3475 20.5728 16.1717L20.022 12.9591L22.354 10.6851C22.4818 10.5606 22.5279 10.3738 22.4727 10.2041ZM19.1914 12.4598C19.0809 12.5678 19.0306 12.7229 19.0565 12.8748L19.4883 15.3942L17.2284 14.2059C17.16 14.1699 17.0852 14.1522 17.0102 14.1522C16.9351 14.1522 16.8603 14.1699 16.792 14.2059L14.532 15.3942L14.9638 12.8748C14.9898 12.7229 14.9394 12.5678 14.829 12.4598L13.0008 10.6771L15.5235 10.3116C15.6764 10.2896 15.8085 10.1938 15.8765 10.0552L17.0102 7.75806L18.1438 10.0552C18.2119 10.1938 18.344 10.2896 18.4969 10.3116L21.0195 10.6771L19.1914 12.4598Z" fill="#656565"/>
<path d="M22.3226 20.8618C22.3226 20.603 22.1126 20.3931 21.8538 20.3931H12.0887C11.8299 20.3931 11.62 20.603 11.62 20.8618C11.62 21.1205 11.8299 21.3305 12.0887 21.3305H21.8538C22.1126 21.3305 22.3226 21.1205 22.3226 20.8618Z" fill="#656565"/>
<path d="M21.8408 23.646C21.8408 23.3872 21.6308 23.1772 21.372 23.1772H12.5703C12.3115 23.1772 12.1016 23.3872 12.1016 23.646C12.1016 23.9047 12.3115 24.1147 12.5703 24.1147H21.372C21.6308 24.1147 21.8408 23.9047 21.8408 23.646Z" fill="#656565"/>
<path d="M20.9768 25.9207H12.9654C12.7066 25.9207 12.4967 26.1306 12.4967 26.3894C12.4967 26.6481 12.7066 26.8581 12.9654 26.8581H20.9768C21.2356 26.8581 21.4456 26.6481 21.4456 26.3894C21.4456 26.1306 21.2356 25.9207 20.9768 25.9207Z" fill="#656565"/>
</svg>
