<svg width="100" height="100" viewBox="0 0 100 100" fill="none" xmlns="http://www.w3.org/2000/svg">
<path fill-rule="evenodd" clip-rule="evenodd" d="M14.7735 45.4208V41.4365H4.41174V59.4842H9.09487V52.4079H14.2532V48.4236H9.09487V45.4208H14.7735ZM23.7087 50.5797C25.4778 50.5797 26.5034 51.8585 26.5034 53.3599C26.5034 54.9204 25.4778 56.11 23.7087 56.11C21.9396 56.11 20.8989 54.9204 20.8989 53.3599C20.8989 51.8585 21.9396 50.5797 23.7087 50.5797ZM30.7108 47.205H26.3545V48.4091C25.4477 47.3238 23.9613 46.8034 22.5487 46.8034C18.9213 46.8034 16.4088 49.8212 16.4088 53.3298C16.4088 56.8529 18.9659 59.9008 22.6083 59.9008C24.0355 59.9008 25.5519 59.3504 26.3099 58.1167H26.3545V59.4847H30.7103L30.7108 47.205ZM42.4702 47.5173C41.608 47.0415 40.5969 46.8039 39.6008 46.8039C35.7503 46.8039 32.7325 49.5245 32.7325 53.4792C32.7325 57.1958 35.7654 59.9013 39.4078 59.9013C40.4635 59.9013 41.5188 59.6782 42.4702 59.203V55.516C41.8902 56.0358 41.0576 56.3481 40.2996 56.3481C38.501 56.3481 37.2221 55.115 37.2221 53.3308C37.2221 51.6365 38.5451 50.3426 40.2254 50.3426C41.0576 50.3426 41.8311 50.7296 42.4702 51.2048V47.5173ZM49.9481 50.8028H52.4009V47.205H49.9481V43.5179H45.5918V47.205H44.1796V50.8028H45.5918V59.4842H49.9481V50.8028ZM60.2798 46.8034C56.3261 46.8034 52.8912 49.167 52.8912 53.3599C52.8912 57.5517 56.3557 59.9003 60.2798 59.9003C64.2345 59.9003 67.6834 57.5221 67.6834 53.3599C67.684 49.167 64.2345 46.8034 60.2798 46.8034ZM60.2798 50.5797C62.0489 50.5797 63.0896 51.8585 63.0896 53.3599C63.0896 54.9204 62.0489 56.11 60.2798 56.11C58.5107 56.11 57.4851 54.9204 57.4851 53.3599C57.4856 51.8585 58.5107 50.5797 60.2798 50.5797ZM74.0018 47.205H69.6466V59.4842H74.0018V54.5344C74.0018 52.423 74.5963 50.8178 77.0201 50.8178C77.6888 50.8178 78.2543 50.892 78.8634 51.2334V47.0415H78.0162C76.3208 47.0415 74.8791 47.7108 74.0464 49.2267H74.0018V47.205ZM85.0624 57.8194L79.295 67.706H84.1857L95.5882 47.205H90.6373L87.4265 53.5083L84.1556 47.205H79.1166L85.0624 57.8194Z" fill="#BDBDBD"/>
<path fill-rule="evenodd" clip-rule="evenodd" d="M20.2743 36.0697H22.8018V33.483H14.6843V36.0697H17.2119V45.2424H20.2743V36.0697ZM23.8425 32.2939V45.2424H26.6819V41.1393C26.6819 40.2024 27.0388 39.2364 28.1687 39.2364C29.2987 39.2364 29.4476 40.2024 29.4476 41.1393V45.2424H32.2869V40.3513C32.2869 38.3145 31.2908 36.9765 29.2696 36.9765C28.1692 36.9765 27.3667 37.3781 26.7125 38.2548H26.6824V32.2939H23.8425ZM36.4341 40.0836C36.6126 39.2514 37.2963 38.8198 38.129 38.8198C38.8869 38.8198 39.5858 39.3106 39.7347 40.0836H36.4341ZM42.366 41.4221C42.366 38.6865 40.7603 36.9771 37.9801 36.9771C35.3784 36.9771 33.5496 38.5827 33.5496 41.2436C33.5496 44.0088 35.5418 45.5107 38.1881 45.5107C40.0164 45.5107 41.8005 44.6484 42.2617 42.76H39.5266C39.2143 43.2954 38.7832 43.4884 38.1736 43.4884C36.9991 43.4884 36.3895 42.8643 36.3895 41.7193H42.366V41.4221ZM41.8456 66.0859L43.4663 61.893H44.0608L45.7853 66.0859H45.1462L44.6554 64.8221H42.9013L42.4401 66.0859H41.8456ZM43.0648 64.3614H44.4769L44.0458 63.2014C43.9125 62.8445 43.8082 62.5623 43.7485 62.3392C43.6899 62.6062 43.6154 62.8696 43.5255 63.1277L43.0648 64.3614ZM46.1568 66.0859V63.053H46.618V63.5132C46.7368 63.2901 46.841 63.1563 46.9448 63.0826C47.0491 63.0084 47.1528 62.9783 47.2722 62.9783C47.4506 62.9783 47.6291 63.038 47.8075 63.1423L47.6291 63.6175C47.5119 63.5487 47.3784 63.5127 47.2426 63.5132C47.1388 63.5132 47.0345 63.5438 46.9453 63.6175C46.8566 63.6771 46.7969 63.7814 46.7523 63.9002C46.6914 64.0924 46.6613 64.2931 46.6631 64.4948V66.0854L46.1568 66.0859ZM49.2342 65.6247L49.3084 66.0859C49.1814 66.1137 49.0519 66.1286 48.9219 66.1305C48.7289 66.1305 48.5951 66.0999 48.4908 66.0413C48.3958 65.991 48.318 65.9132 48.2677 65.8182C48.2231 65.7139 48.2081 65.5048 48.2081 65.1931V63.4541H47.8221V63.053H48.2086V62.294L48.7139 61.9817V63.0525H49.2342V63.4535H48.7139V65.2226C48.7139 65.3705 48.7289 65.4748 48.744 65.5043C48.759 65.55 48.7886 65.5936 48.8332 65.6086C48.887 65.6407 48.9491 65.6562 49.0117 65.6532C49.0708 65.6543 49.145 65.6387 49.2342 65.6247ZM51.4199 66.0859V61.893H51.9703V65.5946H54.0361V66.0859H51.4199ZM56.6234 65.7139C56.4298 65.8768 56.2514 65.9967 56.0729 66.0553C55.8936 66.1273 55.7017 66.1628 55.5085 66.1596C55.1661 66.1596 54.9139 66.0854 54.7355 65.9214C54.557 65.7585 54.4667 65.5505 54.4667 65.2823C54.4667 65.1344 54.4974 65.0006 54.557 64.8813C54.6312 64.7625 54.7199 64.6582 54.8247 64.5845C54.9435 64.5093 55.0618 64.4507 55.1956 64.4206C55.2999 64.391 55.4488 64.3619 55.6568 64.3313C56.0734 64.2867 56.3852 64.2281 56.5787 64.1529V64.019C56.5787 63.8115 56.5341 63.6621 56.4299 63.5884C56.311 63.4691 56.1025 63.41 55.8504 63.41C55.6122 63.41 55.4187 63.4546 55.3155 63.5288C55.1962 63.618 55.1069 63.7669 55.0478 63.99L54.5575 63.9147C54.6021 63.7072 54.6763 63.5288 54.7806 63.3949C54.8839 63.2611 55.0327 63.1568 55.2263 63.0826C55.4338 63.023 55.6568 62.9783 55.9245 62.9783C56.1777 62.9783 56.4008 63.0089 56.5497 63.0676C56.7126 63.1272 56.8314 63.2165 56.9206 63.3057C56.9958 63.3949 57.0399 63.5132 57.0695 63.6471C57.0991 63.7363 57.0991 63.9002 57.0991 64.1233V64.8226C57.0991 65.2978 57.1141 65.5946 57.1297 65.7295C57.1593 65.8483 57.2039 65.9816 57.2635 66.0864H56.7287C56.6675 65.9816 56.6384 65.8628 56.6234 65.7139ZM56.5787 64.5689C56.3852 64.6431 56.1175 64.7028 55.7316 64.7625C55.523 64.792 55.3741 64.8221 55.2849 64.8657C55.1956 64.8963 55.137 64.956 55.0774 65.0296C55.0351 65.1017 55.0144 65.1843 55.0177 65.2678C55.0177 65.4156 55.0623 65.5199 55.1666 65.6247C55.2709 65.7139 55.4187 65.7585 55.6278 65.7585C55.8213 65.7585 55.9998 65.7139 56.1627 65.6247C56.3116 65.5355 56.4304 65.4161 56.49 65.2678C56.5497 65.1484 56.5793 64.985 56.5793 64.7469L56.5787 64.5689ZM58.3769 66.0859H57.9017V61.893H58.4075V63.3949C58.6306 63.1122 58.9123 62.9783 59.2396 62.9783C59.4331 62.9783 59.6116 63.0229 59.7745 63.0977C59.9384 63.1718 60.0868 63.2761 60.1911 63.41C60.2954 63.5438 60.3846 63.7067 60.4443 63.9002C60.5029 64.0937 60.5335 64.3013 60.5335 64.5243C60.5335 65.0452 60.4142 65.4462 60.1465 65.729C59.8943 66.0107 59.582 66.1596 59.2256 66.1596C58.8682 66.1596 58.5865 66.0107 58.3774 65.7139L58.3769 66.0859ZM58.3769 64.5394C58.3769 64.9113 58.4215 65.1785 58.5258 65.3419C58.6747 65.6096 58.8977 65.729 59.1805 65.729C59.4036 65.729 59.596 65.6387 59.76 65.4462C59.9229 65.2527 60.0121 64.956 60.0121 64.5689C60.0121 64.1679 59.9229 63.8696 59.774 63.6917C59.6111 63.4992 59.417 63.41 59.1945 63.41C58.9719 63.41 58.7779 63.4992 58.615 63.6917C58.4521 63.9002 58.3769 64.183 58.3769 64.5394ZM60.9791 64.5689C60.9791 64.0045 61.128 63.5879 61.4403 63.3207C61.708 63.0977 62.0198 62.9783 62.4058 62.9783C62.8224 62.9783 63.1648 63.1122 63.4325 63.3949C63.6846 63.6626 63.8185 64.0496 63.8185 64.5248C63.8185 64.9119 63.7588 65.2242 63.64 65.4467C63.5357 65.6698 63.3573 65.8478 63.1342 65.9666C62.9111 66.1004 62.659 66.1601 62.4058 66.1601C61.9752 66.1601 61.6328 66.0262 61.3651 65.7435C61.0979 65.4758 60.9791 65.0898 60.9791 64.5689ZM61.499 64.5689C61.499 64.956 61.5882 65.2527 61.7521 65.4462C61.9306 65.6387 62.1381 65.729 62.4058 65.729C62.659 65.729 62.867 65.6387 63.0309 65.4462C63.2094 65.2527 63.2986 64.956 63.2986 64.5534C63.2986 64.1824 63.2094 63.8847 63.0309 63.6912C62.867 63.4987 62.659 63.4094 62.4058 63.4094C62.1381 63.4094 61.9306 63.4987 61.7521 63.6912C61.5882 63.8852 61.499 64.183 61.499 64.5689ZM64.428 66.0859V63.053H64.8893V63.5132C65.0081 63.2901 65.1123 63.1563 65.2156 63.0826C65.3198 63.0084 65.4241 62.9783 65.5429 62.9783C65.7214 62.9783 65.8999 63.038 66.0778 63.1423L65.8993 63.6175C65.7824 63.5487 65.649 63.5127 65.5134 63.5132C65.4049 63.5117 65.2994 63.5486 65.2156 63.6175C65.1263 63.6771 65.0677 63.7814 65.0231 63.9002C64.9618 64.0924 64.9313 64.2931 64.9328 64.4948V66.0854L64.428 66.0859ZM68.3677 65.7139C68.1742 65.8768 67.9958 65.9967 67.8173 66.0553C67.6377 66.1274 67.4454 66.1629 67.2518 66.1596C66.9105 66.1596 66.6573 66.0854 66.4788 65.9214C66.3004 65.7585 66.2111 65.5505 66.2111 65.2823C66.2111 65.1344 66.2417 65.0006 66.3004 64.8813C66.3697 64.7658 66.461 64.6649 66.5691 64.5845C66.6879 64.5093 66.8062 64.4507 66.94 64.4206C67.0443 64.391 67.1932 64.3619 67.4012 64.3313C67.8178 64.2867 68.1296 64.2281 68.3231 64.1529V64.019C68.3231 63.8115 68.2785 63.6621 68.1742 63.5884C68.0554 63.4691 67.8469 63.41 67.5947 63.41C67.3566 63.41 67.1782 63.4546 67.0599 63.5288C66.9405 63.618 66.8513 63.7669 66.8067 63.99L66.3009 63.9147C66.3455 63.7072 66.4202 63.5288 66.524 63.3949C66.6282 63.2611 66.7771 63.1568 66.9852 63.0826C67.2064 63.0132 67.437 62.9781 67.6689 62.9783C67.9221 62.9783 68.1452 63.0089 68.3081 63.0676C68.457 63.1272 68.5908 63.2165 68.665 63.3057C68.7402 63.3949 68.7843 63.5132 68.8139 63.6471C68.8435 63.7363 68.8435 63.9002 68.8435 64.1233V64.8226C68.8435 65.2978 68.8585 65.5946 68.8741 65.7295C68.9037 65.8483 68.9483 65.9816 69.0079 66.0864H68.472C68.4124 65.9816 68.3823 65.8628 68.3677 65.7139ZM68.3231 64.5689C68.1447 64.6431 67.8619 64.7028 67.4749 64.7625C67.2674 64.792 67.118 64.8221 67.0293 64.8657C66.94 64.8963 66.8814 64.956 66.8217 65.0296C66.7795 65.1017 66.7588 65.1843 66.7621 65.2678C66.7621 65.4156 66.8067 65.5199 66.911 65.6247C67.0153 65.7139 67.1631 65.7585 67.3722 65.7585C67.5657 65.7585 67.7442 65.7139 67.9071 65.6247C68.0529 65.5411 68.1714 65.4172 68.2484 65.2678C68.293 65.1484 68.3236 64.985 68.3236 64.7469L68.3231 64.5689ZM70.7765 65.6247L70.8507 66.0859C70.7237 66.1128 70.5945 66.1278 70.4647 66.1305C70.2712 66.1305 70.1223 66.0999 70.018 66.0413C69.9148 65.9816 69.8395 65.9074 69.8105 65.8182C69.7659 65.7139 69.7363 65.5048 69.7363 65.1931V63.4541H69.3643V63.053H69.7363V62.294L70.2561 61.9817V63.0525H70.777V63.4535H70.2561V65.2226C70.2561 65.3705 70.2561 65.4748 70.2857 65.5043C70.3008 65.55 70.3303 65.5936 70.3749 65.6086C70.4055 65.6382 70.4652 65.6532 70.5389 65.6532C70.598 65.6543 70.6722 65.6387 70.7765 65.6247ZM71.0883 64.5689C71.0883 64.0045 71.2372 63.5879 71.5484 63.3207C71.8172 63.0977 72.129 62.9783 72.5149 62.9783C72.9315 62.9783 73.2729 63.1122 73.5416 63.3949C73.8093 63.6626 73.9427 64.0496 73.9427 64.5248C73.9427 64.9119 73.883 65.2242 73.7642 65.4467C73.6449 65.6698 73.4664 65.8478 73.2433 65.9666C73.0203 66.1004 72.7821 66.1601 72.5149 66.1601C72.0844 66.1601 71.742 66.0262 71.4743 65.7435C71.2221 65.4758 71.0883 65.0898 71.0883 64.5689ZM71.6081 64.5689C71.6081 64.956 71.6973 65.2527 71.8758 65.4462C72.0397 65.6387 72.2478 65.729 72.5149 65.729C72.7681 65.729 72.9762 65.6387 73.1541 65.4462C73.317 65.2527 73.4073 64.956 73.4073 64.5534C73.4073 64.1824 73.317 63.8847 73.1541 63.6912C73.0746 63.6004 72.9761 63.5282 72.8657 63.4795C72.7553 63.4308 72.6356 63.4069 72.5149 63.4094C72.2473 63.4094 72.0397 63.4987 71.8758 63.6912C71.6973 63.8852 71.6081 64.183 71.6081 64.5689ZM74.5377 66.0859V63.053H74.9979V63.5132C75.1172 63.2901 75.221 63.1563 75.3252 63.0826C75.4295 63.0089 75.5338 62.9783 75.6526 62.9783C75.8311 62.9783 76.0095 63.038 76.1875 63.1423L76.009 63.6175C75.8971 63.5488 75.7683 63.5127 75.637 63.5132C75.5238 63.5093 75.4129 63.5463 75.3247 63.6175C75.2355 63.6771 75.1769 63.7814 75.1323 63.9002C75.0709 64.0924 75.0405 64.2931 75.042 64.4948V66.0854L74.5377 66.0859ZM76.4697 67.2599L76.41 66.7837C76.5294 66.8143 76.6186 66.8283 76.7078 66.8283C76.8266 66.8283 76.9153 66.7987 76.9895 66.7697C77.0492 66.725 77.1088 66.6804 77.1535 66.6057C77.183 66.5611 77.2427 66.4273 77.3164 66.2197C77.3164 66.1891 77.3314 66.1445 77.361 66.1004L76.202 63.0536H76.7524L77.3916 64.8076C77.4658 65.0307 77.5394 65.2688 77.6147 65.5209C77.6733 65.2828 77.7485 65.0457 77.8222 64.8226L78.4769 63.0536H78.9967L77.8377 66.145C77.7039 66.4724 77.6147 66.7105 77.54 66.8288C77.4507 67.0073 77.3475 67.1266 77.2276 67.2008C77.1088 67.29 76.9755 67.3196 76.7971 67.3196C76.6853 67.3187 76.5746 67.2985 76.4697 67.2599Z" fill="#BDBDBD"/>
</svg>
