<svg width="134" height="122" viewBox="0 0 134 122" fill="none" xmlns="http://www.w3.org/2000/svg">
<g id="arrow__shape">
<path id="Vector" fill-rule="evenodd" clip-rule="evenodd" d="M72.7703 69.9032C74.0277 72.6486 76.2192 74.85 79.5711 76.1459C89.9398 80.1543 98.3548 76.2135 104.714 68.7978C113.998 57.9692 118.822 39.6344 118.931 28.7853C118.936 28.2714 118.521 27.8452 118.007 27.8328C117.49 27.8185 117.067 28.2235 117.062 28.7375C116.957 39.2673 112.294 57.0683 103.284 67.578C97.4448 74.387 89.7454 78.095 80.2222 74.4127C77.3875 73.3182 75.5439 71.4542 74.4752 69.1356C75.9756 68.4413 77.4356 67.7134 78.8522 66.9526C82.7624 64.852 91.7352 57.5897 95.8969 50.4013C98.8809 45.244 99.3927 40.1313 94.6282 36.7096C91.9798 34.8086 88.8948 34.974 85.8259 36.6329C81.6053 38.9112 77.3847 44.1053 74.6241 50.0557C72.3248 55.0092 71.0359 60.4752 71.5273 65.1718C71.6372 66.204 71.8282 67.2009 72.1126 68.1486C51.1139 77.3818 23.284 79.7989 1.56252 73.2434C1.06729 73.0956 0.549352 73.3702 0.407882 73.8628C0.264209 74.3543 0.551951 74.8738 1.04583 75.0233C23.122 81.6843 51.3903 79.2573 72.7703 69.9032ZM73.8313 67.3705C75.2398 66.7149 76.6116 66.0289 77.944 65.3125C81.6907 63.2982 90.286 56.341 94.2732 49.4534C96.7204 45.2266 97.4559 41.0155 93.5514 38.2112C91.4999 36.7398 89.1145 36.988 86.7368 38.2696C84.1227 39.6823 81.5339 42.3174 79.3294 45.5484C75.9827 50.454 73.5295 56.7371 73.3085 62.3337C73.2373 64.1068 73.3951 65.8102 73.8313 67.3705Z" fill="white"/>
<path id="Vector_2" fill-rule="evenodd" clip-rule="evenodd" d="M33.2364 59.2978C25.159 66.8123 12.4083 71.6649 1.36094 73.3422C0.852875 73.4193 0.510294 73.8943 0.59604 74.4014C0.681789 74.9084 1.1631 75.259 1.67117 75.1819C13.064 73.4534 26.1957 68.4127 34.5233 60.6665C34.896 60.3203 34.9112 59.7312 34.5552 59.3528C34.201 58.9759 33.6091 58.9516 33.2364 59.2978Z" fill="white"/>
<path id="Vector_3" fill-rule="evenodd" clip-rule="evenodd" d="M1.65003 75.4107C10.8607 76.6841 21.1488 83.6991 26.9767 91.0162C27.2998 91.4227 27.8889 91.4976 28.2902 91.1811C28.6925 90.8658 28.7571 90.2827 28.4342 89.8766C22.3282 82.2113 11.5272 74.9032 1.87763 73.5688C1.36632 73.4971 0.89877 73.854 0.835194 74.3617C0.773055 74.8713 1.13736 75.3408 1.65003 75.4107Z" fill="white"/>
</g>
</svg>
