<svg width="99" height="100" viewBox="0 0 99 100" fill="none" xmlns="http://www.w3.org/2000/svg">
<path fill-rule="evenodd" clip-rule="evenodd" d="M11.8368 71.531L11.7349 71.6334C11.8368 71.939 11.8368 72.0414 11.6325 72.0414L9.79579 73.164L9.08113 71.7353C8.97928 71.5316 8.87743 71.4291 9.08113 71.3273L8.97928 71.2249L7.75481 71.8371L7.85666 72.0408C8.06093 71.9384 8.06093 72.0408 8.26463 72.2445L8.97871 73.5714L7.65182 74.2855L6.5292 72.1427C6.42735 71.9384 6.42735 71.8365 6.5292 71.7341L6.42735 71.6323L5.30472 72.2439V72.3464C5.50899 72.3464 5.61084 72.4488 5.71269 72.6525L7.5494 76.0198H7.75367C7.65125 75.7137 7.65125 75.6118 7.85552 75.51L12.1412 73.061C12.3449 72.9586 12.4473 72.9586 12.651 73.2647L12.7528 73.1623L11.8368 71.531ZM8.97928 65.7148H8.87743C8.87743 65.9184 8.87743 66.0209 8.67316 66.1227L6.83645 66.8374L6.42849 65.8166L7.75538 64.3879L8.0615 64.0817C8.16335 64.0817 8.2652 64.1842 8.2652 64.286L8.4689 64.1836L7.85666 62.6536H7.65296C7.75538 62.9591 7.55111 63.0615 7.24499 63.4695L5.91867 64.8982C5.40885 64.1842 4.69419 63.9805 3.87826 64.2866C2.9599 64.6945 2.65378 65.6129 3.06175 66.7355L4.08196 69.3887L4.28566 69.2863C4.18381 69.0826 4.18381 68.9802 4.38808 68.9802L9.0817 67.1435C9.28597 67.0411 9.38782 67.1435 9.49024 67.2453H9.59209L8.97928 65.7148ZM4.48993 67.7557L3.97954 66.5312C3.77584 65.919 3.97954 65.5105 4.38808 65.3068C4.89789 65.1031 5.20458 65.3068 5.5107 65.919L5.91867 67.1435L4.48993 67.7557ZM4.59178 58.9796L2.14283 58.7759V58.674L4.38751 57.5508L4.59178 58.9796ZM6.93887 58.9796H6.83645C6.83645 59.1838 6.7346 59.2857 6.63275 59.2857H6.42849L5.51013 59.082L5.10216 57.1434L6.02052 56.5312H6.22479C6.32664 56.5312 6.32664 56.5312 6.32664 56.6336H6.53034L6.22422 55.103L6.01995 55.2054C6.1218 55.3073 6.01995 55.3073 5.81625 55.4091L1.53059 57.9599C1.32632 58.0624 1.22447 58.1636 1.12262 58.1636C1.02077 58.1636 0.918355 58.1636 0.918355 57.9599H0.714656L1.12262 59.7972H1.22447C1.22447 59.5929 1.32632 59.5929 1.32632 59.4911C1.42817 59.4911 1.53059 59.4911 1.73429 59.5929L6.7346 60.2052C6.83645 60.3076 7.04072 60.3076 7.04072 60.4095H7.24442L6.93887 58.9796ZM6.02052 51.3266H5.81682C5.81682 51.5309 5.7144 51.6327 5.61255 51.6327H1.63301C2.65322 51.3266 5.5107 49.2856 5.61255 49.2856C5.81682 49.2856 5.81682 49.3881 5.81682 49.4899H6.02052L5.91867 47.8575H5.81682C5.7144 48.0612 5.7144 48.0612 5.5107 48.0612L0.510387 48.163C0.306119 48.163 0.204269 48.163 0.204269 47.9593H0L0.10185 49.4899H0.203699C0.203699 49.2856 0.305549 49.1838 0.509818 49.1838H4.08139C3.57157 49.2856 0.509818 51.3266 0.305549 51.3266C0.305549 51.3266 0.305549 51.2248 0.203699 51.1229H0.10185V52.9602H0.305549C0.305549 52.7559 0.407968 52.7559 0.611668 52.7559L5.61198 52.6541C5.81625 52.6541 5.81625 52.6541 5.9181 52.8578H6.01995L6.02052 51.3266ZM1.42817 39.7965C1.42817 39.8984 1.53059 40.0002 1.42817 40.0002C1.42817 40.1027 1.32632 40.2045 1.12205 40.5106C0.917786 40.7143 0.714086 41.1229 0.611668 41.6332C0.407968 43.062 1.2239 44.592 3.26488 44.8981C4.79548 45.1024 6.32607 44.3883 6.63219 42.6535C6.83589 41.2253 6.1218 40.8167 6.1218 40.5106C6.1218 40.4082 6.22422 40.4082 6.32607 40.3064L6.22422 40.2045L4.89733 41.021V41.1229H5.10159C5.50956 41.2253 5.81568 41.8369 5.71383 42.4497C5.51013 43.3681 4.59121 43.9803 3.46915 43.7761C1.93856 43.5724 1.42817 42.7559 1.63244 41.7357C1.73429 41.1234 2.14283 40.7155 2.5508 40.7155H2.65322L1.53059 39.6953L1.42817 39.7965ZM6.12237 33.6742L8.2652 34.3883C8.4689 34.4901 8.4689 34.5919 8.4689 34.7962H8.57131L9.18355 33.1638H8.97928C8.87743 33.3675 8.77501 33.3675 8.57131 33.3675L3.87769 31.735C3.67342 31.6326 3.67342 31.5308 3.67342 31.3265H3.57157L2.95933 32.8571L3.16303 32.9589C3.26545 32.7552 3.3673 32.7552 3.46915 32.7552L5.30586 33.3675L4.48936 35.7146L2.75507 35.1023C2.5508 35.0005 2.44895 34.8981 2.5508 34.6944H2.3471L1.83728 36.225L1.93913 36.3268C2.04098 36.1225 2.1434 36.1225 2.3471 36.1225L7.04129 37.7556C7.24499 37.8574 7.34741 37.8574 7.24499 38.1635H7.44926L7.95908 36.5311H7.85723C7.75538 36.7348 7.65296 36.7348 7.44926 36.7348L5.30643 35.9183L6.12237 33.6742ZM11.0203 29.2861L10.9184 29.1842C10.7141 29.4904 10.6123 29.4904 10.5099 29.3879L6.01995 27.2451C5.81625 27.1433 5.81625 27.0414 5.9181 26.7353L5.71383 26.6334L4.89733 28.3683L5.10159 28.4702C5.20401 28.1635 5.30586 28.1635 5.51013 28.1635L10.0001 30.4087C10.2038 30.5106 10.2038 30.6124 10.1025 30.9185H10.2043L11.0203 29.2861ZM11.9386 26.9396L12.041 26.8371V26.6334C12.1429 26.4292 12.3472 26.4292 12.6533 26.2255C12.9594 26.0212 13.2655 25.7151 13.6735 25.2053C14.5918 23.7765 14.2857 22.552 13.5716 22.0417C11.6325 20.7153 10.3062 24.1845 9.38782 23.4704C9.0817 23.2667 8.97985 22.8582 9.28597 22.3478C9.89821 21.5313 10.5104 21.4294 10.7147 21.5313L10.8166 21.6331L11.0208 21.5313L10.3067 20.1025H10.2043C10.2043 20.2044 10.3067 20.3068 10.2043 20.4087C10.1025 20.5105 9.89821 20.6124 9.69451 20.8166C9.38839 20.9185 8.98042 21.2246 8.6743 21.735C7.8578 22.9594 8.16448 23.9797 8.87857 24.49C10.6134 25.7145 11.9398 22.2454 12.96 22.9594C13.3679 23.2656 13.4698 23.776 12.8581 24.5919C12.552 25.2041 11.7355 25.7145 11.4294 25.5102L11.3269 25.4084L11.2251 25.5102L11.9386 26.9396ZM15.7145 18.3682L16.7347 17.348C16.8371 17.1438 16.9384 17.1438 17.0408 17.1438L17.1432 17.0419L16.2248 16.1236L16.1224 16.226C16.2248 16.4297 16.2248 16.5321 16.0206 16.634L14.9998 17.7566L13.9796 16.7364L15.612 15.0015C15.8157 14.7978 15.9182 14.6954 16.0206 14.7978L16.1224 14.6954L15.2041 13.777L15.1022 13.8789C15.2041 13.9807 15.1022 14.0832 14.9998 14.2869L12.2447 17.1432L12.3466 17.2451C12.5509 17.0414 12.6527 17.0413 12.857 17.1432L16.428 20.6124C16.5304 20.8166 16.5304 20.9185 16.428 21.1227L16.5304 21.2246L19.2855 18.2653C19.4897 18.0616 19.5916 18.0616 19.6934 18.1634L19.7958 18.0616L18.8775 17.1432L18.7756 17.2451C18.8775 17.3475 18.7756 17.4493 18.6732 17.6536L16.8365 19.4903L15.7145 18.3682ZM24.7962 10.8171L26.0201 10.103C26.2243 9.89878 26.3262 9.89878 26.4286 10.0012L26.5304 9.89878L25.8164 8.77615L25.7145 8.87857C25.8164 9.08227 25.7145 9.08227 25.5102 9.28654L24.2858 10.0012L23.4693 8.77672L25.5102 7.4504C25.8164 7.34798 25.9182 7.34798 26.0201 7.4504L26.1225 7.34798L25.4084 6.22536L25.3065 6.32778C25.3065 6.42963 25.3065 6.53147 25.1023 6.73574L21.735 8.77615L21.8368 8.87857C22.1429 8.77615 22.1429 8.77615 22.2448 8.98042L24.898 13.1642C25.0004 13.3685 25.0004 13.4703 24.7962 13.6746L24.898 13.7765L28.3677 11.6336C28.5714 11.5318 28.6738 11.4299 28.7757 11.6336L28.8775 11.5318L28.1635 10.4092H28.0616C28.0616 10.6129 28.0616 10.7153 27.8573 10.8171L25.6127 12.2459L24.7962 10.8171ZM32.4485 9.69451L32.3467 9.49081C32.2443 9.59266 32.1424 9.59266 32.0406 9.49081C32.0406 9.28654 32.1424 8.26634 32.3467 7.44983C32.5504 7.65353 33.8773 8.57245 33.9791 8.6743C33.9791 8.87857 33.8773 8.87857 33.7754 8.98042L33.8773 9.08284L35.6121 8.36875L35.5097 8.26634C35.4079 8.26634 35.306 8.36875 35.2036 8.26634L32.5504 6.32778C32.5504 5.40942 32.8565 4.38865 32.9589 3.47086C33.0608 3.26716 33.0608 3.26716 33.1626 3.16474V2.96104L31.5302 3.67513L31.632 3.77698C31.7345 3.77698 31.8363 3.77698 31.9382 3.87883C31.9382 3.98068 31.7345 4.89903 31.632 5.61369C31.3259 5.40942 30.3057 4.69533 30.2039 4.49106C30.2039 4.38865 30.2039 4.38865 30.4081 4.2868L30.3057 4.18495L28.5709 4.89903L28.6733 5.00088C28.7751 5.00088 28.9794 5.00088 29.0812 5.10273L31.4283 6.83759L30.9185 9.89878C30.9185 10.103 30.8161 10.103 30.7148 10.2049L30.8167 10.3073L32.4485 9.69451ZM41.1223 1.32689L40.918 1.53116C40.8162 1.53116 40.6119 1.42874 40.3058 1.32689C39.9997 1.22504 39.5911 1.22504 39.0813 1.32689C37.755 1.63301 36.5305 2.85748 37.0403 4.89846C37.3464 6.5309 38.5709 7.65353 40.2039 7.24556C41.6327 6.93944 41.8369 6.12294 42.1425 6.12294C42.1425 6.02109 42.2449 6.12294 42.3468 6.12294V6.02109L41.2241 5.00088L41.1223 5.10273V5.307C41.2241 5.71497 40.8162 6.22536 40.2039 6.32721C39.1837 6.5309 38.3672 5.81682 38.0611 4.69419C37.755 3.1636 38.2648 2.44952 39.3874 2.24525C39.8972 2.1434 40.51 2.34767 40.6119 2.75563V2.85748H40.7137L41.1223 1.42874V1.32689ZM45.9183 3.77641L47.3471 3.67456C47.6532 3.67456 47.755 3.67456 47.755 3.77641H47.9587L47.8569 2.44952H47.6532C47.6532 2.65378 47.5508 2.75563 47.3471 2.75563L45.9183 2.85748L45.8159 1.32689L48.2649 1.22504C48.4691 1.22504 48.571 1.22504 48.571 1.32689H48.7747L48.6728 0H48.4691C48.4691 0.204269 48.3667 0.204269 48.163 0.204269L44.1835 0.510387L44.2853 0.714655C44.5914 0.714655 44.5914 0.714655 44.5914 0.918355L44.9994 5.9181C44.9994 6.12237 44.9994 6.22422 44.6933 6.22422V6.42849L48.6728 6.12237C48.9789 6.12237 49.0808 6.12237 49.0808 6.32664H49.2851L49.1832 4.99974H48.9789C48.9789 5.10159 48.8771 5.20401 48.6728 5.20401L46.122 5.40771L45.9183 3.77641ZM52.0407 5.81682C52.0407 6.02109 51.9383 6.12294 51.6327 6.12294V6.22479L55.5098 6.63275C55.8154 6.63275 55.9178 6.63275 55.9178 6.83702H56.1221L56.2234 5.40828H56.0202C56.0202 5.61255 55.9178 5.7144 55.6123 5.61255L53.1627 5.40828L53.5707 0.918355C53.5707 0.714655 53.6731 0.714656 53.9787 0.612237V0.510956L52.1425 0.306687V0.510956C52.4481 0.510956 52.4481 0.612806 52.4481 0.817074L52.0407 5.81682ZM58.4686 6.73517C58.4686 6.83702 58.3673 6.93887 58.0606 6.93887V7.04072L61.8371 7.95908C62.1426 8.0615 62.245 8.16278 62.1426 8.2652L62.3469 8.36762L62.6524 6.93887H62.55C62.4476 7.14314 62.3469 7.14314 62.142 7.04072L59.6925 6.53091L60.8151 2.04098C60.8151 1.93856 60.9176 1.83728 61.2242 1.93856V1.73486L59.4894 1.32689V1.42874C59.6925 1.53116 59.6925 1.63244 59.6925 1.83728L58.4686 6.73517ZM66.8368 7.04129L68.1625 7.65353C68.3668 7.75595 68.4692 7.85723 68.3668 7.95965L68.5711 8.06207L69.0809 6.83759L68.9785 6.73574C68.8761 6.93944 68.7742 6.83759 68.4687 6.73574L67.1418 6.22536L67.754 4.89903L69.9987 5.81739C70.203 5.91924 70.3054 6.02166 70.3054 6.12351L70.4067 6.22536L70.9165 5.00088H70.8152C70.7128 5.10273 70.6109 5.10273 70.4061 5.00088L66.8357 3.36844L66.7332 3.57214C67.0388 3.67456 67.0388 3.77641 66.9364 3.98011L64.896 8.57189C64.7935 8.67373 64.7935 8.77558 64.488 8.67373L64.3856 8.77558L68.1608 10.4086C68.3651 10.5104 68.4675 10.6123 68.3651 10.8166H68.5694L69.0792 9.59209H68.9768C68.8744 9.69451 68.7725 9.69451 68.467 9.59209L66.1199 8.57189L66.8368 7.04129ZM72.2445 12.6538V12.552C72.1421 12.3477 72.1421 12.2459 72.2445 12.1435L74.3873 8.87857C74.1842 9.89878 74.1842 13.3685 74.0818 13.4703C74.0818 13.5722 73.9794 13.5722 73.8775 13.4703L73.7751 13.6746L75.102 14.4911L75.2044 14.3887C75.102 14.2869 75.102 14.2869 75.2044 14.0826L77.9595 9.79693C78.0619 9.69508 78.1637 9.69508 78.265 9.69508L78.3674 9.59266L77.143 8.77615L77.0417 8.87857C77.143 9.08227 77.143 9.08227 77.0417 9.28654L75.1026 12.2459C75.3068 11.7355 75.3068 8.16392 75.4081 7.96022C75.5105 7.96022 75.5105 7.96022 75.6124 8.06264L75.7148 7.85837L74.1848 6.83816L74.0824 7.04186C74.1848 7.14428 74.1848 7.24613 74.0824 7.34798L71.4297 11.5318C71.3273 11.7355 71.2254 11.7355 71.0206 11.6336L70.9182 11.8379L72.2445 12.6538ZM84.388 15.3065C84.2855 15.3065 84.1837 15.3065 84.0813 15.2041C84.0813 15.2041 83.9789 15.0004 83.8781 14.6943C83.8781 14.3881 83.6739 13.9802 83.2659 13.674C82.2446 12.6538 80.5097 12.4496 79.0815 13.9802C78.0613 15.2046 77.7546 16.8377 79.0815 17.9597C80.1017 18.9799 80.9188 18.6738 81.1219 18.8781V19.0818H81.3262L81.4286 17.4493H81.3262L81.2238 17.6536C80.9182 17.9597 80.2036 17.8573 79.7956 17.3475C79.081 16.7352 79.081 15.6126 79.8969 14.7967C80.9182 13.674 81.836 13.674 82.6531 14.3881C83.0611 14.7967 83.2653 15.4089 82.9586 15.715C82.9586 15.715 82.8562 15.715 82.8562 15.8169V15.9193L84.3874 15.4095V15.3065H84.388ZM85.3057 20.8166L86.1228 22.0411C86.326 22.2454 86.326 22.2454 86.2241 22.4496L86.3265 22.5515L87.3467 21.735L87.2443 21.6331C87.143 21.735 87.0412 21.6331 86.8363 21.4289L86.0204 20.3068L87.143 19.3884L88.673 21.327C88.7755 21.5313 88.7755 21.6331 88.673 21.735L88.7755 21.8374L89.8981 21.1233L89.7957 20.919C89.5914 21.0215 89.5914 21.0215 89.3877 20.8172L87.0406 17.6542L86.9382 17.756C87.0406 17.9597 87.0406 18.0621 86.9382 18.164L82.8562 21.2252C82.7538 21.327 82.6531 21.327 82.4483 21.1233L82.3458 21.2252L84.7954 24.4906C84.8978 24.6949 84.9996 24.7967 84.7954 24.8986L84.8978 25.001L86.0204 24.1845L85.918 24.0826C85.7137 24.1845 85.7137 24.0826 85.51 23.8789L83.9789 21.838L85.3057 20.8166ZM91.1226 30.9191L93.5709 30.613V30.7148L91.7348 32.3478L91.1226 30.9191ZM88.8773 31.5308L89.0804 31.4289C88.978 31.3265 89.0804 31.2252 89.1829 31.1228H89.3871L90.3049 31.0209L91.122 32.8577L90.3049 33.6742C90.3049 33.6742 90.2025 33.6742 90.2025 33.776C90.1001 33.776 90.1001 33.776 89.9994 33.5723L89.8969 33.6742L90.5092 35.1029L90.6116 35.0011C90.6116 34.8986 90.6116 34.7968 90.8147 34.6949L94.3863 31.3276C94.5894 31.1239 94.6919 31.0215 94.7943 31.0215C94.8967 30.9197 94.8967 31.0215 94.9986 31.1234L95.2017 31.0215L94.3857 29.3885H94.2833V29.6946C94.1809 29.6946 94.0791 29.6946 93.8754 29.797L88.7732 30.205C88.6708 30.205 88.4665 30.205 88.4665 30.1032L88.2634 30.205L88.8773 31.5308ZM91.6324 39.4904H91.8355C91.8355 39.3886 91.8355 39.2861 91.9379 39.2861C92.0404 39.2861 94.693 39.4904 95.7132 39.3886V39.4904C94.693 39.7965 92.6526 41.1229 92.347 41.1229C92.2446 41.2253 92.1428 41.1229 92.1428 41.021L91.9385 41.1229L92.2452 42.4497H92.4483C92.4483 42.3473 92.5507 42.3473 92.5507 42.3473C92.6631 42.297 92.7849 42.2709 92.9081 42.2709C93.0312 42.2709 93.153 42.297 93.2654 42.3473L97.8572 42.6535C98.0603 42.6535 98.1627 42.7559 98.2651 42.8577H98.3676L98.0609 41.429H97.9596C97.9596 41.6332 97.8572 41.7351 97.7553 41.7351C97.6535 41.7351 95.1027 41.429 93.7758 41.5308V41.429C94.4904 41.2253 97.0407 39.6941 97.3474 39.6941C97.4498 39.5923 97.5505 39.6941 97.5505 39.7965H97.7547L97.4492 38.3678H97.2449C97.3474 38.5721 97.2449 38.5721 97.1425 38.6739C96.9382 38.6739 94.3874 38.4696 93.2654 38.4696C94.0813 38.0617 96.5303 36.6329 96.7351 36.6329C96.8375 36.6329 96.9382 36.6329 96.9382 36.7348H97.1425L96.837 35.306H96.6327C96.6327 35.4085 96.5303 35.5103 96.326 35.6122L92.2452 37.8568C91.8361 38.0611 91.7354 38.163 91.6329 38.163C91.6329 38.163 91.5305 38.163 91.5305 38.0611L91.3263 38.163L91.6324 39.4904ZM95.1021 47.2452L97.4492 47.9593L95.1021 48.7758V47.2452ZM92.755 47.041L92.9581 46.9391C92.9581 46.8373 93.0606 46.7354 93.1624 46.7354H93.3667L94.2845 47.0415L94.3869 49.0825L93.3667 49.4905H93.1624C93.06 49.4905 93.06 49.4905 93.06 49.2862H92.8568L92.9581 50.8168H93.0606C93.0606 50.7149 93.163 50.7149 93.3672 50.6131L97.959 48.8782C98.2646 48.6745 98.367 48.6745 98.367 48.6745C98.4694 48.6745 98.5713 48.7764 98.5713 48.8782H98.7744L98.672 47.0415H98.5707C98.4683 47.2458 98.4683 47.2458 98.3664 47.2458H98.0597L93.1624 45.7152C93.06 45.7152 92.8568 45.6133 92.8568 45.5109H92.7544L92.755 47.041ZM92.5502 54.7963H92.7544C92.7544 54.5926 92.8569 54.5926 93.06 54.5926L94.9991 54.8988L94.8967 55.919L92.9576 56.6336H92.652C92.599 56.63 92.5491 56.6073 92.5116 56.5698C92.474 56.5322 92.4513 56.4823 92.4477 56.4293H92.3465L92.1422 58.0624H92.2446C92.347 57.8581 92.5502 57.8581 93.0606 57.6538L94.8978 57.0416C94.8978 57.8581 95.5101 58.3685 96.326 58.4703C97.3473 58.6746 98.0609 58.0624 98.2651 56.7355L98.6731 53.9804H98.47C98.47 54.1847 98.3676 54.1847 98.1633 54.1847L93.1635 53.47C93.0611 53.47 92.9593 53.3676 92.9593 53.2663L92.7561 53.1639L92.5502 54.7963ZM97.5499 55.2043L97.3468 56.5306C97.2444 57.2447 96.9377 57.449 96.4279 57.3471C95.918 57.3471 95.7132 57.041 95.8156 56.3269L95.918 55L97.5499 55.2043ZM91.8355 61.123C91.6324 61.123 91.6324 61.0206 91.6324 60.8169L91.53 60.7144L90.8153 62.8578C90.2031 64.6945 90.8153 66.0214 92.7544 66.6331C94.2845 67.1435 95.815 66.7355 96.3249 64.8982L97.1419 62.5517H96.9377C96.9377 62.7554 96.8364 62.7554 96.6321 62.7554L91.8355 61.123ZM95.8156 63.6738L95.6125 64.286C95.1027 65.7147 94.4899 66.0209 93.0611 65.5099C91.6329 65.1019 91.3263 64.3873 91.7354 62.9591L91.9385 62.3469L95.8156 63.6738ZM89.2853 68.0613H89.1829C89.1829 68.1637 89.2853 68.2655 89.1829 68.3674L88.673 68.8778C88.3664 69.0815 88.0608 69.3876 87.856 69.898C87.04 71.428 87.448 72.5506 88.2651 73.0616C90.3055 74.0818 91.2244 70.6121 92.2446 71.1225C92.5502 71.3267 92.7544 71.6329 92.4477 72.2451C92.0398 73.0622 91.4276 73.3683 91.2244 73.1634C91.122 73.1634 91.0201 73.1634 91.0201 73.0616L90.9177 73.1634L91.7348 74.5922L91.8361 74.4903C91.7348 74.4903 91.7348 74.3879 91.8361 74.2861C91.8361 74.1842 92.0404 74.0824 92.347 73.7762C92.5502 73.5725 92.8569 73.2664 93.163 72.756C93.8776 71.4291 93.4685 70.5114 92.6532 70.1028C90.8159 69.0826 89.8981 72.5518 88.776 72.0414C88.2662 71.7353 88.1638 71.3273 88.6736 70.4089C88.9792 69.7967 89.5914 69.0826 90.0005 69.2863V69.3887L90.2036 69.2863L89.2853 68.0613ZM15.8157 81.0207C15.2035 80.409 14.3876 80.409 13.7753 80.9188C13.1631 81.5311 13.1631 82.3476 13.6735 82.9598C14.2857 83.5715 15.1022 83.5715 15.7145 83.0616C16.3261 82.4494 16.3261 81.6329 15.8157 81.0207ZM19.2855 89.592L19.3879 89.6944H19.5916C19.6934 89.7962 19.7958 90.0005 19.9995 90.3066C20.2038 90.5103 20.5099 90.9183 20.9179 91.2244C22.3461 92.1428 23.4687 91.8367 23.9791 91.122C25.306 89.2853 21.9381 88.0614 22.6522 87.0406C22.8565 86.7345 23.162 86.6321 23.6724 87.0406C24.4889 87.5504 24.5908 88.1632 24.4889 88.3669L24.3865 88.4694L24.4889 88.6736L25.9171 87.959L25.8152 87.8566C25.7134 87.959 25.6115 87.959 25.6115 87.8566C25.5091 87.7547 25.4073 87.6529 25.203 87.3467C24.9993 87.0406 24.795 86.7345 24.2846 86.4284C23.0607 85.6119 22.1418 85.9186 21.6314 86.5308C20.5094 88.2657 23.7742 89.592 23.0602 90.5103C22.754 90.9183 22.3455 91.0202 21.4271 90.5103C21.0192 90.1018 20.4069 89.3877 20.6106 89.0816C20.6106 89.0816 20.6106 88.9792 20.7125 88.9792L20.6106 88.8773L19.2855 89.592ZM27.6531 95.0003L27.7549 94.8978C27.4488 94.6941 27.4488 94.5917 27.5512 94.4899L29.694 90.1018C29.694 89.8981 29.7965 89.8981 30.1026 89.9999L30.2044 89.8975L28.5714 89.081L28.4696 89.1834C28.7757 89.3871 28.7757 89.489 28.6738 89.5914L26.531 93.9789C26.4292 94.1832 26.4292 94.1832 26.1231 94.0813L26.0206 94.1838L27.6531 95.0003ZM32.1424 96.9388V96.7351C32.0406 96.6327 31.9382 96.6327 32.0406 96.429L33.2651 92.8574C33.2651 93.8782 34.1834 97.1431 34.0816 97.2455C34.0816 97.3474 33.9791 97.3474 33.8773 97.3474L33.7754 97.4498L35.306 97.9596V97.8577C35.2036 97.7553 35.2036 97.7553 35.2036 97.5516L36.8366 92.9598C36.9385 92.7561 36.9385 92.7561 37.1427 92.7561L37.2446 92.6537L35.8158 92.1439L35.714 92.2458C35.9177 92.3482 35.9177 92.45 35.9177 92.6543L34.7951 95.8179C34.7951 95.3081 33.9786 91.9408 34.081 91.7359H34.2847V91.6341L32.6522 91.0219L32.5498 91.1237C32.6522 91.2261 32.7541 91.328 32.6522 91.5322L31.1217 96.124C31.0198 96.2264 30.918 96.3277 30.7137 96.3277V96.4301L32.1424 96.9388ZM42.959 98.3676C42.7547 98.4694 42.5505 98.6737 41.9388 98.5713C41.1223 98.4688 40.2039 97.8572 40.51 96.3266C40.7137 95.1027 41.4284 94.388 42.5505 94.5917C43.367 94.6941 43.6731 95.1021 43.6731 95.4088C43.6731 95.5107 43.6731 95.6125 43.5712 95.6125L43.6731 95.7143L44.7957 94.4904H44.4896C44.3872 94.4904 44.1835 94.388 43.8773 94.1843C43.6731 93.9801 43.2651 93.7758 42.6529 93.6745C41.0199 93.3684 39.6935 94.5923 39.3874 96.2253C39.1837 97.7553 40.1015 99.1841 41.7345 99.4902C42.551 99.592 43.4694 99.3878 44.0816 98.878L44.184 98.7761C44.0816 98.7761 43.9798 98.6737 44.0816 98.4694L44.2859 97.2455C44.2859 97.0418 44.3877 96.9394 44.592 97.0418V96.8375L42.8571 96.532C42.2449 96.532 42.1431 96.3277 42.1431 96.1235H41.9394L41.7351 97.5522H41.8375C41.9394 97.3479 42.0412 97.3479 42.2455 97.3479L43.062 97.4503L42.959 98.3676ZM48.9795 97.7553L49.6936 95.5107L50.4082 97.7553H48.9795ZM48.6734 100V99.8982C48.4697 99.7957 48.3673 99.6939 48.3673 99.6939C48.3673 99.5915 48.3673 99.4902 48.4697 99.4902L48.7758 98.5718L50.7144 98.4694L51.0211 99.4902C51.1223 99.592 51.1223 99.592 51.1223 99.6939C51.1223 99.7957 51.0211 99.7963 50.9192 99.7963V100L52.3474 99.8982V99.7957C52.245 99.7957 52.245 99.6933 52.1442 99.4896L50.5118 94.9997C50.4094 94.6936 50.4094 94.6936 50.4094 94.5912C50.4094 94.4893 50.4094 94.3875 50.6125 94.3875V94.285H48.7758V94.3875C48.9801 94.4899 49.0819 94.4899 49.0819 94.5912C49.0819 94.5912 48.9801 94.6936 48.9801 94.8973L47.4495 99.5909C47.4495 99.6933 47.3476 99.8976 47.2452 99.8976V99.9994L48.6734 100ZM56.0202 94.6941L57.0404 94.5917C57.7551 94.4899 58.0606 94.5917 58.1631 95.204C58.2655 95.7138 57.9588 95.9186 57.2453 96.1223L56.2239 96.2247L56.0202 94.6941ZM57.0404 99.4896L56.938 99.2859C56.7349 99.2859 56.7349 99.2859 56.6325 99.0816L56.3258 97.1431L57.5503 96.9394C58.9796 96.7357 59.3875 95.8168 59.2851 95.0008C59.0808 94.0825 58.468 93.4702 57.0404 93.6745L54.4902 94.0825V94.1849C54.6933 94.1849 54.7958 94.2867 54.7958 94.3886L55.6128 99.1846C55.6128 99.3883 55.6128 99.4908 55.3061 99.5926L55.4086 99.695L57.0404 99.4896ZM62.245 95.5101C62.8573 97.0407 64.183 97.959 65.7147 97.3468C67.2448 96.837 67.7551 95.3064 67.2448 93.7758C66.7344 92.2452 65.4075 91.3268 63.775 91.8372C62.245 92.347 61.7346 93.8776 62.245 95.5101ZM63.2652 95.1027C62.8573 93.8782 63.1628 93.0617 64.0823 92.7556C65.0001 92.347 65.816 92.8574 66.2251 94.0819C66.6331 95.3064 66.3264 96.2253 65.4081 96.5314C64.4897 96.8364 63.775 96.3266 63.2652 95.1027ZM72.9592 94.1838L72.8567 93.9795C72.6525 94.0819 72.6525 94.0819 72.5512 93.8776L71.5298 92.2446L72.4488 91.7348L74.0812 92.8574C74.2843 92.9599 74.2843 92.9598 74.3868 93.0617C74.3868 93.1636 74.2843 93.1636 74.1836 93.2654L74.2849 93.3678L75.7142 92.6532L75.6118 92.4495C75.4075 92.5519 75.3063 92.4495 74.8971 92.1433L73.2647 91.1226C73.9794 90.5109 73.9794 89.7962 73.5714 89.0822C73.1623 88.2657 72.2445 88.062 71.1219 88.5723L68.7748 89.8987L68.8772 90.1024C69.0815 90.0005 69.0815 90.0005 69.1839 90.2048L71.5298 94.3886C71.6323 94.5923 71.6323 94.6947 71.5298 94.7971V94.899L72.9592 94.1838ZM70.4072 90.1018L71.5298 89.4896C72.0397 89.184 72.4488 89.2859 72.6525 89.6938C72.9592 90.1018 72.8567 90.5103 72.2445 90.8165L71.1219 91.4287L70.4072 90.1018ZM78.4687 87.6534L79.4889 86.8369C79.6932 86.6326 79.7956 86.6326 79.8969 86.7345L79.9993 86.6321L79.1834 85.6119L79.081 85.7143C79.1834 85.8161 79.081 85.918 78.9785 86.1223L77.8559 86.9388L76.9381 85.9186L78.7754 84.388C78.9785 84.1843 79.081 84.1843 79.1834 84.2861L79.2858 84.1837L78.4687 83.1635L78.3663 83.2653C78.4687 83.4696 78.3663 83.5715 78.2639 83.6739L75.3057 86.1228V86.2252C75.6112 86.0215 75.7137 86.0215 75.8155 86.2252L78.8761 90.0011C78.9785 90.1029 78.9785 90.2048 78.7748 90.409L78.8761 90.5115L81.9379 88.0625C82.1422 87.8583 82.2434 87.8583 82.3458 87.9601L82.4483 87.8577L81.6312 86.8375L81.5299 86.9393C81.6312 87.0418 81.5299 87.1436 81.3256 87.3479L79.3865 88.8785L78.4687 87.6534ZM85.2033 78.5717C84.6935 79.184 84.7954 80.1023 85.4076 80.6127C86.0198 81.1231 86.8358 81.0207 87.3456 80.409C87.8554 79.7968 87.7547 78.8784 87.1425 78.368C86.5302 77.8576 85.6113 77.9595 85.2033 78.5717Z" fill="#BDBDBD"/>
<path fill-rule="evenodd" clip-rule="evenodd" d="M34.9997 64.1843L51.7338 55.7148V46.5313L44.8973 50.0004L35.4076 40.5107V50.0004L38.5712 53.0622L34.9997 54.8983L25.918 45.919V55.1026L34.9997 64.1843Z" fill="#BDBDBD"/>
<path fill-rule="evenodd" clip-rule="evenodd" d="M35.9183 26.3271L19.1836 34.6948V43.9802L26.02 40.511L35.4079 50.0007V40.511L32.3467 37.348L35.9183 35.6131L45 44.5924V35.307L35.9183 26.3271ZM62.8572 64.7968L79.5913 56.4292V47.1438L72.8567 50.6129L63.3671 41.1233V50.6129L66.5301 53.7765L62.8572 55.5108L53.878 46.5315V55.8175L62.8572 64.7968Z" fill="#BDBDBD"/>
<path fill-rule="evenodd" clip-rule="evenodd" d="M63.8775 26.9395L47.1428 35.4084V44.5919L53.9787 41.1227L63.3671 50.6124V41.1227L60.2035 37.9597L63.8775 36.2249L72.8568 45.2041V36.0212L63.8775 26.9395Z" fill="#BDBDBD"/>
<path fill-rule="evenodd" clip-rule="evenodd" d="M37.7553 71.5309H37.8571C37.7553 71.5309 37.7553 71.4285 37.7553 71.4285C37.7553 71.0205 38.3675 70.5107 39.0816 70.5107C39.5914 70.5107 39.8981 70.7144 39.8981 71.0205C39.8981 72.4493 36.9388 72.653 36.9388 75.408H37.0406C37.0406 75.2043 37.143 75.2043 37.3467 75.2043H40.8165C41.0202 75.2043 41.0202 75.2043 41.1226 75.408H41.2244V73.9793H41.1226C41.0202 74.1836 41.0202 74.2854 40.8165 74.2854H38.0614C38.6736 73.1628 41.0202 72.5506 41.0202 71.1218C41.0202 70.1016 40.2036 69.5918 39.2853 69.5918C38.5712 69.5918 38.0614 69.6936 37.6528 70.1016C37.3467 70.4077 37.143 70.6114 37.0406 70.6114H36.9388L36.8369 70.7139L37.7553 71.5309ZM44.796 72.4493C44.796 71.0205 45.3058 70.5107 46.0199 70.5107C46.7346 70.5107 47.2444 71.0205 47.2444 72.4493C47.2444 73.7756 46.7346 74.3878 46.0199 74.3878C45.3064 74.3878 44.796 73.7756 44.796 72.4493ZM43.7758 72.4493C43.7758 74.0817 44.5923 75.2043 46.0205 75.2043C47.3474 75.2043 48.2657 74.0817 48.2657 72.4493C48.2657 70.7144 47.3474 69.5924 46.0205 69.5924C44.5917 69.5924 43.7758 70.7144 43.7758 72.4493ZM51.633 72.4493C51.633 71.0205 52.1428 70.5107 52.8563 70.5107C53.571 70.5107 54.0808 71.0205 54.0808 72.4493C54.0808 73.7756 53.571 74.3878 52.8563 74.3878C52.1434 74.3878 51.633 73.7756 51.633 72.4493ZM50.6117 72.4493C50.6117 74.0817 51.4287 75.2043 52.8563 75.2043C54.2857 75.2043 55.101 74.0817 55.101 72.4493C55.101 70.7144 54.2851 69.5924 52.8563 69.5924C51.4287 69.5924 50.6117 70.7144 50.6117 72.4493ZM58.4689 72.4493C58.4689 71.0205 58.9799 70.5107 59.6934 70.5107C60.408 70.5107 60.9178 71.0205 60.9178 72.4493C60.9178 73.7756 60.408 74.3878 59.6934 74.3878C58.9799 74.3878 58.4689 73.7756 58.4689 72.4493ZM57.4487 72.4493C57.4487 74.0817 58.3676 75.2043 59.6934 75.2043C61.1227 75.2043 61.9381 74.0817 61.9381 72.4493C61.9381 70.7144 61.1221 69.5924 59.6934 69.5924C58.3676 69.5924 57.4487 70.7144 57.4487 72.4493Z" fill="#BDBDBD"/>
</svg>
