<svg width="98" height="100" viewBox="0 0 98 100" fill="none" xmlns="http://www.w3.org/2000/svg">
<path fill-rule="evenodd" clip-rule="evenodd" d="M88.3503 18.0687C87.8542 19.5439 87.481 20.8957 87.1084 22.3709C85.9895 22.0021 84.8718 21.7562 83.877 22.6168C82.5109 24.8297 83.3796 28.0256 84.2502 30.4837C86.611 36.2613 90.2156 41.9153 89.7182 48.4299C89.4699 51.7486 89.0967 56.6656 84.9966 58.3868C82.8841 59.3703 80.3991 58.755 78.5344 57.2803L80.1507 53.1022C81.1443 53.4704 82.5116 54.2075 83.7535 53.5934C86.1143 50.6434 85.6182 45.8494 84.375 42.6536C81.641 36.139 77.1677 29.6238 79.4044 21.8804C80.2749 19.5446 81.3926 18.0699 83.7535 17.0864C85.4933 17.0858 87.481 16.9628 88.3503 18.0687ZM38.3973 17.3316C37.279 31.5902 35.1665 44.3741 33.924 58.5097H29.8233L27.5867 37.3678H27.2141L25.1016 58.5097C23.6108 58.3868 22.4924 58.6327 21.0009 58.5097C19.1369 44.1282 17.8943 32.3278 16.4035 17.3316H20.38C21.2499 25.0756 21.8715 33.9254 22.9898 41.7924L25.2258 17.3316H29.4507C30.3207 26.3044 31.0664 32.6967 31.8115 41.6694L32.0599 41.3006C32.6809 33.0649 33.675 25.3215 34.4207 17.3316H38.3973ZM74.0599 19.6669C78.409 26.4273 77.9129 36.3842 77.5397 44.2512C76.2965 49.4134 76.7939 57.0351 70.2082 58.3868C68.7161 58.6333 66.9768 58.5097 65.6107 58.5097V17.3316C68.5931 17.5775 72.4448 16.7169 74.0599 19.6669ZM69.9598 22.4939V53.101L70.2082 53.5921C70.4566 53.3456 70.7056 52.978 70.9539 52.6086C73.3148 47.6922 73.3148 42.0376 73.1906 35.646C72.818 30.9755 72.818 26.1815 69.9598 22.4939ZM61.8826 21.388C64.3676 28.0256 64.4924 37.3671 59.646 42.6529C59.7701 44.3735 61.1381 45.8488 61.6342 47.5699C62.38 49.9052 63.3747 53.1016 63.2505 55.0674V58.5097C62.1316 58.6327 60.6407 58.3868 59.2734 58.5097C59.0263 54.5763 58.2799 50.274 56.1674 47.0782V58.5097H51.9419V17.7005C55.9184 16.9628 60.2675 17.7005 61.8826 21.388ZM56.1668 22.4939V39.7024C58.4034 36.8754 59.2728 33.3107 59.2728 29.869C59.2728 27.042 58.4034 23.9692 56.1668 22.4939ZM17.2728 58.5097C16.2787 58.6327 14.7871 58.3868 13.1721 58.5097L12.4263 51.6263C11.1838 51.5034 10.0655 51.6263 8.94717 51.6263C8.6988 53.8386 8.45042 56.2968 8.32561 58.5091C7.0831 58.632 5.34322 58.3862 4.10071 58.5091L4.34909 57.1574C6.08897 43.7588 7.0831 29.9914 8.69817 17.331H12.7989L17.2728 58.5097ZM11.8054 46.4635L10.5629 33.5566L9.56811 46.4635H11.8054ZM50.5746 58.5097C49.5798 58.6327 48.0896 58.3868 46.4739 58.5097L45.7281 51.627C44.4856 51.504 43.3673 51.627 42.249 51.627C42.0006 53.8393 41.7522 56.2974 41.6274 58.5097C40.3849 58.6327 38.645 58.3868 37.4025 58.5097L37.6509 57.158C39.3908 43.7594 40.3849 29.992 42.0006 17.3316H46.1013L50.5746 58.5097ZM45.1072 46.4635L43.8647 33.5566L42.8705 46.4635H45.1072ZM18.6395 84.5681C20.0062 85.4286 19.7578 87.0262 18.3911 87.7639C17.7702 88.0104 16.776 88.3792 16.1545 87.8868C15.9061 86.7816 15.7819 85.7975 14.1662 85.7975C9.81649 86.1657 6.33797 89.4844 5.09484 93.2949C5.09484 93.9103 4.47327 94.8932 5.09484 95.3855C7.20729 96.7373 9.31974 95.5085 11.1838 94.402C12.5505 93.5414 14.4146 93.1732 13.6688 91.6973C14.042 90.3456 15.4087 90.4686 16.2787 90.3456C16.9002 90.3456 17.6453 90.8368 18.1427 91.4521C17.7702 94.1555 16.4028 96.4907 15.1603 98.7043C13.9178 98.3348 13.2963 101.285 12.4263 99.3184C12.6747 97.5972 13.0479 96.8602 13.4204 95.139C12.0538 95.3855 10.8112 96.7373 9.19555 97.2284C7.0831 97.8437 4.34909 99.0725 1.73988 97.9673C0.621566 96.1232 0.745754 93.5414 2.11307 91.5756C6.08897 86.9033 11.308 81.9863 18.6395 84.5681ZM4.2249 65.8849H89.4692V60.1073H4.2249V65.8849ZM2.11307 73.3824H91.8301V67.6048H2.11307V73.3824ZM0 81.004H93.6935V75.2265H0V81.004Z" fill="#BDBDBD"/>
<path fill-rule="evenodd" clip-rule="evenodd" d="M96.5517 72.522C97.5465 72.8915 98.291 74.3661 97.7936 75.3497C83.2548 71.9073 69.9592 79.529 58.2792 87.2724C57.1603 88.6241 54.7995 88.1329 54.1791 86.4118C51.6941 87.7635 49.4563 90.2217 46.4745 89.977L45.7287 89.2394C42.8705 90.0987 38.6456 92.434 36.409 89.977C34.0482 90.8364 32.0599 92.6805 29.3259 92.5575C28.8291 92.3123 28.4559 91.5753 27.9592 91.4523C25.3494 92.5575 22.8644 95.9999 19.7578 94.6481C19.7578 94.6481 18.6395 93.1735 19.7578 92.0664C20.8761 90.9593 27.0893 86.043 30.0716 85.7977C30.0716 85.7977 32.0599 85.0601 32.0599 85.9206C32.0599 86.9029 29.9475 87.1494 29.6991 88.3788C31.439 88.0094 31.439 89.3611 32.0599 90.0987C33.7998 89.977 35.0423 88.87 36.1606 87.517C37.0306 83.3389 40.2613 80.0195 43.4921 77.3148C44.2372 76.8237 45.6045 76.3326 45.9771 77.8072C46.4739 80.0195 45.3555 80.7572 44.2372 82.6013C42.8705 84.1995 41.0065 86.0423 39.1424 87.7629C38.7692 88.6235 39.8881 88.5005 40.3849 88.8693C47.0948 88.3782 51.1961 81.863 57.4087 80.51C58.2792 80.51 58.2792 80.8795 58.2792 81.2489C57.906 82.4777 56.291 82.2312 55.9184 83.3383C56.2916 83.8294 57.4093 82.7242 57.6577 83.9524C57.6577 84.5664 57.5335 84.8129 58.0309 85.1824C66.729 78.0518 77.1671 73.7508 88.4745 72.1526C91.3327 71.7844 93.8177 72.0309 96.5517 72.522Z" fill="#BDBDBD"/>
<path fill-rule="evenodd" clip-rule="evenodd" d="M10.1897 1.84348C9.94129 1.47466 9.31973 1.22878 8.82297 1.22878C7.82884 1.22878 7.2079 1.96642 7.2079 2.70406C7.2079 3.56402 7.82947 4.17872 8.82297 4.17872C9.32035 4.17872 9.94129 3.93284 10.1897 3.56402V5.16224C9.69292 5.28518 9.31973 5.40812 8.82297 5.40812C7.95303 5.40812 7.08371 5.16224 6.46215 4.67048C5.84121 4.17872 5.46802 3.44108 5.46802 2.70406C5.46802 1.96642 5.84121 1.35172 6.33796 0.859957C6.95953 0.245256 7.82884 0 8.82297 0C9.32035 0 9.81711 0.122941 10.1897 0.245881V1.84348ZM20.0068 3.31876H18.6401L19.2617 1.72054L20.0068 3.31876ZM20.3794 4.4246L20.7525 5.28518H22.4924L20.131 0.12294H18.3911L16.0303 5.28518H17.7701L18.1427 4.4246H20.3794ZM28.3318 0.12294H29.9475L32.9299 3.31876V0.12294H34.5449V5.28518H32.9299L29.9475 2.08936V5.28518H28.3318V0.12294ZM42.498 4.4246L42.1254 5.28518H40.3855L42.7463 0.12294H44.6104L46.9719 5.28518H45.232L44.7346 4.4246H42.498ZM43.7405 1.72054H43.6163L42.9953 3.31876H44.362L43.7405 1.72054ZM54.3033 1.22878H54.7995C55.7942 1.22878 56.54 1.72054 56.54 2.70406C56.54 3.68696 55.6694 4.17872 54.6753 4.17872H54.3033V1.22878ZM52.687 5.28518H55.0479C56.7884 5.28518 58.1551 4.17934 58.1551 2.70406C58.1551 1.22878 56.789 0.122317 55.0479 0.122317H52.687V5.28518ZM64.2434 0.12294H65.8597V5.28518H64.2434V0.12294ZM75.6762 3.31876H74.3089L74.9305 1.72054H75.0546L75.6762 3.31876ZM76.0482 4.4246L76.5455 5.28518H78.286L75.9252 0.12294H74.0605L71.6997 5.28518H73.4402L73.8134 4.4246H76.0482ZM84.0012 0.12294H85.6175L88.5987 3.31876H88.7228V0.12294H90.3379V5.28518H88.7228L85.7405 2.08936H85.6175V5.28518H84.0012V0.12294Z" fill="#BDBDBD"/>
<path fill-rule="evenodd" clip-rule="evenodd" d="M6.83472 15.3645V10.3252H8.5746L9.69292 12.6604L10.687 10.3252H12.5505V15.3645H11.4322V11.4317L9.69292 15.2422L7.82885 11.4317V15.3645H6.83472Z" fill="#BDBDBD" stroke="#BDBDBD" stroke-width="4.60427" stroke-miterlimit="2.613"/>
<path fill-rule="evenodd" clip-rule="evenodd" d="M20.5036 10.3252V13.1522C20.5036 13.8898 20.5036 14.5045 19.882 14.9963C19.3852 15.4881 18.5153 15.611 17.7695 15.611C17.0238 15.611 16.278 15.4881 15.7813 14.9963C15.1597 14.5045 15.0355 13.8898 15.0355 13.1522V10.3252H16.6512V13.0293C16.6512 13.644 16.7754 14.381 17.7695 14.381C18.8879 14.381 18.8879 13.644 18.8879 13.0293V10.3252H20.5036ZM26.3441 15.4874H24.7284V11.4317H23.3618V10.3252H27.7108V11.4317H26.3441V15.4874ZM36.0364 10.3252V13.1522C36.0364 13.8898 36.0364 14.5045 35.4149 14.9963C34.9181 15.4881 34.0482 15.611 33.3024 15.611C32.5567 15.611 31.8109 15.4881 31.3142 14.9963C30.6926 14.5045 30.5684 13.8898 30.5684 13.1522V10.3252H32.1835V13.0293C32.1835 13.644 32.3083 14.381 33.3018 14.381C34.4201 14.381 34.4201 13.644 34.4201 13.0293V10.3252H36.0364ZM42.7464 13.521H41.5039L42.1254 11.9228L42.7464 13.521ZM43.2431 14.5045L43.6157 15.4881H45.3556L42.9947 10.3258H41.2549L38.894 15.4881H40.5097L41.0065 14.5045H43.2431ZM49.8288 14.2587H52.936V15.4874H48.2138V10.3252H49.8288V14.2587ZM60.2675 11.4317V12.2916H62.5042V13.3981H60.2675V15.4874H58.6524V10.3252H63.3741V11.4317H60.2675ZM72.0723 10.3252V13.1522C72.0723 13.8898 71.9481 14.5045 71.3265 14.9963C70.8304 15.4881 70.0846 15.611 69.3383 15.611C68.5938 15.611 67.7232 15.4881 67.2258 14.9963C66.6042 14.5045 66.6042 13.8898 66.6042 13.1522V10.3252H68.2206V13.0293C68.2206 13.644 68.2206 14.381 69.3383 14.381C70.333 14.381 70.4572 13.644 70.4572 13.0293V10.3252H72.0723ZM75.4279 10.3252H77.0429L80.0253 13.3981V10.3252H81.6404V15.4874H80.0253L77.0429 12.2916V15.4874H75.4279V10.3252ZM86.611 11.4317H86.9842C88.1019 11.4317 88.8477 11.9234 88.8477 12.9063C88.8477 13.8892 87.9784 14.2587 86.9842 14.2587H86.611V11.4317ZM84.996 15.4874H87.3568C89.0961 15.4874 90.4628 14.2587 90.4628 12.9063C90.4628 11.4317 89.0967 10.3252 87.3568 10.3252H84.996V15.4874Z" fill="#BDBDBD"/>
</svg>
