<svg width="83" height="100" viewBox="0 0 83 100" fill="none" xmlns="http://www.w3.org/2000/svg">
<path fill-rule="evenodd" clip-rule="evenodd" d="M74.3231 55.501C79.3151 47.4722 82.0147 40.7261 82.554 35.1937C83.9703 20.0142 72.6358 9.35522 48.4846 3.4183C24.6022 -3.46304 9.42265 0.0452401 3.01379 13.9426C0.719831 18.9351 -0.225116 26.1537 0.0447926 35.5989C0.315236 44.3017 1.59637 53.5438 3.82298 63.3262C6.18428 72.974 8.95017 81.137 12.2559 87.8158C15.7642 94.9665 19.2046 98.9467 22.6455 99.7569C26.0191 100.702 31.0784 98.8799 37.6898 94.4945C43.8961 90.3117 50.3723 84.6453 57.1195 77.4935C64.0008 70.1408 69.7352 62.8543 74.3231 55.501Z" fill="#656565"/>
<path fill-rule="evenodd" clip-rule="evenodd" d="M45.5834 44.2347L46.7303 49.8344L50.7106 50.914L49.0906 44.9097C49.7661 44.9097 50.4401 44.7077 51.1146 44.3699C51.7223 43.898 52.1943 43.4255 52.3295 42.7505C52.6667 41.6035 52.4642 40.5917 51.7218 39.782C50.9794 38.8376 49.6977 38.1631 47.9441 37.6906C46.2573 37.2187 44.8405 37.0834 43.5588 37.2187L40.6582 48.1476L43.2894 48.8894L43.3562 48.6195L44.3012 48.8894L45.5834 44.2347ZM46.7977 39.4442L47.4733 39.5115C48.1478 39.7141 48.5529 39.984 48.7539 40.3886C48.8896 40.7932 48.8896 41.2657 48.687 42.0075C48.3498 43.3571 47.4733 43.8969 46.1911 43.4918L45.7859 43.3571L46.7977 39.4442ZM63.1916 48.0797C63.6635 46.3255 63.5956 44.774 63.0558 43.5596C62.3813 42.1433 60.9649 41.131 58.873 40.5912C57.3899 40.1866 56.0398 40.0514 54.826 40.2539L51.9917 50.643C52.8698 51.3854 54.1504 51.9925 55.8372 52.4645C57.8613 53.0043 59.5481 52.8017 60.8971 51.8579C61.9767 51.0481 62.7191 49.8338 63.1916 48.0797ZM59.8858 44.0995C60.0205 44.7066 59.9527 45.7189 59.6154 47.0006C59.2113 48.4169 58.8062 49.3613 58.3337 49.8338C57.8618 50.3058 57.322 50.3736 56.5801 50.2389L56.0403 49.9685L57.9965 42.7499L58.4695 42.8178C59.2782 43.0198 59.7512 43.425 59.8858 44.0995Z" fill="#BDBDBD"/>
<path fill-rule="evenodd" clip-rule="evenodd" d="M5.91424 21.3633C-1.10178 44.0987 10.0297 53.6786 39.4438 50.0356C16.8437 51.655 5.71221 42.0746 5.91424 21.3633ZM39.4438 50.0356C47.8099 49.3605 57.7939 47.2018 69.3973 43.491C57.8618 46.7972 47.8767 48.956 39.4438 50.0356ZM75.8072 43.4242L73.9178 43.8966L72.4331 42.6144L72.2989 44.5706L70.5448 45.5829L72.4331 46.3247L72.8382 48.2815L74.1204 46.7299L76.1444 46.9319L75.0648 45.2456L75.8072 43.4242Z" fill="#BDBDBD"/>
<path fill-rule="evenodd" clip-rule="evenodd" d="M38.4996 28.5152C38.9042 28.6498 39.1741 28.7851 39.242 29.055C39.3093 29.3249 39.242 29.6621 39.0394 30.1346L37.3532 33.7102L39.0394 34.1148L40.7262 30.4719C41.1308 29.6621 41.1987 29.0555 40.9961 28.6504C40.7262 28.2458 40.1864 27.9759 39.242 27.6381C38.1623 27.3682 37.1506 27.3008 36.0709 27.5034L33.7102 32.6979L35.3291 33.1025L37.6231 28.3126L38.4996 28.5152ZM34.0474 28.0427C34.25 26.9631 33.6428 26.1539 32.4285 25.8161C31.5515 25.614 30.7417 25.6814 29.932 26.0855C29.1902 26.4906 28.583 27.2324 28.1784 28.11C27.7059 29.0544 27.6386 29.7963 27.9085 30.404C28.1784 31.0111 28.7856 31.4836 29.73 31.753C30.4045 31.8877 31.2142 32.0229 32.226 31.8877L32.6306 31.078L30.8764 30.8759C30.2019 30.6734 29.7294 30.4708 29.5948 30.1335C29.3922 29.7963 29.3922 29.3238 29.7294 28.7845L33.3724 29.729C33.7775 28.9876 33.9801 28.4478 34.0474 28.0427ZM32.0234 26.6937C32.3606 26.8284 32.5632 26.9636 32.5632 27.2335C32.5632 27.5034 32.4285 27.908 32.1586 28.4478L30.0672 27.8407C30.6738 26.8962 31.281 26.4911 32.0234 26.6937ZM20.4195 22.6456C19.6097 22.4436 18.9352 22.3762 18.3959 22.5782C17.8561 22.7803 17.3837 23.2527 17.1816 23.7252C16.9117 24.4676 17.1143 25.1421 17.7888 25.7493L18.5312 26.3564C18.8005 26.6263 18.8684 26.8284 18.8005 27.0983C18.5985 27.5034 18.1934 27.6381 17.4515 27.4361L15.6974 26.6263L15.2928 27.5034L17.4515 28.4484C18.3965 28.7183 19.1383 28.7183 19.6781 28.5152C20.1501 28.3131 20.4879 27.9759 20.7578 27.3008C21.0277 26.6263 20.8251 26.0192 20.218 25.412L19.4756 24.8049C19.071 24.4676 18.9358 24.1977 19.071 23.9951C19.2057 23.5905 19.6108 23.4553 20.2853 23.5905C20.8251 23.7252 21.3649 23.9951 21.9042 24.3324L22.3088 23.5227C21.5664 23.0507 20.8914 22.7808 20.4195 22.6456ZM27.7054 25.9513L28.1779 25.0742C27.3681 24.6018 26.761 24.3318 26.2885 24.1972C25.4788 23.9946 24.8043 23.9946 24.1971 24.1298C23.934 24.2261 23.6951 24.3785 23.497 24.5766C23.2989 24.7747 23.1464 25.0137 23.0501 25.2768C22.7129 26.0192 22.9828 26.6937 23.6573 27.3008L24.3318 27.9759C24.6017 28.1784 24.7369 28.3805 24.6017 28.6504C24.467 29.1229 23.9945 29.1902 23.32 28.9876L21.4986 28.1784L21.094 29.0555L23.3206 29.9999C24.265 30.3372 25.0074 30.3372 25.5467 30.0673C26.0191 29.9326 26.3564 29.4601 26.5589 28.8529C26.8962 28.1784 26.6936 27.5713 26.0197 26.9641L25.3446 26.4243C24.9395 26.0197 24.8048 25.7498 24.8727 25.6146C25.0074 25.1421 25.4798 25.0074 26.1544 25.2095C26.6263 25.3447 27.2334 25.6146 27.7054 25.9513ZM45.6514 27.7733L43.9646 27.3682L41.4007 32.9005C41.1308 33.575 41.0635 34.0475 41.1308 34.3847C41.3328 34.722 41.738 34.9246 42.3451 35.0592L44.0987 35.1939L44.5039 34.3842L43.6936 34.1822C43.3563 34.1148 43.1538 34.047 43.087 33.8449C42.9512 33.7102 43.0191 33.4403 43.1538 33.1025L44.5033 30.2693L46.4595 30.7412C47.7412 31.0785 48.6182 31.1464 49.158 30.8086L49.3606 30.5387L44.9085 29.3244L45.6514 27.7733ZM11.0421 40.2538L14.8203 41.2661L13.808 28.7177L10.1651 27.7054L3.08118 38.095L6.31955 38.9721L7.39864 37.1506L10.9743 38.0956L11.0421 40.2538ZM8.47828 35.4638L11.0416 31.0111H11.109C11.0212 31.5011 10.9761 31.9977 10.9743 32.4954L11.0416 36.1378L8.47828 35.4638ZM25.8839 31.9556L23.3206 31.2811L20.3521 36.746C20.1496 37.2185 19.9475 37.5558 19.745 37.9598L20.4195 30.4713L16.8444 29.5269L16.5745 41.738L19.8128 42.6151L22.5114 37.8925C22.714 37.5552 22.9165 37.1501 23.0512 36.8128C22.9839 37.218 22.9839 37.6226 22.9839 38.0272L23.0512 43.4916L26.2896 44.3013L32.0907 33.6424L28.8524 32.6979L26.1538 38.2976C25.9513 38.7701 25.7492 39.1073 25.614 39.5793L25.6813 38.2297L25.8839 31.9556ZM38.7695 35.3965L35.1265 34.3842L28.0426 44.7738L31.281 45.6509L32.3606 43.8294L35.9363 44.7738L36.0036 46.9325L39.7818 47.9448L38.7695 35.3965ZM33.4397 42.1431L36.0036 37.6899L36.0709 37.7578C35.9828 38.2248 35.9377 38.6989 35.9363 39.1741L36.0036 42.8171L33.4397 42.1431ZM71.9618 47.0004L73.2435 45.1789C72.569 44.5039 71.5567 43.9646 70.2077 43.6274C68.926 43.2901 67.7785 43.3575 66.7668 43.8973C66.3222 44.1343 65.931 44.4601 65.6177 44.8547C65.3043 45.2492 65.0754 45.704 64.9453 46.1907C64.608 47.6076 65.08 48.8892 66.5642 50.0368C67.5091 50.7791 67.8459 51.3852 67.7112 51.9251C67.5754 52.6006 67.0356 52.8021 66.0912 52.5327C65.3499 52.3302 64.7427 51.9929 64.2708 51.4531L62.8544 53.544C63.4611 54.2195 64.5402 54.7588 66.1596 55.2308C67.5092 55.568 68.6556 55.5012 69.7347 55.0282C70.7475 54.4884 71.4215 53.7465 71.6909 52.7348C71.8945 51.9924 71.8945 51.3184 71.6909 50.7786C71.4215 50.0362 70.8138 49.2938 69.8026 48.4847C69.3306 48.0801 68.9923 47.8102 68.8576 47.5402C68.6551 47.2703 68.5882 46.9325 68.6551 46.6626C68.8576 45.9881 69.3974 45.7856 70.2072 45.9881C70.8822 46.1907 71.422 46.4606 71.9618 47.0004ZM5.91441 21.3639L5.84707 21.7685C6.11698 22.2405 6.85936 22.6456 8.00581 22.9828L9.82729 23.4548C9.08544 25.2089 9.62526 26.3559 11.5141 26.8284C12.1886 27.0304 12.9983 27.0977 14.0101 27.0304L14.3473 26.1533L12.6605 26.0186C11.986 25.8161 11.5135 25.614 11.3789 25.2763C11.1768 24.939 11.2442 24.4665 11.5141 23.9273L15.157 24.8717C15.5616 24.0619 15.7642 23.5227 15.8315 23.1175C15.9662 22.0379 15.427 21.296 14.2126 20.9583C13.4029 20.7562 12.6611 20.8236 12.0539 21.0935C11.3115 21.3634 10.7722 21.9027 10.2998 22.5777L5.91441 21.3639ZM11.9187 22.9834C12.4585 22.039 13.0657 21.6344 13.7402 21.8364C14.1448 21.9037 14.3473 22.1063 14.3473 22.3089C14.3473 22.5788 14.2126 22.9834 13.9427 23.5905L11.9187 22.9834Z" fill="#BDBDBD"/>
</svg>
