<svg width="700" height="194" viewBox="0 0 700 194" fill="none" xmlns="http://www.w3.org/2000/svg">
<path d="M700 194L0 0V194H700Z" fill="#EBF3FF"/>
<g clip-path="url(#clip0_484_3763)">
<path fill-rule="evenodd" clip-rule="evenodd" d="M119.871 71.2871L119.342 73.2305L120.416 74.9873H121.909L122.982 73.2305L122.453 71.2871H119.871Z" fill="#1B364E"/>
<path fill-rule="evenodd" clip-rule="evenodd" d="M693.809 67.7737V65.2706H696.329V60.4355H684.833V54.6676H680.913V50.361H679.171V43.2716H678.129V50.361H676.387V54.6676H672.467V60.4355H668.656V59.9225H668.033V56.0979H664.502V59.9225H662.573L655.604 56.7975V53.4704H654.562V56.3466L651.622 55.0251V41.5614H650.58V54.5587L617.291 39.6336V38.5453H615.984V33.3837H615.409V38.5453H614.678V36.3843H614.118V38.5453H612.811V40.0689L564.682 61.4305H547.804H538.658L515.371 68.8154L515.496 69.6393H515.807V70.4322H514.998V72.158H526.758V70.4322H525.949V69.6393H612.142V69.9347H609.793V70.7587H575.82C575.633 70.4322 575.291 70.199 574.871 70.199H570.422C569.816 70.199 569.318 70.6965 569.318 71.3029C569.318 71.9092 569.816 72.4067 570.422 72.4067C570.967 72.4067 571.433 72.0025 571.511 71.4739H573.767C573.86 72.0025 574.311 72.4067 574.856 72.4067C575.462 72.4067 575.96 71.9092 575.96 71.3029C575.96 71.2718 575.944 71.2407 575.944 71.2096H611.256V98.2459H596.042V100.236H598.811V103.236H595.404V155.817H584.951V115.519H583.784V111.772H582.4V115.519H580.813V118.053H579.818V104.776H578.433V118.053H569.007V98.1059H567.404V89.6484H566.02V98.1059H564.869V102.739H553.062V98.1059H548.924V102.739H537.118V77.7704H532.98V87.4251H523.351V83.2896H521.967V87.4251H521.173V77.7704H517.02V171.799H515.869V105.087H514.484V171.799H506.162V143.208H508.853V137.844H506.069V120.012H505.353V137.844H497.327V124.038H499.629V117.524H486.204V106.781H490.42V101.791H487.356V98.9299H484.509V97.0332H480.247V98.9299H475.253C475.129 93.675 470.991 89.3841 465.796 89.0265V63.9025H464.38V89.0265C463.307 89.1042 462.264 89.3374 461.3 89.7261V81.4084H460.584V90.0526C457.224 91.7161 454.907 95.1831 454.907 99.1631V101.791H449.089L445.604 68.0846H446.289V66.0169H444.593V60.1868H443.956V66.0169H443.022V60.4666C443.022 59.2695 442.12 58.29 440.969 58.1345V55.7559H440.331V58.1345C440.176 58.1501 440.02 58.1967 439.88 58.2434V43.567H439.242V58.5854C438.667 59.0207 438.293 59.7048 438.293 60.4666V66.0169H435.027V68.0846H435.711L432.227 101.791H425.989V106.781H430.204V117.524H424.138V109.595H423.438V117.524H420.591V99.4119H419.891V117.524H416.796V124.038H419.098V137.844H407.587V143.208H410.278V147.452H401.66V150.111H392.14V109.02H393.104V104.698H390.273V100.376H393.431V98.5413H375.807V100.376H378.964V104.698H376.133V109.02H378.451V139.71L373.458 138.544V136.01H362.507L349.409 132.978V124.987H346.78L342.969 107.294V92.5712H344.556V90.4102H343.14L342.58 84.3157H357.513C357.513 84.3157 357.513 84.3624 357.513 84.3935C357.513 84.8132 357.856 85.1708 358.276 85.1708V115.083L357.591 117.54L358.96 119.747H360.842L362.211 117.54L361.698 115.659V85.1242C362.009 85.0309 362.258 84.7355 362.258 84.3935C362.258 83.9582 361.9 83.6161 361.48 83.6161H358.322C358.027 83.6161 357.793 83.7871 357.653 84.0203H342.58L342.502 83.2274H371.747V83.7871H371.171V85.0154H379.509V83.7871H378.933V83.2274H379.151L379.244 82.6367L362.724 77.4129H362.631H356.222H344.244L341.864 76.3557L341.398 71.334V64.4933H342.782V62.3322H340.62V35.3426H339.889V62.3167H337.727V64.4777H339.111V71.3029L338.769 74.9564L310.116 62.239V61.1662H309.182V59.6426H308.778V61.1662H308.249V57.4971H307.844V61.1662H306.927V61.9436L294.28 67.6182V63.7626H297.609V58.9585H291.324V51.2783H290.438V58.9585H284.651V53.6104H286.813V49.4749H276.951V44.5309H273.591V40.8307H272.098V34.7363H271.211V40.8152H269.718V44.5154H266.358V49.4593H262.547V45.7436H259.529V49.4593H254.582V47.8735H251.907V43.4893H251.02V47.8735H248.5V33.2749H247.613V47.8735H245V49.4593H243.164V45.7436H241.033V49.4593H239.182V53.5948H241.344V58.943H234.889V45.4326H234.002V58.943H228.387V63.747H231.716V72.158H228.387V76.962H231.716V85.3729H228.387V90.177H231.716V98.5724H228.387V103.376H231.716V111.787H228.387V116.591H231.716V127.816L224.389 129.791V150.173H194.071V142.275L191.769 140.658V131.517H190.307V139.632L188.176 138.14V128.734H185.858V113.7H187.398V111.679H185.858V94.8877H187.398V92.8666H185.453V84.0048H183.991V92.8666H171.764V90.4724H154.996V92.8666H101.936V94.8877H104.751V97.9505H101.282V132.387H98.6844V131.066H97.2222V150.22H95.1689V139.756H94.4378V155.63H86.1156V157.651H82.7867V69.8104H118.098C118.098 69.8104 118.082 69.8726 118.082 69.9036C118.082 70.51 118.58 71.0075 119.187 71.0075C119.731 71.0075 120.198 70.6033 120.276 70.0902H122.531C122.624 70.6188 123.076 71.0075 123.62 71.0075C124.227 71.0075 124.724 70.51 124.724 69.9036C124.724 69.2973 124.227 68.7998 123.62 68.7998H119.171C118.767 68.7998 118.424 69.033 118.222 69.3595H84.2489V68.5355H81.9V68.2401H168.093V69.033H167.284V70.7587H179.044V69.033H178.236V68.2401H178.547L178.671 67.4161L155.384 60.0468H155.26L146.238 60.0313H129.36L81.2311 38.6697V37.1461H79.9244V34.985H79.3644V37.1461H78.6333V32H78.0733V37.1616H76.7667V38.2499L31.4844 58.5543H25.4022V59.9846H24.5V61.0418H23.9244V65.7681H24.5V66.8253H25.4022V68.2557H30.2711H33.9578V68.7687H32.6822V70.7432H34.7822V71.3962H44.0689V70.7432H46.1689V69.8104H73.5622V157.62H70.1245V159.61H59.2044V151.883H56.4978V147.981H47.9111V151.883H44.8156V143.255H48.6578V136.072H44.1933V129.76H39.62V136.072H35.2489V114.166H33.1644V136.072H30.0378L22.96 128.889H15.26V119.779H10.6867V128.889H0V194.016H700V67.7737H693.824H693.809ZM443.193 71.6449L440.673 73.7593L438.418 71.8781L437.904 71.4583H443.442L443.193 71.6605V71.6449ZM444.422 71.8315L444.998 77.3818L443.193 75.8737L441.389 74.3656L443.193 72.8576L444.422 71.8315ZM438.418 73.0752L439.958 74.3656L438.418 75.656L436.769 77.0397L436.256 77.475L436.769 72.5622L436.847 71.7848L438.418 73.1063V73.0752ZM438.418 76.8532L440.673 74.972L443.193 77.0864L444.562 78.2369H436.784L438.418 76.8687V76.8532ZM438.418 79.1541H444.173L443.193 79.8382L440.673 81.595L438.418 80.0248L437.173 79.1541H438.418ZM443.193 84.4557L445.293 85.9171H436.053L436.769 85.4196L438.418 84.2691L440.673 82.6988L443.193 84.4557ZM438.418 86.8499H444.344L443.193 87.6117L440.673 89.2597L438.418 87.7827L437.002 86.8499H438.418ZM443.193 92.0115L445.651 93.6284H435.696L436.769 92.9288L438.418 91.8405L440.673 90.3635L443.193 92.0115ZM436.769 94.5612H445.62L443.193 95.8672L440.673 97.2198L438.418 96.0071L436.769 95.1209L435.742 94.5612H436.769ZM443.193 99.6296L446.351 101.324H435.011L436.769 100.376L438.418 99.4896L440.673 98.277L443.193 99.6296ZM447.424 100.858L443.193 98.5724L441.638 97.7328L443.193 96.8933L446.818 94.9344L447.424 100.842V100.858ZM446.631 93.162L443.193 90.9077L441.513 89.8038L443.193 88.7L445.978 86.881L446.631 93.162ZM443.193 83.3363L441.482 82.1392L443.193 80.942L445.216 79.5273L445.791 85.1242L443.193 83.3052V83.3363ZM444.282 70.5255H436.971L437.22 68.1002H444.033L444.282 70.5255ZM436.053 79.4806L436.769 79.9781L438.418 81.1286L439.864 82.1392L438.418 83.1497L436.769 84.3002L435.462 85.2175L436.053 79.4806ZM435.291 86.8499H435.322L436.769 87.7983L438.418 88.8866L439.833 89.8194L438.418 90.7522L436.769 91.8405L434.622 93.2397L435.291 86.8655V86.8499ZM434.451 94.9033L436.769 96.147L438.418 97.0332L439.709 97.7328L438.418 98.4324L436.769 99.3186L433.829 100.904L434.451 94.9033ZM435.338 113.373V108.165H437.951V113.373H435.338ZM443.956 113.373V108.165H446.553V113.373H443.956ZM452.573 113.373V108.165H455.171V113.373H452.573ZM461.191 113.373V108.165H463.804V113.373H461.191ZM469.809 113.373V108.165H472.422V113.373H469.809ZM478.411 113.373V108.165H481.009V113.373H478.411ZM359.038 84.5334H360.64C360.702 84.8754 360.982 85.1397 361.324 85.1708V115.099H358.556V85.1242C358.804 85.0154 358.991 84.7977 359.038 84.5334ZM532.964 106.89V107.356H523.336V106.89H532.964ZM532.964 108.118V118.053H523.336V108.118H532.964ZM601.269 65.2551H597.287L593.631 62.2701H601.284V65.2551H601.269ZM601.269 65.6904V68.4889L597.831 65.6904H601.269ZM596.322 65.2551H592.822V62.41L596.322 65.2551ZM592.216 65.2551H588.233L584.578 62.2701H592.216V65.2551ZM592.216 65.6904V68.4889L588.778 65.6904H592.216ZM587.269 65.2551H583.956V62.5655L587.269 65.2551ZM583.349 62.2701V65.2551H579.367L575.711 62.2701H583.364H583.349ZM583.349 65.6904V68.4889L579.911 65.6904H583.349ZM578.402 65.2551H574.902V62.41L578.402 65.2551ZM574.296 65.2551H570.313L566.658 62.2701H574.296V65.2551ZM574.296 65.6904V68.4889L570.858 65.6904H574.296ZM565.787 62.3478L569.349 65.2395H565.787V62.3478ZM565.18 65.2551H561.944L565.18 62.6276V65.2551ZM569.878 65.6904L573.689 68.7998H565.771V65.6904H569.878ZM574.902 65.6904H578.931L582.742 68.7998H574.902V65.6904ZM583.956 65.6904H587.813L591.624 68.7998H583.956V65.6904ZM592.822 65.6904H596.851L600.662 68.7998H592.807V65.6904H592.822ZM601.891 65.877L604.909 67.3384L604.458 68.7998H601.891V65.877ZM605.516 67.6338L607.911 68.7998H605.158L605.516 67.6338ZM605.64 67.1985L605.889 66.4056L607.911 68.3023L605.64 67.1985ZM605.033 66.9031L601.891 65.3795V62.6432L605.344 65.8925L605.033 66.9031ZM601.953 61.5393L601.658 61.4305H583.52H565.787L613.2 40.3798L605.624 64.9752L601.953 61.5238V61.5393ZM613.76 40.8307L616.529 42.6808H613.184L613.76 40.8307ZM613.06 43.1317H616.56L612.298 45.5881L613.06 43.1317ZM612.018 46.5209L618.613 50.3299H610.836L612.002 46.5209H612.018ZM612.904 46.3188H618.053L619.173 49.9413L612.904 46.3188ZM612.998 45.8835L617.167 43.4737L617.913 45.8835H612.998ZM614.398 40.5198H616.28L616.762 42.09L614.398 40.5198ZM610.711 50.7653H618.878L608.953 56.4866L610.711 50.7653ZM619.516 51.0917L621.273 56.8286H609.576L619.516 51.0917ZM616.964 40.5042L642.911 57.2017V60.4511H640.749V61.415H636.051H626.718L626.376 61.586L624.276 64.3378L616.949 40.5042H616.964ZM627.278 62.41L630.467 65.0063H627.278V62.41ZM628.071 62.2701H635.709V64.9908H631.416L628.071 62.2701ZM643.269 65.4417V67.2762L641.013 65.4417H643.269ZM640.764 64.9908H640.484L637.14 62.2701H640.78V64.9908H640.764ZM639.504 64.9908H636.331V62.41L639.504 64.9908ZM635.724 65.4417V68.4889L631.976 65.4417H635.724ZM636.331 65.4417H640.049L643.269 68.0691V68.7998H636.331V65.4417ZM662.573 60.4511H658.747V58.6942L662.573 60.42V60.4511ZM647.547 60.4511H645.4V58.8031L647.547 60.1868V60.4666V60.4511ZM626.656 62.6432V65.2551L624.944 66.4367L624.602 65.3328L626.656 62.6432ZM624.353 66.8253L622.471 68.1313L624.104 66.0013L624.369 66.8409L624.353 66.8253ZM624.493 67.2762L624.96 68.7998H622.284L624.493 67.2762ZM625.676 68.7998L625.084 66.872L626.656 65.7837V68.7998H625.676ZM627.278 65.4417H631.011L633.204 67.2296H632.893V68.7998H627.278V65.4417ZM633.92 67.8203L635.118 68.7843H633.92V67.8203ZM642.258 69.6393H643.284V70.7587H633.936V69.6393H642.258ZM643.269 71.194V72.5466L633.92 80.1958V71.194H643.269ZM620.511 155.801V154.666L620.744 154.853V155.801H620.511ZM612.127 110.124L614.88 112.347H612.127V110.124ZM612.127 112.829H615.487L616.793 113.871L613.511 116.7H612.111V112.813L612.127 112.829ZM612.127 89.1198H617.836L612.127 94.0637V89.1198ZM612.127 76.962H618.007L612.127 82.1392V76.962ZM618.162 154.029H612.407L615.922 150.981L618.162 152.769V154.029ZM600.833 135.465L610.742 127.505L611.287 127.941V136.134H600.833V135.465ZM600.833 134.237V119.545L609.98 126.899L600.833 134.253V134.237ZM612.656 106.128L618.162 101.355V101.806L612.78 106.128H612.656ZM620.744 100.951V115.798L620.511 115.612V101.138L620.744 100.951ZM618.162 151.541L617.96 151.37H618.162V151.541ZM619.313 102.102H620.091V104.682H618.831V102.475L619.313 102.086V102.102ZM618.847 105.242H620.107V107.823H618.847V105.242ZM618.847 108.383H620.107V110.963H618.847V108.383ZM618.847 111.523H620.107V114.104H618.847V111.523ZM620.091 114.664V115.285L619.313 114.664H620.091ZM620.091 116.529V116.716H618.831V115.519L620.091 116.529ZM628.227 129.946L623.84 133.475H622.736V118.923L628.227 123.339V129.946ZM618.847 118.69H620.107V118.737L618.847 119.747V118.69ZM618.847 124.101H620.107V126.681H618.847V124.101ZM618.847 127.241H620.107V129.822H618.847V127.241ZM618.847 130.382H620.107V132.962H619.064L618.847 132.791V130.382ZM620.091 119.981V120.385H619.578L620.091 119.981ZM618.893 120.96H620.107V123.541H618.847V121.007L618.893 120.96ZM618.162 132.232L616.296 130.739H618.162V132.232ZM620.511 119.654L620.744 119.468V133.475H620.511V119.67V119.654ZM618.162 118.752V120.307L616.078 121.986L612.344 118.752H618.178H618.162ZM618.162 121.551V123.805L616.809 122.639L618.162 121.551ZM617.696 123.976H615.144L616.467 122.903L617.696 123.976ZM618.162 130.242H615.689L613.947 128.842L618.162 125.189V130.242ZM614.149 130.242H612.329L613.2 129.48L614.149 130.242ZM612.127 129.837V128.625L612.858 129.2L612.127 129.822V129.837ZM614.756 130.739L618.147 133.46H616.762V134.502L612.407 130.724H614.756V130.739ZM616.762 140.736L615.409 141.824H612.733L616.762 138.326V140.736ZM616.669 150.344L616.762 150.266V150.422L616.669 150.344ZM628.227 131.174V133.46H625.38L628.227 131.174ZM628.227 122.095L623.996 118.69H628.227V122.095ZM620.091 101.542H620.013L620.091 101.48V101.542ZM618.162 103.034V106.128H614.32L618.162 103.034ZM618.162 113.731L617.898 113.513L618.162 113.28V113.731ZM618.162 114.959V116.7H614.196L617.151 114.15L618.162 114.959ZM612.127 119.157L615.72 122.266L613.604 123.976H612.142V119.157H612.127ZM612.127 124.831H612.547L612.127 125.158V124.831ZM614.071 124.831H617.913L613.589 128.578L612.127 127.397V126.386L614.071 124.816V124.831ZM612.127 131.081L616.762 135.092V136.134H612.127V131.081ZM616.327 138.124L612.127 141.762V138.124H616.327ZM612.127 143.006L612.998 143.768L612.127 144.467V143.006ZM612.422 142.679H614.351L613.34 143.488L612.407 142.679H612.422ZM615.891 142.679H616.762V146.442L614.087 144.125L615.891 142.679ZM616.762 149.675L616.311 150.064L614.491 148.603H616.762V149.691V149.675ZM615.58 150.702L612.127 153.687V148.587H612.951L615.564 150.686L615.58 150.702ZM618.847 153.329L620.107 154.34V154.526H618.847V153.313V153.329ZM618.847 152.101V151.961H620.107V153.111L618.847 152.101ZM628.227 116.7H622.736V100.205H628.227V116.7ZM618.162 82.4812H612.407L618.162 77.4129V82.4812ZM618.847 89.8349H620.107V92.4157H618.847V89.8349ZM618.847 89.2752V86.6944H620.107V89.2752H618.847ZM618.847 86.1347V83.5539H620.107V86.1347H618.847ZM618.847 82.9942V80.4134H620.107V82.9942H618.847ZM618.847 79.8537V77.2729H620.107V79.8537H618.847ZM618.847 76.7132V74.1324H620.107V76.7132H618.847ZM618.847 92.991H620.107V95.5718H618.847V92.991ZM618.847 73.5727V71.194H620.107V73.5727H618.847ZM618.162 71.2718V75.9981L612.78 71.2718H618.162ZM618.162 82.9787V88.1092L612.329 82.9787H618.162ZM618.162 89.4307V94.4835H612.329L618.162 89.4307ZM618.847 96.1315H620.107V98.2303H618.847V96.1315ZM620.091 100.22L618.831 101.246V100.22H620.091ZM612.127 105.988V100.889H618.007L612.127 105.988ZM613.247 106.968H618.147V111.865L612.858 107.279L613.247 106.968ZM617.54 113.233L617.027 112.829H618.007L617.54 113.233ZM611.271 125.842L610.727 126.277L601.3 118.706H611.271V125.842ZM598.842 122.81H596.307V118.799H598.842V122.81ZM598.842 123.681V127.692H596.307V123.681H598.842ZM598.842 128.578V132.589H596.307V128.578H598.842ZM598.842 142.384H596.307V138.373H598.842V142.384ZM598.842 143.27V147.281H596.307V143.27H598.842ZM600.833 138.855L609.98 146.208L600.833 153.562V138.87V138.855ZM601.456 138.124H611.271V145.151L610.727 145.587L601.456 138.124ZM612.127 145.695L613.744 144.405L616.762 147.017V148.105H613.884L612.127 146.69V145.68V145.695ZM612.344 148.105H612.127V147.934L612.344 148.105ZM612.127 154.93L613.138 155.801H612.127V154.93ZM613.807 155.801L612.329 154.511H618.162V155.801H613.822H613.807ZM618.847 155.801V155.086H620.107V155.801H618.847ZM620.744 153.624L620.511 153.438V151.386H620.744V153.64V153.624ZM632.893 81.0509L628.227 84.8754V98.2303H620.511V71.194H632.893V81.0509ZM612.127 71.2873L618.007 76.4645H612.127V71.2873ZM612.127 83.3985L617.664 88.2647H612.127V83.3985ZM618.162 94.9655V98.2303H616.171L612.407 94.9655H618.162ZM618.007 100.407H612.127V100.22H617.789L618.007 100.407ZM612.516 107.574L618.022 112.347H616.436L612.142 108.896V107.885L612.531 107.574H612.516ZM611.271 109.44V116.716H601.144L610.742 109.004L611.287 109.44H611.271ZM600.833 115.721V101.029L609.98 108.383L600.833 115.736V115.721ZM598.842 133.475V136.134H596.307V133.475H598.842ZM596.307 148.167H598.842V152.179H596.307V148.167ZM600.833 154.775L610.742 146.815L611.287 147.25V155.801H600.833V154.775ZM570.189 171.799H569.007V169.202H570.189V171.799ZM548.909 137.518V137.906H539.56V137.518H548.909ZM548.909 138.668V148.68H539.56V138.668H548.909ZM553.062 162.408V153.935H562.364V162.408H553.062ZM553.062 153.174V152.816H562.364V153.174H553.062ZM553.062 148.68V138.668H562.364V148.68H553.062ZM548.909 152.816V153.174H539.56V152.816H548.909ZM548.909 153.935V162.408H539.56V153.935H548.909ZM548.909 168.13V168.441H539.56V168.13H548.909ZM548.909 169.202V171.799H539.56V169.202H548.909ZM553.062 169.202H562.364V171.799H553.062V169.202ZM553.062 168.456V168.145H562.364V168.456H553.062ZM563.764 168.13H564.884V168.441H563.764V168.13ZM569.022 168.13H570.204V168.441H569.022V168.13ZM563.764 162.408V153.935H564.884V162.408H563.764ZM563.764 153.174V152.816H564.884V153.174H563.764ZM563.764 148.68V138.668H564.884V148.68H563.764ZM563.764 137.906V137.518H564.884V137.906H563.764ZM562.364 137.906H553.062V137.518H562.364V137.906ZM553.062 133.367V123.385H562.364V133.367H553.062ZM548.909 131.625H542.5V133.367H539.56V123.385H548.909V131.625ZM539.56 122.624V122.188H548.909V122.624H539.56ZM538.176 122.624H537.102V122.188H538.176V122.624ZM538.176 123.385V133.367H537.102V123.385H538.176ZM538.176 137.518V137.906H537.102V137.518H538.176ZM538.176 138.668V148.68H537.102V138.668H538.176ZM538.176 152.816V153.174H537.102V152.816H538.176ZM538.176 153.935V162.408H537.102V153.935H538.176ZM538.176 168.13V168.441H537.102V168.13H538.176ZM538.176 169.202V171.799H537.102V169.202H538.176ZM563.764 171.799V169.202H564.884V171.799H563.764ZM570.189 155.801V162.393H569.007V153.92H578.433V155.785H570.189V155.801ZM569.022 153.174V152.816H578.449V153.174H569.022ZM569.022 148.68V138.668H578.449V148.68H569.022ZM569.022 137.906V137.518H578.449V137.906H569.022ZM569.022 133.367V123.385H578.449V133.367H569.022ZM564.869 133.367H563.749V123.385H564.869V133.367ZM563.764 122.624V122.188H564.884V122.624H563.764ZM562.364 122.624H553.062V122.188H562.364V122.624ZM553.062 118.053V108.118H562.364V118.053H553.062ZM548.909 118.053H539.56V108.118H548.909V118.053ZM538.176 118.053H537.102V108.118H538.176V118.053ZM532.964 122.204V122.639H523.336V122.204H532.964ZM532.964 123.385V133.367H523.336V123.385H532.964ZM532.964 137.518V137.906H523.336V137.518H532.964ZM532.964 138.668V148.68H523.336V138.668H532.964ZM532.964 152.816V153.174H523.336V152.816H532.964ZM532.964 153.935V162.408H523.336V153.935H532.964ZM532.964 168.13V168.441H523.336V168.13H532.964ZM532.964 169.202V171.799H523.336V169.202H532.964ZM622.736 151.37H628.227V155.801H622.736V151.37ZM658.513 58.601H655.604V57.295L658.513 58.601ZM654.578 56.8286V58.601H651.638V55.5226L654.578 56.8441V56.8286ZM650.596 58.601H647.547V59.6582L645.4 58.2745V56.1134H642.911V56.6731L617.104 40.0845H617.198L650.596 55.0562V58.601ZM564.636 62.2701L560.98 65.2551H556.998V62.2701H564.636ZM529.978 65.0685L527.644 66.9808L525.809 67.2607V66.39L529.978 65.0685ZM556.376 65.2551H552.876L556.376 62.41V65.2551ZM551.927 65.2551H547.944V62.2701H555.598L551.942 65.2551H551.927ZM547.929 65.6904H551.367L547.929 68.4889V65.6904ZM547.322 65.2551H544.071L547.322 62.6121V65.2551ZM543.107 65.2551H539.124V62.2701H546.762L543.107 65.2551ZM538.518 65.2862L535.204 65.7992L538.518 62.4877V65.2862ZM539.124 65.6904H542.562L539.124 68.4889V65.6904ZM534.178 65.9702L531.782 66.3434V64.5088L537.429 62.7209L534.178 65.9702ZM531.782 66.7787L533.664 66.4833L531.782 68.3645V66.7787ZM531.16 66.4367L528.827 66.7942L531.16 64.8975V66.4367ZM518.84 68.7998L525.202 67.8203V68.7998H518.84ZM525.809 67.7115L526.976 67.525L525.809 68.4733V67.7115ZM525.202 67.3695L520.411 68.1157L525.202 66.5921V67.3695ZM528.158 67.3384L531.16 66.872V68.7843H526.384L528.158 67.3384ZM534.676 66.3278L538.518 65.737V68.7843H532.218L534.676 66.3278ZM543.527 65.6904H547.322V68.7998H539.716L543.527 65.6904ZM552.347 65.6904H556.376V68.7998H548.52L552.331 65.6904H552.347ZM556.982 65.6904H560.42L556.982 68.4889V65.6904ZM557.589 68.7998L561.4 65.6904H565.18V68.7998H557.589ZM609.607 68.7221L606.169 65.4883L608.642 57.4349H621.46L623.793 64.9908L621.056 68.5666L620.884 68.7843H620.184C620.682 68.4733 621.024 67.9447 621.024 67.3228V60.7775C621.024 59.8136 620.231 59.0207 619.267 59.0207H613.916C613.2 59.0207 612.516 59.1762 611.909 59.4405C610.136 60.2178 608.891 61.9902 608.891 64.0424V66.048C608.891 67.2451 609.607 68.2868 610.633 68.7687H609.653L609.591 68.7065L609.607 68.7221ZM614.647 63.234V60.8553C614.647 60.4511 614.973 60.109 615.393 60.109H617.276C617.68 60.109 618.022 60.4355 618.022 60.8553V63.234C618.022 63.6382 617.696 63.9802 617.276 63.9802H615.393C614.989 63.9802 614.647 63.6537 614.647 63.234ZM614.118 63.234C614.118 63.6382 613.791 63.9802 613.387 63.9802H610.478C609.14 63.9802 610.011 62.4411 610.338 61.8814C610.804 61.0574 611.364 60.591 611.956 60.3422C612.422 60.1557 612.904 60.0935 613.402 60.1246C613.807 60.1401 614.133 60.4511 614.133 60.8708V63.2495L614.118 63.234ZM618.224 69.6393H632.893V70.7587H621.569V69.9347H618.224V69.6393ZM612.127 95.3075L615.502 98.2303H612.127V95.3075ZM611.271 107.325L610.727 107.761L601.331 100.22H611.256V107.325H611.271ZM596.307 104.107H598.842V108.134H596.307V104.107ZM596.307 109.004H598.842V113.016H596.307V109.004ZM598.842 113.886V116.7H596.307V113.886H598.842ZM596.307 153.065H598.842V155.817H596.307V153.065ZM579.833 155.801V153.935H580.829V155.801H579.833ZM580.829 153.174H579.833V152.816H580.829V153.174ZM579.833 148.68V138.668H580.829V148.68H579.833ZM580.829 137.906H579.833V137.518H580.829V137.906ZM579.833 133.367V123.385H580.829V133.367H579.833ZM580.829 122.204V122.639H579.833V122.204H580.829ZM578.449 122.204V122.639H569.022V122.204H578.449ZM563.764 118.053V108.118H564.884V118.053H563.764ZM564.869 107.356H563.749V106.89H564.869V107.356ZM562.364 106.89V107.356H553.062V106.89H562.364ZM548.909 107.356H539.56V106.89H548.909V107.356ZM538.176 106.89V107.356H537.102V106.89H538.176ZM532.964 91.5762V100.671H527.629V102.739H523.336V91.5762H532.964ZM521.142 91.5762H521.936V102.739H521.142V91.5762ZM521.142 106.89H521.936V107.356H521.142V106.89ZM521.142 108.118H521.936V118.053H521.142V108.118ZM521.142 122.204H521.936V122.639H521.142V122.204ZM521.142 123.385H521.936V133.367H521.142V123.385ZM521.142 137.518H521.936V137.906H521.142V137.518ZM521.142 138.668H521.936V148.68H521.142V138.668ZM521.142 152.816H521.936V153.174H521.142V152.816ZM521.936 153.935V162.408H521.142V153.935H521.936ZM521.142 168.13H521.936V168.441H521.142V168.13ZM521.142 169.202H521.936V171.799H521.142V169.202ZM306.367 78.6877V76.9931C306.367 76.6977 306.6 76.4645 306.896 76.4645H308.233C308.529 76.4645 308.762 76.6977 308.762 76.9931V78.6877C308.762 78.9831 308.529 79.2163 308.233 79.2163H306.896C306.6 79.2163 306.367 78.9831 306.367 78.6877ZM309.136 78.6877V76.9931C309.136 76.6977 309.369 76.48 309.664 76.4645C310.022 76.4489 310.364 76.48 310.691 76.62C311.111 76.791 311.5 77.133 311.827 77.7238C312.06 78.128 312.667 79.2163 311.718 79.2163H309.649C309.353 79.2163 309.12 78.9831 309.12 78.6877H309.136ZM337.944 83.2274L337.867 84.0203H312.184V83.4296H310.52V83.2274H337.944ZM324.24 80.1025H321.767L324.24 78.0814V80.1025ZM324.24 80.4134V82.6211H318.671L321.378 80.4134H324.24ZM330.54 80.4134V82.6211H325.096L327.802 80.4134H330.54ZM328.191 80.1025L330.54 78.1902V80.1025H328.191ZM336.964 80.1025H334.491L336.964 78.0814V80.1025ZM336.964 80.4134V82.6211H331.396L334.102 80.4134H336.964ZM339.049 81.0664L338.349 81.6417L338.458 80.429H339.049V81.0664ZM338.069 81.8593L337.4 82.4035V80.4134H338.209L338.069 81.8438V81.8593ZM338.022 82.4656V82.6211H337.82L338.022 82.4656ZM330.976 82.4035V80.4134H333.418L330.976 82.4035ZM324.676 82.4035V80.4134H327.118L324.676 82.4035ZM318.251 82.4035V80.4134H320.693L318.251 82.4035ZM317.816 82.6211H315.996L315.669 81.5795L317.8 80.5378V82.6056L317.816 82.6211ZM315.498 82.6211H313.538L315.233 81.7971L315.482 82.6211H315.498ZM307.969 137.518L310.551 135.279V136.911L307.969 137.502V137.518ZM306.273 84.3779H310.084L306.273 87.7361V84.3779ZM310.551 134.408L306.382 130.786H310.551V134.408ZM310.551 96.4424H306.631L310.551 92.991V96.4424ZM306.273 92.338V88.7466L310.349 92.338H306.273ZM310.396 92.6956L306.258 96.3336V92.6956H310.396ZM306.273 97.2664L310.411 100.842H306.273V97.2664ZM310.551 105.055H306.382L310.551 101.449V105.055ZM306.273 105.724L310.178 109.113H306.273V105.724ZM310.551 121.784H306.6L310.551 118.364V121.784ZM306.273 117.726V114.197L310.349 117.726H306.273ZM310.396 118.084L306.258 121.66V118.084H310.396ZM306.273 122.655L310.411 126.231H306.273V122.655ZM310.551 130.444H306.382L310.551 126.837V130.444ZM310.551 125.951L306.444 122.39H310.551V125.951ZM310.551 117.478L306.382 113.871H310.551V117.478ZM306.367 113.529L310.536 109.906V113.529H306.367ZM310.551 109.02L306.382 105.398H310.551V109.02ZM310.551 100.562L306.507 97.0488H310.551V100.562ZM310.551 92.0893L306.382 88.4202H310.551V92.0893ZM306.367 88.0626L310.536 84.3779V88.0626H306.367ZM306.273 101.2H310.349L306.273 104.729V101.2ZM306.273 109.72H310.287L306.273 113.202V109.72ZM306.273 126.588H310.349L306.273 130.117V126.588ZM306.273 131.112L310.116 134.439H306.273V131.112ZM305.776 88.2491H304.889V86.4146H305.776V88.2491ZM305.776 88.6378V90.4724H304.889V88.6378H305.776ZM305.776 90.8766V92.7111H304.889V90.8766H305.776ZM305.776 93.0998V94.9344H304.889V93.0998H305.776ZM305.776 95.3386V97.1731H304.889V95.3386H305.776ZM305.776 97.5618V99.3964H304.889V97.5618H305.776ZM305.776 99.785V101.62H304.889V99.785H305.776ZM305.776 102.024V103.641H304.889V102.024H305.776ZM305.776 104.029V105.864H304.889V104.029H305.776ZM305.776 106.268V108.103H304.889V106.268H305.776ZM305.776 108.491V110.326H304.889V108.491H305.776ZM305.776 110.715V112.549H304.889V110.715H305.776ZM305.776 112.953V114.788H304.889V112.953H305.776ZM305.776 115.177V117.011H304.889V115.177H305.776ZM305.776 117.415V119.25H304.889V117.415H305.776ZM305.776 119.639V121.473H304.889V119.639H305.776ZM305.776 121.877V123.712H304.889V121.877H305.776ZM305.776 124.101V125.935H304.889V124.101H305.776ZM305.776 126.324V128.158H304.889V126.324H305.776ZM305.776 128.563V130.397H304.889V128.563H305.776ZM305.776 130.786V132.325H304.889V130.786H305.776ZM305.776 132.729V134.564H304.889V132.729H305.776ZM305.776 134.952V136.787H304.889V134.952H305.776ZM306.273 135.061H310.349L307.331 137.689L306.289 137.937V135.077L306.273 135.061ZM311.142 136.787V84.3313H337.836L337.276 90.4257H335.86V92.5868H337.447V107.294L333.636 124.987H331.007V132.169L311.142 136.787ZM334.227 124.987L337.447 110.015V124.987H334.227ZM337.524 90.4257L338.084 84.3313H339.033V90.4257H337.509H337.524ZM338.131 84.0203L338.209 83.2274H339.064V84.0203H338.131ZM338.256 82.6211L338.287 82.2324L339.049 81.6106V82.6211H338.256ZM341.351 80.4134H341.942L342.144 82.6211H341.351V80.4134ZM341.351 80.1025V79.7449L341.849 79.3407L341.927 80.1025H341.367H341.351ZM342.082 79.1541L343.436 78.0503V80.1025H342.176L342.082 79.1541ZM343.871 78.2369L346.173 80.1025H343.871V78.2369ZM342.036 78.6411L341.973 78.0036H342.813L342.02 78.6411H342.036ZM341.802 78.8276L341.351 79.1852V77.9881H341.724L341.802 78.8276ZM341.351 77.3973V76.48L341.584 76.5889L341.662 77.4129H341.351V77.3973ZM339.049 77.3973H338.738L338.924 75.3917L339.049 75.4539V77.3973ZM339.049 77.9881V80.1025H338.489L338.691 77.9881H339.064H339.049ZM338.24 80.1025H337.4V77.9881H338.442L338.24 80.1025ZM333.807 80.1025H330.976V77.9881H336.404L333.807 80.1025ZM327.507 80.1025H324.676V77.9881H330.104L327.507 80.1025ZM321.082 80.1025H318.251V77.9881H323.68L321.082 80.1025ZM317.816 80.1958L315.591 81.2841L315.373 80.5534L317.831 78.2524V80.1958H317.816ZM315.14 81.5017L313.522 82.2791L314.969 80.9265L315.14 81.5017ZM312.34 82.5745L312.293 82.6211H311.609C312.34 82.2791 312.853 81.5484 312.853 80.6933V79.263C312.853 77.8015 311.967 76.5422 310.707 75.9981C310.271 75.8115 309.789 75.7027 309.276 75.7027H305.48C304.796 75.7027 304.236 76.2624 304.236 76.9464V81.595C304.236 82.0459 304.484 82.419 304.842 82.6367H304.344L304.236 82.4812L302.291 79.947L303.94 74.5833H313.04L314.798 80.3046L312.356 82.59L312.34 82.5745ZM301.451 80.942L300.238 80.1025V78.2524L301.7 80.1647L301.467 80.942H301.451ZM302.042 80.6311L303.193 82.1547L301.856 81.2374L302.042 80.6466V80.6311ZM299.802 79.9315H297.547L299.802 78.0969V79.9315ZM296.847 79.9315H294.218V78.0036H299.227L296.847 79.9315ZM294.218 80.2424H296.458L294.218 82.0614V80.2424ZM297.158 80.2424H299.802V82.6211H294.233L297.158 80.2424ZM300.238 80.4912L301.358 81.2685L300.938 82.6367H300.238V80.5067V80.4912ZM301.762 81.5484L303.333 82.6211H301.436L301.762 81.5484ZM308.933 62.5655L307.253 63.6848L307.596 62.5655H308.933ZM306.958 64.6488L309.913 66.3589H306.429L306.958 64.6488ZM306.336 66.6699H309.991L305.542 69.2351L306.336 66.6699ZM305.293 70.0591L312.34 74.1324H304.033L305.293 70.0591ZM305.76 69.8259H311.547L312.791 73.8992L305.744 69.8259H305.76ZM305.947 69.515L310.629 66.8098L311.453 69.515H305.931H305.947ZM307.393 64.4H309.882L310.411 66.1413L307.393 64.4ZM307.424 64.0891L309.384 62.7831L309.789 64.0891H307.424ZM301.902 79.4651L300.409 77.5217L300.176 77.3973H294.218V76.962H297.547V72.158H294.218V70.8365L307.098 62.5499L301.887 79.4651H301.902ZM294.218 83.2274H306.211V83.4296H303.831V84.0203H294.218V83.2274ZM305.776 84.3313V86.0104H304.889V84.3313H305.776ZM305.776 137.176V138.031L304.889 138.233V137.176H305.776ZM386.804 127.847L388.127 129.216H380.473L381.842 127.801L384.3 125.251L386.82 127.863L386.804 127.847ZM381.827 121.691L380.458 120.276H388.111L386.789 121.644L384.269 124.256L381.811 121.706L381.827 121.691ZM381.827 130.273H388.111L386.804 131.625L384.284 134.237L381.827 131.688L380.473 130.288H381.827V130.273ZM386.804 132.62L388.842 130.506V138.948L386.804 136.834L384.767 134.719L386.804 132.605V132.62ZM386.804 126.852L384.767 124.738L386.804 122.624L388.842 120.509V128.951L386.804 126.837V126.852ZM386.804 117.788L388.173 119.203H380.427L381.842 117.742L384.3 115.192L386.82 117.804L386.804 117.788ZM384.767 114.695L386.804 112.58L388.842 110.466V118.908L386.804 116.793L384.767 114.679V114.695ZM381.827 116.762L379.836 118.83V110.575L381.827 112.642L383.818 114.71L381.827 116.778V116.762ZM381.827 122.686L383.818 124.754L381.827 126.821L379.836 128.889V120.634L381.827 122.701V122.686ZM381.827 132.667L383.818 134.735L381.827 136.803L379.836 138.87V130.615L381.827 132.683V132.667ZM381.827 137.782L384.284 135.232L386.804 137.844L388.142 139.228H380.458L381.842 137.798L381.827 137.782ZM381.827 140.269H388.173L386.789 141.7L384.269 144.312L381.811 141.762L380.411 140.316V140.285H381.811L381.827 140.269ZM388.842 140.58V149.022L386.804 146.908L384.767 144.794L386.804 142.679L388.842 140.565V140.58ZM381.827 142.741L383.818 144.809L381.827 146.877L380.427 148.323V141.296L381.827 142.741ZM380.427 149.302L381.827 147.856L384.284 145.307L386.804 147.919L388.796 149.986L388.842 149.955V150.126H380.427V149.318V149.302ZM390.258 146.24H391.362V150.002H390.258V146.24ZM390.258 145.416V141.653H391.362V145.416H390.258ZM390.258 140.845V137.082H391.362V140.845H390.258ZM390.258 136.258V132.496H391.362V136.258H390.258ZM390.258 131.688V127.925H391.362V131.688H390.258ZM390.258 127.101V123.339H391.362V127.101H390.258ZM390.258 122.53V118.768H391.362V122.53H390.258ZM390.258 117.944V114.182H391.362V117.944H390.258ZM390.258 113.373V109.611H391.362V113.373H390.258ZM388.842 109.02V109.564L388.796 109.533L386.804 111.601L384.284 114.213L381.827 111.663L379.836 109.595V109.036H388.842V109.02ZM346.173 124.987H342.953V110.015L346.173 124.987ZM342.876 90.4257H341.351V84.3313H342.3L342.86 90.4257H342.876ZM342.284 84.0203H341.351V83.2274H342.207L342.284 84.0203ZM342.191 80.4134H343.436V82.6211H342.409L342.207 80.4134H342.191ZM343.871 82.6211V80.4134H346.547L349.253 82.6211H343.871ZM375.636 82.1392L372.229 81.6106V81.0664L375.636 82.1392ZM356.533 80.4134H359.224L361.931 82.6211H356.533V80.4134ZM356.098 82.4035L353.656 80.4134H356.098V82.4035ZM356.533 80.1025V78.2213L358.836 80.1025H356.533ZM359.909 80.4134H362.351V82.4035L359.909 80.4134ZM362.787 80.4601L365.509 80.8798L367.251 82.6211H362.787V80.4601ZM362.787 80.1336V78.1436L365.136 80.4912L362.787 80.1336ZM366.24 80.9887L367.578 81.1908V82.3102L366.24 80.9731V80.9887ZM367.998 81.2685L370.129 81.595L371.389 82.6211H367.998V81.2685ZM367.998 80.9576V79.8693L369.647 81.2219L367.998 80.9576ZM371.793 82.4035L370.969 81.7349L371.793 81.8593V82.4035ZM372.229 81.9215L376.724 82.6211H372.229V81.9215ZM371.793 81.5484L370.487 81.3463L368.822 79.9937L371.778 80.9265V81.5484H371.793ZM367.562 80.8798L365.851 80.6155L363.549 78.3146L367.562 79.5894V80.8954V80.8798ZM362.351 80.1025H359.52L356.922 77.9881H362.351V80.1025ZM356.098 77.9881V80.1025H353.267L350.669 77.9881H356.098ZM352.582 80.1025H350.109V78.0814L352.582 80.1025ZM352.971 80.4134L355.678 82.6211H350.109V80.4134H352.971ZM349.673 82.4035L347.231 80.4134H349.673V82.4035ZM349.673 77.9881V80.1025H346.842L344.244 77.9881H349.673ZM343.436 77.3973H341.911L341.849 76.6977L343.436 77.3973ZM341.553 76.2157L341.351 76.1225V74.0236L341.553 76.2157ZM339.049 74.0236V75.1119L338.956 75.0653L339.049 74.0236ZM338.489 77.3973H330.851H317.987L317.784 77.475L315.187 79.9159L309.82 62.4566L338.707 75.2829L338.504 77.3973H338.489ZM306.942 62.239H307.004L294.218 70.4633V67.9447L306.942 62.239ZM294.218 111.772V103.361H297.547V98.5568H294.218V90.1614H297.547V85.3574H294.218V84.3313H304.593V138.311L301.544 139.01V129.775L294.218 127.801V116.576H297.547V111.772H294.218ZM220.329 152.878H224.28V154.495L222.429 156.283L220.329 154.262L218.898 152.878H220.329ZM224.28 158.071L222.833 156.687L224.28 155.303V158.086V158.071ZM220.329 155.055L222.009 156.672L220.329 158.288L218.649 159.905V153.438L220.329 155.055ZM220.329 159.097L222.429 157.076L224.28 158.864V160.403H218.976L220.329 159.097ZM224.28 150.764V151.697H223.533V150.764H224.28ZM222.849 150.764V151.697H219.707V150.764H222.849ZM219.022 150.764V151.697H215.88V150.764H219.022ZM211.96 152.878H217.56L216.098 154.277L214.029 156.267L211.96 154.277L210.498 152.878H211.96ZM211.96 155.07L213.624 156.672L211.96 158.273L210.296 159.874V153.484L211.96 155.086V155.07ZM211.96 159.066L214.029 157.076L216.098 159.066L217.467 160.387H210.576L211.944 159.066H211.96ZM216.098 158.273L214.433 156.672L216.098 155.07L217.762 153.469V159.859L216.098 158.257V158.273ZM215.196 150.764V151.697H212.053V150.764H215.196ZM211.369 150.764V151.697H208.227V150.764H211.369ZM205.676 152.878H209.207L207.744 154.293L205.676 156.283L203.591 154.277L202.144 152.878H205.676ZM203.607 155.07L205.271 156.672L203.607 158.273L201.942 159.874V153.453L203.607 155.055V155.07ZM203.607 159.081L205.691 157.076L207.76 159.066L209.144 160.403H202.253L203.622 159.081H203.607ZM207.744 158.273L206.096 156.687L207.744 155.086L209.393 153.5V159.874L207.744 158.288V158.273ZM207.542 150.764V151.697H204.4V150.764H207.542ZM203.716 150.764V151.697H200.573V150.764H203.716ZM197.26 152.878H200.791L199.36 154.262L197.26 156.283L193.962 153.096V152.878H197.26ZM196.856 156.672L193.962 159.455V153.889L196.856 156.672ZM193.962 160.263L197.26 157.076L199.36 159.097L200.713 160.403H193.962V160.263ZM199.36 158.304L197.68 156.687L199.36 155.07L201.04 153.453V159.952L199.36 158.335V158.304ZM199.889 150.764V151.697H196.747V150.764H199.889ZM196.062 150.764V151.697H193.962V150.764H196.062ZM75.7711 69.8881H81.1533L75.7711 74.6144V69.8881ZM81.8067 86.8965H76.2689L81.8067 82.0303V86.8965ZM81.8067 99.0232H75.9267L81.8067 93.9238V99.0232ZM81.8067 122.593H76.2533L81.8067 117.773V122.593ZM81.8067 134.797H75.9267L81.8067 129.698V134.797ZM81.8067 146.722H75.9267L81.8067 141.622V146.722ZM75.7711 135.745L81.2 140.44H75.7711V135.745ZM75.7711 117.369H81.5889L75.7711 122.422V117.369ZM75.7711 123.821L81.6044 128.874H75.7711V123.821ZM75.7711 116.871V111.881L81.5267 116.871H75.7711ZM75.7711 99.9716L81.2778 104.745H75.7711V99.9716ZM75.7711 81.6106H81.6044L75.7711 86.7411V81.6106ZM75.7711 88.047L81.5889 93.0998H75.7711V88.047ZM75.7711 81.0975V76.0292L81.5267 81.0975H75.7711ZM81.8067 69.9036V75.0808H75.9267L81.8067 69.9036ZM75.7711 93.5818H81.5267L75.7711 98.5724V93.5818ZM75.7711 105.584H81.4333L75.7711 110.481V105.584ZM81.8067 105.848V110.948H75.9267L81.8067 105.848ZM75.7711 129.355H81.5267L75.7711 134.346V129.355ZM75.7711 141.296H81.5111L75.7711 146.271V141.296ZM75.7711 147.67L81.5267 152.66H75.7711V147.67ZM81.8067 152.303L75.9267 147.203H81.8067V152.303ZM81.8067 140.378L75.9267 135.279H81.8067V140.378ZM81.8067 128.454L76.02 123.432H81.8067V128.454ZM81.8067 116.529L75.9267 111.43H81.8067V116.529ZM81.8067 104.605L75.9267 99.5052H81.8067V104.605ZM81.8067 92.68L76.0978 87.7361H81.8067V92.68ZM81.8067 80.7555L75.9267 75.5783H81.8067V80.7555ZM75.0867 75.3296H73.8267V72.7488H75.0867V75.3296ZM75.0867 75.8893V78.4701H73.8267V75.8893H75.0867ZM75.0867 79.0298V81.6106H73.8267V79.0298H75.0867ZM75.0867 82.1702V84.7511H73.8267V82.1702H75.0867ZM75.0867 85.3107V87.8916H73.8267V85.3107H75.0867ZM75.0867 88.4513V91.0321H73.8267V88.4513H75.0867ZM75.0867 91.6073V94.1881H73.8267V91.6073H75.0867ZM75.0867 94.7478V97.0177H73.8267V94.7478H75.0867ZM75.0867 97.5774V100.158H73.8267V97.5774H75.0867ZM75.0867 100.718V103.299H73.8267V100.718H75.0867ZM75.0867 103.858V106.439H73.8267V103.858H75.0867ZM75.0867 106.999V109.58H73.8267V106.999H75.0867ZM75.0867 110.139V112.72H73.8267V110.139H75.0867ZM75.0867 113.295V115.876H73.8267V113.295H75.0867ZM75.0867 116.436V119.017H73.8267V116.436H75.0867ZM75.0867 119.576V122.157H73.8267V119.576H75.0867ZM75.0867 122.717V125.298H73.8267V122.717H75.0867ZM75.0867 125.857V128.438H73.8267V125.857H75.0867ZM75.0867 128.998V131.579H73.8267V128.998H75.0867ZM75.0867 132.138V134.719H73.8267V132.138H75.0867ZM75.0867 135.279V137.44H73.8267V135.279H75.0867ZM75.0867 138V140.58H73.8267V138H75.0867ZM75.0867 141.14V143.721H73.8267V141.14H75.0867ZM75.0867 144.281V146.861H73.8267V144.281H75.0867ZM75.0867 147.437V150.017H73.8267V147.437H75.0867ZM75.0867 150.577V153.158H73.8267V150.577H75.0867ZM75.0867 153.718V156.298H73.8267V153.718H75.0867ZM75.7711 153.142H81.6044L76.44 157.62H75.7867V153.142H75.7711ZM183.711 103.921H182.653V101.215H183.711V103.921ZM183.711 104.511V107.217H182.653V104.511H183.711ZM183.711 107.807V110.512H182.653V107.807H183.711ZM183.711 111.103V111.647H182.653V111.103H183.711ZM182.047 113.84L173.942 120.354L166.336 114.228V113.669H182.062V113.824L182.047 113.84ZM117.522 141.684L122.873 137.378V145.991L117.522 141.684ZM122.516 146.955H110.958L116.744 142.306L122.531 146.955H122.516ZM106.649 130.755L116.744 122.639L124.289 128.702H122.873V131.423H106.649V130.755ZM125.844 128.718L117.522 122.017L126.933 114.461V128.718H125.86H125.844ZM166.336 128.718V127.739L173.942 121.613L182.047 128.127V128.702H166.32L166.336 128.718ZM166.336 126.479V115.488L173.164 120.976L166.336 126.464V126.479ZM144.604 125.22L140.296 121.769L144.604 118.317V125.236V125.22ZM144.604 126.479V128.718H131.647L139.518 122.39L144.604 126.479ZM130.091 128.718H128.956V113.902L138.74 121.769L130.091 128.718ZM116.744 121.395L107.147 113.684H126.342L116.744 121.395ZM115.967 122.017L106.664 129.495V114.524L115.967 122.002V122.017ZM122.873 133.46V136.118L116.744 141.047L107.302 133.46H122.873ZM182.653 128.625L182.778 128.718H182.653V128.625ZM174.72 120.991L182.047 115.099V126.883L174.72 120.991ZM144.604 117.042L139.518 121.131L130.247 113.669H144.604V117.042ZM126.513 111.647H106.976L116.744 103.796L126.513 111.647ZM117.522 103.174L126.933 95.6184V110.746L117.522 103.174ZM104.627 117.866H102.044V113.777H104.627V117.866ZM104.627 118.752V122.841H102.044V118.752H104.627ZM104.627 123.743V127.832H102.044V123.743H104.627ZM104.627 137.798H102.044V133.709H104.627V137.798ZM104.627 138.699V142.788H102.044V138.699H104.627ZM106.649 134.191L115.951 141.669L109.387 146.939H106.633V134.175L106.649 134.191ZM182.964 127.614H183.711V128.221L182.964 127.614ZM183.711 127.008H182.653V124.303H183.711V127.008ZM183.711 123.712H182.653V121.007H183.711V123.712ZM183.711 120.416H182.653V117.711H183.711V120.416ZM183.711 117.12H182.653V114.601L182.902 114.399H183.711V117.104V117.12ZM183.633 113.824L183.711 113.762V113.824H183.633ZM183.711 100.625H182.653V97.9194H183.711V100.625ZM182.047 111.647H166.32V110.466H149.349V94.8411H182.031V111.632L182.047 111.647ZM147.342 110.466H144.604V111.647H128.956V94.8566H147.342V110.481V110.466ZM116.744 102.537L107.193 94.8566H126.311L116.76 102.537H116.744ZM115.967 103.174L106.664 110.652V95.6806L115.967 103.159V103.174ZM104.627 128.718V131.423H102.044V128.718H104.627ZM104.627 143.69V146.955H102.044V143.69H104.627ZM101.142 146.955V155.599H98.5444V145.789H101.142V146.955ZM183.711 97.3286H182.653V94.8566H183.711V97.3286ZM102.044 98.8056H104.627V102.894H102.044V98.8056ZM102.044 103.796H104.627V107.885H102.044V103.796ZM104.627 108.787V111.647H102.044V108.787H104.627ZM101.142 133.817V144.327H98.5444V133.817H101.142ZM95.0289 151.65H97.0822V155.599H95.0289V151.65ZM77.0933 157.62L81.7911 153.547V157.62H77.0933ZM75.9111 61.8503V59.4716C75.9111 59.0674 76.2378 58.7253 76.6578 58.7253H78.54C78.9445 58.7253 79.2867 59.0518 79.2867 59.4716V61.8503C79.2867 62.2545 78.96 62.5965 78.54 62.5965H76.6578C76.2533 62.5965 75.9111 62.2701 75.9111 61.8503ZM79.8156 61.8503V59.4716C79.8156 59.0674 80.1422 58.7564 80.5622 58.7253C81.06 58.7098 81.5422 58.7564 82.0089 58.943C82.6 59.1917 83.1444 59.6582 83.6267 60.4821C83.9533 61.0418 84.8244 62.581 83.4867 62.581H80.5778C80.1733 62.581 79.8311 62.2545 79.8311 61.8347L79.8156 61.8503ZM84.2489 67.4161H83.2689C84.2956 66.9342 85.0111 65.8925 85.0111 64.6954V62.6898C85.0111 60.6376 83.7667 58.8653 81.9933 58.0879C81.3711 57.8236 80.7022 57.6681 79.9867 57.6681H74.6356C73.6711 57.6681 72.8778 58.461 72.8778 59.425V65.9702C72.8778 66.5921 73.2356 67.1207 73.7178 67.4317H73.0178L72.8622 67.214L70.1245 63.6382L72.4578 56.0823H85.2756L87.7644 64.1512L84.3267 67.385L84.2644 67.4472L84.2489 67.4161ZM31.36 59.0363L76.72 38.7008H76.8133L43.6178 60.0468H39.76L39.5111 60.1401L37.6756 61.5549H31.3756V59.0518L31.36 59.0363ZM120.229 67.4161L124.04 64.3067H128.147V67.4161H120.229ZM119.638 64.3067H123.076L119.638 67.1052V64.3067ZM119.638 63.8714V60.8864H127.276L123.62 63.8714H119.638ZM119.031 63.8714H115.531L119.031 61.0263V63.8714ZM114.567 63.8714H110.584V60.8864H118.238L114.582 63.8714H114.567ZM110.584 64.3067H114.022L110.584 67.1052V64.3067ZM109.962 63.8714H106.649L109.962 61.1818V63.8714ZM105.684 63.8714H101.702V60.8864H109.34L105.684 63.8714ZM101.702 64.3067H105.14L101.702 67.1052V64.3067ZM101.096 63.8714H97.5956L101.096 61.0263V63.8714ZM96.6467 63.8714H92.6644V60.8864H100.318L96.6622 63.8714H96.6467ZM92.6489 64.3067H96.0867L92.6489 67.1052V64.3067ZM92.0422 63.9958L88.9 65.5194L88.5889 64.4933L92.0422 61.244V63.9802V63.9958ZM88.2778 65.8148L86.0067 66.9186L88.0289 65.0219L88.2778 65.8303V65.8148ZM88.4178 66.2501L88.7756 67.4161H86.0222L88.4178 66.2501ZM89.0244 65.9547L92.0422 64.4933V67.4161H89.4756L89.0244 65.9547ZM97.0667 64.3067H101.096V67.4161H93.24L97.0511 64.3067H97.0667ZM106.12 64.3067H109.978V67.4161H102.309L106.12 64.3067ZM114.987 64.3067H119.016V67.4161H111.16L114.971 64.3067H114.987ZM124.584 63.8714L128.147 60.9797V63.8714H124.584ZM128.753 61.2284L131.989 63.8559H128.753V61.2284ZM110.413 60.0468H92.2911L91.9956 60.1557L88.3244 63.6071L80.7489 38.9962L128.162 60.0468H110.429H110.413ZM68.9889 65.0374L67.2778 63.8559V61.244L69.3311 63.9336L68.9889 65.0374ZM69.8289 64.6021L71.4622 66.7321L69.58 65.4261L69.8444 64.5866L69.8289 64.6021ZM58.2089 64.058H61.9578L58.2089 67.1052V64.058ZM58.2089 63.6071V60.8864H65.8467L62.5022 63.6071H58.2089ZM49.1711 64.058H52.92L49.1711 67.1052V64.058ZM49.1711 63.6071V60.8864H56.8089L53.4644 63.6071H49.1711ZM36.0422 62.7676H31.3444V62.3944H36.5244L36.0422 62.7676ZM39.4956 61.1973V63.7315L32.0911 66.872L39.4956 61.1973ZM40.1178 64.058H43.8667L40.1178 67.1052V64.058ZM40.1178 63.6071V60.8864H47.7556L44.4111 63.6071H40.1178ZM48.5644 61.0263V63.6227H45.3756L48.5644 61.0263ZM57.6022 61.0263V63.6071H54.4289L57.6022 61.0263ZM66.6556 61.0263V63.6227H63.4667L66.6556 61.0263ZM67.5267 60.2023L67.1844 60.0313H57.8511H44.4422L76.9689 39.1205L76.3 41.3127L69.6422 62.9541L67.5422 60.2023H67.5267ZM76.7511 42.09L80.92 44.4998H76.0044L76.7511 42.09ZM75.88 44.9351H81.0289L74.76 48.5576L75.88 44.9351ZM81.9156 45.1372L83.0822 48.9463H75.3044L81.9 45.1372H81.9156ZM77.3733 41.748H80.8733L81.6356 44.2044L77.3733 41.748ZM77.4044 41.2971L80.1733 39.447L80.7333 41.2971H77.4044ZM77.1711 40.7219L77.6533 39.1516H79.5356L77.1711 40.7219ZM74.4022 49.7081L84.3422 55.4449H72.6444L74.4022 49.7081ZM75.0556 49.3816H83.2222L84.98 55.1029L75.0556 49.3816ZM35.3578 63.3117L31.36 66.3745V63.3117H35.3578ZM39.4956 64.1979V67.4006H31.9356L39.4956 64.1979ZM40.7089 67.4161L44.8311 64.058H48.5644V67.4161H40.7089ZM53.8844 64.058H57.6022V67.4161H49.7622L53.8844 64.058ZM62.9378 64.058H66.6711V67.4161H58.8156L62.9378 64.058ZM67.2622 64.4L68.8489 65.4883L68.2578 67.4161H67.2778V64.4H67.2622ZM69.4244 65.8925L71.6333 67.4161H68.9578L69.4244 65.8925ZM128.753 67.4161V64.3067H132.533L136.344 67.4161H128.753ZM173.522 66.7165L168.731 65.9702V65.1929L173.522 66.7165ZM146.611 64.3067H150.407L154.218 67.4161H146.611V64.3067ZM145.989 67.1052L142.551 64.3067H145.989V67.1052ZM146.611 63.8714V61.2284L149.862 63.8714H146.611ZM151.371 64.3067H154.809V67.1052L151.371 64.3067ZM155.416 64.3534L159.258 64.9441L161.716 67.4006H155.416V64.3534ZM155.416 63.918V61.1196L158.729 64.4311L155.416 63.918ZM160.284 65.1152L162.167 65.4106V66.9964L160.284 65.1152ZM162.758 65.5038L165.76 65.9702L167.533 67.4161H162.758V65.5038ZM162.758 65.053V63.5138L165.076 65.4106L162.758 65.053ZM168.109 67.0896L166.942 66.1413L168.109 66.3278V67.0896ZM168.731 66.4211L175.093 67.4006H168.731V66.4211ZM168.109 65.877L166.273 65.5971L163.94 63.6848L168.109 65.0063V65.877ZM162.151 64.9597L159.74 64.5866L156.489 61.3372L162.136 63.1251V64.9597H162.151ZM154.809 63.8714H150.827L147.171 60.8864H154.809V63.8714ZM145.989 60.8864V63.8714H142.007L138.351 60.8864H145.989ZM141.042 63.8714H137.542V61.0263L141.042 63.8714ZM141.587 64.3067L145.398 67.4161H137.542V64.3067H141.571H141.587ZM136.936 67.1052L133.498 64.3067H136.936V67.1052ZM136.936 60.8864V63.8714H132.953L129.298 60.8864H136.936ZM44.7689 68.7687V68.2557H75.7089V68.5511H72.3644V69.375H46.0444V68.7843H44.7689V68.7687ZM75.0867 69.8104V72.1891H73.8267V69.8104H75.0867ZM73.8267 156.858H75.0867V157.62H73.8267V156.858ZM69.9845 161.491V163.839H59.0644V161.491H69.9845ZM193.962 163.854V161.584H224.28V163.854H193.962Z" fill="#1B364E"/>
<path fill-rule="evenodd" clip-rule="evenodd" d="M574.591 74.6143L574.047 72.6709H571.48L570.936 74.6143L572.024 76.3711H573.518L574.591 74.6143Z" fill="#1B364E"/>
</g>
<defs>
<clipPath id="clip0_484_3763">
<rect width="700" height="162" fill="white" transform="translate(0 32)"/>
</clipPath>
</defs>
</svg>
