<svg width="1159" height="62" viewBox="0 0 1159 62" fill="none" xmlns="http://www.w3.org/2000/svg">
<path d="M6 31.3418C6 29.6777 4.66406 28.3418 3 28.3418C1.33594 28.3418 -2.03873e-07 29.6777 -1.31134e-07 31.3418C-5.83957e-08 33.0059 1.33594 34.3418 3 34.3418C4.66406 34.3418 6 33.0059 6 31.3418Z" fill="#3D3D3D"/>
<path d="M60.8945 58.7891C60.8945 57.125 59.5586 55.7891 57.8945 55.7891C56.2305 55.7891 54.8945 57.125 54.8945 58.7891C54.8945 60.4531 56.2305 61.7891 57.8945 61.7891C59.5586 61.7891 60.8945 60.4531 60.8945 58.7891Z" fill="#3D3D3D"/>
<path d="M60.8945 3.89453C60.8945 2.23767 59.5514 0.894531 57.8945 0.894531C56.2377 0.894531 54.8945 2.23767 54.8945 3.89453C54.8945 5.55138 56.2377 6.89453 57.8945 6.89453C59.5514 6.89453 60.8945 5.55138 60.8945 3.89453Z" fill="#3D3D3D"/>
<path d="M115.789 31.3418C115.789 29.6777 114.453 28.3418 112.789 28.3418C111.125 28.3418 109.789 29.6777 109.789 31.3418C109.789 33.0059 111.125 34.3418 112.789 34.3418C114.453 34.3418 115.789 33.0059 115.789 31.3418Z" fill="#3D3D3D"/>
<path d="M170.684 58.7891C170.684 57.125 169.348 55.7891 167.684 55.7891C166.02 55.7891 164.684 57.125 164.684 58.7891C164.684 60.4531 166.02 61.7891 167.684 61.7891C169.348 61.7891 170.684 60.4531 170.684 58.7891Z" fill="#3D3D3D"/>
<path d="M170.684 3.89453C170.684 2.23046 169.348 0.894526 167.684 0.894526C166.02 0.894526 164.684 2.23046 164.684 3.89453C164.684 5.55859 166.02 6.89453 167.684 6.89453C169.348 6.89453 170.684 5.55859 170.684 3.89453Z" fill="#3D3D3D"/>
<path d="M225.58 31.3418C225.58 29.6777 224.244 28.3418 222.58 28.3418C220.916 28.3418 219.58 29.6777 219.58 31.3418C219.58 33.0059 220.916 34.3418 222.58 34.3418C224.244 34.3418 225.58 33.0059 225.58 31.3418Z" fill="#3D3D3D"/>
<path d="M280.475 58.7891C280.475 57.125 279.139 55.7891 277.475 55.7891C275.811 55.7891 274.475 57.125 274.475 58.7891C274.475 60.4531 275.811 61.7891 277.475 61.7891C279.139 61.7891 280.475 60.4531 280.475 58.7891Z" fill="#3D3D3D"/>
<path d="M280.475 3.89453C280.475 2.23767 279.131 0.894526 277.475 0.894526C275.818 0.894526 274.475 2.23767 274.475 3.89453C274.475 5.55138 275.818 6.89453 277.475 6.89453C279.131 6.89453 280.475 5.55138 280.475 3.89453Z" fill="#3D3D3D"/>
<path d="M335.369 31.3418C335.369 29.6777 334.033 28.3418 332.369 28.3418C330.705 28.3418 329.369 29.6777 329.369 31.3418C329.369 33.0059 330.705 34.3418 332.369 34.3418C334.033 34.3418 335.369 33.0059 335.369 31.3418Z" fill="#3D3D3D"/>
<path d="M390.266 58.7891C390.266 57.125 388.93 55.7891 387.266 55.7891C385.602 55.7891 384.266 57.125 384.266 58.7891C384.266 60.4531 385.602 61.7891 387.266 61.7891C388.93 61.7891 390.266 60.4531 390.266 58.7891Z" fill="#3D3D3D"/>
<path d="M390.266 3.89453C390.266 2.23046 388.93 0.894526 387.266 0.894526C385.602 0.894526 384.266 2.23046 384.266 3.89453C384.266 5.55859 385.602 6.89453 387.266 6.89453C388.93 6.89453 390.266 5.55859 390.266 3.89453Z" fill="#3D3D3D"/>
<path d="M445.16 31.3418C445.16 29.6777 443.824 28.3418 442.16 28.3418C440.496 28.3418 439.16 29.6777 439.16 31.3418C439.16 33.0059 440.496 34.3418 442.16 34.3418C443.824 34.3418 445.16 33.0059 445.16 31.3418Z" fill="#3D3D3D"/>
<path d="M500.055 58.7891C500.055 57.125 498.719 55.7891 497.055 55.7891C495.391 55.7891 494.055 57.125 494.055 58.7891C494.055 60.4531 495.391 61.7891 497.055 61.7891C498.719 61.7891 500.055 60.4531 500.055 58.7891Z" fill="#3D3D3D"/>
<path d="M500.055 3.89453C500.055 2.23046 498.719 0.894526 497.055 0.894526C495.391 0.894526 494.055 2.23046 494.055 3.89453C494.055 5.55859 495.391 6.89453 497.055 6.89453C498.719 6.89453 500.055 5.55859 500.055 3.89453Z" fill="#3D3D3D"/>
<path d="M554.949 31.3418C554.949 29.6777 553.613 28.3418 551.949 28.3418C550.285 28.3418 548.949 29.6777 548.949 31.3418C548.949 33.0059 550.285 34.3418 551.949 34.3418C553.613 34.3418 554.949 33.0059 554.949 31.3418Z" fill="#3D3D3D"/>
<path d="M609.844 58.7891C609.844 57.125 608.508 55.7891 606.844 55.7891C605.18 55.7891 603.844 57.125 603.844 58.7891C603.844 60.4531 605.18 61.7891 606.844 61.7891C608.508 61.7891 609.844 60.4531 609.844 58.7891Z" fill="#3D3D3D"/>
<path d="M609.844 3.89454C609.844 2.2377 608.501 0.894563 606.844 0.894563C605.187 0.894563 603.844 2.2377 603.844 3.89454C603.844 5.55139 605.187 6.89453 606.844 6.89453C608.501 6.89453 609.844 5.55139 609.844 3.89454Z" fill="#3D3D3D"/>
<path d="M664.738 31.3418C664.738 29.6777 663.402 28.3418 661.738 28.3418C660.074 28.3418 658.738 29.6777 658.738 31.3418C658.738 33.0059 660.074 34.3418 661.738 34.3418C663.402 34.3418 664.738 33.0059 664.738 31.3418Z" fill="#3D3D3D"/>
<path d="M719.633 58.7891C719.633 57.125 718.297 55.7891 716.633 55.7891C714.969 55.7891 713.633 57.125 713.633 58.7891C713.633 60.4531 714.969 61.7891 716.633 61.7891C718.297 61.7891 719.633 60.4531 719.633 58.7891Z" fill="#3D3D3D"/>
<path d="M719.633 3.89453C719.633 2.23046 718.297 0.894526 716.633 0.894526C714.969 0.894526 713.633 2.23046 713.633 3.89453C713.633 5.55859 714.969 6.89453 716.633 6.89453C718.297 6.89453 719.633 5.55859 719.633 3.89453Z" fill="#3D3D3D"/>
<path d="M774.529 31.3418C774.529 29.6777 773.193 28.3418 771.529 28.3418C769.865 28.3418 768.529 29.6777 768.529 31.3418C768.529 33.0059 769.865 34.3418 771.529 34.3418C773.193 34.3418 774.529 33.0059 774.529 31.3418Z" fill="#3D3D3D"/>
<path d="M829.424 58.7891C829.424 57.125 828.088 55.7891 826.424 55.7891C824.76 55.7891 823.424 57.125 823.424 58.7891C823.424 60.4531 824.76 61.7891 826.424 61.7891C828.088 61.7891 829.424 60.4531 829.424 58.7891Z" fill="#3D3D3D"/>
<path d="M829.424 3.89453C829.424 2.23767 828.081 0.894526 826.424 0.894526C824.767 0.894526 823.424 2.23767 823.424 3.89453C823.424 5.55138 824.767 6.89453 826.424 6.89453C828.081 6.89453 829.424 5.55138 829.424 3.89453Z" fill="#3D3D3D"/>
<path d="M884.318 31.3418C884.318 29.6778 882.982 28.3418 881.318 28.3418C879.654 28.3418 878.318 29.6778 878.318 31.3418C878.318 33.0059 879.654 34.3418 881.318 34.3418C882.982 34.3418 884.318 33.0059 884.318 31.3418Z" fill="#3D3D3D"/>
<path d="M939.215 58.7891C939.215 57.125 937.879 55.7891 936.215 55.7891C934.551 55.7891 933.215 57.125 933.215 58.7891C933.215 60.4531 934.551 61.7891 936.215 61.7891C937.879 61.7891 939.215 60.4531 939.215 58.7891Z" fill="#3D3D3D"/>
<path d="M939.215 3.89453C939.215 2.23046 937.879 0.894526 936.215 0.894526C934.551 0.894526 933.215 2.23046 933.215 3.89453C933.215 5.55859 934.551 6.89453 936.215 6.89453C937.879 6.89453 939.215 5.55859 939.215 3.89453Z" fill="#3D3D3D"/>
<path d="M994.109 31.3418C994.109 29.6777 992.773 28.3418 991.109 28.3418C989.445 28.3418 988.109 29.6777 988.109 31.3418C988.109 33.0059 989.445 34.3418 991.109 34.3418C992.773 34.3418 994.109 33.0059 994.109 31.3418Z" fill="#3D3D3D"/>
<path d="M1049 58.7891C1049 57.125 1047.67 55.7891 1046 55.7891C1044.34 55.7891 1043 57.125 1043 58.7891C1043 60.4531 1044.34 61.7891 1046 61.7891C1047.67 61.7891 1049 60.4531 1049 58.7891Z" fill="#3D3D3D"/>
<path d="M1049 3.89453C1049 2.23046 1047.67 0.894526 1046 0.894526C1044.34 0.894526 1043 2.23046 1043 3.89453C1043 5.55859 1044.34 6.89453 1046 6.89453C1047.67 6.89453 1049 5.55859 1049 3.89453Z" fill="#3D3D3D"/>
<path d="M1103.9 31.3418C1103.9 29.6777 1102.56 28.3418 1100.9 28.3418C1099.23 28.3418 1097.9 29.6777 1097.9 31.3418C1097.9 33.0059 1099.23 34.3418 1100.9 34.3418C1102.56 34.3418 1103.9 33.0059 1103.9 31.3418Z" fill="#3D3D3D"/>
<path d="M1158.79 58.7891C1158.79 57.125 1157.46 55.7891 1155.79 55.7891C1154.13 55.7891 1152.79 57.125 1152.79 58.7891C1152.79 60.4531 1154.13 61.7891 1155.79 61.7891C1157.46 61.7891 1158.79 60.4531 1158.79 58.7891Z" fill="#3D3D3D"/>
<path d="M1158.79 3.89453C1158.79 2.23767 1157.45 0.894526 1155.79 0.894526C1154.14 0.894526 1152.79 2.23767 1152.79 3.89453C1152.79 5.55138 1154.14 6.89453 1155.79 6.89453C1157.45 6.89453 1158.79 5.55138 1158.79 3.89453Z" fill="#3D3D3D"/>
</svg>
