<svg width="20" height="20" viewBox="0 0 20 20" fill="none" xmlns="http://www.w3.org/2000/svg">
<path d="M19.0565 9.83073C18.8039 9.83073 18.5902 9.74798 18.4154 9.58247C18.2406 9.41774 18.1337 9.20911 18.0949 8.95658C17.8424 7.07231 17.051 5.46465 15.7207 4.13361C14.3897 2.80335 12.782 2.01195 10.8977 1.75942C10.6646 1.73999 10.4607 1.64287 10.2858 1.46804C10.111 1.29321 10.0236 1.07953 10.0236 0.826994C10.0236 0.574462 10.111 0.365443 10.2858 0.199938C10.4607 0.0352091 10.6646 -0.0277296 10.8977 0.0111215C13.2676 0.263653 15.293 1.22522 16.9736 2.89581C18.6536 4.56641 19.6198 6.58667 19.8723 8.95658C19.9112 9.18969 19.8432 9.39366 19.6684 9.56849C19.4935 9.74332 19.2896 9.83073 19.0565 9.83073ZM14.2195 9.83073C14.0252 9.83073 13.8555 9.7674 13.7102 9.64075C13.5641 9.51487 13.4522 9.34509 13.3745 9.13141C13.1997 8.49037 12.8745 7.93208 12.3989 7.45654C11.9226 6.98023 11.3737 6.65466 10.752 6.47983C10.5384 6.40212 10.3635 6.29023 10.2275 6.14415C10.0916 5.99885 10.0236 5.81936 10.0236 5.60568C10.0236 5.31429 10.1254 5.08119 10.3289 4.90636C10.5333 4.73153 10.7617 4.67325 11.0143 4.73153C12.0438 4.96463 12.9277 5.45027 13.6659 6.18844C14.404 6.92661 14.8897 7.81047 15.1228 8.84003C15.2005 9.11199 15.1422 9.34509 14.948 9.53935C14.7537 9.7336 14.5109 9.83073 14.2195 9.83073ZM18.5611 20C16.2883 20 14.04 19.4607 11.8162 18.3822C9.59155 17.3045 7.61015 15.8915 5.87195 14.1432C4.13298 12.3949 2.71958 10.4135 1.63175 8.19899C0.543915 5.98447 0 3.74082 0 1.46804C0 1.11838 0.116553 0.826994 0.34966 0.593888C0.582766 0.360781 0.874149 0.244228 1.22381 0.244228H5.04093C5.33231 0.244228 5.59456 0.336305 5.82766 0.520459C6.06077 0.70539 6.19675 0.943547 6.2356 1.23493L6.90578 4.67325C6.96406 4.96463 6.96406 5.22688 6.90578 5.45998C6.8475 5.69309 6.72124 5.89706 6.52698 6.07189L3.8754 8.69434C4.7884 10.2484 5.88128 11.6567 7.15404 12.9194C8.42602 14.1821 9.86817 15.2796 11.4805 16.212L14.0738 13.5896C14.2681 13.3953 14.4965 13.2593 14.7591 13.1816C15.021 13.1039 15.2879 13.0845 15.5599 13.1234L18.7942 13.7935C19.0856 13.8518 19.3237 13.9878 19.5087 14.2015C19.6928 14.4152 19.7849 14.6774 19.7849 14.9882V18.7762C19.7849 19.1258 19.6684 19.4172 19.4353 19.6503C19.2021 19.8834 18.9108 20 18.5611 20ZM3.03038 7.03345L5.0992 5.05205C5.13806 5.0132 5.16253 4.9693 5.17263 4.92034C5.18196 4.87217 5.18662 4.82866 5.18662 4.7898L4.66213 2.16736C4.6427 2.10908 4.61357 2.06518 4.57471 2.03565C4.53586 2.0069 4.4873 1.99253 4.42902 1.99253H1.95227C1.91342 1.99253 1.87923 2.0069 1.8497 2.03565C1.82095 2.06518 1.80658 2.09937 1.80658 2.13822C1.86485 2.93466 1.99112 3.74549 2.18537 4.57068C2.37963 5.39666 2.6613 6.21758 3.03038 7.03345ZM17.8909 18.1934C17.9298 18.1934 17.964 18.1787 17.9935 18.1491C18.0222 18.1204 18.0366 18.0866 18.0366 18.0477V15.6001C18.0366 15.5418 18.0222 15.4933 17.9935 15.4544C17.964 15.4156 17.9201 15.3864 17.8618 15.367L15.4142 14.8717C15.3559 14.8522 15.312 14.8476 15.2825 14.8577C15.2537 14.867 15.2199 14.8911 15.1811 14.9299L13.1122 16.9988C13.8893 17.3678 14.6954 17.6546 15.5307 17.8589C16.366 18.0625 17.1528 18.174 17.8909 18.1934Z" fill="#BDBDBD"/>
</svg>
