<svg width="26" height="20" viewBox="0 0 26 20" fill="none" xmlns="http://www.w3.org/2000/svg">
<path d="M2.4 20C1.73333 20 1.16667 19.7667 0.7 19.3C0.233333 18.8333 0 18.2667 0 17.6V2.4C0 1.73333 0.233333 1.16667 0.7 0.7C1.16667 0.233333 1.73333 0 2.4 0H22.9333C23.6 0 24.1667 0.233333 24.6333 0.7C25.1 1.16667 25.3333 1.73333 25.3333 2.4V17.6C25.3333 18.2667 25.1 18.8333 24.6333 19.3C24.1667 19.7667 23.6 20 22.9333 20H2.4ZM23.3333 3.93333L13.3 10.3333C13.2111 10.4 13.1111 10.4498 13 10.4827C12.8889 10.5164 12.7778 10.5333 12.6667 10.5333C12.5556 10.5333 12.4444 10.5164 12.3333 10.4827C12.2222 10.4498 12.1222 10.4 12.0333 10.3333L2 3.93333V17.6C2 17.7111 2.03911 17.8058 2.11733 17.884C2.19467 17.9613 2.28889 18 2.4 18H22.9333C23.0444 18 23.1391 17.9613 23.2173 17.884C23.2947 17.8058 23.3333 17.7111 23.3333 17.6V3.93333ZM12.6667 8.66667L23.1333 2H2.2L12.6667 8.66667ZM2 3.93333V18V17.6V3.93333Z" fill="#BDBDBD"/>
</svg>
