<svg width="15" height="20" viewBox="0 0 15 20" fill="none" xmlns="http://www.w3.org/2000/svg">
<path d="M7.15579 14.9231C8.99332 13.5043 10.3803 12.1409 11.3167 10.8328C12.2532 9.52547 12.7214 8.2735 12.7214 7.07692C12.7214 6.06838 12.5313 5.20923 12.1511 4.49949C11.7715 3.79043 11.3037 3.21778 10.7475 2.78154C10.1905 2.34598 9.58522 2.02974 8.93148 1.83282C8.27774 1.63658 7.68584 1.53846 7.15579 1.53846C6.62573 1.53846 6.03383 1.63658 5.38009 1.83282C4.72635 2.02974 4.12138 2.34598 3.56517 2.78154C3.00826 3.21778 2.53969 3.79043 2.15946 4.49949C1.77994 5.20923 1.59017 6.06838 1.59017 7.07692C1.59017 8.2735 2.05839 9.52547 2.99483 10.8328C3.93126 12.1409 5.31825 13.5043 7.15579 14.9231ZM7.15579 16.5385C7.01444 16.5385 6.88192 16.5214 6.75824 16.4872C6.63456 16.453 6.51972 16.3932 6.4137 16.3077C4.25813 14.6838 2.65029 13.1067 1.59017 11.5764C0.530058 10.0468 0 8.54701 0 7.07692C0 5.91453 0.216617 4.89299 0.649851 4.01231C1.08238 3.13231 1.63894 2.39316 2.31954 1.79487C2.99942 1.19658 3.76801 0.748034 4.62529 0.449231C5.48186 0.149744 6.32536 0 7.15579 0C7.98621 0 8.83006 0.149744 9.68734 0.449231C10.5439 0.748034 11.3121 1.19658 11.992 1.79487C12.6726 2.39316 13.2295 3.13231 13.6628 4.01231C14.0953 4.89299 14.3116 5.91453 14.3116 7.07692C14.3116 8.54701 13.7815 10.0468 12.7214 11.5764C11.6613 13.1067 10.0534 14.6838 7.89787 16.3077C7.80952 16.3932 7.69927 16.453 7.56711 16.4872C7.43424 16.5214 7.29713 16.5385 7.15579 16.5385ZM7.15579 8.71795C7.66818 8.71795 8.10565 8.54291 8.46821 8.19282C8.83006 7.84205 9.01099 7.4188 9.01099 6.92308C9.01099 6.42735 8.83006 6.0041 8.46821 5.65333C8.10565 5.30325 7.66818 5.12821 7.15579 5.12821C6.6434 5.12821 6.20592 5.30325 5.84336 5.65333C5.48151 6.0041 5.30058 6.42735 5.30058 6.92308C5.30058 7.4188 5.48151 7.84205 5.84336 8.19282C6.20592 8.54291 6.6434 8.71795 7.15579 8.71795ZM0.795087 20C0.565395 20 0.375634 19.9275 0.225805 19.7826C0.0752681 19.6369 0 19.453 0 19.2308C0 19.0085 0.0752681 18.8246 0.225805 18.679C0.375634 18.534 0.565395 18.4615 0.795087 18.4615H13.5165C13.7462 18.4615 13.9363 18.534 14.0868 18.679C14.2367 18.8246 14.3116 19.0085 14.3116 19.2308C14.3116 19.453 14.2367 19.6369 14.0868 19.7826C13.9363 19.9275 13.7462 20 13.5165 20H0.795087Z" fill="#BDBDBD"/>
</svg>
