<svg width="206" height="200" viewBox="0 0 206 200" fill="none" xmlns="http://www.w3.org/2000/svg">
<g clip-path="url(#clip0_101_3655)">
<mask id="mask0_101_3655" style="mask-type:luminance" maskUnits="userSpaceOnUse" x="7" y="42" width="179" height="149">
<path d="M163.429 190.571C177.443 174.819 185.957 154.071 185.957 131.331C185.957 82.0842 146.031 42.1582 96.7844 42.1582C47.5379 42.1582 7.61603 82.0842 7.61603 131.331C7.61603 154.071 16.1342 174.819 30.144 190.571H163.429Z" fill="white"/>
</mask>
<g mask="url(#mask0_101_3655)">
<path d="M44.6153 146.504H22.1663V193.481H44.6153V146.504Z" fill="#895454"/>
<path d="M24.6606 129.044H2.21161V176.021H24.6606V129.044Z" fill="#895454"/>
<path d="M138.984 163.549H116.535V193.066H138.984V163.549Z" fill="#895454"/>
<path d="M158.939 152.74H136.49V195.144H158.939V152.74Z" fill="#895454"/>
<path d="M161.849 116.572H139.4V173.526H161.849V116.572Z" fill="#895454"/>
<path d="M159.355 112.415H141.894V169.369H159.355V112.415Z" fill="#895454"/>
<path d="M156.86 107.634H144.389V164.588H156.86V107.634Z" fill="#895454"/>
<path d="M182.635 129.044L175.568 125.303L170.164 129.044V179.555H182.635V129.044Z" fill="#895454"/>
<path d="M154.366 101.606H146.883V158.56H154.366V101.606Z" fill="#895454"/>
<path d="M22.9978 124.887H3.87451V171.863H22.9978V124.887Z" fill="#895454"/>
<path d="M22.9978 116.572H3.87451V122.808H22.9978V116.572Z" fill="#895454"/>
<path d="M19.6719 116.697H7.20026V126.637H19.6719V116.697Z" fill="#895454"/>
<path d="M17.1776 109.089H15.9305V134.033H17.1776V109.089Z" fill="#895454"/>
<path d="M180.557 121.977H179.309V146.92H180.557V121.977Z" fill="#895454"/>
</g>
<path d="M166.277 38.5041L126.218 0.365723L125.764 1.19717L165.815 39.3148L166.277 38.5041Z" fill="#667F7D"/>
<path d="M168.721 40.1961L167.964 40.0215L182.007 79.9184L183.122 79.9225L168.721 40.1961Z" fill="#667F7D"/>
<path d="M204.847 190.355C204.847 187.054 157.771 188.044 101.636 188.044C45.5008 188.044 0 190.721 0 194.022C0 197.323 45.505 200 101.636 200C157.767 200 204.847 193.66 204.847 190.359V190.355Z" fill="#EFB237"/>
<g style="mix-blend-mode:multiply" opacity="0.6">
<path d="M197.389 189.474C197.389 188.559 186.884 187.819 173.926 187.819C160.968 187.819 150.462 188.559 150.462 189.474C150.462 189.499 150.475 189.524 150.492 189.549C140.693 188.726 122.015 188.169 100.584 188.169C68.9891 188.169 43.3723 189.378 43.3723 190.867C43.3723 192.355 68.985 193.565 100.584 193.565C119.537 193.565 136.336 193.128 146.746 192.459C144.513 192.949 143.225 193.531 143.225 194.155C143.225 195.926 153.672 197.364 166.559 197.364C179.447 197.364 189.894 195.926 189.894 194.155C189.894 192.75 183.317 191.557 174.163 191.12C187.013 191.112 197.389 190.376 197.389 189.466V189.474Z" fill="#614E68"/>
</g>
<g style="mix-blend-mode:multiply" opacity="0.6">
<path d="M141.208 191.258C128.783 190.401 113.862 189.682 107.685 191.008C112.004 194.001 138.926 194.209 141.208 191.258Z" fill="#614E68"/>
</g>
<path d="M113.584 83.7085L112.794 116.483L113.95 116.511L114.739 83.7364L113.584 83.7085Z" fill="#605147"/>
<path d="M110.883 88.5319L110.088 121.306L111.243 121.334L112.038 88.56L110.883 88.5319Z" fill="#605147"/>
<path d="M115.902 93.7386L115.101 126.513L116.256 126.541L117.057 93.7668L115.902 93.7386Z" fill="#605147"/>
<path d="M67.9032 78.9947L67.0203 79.063L69.386 109.669L70.2689 109.6L67.9032 78.9947Z" fill="#605147"/>
<path d="M65.5154 83.9631L64.6324 84.0308L66.9768 114.638L67.8597 114.57L65.5154 83.9631Z" fill="#605147"/>
<path d="M72.6417 87.641L71.7546 87.7085L74.083 118.317L74.9701 118.25L72.6417 87.641Z" fill="#605147"/>
<path d="M144.676 170.301L142.672 190.783L146.351 190.933L148.471 170.301H144.676Z" fill="#605147"/>
<path d="M137.733 169.818L135.729 190.301L139.408 190.451L141.529 169.818H137.733Z" fill="#605147"/>
<path d="M129.73 169.432L127.727 189.915L131.406 190.069L133.526 169.432H129.73Z" fill="#605147"/>
<path d="M136.513 103.339L133.814 190.657L135.522 190.71L138.221 103.392L136.513 103.339Z" fill="#3F362C"/>
<path d="M128.324 109.809L125.855 190.163L128.739 190.252L131.208 109.897L128.324 109.809Z" fill="#3F362C"/>
<path d="M126.928 73.579L124.368 72.3359L121.025 74.6515L118.464 180.125L122.617 180.295L126.928 73.579Z" fill="#7B9B98"/>
<g style="mix-blend-mode:multiply" opacity="0.3">
<path d="M125.116 118.419L126.928 73.579L124.368 72.3359L124.259 72.4108L122.148 118.618L125.116 118.419Z" fill="#614E68"/>
</g>
<path d="M86.7821 57.4281L84.6411 56.0396L82.6207 57.4281V103.64H86.7821V57.4281Z" fill="#7B9B98"/>
<g style="mix-blend-mode:multiply" opacity="0.3">
<path d="M86.9733 104.217V58.0057L84.8323 56.6172L84.7367 56.6837V104.217H86.9733Z" fill="#614E68"/>
</g>
<path d="M179.763 88.1415L179.825 84.4873L126.675 0C126.675 0 121.113 2.62737 120.539 2.82691C119.965 3.02646 117.866 9.84431 117.866 9.84431L176.657 87.6801L179.763 88.1457V88.1415Z" fill="#D59C24"/>
<path d="M185.096 157.002L157.63 158.528L157.588 162.045L184.997 162.182L185.096 157.002Z" fill="#667F7D"/>
<path d="M184.007 150.725L157.118 154.237L157.081 157.73L183.912 155.85L184.007 150.725Z" fill="#667F7D"/>
<path d="M182.947 144.601L156.615 150.017L156.578 153.485L182.851 149.672L182.947 144.601Z" fill="#667F7D"/>
<g style="mix-blend-mode:overlay" opacity="0.7">
<path d="M156.615 150.017L156.578 153.485L179.808 150.117L182.249 144.746L156.615 150.017Z" fill="#FFF7DB"/>
</g>
<g style="mix-blend-mode:overlay" opacity="0.7">
<path d="M157.118 154.237L157.081 157.729L176.99 156.333L179.251 151.348L157.118 154.237Z" fill="#FFF7DB"/>
</g>
<g style="mix-blend-mode:overlay" opacity="0.7">
<path d="M157.63 158.528L157.588 162.045L174.358 162.128L176.47 157.48L157.63 158.528Z" fill="#FFF7DB"/>
</g>
<path d="M185.545 181.987L176.948 179.95L171.606 186.036L171.565 188.672L183.724 188.746L185.545 181.987Z" fill="#415957"/>
<path d="M168.908 185.524L161.375 180.033L152.059 181.463L153.418 188.813L168.359 188.489L168.908 185.524Z" fill="#415957"/>
<path d="M159.405 174.965L161.608 181.688L168.239 185.026L172.966 185.55L180.378 182.286L182.531 175.838L159.405 174.965Z" fill="#415957"/>
<path d="M58.7167 77.3828L56.3886 75.9028L54.5636 77.6572L61.5353 182.86L65.6883 182.586L58.7167 77.3828Z" fill="#667F7D"/>
<g style="mix-blend-mode:multiply" opacity="0.3">
<path d="M61.3815 117.621L58.7167 77.3828L56.3886 75.9028L55.9563 76.3227L59.0908 118.81L61.3815 117.621Z" fill="#614E68"/>
</g>
<path d="M101.166 78.0395L99.6819 76.8672L98.3059 77.973L95.9404 180.199L98.7964 180.262L101.166 78.0395Z" fill="#667F7D"/>
<g style="mix-blend-mode:multiply" opacity="0.3">
<path d="M100.422 110.038L101.166 78.0395L99.7152 76.8921L99.1997 110.038H100.422Z" fill="#614E68"/>
</g>
<path d="M170.504 67.1556L163.516 63.6719L163.57 167.503L173.805 167.249L170.504 67.1556Z" fill="#D59C24"/>
<path d="M187.321 165.375L177.676 162.315L156.162 169.461L158.095 178.441L185.001 179.584L187.321 165.375Z" fill="#D59C24"/>
<path d="M162.747 61.7846L166.193 38.0552L167.353 38.6829L164.381 61.9218L162.747 61.7846Z" fill="#D59C24"/>
<path d="M168.48 67.9208L166.48 38.1343L167.781 38.3214L170.272 67.6922L168.48 67.9208Z" fill="#D59C24"/>
<g style="mix-blend-mode:overlay" opacity="0.4">
<path d="M182.028 168.759L169.461 165.512L167.32 72.0698L163.52 70.4277L163.57 167L156.162 169.461L158.095 178.441L161.828 178.599L159.326 170.517L182.028 168.759Z" fill="#FFF7DB"/>
</g>
<path d="M36.6811 110.743L36.0203 111.281L39.5355 115.597L40.1963 115.059L36.6811 110.743Z" fill="#C49C37"/>
<path d="M28.6267 111.231H28.3357V141.308H28.6267V111.231Z" fill="#634228"/>
<path d="M38.8285 122.526H38.4294V123.129H38.8285V122.526Z" fill="url(#paint0_linear_101_3655)"/>
<path d="M41.8342 110.695L40.03 110.295L38.0262 123.129H41.8342V110.695Z" fill="#FFC61B"/>
<path d="M41.8342 117.662H38.8784L38.5043 120.069H41.8342V117.662Z" fill="#C65C2E"/>
<g style="mix-blend-mode:multiply" opacity="0.5">
<path d="M39.8304 122.792L41.8342 122.347V112.229L40.8323 112.324L39.8304 122.792Z" fill="#C49C37"/>
</g>
<path d="M39.8055 109.293L30.2812 109.693V110.894L39.9551 111.696L39.8055 109.293Z" fill="#FFC61B"/>
<path d="M39.9551 111.696L39.872 110.362H30.2812V110.383L30.5057 110.915L39.9551 111.696Z" fill="#C49C37"/>
<path d="M39.0281 110.894C39.0281 111.892 39.8346 112.698 40.8323 112.698C41.83 112.698 42.6365 111.892 42.6365 110.894C42.6365 109.896 41.83 109.09 40.8323 109.09C39.8346 109.09 39.0281 109.896 39.0281 110.894Z" fill="#C49C37"/>
<path d="M31.0088 110.894C31.0088 109.954 30.2438 109.189 29.3043 109.189C28.3648 109.189 27.5999 109.954 27.5999 110.894C27.5999 111.833 28.3648 112.598 29.3043 112.598C30.2438 112.598 31.0088 111.833 31.0088 110.894Z" fill="#C49C37"/>
<path d="M46.6649 122.696C46.7106 122.459 46.6441 122.218 46.4861 122.035C46.3282 121.852 46.0995 121.757 45.8584 121.765L33.977 122.281C33.7276 122.293 33.4948 122.405 33.3368 122.597C33.1789 122.788 33.104 123.037 33.1373 123.283L33.4574 125.681L46.2409 124.896L46.6566 122.692L46.6649 122.696Z" fill="#C49C37"/>
<path d="M30.5099 110.894C30.5099 110.229 29.9694 109.688 29.3043 109.688C28.6391 109.688 28.0987 110.229 28.0987 110.894C28.0987 111.559 28.6391 112.1 29.3043 112.1C29.9694 112.1 30.5099 111.559 30.5099 110.894Z" fill="#FFC61B"/>
<path d="M39.4064 110.894C39.4064 111.684 40.0466 112.324 40.8365 112.324C41.6263 112.324 42.2665 111.684 42.2665 110.894C42.2665 110.104 41.6263 109.464 40.8365 109.464C40.0466 109.464 39.4064 110.104 39.4064 110.894Z" fill="#FFC61B"/>
<path style="mix-blend-mode:overlay" d="M46.6649 122.696C46.7106 122.459 46.6441 122.218 46.4861 122.035C46.3282 121.853 46.0995 121.753 45.8584 121.765L33.9812 122.281C33.7318 122.293 33.499 122.405 33.341 122.597C33.183 122.788 33.1082 123.037 33.1414 123.283L33.2495 124.097L46.6192 122.929L46.6649 122.692V122.696Z" fill="url(#paint1_linear_101_3655)"/>
<path d="M36.7406 125.397L35.8079 125.468L35.9039 126.736L36.8366 126.666L36.7406 125.397Z" fill="#9B7623"/>
<path d="M44.4429 125L43.5109 125.079L43.6184 126.347L44.5504 126.268L44.4429 125Z" fill="#9B7623"/>
<path d="M29.1547 140.373C28.7972 139.953 28.0572 140.016 27.7495 140.473C27.4419 140.93 27.6996 142.227 28.5519 142.93C29.3542 141.978 29.508 140.793 29.1547 140.373Z" fill="#9B7623"/>
<path d="M29.1546 143.079C29.1546 142.776 28.9094 142.526 28.6017 142.526C28.2941 142.526 28.0488 142.772 28.0488 143.079C28.0488 143.387 28.2941 143.632 28.6017 143.632C28.9094 143.632 29.1546 143.387 29.1546 143.079Z" fill="#C49C37"/>
<path d="M29.6826 146.513C29.6826 146.513 29.6826 146.505 29.6826 146.501C28.3648 145.84 28.9509 143.578 28.6683 143.578C28.3856 143.578 28.1569 144.235 28.1569 145.041C28.1569 145.258 28.1735 145.457 28.2026 145.644C28.2234 145.852 28.2816 146.048 28.3689 146.226C28.3773 146.243 28.3856 146.255 28.3897 146.272C28.6558 146.775 29.1505 147.12 29.7284 147.12C30.5806 147.12 31.2707 146.372 31.2707 145.453C30.8342 145.179 30.8259 146.763 29.6785 146.513H29.6826Z" fill="#42392B"/>
<g style="mix-blend-mode:multiply" opacity="0.5">
<path d="M46.2492 124.197L33.3493 125.133V125.868L46.2492 124.933V124.197Z" fill="#3D3028"/>
</g>
<path d="M39.6807 110.894C39.6807 111.53 40.1962 112.046 40.8323 112.046C41.4683 112.046 41.9838 111.53 41.9838 110.894C41.9838 110.258 41.4683 109.743 40.8323 109.743C40.1962 109.743 39.6807 110.258 39.6807 110.894Z" fill="#604F35"/>
<path d="M28.3773 110.894C28.3773 111.43 28.8096 111.863 29.3459 111.863C29.8822 111.863 30.3145 111.43 30.3145 110.894C30.3145 110.358 29.8822 109.925 29.3459 109.925C28.8096 109.925 28.3773 110.362 28.3773 110.894Z" fill="#604F35"/>
<path d="M110.225 105.419L109.032 101.769L109.044 101.732H109.019L109.011 101.707L108.961 101.723L105.602 101.366C104.849 102.754 104.367 104.213 103.673 107.227C103.295 108.075 103.361 113.467 103.673 113.472H104.637C104.176 111.247 104.18 109.867 104.637 107.406L106.429 107.627C106.787 109.846 107.157 111.385 106.429 113.542H107.394C108.021 111.518 107.651 109.526 107.394 106.953C107.29 105.086 107.66 104.317 108.533 103.353L109.31 105.731L110.225 105.427V105.419Z" fill="url(#paint2_linear_101_3655)"/>
<g style="mix-blend-mode:multiply" opacity="0.3">
<path d="M103.76 109.635C103.76 111.048 103.968 112.353 104.346 113.468H104.596C104.13 111.243 104.134 109.863 104.596 107.402L106.4 107.622C106.758 109.842 107.132 111.381 106.4 113.538H107.373C108.005 111.514 107.635 109.522 107.373 106.949C107.269 105.082 107.639 104.313 108.52 103.349L109.302 105.727L110.225 105.423L109.061 101.89C108.761 101.786 108.454 101.728 108.134 101.728C105.506 101.728 103.764 105.54 103.764 109.635H103.76Z" fill="#614E68"/>
</g>
<path d="M105.598 101.366C104.891 101.565 104.754 102.064 104.958 102.821C105.061 103.877 105.228 104.729 105.893 105.527L106.571 104.8C106.155 104.072 105.685 102.85 105.598 101.366Z" fill="#F9D12B"/>
<path d="M110.048 105.318L109.45 105.496L110.054 107.52L110.651 107.342L110.048 105.318Z" fill="#F4C78C"/>
<path d="M106.379 104.812L105.885 105.193L107.612 107.432L108.106 107.051L106.379 104.812Z" fill="#F4C78C"/>
<path d="M108.857 101.175C108.857 100.514 108.275 99.9775 107.556 99.9775C106.837 99.9775 106.255 100.514 106.255 101.175C106.255 101.836 106.837 102.372 107.556 102.372C108.275 102.372 108.857 101.836 108.857 101.175Z" fill="#F4C78C"/>
<g style="mix-blend-mode:multiply" opacity="0.3">
<path d="M106.675 101.278C106.675 101.756 106.982 102.168 107.423 102.359C107.469 102.363 107.51 102.372 107.556 102.372C108.275 102.372 108.857 101.835 108.857 101.174C108.857 100.696 108.549 100.285 108.109 100.094C108.063 100.089 108.022 100.081 107.972 100.081C107.252 100.081 106.67 100.617 106.67 101.278H106.675Z" fill="#614E68"/>
</g>
<g style="mix-blend-mode:multiply" opacity="0.5">
<path d="M108.703 101.723C108.799 101.557 108.857 101.37 108.857 101.17C108.857 100.692 108.549 100.281 108.109 100.09C107.942 100.015 107.755 99.9731 107.556 99.9731C106.837 99.9731 106.255 100.509 106.255 101.17C106.255 101.366 106.309 101.545 106.4 101.707C107.032 101.964 108.067 101.931 108.703 101.719V101.723Z" fill="#3D3028"/>
</g>
<path d="M109.273 101.12C109.273 100.622 108.753 99.3868 107.402 99.4575C106.429 99.4908 105.876 100.418 105.876 100.913C105.876 102.101 109.273 101.848 109.273 101.12Z" fill="#EA7A2F"/>
<g style="mix-blend-mode:overlay" opacity="0.6">
<path d="M108.761 99.9815C108.462 99.6656 108.017 99.4245 107.402 99.4536C106.429 99.4868 105.876 100.414 105.876 100.909C105.876 101.141 106.014 101.32 106.226 101.449C106.479 101.424 106.745 101.378 107.011 101.295C107.872 101.029 108.524 100.509 108.761 99.9774V99.9815Z" fill="#FFFAC6"/>
</g>
<path d="M62.188 102.949L62.7367 103.082L62.9695 104.475L62.5247 104.625L62.188 102.949Z" fill="#F4C78C"/>
<path d="M62.6163 102.905L62.2172 102.909L62.2285 104.156L62.6276 104.152L62.6163 102.905Z" fill="#A06B47"/>
<path d="M63.0485 104.305C63.1608 105.086 63.5765 105.489 64.7072 105.489C64.8735 105.864 64.8029 106.038 64.4453 106.167C63.3021 106.096 62.5954 105.46 62.3834 104.409L63.0485 104.305Z" fill="url(#paint3_linear_101_3655)"/>
<path d="M63.5557 110.378L63.3146 105.315L65.6967 104.758L66.2579 110.179C66.1789 112.233 66.3785 113.958 67.0644 115.072L66.0542 115.226C65.4888 114.382 65.2518 112.278 65.256 110.258L64.6241 110.308C64.3996 112.341 64.304 113.954 64.7197 115.454L63.6513 115.467C63.4434 114.349 63.352 112.752 63.5557 110.391H63.5515L63.5557 110.378Z" fill="url(#paint4_linear_101_3655)"/>
<path d="M62.2877 104.866C62.5787 105.726 62.9903 106.005 64.2084 105.718C64.4703 106.1 64.4329 106.317 64.0753 106.554C62.8282 106.761 61.926 106.221 61.4688 105.082L62.2877 104.866Z" fill="url(#paint5_linear_101_3655)"/>
<path d="M65.8422 104.142C65.8464 104.72 65.2934 105.194 64.6075 105.203C63.9216 105.211 63.3562 104.745 63.352 104.172C63.3479 103.594 63.9008 103.12 64.5867 103.111C65.2768 103.103 65.838 103.569 65.8422 104.147V104.142Z" fill="#F4C78C"/>
<path d="M62.8263 101.967L61.0013 101.986L61.0135 103.187L62.8384 103.169L62.8263 101.967Z" fill="#A06B47"/>
<path d="M61.7639 103.066L62.3709 103.211L62.0965 105.032L61.6018 105.224L61.7639 103.066Z" fill="#F4C78C"/>
<path d="M61.1913 102.258L60.7922 102.262L60.7991 102.944L61.1982 102.94L61.1913 102.258Z" fill="#A06B47"/>
<path d="M60.9948 102.547L59.7643 102.56L59.7658 102.709L60.9963 102.697L60.9948 102.547Z" fill="#A06B47"/>
<path d="M63.1192 103.236C63.3811 102.617 64.2209 102.293 65.0565 102.642C65.8879 102.995 66.3951 103.889 66.1332 104.508C65.8713 105.128 65.0772 105.028 64.2458 104.675C63.4144 104.321 62.8573 103.856 63.1192 103.236Z" fill="#EA7A2F"/>
<g style="mix-blend-mode:overlay" opacity="0.6">
<path d="M64.7987 103.448C65.3475 103.586 65.7715 103.893 65.9087 104.209C65.9087 104.213 65.9087 104.222 65.9046 104.23C65.6842 104.754 65.0108 104.671 64.304 104.371C63.8634 104.184 63.5142 103.96 63.3687 103.689C63.5973 103.403 64.1793 103.29 64.8029 103.448H64.7987Z" fill="#FFFAC6"/>
</g>
<g style="mix-blend-mode:multiply" opacity="0.3">
<path d="M64.6075 110.478C64.3955 112.424 64.3165 113.991 64.7239 115.442H64.5327C64.3207 114.752 64.1876 113.929 64.1793 113.047C64.171 112.232 64.3373 111.326 64.6075 110.478Z" fill="#614E68"/>
</g>
<path d="M148.795 126.588L89.1393 96.7637L33.0583 126.33L33.2495 128.454L88.3702 140.73L149.053 128.936L148.795 126.588Z" fill="#89CEC8"/>
<path d="M149.053 128.903L89.397 99.0752L33.0873 128.388L88.6279 143.046L149.053 128.903Z" fill="url(#paint6_linear_101_3655)"/>
<path d="M55.2329 127.103L89.4635 111.867L125.428 128.067L123.673 138.743L56.4052 138.386L55.2329 127.103Z" fill="#667F7D"/>
<g style="mix-blend-mode:overlay" opacity="0.4">
<path d="M89.6548 116.432L82.9076 119.874V123.632L77.9397 125.465L77.9896 121.221L55.5863 130.446L56.2806 139.072L89.0146 139.637L89.6548 116.432Z" fill="#FFFAC6"/>
</g>
<path d="M61.7888 119.292L59.9597 118.327L57.3531 119.766L58.6585 139.433L62.8074 139.159L61.7888 119.292Z" fill="#667F7D"/>
<g style="mix-blend-mode:multiply" opacity="0.3">
<path d="M62.77 138.394L61.7889 119.292L59.9597 118.327L59.6479 118.502L60.974 138.51L62.77 138.394Z" fill="#614E68"/>
</g>
<g style="mix-blend-mode:multiply" opacity="0.3">
<path d="M123.673 138.743L125.428 128.067L89.4635 111.867L89.0894 138.56L123.673 138.743Z" fill="#614E68"/>
</g>
<g style="mix-blend-mode:multiply" opacity="0.3">
<path d="M92.7435 116.303L92.8682 123.89L100.971 127.103L101.1 119.516L92.7435 116.303Z" fill="#614E68"/>
</g>
<g style="mix-blend-mode:multiply" opacity="0.5">
<path d="M92.8683 118.36L92.8059 122.538L100.006 125.112L99.8108 121.063L92.8683 118.36Z" fill="#614E68"/>
</g>
<g style="mix-blend-mode:multiply" opacity="0.3">
<path d="M109.967 122.347L110.096 129.93L118.198 133.143L118.327 125.561L109.967 122.347Z" fill="#614E68"/>
</g>
<path d="M148.795 141.661L89.1392 121.445L32.8296 141.312L33.3451 142.917L88.3701 151.248L149.053 143.204L148.795 141.661Z" fill="#89CEC8"/>
<path d="M149.053 143.233L89.397 123.017L33.0873 142.884L88.6279 152.816L149.053 143.233Z" fill="url(#paint7_linear_101_3655)"/>
<path d="M55.3909 143.304L89.397 131.859L123.727 144.268L123.673 155.198L56.4052 154.84L55.3909 143.304Z" fill="#667F7D"/>
<g style="mix-blend-mode:overlay" opacity="0.4">
<path d="M89.0769 141.229L86.3789 142.385L86.4246 145.062L73.3377 147.835L71.8909 144.314L69.6959 154.583L89.2681 157.767L89.0769 141.229Z" fill="#FFFAC6"/>
</g>
<path d="M94.2901 144.472C94.1945 143.341 94.3899 142.443 94.7682 141.562L93.0596 139.658L93.6208 139.192L95.4417 140.78L97.5411 141.233C96.7761 142.684 96.5392 143.794 96.8135 145.536H96.8094L97.3457 149.194L96.5516 149.302L95.9779 145.403L95.0343 145.257L94.8347 148.99L94.0324 148.949L94.2735 144.472H94.2901Z" fill="url(#paint8_linear_101_3655)"/>
<path d="M95.8325 139.334C96.3438 138.806 97.2169 138.785 97.7781 139.288C98.3393 139.791 98.385 140.631 97.8695 141.159C97.3582 141.687 95.317 139.862 95.8283 139.334H95.8325Z" fill="#A35B2B"/>
<path d="M95.6912 140.261C95.6912 139.712 96.2108 139.267 96.851 139.267C97.4912 139.267 98.0109 139.712 98.0109 140.261C98.0109 140.809 97.4912 141.254 96.851 141.254C96.2108 141.254 95.6912 140.809 95.6912 140.261Z" fill="#F4C78C"/>
<path d="M97.1253 139.949C96.7387 139.604 96.2939 139.379 95.8782 139.296C96.3937 138.81 97.2334 138.802 97.778 139.288C98.3268 139.783 98.3767 140.589 97.9027 141.121C97.7863 140.722 97.5203 140.302 97.1253 139.949Z" fill="#EA7A2F"/>
<g style="mix-blend-mode:multiply" opacity="0.3">
<path d="M94.3608 142.884C94.4439 142.423 94.5853 141.99 94.7682 141.562L93.0596 139.658L93.6208 139.192L95.4417 140.78L95.9572 140.893C95.7909 140.722 95.6869 140.502 95.6869 140.261C95.6869 140.103 95.7327 139.953 95.8117 139.82C95.7244 139.621 95.716 139.446 95.8241 139.33C95.8366 139.313 95.8574 139.305 95.8699 139.292C96.1276 139.051 96.4602 138.926 96.8052 138.926C96.8177 138.926 96.826 138.926 96.8385 138.926C96.9133 138.926 96.984 138.93 97.0588 138.943C97.0879 138.947 97.1129 138.96 97.142 138.964C97.2002 138.976 97.2542 138.989 97.3083 139.009C97.354 139.026 97.3997 139.051 97.4454 139.072C97.4787 139.088 97.5161 139.101 97.5494 139.122C97.6284 139.167 97.699 139.221 97.7697 139.284C97.8404 139.346 97.8986 139.413 97.9526 139.483C97.9776 139.517 97.9942 139.55 98.015 139.583C98.0399 139.625 98.069 139.662 98.0898 139.704C98.1148 139.758 98.1314 139.812 98.1522 139.866C98.1605 139.891 98.173 139.916 98.1771 139.941C98.1937 140.011 98.2062 140.082 98.2104 140.157C98.2104 140.165 98.2104 140.173 98.2104 140.186C98.2353 140.531 98.1854 140.814 97.9235 141.084C97.8445 141.167 97.7448 141.358 97.6076 141.342C97.2708 141.982 96.9549 142.46 96.8219 143.054C96.3396 142.896 95.8075 142.755 95.2671 142.755C94.9469 142.755 94.6393 142.805 94.3525 142.88L94.3608 142.884Z" fill="#614E68"/>
</g>
<path d="M94.9261 140.489L95.3211 139.886L97.6491 141.291L97.2542 141.894L94.9261 140.489Z" fill="#F9D12B"/>
<path d="M92.012 137.716L93.5793 139.296L93.1926 139.649L91.6254 138.07L92.012 137.716Z" fill="#F4C78C"/>
<g style="mix-blend-mode:multiply" opacity="0.3">
<path d="M92.1907 138.107L93.5793 139.296L93.1926 139.65L91.6254 138.07L92.1907 138.107Z" fill="#614E68"/>
</g>
<path d="M93.3964 138.81L95.3087 139.982L95.0218 140.418L93.1053 139.242L93.3964 138.81Z" fill="#F4C78C"/>
<g style="mix-blend-mode:multiply" opacity="0.3">
<path d="M123.673 155.197L123.727 144.268L89.397 131.539L88.6903 153.846L123.673 155.197Z" fill="#614E68"/>
</g>
<path d="M148.667 157.089L89.5592 144.268L33.0583 156.802L33.104 158.49L88.3702 163.666L148.953 158.681L148.667 157.089Z" fill="#89CEC8"/>
<g style="mix-blend-mode:multiply" opacity="0.3">
<path d="M65.1645 153.651L66.1914 149.411L45.8168 153.971L45.4967 155.389L65.1645 153.651Z" fill="#614E68"/>
</g>
<path d="M149.053 158.673L89.397 146.077L33.0873 158.457L88.6279 164.643L149.053 158.673Z" fill="url(#paint9_linear_101_3655)"/>
<path d="M55.3909 158.76L90.4446 152.724L123.727 158.91L123.673 174.288L56.4052 173.934L55.3909 158.76Z" fill="#667F7D"/>
<g style="mix-blend-mode:overlay" opacity="0.4">
<path d="M90.0414 160.273L74.6139 161.911L69.0225 170.588L89.0769 173.577L90.0414 160.273Z" fill="#FFFAC6"/>
</g>
<g style="mix-blend-mode:multiply" opacity="0.3">
<path d="M90.5569 152.687L90.0414 174.35L123.79 174.541V158.86L90.5569 152.687Z" fill="#614E68"/>
</g>
<path d="M148.762 169.336L88.8857 162.685L33.1539 169.141L33.0583 170.687L88.3702 174.337L148.953 170.829L148.762 169.336Z" fill="#89CEC8"/>
<g style="mix-blend-mode:multiply" opacity="0.3">
<path d="M58.7998 168.759C60.9283 167.861 61.6849 167.212 62.2711 165.803L38.8742 168.31L38.7454 170.301L58.7998 168.759Z" fill="#614E68"/>
</g>
<path d="M149.053 170.816L89.397 165.092L33.0873 170.717L88.6902 174.541L149.053 170.816Z" fill="url(#paint10_linear_101_3655)"/>
<path d="M61.3357 188.671C61.2152 183.986 54.8422 175.402 48.4442 175.568C42.0462 175.734 39.2775 184.09 39.3981 188.775C44.6528 189.191 61.078 190.322 61.3357 188.671Z" fill="#634228"/>
<path style="mix-blend-mode:overlay" d="M54.6967 180.349C55.0043 179.767 55.2662 179.172 55.499 178.578C53.3913 176.753 50.9177 175.506 48.4442 175.568C42.2915 175.726 39.502 183.454 39.4022 188.214C44.8066 189.956 51.375 186.705 54.6967 180.349Z" fill="url(#paint11_linear_101_3655)"/>
<path d="M49.1259 171.951L88.7775 168.513L130.795 171.781L131.081 190.588L50.3481 190.164L49.1259 171.951Z" fill="#526866"/>
<g style="mix-blend-mode:multiply" opacity="0.3">
<path d="M88.7776 168.513L90.2326 189.969L124.945 190.933L126.683 171.07L88.7776 168.513Z" fill="#614E68"/>
</g>
<g style="mix-blend-mode:overlay" opacity="0.4">
<path d="M125.141 7.54145L127.157 0.769324L126.675 0.00439453C126.675 0.00439453 121.113 2.63176 120.539 2.83131C119.965 3.03086 117.866 9.84871 117.866 9.84871L162.685 69.1848L166.539 69.2596L125.141 7.54145Z" fill="#FFF7DB"/>
</g>
<path d="M131.888 23.0767H130.869L130.807 126.479L131.809 126.488L131.888 23.0767Z" fill="#D59C24"/>
<path d="M173.157 65.0063L168.696 65.7463L167.17 75.0211L171.037 79.1492L175.859 77.927L177.015 69.6375L173.157 65.0063Z" fill="url(#paint12_linear_101_3655)"/>
<path d="M63.2356 132.503C63.6887 142.518 63.7137 152.013 62.6577 158.153C61.6018 163.271 61.1528 166.069 56.6797 167.989C51.9072 170.742 45.2057 169.723 44.05 168.858C42.2915 169.819 37.2446 171.037 33.8482 171.045C33.3701 171.045 32.9169 170.846 32.5968 170.488C32.2767 170.135 32.1271 169.661 32.1811 169.187C33.2662 159.342 34.1849 152.038 32.8296 141.317C36.8081 142.057 40.1381 142.044 42.4079 137.712C46.4737 138.149 49.3421 136.627 52.8217 133.855C57.1577 135.127 59.4276 134.574 63.2356 132.503Z" fill="#BFBF84"/>
<path style="mix-blend-mode:overlay" d="M42.3746 166.667C43.5303 167.536 50.2317 168.55 55.0042 165.798C59.4774 163.882 59.9264 161.084 60.9823 155.962C61.9343 150.437 62.005 142.189 61.6807 133.293C58.7333 134.686 54.7465 137.034 52.8175 133.85C49.3379 136.623 45.4884 140.406 42.4037 137.708C40.1338 142.04 34.7877 143.686 32.8254 141.312C34.1641 151.917 34.2347 159.035 33.291 168.7C36.4256 166.118 40.6369 167.611 42.3746 166.663V166.667Z" fill="url(#paint13_linear_101_3655)"/>
<path d="M43.4887 153.851C43.5552 155.223 43.4638 156.761 43.1894 158.366C42.333 163.396 40.0091 167.22 37.9139 167.154C38.579 168.397 39.4146 169.141 40.3168 169.141C42.4993 169.141 44.2703 164.851 44.2703 159.563C44.2703 157.418 43.9751 155.443 43.4846 153.847L43.4887 153.851Z" fill="#BFBF84"/>
<path d="M63.1732 132.919C63.1732 132.37 62.7284 131.921 62.1755 131.921C61.6226 131.921 61.1777 132.366 61.1777 132.919C61.1777 133.472 61.6226 133.917 62.1755 133.917C62.7284 133.917 63.1732 133.472 63.1732 132.919Z" fill="#605147"/>
<path d="M53.4952 134.174C53.4952 133.626 53.0503 133.177 52.4974 133.177C51.9445 133.177 51.4997 133.622 51.4997 134.174C51.4997 134.727 51.9445 135.172 52.4974 135.172C53.0503 135.172 53.4952 134.727 53.4952 134.174Z" fill="#605147"/>
<path d="M43.8546 138.032C43.8546 137.479 43.4098 137.035 42.861 137.035C42.3123 137.035 41.8633 137.479 41.8633 138.032C41.8633 138.585 42.3081 139.026 42.861 139.026C43.4139 139.026 43.8546 138.581 43.8546 138.032Z" fill="#605147"/>
<g style="mix-blend-mode:multiply" opacity="0.3">
<path d="M108.553 140.859L108.682 148.446L117.167 150.242L116.914 144.073L108.553 140.859Z" fill="#614E68"/>
</g>
<g style="mix-blend-mode:multiply" opacity="0.5">
<path d="M108.583 142.601L108.682 148.446L115.945 149.984L115.754 145.357L108.583 142.601Z" fill="#614E68"/>
</g>
<g style="mix-blend-mode:multiply" opacity="0.5">
<path d="M110.096 124.405L110.033 128.583L117.234 131.152L117.038 127.103L110.096 124.405Z" fill="#614E68"/>
</g>
<g style="mix-blend-mode:multiply" opacity="0.5">
<path d="M55.9064 190.355L53.9816 174.159L61.502 173.577L64.3913 190.551L55.9064 190.355Z" fill="#614E68"/>
</g>
<g style="mix-blend-mode:multiply" opacity="0.3">
<path d="M56.4843 176.279L58.0307 190.164L64.3913 190.551L61.3066 176.083L56.4843 176.279Z" fill="#614E68"/>
</g>
<g style="mix-blend-mode:multiply" opacity="0.5">
<path d="M70.9514 189.778L69.0225 173.577L76.5429 172.999L79.4363 189.969L70.9514 189.778Z" fill="#614E68"/>
</g>
<g style="mix-blend-mode:multiply" opacity="0.3">
<path d="M71.5293 175.701L73.0716 189.586L79.4363 189.969L76.3475 175.506L71.5293 175.701Z" fill="#614E68"/>
</g>
<path d="M121.088 186.693H111.638V191.32H121.088V186.693Z" fill="#8D8E75"/>
<path d="M122.052 181.87H112.603V186.497H122.052V181.87Z" fill="#8D8E75"/>
<path d="M126.874 177.63H117.425V182.257H126.874V177.63Z" fill="#8D8E75"/>
<path d="M129.381 186.884H119.932V191.511H129.381V186.884Z" fill="#8D8E75"/>
<path d="M131.501 181.87H122.052V186.497H131.501V181.87Z" fill="#8D8E75"/>
<path d="M134.877 178.208H125.428V182.835H134.877V178.208Z" fill="#8D8E75"/>
<path d="M137.77 182.739H131.984V187.366H137.77V182.739Z" fill="#8D8E75"/>
<path d="M135.555 187.079H129.768V191.706H135.555V187.079Z" fill="#8D8E75"/>
<path d="M128.516 187.849H122.73V192.476H128.516V187.849Z" fill="#8D8E75"/>
<path d="M118.772 183.126H114.145V187.753H118.772V183.126Z" fill="#8D8E75"/>
<path d="M114.149 182.161H112.22V186.788H114.149V182.161Z" fill="#AFAF91"/>
<path d="M130.441 182.448H124.654V187.075H130.441V182.448Z" fill="#8D8E75"/>
<path d="M132.083 177.63H126.297V182.257H132.083V177.63Z" fill="#8D8E75"/>
<path d="M133.913 187.849H128.13V192.476H133.913V187.849Z" fill="#8D8E75"/>
<path d="M134.781 183.317H128.995V187.944H134.781V183.317Z" fill="#8D8E75"/>
<path d="M134.108 181.197H128.321V185.824H134.108V181.197Z" fill="#8D8E75"/>
<path d="M139.699 186.979H133.913V191.606H139.699V186.979Z" fill="#8D8E75"/>
<path d="M122.73 187.753H116.943V192.38H122.73V187.753Z" fill="#AFAF91"/>
<path d="M124.659 182.644H118.872V187.271H124.659V182.644Z" fill="#AFAF91"/>
<path d="M126.392 177.821H122.534V182.066H126.392V177.821Z" fill="#AFAF91"/>
<g style="mix-blend-mode:overlay" opacity="0.4">
<path d="M167.811 71.1221L167.195 74.8677L174.121 73.8783L167.811 71.1221Z" fill="#FFF7DB"/>
</g>
<g style="mix-blend-mode:multiply" opacity="0.5">
<path d="M173.219 65.2642L174.121 73.8779L175.792 77.8647L177.077 69.7623L173.219 65.2642Z" fill="#614E68"/>
</g>
<path d="M74.6139 187.142H66.6403V191.386H74.6139V187.142Z" fill="#8D8E75"/>
<path d="M70.6895 186.19C69.7582 185.026 67.4053 185.358 65.4389 186.938C63.4725 188.513 62.6328 190.733 63.5681 191.897C64.4994 193.061 66.8523 192.729 68.8187 191.149C70.7851 189.574 71.6248 187.354 70.6936 186.19H70.6895ZM68.5069 190.763C66.8939 192.055 64.9691 192.326 64.2083 191.374C63.4434 190.422 64.1335 188.605 65.7424 187.312C67.3554 186.023 69.2802 185.749 70.0409 186.701C70.8059 187.653 70.1158 189.474 68.5069 190.763Z" fill="#3F362C"/>
<path d="M69.3758 185.733C68.4446 184.569 66.0916 184.901 64.1252 186.481C62.1589 188.056 61.3191 190.281 62.2545 191.44C63.1857 192.604 65.5345 192.272 67.5051 190.692C69.4714 189.117 70.3112 186.897 69.38 185.733H69.3758ZM67.1974 190.31C65.5886 191.598 63.6596 191.873 62.8989 190.921C62.1381 189.969 62.824 188.152 64.4329 186.859C66.0417 185.57 67.9707 185.296 68.7314 186.248C69.4922 187.2 68.8063 189.017 67.1974 190.31Z" fill="#3F362C"/>
<g style="mix-blend-mode:multiply" opacity="0.5">
<path d="M74.7095 157.189L75.1917 164.227L81.4608 163.454L80.8829 156.32L74.7095 157.189Z" fill="#614E68"/>
</g>
<g style="mix-blend-mode:multiply" opacity="0.5">
<path d="M76.281 164.09L81.4609 163.454L80.962 157.338L75.8694 158.053L76.281 164.09Z" fill="#614E68"/>
</g>
<g style="mix-blend-mode:multiply" opacity="0.5">
<path d="M105.951 137.708L106.047 147.735L91.4881 144.555L91.2927 132.503L105.951 137.708Z" fill="#614E68"/>
</g>
<g style="mix-blend-mode:multiply" opacity="0.5">
<path d="M104.409 137.226L91.2969 132.57L91.4839 144.41L104.504 147.257L104.409 137.226Z" fill="#614E68"/>
</g>
<g style="mix-blend-mode:multiply" opacity="0.5">
<path d="M107.398 155.933L107.589 164.61L92.8392 163.117L92.7103 153.073L107.398 155.933Z" fill="#614E68"/>
</g>
<g style="mix-blend-mode:multiply" opacity="0.5">
<path d="M105.901 155.692L92.7103 153.14L92.8392 162.971L106.097 164.418L105.901 155.692Z" fill="#614E68"/>
</g>
<g style="mix-blend-mode:multiply" opacity="0.5">
<path d="M107.913 171.457L109.185 189.931L94.369 190.401L92.6022 169.977L107.913 171.457Z" fill="#614E68"/>
</g>
<g style="mix-blend-mode:multiply" opacity="0.5">
<path d="M106.4 171.415L92.6146 170.043L94.3482 190.255L107.68 189.939L106.4 171.415Z" fill="#614E68"/>
</g>
<g style="mix-blend-mode:multiply" opacity="0.5">
<path d="M86.3124 133.019L86.3997 144.991L71.8411 148.242L71.9117 137.454L86.3124 133.019Z" fill="#614E68"/>
</g>
<g style="mix-blend-mode:multiply" opacity="0.5">
<path d="M86.3788 133.414L73.4582 136.872L73.3584 147.881L86.3996 144.966L86.3788 133.414Z" fill="#614E68"/>
</g>
<g style="mix-blend-mode:multiply" opacity="0.5">
<path d="M77.9397 125.374L82.8702 123.661L82.8411 117.226L78.0062 118.997L77.9397 125.374Z" fill="#614E68"/>
</g>
<path d="M116.452 124.904L135.351 118.54L134.773 141.874L116.257 144.767L116.452 124.904Z" fill="#89CEC8"/>
<path style="mix-blend-mode:overlay" d="M116.452 124.904L135.351 118.54L134.773 141.874L116.257 144.767L116.452 124.904Z" fill="url(#paint14_linear_101_3655)"/>
<path d="M135.255 118.348L147.885 129.34L146.343 148.143L134.673 141.778L135.255 118.348Z" fill="#667F7D"/>
<path d="M116.257 144.767L130.915 149.394L146.343 148.143L134.673 141.778L116.257 144.767Z" fill="url(#paint15_linear_101_3655)"/>
<g style="mix-blend-mode:multiply" opacity="0.5">
<path d="M121.079 128.762L120.501 137.438L129.373 135.704L128.986 125.677L121.079 128.762Z" fill="#614E68"/>
</g>
<g style="mix-blend-mode:multiply" opacity="0.8">
<g style="mix-blend-mode:multiply" opacity="0.5">
<path d="M121.349 137.276L129.373 135.704L129.036 126.924L121.848 129.726L121.349 137.276Z" fill="#001525"/>
</g>
</g>
<g style="mix-blend-mode:multiply" opacity="0.5">
<path d="M180.806 180.843L181.064 179.301L160.623 178.399L161.396 180.336L161.957 188.63L168.359 188.489L168.908 185.524L168.189 185.001L168.239 185.026L172.113 185.454L171.606 186.036L171.565 188.671L173.689 188.684L175.535 180.715L180.806 180.843Z" fill="#614E68"/>
</g>
<g style="mix-blend-mode:multiply" opacity="0.6">
<path d="M164.106 165.192L167.665 154.969L167.756 163.167L164.106 165.192Z" fill="#614E68"/>
</g>
<g style="mix-blend-mode:multiply" opacity="0.6">
<path d="M164.106 162.781V148.218L167.253 153.813L164.106 162.781Z" fill="#614E68"/>
</g>
<g style="mix-blend-mode:multiply" opacity="0.6">
<path d="M164.198 143.977V129.418L167.345 135.01L164.198 143.977Z" fill="#614E68"/>
</g>
<g style="mix-blend-mode:multiply" opacity="0.6">
<path d="M164.289 124.596V110.038L167.436 115.629L164.289 124.596Z" fill="#614E68"/>
</g>
<g style="mix-blend-mode:multiply" opacity="0.6">
<path d="M164.24 104.317V90.9727L167.125 96.0985L164.24 104.317Z" fill="#614E68"/>
</g>
<g style="mix-blend-mode:multiply" opacity="0.6">
<path d="M164.289 146.484L167.528 152.367L167.299 137.226L164.289 146.484Z" fill="#614E68"/>
</g>
<g style="mix-blend-mode:multiply" opacity="0.6">
<path d="M164.106 127.49L167.345 133.372L167.116 118.231L164.106 127.49Z" fill="#614E68"/>
</g>
<g style="mix-blend-mode:multiply" opacity="0.6">
<path d="M164.048 107.544L167.133 113.143L166.917 98.7344L164.048 107.544Z" fill="#614E68"/>
</g>
<g style="mix-blend-mode:multiply" opacity="0.6">
<path d="M163.774 87.4891L166.859 93.0889L166.642 78.6758L163.774 87.4891Z" fill="#614E68"/>
</g>
<g style="mix-blend-mode:multiply" opacity="0.6">
<path d="M164.198 73.5913V83.8098L166.069 78.1227L164.198 73.5913Z" fill="#614E68"/>
</g>
<g opacity="0.5">
<g style="mix-blend-mode:multiply" opacity="0.6">
<path d="M164.094 69.9247L163.965 66.2705L166.505 70.1201L164.094 69.9247Z" fill="#614E68"/>
</g>
<g style="mix-blend-mode:multiply" opacity="0.6">
<path d="M163.662 69.9326L160.348 65.4844L163.483 66.0622L163.662 69.9326Z" fill="#614E68"/>
</g>
<g style="mix-blend-mode:multiply" opacity="0.6">
<path d="M159.28 63.9381L154.711 57.7896L158.706 58.8871L159.28 63.9381Z" fill="#614E68"/>
</g>
<g style="mix-blend-mode:multiply" opacity="0.6">
<path d="M152.957 55.2953L146.168 46.1328L151.614 48.2405L152.957 55.2953Z" fill="#614E68"/>
</g>
<g style="mix-blend-mode:multiply" opacity="0.6">
<path d="M142.734 41.5971L132.399 27.6787L139.916 31.6073L142.734 41.5971Z" fill="#614E68"/>
</g>
<g style="mix-blend-mode:multiply" opacity="0.6">
<path d="M160.007 64.8069L163.317 65.4804L159.334 59.8765L160.007 64.8069Z" fill="#614E68"/>
</g>
<g style="mix-blend-mode:multiply" opacity="0.6">
<path d="M153.938 56.8874L158.203 58.1429L152.504 50.1069L153.938 56.8874Z" fill="#614E68"/>
</g>
<g style="mix-blend-mode:multiply" opacity="0.6">
<path d="M144.534 44.3743L150.205 46.7065L141.62 34.5674L144.534 44.3743Z" fill="#614E68"/>
</g>
<g style="mix-blend-mode:multiply" opacity="0.6">
<path d="M128.358 23.376L137.242 28.3065L124.754 8.95459L128.358 23.376Z" fill="#614E68"/>
</g>
<g style="mix-blend-mode:multiply" opacity="0.6">
<path d="M119.994 10.8836L126.529 19.6346L124.11 9.2124L119.994 10.8836Z" fill="#614E68"/>
</g>
</g>
<g style="mix-blend-mode:overlay" opacity="0.4">
<path d="M165.923 40.4209L163.416 58.0642L163.803 58.933L166.792 40.9031L165.923 40.4209Z" fill="#FFF7DB"/>
</g>
<path d="M169.07 39.7887C169.091 38.3627 168.31 37.207 167.333 37.207C166.351 37.207 165.541 38.3586 165.524 39.7845C165.508 41.2063 166.285 42.362 167.266 42.362C168.243 42.362 169.054 41.2104 169.074 39.7887H169.07Z" fill="#667F7D"/>
<g style="mix-blend-mode:multiply" opacity="0.5">
<path d="M168.85 39.6764C168.858 38.4043 168.467 37.3691 167.969 37.3691C167.47 37.3691 167.062 38.4001 167.05 39.6722C167.041 40.9444 167.436 41.9753 167.931 41.9753C168.426 41.9753 168.837 40.9444 168.85 39.6764Z" fill="#614E68"/>
</g>
<g style="mix-blend-mode:overlay" opacity="0.4">
<path d="M167.37 42.832L169.203 65.5845L168.334 66.0668L166.888 43.2187L167.37 42.832Z" fill="#FFF7DB"/>
</g>
<path d="M47.488 167.985C47.488 167.985 52.115 166.056 53.2748 161.171C53.2748 161.171 54.3017 166.829 51.6036 168.243C48.9056 169.656 47.4921 167.985 47.4921 167.985H47.488Z" fill="#BFBF84"/>
<path d="M52.5016 136.744C52.5016 136.744 50.9593 140.086 55.844 143.428C55.844 143.428 52.8883 139.313 52.5016 136.744Z" fill="#BFBF84"/>
<path d="M35.6607 143.815C35.6607 143.815 38.3587 147.673 41.9589 141.371C41.9589 141.371 39.6433 144.971 35.6607 143.815Z" fill="#BFBF84"/>
<path d="M49.2881 147.158C49.2881 147.158 53.2749 151.656 49.8036 162.07C49.8036 162.07 50.7057 150.5 49.2881 147.158Z" fill="#BFBF84"/>
<path d="M178.557 84.1009L181.642 80.0517L183.122 79.9229L179.763 88.1417L178.557 84.1009Z" fill="#D59C24"/>
<g style="mix-blend-mode:multiply" opacity="0.3">
<path d="M173.606 79.5361L179.393 87.3767L176.948 87.1189L171.806 79.9228L173.606 79.5361Z" fill="#614E68"/>
</g>
<path d="M134.428 25.1722L131.36 21.543L129.09 23.4636L132.158 27.0929L134.428 25.1722Z" fill="#966C33"/>
<path d="M47.0183 188.709C47.064 187.632 46.6441 186.589 45.8584 185.849C45.0768 185.109 44.0084 184.747 42.9359 184.855L22.7193 187.898L22.6652 191.577L43.8213 192.238C45.5258 192.226 46.9185 190.879 46.9933 189.179L47.0141 188.705L47.0183 188.709Z" fill="url(#paint16_linear_101_3655)"/>
<path d="M44.8814 189.095C44.9147 188.314 44.5613 187.553 43.9169 187.013C43.2684 186.472 42.3871 186.206 41.5057 186.281L24.8644 188.401L24.8353 191.074L42.2665 191.648C43.6675 191.648 44.8107 190.675 44.8689 189.44L44.8856 189.095H44.8814Z" fill="#42392B"/>
<path d="M53.9608 159.217L32.0273 176.345L35.1494 179.334L55.7068 161.125L53.9608 159.217Z" fill="#C49C37"/>
<path d="M44.1403 169.052L40.5486 179.471L42.1286 180.015L45.7203 169.596L44.1403 169.052Z" fill="#C49C37"/>
<path d="M34.6837 170.076L27.2049 170.745L30.1607 180.178L37.731 179.405L34.6837 170.076Z" fill="#C49C37"/>
<path style="mix-blend-mode:overlay" d="M53.4786 161.067L52.8342 160.099L35.7771 173.423L35.59 172.849L33.8273 172.379L33.1414 170.841L34.189 170.118L28.5103 170.625L36.5711 174.595L53.4786 161.067Z" fill="url(#paint17_linear_101_3655)"/>
<path d="M48.2109 165.076L48.1561 166.297L61.3587 166.89L61.4135 165.669L48.2109 165.076Z" fill="#C49C37"/>
<path d="M66.3286 169.336L54.8754 158.27L53.146 160.78L64.8444 170.695L66.3286 169.336Z" fill="#FFC61B"/>
<path d="M64.8444 170.696L65.5553 170.047L54.1686 159.296L53.1626 160.756L53.4785 161.067L64.8444 170.696Z" fill="#C49C37"/>
<path d="M75.2999 173.676C72.5894 169.714 68.9601 168.438 64.092 169.34L69.4382 181.887L71.7205 182.282C74.0735 179.372 74.8883 177.314 75.2957 173.676H75.2999Z" fill="#5B4F33"/>
<g style="mix-blend-mode:overlay" opacity="0.6">
<path d="M73.824 172.017C73.716 171.859 73.5996 171.71 73.4873 171.56C71.0262 169.286 67.9499 168.625 64.092 169.34L69.1389 181.363L69.4091 181.928C71.7621 179.018 73.4166 175.659 73.8282 172.021L73.824 172.017Z" fill="#D7EED8"/>
</g>
<path d="M41.4392 183.712L40.878 188.713L34.5715 192.446L18.8821 191.407L18.6036 185.146L41.4392 183.712Z" fill="#3A3022"/>
<path d="M39.0946 191.153C39.1278 190.426 38.816 189.715 38.2382 189.199C37.6603 188.684 36.8663 188.414 36.0556 188.451L15.0325 189.432C13.5484 189.503 12.4093 190.63 12.4759 191.964L12.5216 192.874C12.5756 194.034 13.6108 194.97 14.8954 195.024L35.0371 195.926C37.1573 196.021 38.9449 194.554 39.0322 192.646L39.0987 191.153H39.0946Z" fill="url(#paint18_linear_101_3655)"/>
<path d="M18.8738 172.674L15.3734 173.764C14.4713 174.042 13.8935 174.923 13.9891 175.863L15.494 185.454L20.8526 185.445L18.8738 172.678V172.674Z" fill="#AA8022"/>
<g style="mix-blend-mode:multiply" opacity="0.4">
<path d="M17.979 176.965L14.7463 177.067L14.7658 177.682L17.9985 177.58L17.979 176.965Z" fill="#514735"/>
</g>
<g style="mix-blend-mode:multiply" opacity="0.4">
<path d="M18.2254 178.453L14.9927 178.555L15.012 179.165L18.2447 179.063L18.2254 178.453Z" fill="#514735"/>
</g>
<g style="mix-blend-mode:multiply" opacity="0.4">
<path d="M18.5021 179.715L15.2694 179.817L15.2887 180.428L18.5214 180.326L18.5021 179.715Z" fill="#514735"/>
</g>
<g style="mix-blend-mode:overlay" opacity="0.5">
<path d="M19.2646 175.202L18.8738 172.679L15.3734 173.768C14.4713 174.046 13.8935 174.928 13.9891 175.867L14.0223 176.083L18.9154 175.734L19.2646 175.206V175.202Z" fill="#FFEBBE"/>
</g>
<path d="M16.0178 181.5L17.61 187.445L35.1203 186.63L42.8735 183.924L43.6551 177.85L18.3874 180.004L16.0178 181.5Z" fill="#C49C37"/>
<path d="M37.4317 192.267C37.4525 191.785 37.1615 191.315 36.6252 190.97C36.0889 190.625 35.3614 190.434 34.6214 190.451L15.3859 190.858C14.0265 190.887 12.9997 191.619 13.0745 192.504L13.1244 193.107C13.1868 193.872 14.1429 194.5 15.3236 194.554L33.7733 195.381C35.7148 195.468 37.3361 194.516 37.3901 193.261L37.4359 192.276L37.4317 192.267Z" fill="#514735"/>
<path style="mix-blend-mode:overlay" d="M39.7473 180.344L16.7828 180.989L16.0178 181.5L17.61 187.445L35.1203 186.63L35.4238 186.522L35.4861 181.995L39.7473 180.344Z" fill="url(#paint19_linear_101_3655)"/>
<path d="M16.1425 170.234L18.0382 180.96L29.8531 180.652L34.7711 179.106L29.6286 167.232C26.5398 163.009 15.8266 166.796 16.1384 170.23L16.1425 170.234Z" fill="#FFC61B"/>
<path d="M30.0027 168.097L29.6286 167.237C26.5398 163.013 15.8266 166.8 16.1384 170.234L16.288 171.091L24.3281 169.357L29.9986 168.093L30.0027 168.097Z" fill="#3A3022"/>
<path d="M17.0322 169.785L18.5745 180.236L27.1342 179.783L23.347 169.037C20.412 167.54 18.9071 168.055 17.0363 169.785H17.0322Z" fill="#8FB7B3"/>
<g style="mix-blend-mode:overlay" opacity="0.6">
<path d="M73.4873 171.56C71.0262 169.286 67.9499 168.625 64.092 169.34L64.2167 169.631C67.5633 169.232 70.2862 169.964 72.5062 172.017C72.6185 172.171 72.7307 172.317 72.8429 172.479C72.4729 175.721 71.1177 178.74 69.1638 181.417L69.4049 181.928C71.7579 179.018 73.4125 175.659 73.824 172.021C73.716 171.864 73.5996 171.714 73.4873 171.564V171.56Z" fill="#D7EED8"/>
</g>
<path d="M66.0167 169.885C66.05 169.182 65.5054 168.588 64.7987 168.555C64.0961 168.521 63.4975 169.066 63.4684 169.769C63.4351 170.475 63.9797 171.066 64.6864 171.099C65.389 171.132 65.9876 170.588 66.0167 169.881V169.885Z" fill="#5B4F33"/>
<path d="M56.1683 159.978C56.2099 159.117 55.4907 158.39 54.5636 158.344C53.6366 158.303 52.855 158.964 52.8134 159.82C52.7718 160.68 53.491 161.408 54.4181 161.454C55.341 161.495 56.1267 160.838 56.1641 159.978H56.1683Z" fill="#C49C37"/>
<path d="M55.9521 160.182C55.9896 159.396 55.3785 158.735 54.5969 158.698C53.8112 158.664 53.1502 159.271 53.1128 160.053C53.0795 160.839 53.6823 161.5 54.468 161.537C55.2496 161.57 55.9147 160.963 55.948 160.182H55.9521Z" fill="#5B4F33"/>
<path d="M16.762 191.664C14.9661 190.904 13.6815 191.935 14.8206 193.676C16.2839 194.333 17.5477 193.173 16.762 191.664Z" fill="#3A3022"/>
<path d="M35.4612 192.039C33.5779 191.241 32.2352 192.321 33.4241 194.151C34.9581 194.837 36.2801 193.623 35.4612 192.039Z" fill="#3A3022"/>
<g style="mix-blend-mode:overlay" opacity="0.5">
<path d="M36.9536 188.551C36.6626 188.48 36.3633 188.435 36.0515 188.451L15.0284 189.432C14.0431 189.478 13.22 189.994 12.7918 190.725L35.6399 189.707L36.9494 188.555L36.9536 188.551Z" fill="#FFEBBE"/>
</g>
<path d="M19.5432 193.502L18.4997 190.609L20.9192 188.879L29.2253 188.468L27.8826 190.447L28.2442 193.56L19.5432 193.502Z" fill="#3A3022"/>
<path d="M18.508 192.953L17.4645 190.06L19.884 188.326L28.0114 188.189L26.8474 189.898L27.2091 193.007L18.508 192.953Z" fill="#705E42"/>
<g style="mix-blend-mode:multiply" opacity="0.4">
<path d="M29.2128 180.673L29.8572 180.656L34.7752 179.11L29.6327 167.237C29.4498 166.983 29.2378 166.763 29.0008 166.567L24.2449 167.682L29.2128 180.673Z" fill="#514735"/>
</g>
<path style="mix-blend-mode:overlay" d="M23.6505 165.458C19.8674 165.915 15.9513 168.143 16.1425 170.238L18.0382 180.964L21.5552 166.642L23.6505 165.462V165.458Z" fill="url(#paint20_linear_101_3655)"/>
<path d="M35.4861 181.995L17.2982 181.961L35.5734 183.786L35.4861 181.995Z" fill="#C49C37"/>
<path d="M44.9022 171.145C44.9272 170.621 44.4948 170.176 43.9419 170.151C43.389 170.126 42.9234 170.529 42.8984 171.053C42.8735 171.577 43.3058 172.022 43.8587 172.047C44.4117 172.072 44.8814 171.668 44.9064 171.145H44.9022Z" fill="#5B4F33"/>
<path d="M25.5504 169.664L29.8281 168.85L33.7609 178.183L29.587 179.222L25.5504 169.664Z" fill="#8FB7B3"/>
<g style="mix-blend-mode:multiply">
<path d="M27.0511 179.746L25.8497 176.349L23.3428 169.062C22.8856 168.65 21.9834 168.476 21.9834 168.476C19.8508 167.723 18.5288 168.293 16.949 169.752L18.4914 180.203H18.6161L27.0511 179.75V179.746ZM17.7971 170.155C19.1856 168.87 20.3871 168.293 22.1082 168.679L22.8149 171.494L18.1796 172.795L17.7971 170.155Z" fill="#8FB7B3"/>
</g>
<g style="mix-blend-mode:multiply">
<path d="M29.8281 168.85L25.5504 169.66L25.8414 170.3H25.8206L29.587 179.218L33.3576 178.278L33.7609 178.178L29.824 168.85H29.8281ZM26.2072 169.569L29.4581 168.962L30.0152 170.533L26.8724 170.641L26.2072 169.565V169.569Z" fill="#8FB7B3"/>
</g>
<g style="mix-blend-mode:overlay" opacity="0.3">
<path d="M21.9834 168.476L19.2313 179.875L21.418 179.638L22.6818 168.925L21.9834 168.476Z" fill="#FFD9A5"/>
</g>
<g style="mix-blend-mode:overlay" opacity="0.5">
<path d="M34.9373 192.488C33.9354 192.064 33.2204 192.637 33.8564 193.61C34.6713 193.976 35.3738 193.332 34.9373 192.488Z" fill="#FFEBBE"/>
</g>
<g style="mix-blend-mode:overlay" opacity="0.5">
<path d="M16.3587 192.039C15.3568 191.614 14.6417 192.188 15.2736 193.161C16.0885 193.527 16.791 192.878 16.3587 192.039Z" fill="#FFEBBE"/>
</g>
<path d="M32.3183 188.609L31.1169 189.894L31.3622 190.629L32.0897 190.604L31.8402 189.927L33.0999 188.584L32.3183 188.609Z" fill="#514735"/>
<path d="M35.1701 188.426L33.844 190.014L34.0893 190.75L34.8168 190.729L34.5674 190.048L35.8977 188.46L35.1701 188.426Z" fill="#514735"/>
<path d="M29.9445 188.667L28.5934 190.114L28.8387 190.85L29.5662 190.825L29.321 190.147L30.6097 188.696L29.9445 188.667Z" fill="#514735"/>
<path d="M16.737 189.303L15.6894 190.426L15.8806 190.995L16.446 190.979L16.2506 190.451L17.2567 189.324L16.737 189.303Z" fill="#514735"/>
<path d="M15.0076 189.282L13.96 190.401L14.2925 191.149L14.7166 190.958L14.5253 190.425L15.5272 189.303L15.0076 189.282Z" fill="#514735"/>
<path style="mix-blend-mode:overlay" d="M35.4861 181.995L39.7473 180.344L16.4169 181.645L35.4861 181.995Z" fill="url(#paint21_linear_101_3655)"/>
<path d="M64.2708 171.065L68.8686 182.406L68.5236 184.564L69.538 184.356L70.4525 182.556L71.1925 182.843L70.8641 184.585L71.7995 184.294L73.0758 180.078L70.174 181.375L64.8444 170.695L64.2708 171.065Z" fill="#5B4F33"/>
<path d="M65.6468 169.868C65.6676 169.369 65.2851 168.949 64.7862 168.929C64.2874 168.908 63.8675 169.29 63.8467 169.789C63.8259 170.288 64.2084 170.708 64.7072 170.729C65.2061 170.749 65.626 170.367 65.6468 169.868Z" fill="#C49C37"/>
<path d="M55.5364 160.161C55.5613 159.608 55.1331 159.138 54.5761 159.113C54.0232 159.088 53.5534 159.517 53.5284 160.07C53.5035 160.622 53.9317 161.092 54.4888 161.117C55.0417 161.142 55.5114 160.714 55.5364 160.157V160.161Z" fill="#C49C37"/>
<path d="M44.7276 171.136C44.7484 170.704 44.3909 170.338 43.9336 170.317C43.4763 170.297 43.0896 170.633 43.0689 171.066C43.0481 171.498 43.4056 171.864 43.8629 171.885C44.3202 171.905 44.7068 171.573 44.7276 171.14V171.136Z" fill="#C49C37"/>
<g style="mix-blend-mode:overlay" opacity="0.6">
<path d="M64.2042 170.646L68.7273 181.895L68.6857 184.655L69.5546 182.099L64.2042 170.646Z" fill="#D7EED8"/>
</g>
<g style="mix-blend-mode:multiply" opacity="0.3">
<path d="M36.2967 181.658L35.615 181.962L35.4861 186.597L36.0515 186.248L36.2967 181.658Z" fill="#514735"/>
</g>
<g style="mix-blend-mode:multiply" opacity="0.4">
<path d="M112.756 196.82C112.756 195.78 110.191 194.932 107.028 194.932C103.864 194.932 101.295 195.776 101.295 196.82C101.295 197.863 103.86 198.707 107.028 198.707C110.196 198.707 112.756 197.863 112.756 196.82Z" fill="#614E68"/>
</g>
<path d="M105.219 174.316C106.121 173.177 106.471 171.901 105.947 171.49C105.706 171.311 104.23 171.681 103.328 172.82C102.426 173.959 102.372 175.318 102.625 175.643C103.149 176.058 104.317 175.456 105.219 174.316Z" fill="#4F2E26"/>
<path d="M103.765 194.381L103.72 195.952L104.198 195.966L104.243 194.395L103.765 194.381Z" fill="#493A26"/>
<path d="M107.927 193.23L107.445 193.253L107.53 195.01L108.011 194.987L107.927 193.23Z" fill="#493A26"/>
<path d="M108.632 173.053L107.83 172.542L105.785 176.345L106.783 177.788L108.632 173.053Z" fill="#2D4951"/>
<path d="M107.202 193.797L108.067 193.847C108.063 189.403 107.901 186.726 107.568 183.238C107.572 183.238 107.576 183.238 107.585 183.234C107.506 179.272 107.019 177.106 105.997 175.95L103.274 177.197C103.008 177.318 102.862 177.609 102.916 177.896C103.274 179.733 103.602 181.479 103.507 183.092C103.498 183.092 103.486 183.092 103.477 183.092C103.482 183.167 103.486 183.246 103.49 183.321C103.49 183.367 103.482 183.412 103.477 183.458C103.486 183.458 103.49 183.462 103.494 183.466C103.648 186.651 103.665 190.401 103.477 194.741L104.371 194.795C104.824 189.785 105.041 186.643 105.186 184.797C105.502 184.456 105.83 184.443 106.159 184.41C106.728 187.811 107.148 190.629 107.206 193.797H107.202Z" fill="url(#paint22_linear_101_3655)"/>
<path d="M104.404 178.403C104.296 177.821 103.931 177.401 103.59 177.464C103.249 177.53 103.062 178.054 103.174 178.636C103.282 179.218 103.648 179.638 103.989 179.576C104.33 179.509 104.517 178.985 104.404 178.403Z" fill="#375860"/>
<path d="M104.675 179.205L106.388 178.469C106.346 177.434 106.072 176.333 105.606 176.129L103.823 176.944C104.596 177.019 104.654 178.453 104.675 179.201V179.205Z" fill="#375860"/>
<path d="M103.356 194.042L103.312 194.848L104.532 194.915L104.576 194.11L103.356 194.042Z" fill="#A5722F"/>
<path d="M107.082 193.14L107.047 193.945L108.268 193.999L108.303 193.193L107.082 193.14Z" fill="#A5722F"/>
<path d="M103.823 176.948L104.093 176.108L104.878 176.004L106.088 176.374L105.943 176.728L103.823 176.948Z" fill="#375860"/>
<path d="M104.854 175.493L103.96 175.48L104.13 176.873C104.571 177.098 104.895 177.01 105.14 176.782L104.849 175.497L104.854 175.493Z" fill="#DB9261"/>
<path d="M105.14 176.782L105.51 177.634L104.471 177.044L105.14 176.782Z" fill="#DB9261"/>
<path d="M104.026 176.108L104.75 176.857L104.525 177.41L103.881 176.715L104.026 176.108Z" fill="#457582"/>
<path d="M107.858 172.182L107.53 172.845L108.662 173.405L108.991 172.742L107.858 172.182Z" fill="#457582"/>
<g style="mix-blend-mode:multiply" opacity="0.4">
<path d="M106.134 175.697L105.997 175.955L105.485 176.192L104.978 176.038L104.858 175.497L103.964 175.485L104.043 176.129L104.03 176.117L103.885 176.72L103.897 176.732L103.827 176.952L103.278 177.206C103.012 177.327 102.866 177.618 102.92 177.904C102.949 178.05 102.979 178.195 103.004 178.341C103.502 178.341 104.122 178.162 104.72 177.8C105.726 177.193 106.317 176.296 106.134 175.701V175.697Z" fill="#614E68"/>
</g>
<path d="M106.363 174.246C106.363 173.406 105.822 171.727 104.957 171.727C104.093 171.727 102.821 172.957 102.821 173.801C102.821 174.645 103.939 175.767 104.804 175.767C105.668 175.767 106.379 175.348 106.363 174.246Z" fill="#F7AC74"/>
<path d="M104.051 175.493C104.051 175.493 102.135 175.767 102.243 173.838C102.243 173.838 102.559 172.171 104.118 171.793C104.118 171.793 102.663 174.075 104.051 175.493Z" fill="#754E34"/>
<path d="M103.698 174.479C103.669 174.304 103.494 174.188 103.311 174.221C103.128 174.254 103.008 174.421 103.037 174.595C103.066 174.77 103.24 174.886 103.423 174.853C103.606 174.82 103.727 174.653 103.698 174.479Z" fill="#F7AC74"/>
<path d="M103.96 172.146C103.96 172.146 103.211 173.223 104.118 174.47L103.814 174.508C103.814 174.508 103.157 174.1 102.999 173.498C102.999 173.498 103.053 172.737 103.956 172.146H103.96Z" fill="#754E34"/>
<path d="M106.126 174.213C106.121 174.171 106.092 174.134 106.055 174.113C106.018 174.092 105.972 174.092 105.934 174.113C105.672 174.237 105.369 174.308 105.041 174.337C104.978 174.341 104.92 174.379 104.883 174.433C104.849 174.487 104.841 174.553 104.862 174.616L104.945 174.849C104.962 174.89 104.999 174.919 105.045 174.919C105.552 174.932 105.872 174.761 106.105 174.47C106.138 174.433 106.151 174.379 106.142 174.333L106.126 174.217V174.213Z" fill="#513420"/>
<path opacity="0.4" d="M105.914 175.023C105.897 174.978 105.81 174.969 105.718 174.998C105.627 175.032 105.564 175.09 105.577 175.136C105.594 175.181 105.681 175.19 105.772 175.161C105.864 175.127 105.926 175.069 105.914 175.023Z" fill="#754E34"/>
<path d="M104.883 173.406C104.837 173.265 104.754 173.165 104.7 173.181C104.646 173.198 104.637 173.327 104.683 173.468C104.729 173.61 104.812 173.709 104.866 173.693C104.92 173.676 104.928 173.547 104.883 173.406Z" fill="#564438"/>
<path d="M105.872 173.065C105.826 172.924 105.743 172.824 105.689 172.841C105.635 172.857 105.627 172.986 105.673 173.128C105.718 173.269 105.801 173.369 105.855 173.352C105.909 173.335 105.918 173.207 105.872 173.061V173.065Z" fill="#564438"/>
<path d="M105.66 173.302C105.552 173.173 105.382 173.128 105.224 173.177L105.136 173.207L105.515 173.922C105.556 174.001 105.656 174.034 105.739 173.996L105.93 173.909C105.972 173.888 106.001 173.855 106.009 173.809C106.018 173.764 106.009 173.718 105.98 173.685L105.66 173.306V173.302Z" fill="#D67254"/>
<path d="M105.905 174.337L105.885 174.217C105.885 174.217 105.868 174.217 105.855 174.221C105.635 174.329 105.377 174.387 105.103 174.412C105.061 174.412 105.02 174.437 104.991 174.466L105.049 174.633L105.901 174.337H105.905Z" fill="#F7AC74"/>
<path d="M105.806 173.622C105.747 173.548 105.677 173.506 105.648 173.527C105.618 173.552 105.639 173.631 105.697 173.706C105.756 173.78 105.826 173.822 105.855 173.801C105.885 173.78 105.864 173.697 105.806 173.622Z" fill="#F7AC74"/>
<path d="M104.666 172.72L104.43 172.878C104.359 172.924 104.309 172.995 104.292 173.078C104.276 173.161 104.292 173.244 104.338 173.315L104.355 173.34L104.858 173.011L104.666 172.724V172.72Z" fill="#754E34"/>
<path d="M105.377 172.421L105.606 172.384C105.672 172.371 105.743 172.396 105.801 172.446C105.86 172.496 105.897 172.571 105.909 172.654V172.683L105.431 172.762L105.377 172.421Z" fill="#754E34"/>
<g style="mix-blend-mode:multiply" opacity="0.4">
<path d="M106.059 172.853C105.818 172.246 105.436 171.731 104.957 171.731C104.899 171.731 104.837 171.739 104.775 171.748C104.08 172.301 102.779 173.419 102.264 174.333C102.401 175.202 103.07 175.439 103.548 175.493C103.793 174.691 104.429 173.44 106.059 172.853Z" fill="#614E68"/>
</g>
<path d="M102.609 175.626C102.713 174.932 103.166 174.013 103.885 173.136C104.546 172.333 105.286 171.743 105.914 171.469C103.024 170.454 100.879 172.77 102.604 175.626H102.609Z" fill="#EA7A2F"/>
<path d="M107.934 177.027L107.552 176.1C106.4 176.815 105.261 177.069 103.66 177.439C103.39 177.501 103.182 177.726 103.137 178C103.108 178.187 103.12 178.378 103.203 178.574C103.311 178.827 103.59 178.96 103.856 178.881C105.693 178.32 106.662 177.788 107.938 177.027H107.934Z" fill="#457582"/>
<path d="M107.781 175.904L107.096 176.184L107.575 177.353L108.26 177.073L107.781 175.904Z" fill="#5A93A0"/>
<path d="M103.731 183.97L102.471 184.502L103.062 187.649C103.394 187.832 103.581 187.703 103.831 187.532L103.731 183.97Z" fill="#633F1A"/>
<g style="mix-blend-mode:overlay" opacity="0.6">
<path d="M105.273 171.511C104.567 171.328 103.918 171.332 103.369 171.477C102.097 172.051 101.536 173.56 102.438 175.319C102.596 174.72 102.92 174.026 103.39 173.344C103.981 172.488 104.671 171.839 105.273 171.511Z" fill="#FFFAC6"/>
</g>
<g style="mix-blend-mode:overlay" opacity="0.6">
<path d="M102.746 173.065C102.929 172.695 103.295 172.296 103.141 172.217C102.987 172.142 102.509 172.396 102.326 172.766C102.143 173.136 102.139 173.614 102.293 173.693C102.446 173.768 102.563 173.435 102.746 173.061V173.065Z" fill="#FFFAC6"/>
</g>
<g style="mix-blend-mode:overlay" opacity="0.6">
<path d="M103.656 171.868C103.631 171.81 103.527 171.793 103.428 171.839C103.328 171.885 103.27 171.968 103.295 172.026C103.32 172.084 103.423 172.097 103.523 172.055C103.623 172.009 103.681 171.926 103.656 171.868Z" fill="#FFFAC6"/>
</g>
<g style="mix-blend-mode:multiply" opacity="0.4">
<path d="M103.552 174.541C103.552 174.433 103.461 174.346 103.344 174.346C103.228 174.346 103.137 174.433 103.137 174.541C103.137 174.649 103.228 174.736 103.344 174.736C103.461 174.736 103.552 174.649 103.552 174.541Z" fill="#614E68"/>
</g>
<path d="M104.475 183.296L103.536 184.103L103.677 184.269L104.617 183.459L104.475 183.296Z" fill="#633F1A"/>
<path d="M104.105 182.822C103.964 182.835 103.823 182.843 103.673 182.847L103.594 183.537C103.773 183.525 103.943 183.512 104.105 183.496V182.822Z" fill="#604F35"/>
<path d="M105.036 182.681C104.812 182.731 104.583 182.773 104.338 182.802V183.471C104.608 183.438 104.858 183.4 105.103 183.346L105.032 182.681H105.036Z" fill="#604F35"/>
<path d="M105.926 182.415C105.697 182.498 105.477 182.573 105.248 182.631L105.319 183.296C105.552 183.242 105.776 183.172 106.009 183.093L105.926 182.415Z" fill="#604F35"/>
<path d="M107.032 182.66C107.169 182.594 107.306 182.527 107.452 182.452L107.431 181.762C107.265 181.841 107.107 181.912 106.953 181.983L107.032 182.66Z" fill="#604F35"/>
<path d="M106.766 182.07C106.558 182.161 106.363 182.244 106.176 182.319L106.259 183.001C106.45 182.926 106.641 182.843 106.845 182.752L106.766 182.07Z" fill="#604F35"/>
<g style="mix-blend-mode:overlay" opacity="0.6">
<path d="M102.471 184.502L103.062 187.649C103.199 187.724 103.311 187.745 103.415 187.732L103.078 184.244L102.471 184.502Z" fill="#FFFAC6"/>
</g>
<path d="M103.515 184.244L102.629 184.614L102.767 184.934C103.166 184.959 103.311 184.797 103.573 184.622L103.515 184.244Z" fill="#3D250F"/>
<path d="M103.07 183.725L102.664 183.791L102.838 184.858L103.245 184.791L103.07 183.725Z" fill="#756151"/>
<g style="mix-blend-mode:overlay" opacity="0.6">
<path d="M103.019 184.034L102.823 184.072L102.969 184.831L103.165 184.793L103.019 184.034Z" fill="#FFFAC6"/>
</g>
<path d="M103.17 183.33L102.301 183.438L102.405 183.995L103.241 183.741L103.17 183.33Z" fill="#756151"/>
<path d="M102.33 183.305L101.765 183.338C101.723 183.662 101.84 184.057 102.01 184.294L102.505 184.132C102.609 183.745 102.496 183.517 102.33 183.305Z" fill="#756151"/>
<path d="M103.868 183.803C103.868 183.803 103.702 183.242 102.862 183.458L102.92 183.733C103.357 183.508 103.86 183.807 103.864 183.799L103.868 183.803Z" fill="#756151"/>
<g style="mix-blend-mode:overlay" opacity="0.6">
<path d="M103.182 183.409L103.17 183.33L102.413 183.425C102.388 183.384 102.359 183.346 102.33 183.305L101.765 183.338C101.74 183.525 101.769 183.737 101.835 183.928L103.461 183.438C103.382 183.417 103.295 183.404 103.186 183.409H103.182Z" fill="#FFFAC6"/>
</g>
<g style="mix-blend-mode:overlay" opacity="0.6">
<path d="M102.247 183.695L101.831 183.795L101.869 183.945L102.284 183.849L102.247 183.695Z" fill="#FFFAC6"/>
</g>
<g style="mix-blend-mode:overlay" opacity="0.6">
<path d="M103.182 183.467L102.455 183.637L102.488 183.791L103.178 183.575L103.182 183.467Z" fill="#FFFAC6"/>
</g>
<path d="M103.394 185.612C103.394 185.495 103.303 185.404 103.186 185.404C103.07 185.404 102.979 185.495 102.979 185.612C102.979 185.728 103.07 185.82 103.186 185.82C103.303 185.82 103.394 185.728 103.394 185.612Z" fill="#633F1A"/>
<path d="M110.499 168.285L110.029 168.206L107.988 172.413L108.666 172.733L110.499 168.285Z" fill="#F7AC74"/>
<path d="M110.973 172.616C110.029 174.408 109.094 175.169 107.863 176.1L108.192 176.861C109.58 175.601 110.258 174.799 111.285 172.87L110.969 172.616H110.973Z" fill="#F7AC74"/>
<path d="M111.621 172.537C111.763 172.167 111.73 171.81 111.547 171.739C111.364 171.669 111.098 171.914 110.956 172.284C110.815 172.654 110.848 173.011 111.031 173.082C111.214 173.153 111.48 172.907 111.621 172.537Z" fill="#F7AC74"/>
<path d="M111.152 171.789C111.094 171.382 110.84 171.153 110.753 171.166C110.665 171.178 110.819 171.419 110.877 171.827C110.936 172.234 110.877 172.658 110.961 172.645C111.048 172.633 111.21 172.197 111.152 171.785V171.789Z" fill="#F7AC74"/>
<path d="M111.493 171.585C111.592 171.219 111.617 170.687 111.538 170.666C111.459 170.646 111.414 170.987 111.318 171.352C111.218 171.718 111.202 172.034 111.281 172.055C111.36 172.076 111.393 171.951 111.493 171.585Z" fill="#F7AC74"/>
<path d="M111.809 171.614C111.971 171.269 112.087 170.754 112.012 170.721C111.937 170.687 111.833 171.012 111.676 171.357C111.513 171.702 111.443 172.009 111.518 172.043C111.592 172.076 111.646 171.959 111.809 171.614Z" fill="#F7AC74"/>
<path d="M111.942 172.043C112.199 171.748 112.465 171.265 112.399 171.207C112.337 171.153 112.141 171.448 111.879 171.743C111.622 172.039 111.464 172.325 111.526 172.384C111.588 172.438 111.68 172.338 111.938 172.043H111.942Z" fill="#F7AC74"/>
<path d="M110.657 168.168C110.798 167.798 110.765 167.441 110.582 167.37C110.399 167.299 110.133 167.545 109.992 167.915C109.85 168.285 109.884 168.642 110.067 168.713C110.25 168.783 110.516 168.538 110.657 168.168Z" fill="#F7AC74"/>
<path d="M110.187 167.42C110.129 167.013 109.875 166.784 109.788 166.796C109.701 166.809 109.855 167.05 109.913 167.457C109.971 167.865 109.913 168.289 109.996 168.276C110.083 168.264 110.245 167.827 110.187 167.416V167.42Z" fill="#F7AC74"/>
<path d="M110.528 167.216C110.628 166.85 110.653 166.318 110.574 166.297C110.495 166.277 110.449 166.617 110.354 166.983C110.254 167.349 110.237 167.665 110.316 167.686C110.395 167.707 110.428 167.582 110.528 167.216Z" fill="#F7AC74"/>
<path d="M110.844 167.245C111.006 166.9 111.123 166.385 111.052 166.351C110.977 166.318 110.873 166.642 110.715 166.988C110.553 167.333 110.482 167.64 110.557 167.673C110.632 167.707 110.686 167.59 110.848 167.245H110.844Z" fill="#F7AC74"/>
<path d="M110.977 167.673C111.235 167.378 111.497 166.896 111.434 166.837C111.372 166.783 111.177 167.079 110.915 167.374C110.657 167.669 110.499 167.956 110.561 168.014C110.624 168.068 110.715 167.968 110.973 167.673H110.977Z" fill="#F7AC74"/>
<path d="M104.459 197.589C104.459 197.177 104.321 195.66 103.985 195.66C103.648 195.66 103.236 197.177 103.236 197.589C103.236 198 103.49 197.942 103.827 197.942C104.163 197.942 104.454 198 104.454 197.589H104.459Z" fill="#493A26"/>
<path d="M104.459 197.389C104.459 196.978 104.321 195.46 103.985 195.46C103.648 195.46 103.236 196.978 103.236 197.389C103.236 197.801 103.49 197.743 103.827 197.743C104.163 197.743 104.454 197.801 104.454 197.389H104.459Z" fill="#C4972A"/>
<g style="mix-blend-mode:overlay" opacity="0.6">
<path d="M103.98 197.056C104.022 196.819 103.935 196.603 103.785 196.574C103.635 196.549 103.477 196.72 103.436 196.961C103.394 197.202 103.482 197.414 103.631 197.443C103.781 197.468 103.935 197.298 103.98 197.056Z" fill="#FFFAC6"/>
</g>
<path d="M104.147 195.381H103.752V196.013H104.147V195.381Z" fill="#493A26"/>
<path d="M104.197 196.171H103.619V196.354H104.197V196.171Z" fill="#493A26"/>
<path d="M108.828 195.132C108.258 195.061 107.539 194.567 107.493 194.912C107.493 194.92 107.493 194.924 107.493 194.932C107.394 195.115 107.385 195.469 107.385 195.606C107.385 195.793 107.585 195.947 107.83 195.947C107.93 195.947 108.017 195.922 108.092 195.88C108.117 195.884 108.138 195.893 108.163 195.893C108.732 195.963 110.146 196.121 110.187 195.776C110.229 195.431 110.112 195.028 108.824 195.132H108.828Z" fill="#493A26"/>
<path d="M108.828 194.949C108.258 194.878 107.539 194.379 107.493 194.724C107.493 194.733 107.493 194.737 107.493 194.745C107.394 194.928 107.385 195.282 107.385 195.419C107.385 195.606 107.585 195.76 107.83 195.76C107.93 195.76 108.017 195.735 108.092 195.693C108.117 195.697 108.138 195.701 108.163 195.706C108.732 195.776 110.146 195.934 110.187 195.589C110.229 195.244 110.112 194.841 108.824 194.945L108.828 194.949Z" fill="#C4972A"/>
<path d="M107.934 194.558L107.631 194.542L108.208 194.961L108.329 194.795L107.934 194.558Z" fill="#493A26"/>
<g style="mix-blend-mode:overlay" opacity="0.6">
<path d="M109.905 195.369C109.909 195.282 109.709 195.198 109.456 195.186C109.202 195.169 108.994 195.228 108.99 195.315C108.986 195.402 109.185 195.485 109.439 195.498C109.692 195.514 109.9 195.456 109.909 195.369H109.905Z" fill="#FFFAC6"/>
</g>
<path d="M108.486 194.83L108.362 195.147L108.532 195.214L108.656 194.897L108.486 194.83Z" fill="#493A26"/>
<path d="M205.309 189.981C205.147 183.704 196.604 172.196 188.027 172.417C179.451 172.637 175.738 183.841 175.901 190.122C182.947 190.679 204.964 192.197 205.309 189.981Z" fill="#634228"/>
<path style="mix-blend-mode:overlay" d="M196.408 178.823C196.82 178.042 197.173 177.248 197.485 176.449C194.658 174.005 191.349 172.33 188.027 172.417C179.783 172.629 176.038 182.989 175.905 189.37C183.151 191.702 191.952 187.345 196.408 178.827V178.823Z" fill="url(#paint23_linear_101_3655)"/>
</g>
<defs>
<linearGradient id="paint0_linear_101_3655" x1="38.4294" y1="122.825" x2="38.8285" y2="122.825" gradientUnits="userSpaceOnUse">
<stop stop-color="#EAC324"/>
<stop offset="0.99" stop-color="#CB8924"/>
</linearGradient>
<linearGradient id="paint1_linear_101_3655" x1="32.177" y1="122.933" x2="47.4506" y2="122.933" gradientUnits="userSpaceOnUse">
<stop offset="0.01" stop-color="#FFF2C8"/>
<stop offset="0.99" stop-color="#FFAE67"/>
</linearGradient>
<linearGradient id="paint2_linear_101_3655" x1="103.128" y1="107.448" x2="109.913" y2="107.448" gradientUnits="userSpaceOnUse">
<stop stop-color="#EAC324"/>
<stop offset="0.99" stop-color="#CB8924"/>
</linearGradient>
<linearGradient id="paint3_linear_101_3655" x1="64.4983" y1="105.702" x2="61.9002" y2="104.694" gradientUnits="userSpaceOnUse">
<stop stop-color="#EAC324"/>
<stop offset="0.99" stop-color="#CB8924"/>
</linearGradient>
<linearGradient id="paint4_linear_101_3655" x1="66.2274" y1="103.718" x2="64.5527" y2="114.058" gradientUnits="userSpaceOnUse">
<stop stop-color="#EAC324"/>
<stop offset="0.99" stop-color="#CB8924"/>
</linearGradient>
<linearGradient id="paint5_linear_101_3655" x1="64.1369" y1="105.918" x2="61.1198" y2="105.435" gradientUnits="userSpaceOnUse">
<stop stop-color="#EAC324"/>
<stop offset="0.99" stop-color="#CB8924"/>
</linearGradient>
<linearGradient id="paint6_linear_101_3655" x1="55.42" y1="156.071" x2="110.574" y2="113.642" gradientUnits="userSpaceOnUse">
<stop offset="0.02" stop-color="#4F7770"/>
<stop offset="0.89" stop-color="#3F362C"/>
</linearGradient>
<linearGradient id="paint7_linear_101_3655" x1="19.7177" y1="137.916" x2="135.679" y2="137.916" gradientUnits="userSpaceOnUse">
<stop offset="0.02" stop-color="#4F7770"/>
<stop offset="0.89" stop-color="#3F362C"/>
</linearGradient>
<linearGradient id="paint8_linear_101_3655" x1="95.8117" y1="142.223" x2="94.2111" y2="148.038" gradientUnits="userSpaceOnUse">
<stop stop-color="#EAC324"/>
<stop offset="0.99" stop-color="#CB8924"/>
</linearGradient>
<linearGradient id="paint9_linear_101_3655" x1="33.0873" y1="155.36" x2="149.053" y2="155.36" gradientUnits="userSpaceOnUse">
<stop offset="0.02" stop-color="#4F7770"/>
<stop offset="0.89" stop-color="#3F362C"/>
</linearGradient>
<linearGradient id="paint10_linear_101_3655" x1="26.4025" y1="169.819" x2="142.364" y2="169.819" gradientUnits="userSpaceOnUse">
<stop offset="0.02" stop-color="#4F7770"/>
<stop offset="0.54" stop-color="#44483F"/>
<stop offset="0.89" stop-color="#3F362C"/>
</linearGradient>
<linearGradient id="paint11_linear_101_3655" x1="32.5317" y1="182.8" x2="56.9762" y2="182.172" gradientUnits="userSpaceOnUse">
<stop offset="0.01" stop-color="#FFF2C8"/>
<stop offset="0.99" stop-color="#FFAE67"/>
</linearGradient>
<linearGradient id="paint12_linear_101_3655" x1="167.112" y1="75.1334" x2="197.951" y2="55.4572" gradientUnits="userSpaceOnUse">
<stop stop-color="#C1552F"/>
<stop offset="1" stop-color="#CCB637"/>
</linearGradient>
<linearGradient id="paint13_linear_101_3655" x1="20.0212" y1="131.738" x2="68.4238" y2="165.678" gradientUnits="userSpaceOnUse">
<stop offset="0.01" stop-color="#FFF2C8"/>
<stop offset="0.72" stop-color="#FFCD94"/>
<stop offset="0.99" stop-color="#FFAE67"/>
</linearGradient>
<linearGradient id="paint14_linear_101_3655" x1="97.9817" y1="109.805" x2="137.517" y2="140.851" gradientUnits="userSpaceOnUse">
<stop offset="0.01" stop-color="#FFF2C8"/>
<stop offset="0.72" stop-color="#FFCD94"/>
<stop offset="0.99" stop-color="#FFAE67"/>
</linearGradient>
<linearGradient id="paint15_linear_101_3655" x1="110.649" y1="154.229" x2="143.433" y2="141.886" gradientUnits="userSpaceOnUse">
<stop offset="0.02" stop-color="#4F7770"/>
<stop offset="1" stop-color="#605147"/>
</linearGradient>
<linearGradient id="paint16_linear_101_3655" x1="22.7233" y1="187.747" x2="47.0061" y2="188.837" gradientUnits="userSpaceOnUse">
<stop offset="0.02" stop-color="#8E7D5A"/>
<stop offset="0.99" stop-color="#5B4F33"/>
</linearGradient>
<linearGradient id="paint17_linear_101_3655" x1="28.0008" y1="171.038" x2="65.4547" y2="162.761" gradientUnits="userSpaceOnUse">
<stop offset="0.01" stop-color="#FFF2C8"/>
<stop offset="0.99" stop-color="#FFAE67"/>
</linearGradient>
<linearGradient id="paint18_linear_101_3655" x1="25.4378" y1="186.882" x2="26.2155" y2="197.741" gradientUnits="userSpaceOnUse">
<stop offset="0.02" stop-color="#8E7D5A"/>
<stop offset="0.99" stop-color="#5B4F33"/>
</linearGradient>
<linearGradient id="paint19_linear_101_3655" x1="55.7757" y1="197.053" x2="6.94031" y2="173.347" gradientUnits="userSpaceOnUse">
<stop offset="0.01" stop-color="#FFF2C8"/>
<stop offset="0.99" stop-color="#FFAE67"/>
</linearGradient>
<linearGradient id="paint20_linear_101_3655" x1="11.5594" y1="172.793" x2="31.8346" y2="173.703" gradientUnits="userSpaceOnUse">
<stop offset="0.01" stop-color="#FFF2C8"/>
<stop offset="0.99" stop-color="#FFAE67"/>
</linearGradient>
<linearGradient id="paint21_linear_101_3655" x1="24.099" y1="178.699" x2="13.5731" y2="172.617" gradientUnits="userSpaceOnUse">
<stop offset="0.01" stop-color="#FFF2C8"/>
<stop offset="0.99" stop-color="#FFAE67"/>
</linearGradient>
<linearGradient id="paint22_linear_101_3655" x1="106.957" y1="177.447" x2="103.798" y2="195.352" gradientUnits="userSpaceOnUse">
<stop stop-color="#EAC324"/>
<stop offset="0.99" stop-color="#CB8924"/>
</linearGradient>
<linearGradient id="paint23_linear_101_3655" x1="167.143" y1="182.2" x2="199.925" y2="181.358" gradientUnits="userSpaceOnUse">
<stop offset="0.01" stop-color="#FFF2C8"/>
<stop offset="0.99" stop-color="#FFAE67"/>
</linearGradient>
<clipPath id="clip0_101_3655">
<rect width="205.309" height="200" fill="white"/>
</clipPath>
</defs>
</svg>
