<svg width="121" height="120" viewBox="0 0 121 120" fill="none" xmlns="http://www.w3.org/2000/svg">
<path d="M42.6431 104.139C44.9125 105.05 45.8842 107.586 44.9193 109.992C43.9591 112.386 41.5084 113.537 39.239 112.627C37.2986 111.849 36.222 109.902 36.6825 107.834L37.5789 108.194C37.2574 109.751 38.0461 111.266 39.5439 111.867C41.3481 112.59 43.2446 111.639 44.0456 109.642C44.8557 107.622 44.1424 105.623 42.3382 104.9C40.829 104.294 39.2075 104.856 38.3754 106.208L37.4789 105.849C38.5749 104.036 40.7028 103.361 42.6431 104.139Z" fill="#0A0D46"/>
<path d="M33.104 98.9864C34.5507 100.011 34.7858 101.9 33.6624 103.487C32.546 105.063 30.6929 105.459 29.2462 104.434C27.7895 103.402 27.5474 101.523 28.6637 99.9467C29.7872 98.3603 31.6473 97.9548 33.104 98.9864ZM32.673 99.595C31.6453 98.8673 30.2977 99.1413 29.3721 100.448C28.4607 101.735 28.6495 103.098 29.6772 103.825C30.6949 104.546 32.0425 104.272 32.954 102.985C33.8796 101.678 33.6907 100.316 32.673 99.595Z" fill="#0A0D46"/>
<path d="M26.612 93.8063L27.167 94.4578L22.2626 98.6361L21.7472 98.0312L22.6685 97.2463C21.7582 97.4597 20.8851 97.2078 20.2904 96.5098C19.6403 95.7467 19.5754 94.8222 20.1176 94.007C19.1673 94.2866 18.1973 94.0529 17.5392 93.2805C16.675 92.2661 16.8059 91.0624 17.9506 90.0872L21.1334 87.3757L21.6804 88.0178L18.7117 90.547C17.7811 91.3399 17.6154 92.2199 18.2893 93.0109C18.9236 93.7554 20.0904 93.8053 20.9931 93.0363L23.8687 90.5864L24.4237 91.2378L21.455 93.767C20.5244 94.5599 20.3586 95.4399 21.0326 96.2309C21.6748 96.9847 22.8336 97.0253 23.7364 96.2563L26.612 93.8063Z" fill="#0A0D46"/>
<path d="M13.5306 79.7645C15.3192 78.8858 17.0278 79.286 17.7825 80.8223C18.2084 81.6891 18.0977 82.6561 17.4688 83.4555L20.7717 81.8328L21.149 82.601L13.2484 86.4823L12.898 85.7691L14.149 85.1545C13.099 85.18 12.2169 84.6598 11.7802 83.771C11.0255 82.2348 11.7639 80.6325 13.5306 79.7645ZM13.9133 80.5436C12.4539 81.2606 11.959 82.4436 12.5143 83.5739C13.0426 84.6492 14.292 85.0298 15.7624 84.3074C17.1999 83.6012 17.7169 82.3801 17.1778 81.2828C16.6226 80.1525 15.3947 79.8159 13.9133 80.5436Z" fill="#0A0D46"/>
<path d="M14.8522 73.4292L15.0935 74.2503L6.67176 76.726L6.43039 75.9049L14.8522 73.4292Z" fill="#0A0D46"/>
<path d="M13.4756 65.9081C13.6963 67.704 12.4956 69.0587 10.4691 69.3077C8.6004 69.5374 7.05281 68.4712 6.84401 66.7724C6.6203 64.9522 7.94242 63.5826 10.011 63.4761L10.6195 68.427C12.1274 68.1678 12.9633 67.2521 12.8097 66.0022C12.6785 64.9344 11.9929 64.2673 10.9482 64.1863L10.8453 63.349C12.3009 63.4657 13.2951 64.4398 13.4756 65.9081ZM7.50077 66.704C7.64245 67.8568 8.62819 68.5609 10.0371 68.4986L9.53746 64.4336C8.11454 64.6823 7.3561 65.5269 7.50077 66.704Z" fill="#0A0D46"/>
<path d="M12.4226 55.644L13.1792 55.6915C13.2927 56.0294 13.3239 56.3131 13.304 56.6303C13.2374 57.6919 12.637 58.475 11.246 58.3877L7.35363 58.1434L7.25869 59.6565L6.53879 59.6113L6.63373 58.0983L4.73025 57.9788L4.78385 57.1247L6.68732 57.2441L6.81365 55.2308L7.53356 55.276L7.40723 57.2893L11.1166 57.5221C12.1171 57.5848 12.4894 57.1182 12.5338 56.4105C12.5506 56.1421 12.5156 55.9194 12.4226 55.644Z" fill="#0A0D46"/>
<path d="M14.6701 48.5768C14.2266 50.331 12.6173 51.16 10.6379 50.6595C8.81253 50.1981 7.7551 48.6445 8.17462 46.9851C8.62411 45.2071 10.352 44.4082 12.3191 45.0568L11.0965 49.8928C12.5961 50.1962 13.7066 49.6447 14.0152 48.4238C14.2789 47.3808 13.8809 46.5109 12.9362 46.0577L13.143 45.2399C14.4578 45.8749 15.0327 47.1426 14.6701 48.5768ZM8.81168 47.1587C8.52701 48.2848 9.19149 49.2977 10.5276 49.7489L11.5315 45.7782C10.1148 45.4958 9.10235 46.009 8.81168 47.1587Z" fill="#0A0D46"/>
<path d="M13.5848 41.0139C11.8048 40.1454 11.0676 38.5614 11.8289 37.0012C12.2524 36.1332 13.106 35.6382 14.1177 35.6557L10.8104 34.0421L11.1857 33.2729L19.0749 37.1221L18.7264 37.8363L17.5068 37.2413C18.1545 38.0606 18.2734 39.0436 17.8391 39.9336C17.0779 41.4939 15.3648 41.8824 13.5848 41.0139ZM13.9654 40.2338C15.4377 40.9521 16.6703 40.6285 17.2225 39.4967C17.7693 38.376 17.2326 37.1619 15.7822 36.4543C14.3209 35.7412 13.0888 36.1196 12.5527 37.2183C12.0005 38.3501 12.493 39.5154 13.9654 40.2338Z" fill="#0A0D46"/>
<path d="M27.3479 21.9937C28.7429 23.4168 28.8983 25.1647 27.676 26.3628C26.9862 27.0389 26.0333 27.2369 25.0771 26.8902L27.6531 29.5182L27.0419 30.1172L20.8801 23.831L21.4476 23.2747L22.4232 24.2701C22.07 23.281 22.2875 22.2803 22.9947 21.5871C24.217 20.3889 25.97 20.588 27.3479 21.9937ZM26.728 22.6013C25.5898 21.4401 24.3112 21.3409 23.412 22.2223C22.5563 23.061 22.5865 24.3668 23.7333 25.5367C24.8544 26.6805 26.1761 26.7888 27.0492 25.933C27.9484 25.0515 27.8833 23.78 26.728 22.6013Z" fill="#0A0D46"/>
<path d="M31.8343 18.4169L33.7537 21.2808L33.0428 21.7573L29.4558 16.4052L30.1159 15.9627L30.9327 17.1814C30.7674 16.1442 31.2192 15.1055 32.1028 14.5134L32.5997 15.2548C31.4451 15.9697 31.0515 17.249 31.8343 18.4169Z" fill="#0A0D46"/>
<path d="M41.7465 17.0383C40.1175 17.7376 38.3833 16.952 37.6165 15.1658C36.8545 13.3907 37.4844 11.6036 39.1133 10.9044C40.7536 10.2002 42.483 10.9746 43.2449 12.7496C44.0117 14.5359 43.3867 16.3342 41.7465 17.0383ZM41.4523 16.353C42.6095 15.8563 43.0791 14.5637 42.4473 13.092C41.8252 11.6428 40.5647 11.0929 39.4075 11.5897C38.2616 12.0816 37.792 13.3741 38.4141 14.8234C39.0459 16.2951 40.3064 16.8449 41.4523 16.353Z" fill="#0A0D46"/>
<path d="M48.1568 6.51274C48.245 6.88135 48.0222 7.21119 47.6298 7.30503C47.2374 7.39888 46.8895 7.20554 46.8013 6.83693C46.716 6.48022 46.9388 6.15038 47.3312 6.05654C47.7236 5.96269 48.0715 6.15603 48.1568 6.51274ZM48.2303 8.02878L49.8711 14.8896C50.1584 16.0905 49.6285 16.8709 48.5702 17.124C48.3443 17.178 48.0561 17.2344 47.7689 17.1899L47.5869 16.4289C47.8327 16.4581 48.0434 16.4455 48.305 16.3829C48.9114 16.2379 49.227 15.823 49.0479 15.0739L47.4098 8.225L48.2303 8.02878Z" fill="#0A0D46"/>
<path d="M57.322 13.3016C55.5171 13.4303 54.2256 12.1618 54.0804 10.1252C53.9466 8.24724 55.0906 6.75619 56.7978 6.63454C58.6271 6.50419 59.9273 7.8946 59.9278 9.96596L54.9523 10.3205C55.1341 11.8396 56.0059 12.7213 57.262 12.6318C58.3351 12.5553 59.0364 11.9048 59.1707 10.8656L60.0122 10.8057C59.8212 12.2533 58.7975 13.1965 57.322 13.3016ZM56.8326 7.29393C55.6741 7.37648 54.9204 8.32493 54.9106 9.73515L58.9959 9.44404C58.8202 8.01027 58.0155 7.20963 56.8326 7.29393Z" fill="#0A0D46"/>
<path d="M66.5861 13.6236C64.9006 13.4066 63.9008 11.8849 64.1537 9.92056C64.4035 7.98046 65.7683 6.76325 67.4416 6.9787C68.9331 7.17073 69.8721 8.30243 69.9207 9.9358L69.0597 9.82495C69.0156 8.63591 68.377 7.85107 67.3464 7.71837C66.158 7.56537 65.2114 8.50358 65.0146 10.0314C64.8148 11.5835 65.493 12.7309 66.6813 12.8839C67.7241 13.0182 68.5269 12.4312 68.8739 11.2679L69.7349 11.3788C69.2953 12.9739 68.0896 13.8172 66.5861 13.6236Z" fill="#0A0D46"/>
<path d="M76.9139 15.1492L76.6805 15.8704C76.325 15.8967 76.0424 15.8567 75.74 15.7588C74.728 15.4313 74.1181 14.6556 74.5473 13.3296L75.7482 9.61906L74.3058 9.15225L74.5279 8.46598L75.9703 8.93279L76.5576 7.11823L77.3718 7.38176L76.7845 9.19631L78.7037 9.81746L78.4816 10.5037L76.5624 9.88258L75.418 13.4186C75.1093 14.3724 75.4691 14.8487 76.1438 15.067C76.3997 15.1499 76.6241 15.1711 76.9139 15.1492Z" fill="#0A0D46"/>
<path d="M86.1299 18.4838C85.5634 19.5257 84.3752 19.7147 82.9789 18.9556C81.5718 18.1906 81.098 17.0145 81.6271 15.7853L82.3467 16.1766C81.9625 17.0114 82.3217 17.8607 83.2884 18.3863C84.2121 18.8885 84.9634 18.8377 85.3137 18.1932C85.6174 17.6347 85.4353 17.2017 84.6695 16.5627L83.9407 15.9578C82.9776 15.1698 82.6945 14.3339 83.1383 13.5176C83.6521 12.5724 84.852 12.362 86.0872 13.0335C87.3869 13.7401 87.8666 14.9054 87.3394 16.0799L86.6305 15.6945C86.9816 14.8696 86.6634 14.0982 85.7719 13.6135C84.977 13.1814 84.2249 13.2595 83.9037 13.8503C83.6 14.4088 83.7978 14.8642 84.548 15.4808L85.3089 16.1032C86.3199 16.9312 86.5678 17.6783 86.1299 18.4838Z" fill="#0A0D46"/>
<path d="M97.2089 30.6073L100.099 25.8485L94.9992 28.0733L94.4287 27.4191L98.0473 21.7656L98.6018 22.4014L95.6383 26.9646L100.683 24.7879L101.237 25.4237L98.3771 30.1239L103.31 27.801L103.873 28.446L97.7714 31.2523L97.2089 30.6073Z" fill="#0A0D46"/>
<path d="M108.547 33.2677C108.219 33.4577 107.846 33.3492 107.637 32.9896C107.435 32.6405 107.527 32.2623 107.855 32.0723C108.172 31.8885 108.546 31.997 108.748 32.3461C108.956 32.7058 108.865 33.0839 108.547 33.2677ZM101.553 37.0229L101.124 36.2824L106.699 33.0527L107.128 33.7933L101.553 37.0229Z" fill="#0A0D46"/>
<path d="M105.855 44.4127L105.15 44.6908C104.904 44.4331 104.755 44.1895 104.638 43.8938C104.248 42.9043 104.459 41.9404 105.756 41.4291L109.384 39.9982L108.828 38.5879L109.499 38.3232L110.055 39.7335L111.829 39.0337L112.143 39.8299L110.369 40.5296L111.109 42.4062L110.438 42.6708L109.698 40.7943L106.24 42.1579C105.308 42.5257 105.169 43.1063 105.429 43.7659C105.528 44.0161 105.654 44.2029 105.855 44.4127Z" fill="#0A0D46"/>
<path d="M110.321 49.3968L106.63 50.082L106.474 49.2406L115.105 47.638L115.261 48.4794L111.799 49.1222C112.63 49.3783 113.293 50.0013 113.463 50.9148C113.708 52.237 113.025 53.2467 111.523 53.5257L107.412 54.2891L107.255 53.4477L111.078 52.7379C112.292 52.5124 112.874 51.8323 112.682 50.7985C112.499 49.8129 111.499 49.178 110.321 49.3968Z" fill="#0A0D46"/>
<path d="M108.596 70.3633C107.424 70.1852 106.842 69.1322 107.08 67.5609C107.321 65.9775 108.265 65.1317 109.601 65.211L109.478 66.0208C108.563 65.9435 107.886 66.5704 107.721 67.6582C107.563 68.6977 107.866 69.3868 108.592 69.497C109.22 69.5925 109.565 69.2739 109.906 68.3363L110.226 67.4452C110.64 66.2714 111.329 65.7208 112.248 65.8603C113.312 66.0219 113.918 67.0785 113.707 68.4685C113.484 69.9311 112.552 70.7787 111.268 70.6826L111.389 69.8848C112.284 69.9343 112.902 69.3726 113.054 68.3694C113.19 67.4749 112.86 66.7942 112.196 66.6932C111.567 66.5978 111.206 66.9386 110.882 67.8539L110.555 68.7812C110.121 70.0137 109.503 70.501 108.596 70.3633Z" fill="#0A0D46"/>
<path d="M106.675 79.3276L110.282 80.6437L109.992 81.4361L103.94 79.2272L104.212 78.4807L105.303 78.8789C104.716 78.3131 104.479 77.3937 104.802 76.5094C105.25 75.2805 106.248 74.7207 107.776 75.2782L111.715 76.7159L111.422 77.5198L107.655 76.145C106.426 75.6965 105.733 76.1334 105.423 76.9833C105.071 77.948 105.596 78.9336 106.675 79.3276Z" fill="#0A0D46"/>
<path d="M100.579 85.2235C101.466 83.7739 103.263 83.4835 104.953 84.5172C106.621 85.5382 107.174 87.2812 106.294 88.7203C105.509 90.003 104.092 90.3975 102.582 89.7742L103.035 89.0337C104.138 89.4795 105.115 89.2175 105.658 88.3311C106.283 87.3091 105.814 86.0616 104.5 85.2576C103.165 84.4408 101.84 84.5907 101.215 85.6127C100.666 86.5096 100.874 87.4822 101.794 88.2744L101.341 89.0148C100.064 87.9616 99.7876 86.5166 100.579 85.2235Z" fill="#0A0D46"/>
<path d="M94.8795 92.6855C96.0357 91.4401 97.855 91.511 99.3065 92.8586C100.74 94.1896 100.937 96.0076 99.7893 97.244C98.7661 98.346 97.2994 98.4524 95.9421 97.5425L96.5327 96.9063C97.5259 97.5616 98.5357 97.4981 99.2428 96.7366C100.058 95.8585 99.8448 94.5429 98.7159 93.4948C97.5691 92.43 96.2412 92.3149 95.426 93.1929C94.7106 93.9635 94.7216 94.9579 95.4665 95.9165L94.8759 96.5526C93.8334 95.2677 93.848 93.7965 94.8795 92.6855Z" fill="#0A0D46"/>
<path d="M87.7238 98.9538C89.1929 97.8976 90.9579 98.3001 92.1497 99.9579C93.2487 101.487 93.0568 103.356 91.6671 104.355C90.1781 105.426 88.3417 104.924 87.2548 103.161L91.3049 100.249C90.3533 99.0509 89.1487 98.7576 88.1262 99.4926C87.2526 100.121 86.9968 101.042 87.4275 101.998L86.7425 102.49C86.1458 101.157 86.5226 99.8173 87.7238 98.9538ZM91.2916 103.812C92.2347 103.134 92.3788 101.931 91.6475 100.725L88.322 103.116C89.2237 104.245 90.3288 104.504 91.2916 103.812Z" fill="#0A0D46"/>
<path d="M78.2676 106.291C77.7796 105.21 78.3469 104.149 79.7954 103.495C81.2551 102.836 82.4785 103.169 83.1384 104.333L82.3918 104.67C81.9588 103.859 81.0649 103.632 80.0621 104.085C79.1038 104.518 78.6904 105.147 78.9923 105.816C79.2539 106.395 79.7089 106.512 80.6808 106.288L81.6031 106.072C82.813 105.781 83.65 106.06 84.0324 106.907C84.4751 107.888 83.9179 108.971 82.6365 109.549C81.2883 110.158 80.0699 109.836 79.4524 108.707L80.1879 108.375C80.6331 109.153 81.44 109.365 82.3649 108.948C83.1894 108.575 83.5816 107.929 83.3049 107.316C83.0433 106.737 82.5609 106.619 81.6163 106.844L80.6606 107.075C79.39 107.38 78.6449 107.126 78.2676 106.291Z" fill="#0A0D46"/>
<path d="M68.8403 108.922C68.5758 107.766 69.3418 106.838 70.8911 106.484C72.4524 106.127 73.5858 106.695 74.0021 107.967L73.2037 108.149C72.9396 107.269 72.1082 106.87 71.0356 107.115C70.0107 107.35 69.481 107.885 69.6446 108.6C69.7864 109.22 70.2093 109.424 71.2064 109.397L72.1531 109.368C73.3966 109.322 74.1619 109.761 74.3691 110.667C74.6091 111.716 73.8486 112.667 72.478 112.981C71.036 113.311 69.9053 112.754 69.5236 111.525L70.3102 111.345C70.5927 112.196 71.3416 112.564 72.3308 112.337C73.2127 112.136 73.7251 111.579 73.5751 110.924C73.4333 110.304 72.9838 110.094 72.0133 110.127L71.0309 110.164C69.7249 110.212 69.0448 109.816 68.8403 108.922Z" fill="#0A0D46"/>
</svg>
