<svg width="18" height="18" viewBox="0 0 18 18" fill="none" xmlns="http://www.w3.org/2000/svg">
<mask id="mask0_76_1292" style="mask-type:alpha" maskUnits="userSpaceOnUse" x="0" y="0" width="18" height="18">
<rect width="18" height="18" fill="#D9D9D9"/>
</mask>
<g mask="url(#mask0_76_1292)">
<path d="M9 12.6C10.3 11.5625 11.2812 10.5655 11.9438 9.609C12.6062 8.653 12.9375 7.7375 12.9375 6.8625C12.9375 6.125 12.803 5.49675 12.534 4.97775C12.2655 4.45925 11.9345 4.0405 11.541 3.7215C11.147 3.403 10.7188 3.17175 10.2563 3.02775C9.79375 2.88425 9.375 2.8125 9 2.8125C8.625 2.8125 8.20625 2.88425 7.74375 3.02775C7.28125 3.17175 6.85325 3.403 6.45975 3.7215C6.06575 4.0405 5.73425 4.45925 5.46525 4.97775C5.19675 5.49675 5.0625 6.125 5.0625 6.8625C5.0625 7.7375 5.39375 8.653 6.05625 9.609C6.71875 10.5655 7.7 11.5625 9 12.6ZM9 13.7812C8.9 13.7812 8.80625 13.7688 8.71875 13.7438C8.63125 13.7188 8.55 13.675 8.475 13.6125C6.95 12.425 5.8125 11.2717 5.0625 10.1528C4.3125 9.03425 3.9375 7.9375 3.9375 6.8625C3.9375 6.0125 4.09075 5.2655 4.39725 4.6215C4.70325 3.978 5.097 3.4375 5.5785 3C6.0595 2.5625 6.60325 2.2345 7.20975 2.016C7.81575 1.797 8.4125 1.6875 9 1.6875C9.5875 1.6875 10.1845 1.797 10.791 2.016C11.397 2.2345 11.9405 2.5625 12.4215 3C12.903 3.4375 13.297 3.978 13.6035 4.6215C13.9095 5.2655 14.0625 6.0125 14.0625 6.8625C14.0625 7.9375 13.6875 9.03425 12.9375 10.1528C12.1875 11.2717 11.05 12.425 9.525 13.6125C9.4625 13.675 9.3845 13.7188 9.291 13.7438C9.197 13.7688 9.1 13.7812 9 13.7812ZM9 8.0625C9.3625 8.0625 9.672 7.9345 9.9285 7.6785C10.1845 7.422 10.3125 7.1125 10.3125 6.75C10.3125 6.3875 10.1845 6.078 9.9285 5.8215C9.672 5.5655 9.3625 5.4375 9 5.4375C8.6375 5.4375 8.328 5.5655 8.0715 5.8215C7.8155 6.078 7.6875 6.3875 7.6875 6.75C7.6875 7.1125 7.8155 7.422 8.0715 7.6785C8.328 7.9345 8.6375 8.0625 9 8.0625ZM4.5 16.3125C4.3375 16.3125 4.20325 16.2595 4.09725 16.1535C3.99075 16.047 3.9375 15.9125 3.9375 15.75C3.9375 15.5875 3.99075 15.453 4.09725 15.3465C4.20325 15.2405 4.3375 15.1875 4.5 15.1875H13.5C13.6625 15.1875 13.797 15.2405 13.9035 15.3465C14.0095 15.453 14.0625 15.5875 14.0625 15.75C14.0625 15.9125 14.0095 16.047 13.9035 16.1535C13.797 16.2595 13.6625 16.3125 13.5 16.3125H4.5Z" fill="#656565"/>
</g>
</svg>
