<svg width="18" height="18" viewBox="0 0 18 18" fill="none" xmlns="http://www.w3.org/2000/svg">
<mask id="mask0_76_1295" style="mask-type:alpha" maskUnits="userSpaceOnUse" x="0" y="0" width="18" height="18">
<rect width="18" height="18" fill="#D9D9D9"/>
</mask>
<g mask="url(#mask0_76_1295)">
<path d="M3.225 14.625C2.85 14.625 2.53125 14.4938 2.26875 14.2313C2.00625 13.9688 1.875 13.65 1.875 13.275V4.725C1.875 4.35 2.00625 4.03125 2.26875 3.76875C2.53125 3.50625 2.85 3.375 3.225 3.375H14.775C15.15 3.375 15.4688 3.50625 15.7313 3.76875C15.9938 4.03125 16.125 4.35 16.125 4.725V13.275C16.125 13.65 15.9938 13.9688 15.7313 14.2313C15.4688 14.4938 15.15 14.625 14.775 14.625H3.225ZM15 5.5875L9.35625 9.1875C9.30625 9.225 9.25 9.253 9.1875 9.2715C9.125 9.2905 9.0625 9.3 9 9.3C8.9375 9.3 8.875 9.2905 8.8125 9.2715C8.75 9.253 8.69375 9.225 8.64375 9.1875L3 5.5875V13.275C3 13.3375 3.022 13.3907 3.066 13.4347C3.1095 13.4783 3.1625 13.5 3.225 13.5H14.775C14.8375 13.5 14.8907 13.4783 14.9347 13.4347C14.9783 13.3907 15 13.3375 15 13.275V5.5875ZM9 8.25L14.8875 4.5H3.1125L9 8.25ZM3 5.5875V13.5V13.275V5.5875Z" fill="#656565"/>
</g>
</svg>
