<svg width="18" height="18" viewBox="0 0 18 18" fill="none" xmlns="http://www.w3.org/2000/svg">
<mask id="mask0_76_1298" style="mask-type:alpha" maskUnits="userSpaceOnUse" x="0" y="0" width="18" height="18">
<rect width="18" height="18" fill="#D9D9D9"/>
</mask>
<g mask="url(#mask0_76_1298)">
<path d="M14.85 8.79368C14.6875 8.79368 14.55 8.74043 14.4375 8.63393C14.325 8.52793 14.2563 8.39368 14.2313 8.23118C14.0688 7.01868 13.5595 5.98418 12.7035 5.12768C11.847 4.27168 10.8125 3.76243 9.60002 3.59993C9.45002 3.58743 9.31877 3.52493 9.20627 3.41243C9.09377 3.29993 9.03752 3.16243 9.03752 2.99993C9.03752 2.83743 9.09377 2.70293 9.20627 2.59643C9.31877 2.49043 9.45002 2.44993 9.60002 2.47493C11.125 2.63743 12.4283 3.25618 13.5098 4.33118C14.5908 5.40618 15.2125 6.70618 15.375 8.23118C15.4 8.38118 15.3563 8.51243 15.2438 8.62493C15.1313 8.73743 15 8.79368 14.85 8.79368ZM11.7375 8.79368C11.6125 8.79368 11.5033 8.75293 11.4098 8.67143C11.3158 8.59043 11.2438 8.48118 11.1938 8.34368C11.0813 7.93118 10.872 7.57193 10.566 7.26593C10.2595 6.95943 9.90627 6.74993 9.50627 6.63743C9.36877 6.58743 9.25627 6.51543 9.16877 6.42143C9.08127 6.32793 9.03752 6.21243 9.03752 6.07493C9.03752 5.88743 9.10302 5.73743 9.23403 5.62493C9.36552 5.51243 9.51252 5.47493 9.67502 5.51243C10.3375 5.66243 10.9063 5.97493 11.3813 6.44993C11.8563 6.92493 12.1688 7.49368 12.3188 8.15618C12.3688 8.33118 12.3313 8.48118 12.2063 8.60618C12.0813 8.73118 11.925 8.79368 11.7375 8.79368ZM14.5313 15.3374C13.0688 15.3374 11.622 14.9904 10.191 14.2964C8.75952 13.6029 7.48452 12.6937 6.36602 11.5687C5.24702 10.4437 4.33752 9.16868 3.63752 7.74368C2.93752 6.31868 2.58752 4.87493 2.58752 3.41243C2.58752 3.18743 2.66252 2.99993 2.81252 2.84993C2.96252 2.69993 3.15002 2.62493 3.37502 2.62493H5.83127C6.01877 2.62493 6.18752 2.68418 6.33752 2.80268C6.48752 2.92168 6.57502 3.07493 6.60002 3.26243L7.03127 5.47493C7.06877 5.66243 7.06877 5.83118 7.03127 5.98118C6.99377 6.13118 6.91252 6.26243 6.78752 6.37493L5.08127 8.06243C5.66877 9.06243 6.37202 9.96868 7.19102 10.7812C8.00952 11.5937 8.93752 12.2999 9.97502 12.8999L11.6438 11.2124C11.7688 11.0874 11.9158 10.9999 12.0848 10.9499C12.2533 10.8999 12.425 10.8874 12.6 10.9124L14.6813 11.3437C14.8688 11.3812 15.022 11.4687 15.141 11.6062C15.2595 11.7437 15.3188 11.9124 15.3188 12.1124V14.5499C15.3188 14.7749 15.2438 14.9624 15.0938 15.1124C14.9438 15.2624 14.7563 15.3374 14.5313 15.3374ZM4.53752 6.99368L5.86877 5.71868C5.89377 5.69368 5.90952 5.66543 5.91602 5.63393C5.92202 5.60293 5.92502 5.57493 5.92502 5.54993L5.58752 3.86243C5.57502 3.82493 5.55627 3.79668 5.53127 3.77768C5.50627 3.75918 5.47502 3.74993 5.43752 3.74993H3.84377C3.81877 3.74993 3.79677 3.75918 3.77777 3.77768C3.75927 3.79668 3.75002 3.81868 3.75002 3.84368C3.78752 4.35618 3.86877 4.87793 3.99377 5.40893C4.11877 5.94043 4.30002 6.46868 4.53752 6.99368ZM14.1 14.1749C14.125 14.1749 14.147 14.1654 14.166 14.1464C14.1845 14.1279 14.1938 14.1062 14.1938 14.0812V12.5062C14.1938 12.4687 14.1845 12.4374 14.166 12.4124C14.147 12.3874 14.1188 12.3687 14.0813 12.3562L12.5063 12.0374C12.4688 12.0249 12.4405 12.0219 12.4215 12.0284C12.403 12.0344 12.3813 12.0499 12.3563 12.0749L11.025 13.4062C11.525 13.6437 12.0438 13.8282 12.5813 13.9597C13.1188 14.0907 13.625 14.1624 14.1 14.1749Z" fill="#656565"/>
</g>
</svg>
