<svg width="68" height="79" viewBox="0 0 68 79" fill="none" xmlns="http://www.w3.org/2000/svg">
<path d="M52.75 39.4042L53.5 38.9711L52.75 38.5381L7.75 12.5574L7 12.1244L7 12.9904L7 64.9519L7 65.8179L7.75 65.3849L52.75 39.4042ZM8 13.8564L51.5 38.9711L8 64.0859L8 13.8564ZM0.5 0.866022L66.5 38.9711L0.499997 77.0763L0.5 0.866022Z" stroke="#FF6600"/>
<path d="M29.7954 7.90306L28.4542 7.12869L27.0614 9.54102L26 8.9282L30 2L32.4027 3.38719C33.9562 4.28412 34.5029 5.65475 33.6673 7.10215C32.826 8.55919 31.349 8.8 29.7954 7.90306ZM31.8749 4.279L30.5433 3.5102L28.9723 6.2313L30.3039 7.00011C31.2399 7.5405 32.1044 7.35777 32.6003 6.49898C33.0961 5.6402 32.8109 4.81939 31.8749 4.279Z" fill="white"/>
<path d="M36.2188 14.8281L32.0214 12.4047L36.0214 5.47645L37.0828 6.08927L33.6343 12.0622L36.7704 13.8728L36.2188 14.8281Z" fill="white"/>
<path d="M42.0274 18.1816L42.3919 16.1019L39.4006 14.3749L37.7721 15.7248L36.701 15.1064L43.3546 9.71026L44.5221 10.3844L43.1564 18.8335L42.0274 18.1816ZM43.2457 11.1913L40.2148 13.7L42.5693 15.0593L43.2457 11.1913Z" fill="white"/>
<path d="M47.581 17.9271L46.0824 20.5228L45.0113 19.9044L46.5099 17.3087L46.5218 11.5389L47.6797 12.2074L47.6531 16.6435L51.5008 14.4135L52.5816 15.0375L47.581 17.9271Z" fill="white"/>
<path d="M33.3407 74.8423L26.8592 71.6562L29.8592 76.8523L28.9198 77.3947L25.0802 70.7444L26.1854 70.1063L32.5038 73.2013L29.584 68.1441L30.5235 67.6017L34.3631 74.2521L33.3407 74.8423Z" fill="white"/>
<path d="M38.8466 71.8487C36.9309 72.9548 34.6132 72.2799 33.4795 70.3163C32.3459 68.3526 32.9309 66.0266 34.8466 64.9205C36.7624 63.8145 39.0693 64.4708 40.203 66.4344C41.3367 68.3981 40.7624 70.7427 38.8466 71.8487ZM38.3172 70.9317C39.7172 70.1235 39.9766 68.467 39.1531 67.0406C38.3295 65.6143 36.776 65.0292 35.376 65.8375C33.9761 66.6457 33.706 68.2837 34.5295 69.7101C35.353 71.1364 36.9173 71.74 38.3172 70.9317Z" fill="white"/>
<path d="M47.9801 66.3903L43.5694 61.9839L45.1709 68.0121L44.1302 68.613L38.5683 62.9571L39.563 62.3828L43.7912 66.771L42.2248 60.846L43.2747 60.2398L47.6096 64.5788L45.9181 58.7137L46.9128 58.1394L49.03 65.7841L47.9801 66.3903Z" fill="white"/>
</svg>
