<svg width="40" height="41" viewBox="0 0 40 41" fill="none" xmlns="http://www.w3.org/2000/svg">
<g clip-path="url(#clip0_74_1041)">
<path d="M27.6745 28.881C27.9974 28.881 28.259 28.6192 28.259 28.2964V23.6888C28.259 23.366 27.9973 23.1042 27.6745 23.1042H26.6896C26.3667 23.1042 26.1051 23.366 26.1051 23.6888C26.1051 24.0116 26.3668 24.2733 26.6896 24.2733H27.0899V28.2964C27.0899 28.6192 27.3517 28.881 27.6745 28.881Z" fill="#656565"/>
<path d="M12.9859 27.8289C12.7286 28.0219 12.6756 28.3869 12.8678 28.6453C12.9825 28.7995 13.1588 28.881 13.3372 28.881C13.4585 28.881 13.5808 28.8434 13.6856 28.7654C13.7242 28.7368 13.761 28.7058 13.7977 28.6747C14.8857 27.7531 15.954 25.9432 15.4839 24.4694C15.393 24.1847 15.2274 23.9317 15.0175 23.7204C14.6598 23.3601 14.1658 23.1536 13.658 23.1536C12.6009 23.1536 11.741 24.0135 11.741 25.0706C11.741 26.1277 12.6009 26.9876 13.658 26.9876C13.6829 26.9876 13.7076 26.9867 13.7323 26.9858C13.3707 27.528 12.9992 27.8186 12.9859 27.8289ZM13.658 25.8184C13.2456 25.8184 12.9101 25.4829 12.9101 25.0705C12.9101 24.6581 13.2457 24.3226 13.658 24.3226C14.0703 24.3226 14.4058 24.6581 14.4058 25.0705C14.4058 25.4829 14.0704 25.8184 13.658 25.8184Z" fill="#656565"/>
<path d="M16.4889 24.833V26.9639C16.4889 28.0209 17.3488 28.8809 18.4058 28.8809C19.4629 28.8809 20.3228 28.021 20.3228 26.9639V24.833C20.3228 23.776 19.4629 22.916 18.4058 22.916C17.3488 22.916 16.4889 23.776 16.4889 24.833ZM19.1537 24.833V26.9639C19.1537 27.3763 18.8182 27.7118 18.4058 27.7118C17.9935 27.7118 17.658 27.3763 17.658 26.9639V24.833C17.658 24.4206 17.9935 24.0852 18.4058 24.0852C18.8182 24.0852 19.1537 24.4207 19.1537 24.833Z" fill="#656565"/>
<path d="M21.2872 24.833V26.9639C21.2872 28.0209 22.1472 28.8809 23.2042 28.8809C24.2613 28.8809 25.1212 28.021 25.1212 26.9639V24.833C25.1212 23.776 24.2613 22.916 23.2042 22.916C22.1472 22.9161 21.2872 23.776 21.2872 24.833ZM23.9521 24.833V26.9639C23.9521 27.3763 23.6165 27.7118 23.2042 27.7118C22.7918 27.7118 22.4564 27.3763 22.4564 26.9639V24.833C22.4564 24.4206 22.7918 24.0852 23.2042 24.0852C23.6166 24.0852 23.9521 24.4207 23.9521 24.833Z" fill="#656565"/>
<path d="M37.9154 24.7874C39.2207 23.8889 40 22.4076 40 20.825C40 19.2423 39.2207 17.761 37.9155 16.8625C37.4077 16.513 37.2315 15.8553 37.4965 15.2988C38.1777 13.8681 38.1119 12.1956 37.3205 10.825C36.5291 9.4544 35.1137 8.5612 33.5341 8.43565C32.9196 8.38683 32.4381 7.90542 32.3894 7.29104C32.3824 7.20323 32.3727 7.11323 32.3606 7.02347C32.3173 6.70347 32.022 6.47901 31.7028 6.52261C31.3829 6.56589 31.1587 6.86042 31.202 7.18034C31.2113 7.24878 31.2186 7.31706 31.2239 7.38354C31.3184 8.57394 32.2511 9.50667 33.4416 9.6012C34.6376 9.6962 35.7092 10.3722 36.3081 11.4096C36.907 12.4469 36.9566 13.713 36.4409 14.7963C35.9276 15.8745 36.269 17.1485 37.2527 17.8256C38.2409 18.5058 38.831 19.6271 38.831 20.825C38.831 22.0228 38.2409 23.1441 37.2526 23.8243C36.269 24.5014 35.9277 25.7754 36.4409 26.8536C36.9566 27.9369 36.907 29.203 36.3081 30.2403C35.7091 31.2777 34.6376 31.9537 33.4416 32.0487C32.251 32.1433 31.3184 33.076 31.2239 34.2664C31.1288 35.4625 30.4528 36.5341 29.4155 37.1329C28.3782 37.7318 27.1123 37.7815 26.0288 37.2658C24.9507 36.7523 23.6766 37.0939 22.9995 38.0775C22.3192 39.0658 21.198 39.6559 20.0002 39.6559C18.8023 39.6559 17.6811 39.0658 17.0008 38.0775C16.3237 37.0939 15.0498 36.7525 13.9715 37.2658C12.8882 37.7816 11.6221 37.7319 10.5848 37.1329C9.54758 36.5341 8.87148 35.4625 8.77641 34.2664C8.68188 33.076 7.7493 32.1433 6.55875 32.0487C5.36273 31.9537 4.29109 31.2777 3.69219 30.2403C3.09328 29.203 3.04367 27.9369 3.55938 26.8536C4.07273 25.7754 3.73133 24.5014 2.74766 23.8243C1.75937 23.1441 1.1693 22.0228 1.1693 20.825C1.1693 19.6271 1.75938 18.5058 2.74773 17.8256C3.73133 17.1485 4.07266 15.8745 3.55938 14.7963C3.04367 13.713 3.09336 12.4469 3.69219 11.4096C4.29117 10.3722 5.36273 9.6962 6.55875 9.6012C7.74922 9.50667 8.68188 8.57401 8.77641 7.38362C8.87148 6.18753 9.5475 5.11589 10.5848 4.51698C11.622 3.91815 12.8882 3.86839 13.9715 4.38417C15.0498 4.89745 16.3237 4.55604 17.0008 3.57245C17.6811 2.58417 18.8023 1.99409 20.0002 1.99409C21.198 1.99409 22.3192 2.58417 22.9995 3.57245C23.6766 4.55597 24.9505 4.89745 26.0288 4.38417C27.1122 3.86839 28.3782 3.91808 29.4155 4.51698C29.7145 4.68964 29.9859 4.9019 30.2222 5.14792C30.4457 5.38065 30.8159 5.38823 31.0488 5.16456C31.2816 4.94089 31.2891 4.57089 31.0654 4.338C30.7528 4.01253 30.3944 3.73206 30 3.5044C28.6293 2.71308 26.9568 2.64737 25.5262 3.32847C24.9697 3.59347 24.312 3.41729 23.9625 2.90948C23.064 1.60425 21.5826 0.824951 20 0.824951C18.4174 0.824951 16.936 1.60425 16.0376 2.90948C15.688 3.41722 15.0302 3.59331 14.4738 3.32847C13.0432 2.64745 11.3708 2.71308 10.0001 3.5044C8.62953 4.29565 7.73633 5.71112 7.61078 7.29097C7.56195 7.90542 7.08055 8.38683 6.46609 8.43565C4.88641 8.5612 3.47086 9.4544 2.67945 10.825C1.88813 12.1956 1.82242 13.8681 2.50352 15.2988C2.76844 15.8553 2.59227 16.513 2.08461 16.8625C0.779297 17.761 0 19.2423 0 20.825C0 22.4076 0.779297 23.8889 2.08453 24.7874C2.59227 25.1369 2.76852 25.7946 2.50352 26.3511C1.82234 27.7818 1.88813 29.4543 2.67945 30.825C3.47086 32.1956 4.88633 33.0887 6.46594 33.2142C7.08039 33.2631 7.56187 33.7445 7.61063 34.359C7.73625 35.9388 8.62945 37.3542 9.99992 38.1454C11.3705 38.9368 13.043 39.0025 14.4737 38.3214C15.0304 38.0565 15.6879 38.2327 16.0374 38.7403C16.936 40.0457 18.4174 40.825 20 40.825C21.5826 40.825 23.064 40.0457 23.9624 38.7404C24.312 38.2327 24.9698 38.0566 25.5262 38.3214C26.9568 39.0025 28.6293 38.9367 29.9999 38.1455C31.3705 37.3542 32.2637 35.9388 32.3892 34.3589C32.438 33.7445 32.9195 33.2631 33.5339 33.2142C35.1135 33.0888 36.5291 32.1956 37.3204 30.825C38.1117 29.4543 38.1774 27.7818 37.4963 26.3511C37.2315 25.7946 37.4077 25.1369 37.9154 24.7874Z" fill="#656565"/>
<path d="M7.35192 25.5628C7.05497 25.6895 6.917 26.033 7.04372 26.3299C9.26255 31.5287 14.3482 34.8878 20 34.8878C27.7643 34.8878 34.0809 28.5712 34.0809 20.8069C34.0809 13.0427 27.7643 6.72607 20 6.72607C12.2358 6.72607 5.91919 13.0427 5.91919 20.8069C5.91919 21.7576 6.01458 22.708 6.20263 23.6315C6.26708 23.948 6.57591 24.1522 6.89216 24.0877C7.20849 24.0233 7.41271 23.7146 7.34833 23.3983C7.17575 22.5512 7.08833 21.6794 7.08833 20.8069C7.08833 13.6874 12.8805 7.89522 20.0001 7.89522C27.1197 7.89522 32.9119 13.6874 32.9119 20.8069C32.9119 27.9265 27.1197 33.7187 20 33.7187C14.8173 33.7187 10.1537 30.6383 8.11903 25.8711C7.99224 25.5741 7.64903 25.4362 7.35192 25.5628Z" fill="#656565"/>
<path d="M13.4431 19.2174V13.3174C13.4431 12.9946 13.1814 12.7329 12.8585 12.7329C12.5356 12.7329 12.2739 12.9946 12.2739 13.3174V19.2174C12.2739 19.5402 12.5356 19.8019 12.8585 19.8019C13.1814 19.8019 13.4431 19.5402 13.4431 19.2174Z" fill="#656565"/>
<path d="M17.4272 18.6329C16.7984 18.6329 16.1918 18.3777 15.8044 17.9503C15.5874 17.711 15.2177 17.6929 14.9787 17.9097C14.7394 18.1265 14.7212 18.4962 14.938 18.7354C15.5433 19.4032 16.4738 19.802 17.4272 19.802C18.5775 19.802 19.5801 19.0451 19.7594 18.0414C19.8953 17.2798 19.5418 16.2819 18.1419 15.7655C17.3924 15.489 16.6965 15.1875 16.5099 15.1056C16.3426 14.9802 16.2617 14.7818 16.2926 14.5673C16.3324 14.29 16.5479 14.0667 16.869 13.9699C17.7844 13.6943 18.6153 14.3585 18.6338 14.3735C18.881 14.579 19.2479 14.5465 19.4551 14.3002C19.6628 14.0531 19.6309 13.6843 19.3837 13.4765C19.3306 13.4319 18.0651 12.3884 16.5319 12.8504C15.775 13.0784 15.2398 13.6727 15.1352 14.4012C15.0376 15.0811 15.3322 15.735 15.9039 16.1076C15.9297 16.1244 15.9568 16.1392 15.985 16.1518C16.019 16.1669 16.8269 16.5266 17.7372 16.8624C18.3604 17.0922 18.6779 17.4471 18.6085 17.8359C18.5385 18.2277 18.0776 18.6329 17.4272 18.6329Z" fill="#656565"/>
<path d="M27.7261 16.2674C27.7261 14.3185 26.1406 12.7329 24.1916 12.7329C22.2426 12.7329 20.657 14.3185 20.657 16.2674C20.657 18.2163 22.2426 19.802 24.1916 19.802C26.1406 19.802 27.7261 18.2164 27.7261 16.2674ZM21.8262 16.2674C21.8262 14.9631 22.8873 13.9021 24.1917 13.9021C25.4959 13.9021 26.5571 14.9631 26.5571 16.2674C26.5571 17.5717 25.496 18.6328 24.1917 18.6328C22.8873 18.6328 21.8262 17.5717 21.8262 16.2674Z" fill="#656565"/>
<path d="M9.49817 21.3289C9.49817 21.6517 9.75981 21.9134 10.0827 21.9134H29.9172C30.24 21.9134 30.5017 21.6517 30.5017 21.3289C30.5017 21.0061 30.24 20.7444 29.9172 20.7444H10.0828C9.75989 20.7444 9.49817 21.0061 9.49817 21.3289Z" fill="#656565"/>
</g>
<defs>
<clipPath id="clip0_74_1041">
<rect width="40" height="40" fill="white" transform="translate(0 0.824951)"/>
</clipPath>
</defs>
</svg>
