<svg width="100" height="100" viewBox="0 0 100 100" fill="none" xmlns="http://www.w3.org/2000/svg">
<path d="M100 50C100 50 95.7419 50.8065 87.7581 51.6129C79.7742 52.4194 68.0806 53.2258 53.2258 53.2258C53.2258 82.9355 50 100 50 100C50 100 49.1936 95.7419 48.3871 87.7581C47.5806 79.7742 46.7742 68.0806 46.7742 53.2258C17.0645 53.2258 0 50 0 50C0 50 4.25807 49.1936 12.2419 48.3871C20.2258 47.5806 31.9194 46.7742 46.7742 46.7742C46.7742 17.0645 50 0 50 0C50 0 53.2258 17.0645 53.2258 46.7742C82.9355 46.7742 100 50 100 50Z" fill="#EBF3FF"/>
<path d="M53.2258 43.5485C62.9032 30.6452 72.5807 27.4194 72.5807 27.4194C68.4229 34.796 62.9575 41.3544 56.4516 46.7743" fill="#EBF3FF"/>
<path d="M43.5484 46.7743C30.6452 37.0969 27.4194 27.4194 27.4194 27.4194C34.7959 31.5772 41.3544 37.0426 46.7742 43.5485" fill="#EBF3FF"/>
<path d="M46.7742 56.4514C37.0968 69.3546 27.4194 72.5804 27.4194 72.5804C31.5772 65.2038 37.0425 58.6454 43.5484 53.2256" fill="#EBF3FF"/>
<path d="M56.4516 53.2256C69.3549 62.903 72.5807 72.5804 72.5807 72.5804C65.2041 68.4226 58.6457 62.9573 53.2258 56.4514" fill="#EBF3FF"/>
<path d="M50 58.0646C54.4539 58.0646 58.0645 54.454 58.0645 50.0001C58.0645 45.5462 54.4539 41.9355 50 41.9355C45.5461 41.9355 41.9355 45.5462 41.9355 50.0001C41.9355 54.454 45.5461 58.0646 50 58.0646Z" fill="#98B8FF"/>
</svg>
