<svg width="1440" height="343" viewBox="0 0 1440 343" fill="none" xmlns="http://www.w3.org/2000/svg">
<path d="M6 314C6 312.336 4.66406 311 3 311C1.33594 311 -2.1397e-07 312.336 -1.37629e-07 314C-6.12878e-08 315.664 1.33594 317 3 317C4.66406 317 6 315.664 6 314Z" fill="#FFDCA5"/>
<path d="M6 262C6 260.336 4.66406 259 3 259C1.33594 259 -2.1397e-07 260.336 -1.37629e-07 262C-6.12878e-08 263.664 1.33594 265 3 265C4.66406 265 6 263.664 6 262Z" fill="#FFDCA5"/>
<path d="M6 211C6 209.336 4.66406 208 3 208C1.33594 208 -2.1397e-07 209.336 -1.37629e-07 211C-6.12878e-08 212.664 1.33594 214 3 214C4.66406 214 6 212.664 6 211Z" fill="#FFDCA5"/>
<path d="M6 159C6 157.343 4.65685 156 3 156C1.34315 156 -2.13639e-07 157.343 -1.37629e-07 159C-6.16185e-08 160.657 1.34315 162 3 162C4.65685 162 6 160.657 6 159Z" fill="#FFDCA5"/>
<path d="M6 107C6 105.336 4.66406 104 3 104C1.33594 104 -2.1397e-07 105.336 -1.37629e-07 107C-6.12878e-08 108.664 1.33594 110 3 110C4.66406 110 6 108.664 6 107Z" fill="#FFDCA5"/>
<path d="M6 55C6 53.3359 4.66406 52 3 52C1.33594 52 -2.1397e-07 53.3359 -1.37629e-07 55C-6.12878e-08 56.6641 1.33594 58 3 58C4.66406 58 6 56.6641 6 55Z" fill="#FFDCA5"/>
<path d="M6 3C6 1.33594 4.66406 -1.94252e-07 3 -1.24946e-07C1.33594 -5.564e-08 -2.1397e-07 1.33594 -1.37629e-07 3C-6.12878e-08 4.66406 1.33594 6 3 6C4.66406 6 6 4.66406 6 3Z" fill="#FFDCA5"/>
<path d="M75 340C75 338.336 73.6641 337 72 337C70.3359 337 69 338.336 69 340C69 341.664 70.3359 343 72 343C73.6641 343 75 341.664 75 340Z" fill="#FFDCA5"/>
<path d="M75 288C75 286.343 73.6569 285 72 285C70.3431 285 69 286.343 69 288C69 289.657 70.3431 291 72 291C73.6569 291 75 289.657 75 288Z" fill="#FFDCA5"/>
<path d="M75 237C75 235.336 73.6641 234 72 234C70.3359 234 69 235.336 69 237C69 238.664 70.3359 240 72 240C73.6641 240 75 238.664 75 237Z" fill="#FFDCA5"/>
<path d="M75 185C75 183.336 73.6641 182 72 182C70.3359 182 69 183.336 69 185C69 186.664 70.3359 188 72 188C73.6641 188 75 186.664 75 185Z" fill="#FFDCA5"/>
<path d="M75 133C75 131.336 73.6641 130 72 130C70.3359 130 69 131.336 69 133C69 134.664 70.3359 136 72 136C73.6641 136 75 134.664 75 133Z" fill="#FFDCA5"/>
<path d="M75 81C75 79.3359 73.6641 78 72 78C70.3359 78 69 79.3359 69 81C69 82.6641 70.3359 84 72 84C73.6641 84 75 82.6641 75 81Z" fill="#FFDCA5"/>
<path d="M75 29C75 27.3431 73.6569 26 72 26C70.3431 26 69 27.3431 69 29C69 30.6569 70.3431 32 72 32C73.6569 32 75 30.6569 75 29Z" fill="#FFDCA5"/>
<path d="M141 314C141 312.336 139.664 311 138 311C136.336 311 135 312.336 135 314C135 315.664 136.336 317 138 317C139.664 317 141 315.664 141 314Z" fill="#FFDCA5"/>
<path d="M141 262C141 260.336 139.664 259 138 259C136.336 259 135 260.336 135 262C135 263.664 136.336 265 138 265C139.664 265 141 263.664 141 262Z" fill="#FFDCA5"/>
<path d="M141 211C141 209.336 139.664 208 138 208C136.336 208 135 209.336 135 211C135 212.664 136.336 214 138 214C139.664 214 141 212.664 141 211Z" fill="#FFDCA5"/>
<path d="M141 159C141 157.336 139.664 156 138 156C136.336 156 135 157.336 135 159C135 160.664 136.336 162 138 162C139.664 162 141 160.664 141 159Z" fill="#FFDCA5"/>
<path d="M141 107C141 105.336 139.664 104 138 104C136.336 104 135 105.336 135 107C135 108.664 136.336 110 138 110C139.664 110 141 108.664 141 107Z" fill="#FFDCA5"/>
<path d="M141 55C141 53.3359 139.664 52 138 52C136.336 52 135 53.3359 135 55C135 56.6641 136.336 58 138 58C139.664 58 141 56.6641 141 55Z" fill="#FFDCA5"/>
<path d="M141 3C141 1.33594 139.664 -1.55464e-07 138 -9.99967e-08C136.336 -4.45298e-08 135 1.33594 135 3C135 4.66406 136.336 6 138 6C139.664 6 141 4.66406 141 3Z" fill="#FFDCA5"/>
<path d="M212 340C212 338.336 210.664 337 209 337C207.336 337 206 338.336 206 340C206 341.664 207.336 343 209 343C210.664 343 212 341.664 212 340Z" fill="#FFDCA5"/>
<path d="M212 288C212 286.336 210.664 285 209 285C207.336 285 206 286.336 206 288C206 289.664 207.336 291 209 291C210.664 291 212 289.664 212 288Z" fill="#FFDCA5"/>
<path d="M212 237C212 235.336 210.664 234 209 234C207.336 234 206 235.336 206 237C206 238.664 207.336 240 209 240C210.664 240 212 238.664 212 237Z" fill="#FFDCA5"/>
<path d="M212 185C212 183.336 210.664 182 209 182C207.336 182 206 183.336 206 185C206 186.664 207.336 188 209 188C210.664 188 212 186.664 212 185Z" fill="#FFDCA5"/>
<path d="M212 133C212 131.336 210.664 130 209 130C207.336 130 206 131.336 206 133C206 134.664 207.336 136 209 136C210.664 136 212 134.664 212 133Z" fill="#FFDCA5"/>
<path d="M212 81C212 79.3359 210.664 78 209 78C207.336 78 206 79.3359 206 81C206 82.6641 207.336 84 209 84C210.664 84 212 82.6641 212 81Z" fill="#FFDCA5"/>
<path d="M212 29C212 27.3359 210.664 26 209 26C207.336 26 206 27.3359 206 29C206 30.6641 207.336 32 209 32C210.664 32 212 30.6641 212 29Z" fill="#FFDCA5"/>
<path d="M279 314C279 312.336 277.664 311 276 311C274.336 311 273 312.336 273 314C273 315.664 274.336 317 276 317C277.664 317 279 315.664 279 314Z" fill="#FFDCA5"/>
<path d="M279 262C279 260.336 277.664 259 276 259C274.336 259 273 260.336 273 262C273 263.664 274.336 265 276 265C277.664 265 279 263.664 279 262Z" fill="#FFDCA5"/>
<path d="M279 211C279 209.336 277.664 208 276 208C274.336 208 273 209.336 273 211C273 212.664 274.336 214 276 214C277.664 214 279 212.664 279 211Z" fill="#FFDCA5"/>
<path d="M279 159C279 157.336 277.664 156 276 156C274.336 156 273 157.336 273 159C273 160.664 274.336 162 276 162C277.664 162 279 160.664 279 159Z" fill="#FFDCA5"/>
<path d="M279 107C279 105.336 277.664 104 276 104C274.336 104 273 105.336 273 107C273 108.664 274.336 110 276 110C277.664 110 279 108.664 279 107Z" fill="#FFDCA5"/>
<path d="M279 55C279 53.3359 277.664 52 276 52C274.336 52 273 53.3359 273 55C273 56.6641 274.336 58 276 58C277.664 58 279 56.6641 279 55Z" fill="#FFDCA5"/>
<path d="M279 3C279 1.33594 277.664 -1.55065e-07 276 -9.97402e-08C274.336 -4.44157e-08 273 1.33594 273 3C273 4.66406 274.336 6 276 6C277.664 6 279 4.66406 279 3Z" fill="#FFDCA5"/>
<path d="M348 340C348 338.336 346.664 337 345 337C343.336 337 342 338.336 342 340C342 341.664 343.336 343 345 343C346.664 343 348 341.664 348 340Z" fill="#FFDCA5"/>
<path d="M348 288C348 286.343 346.657 285 345 285C343.343 285 342 286.343 342 288C342 289.657 343.343 291 345 291C346.657 291 348 289.657 348 288Z" fill="#FFDCA5"/>
<path d="M348 237C348 235.336 346.664 234 345 234C343.336 234 342 235.336 342 237C342 238.664 343.336 240 345 240C346.664 240 348 238.664 348 237Z" fill="#FFDCA5"/>
<path d="M348 185C348 183.336 346.664 182 345 182C343.336 182 342 183.336 342 185C342 186.664 343.336 188 345 188C346.664 188 348 186.664 348 185Z" fill="#FFDCA5"/>
<path d="M348 133C348 131.336 346.664 130 345 130C343.336 130 342 131.336 342 133C342 134.664 343.336 136 345 136C346.664 136 348 134.664 348 133Z" fill="#FFDCA5"/>
<path d="M348 81C348 79.3359 346.664 78 345 78C343.336 78 342 79.3359 342 81C342 82.6641 343.336 84 345 84C346.664 84 348 82.6641 348 81Z" fill="#FFDCA5"/>
<path d="M348 29C348 27.3431 346.657 26 345 26C343.343 26 342 27.3431 342 29C342 30.6569 343.343 32 345 32C346.657 32 348 30.6569 348 29Z" fill="#FFDCA5"/>
<path d="M415 314C415 312.336 413.664 311 412 311C410.336 311 409 312.336 409 314C409 315.664 410.336 317 412 317C413.664 317 415 315.664 415 314Z" fill="#FFDCA5"/>
<path d="M415 262C415 260.336 413.664 259 412 259C410.336 259 409 260.336 409 262C409 263.664 410.336 265 412 265C413.664 265 415 263.664 415 262Z" fill="#FFDCA5"/>
<path d="M415 211C415 209.336 413.664 208 412 208C410.336 208 409 209.336 409 211C409 212.664 410.336 214 412 214C413.664 214 415 212.664 415 211Z" fill="#FFDCA5"/>
<path d="M415 159C415 157.343 413.657 156 412 156C410.343 156 409 157.343 409 159C409 160.657 410.343 162 412 162C413.657 162 415 160.657 415 159Z" fill="#FFDCA5"/>
<path d="M415 107C415 105.336 413.664 104 412 104C410.336 104 409 105.336 409 107C409 108.664 410.336 110 412 110C413.664 110 415 108.664 415 107Z" fill="#FFDCA5"/>
<path d="M415 55C415 53.3359 413.664 52 412 52C410.336 52 409 53.3359 409 55C409 56.6641 410.336 58 412 58C413.664 58 415 56.6641 415 55Z" fill="#FFDCA5"/>
<path d="M415 3C415 1.33594 413.664 -1.55197e-07 412 -9.98254e-08C410.336 -4.44535e-08 409 1.33594 409 3C409 4.66406 410.336 6 412 6C413.664 6 415 4.66406 415 3Z" fill="#FFDCA5"/>
<path d="M484 340C484 338.336 482.664 337 481 337C479.336 337 478 338.336 478 340C478 341.664 479.336 343 481 343C482.664 343 484 341.664 484 340Z" fill="#FFDCA5"/>
<path d="M484 288C484 286.336 482.664 285 481 285C479.336 285 478 286.336 478 288C478 289.664 479.336 291 481 291C482.664 291 484 289.664 484 288Z" fill="#FFDCA5"/>
<path d="M484 237C484 235.336 482.664 234 481 234C479.336 234 478 235.336 478 237C478 238.664 479.336 240 481 240C482.664 240 484 238.664 484 237Z" fill="#FFDCA5"/>
<path d="M484 185C484 183.336 482.664 182 481 182C479.336 182 478 183.336 478 185C478 186.664 479.336 188 481 188C482.664 188 484 186.664 484 185Z" fill="#FFDCA5"/>
<path d="M484 133C484 131.336 482.664 130 481 130C479.336 130 478 131.336 478 133C478 134.664 479.336 136 481 136C482.664 136 484 134.664 484 133Z" fill="#FFDCA5"/>
<path d="M484 81C484 79.3359 482.664 78 481 78C479.336 78 478 79.3359 478 81C478 82.6641 479.336 84 481 84C482.664 84 484 82.6641 484 81Z" fill="#FFDCA5"/>
<path d="M484 29C484 27.3359 482.664 26 481 26C479.336 26 478 27.3359 478 29C478 30.6641 479.336 32 481 32C482.664 32 484 30.6641 484 29Z" fill="#FFDCA5"/>
<path d="M552 314C552 312.336 550.664 311 549 311C547.336 311 546 312.336 546 314C546 315.664 547.336 317 549 317C550.664 317 552 315.664 552 314Z" fill="#FFDCA5"/>
<path d="M552 262C552 260.336 550.664 259 549 259C547.336 259 546 260.336 546 262C546 263.664 547.336 265 549 265C550.664 265 552 263.664 552 262Z" fill="#FFDCA5"/>
<path d="M552 211C552 209.336 550.664 208 549 208C547.336 208 546 209.336 546 211C546 212.664 547.336 214 549 214C550.664 214 552 212.664 552 211Z" fill="#FFDCA5"/>
<path d="M552 159C552 157.336 550.664 156 549 156C547.336 156 546 157.336 546 159C546 160.664 547.336 162 549 162C550.664 162 552 160.664 552 159Z" fill="#FFDCA5"/>
<path d="M552 107C552 105.336 550.664 104 549 104C547.336 104 546 105.336 546 107C546 108.664 547.336 110 549 110C550.664 110 552 108.664 552 107Z" fill="#FFDCA5"/>
<path d="M552 55C552 53.3359 550.664 52 549 52C547.336 52 546 53.3359 546 55C546 56.6641 547.336 58 549 58C550.664 58 552 56.6641 552 55Z" fill="#FFDCA5"/>
<path d="M552 3C552 1.33594 550.664 -1.54932e-07 549 -9.96551e-08C547.336 -4.43779e-08 546 1.33594 546 3C546 4.66406 547.336 6 549 6C550.664 6 552 4.66406 552 3Z" fill="#FFDCA5"/>
<path d="M620 340C620 338.336 618.664 337 617 337C615.336 337 614 338.336 614 340C614 341.664 615.336 343 617 343C618.664 343 620 341.664 620 340Z" fill="#FFDCA5"/>
<path d="M620 288C620 286.336 618.664 285 617 285C615.336 285 614 286.336 614 288C614 289.664 615.336 291 617 291C618.664 291 620 289.664 620 288Z" fill="#FFDCA5"/>
<path d="M620 237C620 235.336 618.664 234 617 234C615.336 234 614 235.336 614 237C614 238.664 615.336 240 617 240C618.664 240 620 238.664 620 237Z" fill="#FFDCA5"/>
<path d="M620 185C620 183.336 618.664 182 617 182C615.336 182 614 183.336 614 185C614 186.664 615.336 188 617 188C618.664 188 620 186.664 620 185Z" fill="#FFDCA5"/>
<path d="M620 133C620 131.336 618.664 130 617 130C615.336 130 614 131.336 614 133C614 134.664 615.336 136 617 136C618.664 136 620 134.664 620 133Z" fill="#FFDCA5"/>
<path d="M620 81C620 79.3359 618.664 78 617 78C615.336 78 614 79.3359 614 81C614 82.6641 615.336 84 617 84C618.664 84 620 82.6641 620 81Z" fill="#FFDCA5"/>
<path d="M620 29C620 27.3359 618.664 26 617 26C615.336 26 614 27.3359 614 29C614 30.6641 615.336 32 617 32C618.664 32 620 30.6641 620 29Z" fill="#FFDCA5"/>
<path d="M688 314C688 312.336 686.664 311 685 311C683.336 311 682 312.336 682 314C682 315.664 683.336 317 685 317C686.664 317 688 315.664 688 314Z" fill="#FFDCA5"/>
<path d="M688 262C688 260.336 686.664 259 685 259C683.336 259 682 260.336 682 262C682 263.664 683.336 265 685 265C686.664 265 688 263.664 688 262Z" fill="#FFDCA5"/>
<path d="M688 211C688 209.336 686.664 208 685 208C683.336 208 682 209.336 682 211C682 212.664 683.336 214 685 214C686.664 214 688 212.664 688 211Z" fill="#FFDCA5"/>
<path d="M688 159C688 157.343 686.657 156 685 156C683.343 156 682 157.343 682 159C682 160.657 683.343 162 685 162C686.657 162 688 160.657 688 159Z" fill="#FFDCA5"/>
<path d="M688 107C688 105.336 686.664 104 685 104C683.336 104 682 105.336 682 107C682 108.664 683.336 110 685 110C686.664 110 688 108.664 688 107Z" fill="#FFDCA5"/>
<path d="M688 55C688 53.3359 686.664 52 685 52C683.336 52 682 53.3359 682 55C682 56.6641 683.336 58 685 58C686.664 58 688 56.6641 688 55Z" fill="#FFDCA5"/>
<path d="M688 3C688 1.33594 686.664 -1.54932e-07 685 -9.96548e-08C683.336 -4.43775e-08 682 1.33594 682 3C682 4.66406 683.336 6 685 6C686.664 6 688 4.66406 688 3Z" fill="#FFDCA5"/>
<path d="M758 340C758 338.336 756.664 337 755 337C753.336 337 752 338.336 752 340C752 341.664 753.336 343 755 343C756.664 343 758 341.664 758 340Z" fill="#FFDCA5"/>
<path d="M758 288C758 286.343 756.657 285 755 285C753.343 285 752 286.343 752 288C752 289.657 753.343 291 755 291C756.657 291 758 289.657 758 288Z" fill="#FFDCA5"/>
<path d="M758 237C758 235.336 756.664 234 755 234C753.336 234 752 235.336 752 237C752 238.664 753.336 240 755 240C756.664 240 758 238.664 758 237Z" fill="#FFDCA5"/>
<path d="M758 185C758 183.336 756.664 182 755 182C753.336 182 752 183.336 752 185C752 186.664 753.336 188 755 188C756.664 188 758 186.664 758 185Z" fill="#FFDCA5"/>
<path d="M758 133C758 131.336 756.664 130 755 130C753.336 130 752 131.336 752 133C752 134.664 753.336 136 755 136C756.664 136 758 134.664 758 133Z" fill="#FFDCA5"/>
<path d="M758 81C758 79.3359 756.664 78 755 78C753.336 78 752 79.3359 752 81C752 82.6641 753.336 84 755 84C756.664 84 758 82.6641 758 81Z" fill="#FFDCA5"/>
<path d="M758 29C758 27.3431 756.657 26 755 26C753.343 26 752 27.3431 752 29C752 30.6569 753.343 32 755 32C756.657 32 758 30.6569 758 29Z" fill="#FFDCA5"/>
<path d="M825 314C825 312.336 823.664 311 822 311C820.336 311 819 312.336 819 314C819 315.664 820.336 317 822 317C823.664 317 825 315.664 825 314Z" fill="#FFDCA5"/>
<path d="M825 262C825 260.336 823.664 259 822 259C820.336 259 819 260.336 819 262C819 263.664 820.336 265 822 265C823.664 265 825 263.664 825 262Z" fill="#FFDCA5"/>
<path d="M825 211C825 209.336 823.664 208 822 208C820.336 208 819 209.336 819 211C819 212.664 820.336 214 822 214C823.664 214 825 212.664 825 211Z" fill="#FFDCA5"/>
<path d="M825 159C825 157.336 823.664 156 822 156C820.336 156 819 157.336 819 159C819 160.664 820.336 162 822 162C823.664 162 825 160.664 825 159Z" fill="#FFDCA5"/>
<path d="M825 107C825 105.336 823.664 104 822 104C820.336 104 819 105.336 819 107C819 108.664 820.336 110 822 110C823.664 110 825 108.664 825 107Z" fill="#FFDCA5"/>
<path d="M825 55C825 53.3359 823.664 52 822 52C820.336 52 819 53.3359 819 55C819 56.6641 820.336 58 822 58C823.664 58 825 56.6641 825 55Z" fill="#FFDCA5"/>
<path d="M825 3C825 1.33594 823.664 -1.54957e-07 822 -9.96708e-08C820.336 -4.43846e-08 819 1.33594 819 3C819 4.66406 820.336 6 822 6C823.664 6 825 4.66406 825 3Z" fill="#FFDCA5"/>
<path d="M893 340C893 338.336 891.664 337 890 337C888.336 337 887 338.336 887 340C887 341.664 888.336 343 890 343C891.664 343 893 341.664 893 340Z" fill="#FFDCA5"/>
<path d="M893 288C893 286.336 891.664 285 890 285C888.336 285 887 286.336 887 288C887 289.664 888.336 291 890 291C891.664 291 893 289.664 893 288Z" fill="#FFDCA5"/>
<path d="M893 237C893 235.336 891.664 234 890 234C888.336 234 887 235.336 887 237C887 238.664 888.336 240 890 240C891.664 240 893 238.664 893 237Z" fill="#FFDCA5"/>
<path d="M893 185C893 183.336 891.664 182 890 182C888.336 182 887 183.336 887 185C887 186.664 888.336 188 890 188C891.664 188 893 186.664 893 185Z" fill="#FFDCA5"/>
<path d="M893 133C893 131.336 891.664 130 890 130C888.336 130 887 131.336 887 133C887 134.664 888.336 136 890 136C891.664 136 893 134.664 893 133Z" fill="#FFDCA5"/>
<path d="M893 81C893 79.3359 891.664 78 890 78C888.336 78 887 79.3359 887 81C887 82.6641 888.336 84 890 84C891.664 84 893 82.6641 893 81Z" fill="#FFDCA5"/>
<path d="M893 29C893 27.3359 891.664 26 890 26C888.336 26 887 27.3359 887 29C887 30.6641 888.336 32 890 32C891.664 32 893 30.6641 893 29Z" fill="#FFDCA5"/>
<path d="M963 314C963 312.336 961.664 311 960 311C958.336 311 957 312.336 957 314C957 315.664 958.336 317 960 317C961.664 317 963 315.664 963 314Z" fill="#FFDCA5"/>
<path d="M963 262C963 260.336 961.664 259 960 259C958.336 259 957 260.336 957 262C957 263.664 958.336 265 960 265C961.664 265 963 263.664 963 262Z" fill="#FFDCA5"/>
<path d="M963 211C963 209.336 961.664 208 960 208C958.336 208 957 209.336 957 211C957 212.664 958.336 214 960 214C961.664 214 963 212.664 963 211Z" fill="#FFDCA5"/>
<path d="M963 159C963 157.336 961.664 156 960 156C958.336 156 957 157.336 957 159C957 160.664 958.336 162 960 162C961.664 162 963 160.664 963 159Z" fill="#FFDCA5"/>
<path d="M963 107C963 105.336 961.664 104 960 104C958.336 104 957 105.336 957 107C957 108.664 958.336 110 960 110C961.664 110 963 108.664 963 107Z" fill="#FFDCA5"/>
<path d="M963 55C963 53.3359 961.664 52 960 52C958.336 52 957 53.3359 957 55C957 56.6641 958.336 58 960 58C961.664 58 963 56.6641 963 55Z" fill="#FFDCA5"/>
<path d="M963 3C963 1.33594 961.664 -1.54824e-07 960 -9.95856e-08C958.336 -4.43467e-08 957 1.33594 957 3C957 4.66406 958.336 6 960 6C961.664 6 963 4.66406 963 3Z" fill="#FFDCA5"/>
<path d="M1030 340C1030 338.336 1028.66 337 1027 337C1025.34 337 1024 338.336 1024 340C1024 341.664 1025.34 343 1027 343C1028.66 343 1030 341.664 1030 340Z" fill="#FFDCA5"/>
<path d="M1030 288C1030 286.343 1028.66 285 1027 285C1025.34 285 1024 286.343 1024 288C1024 289.657 1025.34 291 1027 291C1028.66 291 1030 289.657 1030 288Z" fill="#FFDCA5"/>
<path d="M1030 237C1030 235.336 1028.66 234 1027 234C1025.34 234 1024 235.336 1024 237C1024 238.664 1025.34 240 1027 240C1028.66 240 1030 238.664 1030 237Z" fill="#FFDCA5"/>
<path d="M1030 185C1030 183.336 1028.66 182 1027 182C1025.34 182 1024 183.336 1024 185C1024 186.664 1025.34 188 1027 188C1028.66 188 1030 186.664 1030 185Z" fill="#FFDCA5"/>
<path d="M1030 133C1030 131.336 1028.66 130 1027 130C1025.34 130 1024 131.336 1024 133C1024 134.664 1025.34 136 1027 136C1028.66 136 1030 134.664 1030 133Z" fill="#FFDCA5"/>
<path d="M1030 81C1030 79.3359 1028.66 78 1027 78C1025.34 78 1024 79.3359 1024 81C1024 82.6641 1025.34 84 1027 84C1028.66 84 1030 82.6641 1030 81Z" fill="#FFDCA5"/>
<path d="M1030 29C1030 27.3431 1028.66 26 1027 26C1025.34 26 1024 27.3431 1024 29C1024 30.6569 1025.34 32 1027 32C1028.66 32 1030 30.6569 1030 29Z" fill="#FFDCA5"/>
<path d="M1099 314C1099 312.336 1097.66 311 1096 311C1094.34 311 1093 312.336 1093 314C1093 315.664 1094.34 317 1096 317C1097.66 317 1099 315.664 1099 314Z" fill="#FFDCA5"/>
<path d="M1099 262C1099 260.336 1097.66 259 1096 259C1094.34 259 1093 260.336 1093 262C1093 263.664 1094.34 265 1096 265C1097.66 265 1099 263.664 1099 262Z" fill="#FFDCA5"/>
<path d="M1099 211C1099 209.336 1097.66 208 1096 208C1094.34 208 1093 209.336 1093 211C1093 212.664 1094.34 214 1096 214C1097.66 214 1099 212.664 1099 211Z" fill="#FFDCA5"/>
<path d="M1099 159C1099 157.343 1097.66 156 1096 156C1094.34 156 1093 157.343 1093 159C1093 160.657 1094.34 162 1096 162C1097.66 162 1099 160.657 1099 159Z" fill="#FFDCA5"/>
<path d="M1099 107C1099 105.336 1097.66 104 1096 104C1094.34 104 1093 105.336 1093 107C1093 108.664 1094.34 110 1096 110C1097.66 110 1099 108.664 1099 107Z" fill="#FFDCA5"/>
<path d="M1099 55C1099 53.3359 1097.66 52 1096 52C1094.34 52 1093 53.3359 1093 55C1093 56.6641 1094.34 58 1096 58C1097.66 58 1099 56.6641 1099 55Z" fill="#FFDCA5"/>
<path d="M1099 3C1099 1.33594 1097.66 -1.54824e-07 1096 -9.9585e-08C1094.34 -4.43464e-08 1093 1.33594 1093 3C1093 4.66406 1094.34 6 1096 6C1097.66 6 1099 4.66406 1099 3Z" fill="#FFDCA5"/>
<path d="M1166 340C1166 338.336 1164.66 337 1163 337C1161.34 337 1160 338.336 1160 340C1160 341.664 1161.34 343 1163 343C1164.66 343 1166 341.664 1166 340Z" fill="#FFDCA5"/>
<path d="M1166 288C1166 286.336 1164.66 285 1163 285C1161.34 285 1160 286.336 1160 288C1160 289.664 1161.34 291 1163 291C1164.66 291 1166 289.664 1166 288Z" fill="#FFDCA5"/>
<path d="M1166 237C1166 235.336 1164.66 234 1163 234C1161.34 234 1160 235.336 1160 237C1160 238.664 1161.34 240 1163 240C1164.66 240 1166 238.664 1166 237Z" fill="#FFDCA5"/>
<path d="M1166 185C1166 183.336 1164.66 182 1163 182C1161.34 182 1160 183.336 1160 185C1160 186.664 1161.34 188 1163 188C1164.66 188 1166 186.664 1166 185Z" fill="#FFDCA5"/>
<path d="M1166 133C1166 131.336 1164.66 130 1163 130C1161.34 130 1160 131.336 1160 133C1160 134.664 1161.34 136 1163 136C1164.66 136 1166 134.664 1166 133Z" fill="#FFDCA5"/>
<path d="M1166 81C1166 79.3359 1164.66 78 1163 78C1161.34 78 1160 79.3359 1160 81C1160 82.6641 1161.34 84 1163 84C1164.66 84 1166 82.6641 1166 81Z" fill="#FFDCA5"/>
<path d="M1166 29C1166 27.3359 1164.66 26 1163 26C1161.34 26 1160 27.3359 1160 29C1160 30.6641 1161.34 32 1163 32C1164.66 32 1166 30.6641 1166 29Z" fill="#FFDCA5"/>
<path d="M1235 314C1235 312.336 1233.66 311 1232 311C1230.34 311 1229 312.336 1229 314C1229 315.664 1230.34 317 1232 317C1233.66 317 1235 315.664 1235 314Z" fill="#FFDCA5"/>
<path d="M1235 262C1235 260.336 1233.66 259 1232 259C1230.34 259 1229 260.336 1229 262C1229 263.664 1230.34 265 1232 265C1233.66 265 1235 263.664 1235 262Z" fill="#FFDCA5"/>
<path d="M1235 211C1235 209.336 1233.66 208 1232 208C1230.34 208 1229 209.336 1229 211C1229 212.664 1230.34 214 1232 214C1233.66 214 1235 212.664 1235 211Z" fill="#FFDCA5"/>
<path d="M1235 159C1235 157.336 1233.66 156 1232 156C1230.34 156 1229 157.336 1229 159C1229 160.664 1230.34 162 1232 162C1233.66 162 1235 160.664 1235 159Z" fill="#FFDCA5"/>
<path d="M1235 107C1235 105.336 1233.66 104 1232 104C1230.34 104 1229 105.336 1229 107C1229 108.664 1230.34 110 1232 110C1233.66 110 1235 108.664 1235 107Z" fill="#FFDCA5"/>
<path d="M1235 55C1235 53.3359 1233.66 52 1232 52C1230.34 52 1229 53.3359 1229 55C1229 56.6641 1230.34 58 1232 58C1233.66 58 1235 56.6641 1235 55Z" fill="#FFDCA5"/>
<path d="M1235 3C1235 1.33594 1233.66 -1.54957e-07 1232 -9.96708e-08C1230.34 -4.43846e-08 1229 1.33594 1229 3C1229 4.66406 1230.34 6 1232 6C1233.66 6 1235 4.66406 1235 3Z" fill="#FFDCA5"/>
<path d="M1303 340C1303 338.336 1301.66 337 1300 337C1298.34 337 1297 338.336 1297 340C1297 341.664 1298.34 343 1300 343C1301.66 343 1303 341.664 1303 340Z" fill="#FFDCA5"/>
<path d="M1303 288C1303 286.336 1301.66 285 1300 285C1298.34 285 1297 286.336 1297 288C1297 289.664 1298.34 291 1300 291C1301.66 291 1303 289.664 1303 288Z" fill="#FFDCA5"/>
<path d="M1303 237C1303 235.336 1301.66 234 1300 234C1298.34 234 1297 235.336 1297 237C1297 238.664 1298.34 240 1300 240C1301.66 240 1303 238.664 1303 237Z" fill="#FFDCA5"/>
<path d="M1303 185C1303 183.336 1301.66 182 1300 182C1298.34 182 1297 183.336 1297 185C1297 186.664 1298.34 188 1300 188C1301.66 188 1303 186.664 1303 185Z" fill="#FFDCA5"/>
<path d="M1303 133C1303 131.336 1301.66 130 1300 130C1298.34 130 1297 131.336 1297 133C1297 134.664 1298.34 136 1300 136C1301.66 136 1303 134.664 1303 133Z" fill="#FFDCA5"/>
<path d="M1303 81C1303 79.3359 1301.66 78 1300 78C1298.34 78 1297 79.3359 1297 81C1297 82.6641 1298.34 84 1300 84C1301.66 84 1303 82.6641 1303 81Z" fill="#FFDCA5"/>
<path d="M1303 29C1303 27.3359 1301.66 26 1300 26C1298.34 26 1297 27.3359 1297 29C1297 30.6641 1298.34 32 1300 32C1301.66 32 1303 30.6641 1303 29Z" fill="#FFDCA5"/>
<path d="M1372 314C1372 312.336 1370.66 311 1369 311C1367.34 311 1366 312.336 1366 314C1366 315.664 1367.34 317 1369 317C1370.66 317 1372 315.664 1372 314Z" fill="#FFDCA5"/>
<path d="M1372 262C1372 260.336 1370.66 259 1369 259C1367.34 259 1366 260.336 1366 262C1366 263.664 1367.34 265 1369 265C1370.66 265 1372 263.664 1372 262Z" fill="#FFDCA5"/>
<path d="M1372 211C1372 209.336 1370.66 208 1369 208C1367.34 208 1366 209.336 1366 211C1366 212.664 1367.34 214 1369 214C1370.66 214 1372 212.664 1372 211Z" fill="#FFDCA5"/>
<path d="M1372 159C1372 157.343 1370.66 156 1369 156C1367.34 156 1366 157.343 1366 159C1366 160.657 1367.34 162 1369 162C1370.66 162 1372 160.657 1372 159Z" fill="#FFDCA5"/>
<path d="M1372 107C1372 105.336 1370.66 104 1369 104C1367.34 104 1366 105.336 1366 107C1366 108.664 1367.34 110 1369 110C1370.66 110 1372 108.664 1372 107Z" fill="#FFDCA5"/>
<path d="M1372 55C1372 53.3359 1370.66 52 1369 52C1367.34 52 1366 53.3359 1366 55C1366 56.6641 1367.34 58 1369 58C1370.66 58 1372 56.6641 1372 55Z" fill="#FFDCA5"/>
<path d="M1372 3C1372 1.33594 1370.66 -1.54824e-07 1369 -9.95856e-08C1367.34 -4.43467e-08 1366 1.33594 1366 3C1366 4.66406 1367.34 6 1369 6C1370.66 6 1372 4.66406 1372 3Z" fill="#FFDCA5"/>
<path d="M1440 340C1440 338.336 1438.66 337 1437 337C1435.34 337 1434 338.336 1434 340C1434 341.664 1435.34 343 1437 343C1438.66 343 1440 341.664 1440 340Z" fill="#FFDCA5"/>
<path d="M1440 288C1440 286.343 1438.66 285 1437 285C1435.34 285 1434 286.343 1434 288C1434 289.657 1435.34 291 1437 291C1438.66 291 1440 289.657 1440 288Z" fill="#FFDCA5"/>
<path d="M1440 237C1440 235.336 1438.66 234 1437 234C1435.34 234 1434 235.336 1434 237C1434 238.664 1435.34 240 1437 240C1438.66 240 1440 238.664 1440 237Z" fill="#FFDCA5"/>
<path d="M1440 185C1440 183.336 1438.66 182 1437 182C1435.34 182 1434 183.336 1434 185C1434 186.664 1435.34 188 1437 188C1438.66 188 1440 186.664 1440 185Z" fill="#FFDCA5"/>
<path d="M1440 133C1440 131.336 1438.66 130 1437 130C1435.34 130 1434 131.336 1434 133C1434 134.664 1435.34 136 1437 136C1438.66 136 1440 134.664 1440 133Z" fill="#FFDCA5"/>
<path d="M1440 81C1440 79.3359 1438.66 78 1437 78C1435.34 78 1434 79.3359 1434 81C1434 82.6641 1435.34 84 1437 84C1438.66 84 1440 82.6641 1440 81Z" fill="#FFDCA5"/>
<path d="M1440 29C1440 27.3431 1438.66 26 1437 26C1435.34 26 1434 27.3431 1434 29C1434 30.6569 1435.34 32 1437 32C1438.66 32 1440 30.6569 1440 29Z" fill="#FFDCA5"/>
</svg>
